M48
;Layer_Color=9474304
;FILE_FORMAT=2:4
INCH,TZ
;TYPE=PLATED
T1F00S00C0.0200
T2F00S00C0.0280
T3F00S00C0.0300
T4F00S00C0.0320
T5F00S00C0.0362
T6F00S00C0.0400
T7F00S00C0.0450
T8F00S00C0.0472
T9F00S00C0.0650
T10F00S00C0.0709
T11F00S00C0.0906
T12F00S00C0.1250
T13F00S00C0.1378
%
T01
X11800Y31400
Y33400
Y35400
Y37400
X13800Y41700
Y42500
X15800Y37400
Y35400
Y33400
Y31400
X25000Y31100
Y30100
X26000Y29600
Y28100
X27000Y30100
X23500Y41700
X21700Y42500
T02
X10000Y2500
X18800Y19200
X28400Y12900
X10800Y19500
X9800Y20200
T03
X7100Y2500
Y4500
X7000Y8000
X5000
X23300Y4700
X25300
X28100Y5400
X28900
X39300Y7200
X40300
X41300
X42300
Y10200
X41300
X40300
X39300
X45300Y21100
Y22100
Y23100
Y24100
Y25100
Y26100
Y27100
X46300
Y26100
Y25100
Y24100
Y23100
Y22100
Y21100
X43400Y19200
X42400
Y18200
X43400
X41400
X40400
X39400
X38400
X37400
X36400
X35400
X34400
X33400
X32400
X31400
Y19200
X32400
X33400
X34400
X35400
X36400
X37400
X38400
X39400
X40400
X41400
X29500Y21100
Y22100
Y23100
Y24100
Y25100
Y26100
Y27100
X28500
Y26100
Y25100
Y24100
Y23100
Y22100
Y21100
X12600Y16000
X10600
X7900Y15600
X6300
Y17600
X7900
X28500Y28100
Y29100
Y30100
Y31100
Y32100
Y33100
X29500
Y32100
Y31100
Y30100
Y29100
Y28100
X31400Y35000
Y36000
X32400
X33400
Y35000
X34400
X35400
X36400
X37400
X38400
X39400
X40400
X41400
X42400
X43400
Y36000
X42400
X41400
X40400
X39400
X38400
X37400
X36400
X35400
X34400
X32400Y35000
X45300Y33100
X46300
Y32100
Y31100
X45300
Y30100
Y29100
Y28100
X46300
Y29100
Y30100
X45300Y32100
X30000Y43600
Y45600
X30800Y46300
Y49300
X26700Y50600
X25700Y48600
X24000
Y45600
X25700Y44600
X27000Y45600
Y43600
X26700Y47600
X20400Y50700
Y52700
T04
X9100Y6700
X10600Y7710
Y8680
X10100Y10100
X11100
X9100Y9700
X20300Y6200
X21300
Y3200
X20300
X28100Y3700
X27900Y11900
X28900
X30400Y8900
Y5900
X31100Y3700
X30500Y2700
X32500
X34300Y6900
X36300
Y9900
Y11420
X34300
Y9900
X38300Y11200
Y12100
X41300
Y11200
X44000
X44900
Y9200
X44000
Y6200
X44900
X45800
Y9200
Y11200
Y14200
X44900
X44000
X39300Y13200
X38300
X36300Y12390
X34300
X27000Y23100
Y24100
Y25100
Y26100
X24000
X23000
Y27100
Y25100
Y24100
Y23100
Y22100
Y21100
X20000
Y22100
Y23100
Y24100
Y25100
Y26100
Y27100
X18800Y25600
X16800
X15800
Y26600
X17800
Y24100
X16800Y23100
X15800
Y24100
Y21600
Y20600
X16800
X18800
X17800Y21600
X18800Y23100
X24000
Y24100
Y25100
X11800Y25600
Y26600
Y24100
Y23100
Y21600
Y20600
X11100Y13100
X10100
X11800Y28100
Y29100
X13800Y30400
Y32400
Y34400
Y36400
X16800
Y37400
Y35400
Y34400
Y33400
Y32400
Y31400
Y30400
X18800
X19800
Y31400
Y32400
Y33400
Y34400
Y35400
Y36400
Y37400
X18800Y36400
Y34400
Y32400
X21800Y31100
X22300Y30000
X23300
X23800Y31100
X23300Y34390
X22300
X23000Y28100
X20000
X18800
X16800
X15800
Y29100
X17800
X32300Y30400
Y31300
Y32200
Y33100
X35300
Y32200
Y31300
Y30400
X32700Y46300
Y49300
X30000Y44600
X27000
T05
X36200Y5100
X37184
X37972
X38956
T06
X28900Y7900
Y8900
Y9900
X31400Y8900
X32500Y9900
Y5900
X31400Y4900
X46500Y2700
X48500
X50500
X50300Y17200
Y18200
Y19200
Y20200
Y21200
X51300
Y20200
Y19200
Y18200
Y17200
Y26200
Y27200
X50300
Y26200
X36300Y14300
X34300
X31400Y14865
X30400
X29400
X28400
X27400
X26400
X4100Y16600
Y12600
X10300Y43104
X11300Y42705
X50300Y39200
X51300
Y38200
X50300
Y37200
X51300
Y36200
X50300
Y35200
X51300
Y30200
X50300
Y29200
X51300
Y28200
X50300
Y44200
X51300
Y45200
X50300
Y46200
X51300
Y47200
X50300
Y48200
X51300
X21848Y47118
X20400Y48565
Y45670
X18952Y47118
X17848Y47618
X14952
X16400Y46170
Y49065
X11300Y47500
Y46701
Y45902
X10300Y46301
Y47100
Y45502
Y44703
Y43904
X11300Y44303
Y43504
T07
X13300Y6400
Y12700
T08
X5600Y10800
X7000
X8400
X16500Y4100
X17900
X18600Y2500
X17200
X15800
X7700Y12400
X6300
T09
X3048Y41927
Y48278
T10
X47400Y6546
Y8200
X49565
Y6546
Y11546
X47400
Y13200
X49565
X7725Y22593
Y24246
Y25900
Y27554
X5560
Y25900
Y24246
Y22593
Y31893
Y33546
Y35200
Y36854
X7725
Y35200
Y33546
Y31893
T11
X34991Y4033
X40165
T12
X4300Y42602
Y47602
T13
X12800Y2465
X42400
Y52665
X12800
M30
