G04*
G04 #@! TF.GenerationSoftware,Altium Limited,Altium Designer,22.6.1 (34)*
G04*
G04 Layer_Color=65535*
%FSLAX25Y25*%
%MOIN*%
G70*
G04*
G04 #@! TF.SameCoordinates,AF77A519-CAE8-4CE4-B455-2A79372E2E6D*
G04*
G04*
G04 #@! TF.FilePolarity,Positive*
G04*
G01*
G75*
%ADD10C,0.00787*%
%ADD11C,0.01181*%
%ADD12C,0.01000*%
%ADD13C,0.01968*%
%ADD14C,0.00500*%
%ADD15C,0.00600*%
%ADD16C,0.00700*%
%ADD17R,0.10000X0.05000*%
%ADD18R,0.22000X0.05000*%
%ADD19R,0.05000X0.10000*%
G36*
X275063Y67000D02*
X282000D01*
Y111000D01*
X275063D01*
Y67000D01*
D02*
G37*
D10*
X496047Y91000D02*
X495260D01*
X496047D01*
Y141000D02*
X495260D01*
X496047D01*
X55992Y216929D02*
X55205D01*
X55992D01*
Y309929D02*
X55205D01*
X55992D01*
X186944Y235472D02*
X186438Y236367D01*
X185842Y237205D01*
X185163Y237977D01*
X184409Y238676D01*
X183587Y239294D01*
X182706Y239824D01*
X173528Y239944D02*
X172633Y239438D01*
X171795Y238842D01*
X171023Y238163D01*
X170324Y237409D01*
X169706Y236587D01*
X169176Y235706D01*
X194551Y469602D02*
X195012Y468489D01*
X196126Y468028D01*
Y471177D02*
X195012Y470716D01*
X194551Y469603D01*
X196126Y471177D02*
X197240Y471639D01*
X197701Y472752D01*
Y472752D02*
X197240Y473866D01*
X196126Y474327D01*
X213449Y472752D02*
X212988Y473866D01*
X211874Y474327D01*
Y471177D02*
X212988Y471639D01*
X213449Y472752D01*
X211874Y471177D02*
X210760Y470716D01*
X210299Y469602D01*
Y469602D02*
X210760Y468489D01*
X211874Y468028D01*
X170299Y474603D02*
X170761Y473489D01*
X171874Y473028D01*
X171874Y476177D02*
X170761Y475716D01*
X170299Y474603D01*
X171874Y476177D02*
X172988Y476639D01*
X173449Y477752D01*
X173449Y477752D02*
X172988Y478866D01*
X171874Y479327D01*
X157701Y477752D02*
X157240Y478866D01*
X156126Y479327D01*
X156126Y476177D02*
X157240Y476639D01*
X157701Y477752D01*
X156126Y476177D02*
X155012Y475716D01*
X154551Y474603D01*
X154551Y474603D02*
X155012Y473489D01*
X156126Y473028D01*
X383000Y137000D02*
X382025Y136904D01*
X381087Y136619D01*
X380222Y136157D01*
X379465Y135536D01*
X378843Y134778D01*
X378381Y133913D01*
X378096Y132975D01*
X378000Y132000D01*
X378096Y131025D01*
X378381Y130087D01*
X378843Y129222D01*
X379465Y128464D01*
X380222Y127843D01*
X381087Y127381D01*
X382025Y127096D01*
X383000Y127000D01*
X393000D02*
X393975Y127096D01*
X394913Y127381D01*
X395778Y127843D01*
X396535Y128464D01*
X397157Y129222D01*
X397619Y130087D01*
X397904Y131025D01*
X398000Y132000D01*
X397904Y132975D01*
X397619Y133913D01*
X397157Y134778D01*
X396535Y135536D01*
X395778Y136157D01*
X394913Y136619D01*
X393975Y136904D01*
X393000Y137000D01*
X355698Y124355D02*
X355139Y123495D01*
X354681Y122577D01*
X354330Y121614D01*
X354090Y120617D01*
X353965Y119599D01*
X353955Y118574D01*
X354061Y117554D01*
X354282Y116552D01*
X354615Y115582D01*
X355055Y114656D01*
X355597Y113786D01*
X356234Y112982D01*
X356958Y112256D01*
X357759Y111616D01*
X358628Y111070D01*
X359552Y110627D01*
X366448D02*
X367372Y111070D01*
X368241Y111616D01*
X369042Y112256D01*
X369766Y112982D01*
X370403Y113786D01*
X370945Y114656D01*
X371385Y115582D01*
X371718Y116552D01*
X371939Y117554D01*
X372045Y118574D01*
X372035Y119599D01*
X371910Y120617D01*
X371670Y121614D01*
X371319Y122577D01*
X370861Y123495D01*
X370302Y124355D01*
X388000Y84500D02*
X388957Y84690D01*
X389768Y85232D01*
X390310Y86043D01*
X390500Y87000D01*
X390310Y87957D01*
X389768Y88768D01*
X388957Y89310D01*
X388000Y89500D01*
X279000Y124000D02*
X278025Y123904D01*
X277087Y123619D01*
X276222Y123157D01*
X275465Y122536D01*
X274843Y121778D01*
X274381Y120913D01*
X274096Y119975D01*
X274000Y119000D01*
X274096Y118025D01*
X274381Y117087D01*
X274843Y116222D01*
X275465Y115464D01*
X276222Y114843D01*
X277087Y114381D01*
X278025Y114096D01*
X279000Y114000D01*
X289000D02*
X289976Y114096D01*
X290913Y114381D01*
X291778Y114843D01*
X292535Y115464D01*
X293157Y116222D01*
X293619Y117087D01*
X293904Y118025D01*
X294000Y119000D01*
X293904Y119975D01*
X293619Y120913D01*
X293157Y121778D01*
X292535Y122536D01*
X291778Y123157D01*
X290913Y123619D01*
X289976Y123904D01*
X289000Y124000D01*
X305000Y32000D02*
X304025Y31904D01*
X303087Y31619D01*
X302222Y31157D01*
X301465Y30536D01*
X300843Y29778D01*
X300381Y28913D01*
X300096Y27975D01*
X300000Y27000D01*
X300096Y26024D01*
X300381Y25087D01*
X300843Y24222D01*
X301465Y23464D01*
X302222Y22843D01*
X303087Y22381D01*
X304025Y22096D01*
X305000Y22000D01*
X325000D02*
X325975Y22096D01*
X326913Y22381D01*
X327778Y22843D01*
X328536Y23464D01*
X329157Y24222D01*
X329619Y25087D01*
X329904Y26024D01*
X330000Y27000D01*
X329904Y27975D01*
X329619Y28913D01*
X329157Y29778D01*
X328536Y30536D01*
X327778Y31157D01*
X326913Y31619D01*
X325975Y31904D01*
X325000Y32000D01*
X335698Y124355D02*
X335139Y123495D01*
X334682Y122577D01*
X334330Y121614D01*
X334090Y120617D01*
X333965Y119599D01*
X333955Y118574D01*
X334061Y117554D01*
X334282Y116552D01*
X334615Y115582D01*
X335055Y114656D01*
X335597Y113786D01*
X336234Y112982D01*
X336958Y112256D01*
X337759Y111616D01*
X338628Y111070D01*
X339552Y110627D01*
X346448D02*
X347372Y111070D01*
X348241Y111616D01*
X349042Y112256D01*
X349766Y112982D01*
X350403Y113786D01*
X350945Y114656D01*
X351385Y115582D01*
X351718Y116552D01*
X351939Y117554D01*
X352045Y118574D01*
X352035Y119599D01*
X351910Y120617D01*
X351670Y121614D01*
X351319Y122577D01*
X350861Y123495D01*
X350302Y124355D01*
X503394Y234559D02*
X502606D01*
X503394D01*
Y324559D02*
X502606D01*
X503394D01*
Y414559D02*
X502606D01*
X503394D01*
Y504559D02*
X502606D01*
X503394D01*
X217500Y206000D02*
X217310Y206957D01*
X216768Y207768D01*
X215957Y208310D01*
X215000Y208500D01*
X214043Y208310D01*
X213232Y207768D01*
X212690Y206957D01*
X212500Y206000D01*
X223000Y348900D02*
X222024Y348804D01*
X221087Y348519D01*
X220222Y348057D01*
X219464Y347435D01*
X218843Y346678D01*
X218381Y345813D01*
X218096Y344876D01*
X218000Y343900D01*
X218096Y342924D01*
X218381Y341987D01*
X218843Y341122D01*
X219464Y340365D01*
X220222Y339743D01*
X221087Y339281D01*
X222024Y338996D01*
X223000Y338900D01*
X233000D02*
X233976Y338996D01*
X234913Y339281D01*
X235778Y339743D01*
X236536Y340365D01*
X237157Y341122D01*
X237619Y341987D01*
X237904Y342924D01*
X238000Y343900D01*
X237904Y344876D01*
X237619Y345813D01*
X237157Y346678D01*
X236536Y347435D01*
X235778Y348057D01*
X234913Y348519D01*
X233976Y348804D01*
X233000Y348900D01*
X113302Y76645D02*
X113861Y77505D01*
X114319Y78423D01*
X114670Y79386D01*
X114910Y80383D01*
X115035Y81401D01*
X115045Y82426D01*
X114939Y83446D01*
X114718Y84448D01*
X114385Y85418D01*
X113945Y86344D01*
X113403Y87214D01*
X112766Y88018D01*
X112042Y88744D01*
X111241Y89384D01*
X110372Y89930D01*
X109448Y90373D01*
X102552D02*
X101628Y89930D01*
X100759Y89384D01*
X99958Y88744D01*
X99234Y88018D01*
X98597Y87214D01*
X98055Y86344D01*
X97615Y85418D01*
X97282Y84448D01*
X97061Y83446D01*
X96955Y82426D01*
X96965Y81401D01*
X97090Y80383D01*
X97330Y79386D01*
X97681Y78423D01*
X98139Y77505D01*
X98698Y76645D01*
X188000Y369000D02*
X187024Y368904D01*
X186087Y368619D01*
X185222Y368157D01*
X184465Y367535D01*
X183843Y366778D01*
X183381Y365913D01*
X183096Y364976D01*
X183000Y364000D01*
X183096Y363024D01*
X183381Y362087D01*
X183843Y361222D01*
X184465Y360465D01*
X185222Y359843D01*
X186087Y359381D01*
X187024Y359096D01*
X188000Y359000D01*
X198000D02*
X198976Y359096D01*
X199913Y359381D01*
X200778Y359843D01*
X201536Y360465D01*
X202157Y361222D01*
X202619Y362087D01*
X202904Y363024D01*
X203000Y364000D01*
X202904Y364976D01*
X202619Y365913D01*
X202157Y366778D01*
X201536Y367535D01*
X200778Y368157D01*
X199913Y368619D01*
X198976Y368904D01*
X198000Y369000D01*
X188000Y349000D02*
X187024Y348904D01*
X186087Y348619D01*
X185222Y348157D01*
X184465Y347535D01*
X183843Y346778D01*
X183381Y345913D01*
X183096Y344975D01*
X183000Y344000D01*
X183096Y343024D01*
X183381Y342087D01*
X183843Y341222D01*
X184465Y340464D01*
X185222Y339843D01*
X186087Y339381D01*
X187024Y339096D01*
X188000Y339000D01*
X198000D02*
X198976Y339096D01*
X199913Y339381D01*
X200778Y339843D01*
X201536Y340464D01*
X202157Y341222D01*
X202619Y342087D01*
X202904Y343024D01*
X203000Y344000D01*
X202904Y344975D01*
X202619Y345913D01*
X202157Y346778D01*
X201536Y347535D01*
X200778Y348157D01*
X199913Y348619D01*
X198976Y348904D01*
X198000Y349000D01*
X188000Y329000D02*
X187024Y328904D01*
X186087Y328619D01*
X185222Y328157D01*
X184465Y327536D01*
X183843Y326778D01*
X183381Y325913D01*
X183096Y324975D01*
X183000Y324000D01*
X183096Y323025D01*
X183381Y322087D01*
X183843Y321222D01*
X184465Y320464D01*
X185222Y319843D01*
X186087Y319381D01*
X187024Y319096D01*
X188000Y319000D01*
X198000D02*
X198976Y319096D01*
X199913Y319381D01*
X200778Y319843D01*
X201536Y320464D01*
X202157Y321222D01*
X202619Y322087D01*
X202904Y323025D01*
X203000Y324000D01*
X202904Y324975D01*
X202619Y325913D01*
X202157Y326778D01*
X201536Y327536D01*
X200778Y328157D01*
X199913Y328619D01*
X198976Y328904D01*
X198000Y329000D01*
X188000Y309000D02*
X187024Y308904D01*
X186087Y308619D01*
X185222Y308157D01*
X184465Y307536D01*
X183843Y306778D01*
X183381Y305913D01*
X183096Y304976D01*
X183000Y304000D01*
X183096Y303025D01*
X183381Y302087D01*
X183843Y301222D01*
X184465Y300465D01*
X185222Y299843D01*
X186087Y299381D01*
X187024Y299096D01*
X188000Y299000D01*
X198000D02*
X198976Y299096D01*
X199913Y299381D01*
X200778Y299843D01*
X201536Y300465D01*
X202157Y301222D01*
X202619Y302087D01*
X202904Y303025D01*
X203000Y304000D01*
X202904Y304976D01*
X202619Y305913D01*
X202157Y306778D01*
X201536Y307536D01*
X200778Y308157D01*
X199913Y308619D01*
X198976Y308904D01*
X198000Y309000D01*
X238000Y306000D02*
X238976Y306096D01*
X239913Y306381D01*
X240778Y306843D01*
X241535Y307465D01*
X242157Y308222D01*
X242619Y309087D01*
X242904Y310024D01*
X243000Y311000D01*
X242904Y311976D01*
X242619Y312913D01*
X242157Y313778D01*
X241535Y314535D01*
X240778Y315157D01*
X239913Y315619D01*
X238976Y315904D01*
X238000Y316000D01*
X218000D02*
X217024Y315904D01*
X216087Y315619D01*
X215222Y315157D01*
X214464Y314535D01*
X213843Y313778D01*
X213381Y312913D01*
X213096Y311976D01*
X213000Y311000D01*
X213096Y310024D01*
X213381Y309087D01*
X213843Y308222D01*
X214464Y307465D01*
X215222Y306843D01*
X216087Y306381D01*
X217024Y306096D01*
X218000Y306000D01*
X173528Y214944D02*
X172633Y214438D01*
X171795Y213842D01*
X171023Y213163D01*
X170324Y212409D01*
X169706Y211587D01*
X169176Y210706D01*
X186944Y210472D02*
X186438Y211367D01*
X185842Y212205D01*
X185163Y212977D01*
X184409Y213676D01*
X183587Y214294D01*
X182706Y214824D01*
X173528Y264944D02*
X172633Y264438D01*
X171795Y263842D01*
X171023Y263163D01*
X170324Y262409D01*
X169706Y261587D01*
X169176Y260706D01*
X186944Y260472D02*
X186438Y261367D01*
X185842Y262205D01*
X185163Y262977D01*
X184409Y263676D01*
X183587Y264294D01*
X182706Y264824D01*
X173528Y289944D02*
X172633Y289438D01*
X171795Y288842D01*
X171023Y288163D01*
X170324Y287409D01*
X169706Y286587D01*
X169176Y285706D01*
X186944Y285472D02*
X186438Y286367D01*
X185842Y287205D01*
X185163Y287977D01*
X184409Y288676D01*
X183587Y289294D01*
X182706Y289824D01*
X233000Y295000D02*
X233976Y295096D01*
X234913Y295381D01*
X235778Y295843D01*
X236536Y296464D01*
X237157Y297222D01*
X237619Y298087D01*
X237904Y299025D01*
X238000Y300000D01*
X237904Y300975D01*
X237619Y301913D01*
X237157Y302778D01*
X236536Y303536D01*
X235778Y304157D01*
X234913Y304619D01*
X233976Y304904D01*
X233000Y305000D01*
X223000D02*
X222024Y304904D01*
X221087Y304619D01*
X220222Y304157D01*
X219464Y303536D01*
X218843Y302778D01*
X218381Y301913D01*
X218096Y300975D01*
X218000Y300000D01*
X218096Y299025D01*
X218381Y298087D01*
X218843Y297222D01*
X219464Y296464D01*
X220222Y295843D01*
X221087Y295381D01*
X222024Y295096D01*
X223000Y295000D01*
X275000Y446000D02*
X278000D01*
Y442000D02*
X292000D01*
X278000Y450000D02*
X292000D01*
X278000Y442000D02*
Y450000D01*
X292000Y442000D02*
Y450000D01*
Y446000D02*
X295000D01*
X327000Y468000D02*
Y471000D01*
X331000D02*
Y485000D01*
X323000Y471000D02*
Y485000D01*
Y471000D02*
X331000D01*
X323000Y485000D02*
X331000D01*
X327000D02*
Y488000D01*
X213000Y37000D02*
Y40000D01*
X217000D02*
Y54000D01*
X209000Y40000D02*
Y54000D01*
Y40000D02*
X217000D01*
X209000Y54000D02*
X217000D01*
X213000D02*
Y57000D01*
X168000Y224500D02*
X188000D01*
X356000Y150000D02*
X370000D01*
Y136000D02*
Y150000D01*
X356000Y136000D02*
X370000D01*
X356000D02*
Y150000D01*
X478000Y20000D02*
Y34000D01*
Y20000D02*
X492000D01*
Y34000D01*
X478000D02*
X492000D01*
X458000D02*
X472000D01*
Y20000D02*
Y34000D01*
X458000Y20000D02*
X472000D01*
X458000D02*
Y34000D01*
X498000Y20000D02*
Y34000D01*
Y20000D02*
X512000D01*
Y34000D01*
X498000D02*
X512000D01*
X336000Y150000D02*
X350000D01*
Y136000D02*
Y150000D01*
X336000Y136000D02*
X350000D01*
X336000D02*
Y150000D01*
X202031Y463303D02*
X205968D01*
X162031Y468303D02*
X165969D01*
X230000Y448500D02*
X250000D01*
X230000Y493500D02*
X250000D01*
X230000Y448500D02*
Y493500D01*
X250000Y448500D02*
Y493500D01*
X383000Y127000D02*
X393000D01*
X383000Y137000D02*
X393000D01*
X355698Y124355D02*
X358000D01*
X368000D02*
X370302D01*
X440000Y84000D02*
Y87000D01*
X436000Y70000D02*
Y84000D01*
X444000Y70000D02*
Y84000D01*
X436000D02*
X444000D01*
X436000Y70000D02*
X444000D01*
X440000Y67000D02*
Y70000D01*
X328000Y313000D02*
X331000D01*
Y309000D02*
X345000D01*
X331000Y317000D02*
X345000D01*
X331000Y309000D02*
Y317000D01*
X345000Y309000D02*
Y317000D01*
Y313000D02*
X348000D01*
X328000Y304000D02*
X331000D01*
Y300000D02*
X345000D01*
X331000Y308000D02*
X345000D01*
X331000Y300000D02*
Y308000D01*
X345000Y300000D02*
Y308000D01*
Y304000D02*
X348000D01*
X328000Y331000D02*
X331000D01*
Y327000D02*
X345000D01*
X331000Y335000D02*
X345000D01*
X331000Y327000D02*
Y335000D01*
X345000Y327000D02*
Y335000D01*
Y331000D02*
X348000D01*
X328000Y322000D02*
X331000D01*
Y318000D02*
X345000D01*
X331000Y326000D02*
X345000D01*
X331000Y318000D02*
Y326000D01*
X345000Y318000D02*
Y326000D01*
Y322000D02*
X348000D01*
X252000Y453000D02*
Y479000D01*
X257000D02*
Y480000D01*
Y452000D02*
Y453000D01*
X252000Y474000D02*
X262000D01*
Y453000D02*
Y479000D01*
X252000D02*
X262000D01*
X252000Y453000D02*
X262000D01*
X308000Y485000D02*
Y488000D01*
X304000Y485000D02*
X312000D01*
X304000Y471000D02*
X312000D01*
X304000D02*
Y485000D01*
X312000Y471000D02*
Y485000D01*
X308000Y468000D02*
Y471000D01*
X292000Y456000D02*
X295000D01*
X292000Y452000D02*
Y460000D01*
X278000Y452000D02*
Y460000D01*
X292000D01*
X278000Y452000D02*
X292000D01*
X275000Y456000D02*
X278000D01*
X292000Y436000D02*
X295000D01*
X292000Y432000D02*
Y440000D01*
X278000Y432000D02*
Y440000D01*
X292000D01*
X278000Y432000D02*
X292000D01*
X275000Y436000D02*
X278000D01*
X267000Y498000D02*
Y501000D01*
X263000Y498000D02*
X271000D01*
X263000Y484000D02*
X271000D01*
X263000D02*
Y498000D01*
X271000Y484000D02*
Y498000D01*
X267000Y481000D02*
Y484000D01*
X203000Y37000D02*
Y40000D01*
X207000D02*
Y54000D01*
X199000Y40000D02*
Y54000D01*
Y40000D02*
X207000D01*
X199000Y54000D02*
X207000D01*
X203000D02*
Y57000D01*
X122000Y82500D02*
Y108500D01*
X133000D02*
Y121000D01*
Y70000D02*
Y82500D01*
X122000Y103500D02*
X144000D01*
Y82500D02*
Y108500D01*
X122000D02*
X144000D01*
X122000Y82500D02*
X144000D01*
X458000Y67000D02*
Y70000D01*
X454000D02*
X462000D01*
X454000Y84000D02*
X462000D01*
Y70000D02*
Y84000D01*
X454000Y70000D02*
Y84000D01*
X458000D02*
Y87000D01*
X428000Y77000D02*
Y97000D01*
X388000Y77000D02*
X428000D01*
X388000Y89500D02*
Y97000D01*
Y77000D02*
Y84500D01*
Y97000D02*
X428000D01*
X388000Y121000D02*
X391000D01*
Y117000D02*
Y125000D01*
X405000Y117000D02*
Y125000D01*
X391000Y117000D02*
X405000D01*
X391000Y125000D02*
X405000D01*
Y121000D02*
X408000D01*
X449000Y67000D02*
Y70000D01*
X453000D02*
Y84000D01*
X445000Y70000D02*
Y84000D01*
Y70000D02*
X453000D01*
X445000Y84000D02*
X453000D01*
X449000D02*
Y87000D01*
X388000Y112000D02*
X391000D01*
Y108000D02*
Y116000D01*
X405000Y108000D02*
Y116000D01*
X391000Y108000D02*
X405000D01*
X391000Y116000D02*
X405000D01*
Y112000D02*
X408000D01*
X279000Y114000D02*
X289000D01*
X279000Y124000D02*
X289000D01*
X305000Y32000D02*
X325000D01*
X305000Y22000D02*
X325000D01*
X458000Y117000D02*
Y120000D01*
X462000D02*
Y134000D01*
X454000Y120000D02*
Y134000D01*
Y120000D02*
X462000D01*
X454000Y134000D02*
X462000D01*
X458000D02*
Y137000D01*
X335698Y124355D02*
X338000D01*
X348000D02*
X350302D01*
X297000Y67000D02*
Y111000D01*
X275063Y67000D02*
X297000D01*
X275063Y111000D02*
X297000D01*
X275063Y67000D02*
Y111000D01*
X286000Y37000D02*
X289000D01*
Y33000D02*
X303000D01*
X289000Y41000D02*
X303000D01*
X289000Y33000D02*
Y41000D01*
X303000Y33000D02*
Y41000D01*
Y37000D02*
X306000D01*
X304000Y64000D02*
Y67000D01*
X308000D02*
Y81000D01*
X300000Y67000D02*
Y81000D01*
Y67000D02*
X308000D01*
X300000Y81000D02*
X308000D01*
X304000D02*
Y84000D01*
X440000Y134000D02*
Y137000D01*
X436000Y120000D02*
Y134000D01*
X444000Y120000D02*
Y134000D01*
X436000D02*
X444000D01*
X436000Y120000D02*
X444000D01*
X440000Y117000D02*
Y120000D01*
X449000Y134000D02*
Y137000D01*
X445000Y120000D02*
Y134000D01*
X453000Y120000D02*
Y134000D01*
X445000D02*
X453000D01*
X445000Y120000D02*
X453000D01*
X449000Y117000D02*
Y120000D01*
X101000Y106000D02*
Y109000D01*
X105000D02*
Y123000D01*
X97000Y109000D02*
Y123000D01*
Y109000D02*
X105000D01*
X97000Y123000D02*
X105000D01*
X101000D02*
Y126000D01*
X111000Y106000D02*
Y109000D01*
X115000D02*
Y123000D01*
X107000Y109000D02*
Y123000D01*
Y109000D02*
X115000D01*
X107000Y123000D02*
X115000D01*
X111000D02*
Y126000D01*
X36000Y133000D02*
Y159000D01*
X41000D02*
Y160000D01*
Y132000D02*
Y133000D01*
X36000Y154000D02*
X46000D01*
Y133000D02*
Y159000D01*
X36000D02*
X46000D01*
X36000Y133000D02*
X46000D01*
X143000Y364000D02*
X146000D01*
Y360000D02*
Y368000D01*
X160000Y360000D02*
Y368000D01*
X146000Y360000D02*
X160000D01*
X146000Y368000D02*
X160000D01*
Y364000D02*
X163000D01*
X143000Y344000D02*
X146000D01*
Y340000D02*
Y348000D01*
X160000Y340000D02*
Y348000D01*
X146000Y340000D02*
X160000D01*
X146000Y348000D02*
X160000D01*
Y344000D02*
X163000D01*
X143000Y324000D02*
X146000D01*
Y320000D02*
Y328000D01*
X160000Y320000D02*
Y328000D01*
X146000Y320000D02*
X160000D01*
X146000Y328000D02*
X160000D01*
Y324000D02*
X163000D01*
X143000Y304000D02*
X146000D01*
Y300000D02*
Y308000D01*
X160000Y300000D02*
Y308000D01*
X146000Y300000D02*
X160000D01*
X146000Y308000D02*
X160000D01*
Y304000D02*
X163000D01*
X205000Y286000D02*
X225000D01*
X205000Y206000D02*
Y286000D01*
X217500Y206000D02*
X225000D01*
X205000D02*
X212500D01*
X225000D02*
Y286000D01*
X223000Y338900D02*
X233000D01*
X223000Y348900D02*
X233000D01*
X262000Y261000D02*
X265000D01*
X248000Y265000D02*
X262000D01*
X248000Y257000D02*
X262000D01*
Y265000D01*
X248000Y257000D02*
Y265000D01*
X245000Y261000D02*
X248000D01*
X262000Y251000D02*
X265000D01*
X248000Y255000D02*
X262000D01*
X248000Y247000D02*
X262000D01*
Y255000D01*
X248000Y247000D02*
Y255000D01*
X245000Y251000D02*
X248000D01*
X262000Y241000D02*
X265000D01*
X248000Y245000D02*
X262000D01*
X248000Y237000D02*
X262000D01*
Y245000D01*
X248000Y237000D02*
Y245000D01*
X245000Y241000D02*
X248000D01*
X262000Y231000D02*
X265000D01*
X248000Y235000D02*
X262000D01*
X248000Y227000D02*
X262000D01*
Y235000D01*
X248000Y227000D02*
Y235000D01*
X245000Y231000D02*
X248000D01*
X363000Y74000D02*
Y77000D01*
X359000D02*
X367000D01*
X359000Y91000D02*
X367000D01*
Y77000D02*
Y91000D01*
X359000Y77000D02*
Y91000D01*
X363000D02*
Y94000D01*
X343000Y74000D02*
Y77000D01*
X339000D02*
X347000D01*
X339000Y91000D02*
X347000D01*
Y77000D02*
Y91000D01*
X339000Y77000D02*
Y91000D01*
X343000D02*
Y94000D01*
X309000Y56000D02*
X319000D01*
X309000Y82000D02*
X319000D01*
Y56000D02*
Y82000D01*
X309000Y77000D02*
X319000D01*
X314000Y55000D02*
Y56000D01*
Y82000D02*
Y83000D01*
X309000Y56000D02*
Y82000D01*
X320000Y66000D02*
X330000D01*
X320000Y92000D02*
X330000D01*
Y66000D02*
Y92000D01*
X320000Y87000D02*
X330000D01*
X325000Y65000D02*
Y66000D01*
Y92000D02*
Y93000D01*
X320000Y66000D02*
Y92000D01*
X277500Y343500D02*
X302500D01*
X277500Y198500D02*
X302500D01*
X277500D02*
Y343500D01*
X302500Y198500D02*
Y343500D01*
X301500Y342500D02*
X446500D01*
X301500Y367500D02*
X446500D01*
X301500Y342500D02*
Y367500D01*
X446500Y342500D02*
Y367500D01*
X445500Y198500D02*
Y343500D01*
X470500Y198500D02*
Y343500D01*
X445500D02*
X470500D01*
X445500Y198500D02*
X470500D01*
X301500Y174500D02*
Y199500D01*
X446500Y174500D02*
Y199500D01*
X301500Y174500D02*
X446500D01*
X301500Y199500D02*
X446500D01*
X91000Y89000D02*
Y92000D01*
X87000Y75000D02*
Y89000D01*
X95000Y75000D02*
Y89000D01*
X87000D02*
X95000D01*
X87000Y75000D02*
X95000D01*
X91000Y72000D02*
Y75000D01*
X111000Y76645D02*
X113302D01*
X98698D02*
X101000D01*
X125000Y319000D02*
X151000D01*
Y314000D02*
X152000D01*
X124000D02*
X125000D01*
X146000Y309000D02*
Y319000D01*
X125000Y309000D02*
X151000D01*
Y319000D01*
X125000Y309000D02*
Y319000D01*
Y339000D02*
X151000D01*
Y334000D02*
X152000D01*
X124000D02*
X125000D01*
X146000Y329000D02*
Y339000D01*
X125000Y329000D02*
X151000D01*
Y339000D01*
X125000Y329000D02*
Y339000D01*
Y379000D02*
X151000D01*
Y374000D02*
X152000D01*
X124000D02*
X125000D01*
X146000Y369000D02*
Y379000D01*
X125000Y369000D02*
X151000D01*
Y379000D01*
X125000Y369000D02*
Y379000D01*
Y359000D02*
X151000D01*
Y354000D02*
X152000D01*
X124000D02*
X125000D01*
X146000Y349000D02*
Y359000D01*
X125000Y349000D02*
X151000D01*
Y359000D01*
X125000Y349000D02*
Y359000D01*
X173000Y374000D02*
X176000D01*
Y370000D02*
X190000D01*
X176000Y378000D02*
X190000D01*
X176000Y370000D02*
Y378000D01*
X190000Y370000D02*
Y378000D01*
Y374000D02*
X193000D01*
X173000Y354000D02*
X176000D01*
Y350000D02*
X190000D01*
X176000Y358000D02*
X190000D01*
X176000Y350000D02*
Y358000D01*
X190000Y350000D02*
Y358000D01*
Y354000D02*
X193000D01*
X173000Y334000D02*
X176000D01*
Y330000D02*
X190000D01*
X176000Y338000D02*
X190000D01*
X176000Y330000D02*
Y338000D01*
X190000Y330000D02*
Y338000D01*
Y334000D02*
X193000D01*
X173000Y314000D02*
X176000D01*
Y310000D02*
X190000D01*
X176000Y318000D02*
X190000D01*
X176000Y310000D02*
Y318000D01*
X190000Y310000D02*
Y318000D01*
Y314000D02*
X193000D01*
X188000Y359000D02*
X198000D01*
X188000Y369000D02*
X198000D01*
X188000Y339000D02*
X198000D01*
X188000Y349000D02*
X198000D01*
X188000Y319000D02*
X198000D01*
X188000Y329000D02*
X198000D01*
X188000Y299000D02*
X198000D01*
X188000Y309000D02*
X198000D01*
X309000Y143654D02*
Y153654D01*
X319000Y143654D02*
Y153654D01*
X259000Y143654D02*
X319000D01*
X259000D02*
Y153654D01*
X319000D01*
X218000Y306000D02*
X238000D01*
X218000Y316000D02*
X238000D01*
X150000Y227000D02*
Y235000D01*
X126000Y227000D02*
X150000D01*
X126000D02*
Y235000D01*
X150000D01*
Y231000D02*
X153000D01*
X123000D02*
X126000D01*
X150000Y212000D02*
Y220000D01*
X126000Y212000D02*
X150000D01*
X126000D02*
Y220000D01*
X150000D01*
Y216000D02*
X153000D01*
X123000D02*
X126000D01*
X150000Y202000D02*
Y210000D01*
X126000Y202000D02*
X150000D01*
X126000D02*
Y210000D01*
X150000D01*
Y206000D02*
X153000D01*
X123000D02*
X126000D01*
X168000Y199500D02*
X188000D01*
X150000Y252000D02*
Y260000D01*
X126000Y252000D02*
X150000D01*
X126000D02*
Y260000D01*
X150000D01*
Y256000D02*
X153000D01*
X123000D02*
X126000D01*
X150000Y237000D02*
Y245000D01*
X126000Y237000D02*
X150000D01*
X126000D02*
Y245000D01*
X150000D01*
Y241000D02*
X153000D01*
X123000D02*
X126000D01*
X150000Y262000D02*
Y270000D01*
X126000Y262000D02*
X150000D01*
X126000D02*
Y270000D01*
X150000D01*
Y266000D02*
X153000D01*
X123000D02*
X126000D01*
X150000Y277000D02*
Y285000D01*
X126000Y277000D02*
X150000D01*
X126000D02*
Y285000D01*
X150000D01*
Y281000D02*
X153000D01*
X123000D02*
X126000D01*
X150000Y287000D02*
Y295000D01*
X126000Y287000D02*
X150000D01*
X126000D02*
Y295000D01*
X150000D01*
Y291000D02*
X153000D01*
X123000D02*
X126000D01*
X168000Y249500D02*
X188000D01*
X168000Y274500D02*
X188000D01*
X223000Y305000D02*
X233000D01*
X223000Y295000D02*
X233000D01*
D11*
X348220Y50961D02*
X347433D01*
X348220D01*
D12*
X373400Y219500D02*
X372800Y219846D01*
Y219154D01*
X373400Y219500D01*
X324750Y278000D02*
X324250D01*
X324750D01*
X57500Y163000D02*
X56618Y162714D01*
X56073Y161963D01*
Y161037D01*
X56618Y160286D01*
X57500Y160000D01*
Y172000D02*
X56618Y171713D01*
X56073Y170964D01*
Y170036D01*
X56618Y169287D01*
X57500Y169000D01*
X56618Y168713D01*
X56073Y167964D01*
Y167036D01*
X56618Y166287D01*
X57500Y166000D01*
X56618Y165714D01*
X56073Y164963D01*
Y164037D01*
X56618Y163286D01*
X57500Y163000D01*
X92000Y166000D02*
X91976Y166999D01*
X91905Y167996D01*
X91786Y168989D01*
X91620Y169974D01*
X91408Y170951D01*
X91149Y171916D01*
X90845Y172868D01*
X90496Y173805D01*
X90102Y174724D01*
X89666Y175623D01*
X89187Y176500D01*
X88666Y177354D01*
X88106Y178181D01*
X87507Y178981D01*
X86871Y179752D01*
X86198Y180492D01*
X85492Y181198D01*
X84752Y181871D01*
X83981Y182507D01*
X83181Y183106D01*
X82354Y183666D01*
X81500Y184186D01*
X80623Y184666D01*
X79724Y185102D01*
X78805Y185496D01*
X77868Y185845D01*
X76916Y186149D01*
X75951Y186408D01*
X74974Y186620D01*
X73989Y186786D01*
X72996Y186905D01*
X71999Y186976D01*
X71000Y187000D01*
X70001Y186976D01*
X69004Y186905D01*
X68011Y186786D01*
X67026Y186620D01*
X66049Y186408D01*
X65084Y186149D01*
X64132Y185845D01*
X63195Y185496D01*
X62276Y185102D01*
X61377Y184666D01*
X60500Y184186D01*
X59647Y183666D01*
X58819Y183106D01*
X58019Y182507D01*
X57248Y181871D01*
X56508Y181198D01*
X55802Y180492D01*
X55129Y179752D01*
X54493Y178981D01*
X53894Y178181D01*
X53334Y177353D01*
X52814Y176500D01*
X52334Y175623D01*
X51898Y174724D01*
X51504Y173805D01*
X51155Y172868D01*
X50851Y171916D01*
X50592Y170951D01*
X50380Y169974D01*
X50214Y168989D01*
X50095Y167996D01*
X50024Y166999D01*
X50000Y166000D01*
X50024Y165001D01*
X50095Y164004D01*
X50214Y163011D01*
X50380Y162026D01*
X50592Y161049D01*
X50851Y160084D01*
X51155Y159132D01*
X51504Y158195D01*
X51898Y157276D01*
X52334Y156377D01*
X52814Y155500D01*
X53334Y154647D01*
X53894Y153819D01*
X54493Y153019D01*
X55129Y152248D01*
X55802Y151508D01*
X56508Y150802D01*
X57248Y150129D01*
X58019Y149493D01*
X58819Y148894D01*
X59647Y148334D01*
X60500Y147813D01*
X61377Y147334D01*
X62276Y146898D01*
X63195Y146504D01*
X64132Y146155D01*
X65084Y145851D01*
X66049Y145592D01*
X67026Y145379D01*
X68011Y145214D01*
X69004Y145095D01*
X70001Y145024D01*
X71000Y145000D01*
X71999Y145024D01*
X72996Y145095D01*
X73989Y145214D01*
X74974Y145379D01*
X75951Y145592D01*
X76916Y145851D01*
X77868Y146155D01*
X78805Y146504D01*
X79724Y146898D01*
X80623Y147335D01*
X81500Y147813D01*
X82354Y148334D01*
X83181Y148894D01*
X83981Y149493D01*
X84752Y150129D01*
X85492Y150802D01*
X86198Y151508D01*
X86871Y152248D01*
X87507Y153019D01*
X88106Y153819D01*
X88666Y154647D01*
X89187Y155500D01*
X89666Y156377D01*
X90102Y157276D01*
X90496Y158195D01*
X90845Y159132D01*
X91149Y160084D01*
X91408Y161049D01*
X91620Y162026D01*
X91786Y163011D01*
X91905Y164004D01*
X91976Y165001D01*
X92000Y166000D01*
X223685Y471177D02*
X223660Y472174D01*
X223584Y473169D01*
X223458Y474158D01*
X223282Y475140D01*
X223057Y476112D01*
X222782Y477070D01*
X222460Y478014D01*
X222090Y478940D01*
X221673Y479846D01*
X221212Y480731D01*
X220706Y481590D01*
X220157Y482423D01*
X219566Y483227D01*
X218936Y484000D01*
X218268Y484740D01*
X217562Y485445D01*
X216822Y486114D01*
X216049Y486744D01*
X215245Y487334D01*
X214413Y487883D01*
X213553Y488389D01*
X212669Y488851D01*
X211763Y489267D01*
X210837Y489637D01*
X209893Y489960D01*
X208934Y490234D01*
X207963Y490459D01*
X206981Y490635D01*
X205992Y490761D01*
X204997Y490837D01*
X204000Y490862D01*
X203003Y490837D01*
X202009Y490761D01*
X201019Y490635D01*
X200037Y490459D01*
X199066Y490234D01*
X198107Y489960D01*
X197163Y489637D01*
X196237Y489267D01*
X195331Y488851D01*
X194447Y488389D01*
X193587Y487883D01*
X192755Y487334D01*
X191951Y486744D01*
X191178Y486114D01*
X190438Y485445D01*
X189732Y484740D01*
X189064Y484000D01*
X188434Y483227D01*
X187843Y482423D01*
X187294Y481590D01*
X186788Y480730D01*
X186327Y479846D01*
X185910Y478940D01*
X185540Y478014D01*
X185218Y477070D01*
X184943Y476111D01*
X184718Y475140D01*
X184542Y474158D01*
X184416Y473169D01*
X184340Y472174D01*
X184315Y471177D01*
X184340Y470180D01*
X184416Y469186D01*
X184542Y468196D01*
X184718Y467215D01*
X184943Y466243D01*
X185218Y465284D01*
X185540Y464341D01*
X185910Y463414D01*
X186327Y462508D01*
X186788Y461624D01*
X187294Y460765D01*
X187843Y459932D01*
X188434Y459128D01*
X189064Y458355D01*
X189733Y457615D01*
X190438Y456910D01*
X191178Y456241D01*
X191951Y455611D01*
X192755Y455021D01*
X193587Y454472D01*
X194447Y453966D01*
X195331Y453504D01*
X196237Y453088D01*
X197163Y452718D01*
X198107Y452395D01*
X199066Y452121D01*
X200038Y451895D01*
X201019Y451719D01*
X202009Y451593D01*
X203003Y451518D01*
X204000Y451492D01*
X204997Y451518D01*
X205992Y451593D01*
X206981Y451719D01*
X207963Y451895D01*
X208934Y452121D01*
X209893Y452395D01*
X210837Y452718D01*
X211763Y453088D01*
X212669Y453504D01*
X213553Y453966D01*
X214413Y454472D01*
X215246Y455021D01*
X216049Y455611D01*
X216822Y456241D01*
X217562Y456910D01*
X218268Y457615D01*
X218936Y458355D01*
X219566Y459128D01*
X220157Y459932D01*
X220706Y460765D01*
X221212Y461624D01*
X221673Y462508D01*
X222090Y463414D01*
X222460Y464341D01*
X222782Y465284D01*
X223057Y466243D01*
X223282Y467215D01*
X223458Y468197D01*
X223584Y469186D01*
X223660Y470180D01*
X223685Y471177D01*
X183685Y476177D02*
X183660Y477174D01*
X183584Y478169D01*
X183458Y479158D01*
X183282Y480140D01*
X183057Y481111D01*
X182782Y482070D01*
X182460Y483014D01*
X182090Y483940D01*
X181673Y484846D01*
X181212Y485731D01*
X180706Y486590D01*
X180157Y487423D01*
X179567Y488227D01*
X178936Y489000D01*
X178268Y489740D01*
X177562Y490445D01*
X176822Y491114D01*
X176049Y491744D01*
X175245Y492334D01*
X174413Y492883D01*
X173553Y493389D01*
X172669Y493851D01*
X171763Y494267D01*
X170837Y494637D01*
X169893Y494960D01*
X168934Y495234D01*
X167963Y495460D01*
X166981Y495635D01*
X165991Y495761D01*
X164997Y495837D01*
X164000Y495862D01*
X163003Y495837D01*
X162009Y495761D01*
X161019Y495635D01*
X160037Y495459D01*
X159066Y495234D01*
X158107Y494960D01*
X157163Y494637D01*
X156237Y494267D01*
X155331Y493851D01*
X154447Y493389D01*
X153587Y492883D01*
X152755Y492334D01*
X151951Y491744D01*
X151178Y491114D01*
X150438Y490445D01*
X149732Y489740D01*
X149064Y489000D01*
X148433Y488227D01*
X147843Y487423D01*
X147294Y486590D01*
X146788Y485731D01*
X146327Y484846D01*
X145910Y483940D01*
X145540Y483014D01*
X145218Y482070D01*
X144943Y481111D01*
X144718Y480140D01*
X144542Y479158D01*
X144416Y478169D01*
X144340Y477174D01*
X144315Y476177D01*
X144340Y475180D01*
X144416Y474186D01*
X144542Y473197D01*
X144718Y472215D01*
X144943Y471243D01*
X145218Y470284D01*
X145540Y469341D01*
X145910Y468414D01*
X146327Y467508D01*
X146789Y466624D01*
X147294Y465765D01*
X147843Y464932D01*
X148434Y464128D01*
X149064Y463355D01*
X149732Y462615D01*
X150438Y461910D01*
X151178Y461241D01*
X151951Y460611D01*
X152755Y460021D01*
X153587Y459472D01*
X154447Y458966D01*
X155331Y458504D01*
X156237Y458088D01*
X157163Y457718D01*
X158107Y457395D01*
X159066Y457121D01*
X160038Y456895D01*
X161019Y456719D01*
X162009Y456593D01*
X163003Y456518D01*
X164000Y456492D01*
X164997Y456518D01*
X165992Y456593D01*
X166981Y456719D01*
X167963Y456895D01*
X168934Y457121D01*
X169893Y457395D01*
X170837Y457718D01*
X171763Y458088D01*
X172669Y458504D01*
X173553Y458966D01*
X174413Y459472D01*
X175245Y460021D01*
X176049Y460611D01*
X176822Y461241D01*
X177562Y461910D01*
X178268Y462615D01*
X178936Y463355D01*
X179567Y464128D01*
X180157Y464932D01*
X180706Y465765D01*
X181212Y466624D01*
X181673Y467508D01*
X182090Y468414D01*
X182460Y469341D01*
X182782Y470285D01*
X183057Y471243D01*
X183282Y472215D01*
X183458Y473197D01*
X183584Y474186D01*
X183660Y475180D01*
X183685Y476177D01*
X225500Y517000D02*
X225477Y518000D01*
X225407Y518998D01*
X225291Y519992D01*
X225129Y520979D01*
X224921Y521958D01*
X224667Y522926D01*
X224369Y523881D01*
X224027Y524822D01*
X223641Y525745D01*
X223213Y526649D01*
X222743Y527533D01*
X222233Y528393D01*
X221683Y529229D01*
X221095Y530039D01*
X220470Y530820D01*
X219809Y531571D01*
X219114Y532291D01*
X218386Y532978D01*
X217627Y533630D01*
X216839Y534246D01*
X216023Y534824D01*
X215180Y535364D01*
X214314Y535865D01*
X213425Y536324D01*
X212516Y536742D01*
X211588Y537116D01*
X210644Y537448D01*
X209685Y537735D01*
X208715Y537977D01*
X207733Y538173D01*
X206744Y538324D01*
X205749Y538429D01*
X204750Y538487D01*
X203750Y538498D01*
X202750Y538464D01*
X201753Y538382D01*
X200760Y538254D01*
X199775Y538081D01*
X198799Y537861D01*
X197834Y537597D01*
X196882Y537288D01*
X195946Y536935D01*
X195027Y536538D01*
X194128Y536099D01*
X193250Y535619D01*
X192395Y535099D01*
X191566Y534540D01*
X190763Y533942D01*
X189989Y533308D01*
X189246Y532639D01*
X188534Y531935D01*
X187856Y531199D01*
X187213Y530433D01*
X186606Y529637D01*
X186037Y528815D01*
X185507Y527966D01*
X185017Y527094D01*
X184568Y526199D01*
X184161Y525285D01*
X183797Y524353D01*
X183476Y523406D01*
X183201Y522444D01*
X182970Y521470D01*
X182785Y520487D01*
X182645Y519496D01*
X182552Y518500D01*
X182506Y517500D01*
Y516500D01*
X182552Y515500D01*
X182645Y514504D01*
X182785Y513513D01*
X182970Y512530D01*
X183201Y511556D01*
X183476Y510595D01*
X183797Y509647D01*
X184161Y508714D01*
X184568Y507800D01*
X185017Y506906D01*
X185507Y506034D01*
X186037Y505186D01*
X186606Y504363D01*
X187213Y503567D01*
X187856Y502801D01*
X188534Y502065D01*
X189246Y501361D01*
X189989Y500692D01*
X190763Y500058D01*
X191566Y499460D01*
X192395Y498901D01*
X193250Y498380D01*
X194128Y497900D01*
X195027Y497462D01*
X195946Y497065D01*
X196882Y496712D01*
X197834Y496403D01*
X198799Y496139D01*
X199775Y495919D01*
X200760Y495746D01*
X201753Y495618D01*
X202750Y495536D01*
X203750Y495502D01*
X204750Y495513D01*
X205749Y495571D01*
X206744Y495676D01*
X207733Y495827D01*
X208715Y496023D01*
X209685Y496265D01*
X210644Y496552D01*
X211588Y496883D01*
X212516Y497258D01*
X213425Y497676D01*
X214314Y498135D01*
X215180Y498636D01*
X216023Y499176D01*
X216839Y499754D01*
X217627Y500370D01*
X218386Y501022D01*
X219114Y501709D01*
X219809Y502429D01*
X220470Y503180D01*
X221095Y503961D01*
X221683Y504771D01*
X222233Y505607D01*
X222743Y506467D01*
X223213Y507351D01*
X223641Y508255D01*
X224027Y509178D01*
X224369Y510119D01*
X224667Y511074D01*
X224920Y512042D01*
X225129Y513020D01*
X225291Y514008D01*
X225407Y515001D01*
X225477Y516000D01*
X225500Y517000D01*
X81500Y80000D02*
X81477Y81000D01*
X81407Y81998D01*
X81291Y82992D01*
X81129Y83979D01*
X80920Y84958D01*
X80667Y85926D01*
X80369Y86881D01*
X80027Y87822D01*
X79641Y88745D01*
X79213Y89649D01*
X78743Y90533D01*
X78233Y91393D01*
X77683Y92229D01*
X77095Y93039D01*
X76470Y93820D01*
X75809Y94571D01*
X75114Y95291D01*
X74386Y95978D01*
X73627Y96630D01*
X72839Y97246D01*
X72023Y97824D01*
X71180Y98364D01*
X70314Y98865D01*
X69425Y99324D01*
X68516Y99742D01*
X67588Y100117D01*
X66644Y100448D01*
X65685Y100735D01*
X64714Y100977D01*
X63733Y101173D01*
X62744Y101324D01*
X61749Y101429D01*
X60750Y101487D01*
X59750Y101498D01*
X58750Y101464D01*
X57753Y101382D01*
X56760Y101254D01*
X55775Y101081D01*
X54799Y100861D01*
X53834Y100597D01*
X52882Y100288D01*
X51946Y99935D01*
X51027Y99538D01*
X50128Y99099D01*
X49250Y98620D01*
X48395Y98099D01*
X47566Y97540D01*
X46763Y96942D01*
X45989Y96308D01*
X45246Y95639D01*
X44534Y94935D01*
X43856Y94199D01*
X43213Y93433D01*
X42606Y92637D01*
X42037Y91814D01*
X41507Y90966D01*
X41017Y90094D01*
X40568Y89200D01*
X40161Y88285D01*
X39797Y87353D01*
X39476Y86405D01*
X39201Y85444D01*
X38970Y84470D01*
X38785Y83487D01*
X38645Y82496D01*
X38552Y81500D01*
X38506Y80500D01*
Y79500D01*
X38552Y78500D01*
X38645Y77504D01*
X38785Y76513D01*
X38970Y75530D01*
X39201Y74556D01*
X39476Y73594D01*
X39797Y72646D01*
X40161Y71715D01*
X40568Y70801D01*
X41017Y69906D01*
X41507Y69034D01*
X42037Y68186D01*
X42606Y67363D01*
X43213Y66567D01*
X43856Y65800D01*
X44534Y65065D01*
X45246Y64361D01*
X45989Y63692D01*
X46763Y63058D01*
X47566Y62460D01*
X48395Y61901D01*
X49250Y61380D01*
X50128Y60900D01*
X51027Y60462D01*
X51946Y60066D01*
X52882Y59712D01*
X53834Y59403D01*
X54799Y59139D01*
X55775Y58919D01*
X56760Y58745D01*
X57753Y58618D01*
X58750Y58536D01*
X59750Y58501D01*
X60750Y58513D01*
X61749Y58571D01*
X62744Y58676D01*
X63734Y58827D01*
X64714Y59023D01*
X65685Y59265D01*
X66644Y59552D01*
X67588Y59883D01*
X68516Y60258D01*
X69425Y60676D01*
X70314Y61135D01*
X71180Y61636D01*
X72023Y62176D01*
X72839Y62754D01*
X73627Y63370D01*
X74386Y64022D01*
X75114Y64709D01*
X75809Y65429D01*
X76470Y66180D01*
X77095Y66961D01*
X77683Y67771D01*
X78233Y68607D01*
X78743Y69467D01*
X79213Y70351D01*
X79641Y71255D01*
X80027Y72178D01*
X80369Y73119D01*
X80667Y74074D01*
X80920Y75042D01*
X81129Y76020D01*
X81291Y77008D01*
X81407Y78001D01*
X81477Y79000D01*
X81500Y80000D01*
X137500Y160000D02*
X137477Y161000D01*
X137407Y161998D01*
X137291Y162992D01*
X137128Y163979D01*
X136920Y164958D01*
X136667Y165926D01*
X136369Y166881D01*
X136027Y167822D01*
X135641Y168745D01*
X135213Y169649D01*
X134743Y170533D01*
X134233Y171393D01*
X133683Y172229D01*
X133095Y173039D01*
X132470Y173820D01*
X131809Y174571D01*
X131114Y175291D01*
X130386Y175978D01*
X129627Y176630D01*
X128839Y177246D01*
X128023Y177824D01*
X127180Y178364D01*
X126314Y178865D01*
X125425Y179324D01*
X124516Y179742D01*
X123588Y180116D01*
X122644Y180448D01*
X121685Y180735D01*
X120714Y180977D01*
X119733Y181173D01*
X118744Y181324D01*
X117749Y181429D01*
X116750Y181487D01*
X115750Y181499D01*
X114750Y181464D01*
X113753Y181382D01*
X112760Y181254D01*
X111775Y181081D01*
X110799Y180861D01*
X109834Y180597D01*
X108882Y180288D01*
X107946Y179935D01*
X107027Y179538D01*
X106128Y179100D01*
X105250Y178620D01*
X104395Y178099D01*
X103566Y177540D01*
X102763Y176942D01*
X101989Y176308D01*
X101246Y175639D01*
X100534Y174935D01*
X99856Y174199D01*
X99213Y173433D01*
X98606Y172637D01*
X98037Y171815D01*
X97507Y170966D01*
X97017Y170094D01*
X96568Y169200D01*
X96161Y168285D01*
X95797Y167353D01*
X95476Y166405D01*
X95201Y165444D01*
X94970Y164470D01*
X94785Y163487D01*
X94645Y162496D01*
X94552Y161500D01*
X94506Y160500D01*
Y159500D01*
X94552Y158500D01*
X94645Y157504D01*
X94785Y156513D01*
X94970Y155530D01*
X95201Y154556D01*
X95476Y153595D01*
X95797Y152647D01*
X96161Y151715D01*
X96568Y150801D01*
X97017Y149906D01*
X97507Y149034D01*
X98037Y148186D01*
X98606Y147363D01*
X99213Y146567D01*
X99856Y145800D01*
X100534Y145065D01*
X101246Y144361D01*
X101989Y143692D01*
X102763Y143058D01*
X103566Y142460D01*
X104395Y141901D01*
X105250Y141380D01*
X106128Y140900D01*
X107027Y140462D01*
X107946Y140066D01*
X108882Y139712D01*
X109834Y139403D01*
X110799Y139139D01*
X111775Y138919D01*
X112760Y138745D01*
X113753Y138618D01*
X114750Y138536D01*
X115750Y138501D01*
X116750Y138513D01*
X117749Y138571D01*
X118744Y138676D01*
X119734Y138827D01*
X120714Y139023D01*
X121685Y139265D01*
X122644Y139552D01*
X123588Y139883D01*
X124516Y140258D01*
X125425Y140676D01*
X126314Y141135D01*
X127180Y141636D01*
X128023Y142176D01*
X128839Y142754D01*
X129627Y143370D01*
X130386Y144022D01*
X131114Y144709D01*
X131809Y145429D01*
X132470Y146180D01*
X133095Y146961D01*
X133683Y147771D01*
X134233Y148607D01*
X134743Y149467D01*
X135213Y150351D01*
X135641Y151255D01*
X136027Y152178D01*
X136369Y153119D01*
X136667Y154074D01*
X136920Y155042D01*
X137128Y156020D01*
X137291Y157008D01*
X137407Y158001D01*
X137477Y159000D01*
X137500Y160000D01*
X92500Y35000D02*
X92477Y36000D01*
X92407Y36998D01*
X92291Y37992D01*
X92128Y38980D01*
X91921Y39958D01*
X91667Y40926D01*
X91369Y41881D01*
X91027Y42822D01*
X90641Y43745D01*
X90213Y44649D01*
X89743Y45533D01*
X89233Y46393D01*
X88683Y47229D01*
X88095Y48039D01*
X87470Y48820D01*
X86809Y49571D01*
X86114Y50291D01*
X85386Y50978D01*
X84627Y51630D01*
X83839Y52246D01*
X83023Y52824D01*
X82180Y53364D01*
X81314Y53865D01*
X80425Y54324D01*
X79516Y54742D01*
X78588Y55116D01*
X77644Y55448D01*
X76685Y55735D01*
X75714Y55977D01*
X74733Y56173D01*
X73744Y56324D01*
X72749Y56429D01*
X71750Y56487D01*
X70750Y56498D01*
X69750Y56464D01*
X68753Y56382D01*
X67760Y56255D01*
X66775Y56081D01*
X65799Y55861D01*
X64834Y55597D01*
X63882Y55288D01*
X62946Y54935D01*
X62027Y54538D01*
X61128Y54100D01*
X60250Y53620D01*
X59395Y53099D01*
X58566Y52540D01*
X57763Y51942D01*
X56989Y51308D01*
X56246Y50639D01*
X55534Y49935D01*
X54856Y49199D01*
X54213Y48433D01*
X53606Y47637D01*
X53037Y46814D01*
X52507Y45966D01*
X52017Y45094D01*
X51568Y44199D01*
X51161Y43285D01*
X50797Y42353D01*
X50476Y41405D01*
X50201Y40444D01*
X49970Y39470D01*
X49785Y38487D01*
X49645Y37496D01*
X49552Y36500D01*
X49506Y35500D01*
Y34500D01*
X49552Y33500D01*
X49645Y32504D01*
X49785Y31513D01*
X49970Y30530D01*
X50201Y29556D01*
X50476Y28594D01*
X50797Y27646D01*
X51161Y26715D01*
X51568Y25800D01*
X52017Y24906D01*
X52507Y24034D01*
X53037Y23186D01*
X53606Y22363D01*
X54213Y21567D01*
X54856Y20800D01*
X55534Y20065D01*
X56246Y19361D01*
X56989Y18692D01*
X57763Y18058D01*
X58566Y17460D01*
X59395Y16901D01*
X60250Y16380D01*
X61128Y15900D01*
X62027Y15462D01*
X62946Y15066D01*
X63882Y14712D01*
X64834Y14403D01*
X65799Y14139D01*
X66775Y13919D01*
X67760Y13746D01*
X68753Y13618D01*
X69750Y13536D01*
X70750Y13501D01*
X71750Y13513D01*
X72749Y13571D01*
X73744Y13676D01*
X74734Y13827D01*
X75714Y14023D01*
X76685Y14265D01*
X77644Y14552D01*
X78588Y14884D01*
X79516Y15258D01*
X80425Y15676D01*
X81314Y16135D01*
X82180Y16636D01*
X83023Y17176D01*
X83839Y17754D01*
X84627Y18370D01*
X85386Y19022D01*
X86114Y19709D01*
X86809Y20429D01*
X87470Y21180D01*
X88095Y21961D01*
X88683Y22771D01*
X89233Y23607D01*
X89743Y24467D01*
X90213Y25351D01*
X90641Y26255D01*
X91027Y27178D01*
X91369Y28119D01*
X91667Y29074D01*
X91921Y30042D01*
X92128Y31020D01*
X92291Y32008D01*
X92407Y33002D01*
X92477Y34000D01*
X92500Y35000D01*
X264500Y47000D02*
X264477Y48000D01*
X264407Y48998D01*
X264291Y49992D01*
X264128Y50980D01*
X263920Y51958D01*
X263667Y52926D01*
X263369Y53881D01*
X263027Y54822D01*
X262641Y55745D01*
X262213Y56649D01*
X261743Y57533D01*
X261233Y58393D01*
X260683Y59229D01*
X260095Y60039D01*
X259470Y60820D01*
X258809Y61571D01*
X258114Y62291D01*
X257386Y62978D01*
X256627Y63630D01*
X255839Y64246D01*
X255023Y64824D01*
X254180Y65364D01*
X253314Y65865D01*
X252425Y66324D01*
X251516Y66742D01*
X250588Y67116D01*
X249644Y67448D01*
X248685Y67735D01*
X247714Y67977D01*
X246733Y68173D01*
X245744Y68324D01*
X244749Y68429D01*
X243750Y68487D01*
X242750Y68498D01*
X241750Y68464D01*
X240753Y68382D01*
X239760Y68255D01*
X238775Y68081D01*
X237799Y67861D01*
X236834Y67597D01*
X235882Y67288D01*
X234946Y66935D01*
X234027Y66538D01*
X233128Y66100D01*
X232250Y65620D01*
X231395Y65099D01*
X230566Y64540D01*
X229763Y63942D01*
X228989Y63308D01*
X228246Y62638D01*
X227534Y61935D01*
X226856Y61199D01*
X226213Y60433D01*
X225606Y59637D01*
X225037Y58814D01*
X224507Y57966D01*
X224017Y57094D01*
X223568Y56200D01*
X223161Y55285D01*
X222797Y54353D01*
X222476Y53405D01*
X222201Y52444D01*
X221970Y51470D01*
X221785Y50487D01*
X221645Y49496D01*
X221552Y48500D01*
X221506Y47500D01*
Y46500D01*
X221552Y45500D01*
X221645Y44504D01*
X221785Y43513D01*
X221970Y42530D01*
X222201Y41556D01*
X222476Y40595D01*
X222797Y39647D01*
X223161Y38715D01*
X223568Y37800D01*
X224017Y36906D01*
X224507Y36034D01*
X225037Y35186D01*
X225606Y34363D01*
X226213Y33567D01*
X226856Y32800D01*
X227534Y32065D01*
X228246Y31361D01*
X228989Y30692D01*
X229763Y30058D01*
X230566Y29460D01*
X231395Y28901D01*
X232250Y28380D01*
X233128Y27900D01*
X234027Y27462D01*
X234946Y27066D01*
X235882Y26712D01*
X236834Y26403D01*
X237799Y26139D01*
X238775Y25919D01*
X239760Y25745D01*
X240753Y25618D01*
X241750Y25536D01*
X242750Y25501D01*
X243750Y25513D01*
X244749Y25571D01*
X245744Y25676D01*
X246733Y25827D01*
X247714Y26023D01*
X248685Y26265D01*
X249644Y26552D01*
X250588Y26884D01*
X251516Y27258D01*
X252425Y27676D01*
X253314Y28135D01*
X254180Y28636D01*
X255023Y29176D01*
X255839Y29754D01*
X256627Y30370D01*
X257386Y31022D01*
X258114Y31709D01*
X258809Y32429D01*
X259470Y33180D01*
X260095Y33961D01*
X260683Y34771D01*
X261233Y35607D01*
X261743Y36467D01*
X262213Y37351D01*
X262641Y38255D01*
X263027Y39178D01*
X263369Y40119D01*
X263667Y41074D01*
X263920Y42042D01*
X264128Y43020D01*
X264291Y44008D01*
X264407Y45002D01*
X264477Y46000D01*
X264500Y47000D01*
X296000Y54000D02*
X295954Y55000D01*
X295818Y55992D01*
X295592Y56968D01*
X295278Y57919D01*
X294879Y58837D01*
X294399Y59715D01*
X293840Y60546D01*
X293208Y61323D01*
X292508Y62039D01*
X291746Y62689D01*
X290928Y63266D01*
X290061Y63767D01*
X289152Y64187D01*
X288208Y64522D01*
X287238Y64770D01*
X286249Y64929D01*
X285250Y64997D01*
X284249Y64974D01*
X283255Y64861D01*
X282274Y64657D01*
X281316Y64365D01*
X280389Y63987D01*
X279500Y63526D01*
X278657Y62987D01*
X277866Y62373D01*
X277134Y61689D01*
X276467Y60942D01*
X275871Y60137D01*
X275351Y59282D01*
X274911Y58382D01*
X274554Y57447D01*
X274284Y56483D01*
X274102Y55498D01*
X274011Y54501D01*
Y53499D01*
X274102Y52502D01*
X274284Y51517D01*
X274554Y50553D01*
X274911Y49618D01*
X275351Y48718D01*
X275871Y47863D01*
X276467Y47058D01*
X277134Y46311D01*
X277866Y45627D01*
X278657Y45013D01*
X279500Y44474D01*
X280389Y44013D01*
X281316Y43635D01*
X282274Y43343D01*
X283255Y43139D01*
X284249Y43026D01*
X285250Y43003D01*
X286249Y43071D01*
X287238Y43230D01*
X288208Y43478D01*
X289152Y43813D01*
X290061Y44233D01*
X290928Y44734D01*
X291746Y45311D01*
X292508Y45961D01*
X293208Y46677D01*
X293840Y47454D01*
X294399Y48285D01*
X294879Y49163D01*
X295278Y50081D01*
X295592Y51032D01*
X295818Y52008D01*
X295954Y53000D01*
X296000Y54000D01*
X298500Y203500D02*
X298000Y204366D01*
X297000D01*
X296500Y203500D01*
X297000Y202634D01*
X298000D01*
X298500Y203500D01*
X297992Y203153D02*
X297254Y203580D01*
Y202727D01*
X297992Y203153D01*
X306646Y347500D02*
X305908Y347926D01*
Y347074D01*
X306646Y347500D01*
X307500D02*
X307000Y348366D01*
X306000D01*
X305500Y347500D01*
X306000Y346634D01*
X307000D01*
X307500Y347500D01*
X450992Y338846D02*
X450254Y339273D01*
Y338420D01*
X450992Y338846D01*
X451500Y338500D02*
X451000Y339366D01*
X450000D01*
X449500Y338500D01*
X450000Y337634D01*
X451000D01*
X451500Y338500D01*
X442500Y194500D02*
X442000Y195366D01*
X441000D01*
X440500Y194500D01*
X441000Y193634D01*
X442000D01*
X442500Y194500D01*
X442339D02*
X441600Y194926D01*
Y194074D01*
X442339Y194500D01*
X10500Y491524D02*
X10500Y410524D01*
X5000Y491524D02*
X128500Y491524D01*
X5000Y410524D02*
X128500Y410524D01*
Y491524D01*
X5000Y410524D02*
Y491524D01*
X368504Y281496D02*
X370504D01*
X368504Y279496D02*
Y281496D01*
X431496Y279496D02*
Y281496D01*
X429496D02*
X431496D01*
X429496Y218504D02*
X431496D01*
Y220504D01*
X368504Y218504D02*
Y220504D01*
Y218504D02*
X370504D01*
X57500Y172000D02*
Y176000D01*
Y156500D02*
Y160000D01*
X146000Y71500D02*
X252000D01*
X146000Y182500D02*
X252000D01*
Y125000D02*
Y182500D01*
Y71500D02*
Y125000D01*
X146000Y71500D02*
Y125000D01*
Y182500D01*
X280000Y177000D02*
X468000D01*
X280000Y365000D02*
X468000D01*
Y177000D02*
Y365000D01*
X280000Y177000D02*
Y365000D01*
X474001Y146000D02*
Y149999D01*
X472001Y147999D02*
X476000D01*
X495000Y146000D02*
Y149999D01*
X503000Y14999D02*
X506999D01*
X504999Y16999D02*
Y13000D01*
X463000Y14999D02*
X466999D01*
X464999Y16999D02*
Y13000D01*
X361000Y131999D02*
X364999D01*
X362999Y133999D02*
Y130000D01*
X341000Y132000D02*
X344999D01*
X483000Y15000D02*
X486999D01*
X162031Y483113D02*
X166030D01*
X164031Y485113D02*
Y481114D01*
X202031Y478113D02*
X206030D01*
X204031Y480113D02*
Y476114D01*
X366100Y293952D02*
Y288953D01*
X367100Y287953D01*
X369099D01*
X370099Y288953D01*
Y293952D01*
X372098Y288953D02*
X373098Y287953D01*
X375097D01*
X376097Y288953D01*
Y292952D01*
X375097Y293952D01*
X373098D01*
X372098Y292952D01*
Y291952D01*
X373098Y290953D01*
X376097D01*
X324100Y290852D02*
Y285853D01*
X325100Y284854D01*
X327099D01*
X328099Y285853D01*
Y290852D01*
X334097D02*
X330098D01*
Y287853D01*
X332097Y288852D01*
X333097D01*
X334097Y287853D01*
Y285853D01*
X333097Y284854D01*
X331098D01*
X330098Y285853D01*
D13*
X324000Y148653D02*
X323500Y149520D01*
X322500D01*
X322000Y148653D01*
X322500Y147787D01*
X323500D01*
X324000Y148653D01*
D14*
X499984Y54835D02*
X546153D01*
X499984Y92630D02*
X546153D01*
X499984Y89500D02*
Y92630D01*
X546153Y54835D02*
Y92630D01*
X499984Y54835D02*
Y59831D01*
Y104835D02*
Y109831D01*
X546153Y104835D02*
Y142630D01*
X499984Y139500D02*
Y142630D01*
X546153D01*
X499984Y104835D02*
X546153D01*
X349933Y4831D02*
X401626D01*
Y32063D01*
Y48598D02*
Y55831D01*
X349933Y48598D02*
Y55831D01*
Y4831D02*
Y32063D01*
Y55831D02*
X401626D01*
X5598Y286165D02*
X51268D01*
X5598Y215299D02*
X51268D01*
Y281598D02*
Y286165D01*
Y215299D02*
Y218260D01*
X5598Y215299D02*
Y286165D01*
Y308299D02*
Y379165D01*
X51268Y308299D02*
Y311260D01*
Y374598D02*
Y379165D01*
X5598Y308299D02*
X51268D01*
X5598Y379165D02*
X51268D01*
X326126Y277874D02*
Y278874D01*
X327126D01*
X340874D02*
X341874D01*
Y277874D02*
Y278874D01*
Y263126D02*
Y264126D01*
X340874Y263126D02*
X341874D01*
X326126D02*
X327126D01*
X326126D02*
Y264126D01*
X490000Y152000D02*
X526000D01*
X490000Y232000D02*
X526000D01*
X490000Y152000D02*
Y232000D01*
X526000Y152000D02*
Y232000D01*
X490000Y242000D02*
X526000D01*
X490000Y322000D02*
X526000D01*
X490000Y242000D02*
Y322000D01*
X526000Y242000D02*
Y322000D01*
X490000Y332000D02*
X526000D01*
X490000Y412000D02*
X526000D01*
X490000Y332000D02*
Y412000D01*
X526000Y332000D02*
Y412000D01*
Y422000D02*
Y502000D01*
X490000Y422000D02*
Y502000D01*
X526000D01*
X490000Y422000D02*
X526000D01*
X194815Y506842D02*
X199100D01*
X196958Y504700D02*
Y508985D01*
X253158Y37815D02*
Y42100D01*
X255300Y39958D02*
X251015D01*
X80185Y45158D02*
X75900D01*
X78042Y47300D02*
Y43015D01*
X288986Y45972D02*
Y49400D01*
X290700Y47686D02*
X287272D01*
X126158Y150815D02*
Y155100D01*
X128300Y152958D02*
X124015D01*
X49842Y89185D02*
Y84900D01*
X47700Y87042D02*
X51985D01*
D15*
X83000Y122900D02*
X90800D01*
X49200D02*
X57000D01*
X90800D02*
Y141400D01*
X49200D02*
X90800D01*
X49200Y122900D02*
Y141400D01*
X151200Y39900D02*
Y58400D01*
X192800D01*
Y39900D02*
Y58400D01*
X151200Y39900D02*
X159000D01*
X185000D02*
X192800D01*
D16*
X9700Y211799D02*
Y207700D01*
X11749D01*
X12432Y208383D01*
Y211116D01*
X11749Y211799D01*
X9700D01*
X13799D02*
X15165D01*
X14482D01*
Y207700D01*
X13799D01*
X15165D01*
X19947Y211116D02*
X19264Y211799D01*
X17897D01*
X17214Y211116D01*
Y208383D01*
X17897Y207700D01*
X19264D01*
X19947Y208383D01*
Y209749D01*
X18580D01*
X21313Y211799D02*
X22679D01*
X21996D01*
Y207700D01*
X21313D01*
X22679D01*
X24728Y211799D02*
X27461D01*
X26095D01*
Y207700D01*
X28827D02*
Y210433D01*
X30193Y211799D01*
X31560Y210433D01*
Y207700D01*
Y209749D01*
X28827D01*
X32926Y211799D02*
Y207700D01*
X35658D01*
X43172Y211799D02*
X41806D01*
X41123Y211116D01*
Y208383D01*
X41806Y207700D01*
X43172D01*
X43856Y208383D01*
Y211116D01*
X43172Y211799D01*
X45222D02*
Y208383D01*
X45905Y207700D01*
X47271D01*
X47954Y208383D01*
Y211799D01*
X49321D02*
X52053D01*
X50687D01*
Y207700D01*
X87700Y244799D02*
Y240700D01*
X89749D01*
X90432Y241383D01*
Y244116D01*
X89749Y244799D01*
X87700D01*
X93848D02*
X92482D01*
X91799Y244116D01*
Y241383D01*
X92482Y240700D01*
X93848D01*
X94531Y241383D01*
Y244116D01*
X93848Y244799D01*
X98630Y240700D02*
X95897D01*
X98630Y243432D01*
Y244116D01*
X97947Y244799D01*
X96580D01*
X95897Y244116D01*
X87700Y278799D02*
Y274700D01*
X89749D01*
X90432Y275383D01*
Y278116D01*
X89749Y278799D01*
X87700D01*
X93848D02*
X92482D01*
X91799Y278116D01*
Y275383D01*
X92482Y274700D01*
X93848D01*
X94531Y275383D01*
Y278116D01*
X93848Y278799D01*
X97947Y274700D02*
Y278799D01*
X95897Y276749D01*
X98630D01*
X87700Y261799D02*
Y257700D01*
X89749D01*
X90432Y258383D01*
Y261116D01*
X89749Y261799D01*
X87700D01*
X93848D02*
X92482D01*
X91799Y261116D01*
Y258383D01*
X92482Y257700D01*
X93848D01*
X94531Y258383D01*
Y261116D01*
X93848Y261799D01*
X95897Y261116D02*
X96580Y261799D01*
X97947D01*
X98630Y261116D01*
Y260433D01*
X97947Y259749D01*
X97264D01*
X97947D01*
X98630Y259066D01*
Y258383D01*
X97947Y257700D01*
X96580D01*
X95897Y258383D01*
X87700Y228799D02*
Y224700D01*
X89749D01*
X90432Y225383D01*
Y228116D01*
X89749Y228799D01*
X87700D01*
X93848D02*
X92482D01*
X91799Y228116D01*
Y225383D01*
X92482Y224700D01*
X93848D01*
X94531Y225383D01*
Y228116D01*
X93848Y228799D01*
X95897Y224700D02*
X97264D01*
X96580D01*
Y228799D01*
X95897Y228116D01*
X492432Y12700D02*
X489700D01*
X492432Y15432D01*
Y16116D01*
X491749Y16799D01*
X490383D01*
X489700Y16116D01*
X495848Y12700D02*
Y16799D01*
X493799Y14749D01*
X496531D01*
X497897Y16799D02*
Y14066D01*
X499264Y12700D01*
X500630Y14066D01*
Y16799D01*
X474432D02*
X471700D01*
Y14749D01*
X473066Y15432D01*
X473749D01*
X474432Y14749D01*
Y13383D01*
X473749Y12700D01*
X472383D01*
X471700Y13383D01*
X475799Y16799D02*
Y14066D01*
X477165Y12700D01*
X478531Y14066D01*
Y16799D01*
X473432Y52116D02*
X472749Y52799D01*
X471383D01*
X470700Y52116D01*
Y51432D01*
X471383Y50749D01*
X472749D01*
X473432Y50066D01*
Y49383D01*
X472749Y48700D01*
X471383D01*
X470700Y49383D01*
X474799Y52799D02*
Y48700D01*
X476165Y50066D01*
X477531Y48700D01*
Y52799D01*
X494432Y52116D02*
X493749Y52799D01*
X492383D01*
X491700Y52116D01*
Y51432D01*
X492383Y50749D01*
X493749D01*
X494432Y50066D01*
Y49383D01*
X493749Y48700D01*
X492383D01*
X491700Y49383D01*
X495799Y52799D02*
Y48700D01*
X497165Y50066D01*
X498531Y48700D01*
Y52799D01*
X517700Y48700D02*
Y52799D01*
X519749D01*
X520432Y52116D01*
Y50749D01*
X519749Y50066D01*
X517700D01*
X524531Y52799D02*
X521799D01*
Y48700D01*
X524531D01*
X521799Y50749D02*
X523165D01*
X525897Y52799D02*
Y48700D01*
X527947D01*
X528630Y49383D01*
Y52116D01*
X527947Y52799D01*
X525897D01*
X529996Y48700D02*
Y51432D01*
X531362Y52799D01*
X532728Y51432D01*
Y48700D01*
Y50749D01*
X529996D01*
X534095Y52799D02*
Y48700D01*
X536827D01*
X479700Y145700D02*
Y149799D01*
X481749D01*
X482432Y149116D01*
Y147749D01*
X481749Y147066D01*
X479700D01*
X483799Y149799D02*
Y145700D01*
X486531D01*
X490630Y149116D02*
X489947Y149799D01*
X488581D01*
X487897Y149116D01*
Y146383D01*
X488581Y145700D01*
X489947D01*
X490630Y146383D01*
X87700Y320799D02*
X89066D01*
X88383D01*
Y316700D01*
X87700D01*
X89066D01*
X91116D02*
Y320799D01*
X93848Y316700D01*
Y320799D01*
X95214Y316700D02*
X96580D01*
X95897D01*
Y320799D01*
X95214Y320116D01*
X87700Y370799D02*
X89066D01*
X88383D01*
Y366700D01*
X87700D01*
X89066D01*
X91116D02*
Y370799D01*
X93848Y366700D01*
Y370799D01*
X97264Y366700D02*
Y370799D01*
X95214Y368749D01*
X97947D01*
X87700Y337799D02*
X89066D01*
X88383D01*
Y333700D01*
X87700D01*
X89066D01*
X91116D02*
Y337799D01*
X93848Y333700D01*
Y337799D01*
X97947Y333700D02*
X95214D01*
X97947Y336433D01*
Y337116D01*
X97264Y337799D01*
X95897D01*
X95214Y337116D01*
X87700Y353799D02*
X89066D01*
X88383D01*
Y349700D01*
X87700D01*
X89066D01*
X91116D02*
Y353799D01*
X93848Y349700D01*
Y353799D01*
X95214Y353116D02*
X95897Y353799D01*
X97264D01*
X97947Y353116D01*
Y352432D01*
X97264Y351749D01*
X96580D01*
X97264D01*
X97947Y351066D01*
Y350383D01*
X97264Y349700D01*
X95897D01*
X95214Y350383D01*
X337700Y108116D02*
X338383Y108799D01*
X339749D01*
X340433Y108116D01*
Y107432D01*
X339749Y106749D01*
X339066D01*
X339749D01*
X340433Y106066D01*
Y105383D01*
X339749Y104700D01*
X338383D01*
X337700Y105383D01*
X341799Y108799D02*
Y106066D01*
X343165Y104700D01*
X344531Y106066D01*
Y108799D01*
X345897Y108116D02*
X346581Y108799D01*
X347947D01*
X348630Y108116D01*
Y107432D01*
X347947Y106749D01*
X347264D01*
X347947D01*
X348630Y106066D01*
Y105383D01*
X347947Y104700D01*
X346581D01*
X345897Y105383D01*
X362433Y108799D02*
X359700D01*
Y106749D01*
X361066Y107432D01*
X361749D01*
X362433Y106749D01*
Y105383D01*
X361749Y104700D01*
X360383D01*
X359700Y105383D01*
X363799Y108799D02*
Y106066D01*
X365165Y104700D01*
X366531Y106066D01*
Y108799D01*
X103432Y67700D02*
X100700D01*
X103432Y70432D01*
Y71116D01*
X102749Y71799D01*
X101383D01*
X100700Y71116D01*
X106848Y67700D02*
Y71799D01*
X104799Y69749D01*
X107531D01*
X108897Y71799D02*
Y69066D01*
X110264Y67700D01*
X111630Y69066D01*
Y71799D01*
X347700Y133116D02*
X348383Y133799D01*
X349749D01*
X350432Y133116D01*
Y132432D01*
X349749Y131749D01*
X349066D01*
X349749D01*
X350432Y131066D01*
Y130383D01*
X349749Y129700D01*
X348383D01*
X347700Y130383D01*
X351799Y133799D02*
Y131066D01*
X353165Y129700D01*
X354531Y131066D01*
Y133799D01*
X355897Y133116D02*
X356580Y133799D01*
X357947D01*
X358630Y133116D01*
Y132432D01*
X357947Y131749D01*
X357264D01*
X357947D01*
X358630Y131066D01*
Y130383D01*
X357947Y129700D01*
X356580D01*
X355897Y130383D01*
X12700Y300700D02*
Y303432D01*
X14066Y304799D01*
X15432Y303432D01*
Y300700D01*
Y302749D01*
X12700D01*
X16799Y300700D02*
Y304799D01*
X19531Y300700D01*
Y304799D01*
X20897Y300700D02*
Y303432D01*
X22264Y304799D01*
X23630Y303432D01*
Y300700D01*
Y302749D01*
X20897D01*
X24996Y304799D02*
Y300700D01*
X27729D01*
X31144Y304799D02*
X29778D01*
X29095Y304116D01*
Y301383D01*
X29778Y300700D01*
X31144D01*
X31827Y301383D01*
Y304116D01*
X31144Y304799D01*
X35926Y304116D02*
X35243Y304799D01*
X33876D01*
X33193Y304116D01*
Y301383D01*
X33876Y300700D01*
X35243D01*
X35926Y301383D01*
Y302749D01*
X34560D01*
X41391Y304799D02*
X42757D01*
X42074D01*
Y300700D01*
X41391D01*
X42757D01*
X44806D02*
Y304799D01*
X47539Y300700D01*
Y304799D01*
X324951Y517564D02*
X329049D01*
Y515514D01*
X328366Y514831D01*
X327000D01*
X326317Y515514D01*
Y517564D01*
Y516197D02*
X324951Y514831D01*
X329049Y513465D02*
X324951D01*
Y511415D01*
X325634Y510732D01*
X328366D01*
X329049Y511415D01*
Y513465D01*
Y506634D02*
Y509366D01*
X324951D01*
Y506634D01*
X327000Y509366D02*
Y508000D01*
X329049Y505268D02*
Y502535D01*
Y503901D01*
X324951D01*
Y498436D02*
Y501169D01*
X327683Y498436D01*
X328366D01*
X329049Y499120D01*
Y500486D01*
X328366Y501169D01*
X305338Y443951D02*
Y448049D01*
X307387D01*
X308070Y447366D01*
Y446000D01*
X307387Y445317D01*
X305338D01*
X306704D02*
X308070Y443951D01*
X312169Y447366D02*
X311486Y448049D01*
X310120D01*
X309436Y447366D01*
Y444634D01*
X310120Y443951D01*
X311486D01*
X312169Y444634D01*
X313535Y448049D02*
Y443951D01*
X316268D01*
X317634D02*
Y446683D01*
X319000Y448049D01*
X320366Y446683D01*
Y443951D01*
Y446000D01*
X317634D01*
X324465Y447366D02*
X323782Y448049D01*
X322416D01*
X321732Y447366D01*
Y446683D01*
X322416Y446000D01*
X323782D01*
X324465Y445317D01*
Y444634D01*
X323782Y443951D01*
X322416D01*
X321732Y444634D01*
X328564Y447366D02*
X327881Y448049D01*
X326514D01*
X325831Y447366D01*
Y446683D01*
X326514Y446000D01*
X327881D01*
X328564Y445317D01*
Y444634D01*
X327881Y443951D01*
X326514D01*
X325831Y444634D01*
X332662Y443951D02*
X329930D01*
X332662Y446683D01*
Y447366D01*
X331979Y448049D01*
X330613D01*
X329930Y447366D01*
X237609Y499366D02*
X236926Y500049D01*
X235560D01*
X234877Y499366D01*
Y496634D01*
X235560Y495951D01*
X236926D01*
X237609Y496634D01*
X238975Y495951D02*
X240342D01*
X239658D01*
Y500049D01*
X238975Y499366D01*
X245123Y500049D02*
X242391D01*
Y498000D01*
X243757Y498683D01*
X244440D01*
X245123Y498000D01*
Y496634D01*
X244440Y495951D01*
X243074D01*
X242391Y496634D01*
X259049Y468782D02*
X254951D01*
Y466732D01*
X255634Y466049D01*
X258366D01*
X259049Y466732D01*
Y468782D01*
Y464683D02*
Y461951D01*
X258366D01*
X255634Y464683D01*
X254951D01*
Y461951D01*
Y460584D02*
Y459218D01*
Y459901D01*
X259049D01*
X258366Y460584D01*
X455951Y81415D02*
X460049D01*
Y79366D01*
X459366Y78683D01*
X458000D01*
X457317Y79366D01*
Y81415D01*
Y80049D02*
X455951Y78683D01*
X456634Y77317D02*
X455951Y76634D01*
Y75267D01*
X456634Y74584D01*
X459366D01*
X460049Y75267D01*
Y76634D01*
X459366Y77317D01*
X458683D01*
X458000Y76634D01*
Y74584D01*
X299317Y47366D02*
X298634Y48049D01*
X297268D01*
X296584Y47366D01*
Y44634D01*
X297268Y43951D01*
X298634D01*
X299317Y44634D01*
X303416Y48049D02*
X300683D01*
Y46000D01*
X302049Y46683D01*
X302732D01*
X303416Y46000D01*
Y44634D01*
X302732Y43951D01*
X301366D01*
X300683Y44634D01*
X303049Y111416D02*
X299634D01*
X298951Y110732D01*
Y109366D01*
X299634Y108683D01*
X303049D01*
X298951Y104584D02*
Y107317D01*
X301683Y104584D01*
X302366D01*
X303049Y105268D01*
Y106634D01*
X302366Y107317D01*
X240609Y22366D02*
X239926Y23049D01*
X238560D01*
X237877Y22366D01*
Y19634D01*
X238560Y18951D01*
X239926D01*
X240609Y19634D01*
X241975Y18951D02*
X243342D01*
X242658D01*
Y23049D01*
X241975Y22366D01*
X245391D02*
X246074Y23049D01*
X247440D01*
X248123Y22366D01*
Y21683D01*
X247440Y21000D01*
X246757D01*
X247440D01*
X248123Y20317D01*
Y19634D01*
X247440Y18951D01*
X246074D01*
X245391Y19634D01*
X46366Y37391D02*
X47049Y38074D01*
Y39440D01*
X46366Y40123D01*
X43634D01*
X42951Y39440D01*
Y38074D01*
X43634Y37391D01*
X42951Y36025D02*
Y34658D01*
Y35342D01*
X47049D01*
X46366Y36025D01*
X42951Y29877D02*
Y32609D01*
X45683Y29877D01*
X46366D01*
X47049Y30560D01*
Y31926D01*
X46366Y32609D01*
X108951Y119079D02*
X113049D01*
Y117030D01*
X112366Y116347D01*
X111000D01*
X110317Y117030D01*
Y119079D01*
Y117713D02*
X108951Y116347D01*
Y114980D02*
Y113614D01*
Y114297D01*
X113049D01*
X112366Y114980D01*
X115317Y187366D02*
X114634Y188049D01*
X113268D01*
X112584Y187366D01*
Y184634D01*
X113268Y183951D01*
X114634D01*
X115317Y184634D01*
X119416Y183951D02*
X116683D01*
X119416Y186683D01*
Y187366D01*
X118732Y188049D01*
X117366D01*
X116683Y187366D01*
X35366Y80000D02*
X36049Y80683D01*
Y82049D01*
X35366Y82732D01*
X32634D01*
X31951Y82049D01*
Y80683D01*
X32634Y80000D01*
X31951Y78634D02*
Y77268D01*
Y77951D01*
X36049D01*
X35366Y78634D01*
X218415Y199951D02*
Y203366D01*
X217732Y204049D01*
X216366D01*
X215683Y203366D01*
Y199951D01*
X214317D02*
X211584D01*
Y200634D01*
X214317Y203366D01*
Y204049D01*
X228634Y514609D02*
X227951Y513926D01*
Y512560D01*
X228634Y511877D01*
X231366D01*
X232049Y512560D01*
Y513926D01*
X231366Y514609D01*
X232049Y515975D02*
Y517342D01*
Y516658D01*
X227951D01*
X228634Y515975D01*
X232049Y521440D02*
X227951D01*
X230000Y519391D01*
Y522123D01*
X27268Y408049D02*
X25901D01*
X26584D01*
Y404634D01*
X25901Y403951D01*
X25218D01*
X24535Y404634D01*
X31366Y408049D02*
X30000Y407366D01*
X28634Y406000D01*
Y404634D01*
X29317Y403951D01*
X30683D01*
X31366Y404634D01*
Y405317D01*
X30683Y406000D01*
X28634D01*
X32732Y403951D02*
Y406683D01*
X34099Y408049D01*
X35465Y406683D01*
Y403951D01*
Y406000D01*
X32732D01*
X437951Y82465D02*
X442049D01*
Y80415D01*
X441366Y79732D01*
X440000D01*
X439317Y80415D01*
Y82465D01*
Y81099D02*
X437951Y79732D01*
Y75634D02*
Y78366D01*
X440683Y75634D01*
X441366D01*
X442049Y76317D01*
Y77683D01*
X441366Y78366D01*
X442049Y74268D02*
Y71535D01*
X441366D01*
X438634Y74268D01*
X437951D01*
X460049Y121535D02*
X455951D01*
Y123584D01*
X456634Y124268D01*
X458000D01*
X458683Y123584D01*
Y121535D01*
Y122901D02*
X460049Y124268D01*
Y128366D02*
Y125634D01*
X457317Y128366D01*
X456634D01*
X455951Y127683D01*
Y126317D01*
X456634Y125634D01*
X455951Y132465D02*
X456634Y131099D01*
X458000Y129732D01*
X459366D01*
X460049Y130416D01*
Y131782D01*
X459366Y132465D01*
X458683D01*
X458000Y131782D01*
Y129732D01*
X158535Y455049D02*
Y450951D01*
X160584D01*
X161268Y451634D01*
Y454366D01*
X160584Y455049D01*
X158535D01*
X162634Y450951D02*
Y455049D01*
X164683D01*
X165366Y454366D01*
Y453000D01*
X164683Y452317D01*
X162634D01*
X169465Y450951D02*
X166732D01*
X169465Y453683D01*
Y454366D01*
X168782Y455049D01*
X167416D01*
X166732Y454366D01*
X198218Y450049D02*
Y445951D01*
X200268D01*
X200951Y446634D01*
Y449366D01*
X200268Y450049D01*
X198218D01*
X202317Y445951D02*
Y450049D01*
X204366D01*
X205049Y449366D01*
Y448000D01*
X204366Y447317D01*
X202317D01*
X206416Y445951D02*
X207782D01*
X207099D01*
Y450049D01*
X206416Y449366D01*
X358535Y310951D02*
Y315049D01*
X360584D01*
X361268Y314366D01*
Y313000D01*
X360584Y312317D01*
X358535D01*
X359901D02*
X361268Y310951D01*
X362634D02*
Y315049D01*
X364683D01*
X365366Y314366D01*
Y313000D01*
X364683Y312317D01*
X362634D01*
X368782Y310951D02*
Y315049D01*
X366733Y313000D01*
X369465D01*
X358535Y301951D02*
Y306049D01*
X360584D01*
X361268Y305366D01*
Y304000D01*
X360584Y303317D01*
X358535D01*
X359901D02*
X361268Y301951D01*
X362634D02*
Y306049D01*
X364683D01*
X365366Y305366D01*
Y304000D01*
X364683Y303317D01*
X362634D01*
X366733Y305366D02*
X367416Y306049D01*
X368782D01*
X369465Y305366D01*
Y304683D01*
X368782Y304000D01*
X368099D01*
X368782D01*
X369465Y303317D01*
Y302634D01*
X368782Y301951D01*
X367416D01*
X366733Y302634D01*
X358535Y328951D02*
Y333049D01*
X360584D01*
X361268Y332366D01*
Y331000D01*
X360584Y330317D01*
X358535D01*
X359901D02*
X361268Y328951D01*
X362634D02*
Y333049D01*
X364683D01*
X365366Y332366D01*
Y331000D01*
X364683Y330317D01*
X362634D01*
X369465Y328951D02*
X366733D01*
X369465Y331683D01*
Y332366D01*
X368782Y333049D01*
X367416D01*
X366733Y332366D01*
X358218Y319951D02*
Y324049D01*
X360268D01*
X360951Y323366D01*
Y322000D01*
X360268Y321317D01*
X358218D01*
X359584D02*
X360951Y319951D01*
X362317D02*
Y324049D01*
X364366D01*
X365049Y323366D01*
Y322000D01*
X364366Y321317D01*
X362317D01*
X366416Y319951D02*
X367782D01*
X367099D01*
Y324049D01*
X366416Y323366D01*
X121951Y69584D02*
X126049D01*
Y71634D01*
X125366Y72317D01*
X122634D01*
X121951Y71634D01*
Y69584D01*
X126049Y75732D02*
X121951D01*
X124000Y73683D01*
Y76416D01*
X88951Y87465D02*
X93049D01*
Y85416D01*
X92366Y84732D01*
X91000D01*
X90317Y85416D01*
Y87465D01*
Y86099D02*
X88951Y84732D01*
X93049Y83366D02*
X88951D01*
Y80634D01*
X92366Y79268D02*
X93049Y78584D01*
Y77218D01*
X92366Y76535D01*
X91683D01*
X91000Y77218D01*
Y77901D01*
Y77218D01*
X90317Y76535D01*
X89634D01*
X88951Y77218D01*
Y78584D01*
X89634Y79268D01*
X100535Y96049D02*
Y91951D01*
X102584D01*
X103268Y92634D01*
Y95366D01*
X102584Y96049D01*
X100535D01*
X104634D02*
Y91951D01*
X107366D01*
X108732Y95366D02*
X109416Y96049D01*
X110782D01*
X111465Y95366D01*
Y94683D01*
X110782Y94000D01*
X110099D01*
X110782D01*
X111465Y93317D01*
Y92634D01*
X110782Y91951D01*
X109416D01*
X108732Y92634D01*
X365049Y78535D02*
X360951D01*
Y80585D01*
X361634Y81268D01*
X363000D01*
X363683Y80585D01*
Y78535D01*
Y79901D02*
X365049Y81268D01*
X360951Y82634D02*
X365049D01*
Y85366D01*
Y89465D02*
Y86732D01*
X362317Y89465D01*
X361634D01*
X360951Y88782D01*
Y87416D01*
X361634Y86732D01*
X373951Y113535D02*
X378049D01*
Y115584D01*
X377366Y116268D01*
X374634D01*
X373951Y115584D01*
Y113535D01*
Y117634D02*
X378049D01*
Y120366D01*
Y124465D02*
Y121732D01*
X375317Y124465D01*
X374634D01*
X373951Y123782D01*
Y122416D01*
X374634Y121732D01*
X345049Y79218D02*
X340951D01*
Y81268D01*
X341634Y81951D01*
X343000D01*
X343683Y81268D01*
Y79218D01*
Y80584D02*
X345049Y81951D01*
X340951Y83317D02*
X345049D01*
Y86049D01*
Y87416D02*
Y88782D01*
Y88099D01*
X340951D01*
X341634Y87416D01*
X327951Y114218D02*
X332049D01*
Y116268D01*
X331366Y116951D01*
X328634D01*
X327951Y116268D01*
Y114218D01*
Y118317D02*
X332049D01*
Y121049D01*
Y122416D02*
Y123782D01*
Y123099D01*
X327951D01*
X328634Y122416D01*
X129877Y376049D02*
Y371951D01*
X131926D01*
X132609Y372634D01*
Y375366D01*
X131926Y376049D01*
X129877D01*
X133975D02*
X135342D01*
X134658D01*
Y371951D01*
X133975D01*
X135342D01*
X139440D02*
Y376049D01*
X137391Y374000D01*
X140123D01*
X129877Y356049D02*
Y351951D01*
X131926D01*
X132609Y352634D01*
Y355366D01*
X131926Y356049D01*
X129877D01*
X133975D02*
X135342D01*
X134658D01*
Y351951D01*
X133975D01*
X135342D01*
X137391Y355366D02*
X138074Y356049D01*
X139440D01*
X140123Y355366D01*
Y354683D01*
X139440Y354000D01*
X138757D01*
X139440D01*
X140123Y353317D01*
Y352634D01*
X139440Y351951D01*
X138074D01*
X137391Y352634D01*
X129877Y336049D02*
Y331951D01*
X131926D01*
X132609Y332634D01*
Y335366D01*
X131926Y336049D01*
X129877D01*
X133975D02*
X135342D01*
X134658D01*
Y331951D01*
X133975D01*
X135342D01*
X140123D02*
X137391D01*
X140123Y334683D01*
Y335366D01*
X139440Y336049D01*
X138074D01*
X137391Y335366D01*
X129560Y316049D02*
Y311951D01*
X131609D01*
X132292Y312634D01*
Y315366D01*
X131609Y316049D01*
X129560D01*
X133658D02*
X135025D01*
X134342D01*
Y311951D01*
X133658D01*
X135025D01*
X137074D02*
X138440D01*
X137757D01*
Y316049D01*
X137074Y315366D01*
X177535Y371951D02*
Y376049D01*
X179584D01*
X180268Y375366D01*
Y374000D01*
X179584Y373317D01*
X177535D01*
X178901D02*
X180268Y371951D01*
X184366Y376049D02*
X181634D01*
Y374000D01*
X183000D01*
X181634D01*
Y371951D01*
X187782D02*
Y376049D01*
X185732Y374000D01*
X188465D01*
X177535Y351951D02*
Y356049D01*
X179584D01*
X180268Y355366D01*
Y354000D01*
X179584Y353317D01*
X177535D01*
X178901D02*
X180268Y351951D01*
X184366Y356049D02*
X181634D01*
Y354000D01*
X183000D01*
X181634D01*
Y351951D01*
X185732Y355366D02*
X186416Y356049D01*
X187782D01*
X188465Y355366D01*
Y354683D01*
X187782Y354000D01*
X187099D01*
X187782D01*
X188465Y353317D01*
Y352634D01*
X187782Y351951D01*
X186416D01*
X185732Y352634D01*
X177535Y331951D02*
Y336049D01*
X179584D01*
X180268Y335366D01*
Y334000D01*
X179584Y333317D01*
X177535D01*
X178901D02*
X180268Y331951D01*
X184366Y336049D02*
X181634D01*
Y334000D01*
X183000D01*
X181634D01*
Y331951D01*
X188465D02*
X185732D01*
X188465Y334683D01*
Y335366D01*
X187782Y336049D01*
X186416D01*
X185732Y335366D01*
X178218Y311951D02*
Y316049D01*
X180268D01*
X180951Y315366D01*
Y314000D01*
X180268Y313317D01*
X178218D01*
X179584D02*
X180951Y311951D01*
X185049Y316049D02*
X182317D01*
Y314000D01*
X183683D01*
X182317D01*
Y311951D01*
X186416D02*
X187782D01*
X187099D01*
Y316049D01*
X186416Y315366D01*
X147535Y361951D02*
Y366049D01*
X149584D01*
X150268Y365366D01*
Y364000D01*
X149584Y363317D01*
X147535D01*
X148901D02*
X150268Y361951D01*
X151634D02*
Y364683D01*
X153000Y366049D01*
X154366Y364683D01*
Y361951D01*
Y364000D01*
X151634D01*
X157782Y361951D02*
Y366049D01*
X155732Y364000D01*
X158465D01*
X147535Y341951D02*
Y346049D01*
X149584D01*
X150268Y345366D01*
Y344000D01*
X149584Y343317D01*
X147535D01*
X148901D02*
X150268Y341951D01*
X151634D02*
Y344683D01*
X153000Y346049D01*
X154366Y344683D01*
Y341951D01*
Y344000D01*
X151634D01*
X155732Y345366D02*
X156416Y346049D01*
X157782D01*
X158465Y345366D01*
Y344683D01*
X157782Y344000D01*
X157099D01*
X157782D01*
X158465Y343317D01*
Y342634D01*
X157782Y341951D01*
X156416D01*
X155732Y342634D01*
X147535Y321951D02*
Y326049D01*
X149584D01*
X150268Y325366D01*
Y324000D01*
X149584Y323317D01*
X147535D01*
X148901D02*
X150268Y321951D01*
X151634D02*
Y324683D01*
X153000Y326049D01*
X154366Y324683D01*
Y321951D01*
Y324000D01*
X151634D01*
X158465Y321951D02*
X155732D01*
X158465Y324683D01*
Y325366D01*
X157782Y326049D01*
X156416D01*
X155732Y325366D01*
X148218Y301951D02*
Y306049D01*
X150268D01*
X150951Y305366D01*
Y304000D01*
X150268Y303317D01*
X148218D01*
X149584D02*
X150951Y301951D01*
X152317D02*
Y304683D01*
X153683Y306049D01*
X155049Y304683D01*
Y301951D01*
Y304000D01*
X152317D01*
X156416Y301951D02*
X157782D01*
X157099D01*
Y306049D01*
X156416Y305366D01*
X65317Y305049D02*
X63951D01*
X64634D01*
Y301634D01*
X63951Y300951D01*
X63268D01*
X62584Y301634D01*
X66683Y304366D02*
X67366Y305049D01*
X68732D01*
X69416Y304366D01*
Y303683D01*
X68732Y303000D01*
X68049D01*
X68732D01*
X69416Y302317D01*
Y301634D01*
X68732Y300951D01*
X67366D01*
X66683Y301634D01*
X207609Y365366D02*
X206926Y366049D01*
X205560D01*
X204877Y365366D01*
Y362634D01*
X205560Y361951D01*
X206926D01*
X207609Y362634D01*
X208975Y361951D02*
X210342D01*
X209658D01*
Y366049D01*
X208975Y365366D01*
X212391Y366049D02*
X215123D01*
Y365366D01*
X212391Y362634D01*
Y361951D01*
X208292Y345366D02*
X207609Y346049D01*
X206243D01*
X205560Y345366D01*
Y342634D01*
X206243Y341951D01*
X207609D01*
X208292Y342634D01*
X209658Y341951D02*
X211025D01*
X210342D01*
Y346049D01*
X209658Y345366D01*
X213074Y341951D02*
X214440D01*
X213757D01*
Y346049D01*
X213074Y345366D01*
X207609Y325366D02*
X206926Y326049D01*
X205560D01*
X204877Y325366D01*
Y322634D01*
X205560Y321951D01*
X206926D01*
X207609Y322634D01*
X208975Y321951D02*
X210342D01*
X209658D01*
Y326049D01*
X208975Y325366D01*
X212391D02*
X213074Y326049D01*
X214440D01*
X215123Y325366D01*
Y322634D01*
X214440Y321951D01*
X213074D01*
X212391Y322634D01*
Y325366D01*
X208317Y305366D02*
X207634Y306049D01*
X206267D01*
X205584Y305366D01*
Y302634D01*
X206267Y301951D01*
X207634D01*
X208317Y302634D01*
X209683D02*
X210366Y301951D01*
X211733D01*
X212416Y302634D01*
Y305366D01*
X211733Y306049D01*
X210366D01*
X209683Y305366D01*
Y304683D01*
X210366Y304000D01*
X212416D01*
X483951Y224268D02*
Y222901D01*
Y223585D01*
X487366D01*
X488049Y222901D01*
Y222218D01*
X487366Y221535D01*
X484634Y228366D02*
X483951Y227683D01*
Y226317D01*
X484634Y225634D01*
X487366D01*
X488049Y226317D01*
Y227683D01*
X487366Y228366D01*
X488049Y231782D02*
X483951D01*
X486000Y229732D01*
Y232465D01*
X483951Y314268D02*
Y312901D01*
Y313584D01*
X487366D01*
X488049Y312901D01*
Y312218D01*
X487366Y311535D01*
X484634Y318366D02*
X483951Y317683D01*
Y316317D01*
X484634Y315634D01*
X487366D01*
X488049Y316317D01*
Y317683D01*
X487366Y318366D01*
X484634Y319732D02*
X483951Y320416D01*
Y321782D01*
X484634Y322465D01*
X485317D01*
X486000Y321782D01*
Y321099D01*
Y321782D01*
X486683Y322465D01*
X487366D01*
X488049Y321782D01*
Y320416D01*
X487366Y319732D01*
X483951Y404268D02*
Y402901D01*
Y403584D01*
X487366D01*
X488049Y402901D01*
Y402218D01*
X487366Y401535D01*
X484634Y408366D02*
X483951Y407683D01*
Y406317D01*
X484634Y405634D01*
X487366D01*
X488049Y406317D01*
Y407683D01*
X487366Y408366D01*
X488049Y412465D02*
Y409732D01*
X485317Y412465D01*
X484634D01*
X483951Y411782D01*
Y410416D01*
X484634Y409732D01*
X483951Y494951D02*
Y493584D01*
Y494268D01*
X487366D01*
X488049Y493584D01*
Y492901D01*
X487366Y492218D01*
X484634Y499049D02*
X483951Y498366D01*
Y497000D01*
X484634Y496317D01*
X487366D01*
X488049Y497000D01*
Y498366D01*
X487366Y499049D01*
X488049Y500416D02*
Y501782D01*
Y501099D01*
X483951D01*
X484634Y500416D01*
X293732Y190951D02*
X295099D01*
X294415D01*
Y194366D01*
X295099Y195049D01*
X295782D01*
X296465Y194366D01*
X289634Y190951D02*
X292366D01*
Y195049D01*
X289634D01*
X292366Y193000D02*
X291000D01*
X286218Y195049D02*
Y190951D01*
X288267Y193000D01*
X285535D01*
X454049Y190732D02*
Y192099D01*
Y191416D01*
X450634D01*
X449951Y192099D01*
Y192782D01*
X450634Y193465D01*
X454049Y186634D02*
Y189366D01*
X449951D01*
Y186634D01*
X452000Y189366D02*
Y188000D01*
X453366Y185268D02*
X454049Y184584D01*
Y183218D01*
X453366Y182535D01*
X452683D01*
X452000Y183218D01*
Y183901D01*
Y183218D01*
X451317Y182535D01*
X450634D01*
X449951Y183218D01*
Y184584D01*
X450634Y185268D01*
X454268Y351049D02*
X452901D01*
X453584D01*
Y347634D01*
X452901Y346951D01*
X452218D01*
X451535Y347634D01*
X458366Y351049D02*
X455634D01*
Y346951D01*
X458366D01*
X455634Y349000D02*
X457000D01*
X462465Y346951D02*
X459732D01*
X462465Y349683D01*
Y350366D01*
X461782Y351049D01*
X460416D01*
X459732Y350366D01*
X293951Y350951D02*
Y349584D01*
Y350268D01*
X297366D01*
X298049Y349584D01*
Y348901D01*
X297366Y348218D01*
X293951Y355049D02*
Y352317D01*
X298049D01*
Y355049D01*
X296000Y352317D02*
Y353683D01*
X298049Y356416D02*
Y357782D01*
Y357099D01*
X293951D01*
X294634Y356416D01*
X341317Y54049D02*
X339951D01*
X340634D01*
Y50634D01*
X339951Y49951D01*
X339267D01*
X338584Y50634D01*
X342683Y54049D02*
X345416D01*
Y53366D01*
X342683Y50634D01*
Y49951D01*
X66317Y212049D02*
X64951D01*
X65634D01*
Y208634D01*
X64951Y207951D01*
X64268D01*
X63584Y208634D01*
X69732Y207951D02*
Y212049D01*
X67683Y210000D01*
X70416D01*
X483317Y109049D02*
X481951D01*
X482634D01*
Y105634D01*
X481951Y104951D01*
X481268D01*
X480584Y105634D01*
X487416Y104951D02*
X484683D01*
X487416Y107683D01*
Y108366D01*
X486732Y109049D01*
X485366D01*
X484683Y108366D01*
X485000Y88951D02*
X486366D01*
X485683D01*
Y92366D01*
X486366Y93049D01*
X487049D01*
X487732Y92366D01*
X483634Y93049D02*
X482268D01*
X482951D01*
Y88951D01*
X483634Y89634D01*
X407391Y130634D02*
X408074Y129951D01*
X409440D01*
X410123Y130634D01*
Y133366D01*
X409440Y134049D01*
X408074D01*
X407391Y133366D01*
X406025Y134049D02*
X404658D01*
X405341D01*
Y129951D01*
X406025Y130634D01*
X399877Y129951D02*
X401243Y130634D01*
X402609Y132000D01*
Y133366D01*
X401926Y134049D01*
X400560D01*
X399877Y133366D01*
Y132683D01*
X400560Y132000D01*
X402609D01*
X154584Y18049D02*
Y14634D01*
X155268Y13951D01*
X156634D01*
X157317Y14634D01*
Y18049D01*
X161416D02*
X160049Y17366D01*
X158683Y16000D01*
Y14634D01*
X159366Y13951D01*
X160732D01*
X161416Y14634D01*
Y15317D01*
X160732Y16000D01*
X158683D01*
X381951Y68585D02*
X385366D01*
X386049Y69268D01*
Y70634D01*
X385366Y71317D01*
X381951D01*
X382634Y72683D02*
X381951Y73366D01*
Y74733D01*
X382634Y75416D01*
X383317D01*
X384000Y74733D01*
Y74049D01*
Y74733D01*
X384683Y75416D01*
X385366D01*
X386049Y74733D01*
Y73366D01*
X385366Y72683D01*
X43268Y110049D02*
Y106634D01*
X43951Y105951D01*
X45317D01*
X46000Y106634D01*
Y110049D01*
X47366Y105951D02*
X48733D01*
X48049D01*
Y110049D01*
X47366Y109366D01*
X181415Y277951D02*
X178683D01*
X180049D01*
Y282049D01*
X175268D02*
Y277951D01*
X177317Y280000D01*
X174584D01*
X181415Y252951D02*
X178683D01*
X180049D01*
Y257049D01*
X177317Y253634D02*
X176634Y252951D01*
X175268D01*
X174584Y253634D01*
Y254317D01*
X175268Y255000D01*
X175951D01*
X175268D01*
X174584Y255683D01*
Y256366D01*
X175268Y257049D01*
X176634D01*
X177317Y256366D01*
X181415Y227951D02*
X178683D01*
X180049D01*
Y232049D01*
X174584D02*
X177317D01*
X174584Y229317D01*
Y228634D01*
X175268Y227951D01*
X176634D01*
X177317Y228634D01*
X181732Y202951D02*
X179000D01*
X180366D01*
Y207049D01*
X177634D02*
X176268D01*
X176951D01*
Y202951D01*
X177634Y203634D01*
X305119Y433951D02*
Y438049D01*
X307169D01*
X307852Y437366D01*
Y436000D01*
X307169Y435317D01*
X305119D01*
X306486D02*
X307852Y433951D01*
X309218Y438049D02*
X310584D01*
X309901D01*
Y433951D01*
X309218D01*
X310584D01*
X312634Y438049D02*
Y433951D01*
X315366D01*
X316733Y438049D02*
X318099D01*
X317416D01*
Y433951D01*
X316733D01*
X318099D01*
X320148D02*
Y438049D01*
X321514Y436683D01*
X322881Y438049D01*
Y433951D01*
X305387Y453951D02*
Y458049D01*
X307436D01*
X308120Y457366D01*
Y456000D01*
X307436Y455317D01*
X305387D01*
X306753D02*
X308120Y453951D01*
X312218Y457366D02*
X311535Y458049D01*
X310169D01*
X309486Y457366D01*
Y454634D01*
X310169Y453951D01*
X311535D01*
X312218Y454634D01*
X313584Y458049D02*
Y453951D01*
X316317D01*
X317683D02*
Y456683D01*
X319049Y458049D01*
X320416Y456683D01*
Y453951D01*
Y456000D01*
X317683D01*
X324514Y457366D02*
X323831Y458049D01*
X322465D01*
X321782Y457366D01*
Y456683D01*
X322465Y456000D01*
X323831D01*
X324514Y455317D01*
Y454634D01*
X323831Y453951D01*
X322465D01*
X321782Y454634D01*
X328613Y457366D02*
X327930Y458049D01*
X326564D01*
X325881Y457366D01*
Y456683D01*
X326564Y456000D01*
X327930D01*
X328613Y455317D01*
Y454634D01*
X327930Y453951D01*
X326564D01*
X325881Y454634D01*
X305951Y513514D02*
X310049D01*
Y511465D01*
X309366Y510782D01*
X308000D01*
X307317Y511465D01*
Y513514D01*
Y512148D02*
X305951Y510782D01*
X310049Y509415D02*
X305951D01*
Y507366D01*
X306634Y506683D01*
X309366D01*
X310049Y507366D01*
Y509415D01*
Y502584D02*
Y505317D01*
X305951D01*
Y502584D01*
X308000Y505317D02*
Y503951D01*
X310049Y501218D02*
Y498486D01*
Y499852D01*
X305951D01*
X272951Y507465D02*
X277049D01*
Y505415D01*
X276366Y504732D01*
X275000D01*
X274317Y505415D01*
Y507465D01*
Y506099D02*
X272951Y504732D01*
Y500634D02*
Y503366D01*
X275683Y500634D01*
X276366D01*
X277049Y501317D01*
Y502683D01*
X276366Y503366D01*
X277049Y496535D02*
Y499268D01*
X275000D01*
X275683Y497901D01*
Y497218D01*
X275000Y496535D01*
X273634D01*
X272951Y497218D01*
Y498584D01*
X273634Y499268D01*
X146465Y283049D02*
Y278951D01*
X144416D01*
X143732Y279634D01*
Y281000D01*
X144416Y281683D01*
X146465D01*
X145099D02*
X143732Y283049D01*
X139634D02*
X142366D01*
X139634Y280317D01*
Y279634D01*
X140317Y278951D01*
X141683D01*
X142366Y279634D01*
X136218Y283049D02*
Y278951D01*
X138268Y281000D01*
X135535D01*
X146465Y293049D02*
Y288951D01*
X144416D01*
X143732Y289634D01*
Y291000D01*
X144416Y291683D01*
X146465D01*
X145099D02*
X143732Y293049D01*
X139634D02*
X142366D01*
X139634Y290317D01*
Y289634D01*
X140317Y288951D01*
X141683D01*
X142366Y289634D01*
X138268D02*
X137584Y288951D01*
X136218D01*
X135535Y289634D01*
Y290317D01*
X136218Y291000D01*
X136901D01*
X136218D01*
X135535Y291683D01*
Y292366D01*
X136218Y293049D01*
X137584D01*
X138268Y292366D01*
X260465Y263049D02*
Y258951D01*
X258416D01*
X257732Y259634D01*
Y261000D01*
X258416Y261683D01*
X260465D01*
X259099D02*
X257732Y263049D01*
X253634D02*
X256366D01*
X253634Y260317D01*
Y259634D01*
X254317Y258951D01*
X255683D01*
X256366Y259634D01*
X249535Y263049D02*
X252268D01*
X249535Y260317D01*
Y259634D01*
X250218Y258951D01*
X251584D01*
X252268Y259634D01*
X146782Y258049D02*
Y253951D01*
X144732D01*
X144049Y254634D01*
Y256000D01*
X144732Y256683D01*
X146782D01*
X145415D02*
X144049Y258049D01*
X139951D02*
X142683D01*
X139951Y255317D01*
Y254634D01*
X140634Y253951D01*
X142000D01*
X142683Y254634D01*
X138584Y258049D02*
X137218D01*
X137901D01*
Y253951D01*
X138584Y254634D01*
X146465Y268049D02*
Y263951D01*
X144416D01*
X143732Y264634D01*
Y266000D01*
X144416Y266683D01*
X146465D01*
X145099D02*
X143732Y268049D01*
X139634D02*
X142366D01*
X139634Y265317D01*
Y264634D01*
X140317Y263951D01*
X141683D01*
X142366Y264634D01*
X138268D02*
X137584Y263951D01*
X136218D01*
X135535Y264634D01*
Y267366D01*
X136218Y268049D01*
X137584D01*
X138268Y267366D01*
Y264634D01*
X260123Y253049D02*
Y248951D01*
X258074D01*
X257391Y249634D01*
Y251000D01*
X258074Y251683D01*
X260123D01*
X258757D02*
X257391Y253049D01*
X256025D02*
X254658D01*
X255342D01*
Y248951D01*
X256025Y249634D01*
X252609Y252366D02*
X251926Y253049D01*
X250560D01*
X249877Y252366D01*
Y249634D01*
X250560Y248951D01*
X251926D01*
X252609Y249634D01*
Y250317D01*
X251926Y251000D01*
X249877D01*
X146123Y233049D02*
Y228951D01*
X144074D01*
X143391Y229634D01*
Y231000D01*
X144074Y231683D01*
X146123D01*
X144757D02*
X143391Y233049D01*
X142025D02*
X140658D01*
X141341D01*
Y228951D01*
X142025Y229634D01*
X138609D02*
X137926Y228951D01*
X136560D01*
X135877Y229634D01*
Y230317D01*
X136560Y231000D01*
X135877Y231683D01*
Y232366D01*
X136560Y233049D01*
X137926D01*
X138609Y232366D01*
Y231683D01*
X137926Y231000D01*
X138609Y230317D01*
Y229634D01*
X137926Y231000D02*
X136560D01*
X146123Y243049D02*
Y238951D01*
X144074D01*
X143391Y239634D01*
Y241000D01*
X144074Y241683D01*
X146123D01*
X144757D02*
X143391Y243049D01*
X142025D02*
X140658D01*
X141341D01*
Y238951D01*
X142025Y239634D01*
X138609Y238951D02*
X135877D01*
Y239634D01*
X138609Y242366D01*
Y243049D01*
X260123D02*
Y238951D01*
X258074D01*
X257391Y239634D01*
Y241000D01*
X258074Y241683D01*
X260123D01*
X258757D02*
X257391Y243049D01*
X256025D02*
X254658D01*
X255342D01*
Y238951D01*
X256025Y239634D01*
X249877Y238951D02*
X251243Y239634D01*
X252609Y241000D01*
Y242366D01*
X251926Y243049D01*
X250560D01*
X249877Y242366D01*
Y241683D01*
X250560Y241000D01*
X252609D01*
X146123Y208049D02*
Y203951D01*
X144074D01*
X143391Y204634D01*
Y206000D01*
X144074Y206683D01*
X146123D01*
X144757D02*
X143391Y208049D01*
X142025D02*
X140658D01*
X141341D01*
Y203951D01*
X142025Y204634D01*
X135877Y203951D02*
X138609D01*
Y206000D01*
X137243Y205317D01*
X136560D01*
X135877Y206000D01*
Y207366D01*
X136560Y208049D01*
X137926D01*
X138609Y207366D01*
X146123Y218049D02*
Y213951D01*
X144074D01*
X143391Y214634D01*
Y216000D01*
X144074Y216683D01*
X146123D01*
X144757D02*
X143391Y218049D01*
X142025D02*
X140658D01*
X141341D01*
Y213951D01*
X142025Y214634D01*
X136560Y218049D02*
Y213951D01*
X138609Y216000D01*
X135877D01*
X260123Y233049D02*
Y228951D01*
X258074D01*
X257391Y229634D01*
Y231000D01*
X258074Y231683D01*
X260123D01*
X258757D02*
X257391Y233049D01*
X256025D02*
X254658D01*
X255342D01*
Y228951D01*
X256025Y229634D01*
X252609D02*
X251926Y228951D01*
X250560D01*
X249877Y229634D01*
Y230317D01*
X250560Y231000D01*
X251243D01*
X250560D01*
X249877Y231683D01*
Y232366D01*
X250560Y233049D01*
X251926D01*
X252609Y232366D01*
X205049Y42223D02*
X200951D01*
Y44273D01*
X201634Y44956D01*
X203000D01*
X203683Y44273D01*
Y42223D01*
Y43589D02*
X205049Y44956D01*
Y46322D02*
Y47688D01*
Y47005D01*
X200951D01*
X201634Y46322D01*
X205049Y52470D02*
Y49737D01*
X202317Y52470D01*
X201634D01*
X200951Y51787D01*
Y50420D01*
X201634Y49737D01*
X215049Y42906D02*
X210951D01*
Y44956D01*
X211634Y45639D01*
X213000D01*
X213683Y44956D01*
Y42906D01*
Y44273D02*
X215049Y45639D01*
Y47005D02*
Y48371D01*
Y47688D01*
X210951D01*
X211634Y47005D01*
X215049Y50420D02*
Y51787D01*
Y51104D01*
X210951D01*
X211634Y50420D01*
X403123Y114049D02*
Y109951D01*
X401074D01*
X400391Y110634D01*
Y112000D01*
X401074Y112683D01*
X403123D01*
X401757D02*
X400391Y114049D01*
X399025D02*
X397658D01*
X398341D01*
Y109951D01*
X399025Y110634D01*
X395609D02*
X394926Y109951D01*
X393560D01*
X392877Y110634D01*
Y113366D01*
X393560Y114049D01*
X394926D01*
X395609Y113366D01*
Y110634D01*
X446951Y80415D02*
X451049D01*
Y78366D01*
X450366Y77683D01*
X449000D01*
X448317Y78366D01*
Y80415D01*
Y79049D02*
X446951Y77683D01*
X450366Y76317D02*
X451049Y75634D01*
Y74268D01*
X450366Y73584D01*
X449683D01*
X449000Y74268D01*
X448317Y73584D01*
X447634D01*
X446951Y74268D01*
Y75634D01*
X447634Y76317D01*
X448317D01*
X449000Y75634D01*
X449683Y76317D01*
X450366D01*
X449000Y75634D02*
Y74268D01*
X401415Y123049D02*
Y118951D01*
X399366D01*
X398683Y119634D01*
Y121000D01*
X399366Y121683D01*
X401415D01*
X400049D02*
X398683Y123049D01*
X397317Y118951D02*
X394584D01*
Y119634D01*
X397317Y122366D01*
Y123049D01*
X437951Y130416D02*
X442049D01*
Y128366D01*
X441366Y127683D01*
X440000D01*
X439317Y128366D01*
Y130416D01*
Y129049D02*
X437951Y127683D01*
X442049Y123584D02*
X441366Y124951D01*
X440000Y126317D01*
X438634D01*
X437951Y125634D01*
Y124267D01*
X438634Y123584D01*
X439317D01*
X440000Y124267D01*
Y126317D01*
X451049Y123584D02*
X446951D01*
Y125634D01*
X447634Y126317D01*
X449000D01*
X449683Y125634D01*
Y123584D01*
Y124951D02*
X451049Y126317D01*
X446951Y130416D02*
Y127683D01*
X449000D01*
X448317Y129049D01*
Y129732D01*
X449000Y130416D01*
X450366D01*
X451049Y129732D01*
Y128366D01*
X450366Y127683D01*
X292584Y34951D02*
Y39049D01*
X294634D01*
X295317Y38366D01*
Y37000D01*
X294634Y36317D01*
X292584D01*
X293951D02*
X295317Y34951D01*
X298732D02*
Y39049D01*
X296683Y37000D01*
X299416D01*
X301951Y77416D02*
X306049D01*
Y75366D01*
X305366Y74683D01*
X304000D01*
X303317Y75366D01*
Y77416D01*
Y76049D02*
X301951Y74683D01*
X305366Y73317D02*
X306049Y72634D01*
Y71267D01*
X305366Y70584D01*
X304683D01*
X304000Y71267D01*
Y71951D01*
Y71267D01*
X303317Y70584D01*
X302634D01*
X301951Y71267D01*
Y72634D01*
X302634Y73317D01*
X99185Y119839D02*
X103284D01*
Y117789D01*
X102600Y117106D01*
X101234D01*
X100551Y117789D01*
Y119839D01*
Y118473D02*
X99185Y117106D01*
Y113008D02*
Y115740D01*
X101917Y113008D01*
X102600D01*
X103284Y113691D01*
Y115057D01*
X102600Y115740D01*
X145584Y189049D02*
Y184951D01*
X148317D01*
X152416D02*
X149683D01*
X152416Y187683D01*
Y188366D01*
X151732Y189049D01*
X150366D01*
X149683Y188366D01*
X68268Y194049D02*
Y189951D01*
X71000D01*
X72366D02*
X73732D01*
X73049D01*
Y194049D01*
X72366Y193366D01*
X262033Y160852D02*
X260666D01*
X261349D01*
Y157437D01*
X260666Y156754D01*
X259983D01*
X259300Y157437D01*
X266131Y160852D02*
X263399D01*
Y158803D01*
X264765Y159486D01*
X265448D01*
X266131Y158803D01*
Y157437D01*
X265448Y156754D01*
X264082D01*
X263399Y157437D01*
X327049Y80415D02*
X322951D01*
Y78366D01*
X323634Y77683D01*
X326366D01*
X327049Y78366D01*
Y80415D01*
X326366Y76317D02*
X327049Y75634D01*
Y74268D01*
X326366Y73584D01*
X325683D01*
X325000Y74268D01*
Y74951D01*
Y74268D01*
X324317Y73584D01*
X323634D01*
X322951Y74268D01*
Y75634D01*
X323634Y76317D01*
X316049Y70416D02*
X311951D01*
Y68366D01*
X312634Y67683D01*
X315366D01*
X316049Y68366D01*
Y70416D01*
X311951Y63584D02*
Y66317D01*
X314683Y63584D01*
X315366D01*
X316049Y64268D01*
Y65634D01*
X315366Y66317D01*
X38951Y171268D02*
X43049D01*
Y173317D01*
X42366Y174000D01*
X39634D01*
X38951Y173317D01*
Y171268D01*
X43049Y175366D02*
Y176732D01*
Y176049D01*
X38951D01*
X39634Y175366D01*
X243317Y345366D02*
X242634Y346049D01*
X241267D01*
X240584Y345366D01*
Y342634D01*
X241267Y341951D01*
X242634D01*
X243317Y342634D01*
X244683Y345366D02*
X245366Y346049D01*
X246732D01*
X247416Y345366D01*
Y344683D01*
X246732Y344000D01*
X247416Y343317D01*
Y342634D01*
X246732Y341951D01*
X245366D01*
X244683Y342634D01*
Y343317D01*
X245366Y344000D01*
X244683Y344683D01*
Y345366D01*
X245366Y344000D02*
X246732D01*
X227317Y312366D02*
X226634Y313049D01*
X225268D01*
X224584Y312366D01*
Y309634D01*
X225268Y308951D01*
X226634D01*
X227317Y309634D01*
X228683Y313049D02*
X231416D01*
Y312366D01*
X228683Y309634D01*
Y308951D01*
X227317Y292366D02*
X226634Y293049D01*
X225268D01*
X224584Y292366D01*
Y289634D01*
X225268Y288951D01*
X226634D01*
X227317Y289634D01*
X231416Y293049D02*
X230049Y292366D01*
X228683Y291000D01*
Y289634D01*
X229366Y288951D01*
X230732D01*
X231416Y289634D01*
Y290317D01*
X230732Y291000D01*
X228683D01*
X293317Y28366D02*
X292634Y29049D01*
X291267D01*
X290584Y28366D01*
Y25634D01*
X291267Y24951D01*
X292634D01*
X293317Y25634D01*
X296732Y24951D02*
Y29049D01*
X294683Y27000D01*
X297416D01*
X268317Y120366D02*
X267634Y121049D01*
X266267D01*
X265584Y120366D01*
Y117634D01*
X266267Y116951D01*
X267634D01*
X268317Y117634D01*
X269683Y120366D02*
X270366Y121049D01*
X271732D01*
X272416Y120366D01*
Y119683D01*
X271732Y119000D01*
X271049D01*
X271732D01*
X272416Y118317D01*
Y117634D01*
X271732Y116951D01*
X270366D01*
X269683Y117634D01*
D17*
X257000Y476491D02*
D03*
X41000Y156510D02*
D03*
X314000Y79497D02*
D03*
X325000Y89497D02*
D03*
D18*
X133000Y106007D02*
D03*
D19*
X148500Y314000D02*
D03*
Y334000D02*
D03*
Y374000D02*
D03*
Y354000D02*
D03*
M02*
