G04*
G04 #@! TF.GenerationSoftware,Altium Limited,Altium Designer,22.6.1 (34)*
G04*
G04 Layer_Color=32768*
%FSLAX25Y25*%
%MOIN*%
G70*
G04*
G04 #@! TF.SameCoordinates,AF77A519-CAE8-4CE4-B455-2A79372E2E6D*
G04*
G04*
G04 #@! TF.FilePolarity,Positive*
G04*
G01*
G75*
%ADD100C,0.00197*%
%ADD101C,0.00394*%
D100*
X468784Y53850D02*
X552150D01*
X468784D02*
Y93614D01*
X552150D01*
Y53850D02*
Y93614D01*
Y103850D02*
Y143614D01*
X468784D02*
X552150D01*
X468784Y103850D02*
Y143614D01*
Y103850D02*
X552150D01*
X348949Y47811D02*
Y56831D01*
X342315Y47811D02*
X348949D01*
X342315Y32850D02*
Y47811D01*
Y32850D02*
X348949D01*
Y-1126D02*
Y32850D01*
Y-1126D02*
X402610D01*
Y32850D01*
X409244D01*
Y47811D01*
X402610D02*
X409244D01*
X402610D02*
Y56831D01*
X348949D02*
X402610D01*
X-898Y287150D02*
X82468D01*
Y214315D02*
Y287150D01*
X-898Y214315D02*
X82468D01*
X-898D02*
Y287150D01*
Y307315D02*
Y380150D01*
Y307315D02*
X82468D01*
Y380150D01*
X-898D02*
X82468D01*
X273043Y467860D02*
Y489140D01*
X302217Y467860D02*
Y489140D01*
X273043Y467860D02*
X302217D01*
X273043Y489140D02*
X302217D01*
X489016Y151016D02*
X526984D01*
X489016D02*
Y232984D01*
X526984D01*
Y151016D02*
Y232984D01*
X489016Y241016D02*
X526984D01*
X489016D02*
Y322984D01*
X526984D01*
Y241016D02*
Y322984D01*
X489016Y331016D02*
X526984D01*
X489016D02*
Y412984D01*
X526984D01*
Y331016D02*
Y412984D01*
Y421016D02*
Y502984D01*
X489016D02*
X526984D01*
X489016Y421016D02*
Y502984D01*
Y421016D02*
X526984D01*
D101*
X204000Y515130D02*
Y518870D01*
X202130Y517000D02*
X205870D01*
X60000Y78130D02*
Y81870D01*
X58130Y80000D02*
X61870D01*
X114130Y160000D02*
X117870D01*
X116000Y158130D02*
Y161870D01*
X69130Y35000D02*
X72870D01*
X71000Y33130D02*
Y36870D01*
X241130Y47000D02*
X244870D01*
X243000Y45130D02*
Y48870D01*
X363000Y117032D02*
Y120968D01*
X361032Y119000D02*
X364968D01*
X343000Y117032D02*
Y120968D01*
X341032Y119000D02*
X344969D01*
X285000Y52130D02*
Y55870D01*
X283130Y54000D02*
X286870D01*
X106000Y80032D02*
Y83969D01*
X104032Y82000D02*
X107968D01*
M02*
