G04*
G04 #@! TF.GenerationSoftware,Altium Limited,Altium Designer,22.6.1 (34)*
G04*
G04 Layer_Physical_Order=1*
G04 Layer_Color=255*
%FSLAX25Y25*%
%MOIN*%
G70*
G04*
G04 #@! TF.SameCoordinates,AF77A519-CAE8-4CE4-B455-2A79372E2E6D*
G04*
G04*
G04 #@! TF.FilePolarity,Positive*
G04*
G01*
G75*
%ADD34C,0.07000*%
%ADD43R,0.07000X0.07000*%
%ADD55R,0.04724X0.01181*%
%ADD56R,0.01181X0.04724*%
G04:AMPARAMS|DCode=57|XSize=98.43mil|YSize=98.43mil|CornerRadius=2.46mil|HoleSize=0mil|Usage=FLASHONLY|Rotation=180.000|XOffset=0mil|YOffset=0mil|HoleType=Round|Shape=RoundedRectangle|*
%AMROUNDEDRECTD57*
21,1,0.09843,0.09350,0,0,180.0*
21,1,0.09350,0.09843,0,0,180.0*
1,1,0.00492,-0.04675,0.04675*
1,1,0.00492,0.04675,0.04675*
1,1,0.00492,0.04675,-0.04675*
1,1,0.00492,-0.04675,-0.04675*
%
%ADD57ROUNDEDRECTD57*%
G04:AMPARAMS|DCode=58|XSize=27.17mil|YSize=11.02mil|CornerRadius=1.38mil|HoleSize=0mil|Usage=FLASHONLY|Rotation=270.000|XOffset=0mil|YOffset=0mil|HoleType=Round|Shape=RoundedRectangle|*
%AMROUNDEDRECTD58*
21,1,0.02717,0.00827,0,0,270.0*
21,1,0.02441,0.01102,0,0,270.0*
1,1,0.00276,-0.00413,-0.01221*
1,1,0.00276,-0.00413,0.01221*
1,1,0.00276,0.00413,0.01221*
1,1,0.00276,0.00413,-0.01221*
%
%ADD58ROUNDEDRECTD58*%
G04:AMPARAMS|DCode=59|XSize=27.17mil|YSize=11.02mil|CornerRadius=1.38mil|HoleSize=0mil|Usage=FLASHONLY|Rotation=180.000|XOffset=0mil|YOffset=0mil|HoleType=Round|Shape=RoundedRectangle|*
%AMROUNDEDRECTD59*
21,1,0.02717,0.00827,0,0,180.0*
21,1,0.02441,0.01102,0,0,180.0*
1,1,0.00276,-0.01221,0.00413*
1,1,0.00276,0.01221,0.00413*
1,1,0.00276,0.01221,-0.00413*
1,1,0.00276,-0.01221,-0.00413*
%
%ADD59ROUNDEDRECTD59*%
%ADD60R,0.33465X0.31496*%
%ADD61C,0.02000*%
%ADD62C,0.02362*%
%ADD63C,0.04724*%
%ADD64C,0.01378*%
%ADD65R,0.10827X0.10827*%
%ADD66C,0.10827*%
%ADD67C,0.05622*%
%ADD68C,0.13055*%
%ADD69R,0.05622X0.05622*%
%ADD70C,0.05512*%
%ADD71C,0.12402*%
%ADD72C,0.09843*%
%ADD73C,0.06200*%
%ADD74C,0.06000*%
%ADD75R,0.09055X0.09055*%
%ADD76R,0.07950X0.07950*%
%ADD77C,0.07950*%
%ADD78C,0.05906*%
%ADD79R,0.06000X0.06000*%
%ADD80R,0.06000X0.06000*%
%ADD81C,0.19685*%
%ADD82R,0.06200X0.06200*%
%ADD83C,0.07087*%
%ADD84R,0.06890X0.06890*%
%ADD85C,0.06890*%
%ADD86C,0.05000*%
%ADD87R,0.05000X0.05000*%
%ADD88R,0.05000X0.05000*%
%ADD89R,0.06890X0.06890*%
%ADD90C,0.04921*%
%ADD91C,0.04000*%
D34*
X133000Y127000D02*
D03*
Y64000D02*
D03*
D43*
X289000Y89000D02*
D03*
Y99000D02*
D03*
Y79000D02*
D03*
D55*
X430512Y226378D02*
D03*
Y273622D02*
D03*
Y271654D02*
D03*
Y269685D02*
D03*
Y267717D02*
D03*
Y265748D02*
D03*
Y263779D02*
D03*
Y261811D02*
D03*
Y259842D02*
D03*
Y257874D02*
D03*
Y255906D02*
D03*
Y253937D02*
D03*
Y251969D02*
D03*
Y250000D02*
D03*
Y248031D02*
D03*
Y246063D02*
D03*
Y244094D02*
D03*
Y242126D02*
D03*
Y240158D02*
D03*
Y238189D02*
D03*
Y236221D02*
D03*
Y234252D02*
D03*
Y232283D02*
D03*
Y230315D02*
D03*
Y228346D02*
D03*
X369488Y273622D02*
D03*
Y271654D02*
D03*
Y269685D02*
D03*
Y267717D02*
D03*
Y265748D02*
D03*
Y263779D02*
D03*
Y261811D02*
D03*
Y259842D02*
D03*
Y257874D02*
D03*
Y255906D02*
D03*
Y253937D02*
D03*
Y251969D02*
D03*
Y250000D02*
D03*
Y248031D02*
D03*
Y246063D02*
D03*
Y244094D02*
D03*
Y242126D02*
D03*
Y240158D02*
D03*
Y238189D02*
D03*
Y236221D02*
D03*
Y234252D02*
D03*
Y232283D02*
D03*
Y230315D02*
D03*
Y228346D02*
D03*
Y226378D02*
D03*
D56*
X423622Y280512D02*
D03*
X378346Y219488D02*
D03*
X380315D02*
D03*
X382283D02*
D03*
X384252D02*
D03*
X386221D02*
D03*
X388189D02*
D03*
X390158D02*
D03*
X392126D02*
D03*
X394094D02*
D03*
X396063D02*
D03*
X398031D02*
D03*
X400000D02*
D03*
X401968D02*
D03*
X403937D02*
D03*
X405905D02*
D03*
X407874D02*
D03*
X409842D02*
D03*
X411811D02*
D03*
X413779D02*
D03*
X415748D02*
D03*
X417717D02*
D03*
X419685D02*
D03*
X421654D02*
D03*
X423622D02*
D03*
X376378D02*
D03*
X421654Y280512D02*
D03*
X419685D02*
D03*
X417717D02*
D03*
X415748D02*
D03*
X413779D02*
D03*
X411811D02*
D03*
X409842D02*
D03*
X407874D02*
D03*
X405905D02*
D03*
X403937D02*
D03*
X401968D02*
D03*
X400000D02*
D03*
X398031D02*
D03*
X396063D02*
D03*
X394094D02*
D03*
X392126D02*
D03*
X390158D02*
D03*
X388189D02*
D03*
X386221D02*
D03*
X384252D02*
D03*
X382283D02*
D03*
X380315D02*
D03*
X378346D02*
D03*
X376378D02*
D03*
D57*
X334000Y271000D02*
D03*
D58*
X329079Y278480D02*
D03*
X331047D02*
D03*
X333016D02*
D03*
X334984D02*
D03*
X336953D02*
D03*
X338921D02*
D03*
Y263520D02*
D03*
X336953D02*
D03*
X334984D02*
D03*
X333016D02*
D03*
X331047D02*
D03*
X329079D02*
D03*
D59*
X341480Y275921D02*
D03*
Y273953D02*
D03*
Y271984D02*
D03*
Y270016D02*
D03*
Y268047D02*
D03*
Y266079D02*
D03*
X326520Y275921D02*
D03*
Y273953D02*
D03*
Y271984D02*
D03*
Y270016D02*
D03*
Y268047D02*
D03*
Y266079D02*
D03*
D60*
X233000Y127000D02*
D03*
X165000D02*
D03*
D61*
X320000Y493000D02*
X327000D01*
X307000Y506000D02*
X320000Y493000D01*
X267000Y506000D02*
X307000D01*
X229000Y456000D02*
X240000D01*
X204000Y456701D02*
X228299D01*
X229000Y456000D01*
X204000Y485653D02*
X228654D01*
X229000Y486000D01*
X240000D01*
X257000D01*
D62*
X308000Y485000D02*
X315000Y478000D01*
X320000D01*
X327000Y471000D01*
Y463000D02*
Y471000D01*
X308000Y485000D02*
Y493000D01*
X213000Y32000D02*
Y42000D01*
X203000Y52000D02*
X213000Y42000D01*
X179000Y41000D02*
X192000D01*
X203000Y52000D01*
Y62000D01*
X372000Y17000D02*
X390000D01*
X397000Y10000D01*
X460000D01*
X104000Y6000D02*
X496000D01*
X500000Y10000D01*
X100000D02*
X104000Y6000D01*
X98000Y180000D02*
Y202000D01*
Y180000D02*
X106000Y172000D01*
X94000Y131000D02*
X101000D01*
X87000Y124000D02*
X94000Y131000D01*
X465000Y15000D02*
Y27000D01*
X460000Y10000D02*
X465000Y15000D01*
X490000Y43000D02*
X495000Y38000D01*
Y20000D02*
Y38000D01*
Y20000D02*
X500000Y15000D01*
X505000Y20000D02*
Y27000D01*
X500000Y15000D02*
X505000Y20000D01*
X500000Y10000D02*
Y15000D01*
X126000Y192000D02*
X188000D01*
X100000Y10000D02*
Y25000D01*
X463000Y43000D02*
X490000D01*
X362000Y27000D02*
X372000Y17000D01*
X449000Y57000D02*
X463000Y43000D01*
X449000Y57000D02*
Y62000D01*
X325000Y92000D02*
Y99000D01*
X335000Y82000D02*
X358000D01*
X325000Y92000D02*
X335000Y82000D01*
X358000D02*
X363000Y77000D01*
Y69000D02*
Y77000D01*
X473000Y202000D02*
Y217347D01*
X413000Y121000D02*
Y142000D01*
X428000Y120000D02*
Y142000D01*
X440000Y107000D02*
Y112000D01*
X420000Y87000D02*
X440000Y107000D01*
X403000Y87000D02*
X420000D01*
X428000Y142000D02*
X478000Y192000D01*
X420000Y112000D02*
X428000Y120000D01*
X413000Y142000D02*
X473000Y202000D01*
X353000Y331000D02*
Y337000D01*
Y322000D02*
Y331000D01*
Y313000D02*
Y322000D01*
Y304000D02*
Y313000D01*
X351000Y339000D02*
X353000Y337000D01*
X312347Y339000D02*
X351000D01*
X305000Y346346D02*
X312347Y339000D01*
X213000Y62000D02*
X238000D01*
X253000Y47000D01*
X478000Y192000D02*
Y236000D01*
X413000Y112000D02*
X420000D01*
X393000Y77000D02*
X403000Y87000D01*
X393000Y72000D02*
Y77000D01*
X473000Y241000D02*
X478000Y236000D01*
X463000Y241000D02*
X473000D01*
X469347Y221000D02*
X473000Y217347D01*
X463000Y221000D02*
X469347D01*
X289000Y99000D02*
Y119000D01*
X106000Y172000D02*
X126000Y192000D01*
X106000Y160000D02*
Y172000D01*
X503000Y212000D02*
Y237000D01*
X483000Y257000D02*
X503000Y237000D01*
X488000Y302000D02*
X503000D01*
X488000Y392000D02*
X503000D01*
X488000Y482000D02*
X503000D01*
X77000Y124000D02*
X87000D01*
X478000Y340000D02*
X483000Y335000D01*
X453000Y336347D02*
X456653Y340000D01*
X478000D02*
X483000Y345000D01*
X456653Y340000D02*
X478000D01*
X483000Y345000D02*
Y387000D01*
Y307000D02*
Y335000D01*
Y477000D02*
X488000Y482000D01*
X483000Y397000D02*
Y477000D01*
Y397000D02*
X488000Y392000D01*
X483000Y387000D02*
X488000Y392000D01*
X483000Y257000D02*
Y297000D01*
X488000Y302000D01*
X483000Y307000D02*
X488000Y302000D01*
X453000Y331000D02*
Y336347D01*
X305000Y346346D02*
Y356347D01*
X308653Y360000D01*
X314000D01*
D63*
X108000Y246000D02*
Y261000D01*
Y246000D02*
X113000Y241000D01*
X108000Y236000D02*
X113000Y241000D01*
X118000D01*
X113000Y216000D02*
X118000D01*
X108000Y221000D02*
X113000Y216000D01*
X108000Y211000D02*
X113000Y216000D01*
X158000Y25000D02*
Y30000D01*
X133000Y55000D02*
X158000Y30000D01*
X76000Y55000D02*
X133000D01*
X165000Y41000D02*
Y82000D01*
X71000Y45000D02*
Y50000D01*
X66000Y55000D02*
X71000Y50000D01*
X40000Y55000D02*
X66000D01*
X71000Y50000D02*
X76000Y55000D01*
X35000Y206000D02*
Y382000D01*
X20000Y111000D02*
X26000Y117000D01*
X50000Y93000D02*
X56000Y99000D01*
Y108000D01*
X26000Y117000D02*
Y197000D01*
X50000Y80000D02*
Y93000D01*
X26000Y117000D02*
X50000Y93000D01*
X20000Y75000D02*
Y111000D01*
Y75000D02*
X40000Y55000D01*
X362000Y27000D02*
Y51000D01*
X352000Y17000D02*
X362000Y27000D01*
X343000Y17000D02*
X352000D01*
X204000Y497653D02*
Y507000D01*
X198000Y491653D02*
X204000Y497653D01*
X198000Y491653D02*
X204000Y485653D01*
X35000Y382000D02*
X84000Y431000D01*
Y488000D01*
X26000Y197000D02*
X35000Y206000D01*
X179000Y485653D02*
X185000Y491653D01*
X198000D01*
X164000Y490654D02*
X169000Y485653D01*
X179000D01*
X175000Y501653D02*
X185000Y491653D01*
X97654Y501653D02*
X175000D01*
X84000Y488000D02*
X97654Y501653D01*
X102988Y463000D02*
X103000Y463012D01*
X185000Y449000D02*
X196299D01*
X204000Y456701D01*
X172299Y461701D02*
X185000Y449000D01*
X164000Y461701D02*
X172299D01*
X253000Y37000D02*
X273000Y17000D01*
X253000Y72000D02*
X280000Y99000D01*
X289000D01*
X273000Y17000D02*
X343000Y17000D01*
X253000Y37000D02*
Y47000D01*
X138000Y87000D02*
X160000D01*
X165000Y82000D01*
X160000Y87000D02*
X165000Y92000D01*
Y127000D01*
X233000Y92000D02*
Y127000D01*
X253000Y47000D02*
Y72000D01*
X233000Y92000D02*
X253000Y72000D01*
X133000Y92000D02*
Y127000D01*
Y92000D02*
X138000Y87000D01*
X284000Y129000D02*
X308922D01*
X314000Y89000D02*
Y124000D01*
X309000Y129000D02*
X314000Y124000D01*
X309000Y129000D02*
X314000Y134000D01*
Y148653D01*
X108000Y195000D02*
Y211000D01*
Y221000D02*
Y236000D01*
X118000Y206000D02*
Y216000D01*
X108000Y261000D02*
X113000Y266000D01*
X108000Y286000D02*
X113000Y291000D01*
X108000Y271000D02*
X113000Y266000D01*
X118000Y231000D02*
Y241000D01*
Y256000D02*
Y266000D01*
X113000Y291000D02*
X118000D01*
Y281000D02*
Y291000D01*
X113000Y266000D02*
X118000D01*
X108000Y271000D02*
Y286000D01*
D64*
X270000Y311000D02*
X275000D01*
X280000Y306000D01*
X303000D01*
X317000Y292000D01*
X370000D01*
X414000Y336000D01*
Y350000D01*
X306000Y316347D02*
X318347Y304000D01*
X323000D01*
X310347Y321000D02*
X318347Y313000D01*
X323000D01*
X313000Y326346D02*
X317347Y322000D01*
X323000D01*
X295000Y331000D02*
X323000D01*
X138000Y417000D02*
X235000D01*
X138000Y425000D02*
X217000D01*
X289653Y316347D02*
X306000D01*
X285000Y321000D02*
X289653Y316347D01*
X295000Y321000D02*
X310347D01*
X289653Y326346D02*
X313000D01*
X285000Y331000D02*
X289653Y326346D01*
X260000Y281000D02*
Y296000D01*
X250000Y301000D02*
X270000D01*
X250000Y311000D02*
X270000D01*
D65*
X495653Y82000D02*
D03*
Y132000D02*
D03*
X55598Y225929D02*
D03*
Y318929D02*
D03*
D66*
X474000Y82000D02*
D03*
X495653Y65465D02*
D03*
X474000D02*
D03*
Y115465D02*
D03*
X495653D02*
D03*
X474000Y132000D02*
D03*
X77252Y225929D02*
D03*
X55598Y242465D02*
D03*
X77252D02*
D03*
X55598Y259000D02*
D03*
X77252D02*
D03*
X55598Y275535D02*
D03*
X77252D02*
D03*
Y368535D02*
D03*
X55598D02*
D03*
X77252Y352000D02*
D03*
X55598D02*
D03*
X77252Y335465D02*
D03*
X55598D02*
D03*
X77252Y318929D02*
D03*
D67*
X389559Y51000D02*
D03*
X379716D02*
D03*
X371843D02*
D03*
D68*
X401646Y40331D02*
D03*
X349913D02*
D03*
D69*
X362000Y51000D02*
D03*
D70*
X113000Y475000D02*
D03*
Y467008D02*
D03*
Y459016D02*
D03*
Y443032D02*
D03*
Y435039D02*
D03*
Y427047D02*
D03*
X103000Y471004D02*
D03*
Y463012D02*
D03*
Y455020D02*
D03*
Y447028D02*
D03*
Y439035D02*
D03*
Y431043D02*
D03*
D71*
X43000Y476024D02*
D03*
Y426024D02*
D03*
D72*
X30480Y482776D02*
D03*
Y419272D02*
D03*
D73*
X270000Y446000D02*
D03*
X300000D02*
D03*
X327000Y463000D02*
D03*
Y493000D02*
D03*
X213000Y32000D02*
D03*
Y62000D02*
D03*
X383000Y132000D02*
D03*
X393000D02*
D03*
X363000Y114200D02*
D03*
X440000Y92000D02*
D03*
Y62000D02*
D03*
X323000Y313000D02*
D03*
X353000D02*
D03*
X323000Y304000D02*
D03*
X353000D02*
D03*
X323000Y331000D02*
D03*
X353000D02*
D03*
X323000Y322000D02*
D03*
X353000D02*
D03*
X308000Y493000D02*
D03*
Y463000D02*
D03*
X300000Y456000D02*
D03*
X270000D02*
D03*
X300000Y436000D02*
D03*
X270000D02*
D03*
X267000Y506000D02*
D03*
Y476000D02*
D03*
X203000Y32000D02*
D03*
Y62000D02*
D03*
X458000D02*
D03*
Y92000D02*
D03*
X383000Y121000D02*
D03*
X413000D02*
D03*
X449000Y62000D02*
D03*
Y92000D02*
D03*
X383000Y112000D02*
D03*
X413000D02*
D03*
X279000Y119000D02*
D03*
X289000D02*
D03*
X325000Y27000D02*
D03*
X305000D02*
D03*
X458000Y112000D02*
D03*
Y142000D02*
D03*
X343000Y114200D02*
D03*
X281000Y37000D02*
D03*
X311000D02*
D03*
X304000Y59000D02*
D03*
Y89000D02*
D03*
X440000Y142000D02*
D03*
Y112000D02*
D03*
X449000Y142000D02*
D03*
Y112000D02*
D03*
X101000Y101000D02*
D03*
Y131000D02*
D03*
X111000Y101000D02*
D03*
Y131000D02*
D03*
X138000Y364000D02*
D03*
X168000D02*
D03*
X138000Y344000D02*
D03*
X168000D02*
D03*
X138000Y324000D02*
D03*
X168000D02*
D03*
X138000Y304000D02*
D03*
X168000D02*
D03*
X223000Y343900D02*
D03*
X233000D02*
D03*
X270000Y261000D02*
D03*
X240000D02*
D03*
X270000Y251000D02*
D03*
X240000D02*
D03*
X270000Y241000D02*
D03*
X240000D02*
D03*
X270000Y231000D02*
D03*
X240000D02*
D03*
X363000Y69000D02*
D03*
Y99000D02*
D03*
X343000Y69000D02*
D03*
Y99000D02*
D03*
X91000Y97000D02*
D03*
Y67000D02*
D03*
X106000Y86800D02*
D03*
X168000Y374000D02*
D03*
X198000D02*
D03*
X168000Y354000D02*
D03*
X198000D02*
D03*
X168000Y334000D02*
D03*
X198000D02*
D03*
X168000Y314000D02*
D03*
X198000D02*
D03*
X188000Y364000D02*
D03*
X198000D02*
D03*
X188000Y344000D02*
D03*
X198000D02*
D03*
X188000Y324000D02*
D03*
X198000D02*
D03*
X188000Y304000D02*
D03*
X198000D02*
D03*
X218000Y311000D02*
D03*
X238000D02*
D03*
X118000Y231000D02*
D03*
X158000D02*
D03*
X118000Y216000D02*
D03*
X158000D02*
D03*
X118000Y206000D02*
D03*
X158000D02*
D03*
X118000Y256000D02*
D03*
X158000D02*
D03*
X118000Y241000D02*
D03*
X158000D02*
D03*
X118000Y266000D02*
D03*
X158000D02*
D03*
X118000Y281000D02*
D03*
X158000D02*
D03*
X118000Y291000D02*
D03*
X158000D02*
D03*
X233000Y300000D02*
D03*
X223000D02*
D03*
D74*
X63000Y176000D02*
D03*
X79000Y156000D02*
D03*
Y176000D02*
D03*
X63000Y156000D02*
D03*
X178000Y241000D02*
D03*
X168000Y231000D02*
D03*
X188000D02*
D03*
X204000Y527000D02*
D03*
X70000Y80000D02*
D03*
X106000Y160000D02*
D03*
X71000Y25000D02*
D03*
X233000Y47000D02*
D03*
X240000Y486000D02*
D03*
Y456000D02*
D03*
X423000Y72000D02*
D03*
Y102000D02*
D03*
X393000D02*
D03*
X403000D02*
D03*
X413000D02*
D03*
Y72000D02*
D03*
X403000D02*
D03*
X281000Y54000D02*
D03*
X230000Y281000D02*
D03*
X200000D02*
D03*
Y261000D02*
D03*
Y271000D02*
D03*
X230000D02*
D03*
Y261000D02*
D03*
X200000Y241000D02*
D03*
Y251000D02*
D03*
X230000D02*
D03*
Y241000D02*
D03*
Y221000D02*
D03*
Y231000D02*
D03*
X200000D02*
D03*
Y221000D02*
D03*
Y211000D02*
D03*
X188000Y206000D02*
D03*
X168000D02*
D03*
X178000Y216000D02*
D03*
X188000Y256000D02*
D03*
X168000D02*
D03*
X178000Y266000D02*
D03*
X188000Y281000D02*
D03*
X168000D02*
D03*
X178000Y291000D02*
D03*
D75*
X363000Y143000D02*
D03*
X485000Y27000D02*
D03*
X465000D02*
D03*
X505000D02*
D03*
X343000Y143000D02*
D03*
D76*
X56000Y108000D02*
D03*
X158000Y25000D02*
D03*
D77*
X63000Y124000D02*
D03*
X70000Y108000D02*
D03*
X77000Y124000D02*
D03*
X84000Y108000D02*
D03*
X186000Y25000D02*
D03*
X179000Y41000D02*
D03*
X172000Y25000D02*
D03*
X165000Y41000D02*
D03*
D78*
X204000Y485653D02*
D03*
X218476Y471177D02*
D03*
X204000Y456701D02*
D03*
X189524Y471177D02*
D03*
X149524Y476177D02*
D03*
X164000Y461701D02*
D03*
X178476Y476177D02*
D03*
X164000Y490654D02*
D03*
X158000Y314000D02*
D03*
X118000D02*
D03*
X158000Y334000D02*
D03*
X118000D02*
D03*
X158000Y374000D02*
D03*
X118000D02*
D03*
X158000Y354000D02*
D03*
X118000D02*
D03*
D79*
X204000Y507000D02*
D03*
X71000Y45000D02*
D03*
X393000Y72000D02*
D03*
D80*
X50000Y80000D02*
D03*
X126000Y160000D02*
D03*
X253000Y47000D02*
D03*
X289000Y54000D02*
D03*
X230000Y211000D02*
D03*
D81*
X128000Y526653D02*
D03*
X424000D02*
D03*
Y24654D02*
D03*
X128000D02*
D03*
D82*
X363000Y123900D02*
D03*
X343000D02*
D03*
X106000Y77100D02*
D03*
D83*
X257000Y486000D02*
D03*
Y446000D02*
D03*
X41000Y166000D02*
D03*
Y126000D02*
D03*
X314000Y49000D02*
D03*
Y89000D02*
D03*
X325000Y59000D02*
D03*
Y99000D02*
D03*
D84*
X503000Y212000D02*
D03*
Y302000D02*
D03*
Y392000D02*
D03*
Y482000D02*
D03*
D85*
X513000Y212000D02*
D03*
X503000Y202000D02*
D03*
X513000D02*
D03*
X503000Y192000D02*
D03*
X513000D02*
D03*
X503000Y182000D02*
D03*
X513000D02*
D03*
X503000Y172000D02*
D03*
X513000D02*
D03*
Y302000D02*
D03*
X503000Y292000D02*
D03*
X513000D02*
D03*
X503000Y282000D02*
D03*
X513000D02*
D03*
X503000Y272000D02*
D03*
X513000D02*
D03*
X503000Y262000D02*
D03*
X513000D02*
D03*
Y392000D02*
D03*
X503000Y382000D02*
D03*
X513000D02*
D03*
X503000Y372000D02*
D03*
X513000D02*
D03*
X503000Y362000D02*
D03*
X513000D02*
D03*
X503000Y352000D02*
D03*
X513000D02*
D03*
Y442000D02*
D03*
X503000D02*
D03*
X513000Y452000D02*
D03*
X503000D02*
D03*
X513000Y462000D02*
D03*
X503000D02*
D03*
X513000Y472000D02*
D03*
X503000D02*
D03*
X513000Y482000D02*
D03*
X264000Y148653D02*
D03*
X274000D02*
D03*
X284000D02*
D03*
X294000D02*
D03*
X304000D02*
D03*
D86*
X285000Y241000D02*
D03*
X295000Y221000D02*
D03*
X285000Y211000D02*
D03*
Y221000D02*
D03*
Y251000D02*
D03*
Y261000D02*
D03*
Y271000D02*
D03*
Y281000D02*
D03*
Y291000D02*
D03*
Y301000D02*
D03*
Y311000D02*
D03*
Y321000D02*
D03*
Y331000D02*
D03*
Y231000D02*
D03*
X295000Y241000D02*
D03*
Y251000D02*
D03*
Y261000D02*
D03*
Y271000D02*
D03*
Y281000D02*
D03*
Y291000D02*
D03*
Y301000D02*
D03*
Y311000D02*
D03*
Y321000D02*
D03*
Y331000D02*
D03*
Y231000D02*
D03*
X334000Y350000D02*
D03*
X434000D02*
D03*
X424000D02*
D03*
X414000D02*
D03*
X404000D02*
D03*
X394000D02*
D03*
X384000D02*
D03*
X374000D02*
D03*
X364000D02*
D03*
X354000D02*
D03*
X344000D02*
D03*
X334000Y360000D02*
D03*
X434000D02*
D03*
X424000D02*
D03*
X414000D02*
D03*
X404000D02*
D03*
X394000D02*
D03*
X384000D02*
D03*
X374000D02*
D03*
X364000D02*
D03*
X354000D02*
D03*
X324000D02*
D03*
X314000D02*
D03*
X324000Y350000D02*
D03*
X344000Y360000D02*
D03*
X453000Y311000D02*
D03*
Y211000D02*
D03*
Y221000D02*
D03*
Y231000D02*
D03*
Y241000D02*
D03*
Y251000D02*
D03*
Y261000D02*
D03*
Y271000D02*
D03*
Y281000D02*
D03*
Y291000D02*
D03*
Y301000D02*
D03*
X463000Y311000D02*
D03*
Y211000D02*
D03*
Y221000D02*
D03*
Y231000D02*
D03*
Y241000D02*
D03*
Y251000D02*
D03*
Y261000D02*
D03*
Y271000D02*
D03*
Y281000D02*
D03*
Y291000D02*
D03*
Y321000D02*
D03*
Y331000D02*
D03*
X453000Y321000D02*
D03*
X463000Y301000D02*
D03*
X404000Y182000D02*
D03*
X424000Y192000D02*
D03*
X434000Y182000D02*
D03*
X424000D02*
D03*
X394000D02*
D03*
X384000D02*
D03*
X374000D02*
D03*
X364000D02*
D03*
X354000D02*
D03*
X344000D02*
D03*
X334000D02*
D03*
X324000D02*
D03*
X314000D02*
D03*
X414000D02*
D03*
X404000Y192000D02*
D03*
X394000D02*
D03*
X384000D02*
D03*
X374000D02*
D03*
X364000D02*
D03*
X354000D02*
D03*
X344000D02*
D03*
X334000D02*
D03*
X324000D02*
D03*
X314000D02*
D03*
X414000D02*
D03*
D87*
X295000Y211000D02*
D03*
X453000Y331000D02*
D03*
D88*
X314000Y350000D02*
D03*
X434000Y192000D02*
D03*
D89*
X314000Y148653D02*
D03*
D90*
X98000Y202000D02*
D03*
X100000Y25000D02*
D03*
X284000Y129000D02*
D03*
X188000Y192000D02*
D03*
X108000Y195000D02*
D03*
D91*
X235000Y417000D02*
D03*
X138000Y425000D02*
D03*
Y417000D02*
D03*
X217000Y425000D02*
D03*
X250000Y301000D02*
D03*
Y311000D02*
D03*
X260000Y281000D02*
D03*
Y296000D02*
D03*
X270000Y301000D02*
D03*
M02*
