G04*
G04 #@! TF.GenerationSoftware,Altium Limited,Altium Designer,22.6.1 (34)*
G04*
G04 Layer_Color=16711935*
%FSLAX25Y25*%
%MOIN*%
G70*
G04*
G04 #@! TF.SameCoordinates,AF77A519-CAE8-4CE4-B455-2A79372E2E6D*
G04*
G04*
G04 #@! TF.FilePolarity,Positive*
G04*
G01*
G75*
%ADD12C,0.01000*%
D12*
X39370Y0D02*
X39358Y997D01*
X39320Y1994D01*
X39256Y2990D01*
X39168Y3983D01*
X39055Y4974D01*
X38916Y5962D01*
X38753Y6946D01*
X38564Y7925D01*
X38351Y8900D01*
X38113Y9868D01*
X37851Y10831D01*
X37565Y11786D01*
X37254Y12734D01*
X36919Y13673D01*
X36561Y14604D01*
X36179Y15526D01*
X35774Y16437D01*
X35347Y17338D01*
X34896Y18228D01*
X34423Y19106D01*
X33928Y19972D01*
X33411Y20825D01*
X32873Y21665D01*
X32313Y22491D01*
X31733Y23302D01*
X31133Y24099D01*
X30512Y24880D01*
X29872Y25645D01*
X29213Y26393D01*
X28535Y27125D01*
X27839Y27839D01*
X27125Y28535D01*
X26393Y29213D01*
X25645Y29872D01*
X24880Y30512D01*
X24099Y31133D01*
X23302Y31733D01*
X22491Y32313D01*
X21665Y32873D01*
X20825Y33411D01*
X19972Y33928D01*
X19106Y34423D01*
X18228Y34896D01*
X17338Y35347D01*
X16437Y35774D01*
X15526Y36180D01*
X14604Y36561D01*
X13673Y36919D01*
X12734Y37254D01*
X11786Y37565D01*
X10830Y37851D01*
X9868Y38113D01*
X8900Y38351D01*
X7925Y38564D01*
X6946Y38753D01*
X5962Y38916D01*
X4974Y39055D01*
X3983Y39168D01*
X2990Y39256D01*
X1994Y39320D01*
X997Y39358D01*
X0Y39370D01*
Y511811D02*
X997Y511824D01*
X1994Y511862D01*
X2990Y511925D01*
X3983Y512013D01*
X4974Y512126D01*
X5962Y512265D01*
X6946Y512429D01*
X7925Y512617D01*
X8900Y512830D01*
X9868Y513068D01*
X10830Y513330D01*
X11786Y513617D01*
X12734Y513927D01*
X13673Y514262D01*
X14604Y514620D01*
X15526Y515002D01*
X16437Y515407D01*
X17338Y515834D01*
X18228Y516285D01*
X19106Y516758D01*
X19972Y517253D01*
X20825Y517770D01*
X21665Y518308D01*
X22491Y518867D01*
X23302Y519448D01*
X24099Y520048D01*
X24879Y520669D01*
X25644Y521309D01*
X26393Y521968D01*
X27125Y522646D01*
X27839Y523342D01*
X28535Y524056D01*
X29213Y524788D01*
X29872Y525536D01*
X30512Y526301D01*
X31133Y527082D01*
X31733Y527879D01*
X32313Y528690D01*
X32873Y529516D01*
X33411Y530355D01*
X33928Y531209D01*
X34423Y532074D01*
X34896Y532952D01*
X35346Y533842D01*
X35774Y534743D01*
X36179Y535655D01*
X36561Y536576D01*
X36919Y537507D01*
X37254Y538447D01*
X37564Y539395D01*
X37851Y540350D01*
X38113Y541312D01*
X38351Y542281D01*
X38564Y543256D01*
X38752Y544235D01*
X38916Y545219D01*
X39055Y546207D01*
X39168Y547197D01*
X39256Y548191D01*
X39320Y549187D01*
X39357Y550183D01*
X39370Y551181D01*
X511811Y551181D02*
X511824Y550184D01*
X511862Y549187D01*
X511925Y548192D01*
X512013Y547198D01*
X512126Y546207D01*
X512265Y545219D01*
X512429Y544235D01*
X512617Y543256D01*
X512830Y542282D01*
X513068Y541313D01*
X513330Y540350D01*
X513617Y539395D01*
X513927Y538447D01*
X514262Y537508D01*
X514620Y536577D01*
X515002Y535655D01*
X515407Y534744D01*
X515835Y533843D01*
X516285Y532953D01*
X516758Y532075D01*
X517253Y531209D01*
X517770Y530356D01*
X518308Y529516D01*
X518868Y528690D01*
X519448Y527879D01*
X520048Y527082D01*
X520669Y526301D01*
X521309Y525536D01*
X521968Y524788D01*
X522646Y524056D01*
X523342Y523342D01*
X524056Y522646D01*
X524788Y521968D01*
X525536Y521309D01*
X526301Y520669D01*
X527082Y520048D01*
X527879Y519448D01*
X528690Y518868D01*
X529516Y518308D01*
X530356Y517770D01*
X531209Y517253D01*
X532075Y516758D01*
X532953Y516285D01*
X533843Y515834D01*
X534744Y515407D01*
X535655Y515002D01*
X536577Y514620D01*
X537508Y514262D01*
X538447Y513927D01*
X539395Y513617D01*
X540351Y513330D01*
X541313Y513068D01*
X542282Y512830D01*
X543256Y512617D01*
X544236Y512429D01*
X545219Y512265D01*
X546207Y512126D01*
X547198Y512013D01*
X548192Y511925D01*
X549187Y511862D01*
X550184Y511824D01*
X551181Y511811D01*
X551181Y39370D02*
X550184Y39358D01*
X549187Y39320D01*
X548192Y39256D01*
X547198Y39168D01*
X546207Y39055D01*
X545219Y38916D01*
X544235Y38753D01*
X543256Y38564D01*
X542282Y38351D01*
X541313Y38113D01*
X540350Y37851D01*
X539395Y37565D01*
X538447Y37254D01*
X537508Y36919D01*
X536577Y36561D01*
X535655Y36179D01*
X534744Y35774D01*
X533843Y35347D01*
X532953Y34896D01*
X532075Y34423D01*
X531209Y33928D01*
X530356Y33411D01*
X529516Y32873D01*
X528690Y32313D01*
X527879Y31733D01*
X527082Y31133D01*
X526301Y30512D01*
X525536Y29872D01*
X524788Y29213D01*
X524056Y28535D01*
X523342Y27839D01*
X522646Y27125D01*
X521968Y26393D01*
X521309Y25645D01*
X520669Y24880D01*
X520048Y24099D01*
X519448Y23302D01*
X518868Y22491D01*
X518308Y21665D01*
X517770Y20825D01*
X517253Y19972D01*
X516758Y19106D01*
X516285Y18228D01*
X515834Y17338D01*
X515407Y16437D01*
X515002Y15526D01*
X514620Y14604D01*
X514262Y13673D01*
X513927Y12734D01*
X513617Y11786D01*
X513330Y10830D01*
X513068Y9868D01*
X512830Y8900D01*
X512617Y7925D01*
X512429Y6946D01*
X512265Y5962D01*
X512126Y4974D01*
X512013Y3983D01*
X511925Y2989D01*
X511862Y1994D01*
X511824Y997D01*
X511811Y0D01*
X39370Y551181D02*
X511811D01*
X551181Y511811D02*
X551181Y39370D01*
X-0Y511811D02*
X-0Y39370D01*
X39370Y-0D02*
X511811D01*
M02*
