G04*
G04 #@! TF.GenerationSoftware,Altium Limited,Altium Designer,22.6.1 (34)*
G04*
G04 Layer_Color=16711935*
%FSLAX25Y25*%
%MOIN*%
G70*
G04*
G04 #@! TF.SameCoordinates,AF77A519-CAE8-4CE4-B455-2A79372E2E6D*
G04*
G04*
G04 #@! TF.FilePolarity,Negative*
G04*
G01*
G75*
%ADD26R,0.11627X0.11627*%
%ADD27C,0.11627*%
%ADD28C,0.06422*%
%ADD29C,0.13855*%
%ADD30R,0.06422X0.06422*%
%ADD31C,0.06312*%
%ADD32C,0.13202*%
%ADD33C,0.10642*%
%ADD34C,0.07000*%
%ADD35C,0.06800*%
%ADD36R,0.09855X0.09855*%
%ADD37R,0.08750X0.08750*%
%ADD38C,0.08750*%
%ADD39C,0.06706*%
%ADD40R,0.06800X0.06800*%
%ADD41R,0.06800X0.06800*%
%ADD42C,0.20485*%
%ADD43R,0.07000X0.07000*%
%ADD44C,0.07887*%
%ADD45C,0.07800*%
%ADD46R,0.07800X0.07800*%
%ADD47R,0.07690X0.07690*%
%ADD48C,0.07690*%
%ADD49C,0.05800*%
%ADD50R,0.05800X0.05800*%
%ADD51R,0.05800X0.05800*%
%ADD52R,0.07690X0.07690*%
%ADD53C,0.05721*%
%ADD54C,0.04800*%
G04:AMPARAMS|DCode=96|XSize=66.53mil|YSize=29.13mil|CornerRadius=5.71mil|HoleSize=0mil|Usage=FLASHONLY|Rotation=180.000|XOffset=0mil|YOffset=0mil|HoleType=Round|Shape=RoundedRectangle|*
%AMROUNDEDRECTD96*
21,1,0.06653,0.01772,0,0,180.0*
21,1,0.05512,0.02913,0,0,180.0*
1,1,0.01142,-0.02756,0.00886*
1,1,0.01142,0.02756,0.00886*
1,1,0.01142,0.02756,-0.00886*
1,1,0.01142,-0.02756,-0.00886*
%
%ADD96ROUNDEDRECTD96*%
%ADD97R,0.06694X0.02008*%
D26*
X495653Y82000D02*
D03*
Y132000D02*
D03*
X55598Y225929D02*
D03*
Y318929D02*
D03*
D27*
X474000Y82000D02*
D03*
X495653Y65465D02*
D03*
X474000D02*
D03*
Y115465D02*
D03*
X495653D02*
D03*
X474000Y132000D02*
D03*
X77252Y225929D02*
D03*
X55598Y242465D02*
D03*
X77252D02*
D03*
X55598Y259000D02*
D03*
X77252D02*
D03*
X55598Y275535D02*
D03*
X77252D02*
D03*
Y368535D02*
D03*
X55598D02*
D03*
X77252Y352000D02*
D03*
X55598D02*
D03*
X77252Y335465D02*
D03*
X55598D02*
D03*
X77252Y318929D02*
D03*
D28*
X389559Y51000D02*
D03*
X379716D02*
D03*
X371843D02*
D03*
D29*
X401646Y40331D02*
D03*
X349913D02*
D03*
D30*
X362000Y51000D02*
D03*
D31*
X113000Y475000D02*
D03*
Y467008D02*
D03*
Y459016D02*
D03*
Y443032D02*
D03*
Y435039D02*
D03*
Y427047D02*
D03*
X103000Y471004D02*
D03*
Y463012D02*
D03*
Y455020D02*
D03*
Y447028D02*
D03*
Y439035D02*
D03*
Y431043D02*
D03*
D32*
X43000Y476024D02*
D03*
Y426024D02*
D03*
D33*
X30480Y482776D02*
D03*
Y419272D02*
D03*
D34*
X270000Y446000D02*
D03*
X300000D02*
D03*
X327000Y463000D02*
D03*
Y493000D02*
D03*
X213000Y32000D02*
D03*
Y62000D02*
D03*
X383000Y132000D02*
D03*
X393000D02*
D03*
X363000Y114200D02*
D03*
X440000Y92000D02*
D03*
Y62000D02*
D03*
X323000Y313000D02*
D03*
X353000D02*
D03*
X323000Y304000D02*
D03*
X353000D02*
D03*
X323000Y331000D02*
D03*
X353000D02*
D03*
X323000Y322000D02*
D03*
X353000D02*
D03*
X308000Y493000D02*
D03*
Y463000D02*
D03*
X300000Y456000D02*
D03*
X270000D02*
D03*
X300000Y436000D02*
D03*
X270000D02*
D03*
X267000Y506000D02*
D03*
Y476000D02*
D03*
X203000Y32000D02*
D03*
Y62000D02*
D03*
X458000D02*
D03*
Y92000D02*
D03*
X383000Y121000D02*
D03*
X413000D02*
D03*
X449000Y62000D02*
D03*
Y92000D02*
D03*
X383000Y112000D02*
D03*
X413000D02*
D03*
X279000Y119000D02*
D03*
X289000D02*
D03*
X325000Y27000D02*
D03*
X305000D02*
D03*
X458000Y112000D02*
D03*
Y142000D02*
D03*
X343000Y114200D02*
D03*
X281000Y37000D02*
D03*
X311000D02*
D03*
X304000Y59000D02*
D03*
Y89000D02*
D03*
X440000Y142000D02*
D03*
Y112000D02*
D03*
X449000Y142000D02*
D03*
Y112000D02*
D03*
X101000Y101000D02*
D03*
Y131000D02*
D03*
X111000Y101000D02*
D03*
Y131000D02*
D03*
X138000Y364000D02*
D03*
X168000D02*
D03*
X138000Y344000D02*
D03*
X168000D02*
D03*
X138000Y324000D02*
D03*
X168000D02*
D03*
X138000Y304000D02*
D03*
X168000D02*
D03*
X223000Y343900D02*
D03*
X233000D02*
D03*
X270000Y261000D02*
D03*
X240000D02*
D03*
X270000Y251000D02*
D03*
X240000D02*
D03*
X270000Y241000D02*
D03*
X240000D02*
D03*
X270000Y231000D02*
D03*
X240000D02*
D03*
X363000Y69000D02*
D03*
Y99000D02*
D03*
X343000Y69000D02*
D03*
Y99000D02*
D03*
X91000Y97000D02*
D03*
Y67000D02*
D03*
X106000Y86800D02*
D03*
X168000Y374000D02*
D03*
X198000D02*
D03*
X168000Y354000D02*
D03*
X198000D02*
D03*
X168000Y334000D02*
D03*
X198000D02*
D03*
X168000Y314000D02*
D03*
X198000D02*
D03*
X188000Y364000D02*
D03*
X198000D02*
D03*
X188000Y344000D02*
D03*
X198000D02*
D03*
X188000Y324000D02*
D03*
X198000D02*
D03*
X188000Y304000D02*
D03*
X198000D02*
D03*
X218000Y311000D02*
D03*
X238000D02*
D03*
X118000Y231000D02*
D03*
X158000D02*
D03*
X118000Y216000D02*
D03*
X158000D02*
D03*
X118000Y206000D02*
D03*
X158000D02*
D03*
X118000Y256000D02*
D03*
X158000D02*
D03*
X118000Y241000D02*
D03*
X158000D02*
D03*
X118000Y266000D02*
D03*
X158000D02*
D03*
X118000Y281000D02*
D03*
X158000D02*
D03*
X118000Y291000D02*
D03*
X158000D02*
D03*
X233000Y300000D02*
D03*
X223000D02*
D03*
D35*
X63000Y176000D02*
D03*
X79000Y156000D02*
D03*
Y176000D02*
D03*
X63000Y156000D02*
D03*
X178000Y241000D02*
D03*
X168000Y231000D02*
D03*
X188000D02*
D03*
X204000Y527000D02*
D03*
X70000Y80000D02*
D03*
X106000Y160000D02*
D03*
X71000Y25000D02*
D03*
X233000Y47000D02*
D03*
X240000Y486000D02*
D03*
Y456000D02*
D03*
X423000Y72000D02*
D03*
Y102000D02*
D03*
X393000D02*
D03*
X403000D02*
D03*
X413000D02*
D03*
Y72000D02*
D03*
X403000D02*
D03*
X281000Y54000D02*
D03*
X230000Y281000D02*
D03*
X200000D02*
D03*
Y261000D02*
D03*
Y271000D02*
D03*
X230000D02*
D03*
Y261000D02*
D03*
X200000Y241000D02*
D03*
Y251000D02*
D03*
X230000D02*
D03*
Y241000D02*
D03*
Y221000D02*
D03*
Y231000D02*
D03*
X200000D02*
D03*
Y221000D02*
D03*
Y211000D02*
D03*
X188000Y206000D02*
D03*
X168000D02*
D03*
X178000Y216000D02*
D03*
X188000Y256000D02*
D03*
X168000D02*
D03*
X178000Y266000D02*
D03*
X188000Y281000D02*
D03*
X168000D02*
D03*
X178000Y291000D02*
D03*
D36*
X363000Y143000D02*
D03*
X485000Y27000D02*
D03*
X465000D02*
D03*
X505000D02*
D03*
X343000Y143000D02*
D03*
D37*
X56000Y108000D02*
D03*
X158000Y25000D02*
D03*
D38*
X63000Y124000D02*
D03*
X70000Y108000D02*
D03*
X77000Y124000D02*
D03*
X84000Y108000D02*
D03*
X186000Y25000D02*
D03*
X179000Y41000D02*
D03*
X172000Y25000D02*
D03*
X165000Y41000D02*
D03*
D39*
X204000Y485653D02*
D03*
X218476Y471177D02*
D03*
X204000Y456701D02*
D03*
X189524Y471177D02*
D03*
X149524Y476177D02*
D03*
X164000Y461701D02*
D03*
X178476Y476177D02*
D03*
X164000Y490654D02*
D03*
X158000Y314000D02*
D03*
X118000D02*
D03*
X158000Y334000D02*
D03*
X118000D02*
D03*
X158000Y374000D02*
D03*
X118000D02*
D03*
X158000Y354000D02*
D03*
X118000D02*
D03*
D40*
X204000Y507000D02*
D03*
X71000Y45000D02*
D03*
X393000Y72000D02*
D03*
D41*
X50000Y80000D02*
D03*
X126000Y160000D02*
D03*
X253000Y47000D02*
D03*
X289000Y54000D02*
D03*
X230000Y211000D02*
D03*
D42*
X128000Y526653D02*
D03*
X424000D02*
D03*
Y24654D02*
D03*
X128000D02*
D03*
D43*
X363000Y123900D02*
D03*
X343000D02*
D03*
X106000Y77100D02*
D03*
D44*
X257000Y486000D02*
D03*
Y446000D02*
D03*
X41000Y166000D02*
D03*
Y126000D02*
D03*
X314000Y49000D02*
D03*
Y89000D02*
D03*
X325000Y59000D02*
D03*
Y99000D02*
D03*
D45*
X133000Y127000D02*
D03*
Y64000D02*
D03*
D46*
X289000Y89000D02*
D03*
Y99000D02*
D03*
Y79000D02*
D03*
D47*
X503000Y212000D02*
D03*
Y302000D02*
D03*
Y392000D02*
D03*
Y482000D02*
D03*
D48*
X513000Y212000D02*
D03*
X503000Y202000D02*
D03*
X513000D02*
D03*
X503000Y192000D02*
D03*
X513000D02*
D03*
X503000Y182000D02*
D03*
X513000D02*
D03*
X503000Y172000D02*
D03*
X513000D02*
D03*
Y302000D02*
D03*
X503000Y292000D02*
D03*
X513000D02*
D03*
X503000Y282000D02*
D03*
X513000D02*
D03*
X503000Y272000D02*
D03*
X513000D02*
D03*
X503000Y262000D02*
D03*
X513000D02*
D03*
Y392000D02*
D03*
X503000Y382000D02*
D03*
X513000D02*
D03*
X503000Y372000D02*
D03*
X513000D02*
D03*
X503000Y362000D02*
D03*
X513000D02*
D03*
X503000Y352000D02*
D03*
X513000D02*
D03*
Y442000D02*
D03*
X503000D02*
D03*
X513000Y452000D02*
D03*
X503000D02*
D03*
X513000Y462000D02*
D03*
X503000D02*
D03*
X513000Y472000D02*
D03*
X503000D02*
D03*
X513000Y482000D02*
D03*
X264000Y148653D02*
D03*
X274000D02*
D03*
X284000D02*
D03*
X294000D02*
D03*
X304000D02*
D03*
D49*
X285000Y241000D02*
D03*
X295000Y221000D02*
D03*
X285000Y211000D02*
D03*
Y221000D02*
D03*
Y251000D02*
D03*
Y261000D02*
D03*
Y271000D02*
D03*
Y281000D02*
D03*
Y291000D02*
D03*
Y301000D02*
D03*
Y311000D02*
D03*
Y321000D02*
D03*
Y331000D02*
D03*
Y231000D02*
D03*
X295000Y241000D02*
D03*
Y251000D02*
D03*
Y261000D02*
D03*
Y271000D02*
D03*
Y281000D02*
D03*
Y291000D02*
D03*
Y301000D02*
D03*
Y311000D02*
D03*
Y321000D02*
D03*
Y331000D02*
D03*
Y231000D02*
D03*
X334000Y350000D02*
D03*
X434000D02*
D03*
X424000D02*
D03*
X414000D02*
D03*
X404000D02*
D03*
X394000D02*
D03*
X384000D02*
D03*
X374000D02*
D03*
X364000D02*
D03*
X354000D02*
D03*
X344000D02*
D03*
X334000Y360000D02*
D03*
X434000D02*
D03*
X424000D02*
D03*
X414000D02*
D03*
X404000D02*
D03*
X394000D02*
D03*
X384000D02*
D03*
X374000D02*
D03*
X364000D02*
D03*
X354000D02*
D03*
X324000D02*
D03*
X314000D02*
D03*
X324000Y350000D02*
D03*
X344000Y360000D02*
D03*
X453000Y311000D02*
D03*
Y211000D02*
D03*
Y221000D02*
D03*
Y231000D02*
D03*
Y241000D02*
D03*
Y251000D02*
D03*
Y261000D02*
D03*
Y271000D02*
D03*
Y281000D02*
D03*
Y291000D02*
D03*
Y301000D02*
D03*
X463000Y311000D02*
D03*
Y211000D02*
D03*
Y221000D02*
D03*
Y231000D02*
D03*
Y241000D02*
D03*
Y251000D02*
D03*
Y261000D02*
D03*
Y271000D02*
D03*
Y281000D02*
D03*
Y291000D02*
D03*
Y321000D02*
D03*
Y331000D02*
D03*
X453000Y321000D02*
D03*
X463000Y301000D02*
D03*
X404000Y182000D02*
D03*
X424000Y192000D02*
D03*
X434000Y182000D02*
D03*
X424000D02*
D03*
X394000D02*
D03*
X384000D02*
D03*
X374000D02*
D03*
X364000D02*
D03*
X354000D02*
D03*
X344000D02*
D03*
X334000D02*
D03*
X324000D02*
D03*
X314000D02*
D03*
X414000D02*
D03*
X404000Y192000D02*
D03*
X394000D02*
D03*
X384000D02*
D03*
X374000D02*
D03*
X364000D02*
D03*
X354000D02*
D03*
X344000D02*
D03*
X334000D02*
D03*
X324000D02*
D03*
X314000D02*
D03*
X414000D02*
D03*
D50*
X295000Y211000D02*
D03*
X453000Y331000D02*
D03*
D51*
X314000Y350000D02*
D03*
X434000Y192000D02*
D03*
D52*
X314000Y148653D02*
D03*
D53*
X98000Y202000D02*
D03*
X100000Y25000D02*
D03*
X284000Y129000D02*
D03*
X188000Y192000D02*
D03*
X108000Y195000D02*
D03*
D54*
X235000Y417000D02*
D03*
X138000Y425000D02*
D03*
Y417000D02*
D03*
X217000Y425000D02*
D03*
X250000Y301000D02*
D03*
Y311000D02*
D03*
X260000Y281000D02*
D03*
Y296000D02*
D03*
X270000Y301000D02*
D03*
D96*
X277000Y486000D02*
D03*
Y481000D02*
D03*
Y476000D02*
D03*
Y471000D02*
D03*
X298260D02*
D03*
Y476000D02*
D03*
Y481000D02*
D03*
Y486000D02*
D03*
D97*
X222740Y321500D02*
D03*
Y324000D02*
D03*
Y326500D02*
D03*
Y329000D02*
D03*
Y331500D02*
D03*
Y334000D02*
D03*
Y336500D02*
D03*
Y319000D02*
D03*
X244000Y321500D02*
D03*
Y324000D02*
D03*
Y326500D02*
D03*
Y329000D02*
D03*
Y331500D02*
D03*
Y334000D02*
D03*
Y336500D02*
D03*
Y319000D02*
D03*
M02*
