G04*
G04 #@! TF.GenerationSoftware,Altium Limited,Altium Designer,22.6.1 (34)*
G04*
G04 Layer_Physical_Order=2*
G04 Layer_Color=16711680*
%FSLAX25Y25*%
%MOIN*%
G70*
G04*
G04 #@! TF.SameCoordinates,AF77A519-CAE8-4CE4-B455-2A79372E2E6D*
G04*
G04*
G04 #@! TF.FilePolarity,Positive*
G04*
G01*
G75*
%ADD34C,0.07000*%
%ADD43R,0.07000X0.07000*%
%ADD61C,0.02000*%
%ADD62C,0.02362*%
%ADD63C,0.04724*%
%ADD64C,0.01378*%
%ADD65R,0.10827X0.10827*%
%ADD66C,0.10827*%
%ADD67C,0.05622*%
%ADD68C,0.13055*%
%ADD69R,0.05622X0.05622*%
%ADD70C,0.05512*%
%ADD71C,0.12402*%
%ADD72C,0.09843*%
%ADD73C,0.06200*%
%ADD74C,0.06000*%
%ADD75R,0.09055X0.09055*%
%ADD76R,0.07950X0.07950*%
%ADD77C,0.07950*%
%ADD78C,0.05906*%
%ADD79R,0.06000X0.06000*%
%ADD80R,0.06000X0.06000*%
%ADD81C,0.19685*%
%ADD82R,0.06200X0.06200*%
%ADD83C,0.07087*%
%ADD84R,0.06890X0.06890*%
%ADD85C,0.06890*%
%ADD86C,0.05000*%
%ADD87R,0.05000X0.05000*%
%ADD88R,0.05000X0.05000*%
%ADD89R,0.06890X0.06890*%
%ADD90C,0.04921*%
%ADD91C,0.04000*%
G04:AMPARAMS|DCode=92|XSize=61.02mil|YSize=23.62mil|CornerRadius=2.95mil|HoleSize=0mil|Usage=FLASHONLY|Rotation=180.000|XOffset=0mil|YOffset=0mil|HoleType=Round|Shape=RoundedRectangle|*
%AMROUNDEDRECTD92*
21,1,0.06102,0.01772,0,0,180.0*
21,1,0.05512,0.02362,0,0,180.0*
1,1,0.00591,-0.02756,0.00886*
1,1,0.00591,0.02756,0.00886*
1,1,0.00591,0.02756,-0.00886*
1,1,0.00591,-0.02756,-0.00886*
%
%ADD92ROUNDEDRECTD92*%
%ADD93R,0.06300X0.01614*%
%ADD94C,0.03937*%
%ADD95C,0.04000*%
G36*
X111000Y163000D02*
Y148000D01*
X98285Y135285D01*
X97888Y135056D01*
X96944Y134112D01*
X96715Y133715D01*
X96000Y133000D01*
Y131923D01*
X95932Y131667D01*
Y130333D01*
X96000Y130077D01*
Y116500D01*
X96000Y109000D01*
X96000Y109000D01*
Y106000D01*
X94000Y104000D01*
X91000D01*
X88285Y101285D01*
X87888Y101056D01*
X86944Y100112D01*
X86715Y99715D01*
X86000Y99000D01*
Y97923D01*
X85931Y97667D01*
Y96333D01*
X86000Y96077D01*
Y77000D01*
X84000Y75000D01*
X64000D01*
X62000Y77000D01*
Y86000D01*
X57000Y91000D01*
Y95000D01*
X62000Y100000D01*
Y113000D01*
X61944Y113057D01*
Y113944D01*
X61057D01*
X61000Y114000D01*
X43000D01*
X35000Y122000D01*
Y129000D01*
X37000Y131000D01*
X40174D01*
X40240Y130500D01*
X39246Y130234D01*
X38210Y129636D01*
X37365Y128790D01*
X36766Y127754D01*
X36457Y126598D01*
Y126500D01*
X41000D01*
X45543D01*
Y126598D01*
X45234Y127754D01*
X44635Y128790D01*
X43790Y129636D01*
X42754Y130234D01*
X41760Y130500D01*
X41826Y131000D01*
X48000D01*
X57675Y121325D01*
X57733Y121185D01*
X58383Y120211D01*
X59211Y119383D01*
X60185Y118733D01*
X60325Y118675D01*
X61000Y118000D01*
X79000D01*
X79675Y118675D01*
X79815Y118733D01*
X80789Y119383D01*
X81617Y120211D01*
X82267Y121185D01*
X82325Y121325D01*
X85000Y124000D01*
Y147000D01*
X103000Y165000D01*
X109000D01*
X111000Y163000D01*
D02*
G37*
G36*
X284000Y122000D02*
Y119923D01*
X283931Y119667D01*
Y118333D01*
X284000Y118077D01*
X284000Y111000D01*
X287000Y108000D01*
X281000Y102000D01*
Y58000D01*
X280473D01*
X279456Y57727D01*
X278544Y57201D01*
X277799Y56456D01*
X277273Y55544D01*
X277000Y54527D01*
Y54500D01*
X281000D01*
Y53500D01*
X277000D01*
Y53473D01*
X277273Y52456D01*
X277799Y51544D01*
X278544Y50799D01*
X279456Y50273D01*
X280473Y50000D01*
X281000D01*
Y47000D01*
X283000Y45000D01*
X294000D01*
X310000Y29000D01*
X310000D01*
Y24000D01*
X308000Y22000D01*
X273000D01*
X268000Y27000D01*
Y122000D01*
X270000Y124000D01*
X282000D01*
X284000Y122000D01*
D02*
G37*
G36*
X139000Y68000D02*
Y59000D01*
X159675Y38325D01*
X159733Y38185D01*
X160383Y37211D01*
X161211Y36383D01*
X162185Y35733D01*
X162325Y35675D01*
X163000Y35000D01*
X181000Y35000D01*
X181675Y35675D01*
X181815Y35733D01*
X182789Y36383D01*
X183617Y37211D01*
X184267Y38185D01*
X184325Y38325D01*
X198000Y52000D01*
X236000D01*
X238000Y50000D01*
Y44000D01*
X236000Y42000D01*
X215000D01*
X208000Y35000D01*
Y32923D01*
X207931Y32667D01*
Y31333D01*
X208000Y31077D01*
Y16000D01*
X213000Y11000D01*
Y7000D01*
X211000Y5000D01*
X205000D01*
X161000Y5000D01*
X73000D01*
X66000Y12000D01*
Y28000D01*
X68000Y30000D01*
X80000D01*
X98000Y12000D01*
X162000D01*
X164000Y14000D01*
Y30000D01*
X163944Y30057D01*
Y30944D01*
X163057D01*
X163000Y31000D01*
X150000D01*
X127000Y54000D01*
Y68000D01*
X129000Y70000D01*
X137000D01*
X139000Y68000D01*
D02*
G37*
%LPC*%
G36*
X106527Y164000D02*
X106500D01*
Y160500D01*
X110000D01*
Y160527D01*
X109727Y161544D01*
X109201Y162456D01*
X108456Y163201D01*
X107544Y163727D01*
X106527Y164000D01*
D02*
G37*
G36*
X105500D02*
X105473D01*
X104456Y163727D01*
X103544Y163201D01*
X102799Y162456D01*
X102273Y161544D01*
X102000Y160527D01*
Y160500D01*
X105500D01*
Y164000D01*
D02*
G37*
G36*
X110000Y159500D02*
X106500D01*
Y156000D01*
X106527D01*
X107544Y156273D01*
X108456Y156799D01*
X109201Y157544D01*
X109727Y158456D01*
X110000Y159473D01*
Y159500D01*
D02*
G37*
G36*
X105500D02*
X102000D01*
Y159473D01*
X102273Y158456D01*
X102799Y157544D01*
X103544Y156799D01*
X104456Y156273D01*
X105473Y156000D01*
X105500D01*
Y159500D01*
D02*
G37*
G36*
X45543Y125500D02*
X41500D01*
Y121457D01*
X41598D01*
X42754Y121766D01*
X43790Y122364D01*
X44635Y123210D01*
X45234Y124246D01*
X45543Y125402D01*
Y125500D01*
D02*
G37*
G36*
X40500D02*
X36457D01*
Y125402D01*
X36766Y124246D01*
X37365Y123210D01*
X38210Y122364D01*
X39246Y121766D01*
X40402Y121457D01*
X40500D01*
Y125500D01*
D02*
G37*
G36*
X84655Y112975D02*
X84500D01*
Y108500D01*
X88975D01*
Y108655D01*
X88636Y109920D01*
X87981Y111055D01*
X87055Y111981D01*
X85920Y112636D01*
X84655Y112975D01*
D02*
G37*
G36*
X83500D02*
X83345D01*
X82080Y112636D01*
X80945Y111981D01*
X80019Y111055D01*
X79364Y109920D01*
X79025Y108655D01*
Y108500D01*
X83500D01*
Y112975D01*
D02*
G37*
G36*
X70655D02*
X70500D01*
Y108500D01*
X74975D01*
Y108655D01*
X74636Y109920D01*
X73981Y111055D01*
X73055Y111981D01*
X71920Y112636D01*
X70655Y112975D01*
D02*
G37*
G36*
X69500D02*
X69345D01*
X68080Y112636D01*
X66945Y111981D01*
X66019Y111055D01*
X65364Y109920D01*
X65025Y108655D01*
Y108500D01*
X69500D01*
Y112975D01*
D02*
G37*
G36*
X88975Y107500D02*
X84500D01*
Y103025D01*
X84655D01*
X85920Y103364D01*
X87055Y104019D01*
X87981Y104945D01*
X88636Y106080D01*
X88975Y107345D01*
Y107500D01*
D02*
G37*
G36*
X83500D02*
X79025D01*
Y107345D01*
X79364Y106080D01*
X80019Y104945D01*
X80945Y104019D01*
X82080Y103364D01*
X83345Y103025D01*
X83500D01*
Y107500D01*
D02*
G37*
G36*
X74975D02*
X70500D01*
Y103025D01*
X70655D01*
X71920Y103364D01*
X73055Y104019D01*
X73981Y104945D01*
X74636Y106080D01*
X74975Y107345D01*
Y107500D01*
D02*
G37*
G36*
X69500D02*
X65025D01*
Y107345D01*
X65364Y106080D01*
X66019Y104945D01*
X66945Y104019D01*
X68080Y103364D01*
X69345Y103025D01*
X69500D01*
Y107500D01*
D02*
G37*
G36*
X70527Y84000D02*
X70500D01*
Y80500D01*
X74000D01*
Y80527D01*
X73727Y81544D01*
X73201Y82456D01*
X72456Y83201D01*
X71544Y83727D01*
X70527Y84000D01*
D02*
G37*
G36*
X69500D02*
X69473D01*
X68456Y83727D01*
X67544Y83201D01*
X66799Y82456D01*
X66273Y81544D01*
X66000Y80527D01*
Y80500D01*
X69500D01*
Y84000D01*
D02*
G37*
G36*
X74000Y79500D02*
X70500D01*
Y76000D01*
X70527D01*
X71544Y76273D01*
X72456Y76799D01*
X73201Y77544D01*
X73727Y78456D01*
X74000Y79473D01*
Y79500D01*
D02*
G37*
G36*
X69500D02*
X66000D01*
Y79473D01*
X66273Y78456D01*
X66799Y77544D01*
X67544Y76799D01*
X68456Y76273D01*
X69473Y76000D01*
X69500D01*
Y79500D01*
D02*
G37*
G36*
X279540Y123100D02*
X279500D01*
Y119500D01*
X283100D01*
Y119540D01*
X282821Y120582D01*
X282281Y121518D01*
X281518Y122281D01*
X280582Y122821D01*
X279540Y123100D01*
D02*
G37*
G36*
X278500D02*
X278460D01*
X277417Y122821D01*
X276483Y122281D01*
X275719Y121518D01*
X275179Y120582D01*
X274900Y119540D01*
Y119500D01*
X278500D01*
Y123100D01*
D02*
G37*
G36*
X283100Y118500D02*
X279500D01*
Y114900D01*
X279540D01*
X280582Y115179D01*
X281518Y115719D01*
X282281Y116482D01*
X282821Y117418D01*
X283100Y118460D01*
Y118500D01*
D02*
G37*
G36*
X278500D02*
X274900D01*
Y118460D01*
X275179Y117418D01*
X275719Y116482D01*
X276483Y115719D01*
X277417Y115179D01*
X278460Y114900D01*
X278500D01*
Y118500D01*
D02*
G37*
G36*
X281540Y41100D02*
X281500D01*
Y37500D01*
X285100D01*
Y37540D01*
X284821Y38583D01*
X284281Y39518D01*
X283518Y40281D01*
X282582Y40821D01*
X281540Y41100D01*
D02*
G37*
G36*
X280500D02*
X280460D01*
X279417Y40821D01*
X278483Y40281D01*
X277719Y39518D01*
X277179Y38583D01*
X276900Y37540D01*
Y37500D01*
X280500D01*
Y41100D01*
D02*
G37*
G36*
X285100Y36500D02*
X281500D01*
Y32900D01*
X281540D01*
X282582Y33179D01*
X283518Y33719D01*
X284281Y34482D01*
X284821Y35418D01*
X285100Y36460D01*
Y36500D01*
D02*
G37*
G36*
X280500D02*
X276900D01*
Y36460D01*
X277179Y35418D01*
X277719Y34482D01*
X278483Y33719D01*
X279417Y33179D01*
X280460Y32900D01*
X280500D01*
Y36500D01*
D02*
G37*
G36*
X305540Y31100D02*
X305500D01*
Y27500D01*
X309100D01*
Y27540D01*
X308821Y28583D01*
X308281Y29517D01*
X307518Y30281D01*
X306582Y30821D01*
X305540Y31100D01*
D02*
G37*
G36*
X304500D02*
X304460D01*
X303417Y30821D01*
X302483Y30281D01*
X301719Y29517D01*
X301179Y28583D01*
X300900Y27540D01*
Y27500D01*
X304500D01*
Y31100D01*
D02*
G37*
G36*
X305000Y27000D02*
D01*
D01*
D01*
D02*
G37*
G36*
X309100Y26500D02*
X305500D01*
Y22900D01*
X305540D01*
X306582Y23179D01*
X307518Y23719D01*
X308281Y24483D01*
X308821Y25418D01*
X309100Y26460D01*
Y26500D01*
D02*
G37*
G36*
X304500D02*
X300900D01*
Y26460D01*
X301179Y25418D01*
X301719Y24483D01*
X302483Y23719D01*
X303417Y23179D01*
X304460Y22900D01*
X304500D01*
Y26500D01*
D02*
G37*
G36*
X133592Y68500D02*
X133500D01*
Y64500D01*
X137500D01*
Y64592D01*
X137193Y65737D01*
X136601Y66763D01*
X135763Y67601D01*
X134737Y68193D01*
X133592Y68500D01*
D02*
G37*
G36*
X132500D02*
X132408D01*
X131263Y68193D01*
X130237Y67601D01*
X129399Y66763D01*
X128807Y65737D01*
X128500Y64592D01*
Y64500D01*
X132500D01*
Y68500D01*
D02*
G37*
G36*
X137500Y63500D02*
X133500D01*
Y59500D01*
X133592D01*
X134737Y59807D01*
X135763Y60399D01*
X136601Y61237D01*
X137193Y62263D01*
X137500Y63408D01*
Y63500D01*
D02*
G37*
G36*
X132500D02*
X128500D01*
Y63408D01*
X128807Y62263D01*
X129399Y61237D01*
X130237Y60399D01*
X131263Y59807D01*
X132408Y59500D01*
X132500D01*
Y63500D01*
D02*
G37*
G36*
X233527Y51000D02*
X233500D01*
Y47500D01*
X237000D01*
Y47527D01*
X236727Y48544D01*
X236201Y49456D01*
X235456Y50201D01*
X234544Y50727D01*
X233527Y51000D01*
D02*
G37*
G36*
X232500D02*
X232473D01*
X231456Y50727D01*
X230544Y50201D01*
X229799Y49456D01*
X229273Y48544D01*
X229000Y47527D01*
Y47500D01*
X232500D01*
Y51000D01*
D02*
G37*
G36*
X237000Y46500D02*
X233500D01*
Y43000D01*
X233527D01*
X234544Y43273D01*
X235456Y43799D01*
X236201Y44544D01*
X236727Y45456D01*
X237000Y46473D01*
Y46500D01*
D02*
G37*
G36*
X232500D02*
X229000D01*
Y46473D01*
X229273Y45456D01*
X229799Y44544D01*
X230544Y43799D01*
X231456Y43273D01*
X232473Y43000D01*
X232500D01*
Y46500D01*
D02*
G37*
G36*
X203540Y36100D02*
X203500D01*
Y32500D01*
X207100D01*
Y32540D01*
X206821Y33582D01*
X206281Y34517D01*
X205518Y35281D01*
X204583Y35821D01*
X203540Y36100D01*
D02*
G37*
G36*
X202500D02*
X202460D01*
X201417Y35821D01*
X200483Y35281D01*
X199719Y34517D01*
X199179Y33582D01*
X198900Y32540D01*
Y32500D01*
X202500D01*
Y36100D01*
D02*
G37*
G36*
X207100Y31500D02*
X203500D01*
Y27900D01*
X203540D01*
X204583Y28179D01*
X205518Y28719D01*
X206281Y29482D01*
X206821Y30417D01*
X207100Y31460D01*
Y31500D01*
D02*
G37*
G36*
X202500D02*
X198900D01*
Y31460D01*
X199179Y30417D01*
X199719Y29482D01*
X200483Y28719D01*
X201417Y28179D01*
X202460Y27900D01*
X202500D01*
Y31500D01*
D02*
G37*
G36*
X71527Y29000D02*
X71500D01*
Y25500D01*
X75000D01*
Y25527D01*
X74727Y26544D01*
X74201Y27456D01*
X73456Y28201D01*
X72544Y28727D01*
X71527Y29000D01*
D02*
G37*
G36*
X70500D02*
X70473D01*
X69456Y28727D01*
X68544Y28201D01*
X67799Y27456D01*
X67273Y26544D01*
X67000Y25527D01*
Y25500D01*
X70500D01*
Y29000D01*
D02*
G37*
G36*
X186655Y29975D02*
X186500D01*
Y25500D01*
X190975D01*
Y25655D01*
X190636Y26920D01*
X189981Y28055D01*
X189055Y28981D01*
X187920Y29636D01*
X186655Y29975D01*
D02*
G37*
G36*
X185500D02*
X185345D01*
X184080Y29636D01*
X182945Y28981D01*
X182019Y28055D01*
X181364Y26920D01*
X181025Y25655D01*
Y25500D01*
X185500D01*
Y29975D01*
D02*
G37*
G36*
X172655D02*
X172500D01*
Y25500D01*
X176975D01*
Y25655D01*
X176636Y26920D01*
X175981Y28055D01*
X175055Y28981D01*
X173920Y29636D01*
X172655Y29975D01*
D02*
G37*
G36*
X171500D02*
X171345D01*
X170080Y29636D01*
X168945Y28981D01*
X168019Y28055D01*
X167364Y26920D01*
X167025Y25655D01*
Y25500D01*
X171500D01*
Y29975D01*
D02*
G37*
G36*
X75000Y24500D02*
X71500D01*
Y21000D01*
X71527D01*
X72544Y21273D01*
X73456Y21799D01*
X74201Y22544D01*
X74727Y23456D01*
X75000Y24473D01*
Y24500D01*
D02*
G37*
G36*
X70500D02*
X67000D01*
Y24473D01*
X67273Y23456D01*
X67799Y22544D01*
X68544Y21799D01*
X69456Y21273D01*
X70473Y21000D01*
X70500D01*
Y24500D01*
D02*
G37*
G36*
X190975Y24500D02*
X186500D01*
Y20025D01*
X186655D01*
X187920Y20364D01*
X189055Y21019D01*
X189981Y21945D01*
X190636Y23080D01*
X190975Y24345D01*
Y24500D01*
D02*
G37*
G36*
X185500D02*
X181025D01*
Y24345D01*
X181364Y23080D01*
X182019Y21945D01*
X182945Y21019D01*
X184080Y20364D01*
X185345Y20025D01*
X185500D01*
Y24500D01*
D02*
G37*
G36*
X176975D02*
X172500D01*
Y20025D01*
X172655D01*
X173920Y20364D01*
X175055Y21019D01*
X175981Y21945D01*
X176636Y23080D01*
X176975Y24345D01*
Y24500D01*
D02*
G37*
G36*
X171500D02*
X167025D01*
Y24345D01*
X167364Y23080D01*
X168019Y21945D01*
X168945Y21019D01*
X170080Y20364D01*
X171345Y20025D01*
X171500D01*
Y24500D01*
D02*
G37*
%LPD*%
D34*
X133000Y127000D02*
D03*
Y64000D02*
D03*
D43*
X289000Y89000D02*
D03*
Y99000D02*
D03*
Y79000D02*
D03*
D61*
X270000Y456000D02*
X280000D01*
X290000Y446000D02*
X300000D01*
X280000Y456000D02*
X290000Y446000D01*
X270000Y436000D02*
Y446000D01*
X305000Y436000D02*
X320000Y451000D01*
X300000Y436000D02*
X305000D01*
X240000Y456000D02*
X252551D01*
X204000Y527000D02*
X265000D01*
X290000Y502000D01*
Y476000D02*
Y502000D01*
X285000Y471000D02*
X290000Y476000D01*
X277000Y471000D02*
X285000D01*
X286000Y464000D02*
X293000Y471000D01*
X260551Y464000D02*
X286000D01*
X293000Y471000D02*
X298260D01*
X257000Y486000D02*
X263000D01*
X267000Y490000D01*
Y506000D01*
Y490000D02*
X271000Y486000D01*
X277000D01*
X257000Y446000D02*
Y451551D01*
X267000Y476000D02*
X277000D01*
X252551Y456000D02*
X260551Y464000D01*
X252551Y456000D02*
X257000Y451551D01*
Y446000D02*
X270000D01*
X300000Y456000D02*
X311000D01*
X306449Y476000D02*
X308000Y474449D01*
X310000Y481000D02*
X315000Y476000D01*
Y460000D02*
Y476000D01*
X311000Y456000D02*
X315000Y460000D01*
X320000Y451000D02*
Y476000D01*
X298260D02*
X306449D01*
X308000Y463000D02*
Y474449D01*
X310000Y486000D02*
X320000Y476000D01*
X298260Y486000D02*
X310000D01*
X298260Y481000D02*
X310000D01*
X230000Y241000D02*
X240000D01*
X230000Y251000D02*
X240000D01*
D62*
X186000Y17000D02*
X194000Y9000D01*
X186000Y17000D02*
Y25000D01*
X199000Y32000D02*
X203000D01*
X186000Y25000D02*
X192000D01*
X199000Y32000D01*
X101000Y101000D02*
Y105500D01*
X84000Y108000D02*
X98500D01*
X101000Y105500D01*
X84000Y102488D02*
Y108000D01*
X69756Y88244D02*
X84000Y102488D01*
X195000Y206000D02*
X200000Y211000D01*
X195000Y216000D02*
X200000Y221000D01*
X158000Y241000D02*
X178000D01*
X158000Y231000D02*
X168000D01*
X191000Y241000D02*
X200000D01*
X188000Y238000D02*
X191000Y241000D01*
X188000Y231000D02*
Y238000D01*
X178000Y226000D02*
Y241000D01*
Y226000D02*
X181000Y223000D01*
X192000D01*
X200000Y231000D01*
X107000Y229000D02*
X112000Y224000D01*
X200000Y241000D02*
X205000D01*
X183000Y364000D02*
X188000D01*
X178000Y369000D02*
X183000Y364000D01*
X66000Y214000D02*
X78000Y202000D01*
X77252Y225929D02*
X88071D01*
X77252Y242465D02*
X102535D01*
X77252Y259000D02*
X103000D01*
X77252Y275535D02*
Y286252D01*
X55598Y225929D02*
X55669Y226000D01*
X63000D02*
X66000Y229000D01*
X55669Y226000D02*
X63000D01*
X66000Y223000D01*
Y214000D02*
Y223000D01*
X63000Y242000D02*
X66000Y245000D01*
X63000Y259000D02*
X66000Y262000D01*
X55598Y259000D02*
X63000D01*
X56063Y242000D02*
X63000D01*
Y259000D02*
X66000Y256000D01*
Y245000D02*
Y256000D01*
X55598Y242465D02*
X56063Y242000D01*
X63000D02*
X66000Y239000D01*
Y229000D02*
Y239000D01*
X55598Y275535D02*
X56063Y276000D01*
X63000D02*
X66000Y273000D01*
X56063Y276000D02*
X63000D01*
X66000Y262000D02*
Y273000D01*
X78000Y202000D02*
X98000D01*
X70000Y80000D02*
X83000D01*
X378000Y143000D02*
X383000Y138000D01*
X363000Y143000D02*
X378000D01*
X383000Y132000D02*
Y138000D01*
X343000Y123900D02*
Y143000D01*
Y123900D02*
X363000D01*
X485000Y15000D02*
Y27000D01*
X406118Y10000D02*
X480000D01*
X485000Y15000D01*
X100000Y51000D02*
X120000Y71000D01*
Y129000D01*
X100000Y25000D02*
Y51000D01*
X91000Y60000D02*
Y67000D01*
Y60000D02*
X100000Y51000D01*
X389559Y26559D02*
X406118Y10000D01*
X343000Y99000D02*
Y114200D01*
X363000Y99000D02*
Y114200D01*
X318000Y137000D02*
X331000Y124000D01*
X342908D01*
X308000Y137000D02*
X318000D01*
X333000Y152000D02*
X398000D01*
X318000Y137000D02*
X333000Y152000D01*
X85900Y77100D02*
X106000D01*
X83000Y80000D02*
X85900Y77100D01*
X343000Y79000D02*
X353000Y89000D01*
X343000Y69000D02*
Y79000D01*
X91000Y92000D02*
Y97000D01*
Y92000D02*
X96200Y86800D01*
X106000D01*
X423000Y47000D02*
X498000D01*
X403000Y67000D02*
X423000Y47000D01*
Y47000D02*
Y47000D01*
X428000Y52000D02*
X436000D01*
X413000Y67000D02*
X428000Y52000D01*
X393000Y132000D02*
X400000D01*
X405000Y137000D01*
Y145000D01*
X414000Y133000D02*
X423000Y124000D01*
X405000Y137000D02*
X409000Y133000D01*
X414000D01*
X427000Y92000D02*
X440000D01*
X423000Y88000D02*
X427000Y92000D01*
X403000Y67000D02*
Y72000D01*
X413000Y67000D02*
Y72000D01*
X398000Y152000D02*
X405000Y145000D01*
X423000Y102000D02*
Y124000D01*
X449000Y92000D02*
X458000D01*
X436000Y52000D02*
X440000Y56000D01*
X444000Y52000D01*
X440000Y56000D02*
Y62000D01*
X120000Y129000D02*
X128000Y137000D01*
X126000Y152000D02*
X128000Y150000D01*
Y137000D02*
Y150000D01*
X126000Y152000D02*
Y160000D01*
X111000Y137000D02*
X126000Y152000D01*
X111000Y131000D02*
Y137000D01*
X117000Y197000D02*
X139000D01*
X88071Y225929D02*
X117000Y197000D01*
X77252Y286252D02*
X88000Y297000D01*
X55669Y319000D02*
X63000D01*
X55598Y318929D02*
X55669Y319000D01*
X67000Y323000D02*
Y331000D01*
X63000Y319000D02*
X67000Y323000D01*
X63000Y335000D02*
X67000Y331000D01*
X55598Y335465D02*
X56063Y335000D01*
X63000D01*
X67000Y339000D01*
Y348000D01*
X63000Y352000D02*
X67000Y348000D01*
X55598Y352000D02*
X63000D01*
X67000Y356000D01*
X63000Y369000D02*
X67000Y365000D01*
Y356000D02*
Y365000D01*
X55598Y368535D02*
X56063Y369000D01*
X63000D01*
X67000Y373000D01*
Y377000D01*
X72000Y382000D01*
X498000Y47000D02*
X508000Y57000D01*
Y97000D01*
X503000Y102000D02*
X508000Y97000D01*
X495653Y57000D02*
Y65465D01*
X490654Y52000D02*
X495653Y57000D01*
X444000Y52000D02*
X490654D01*
X458000Y62000D02*
X463000D01*
X466427Y65427D01*
X458000Y107000D02*
X463000Y102000D01*
X503000D01*
X458000Y107000D02*
Y112000D01*
X463000Y132000D02*
X474000D01*
X458000Y137000D02*
X463000Y132000D01*
X458000Y137000D02*
Y142000D01*
X398000Y121000D02*
X413000D01*
Y102000D02*
Y112000D01*
X440000Y131000D02*
X449000Y122000D01*
X440000Y131000D02*
Y142000D01*
X449000Y112000D02*
Y122000D01*
X466427Y65427D02*
X473962D01*
X474000Y65465D01*
X393000Y116000D02*
X398000Y121000D01*
X393000Y102000D02*
Y116000D01*
X423000Y72000D02*
Y88000D01*
Y96000D02*
Y102000D01*
X419000Y92000D02*
X423000Y88000D01*
X403000Y96000D02*
Y102000D01*
X419000Y92000D02*
X423000Y96000D01*
X407000Y92000D02*
X419000D01*
X403000Y96000D02*
X407000Y92000D01*
X503000Y102000D02*
X508000Y107000D01*
X503000Y132000D02*
X508000Y127000D01*
Y107000D02*
Y127000D01*
X495653Y132000D02*
X503000D01*
X303000Y132000D02*
X308000Y137000D01*
X449000Y142000D02*
X458000D01*
X208000Y197000D02*
Y208000D01*
X205000Y211000D02*
X208000Y208000D01*
X203000Y192000D02*
X208000Y197000D01*
X188000Y192000D02*
X203000D01*
X311000Y38305D02*
X314000Y41305D01*
Y49000D01*
X299000D02*
X314000D01*
X294000Y54000D02*
X299000Y49000D01*
X294000Y54000D02*
X298833Y58833D01*
X303833D02*
X304000Y59000D01*
X298833Y58833D02*
X303833D01*
X289000Y54000D02*
X294000D01*
X289000D02*
Y79000D01*
X379000Y382000D02*
X503000D01*
X488000Y192000D02*
X503000D01*
X493000Y202000D02*
X503000D01*
X513000Y212000D02*
Y231347D01*
X473347Y271000D02*
X513000Y231347D01*
X474653Y282000D02*
X503000D01*
X492346Y292000D02*
X503000D01*
X513000Y302000D02*
Y312000D01*
X504000Y321000D02*
X513000Y312000D01*
X463000Y321000D02*
X504000D01*
X493000Y342000D02*
X518000D01*
X493000Y372000D02*
X503000D01*
X473000Y387000D02*
X523000Y437000D01*
X493000Y462000D02*
X503000D01*
X493000Y472000D02*
X503000D01*
X518000Y342000D02*
X523000Y347000D01*
Y387000D01*
X518000Y392000D02*
X523000Y387000D01*
X513000Y392000D02*
X518000D01*
X523000Y437000D02*
Y477000D01*
X518000Y482000D02*
X523000Y477000D01*
X513000Y482000D02*
X518000D01*
X101000Y120000D02*
Y131000D01*
Y120000D02*
X111000Y110000D01*
Y101000D02*
Y110000D01*
X108000Y314000D02*
X118000D01*
X103071Y318929D02*
X108000Y314000D01*
X77252Y318929D02*
X103071D01*
X109000Y374000D02*
X118000D01*
X103535Y368535D02*
X109000Y374000D01*
X77252Y368535D02*
X103535D01*
X107000Y354000D02*
X118000D01*
X105000Y352000D02*
X107000Y354000D01*
X77252Y352000D02*
X105000D01*
X107000Y334000D02*
X118000D01*
X77252Y335465D02*
X105535D01*
X107000Y334000D01*
Y270000D02*
X110000Y273000D01*
X103000Y259000D02*
X107000Y263000D01*
Y270000D01*
X148000Y206000D02*
X158000D01*
X139000Y197000D02*
X148000Y206000D01*
X158000D02*
X168000D01*
X148000Y231000D02*
X158000D01*
X112000Y224000D02*
X141000D01*
X148000Y231000D01*
X132000Y297000D02*
X148000Y281000D01*
X88000Y297000D02*
X132000D01*
X148000Y281000D02*
X158000D01*
X168000D01*
X131000Y273000D02*
X148000Y256000D01*
X110000Y273000D02*
X131000D01*
X107000Y229000D02*
Y238000D01*
X102535Y242465D02*
X107000Y238000D01*
X175000Y382000D02*
X178000Y379000D01*
X72000Y382000D02*
X175000D01*
X168000Y364000D02*
X173000D01*
X168000Y344000D02*
X173000D01*
X168000Y324000D02*
X173000D01*
X168000Y304000D02*
X173000D01*
X222000Y284435D02*
X233282Y295718D01*
X222000Y273084D02*
Y284435D01*
Y273084D02*
X225000Y270084D01*
X188000Y281000D02*
X200000D01*
X183000Y271000D02*
X200000D01*
X188000Y206000D02*
X195000D01*
X178000Y216000D02*
X195000D01*
X200000Y211000D02*
X205000D01*
X208000Y214000D01*
Y238000D01*
X205000Y241000D02*
X208000Y238000D01*
X205000Y241000D02*
X208000Y244000D01*
X205000Y251000D02*
X208000Y248000D01*
Y244000D02*
Y248000D01*
X200000Y251000D02*
X205000D01*
X208000Y254000D02*
Y277084D01*
X205000Y251000D02*
X208000Y254000D01*
X195000Y256000D02*
X200000Y251000D01*
X195000Y266000D02*
X200000Y261000D01*
Y281000D02*
X204084D01*
X208000Y277084D01*
X222266Y300734D02*
Y303734D01*
Y300734D02*
X223000Y300000D01*
X218000Y311000D02*
X218734Y310266D01*
Y307266D02*
Y310266D01*
Y307266D02*
X222266Y303734D01*
X222870Y343770D02*
X223000Y343900D01*
X361653Y397000D02*
X463000D01*
X334000Y369346D02*
X361653Y397000D01*
X366653Y392000D02*
X468000D01*
X488000Y412000D01*
Y457000D01*
X344000Y369346D02*
X366653Y392000D01*
X371654Y387000D02*
X473000D01*
X354000Y369346D02*
X371654Y387000D01*
X364000Y360000D02*
Y367000D01*
X379000Y382000D01*
X374000Y367000D02*
X384000Y377000D01*
X374000Y360000D02*
Y367000D01*
X384000Y377000D02*
X488000D01*
X493000Y372000D01*
X389000D02*
X463000D01*
X384000Y367000D02*
X389000Y372000D01*
X384000Y360000D02*
Y367000D01*
X463000Y372000D02*
X493000Y342000D01*
X473347Y311000D02*
X492346Y292000D01*
X235916Y280084D02*
X240000Y276000D01*
X225000Y260084D02*
X226797D01*
X227018Y260304D01*
X229304D01*
X230000Y261000D01*
X225000Y230084D02*
X226797D01*
X227018Y230304D01*
X229304D01*
X226797Y220243D02*
X226858Y220304D01*
X229304D02*
X230000Y221000D01*
X230757Y210243D02*
X235159D01*
X233203Y280084D02*
X235916D01*
X230696Y280304D02*
X232982D01*
X222000Y267084D02*
X225000Y270084D01*
X232982Y280304D02*
X233203Y280084D01*
X225000Y270084D02*
X226797D01*
X222000Y263084D02*
Y267084D01*
X227018Y270304D02*
X229304D01*
X222000Y263084D02*
X225000Y260084D01*
X222000Y223084D02*
X224840Y220243D01*
X240000Y215084D02*
Y231653D01*
X226797Y270084D02*
X227018Y270304D01*
X230000Y211000D02*
X230757Y210243D01*
X224840Y220243D02*
X226797D01*
X222000Y233084D02*
Y257084D01*
X230000Y281000D02*
X230696Y280304D01*
X222000Y233084D02*
X225000Y230084D01*
X229304Y270304D02*
X230000Y271000D01*
X222000Y223084D02*
Y227084D01*
X229304Y230304D02*
X230000Y231000D01*
X222000Y257084D02*
X225000Y260084D01*
X222000Y227084D02*
X225000Y230084D01*
X235159Y210243D02*
X240000Y215084D01*
X226858Y220304D02*
X229304D01*
X483000Y462000D02*
X493000Y472000D01*
X483000Y417000D02*
Y462000D01*
X463000Y397000D02*
X483000Y417000D01*
X488000Y457000D02*
X493000Y462000D01*
X334000Y360000D02*
Y369346D01*
X344000Y360000D02*
Y369346D01*
X354000Y360000D02*
Y369346D01*
X463000Y271000D02*
X473347D01*
X463000Y311000D02*
X473347D01*
X463000Y281000D02*
X473654D01*
X474653Y282000D01*
X473347Y261000D02*
X488000Y246346D01*
Y207000D02*
Y246346D01*
Y207000D02*
X493000Y202000D01*
X463000Y261000D02*
X473347D01*
X463000Y251000D02*
X473347D01*
X483000Y197000D02*
Y241347D01*
X473347Y251000D02*
X483000Y241347D01*
Y197000D02*
X488000Y192000D01*
X173000Y364000D02*
X178000Y369000D01*
X173000Y344000D02*
X178000Y349000D01*
X173000Y324000D02*
X178000Y329000D01*
X173000Y304000D02*
X178000Y309000D01*
X183000Y304000D02*
X188000D01*
X178000Y309000D02*
X183000Y304000D01*
X178000Y309000D02*
Y319000D01*
X183000Y324000D01*
X188000D01*
X178000Y329000D02*
X183000Y324000D01*
X178000Y329000D02*
Y339000D01*
X183000Y344000D01*
X188000D01*
X178000Y349000D02*
X183000Y344000D01*
X178000Y359000D02*
X183000Y364000D01*
X178000Y349000D02*
Y359000D01*
Y369000D02*
Y379000D01*
X158000Y216000D02*
X178000D01*
X270000Y231000D02*
X285000D01*
X270000Y241000D02*
X285000D01*
X270000Y251000D02*
X285000D01*
X270000Y261000D02*
X285000D01*
X240000D02*
Y276000D01*
X188000Y256000D02*
X195000D01*
X158000D02*
X168000D01*
X148000D02*
X158000D01*
Y266000D02*
X178000D01*
X158000Y291000D02*
X178000D01*
Y266000D02*
X195000D01*
X178000Y276000D02*
X183000Y271000D01*
X178000Y276000D02*
Y291000D01*
D63*
X76000Y15000D02*
X90000D01*
X96000Y9000D02*
X163000D01*
X90000Y15000D02*
X96000Y9000D01*
X194000D02*
X250000D01*
X181000D02*
X194000D01*
X172000Y18000D02*
X181000Y9000D01*
X250000D02*
X263000Y22000D01*
X163000Y9000D02*
X172000Y18000D01*
X71000Y20000D02*
X76000Y15000D01*
X172000Y18000D02*
Y25000D01*
X71000Y20000D02*
Y25000D01*
X31000Y44000D02*
Y87000D01*
Y44000D02*
X60000Y15000D01*
X66000D01*
X71000Y20000D01*
X20000Y115000D02*
Y374000D01*
X62756Y146739D02*
Y155756D01*
X63000Y156000D01*
X58017Y142000D02*
X62756Y146739D01*
X41000Y150000D02*
Y166000D01*
Y150000D02*
X49000Y142000D01*
X58017D01*
X31000Y99000D02*
Y104000D01*
X20000Y115000D02*
X31000Y104000D01*
Y99000D02*
X37000Y93000D01*
X69756Y80244D02*
X70000Y80000D01*
X37000Y93000D02*
X65000D01*
X31000Y87000D02*
X37000Y93000D01*
X263000Y32000D02*
X271000Y40000D01*
X78000Y492000D02*
X96000Y510000D01*
X163000D02*
X180000Y527000D01*
X96000Y510000D02*
X163000D01*
X180000Y527000D02*
X204000D01*
X353000Y89000D02*
X375000D01*
X331000D02*
X353000D01*
X383000Y97000D02*
Y112000D01*
X375000Y89000D02*
X383000Y97000D01*
Y112000D02*
Y121000D01*
X20000Y374000D02*
X78000Y432000D01*
Y492000D01*
X189524Y471177D02*
Y485130D01*
X173000Y501653D02*
X189524Y485130D01*
X113654Y501653D02*
X173000D01*
X93039Y481039D02*
X113654Y501653D01*
X93039Y466961D02*
Y481039D01*
X97000Y463000D02*
X102988D01*
X93039Y466961D02*
X97000Y463000D01*
X113000Y467008D02*
X154354D01*
X113000Y459016D02*
X143638D01*
X103000Y471004D02*
Y480000D01*
X314000Y151000D02*
Y182000D01*
X263000Y22000D02*
Y32000D01*
X271000Y51000D02*
X274000Y54000D01*
X151000Y451653D02*
X185000D01*
X143638Y459016D02*
X151000Y451653D01*
X154354Y467008D02*
X163524Y476177D01*
X139476D02*
X149524D01*
X163524D02*
X178476D01*
X129000Y486654D02*
X139476Y476177D01*
X185000Y451653D02*
X204524Y471177D01*
X218476D01*
X103000Y480000D02*
X109653Y486654D01*
X129000D01*
X325000Y83000D02*
X331000Y89000D01*
X383000Y121000D02*
Y132000D01*
X303000Y112000D02*
Y132000D01*
X248000Y129000D02*
X284000D01*
X289000Y99000D02*
X325000D01*
X294000Y141000D02*
X303000Y132000D01*
X258000Y137000D02*
X290000D01*
X294000Y141000D02*
Y148653D01*
X290000Y137000D02*
X294000Y141000D01*
X253000Y142000D02*
Y276000D01*
Y142000D02*
X258000Y137000D01*
X283000Y108000D02*
X299000D01*
X303000Y112000D01*
X271000Y96000D02*
X283000Y108000D01*
X271000Y57000D02*
Y96000D01*
X279000Y112000D02*
X283000Y108000D01*
X279000Y112000D02*
Y119000D01*
X243000Y134000D02*
X248000Y129000D01*
X215000Y210000D02*
Y292000D01*
X243000Y134000D02*
Y182000D01*
X215000Y210000D02*
X243000Y182000D01*
X215000Y292000D02*
X223000Y300000D01*
X233282Y295718D02*
X253000Y276000D01*
X325000Y27000D02*
Y59000D01*
X274000Y27000D02*
X305000D01*
X271000Y30000D02*
X274000Y27000D01*
X271000Y34000D02*
X274000Y37000D01*
X271000Y30000D02*
Y34000D01*
X274000Y37000D02*
X281000D01*
X271000Y40000D02*
Y51000D01*
Y40000D02*
X274000Y37000D01*
Y54000D02*
X281000D01*
X271000Y57000D02*
X274000Y54000D01*
X314000Y89000D02*
X319000D01*
X325000Y59000D02*
Y83000D01*
X319000Y89000D02*
X325000Y83000D01*
X304000Y89000D02*
X314000D01*
X289000D02*
X304000D01*
X58017Y142000D02*
X63000Y137017D01*
Y124000D02*
Y137017D01*
X233000Y300000D02*
X233282Y299718D01*
Y295718D02*
Y299718D01*
X294000Y151000D02*
Y181000D01*
X305000Y192000D01*
X314000D01*
D64*
X158000Y374000D02*
X168000D01*
X143000D02*
X158000D01*
Y354000D02*
X168000D01*
X143000D02*
X158000D01*
Y334000D02*
X168000D01*
X143000D02*
X158000D01*
X295000Y331000D02*
Y357000D01*
X235000Y417000D02*
X295000Y357000D01*
X124000Y425000D02*
X138000D01*
X102677Y425323D02*
Y430921D01*
Y425323D02*
X108000Y420000D01*
X119000D02*
X124000Y425000D01*
X108000Y420000D02*
X119000D01*
X99347Y417000D02*
X138000D01*
X94000Y422346D02*
Y436000D01*
Y422346D02*
X99347Y417000D01*
X94000Y422346D02*
X94000Y422346D01*
X217000Y425000D02*
X290000Y352000D01*
X185315Y443032D02*
X285000Y343347D01*
X113000Y443032D02*
X185315D01*
X187307Y435039D02*
X280000Y342347D01*
X113000Y435039D02*
X187307D01*
X94000Y436000D02*
X96913Y438913D01*
X102677D01*
X311000Y37000D02*
Y38305D01*
X205000Y382000D02*
X214000Y373000D01*
X181000Y382000D02*
X205000D01*
X178000Y379000D02*
X181000Y382000D01*
X158000Y314000D02*
X168000D01*
X143000D02*
X158000D01*
X138000Y324000D02*
Y329000D01*
X143000Y334000D01*
X214000Y357246D02*
Y373000D01*
X204000Y364000D02*
X211000Y357000D01*
X198000Y364000D02*
X204000D01*
X211000Y332000D02*
Y357000D01*
X198000Y344000D02*
X204000D01*
X208000Y330000D02*
Y340000D01*
X204000Y344000D02*
X208000Y340000D01*
X211500Y326500D02*
X222740D01*
X208000Y330000D02*
X211500Y326500D01*
X211000Y332000D02*
X214000Y329000D01*
X222740D01*
X204000Y314000D02*
X211500Y321500D01*
X198000Y314000D02*
X204000D01*
X211500Y321500D02*
X222740D01*
X219370Y319000D02*
X222740D01*
X218000Y317630D02*
X219370Y319000D01*
X244000Y329000D02*
X257000D01*
X244000Y326500D02*
X254500D01*
X244000Y324000D02*
X252000D01*
X248500Y321500D02*
X250000Y320000D01*
X244000Y321500D02*
X248500D01*
X244000Y303000D02*
Y319000D01*
X238000Y311000D02*
Y331900D01*
X233776Y303776D02*
X237224Y307224D01*
X233000Y300000D02*
X233776Y300776D01*
Y303776D01*
X237224Y307224D02*
Y310224D01*
X238000Y311000D01*
X218000D02*
Y317630D01*
X214000Y333900D02*
X216400Y331500D01*
X214000Y333900D02*
Y351247D01*
Y357246D02*
X217000Y354246D01*
X228000D01*
X214000Y351247D02*
X217000Y354246D01*
X228100Y319000D02*
X230000Y320900D01*
Y334900D01*
X240100Y334000D02*
X244000D01*
X230000Y334900D02*
X231600Y336500D01*
X228400D02*
X230000Y334900D01*
X244000Y334000D02*
X249100D01*
X244000Y331500D02*
Y334000D01*
X233000Y343900D02*
X249000D01*
X251000Y335900D02*
Y341900D01*
X238000Y331900D02*
X240100Y334000D01*
X249100D02*
X251000Y335900D01*
X249000Y343900D02*
X251000Y341900D01*
X231600Y336500D02*
X244000D01*
X222740Y334000D02*
Y336500D01*
X216400Y331500D02*
X222740D01*
X233000Y343900D02*
Y349247D01*
X222870Y336874D02*
Y343770D01*
X228000Y354246D02*
X233000Y349247D01*
X222740Y336500D02*
X228400D01*
X198000Y324000D02*
X222740D01*
Y319000D02*
X228100D01*
X285000Y331000D02*
Y343347D01*
X280000Y326000D02*
Y342347D01*
Y326000D02*
X285000Y321000D01*
X290000Y326000D02*
Y352000D01*
Y326000D02*
X295000Y321000D01*
X254500Y326500D02*
X260000Y321000D01*
Y296000D02*
Y321000D01*
X304000Y151000D02*
Y183000D01*
X274000Y151000D02*
Y175000D01*
X284000Y151000D02*
Y180000D01*
X198000Y364000D02*
Y374000D01*
Y344000D02*
Y354000D01*
Y324000D02*
Y334000D01*
Y304000D02*
Y314000D01*
X138000Y304000D02*
Y309000D01*
X143000Y314000D01*
X138000Y344000D02*
Y349000D01*
X143000Y354000D01*
X138000Y364000D02*
Y369000D01*
X143000Y374000D01*
X385000Y286000D02*
X458000D01*
X463000Y291000D01*
X349000Y187000D02*
X354000Y182000D01*
X244000Y303000D02*
X246000Y301000D01*
X250000D01*
X255000Y293000D02*
Y321000D01*
Y293000D02*
X257000Y291000D01*
X265000Y298000D02*
Y321000D01*
Y298000D02*
X267000Y296000D01*
X257000Y291000D02*
X285000D01*
X260000Y281000D02*
X285000D01*
X270000Y301000D02*
X285000D01*
X267000Y296000D02*
X290000D01*
X295000Y291000D01*
X284000Y180000D02*
X305000Y201000D01*
X304000Y183000D02*
X308000Y187000D01*
X349000D01*
X305000Y201000D02*
X352000D01*
X274000Y175000D02*
X385000Y286000D01*
X352000Y201000D02*
X354000Y199000D01*
Y192000D02*
Y199000D01*
X250000Y311000D02*
Y320000D01*
X252000Y324000D02*
X255000Y321000D01*
X257000Y329000D02*
X265000Y321000D01*
D65*
X495653Y82000D02*
D03*
Y132000D02*
D03*
X55598Y225929D02*
D03*
Y318929D02*
D03*
D66*
X474000Y82000D02*
D03*
X495653Y65465D02*
D03*
X474000D02*
D03*
Y115465D02*
D03*
X495653D02*
D03*
X474000Y132000D02*
D03*
X77252Y225929D02*
D03*
X55598Y242465D02*
D03*
X77252D02*
D03*
X55598Y259000D02*
D03*
X77252D02*
D03*
X55598Y275535D02*
D03*
X77252D02*
D03*
Y368535D02*
D03*
X55598D02*
D03*
X77252Y352000D02*
D03*
X55598D02*
D03*
X77252Y335465D02*
D03*
X55598D02*
D03*
X77252Y318929D02*
D03*
D67*
X389559Y51000D02*
D03*
X379716D02*
D03*
X371843D02*
D03*
D68*
X401646Y40331D02*
D03*
X349913D02*
D03*
D69*
X362000Y51000D02*
D03*
D70*
X113000Y475000D02*
D03*
Y467008D02*
D03*
Y459016D02*
D03*
Y443032D02*
D03*
Y435039D02*
D03*
Y427047D02*
D03*
X103000Y471004D02*
D03*
Y463012D02*
D03*
Y455020D02*
D03*
Y447028D02*
D03*
Y439035D02*
D03*
Y431043D02*
D03*
D71*
X43000Y476024D02*
D03*
Y426024D02*
D03*
D72*
X30480Y482776D02*
D03*
Y419272D02*
D03*
D73*
X270000Y446000D02*
D03*
X300000D02*
D03*
X327000Y463000D02*
D03*
Y493000D02*
D03*
X213000Y32000D02*
D03*
Y62000D02*
D03*
X383000Y132000D02*
D03*
X393000D02*
D03*
X363000Y114200D02*
D03*
X440000Y92000D02*
D03*
Y62000D02*
D03*
X323000Y313000D02*
D03*
X353000D02*
D03*
X323000Y304000D02*
D03*
X353000D02*
D03*
X323000Y331000D02*
D03*
X353000D02*
D03*
X323000Y322000D02*
D03*
X353000D02*
D03*
X308000Y493000D02*
D03*
Y463000D02*
D03*
X300000Y456000D02*
D03*
X270000D02*
D03*
X300000Y436000D02*
D03*
X270000D02*
D03*
X267000Y506000D02*
D03*
Y476000D02*
D03*
X203000Y32000D02*
D03*
Y62000D02*
D03*
X458000D02*
D03*
Y92000D02*
D03*
X383000Y121000D02*
D03*
X413000D02*
D03*
X449000Y62000D02*
D03*
Y92000D02*
D03*
X383000Y112000D02*
D03*
X413000D02*
D03*
X279000Y119000D02*
D03*
X289000D02*
D03*
X325000Y27000D02*
D03*
X305000D02*
D03*
X458000Y112000D02*
D03*
Y142000D02*
D03*
X343000Y114200D02*
D03*
X281000Y37000D02*
D03*
X311000D02*
D03*
X304000Y59000D02*
D03*
Y89000D02*
D03*
X440000Y142000D02*
D03*
Y112000D02*
D03*
X449000Y142000D02*
D03*
Y112000D02*
D03*
X101000Y101000D02*
D03*
Y131000D02*
D03*
X111000Y101000D02*
D03*
Y131000D02*
D03*
X138000Y364000D02*
D03*
X168000D02*
D03*
X138000Y344000D02*
D03*
X168000D02*
D03*
X138000Y324000D02*
D03*
X168000D02*
D03*
X138000Y304000D02*
D03*
X168000D02*
D03*
X223000Y343900D02*
D03*
X233000D02*
D03*
X270000Y261000D02*
D03*
X240000D02*
D03*
X270000Y251000D02*
D03*
X240000D02*
D03*
X270000Y241000D02*
D03*
X240000D02*
D03*
X270000Y231000D02*
D03*
X240000D02*
D03*
X363000Y69000D02*
D03*
Y99000D02*
D03*
X343000Y69000D02*
D03*
Y99000D02*
D03*
X91000Y97000D02*
D03*
Y67000D02*
D03*
X106000Y86800D02*
D03*
X168000Y374000D02*
D03*
X198000D02*
D03*
X168000Y354000D02*
D03*
X198000D02*
D03*
X168000Y334000D02*
D03*
X198000D02*
D03*
X168000Y314000D02*
D03*
X198000D02*
D03*
X188000Y364000D02*
D03*
X198000D02*
D03*
X188000Y344000D02*
D03*
X198000D02*
D03*
X188000Y324000D02*
D03*
X198000D02*
D03*
X188000Y304000D02*
D03*
X198000D02*
D03*
X218000Y311000D02*
D03*
X238000D02*
D03*
X118000Y231000D02*
D03*
X158000D02*
D03*
X118000Y216000D02*
D03*
X158000D02*
D03*
X118000Y206000D02*
D03*
X158000D02*
D03*
X118000Y256000D02*
D03*
X158000D02*
D03*
X118000Y241000D02*
D03*
X158000D02*
D03*
X118000Y266000D02*
D03*
X158000D02*
D03*
X118000Y281000D02*
D03*
X158000D02*
D03*
X118000Y291000D02*
D03*
X158000D02*
D03*
X233000Y300000D02*
D03*
X223000D02*
D03*
D74*
X63000Y176000D02*
D03*
X79000Y156000D02*
D03*
Y176000D02*
D03*
X63000Y156000D02*
D03*
X178000Y241000D02*
D03*
X168000Y231000D02*
D03*
X188000D02*
D03*
X204000Y527000D02*
D03*
X70000Y80000D02*
D03*
X106000Y160000D02*
D03*
X71000Y25000D02*
D03*
X233000Y47000D02*
D03*
X240000Y486000D02*
D03*
Y456000D02*
D03*
X423000Y72000D02*
D03*
Y102000D02*
D03*
X393000D02*
D03*
X403000D02*
D03*
X413000D02*
D03*
Y72000D02*
D03*
X403000D02*
D03*
X281000Y54000D02*
D03*
X230000Y281000D02*
D03*
X200000D02*
D03*
Y261000D02*
D03*
Y271000D02*
D03*
X230000D02*
D03*
Y261000D02*
D03*
X200000Y241000D02*
D03*
Y251000D02*
D03*
X230000D02*
D03*
Y241000D02*
D03*
Y221000D02*
D03*
Y231000D02*
D03*
X200000D02*
D03*
Y221000D02*
D03*
Y211000D02*
D03*
X188000Y206000D02*
D03*
X168000D02*
D03*
X178000Y216000D02*
D03*
X188000Y256000D02*
D03*
X168000D02*
D03*
X178000Y266000D02*
D03*
X188000Y281000D02*
D03*
X168000D02*
D03*
X178000Y291000D02*
D03*
D75*
X363000Y143000D02*
D03*
X485000Y27000D02*
D03*
X465000D02*
D03*
X505000D02*
D03*
X343000Y143000D02*
D03*
D76*
X56000Y108000D02*
D03*
X158000Y25000D02*
D03*
D77*
X63000Y124000D02*
D03*
X70000Y108000D02*
D03*
X77000Y124000D02*
D03*
X84000Y108000D02*
D03*
X186000Y25000D02*
D03*
X179000Y41000D02*
D03*
X172000Y25000D02*
D03*
X165000Y41000D02*
D03*
D78*
X204000Y485653D02*
D03*
X218476Y471177D02*
D03*
X204000Y456701D02*
D03*
X189524Y471177D02*
D03*
X149524Y476177D02*
D03*
X164000Y461701D02*
D03*
X178476Y476177D02*
D03*
X164000Y490654D02*
D03*
X158000Y314000D02*
D03*
X118000D02*
D03*
X158000Y334000D02*
D03*
X118000D02*
D03*
X158000Y374000D02*
D03*
X118000D02*
D03*
X158000Y354000D02*
D03*
X118000D02*
D03*
D79*
X204000Y507000D02*
D03*
X71000Y45000D02*
D03*
X393000Y72000D02*
D03*
D80*
X50000Y80000D02*
D03*
X126000Y160000D02*
D03*
X253000Y47000D02*
D03*
X289000Y54000D02*
D03*
X230000Y211000D02*
D03*
D81*
X128000Y526653D02*
D03*
X424000D02*
D03*
Y24654D02*
D03*
X128000D02*
D03*
D82*
X363000Y123900D02*
D03*
X343000D02*
D03*
X106000Y77100D02*
D03*
D83*
X257000Y486000D02*
D03*
Y446000D02*
D03*
X41000Y166000D02*
D03*
Y126000D02*
D03*
X314000Y49000D02*
D03*
Y89000D02*
D03*
X325000Y59000D02*
D03*
Y99000D02*
D03*
D84*
X503000Y212000D02*
D03*
Y302000D02*
D03*
Y392000D02*
D03*
Y482000D02*
D03*
D85*
X513000Y212000D02*
D03*
X503000Y202000D02*
D03*
X513000D02*
D03*
X503000Y192000D02*
D03*
X513000D02*
D03*
X503000Y182000D02*
D03*
X513000D02*
D03*
X503000Y172000D02*
D03*
X513000D02*
D03*
Y302000D02*
D03*
X503000Y292000D02*
D03*
X513000D02*
D03*
X503000Y282000D02*
D03*
X513000D02*
D03*
X503000Y272000D02*
D03*
X513000D02*
D03*
X503000Y262000D02*
D03*
X513000D02*
D03*
Y392000D02*
D03*
X503000Y382000D02*
D03*
X513000D02*
D03*
X503000Y372000D02*
D03*
X513000D02*
D03*
X503000Y362000D02*
D03*
X513000D02*
D03*
X503000Y352000D02*
D03*
X513000D02*
D03*
Y442000D02*
D03*
X503000D02*
D03*
X513000Y452000D02*
D03*
X503000D02*
D03*
X513000Y462000D02*
D03*
X503000D02*
D03*
X513000Y472000D02*
D03*
X503000D02*
D03*
X513000Y482000D02*
D03*
X264000Y148653D02*
D03*
X274000D02*
D03*
X284000D02*
D03*
X294000D02*
D03*
X304000D02*
D03*
D86*
X285000Y241000D02*
D03*
X295000Y221000D02*
D03*
X285000Y211000D02*
D03*
Y221000D02*
D03*
Y251000D02*
D03*
Y261000D02*
D03*
Y271000D02*
D03*
Y281000D02*
D03*
Y291000D02*
D03*
Y301000D02*
D03*
Y311000D02*
D03*
Y321000D02*
D03*
Y331000D02*
D03*
Y231000D02*
D03*
X295000Y241000D02*
D03*
Y251000D02*
D03*
Y261000D02*
D03*
Y271000D02*
D03*
Y281000D02*
D03*
Y291000D02*
D03*
Y301000D02*
D03*
Y311000D02*
D03*
Y321000D02*
D03*
Y331000D02*
D03*
Y231000D02*
D03*
X334000Y350000D02*
D03*
X434000D02*
D03*
X424000D02*
D03*
X414000D02*
D03*
X404000D02*
D03*
X394000D02*
D03*
X384000D02*
D03*
X374000D02*
D03*
X364000D02*
D03*
X354000D02*
D03*
X344000D02*
D03*
X334000Y360000D02*
D03*
X434000D02*
D03*
X424000D02*
D03*
X414000D02*
D03*
X404000D02*
D03*
X394000D02*
D03*
X384000D02*
D03*
X374000D02*
D03*
X364000D02*
D03*
X354000D02*
D03*
X324000D02*
D03*
X314000D02*
D03*
X324000Y350000D02*
D03*
X344000Y360000D02*
D03*
X453000Y311000D02*
D03*
Y211000D02*
D03*
Y221000D02*
D03*
Y231000D02*
D03*
Y241000D02*
D03*
Y251000D02*
D03*
Y261000D02*
D03*
Y271000D02*
D03*
Y281000D02*
D03*
Y291000D02*
D03*
Y301000D02*
D03*
X463000Y311000D02*
D03*
Y211000D02*
D03*
Y221000D02*
D03*
Y231000D02*
D03*
Y241000D02*
D03*
Y251000D02*
D03*
Y261000D02*
D03*
Y271000D02*
D03*
Y281000D02*
D03*
Y291000D02*
D03*
Y321000D02*
D03*
Y331000D02*
D03*
X453000Y321000D02*
D03*
X463000Y301000D02*
D03*
X404000Y182000D02*
D03*
X424000Y192000D02*
D03*
X434000Y182000D02*
D03*
X424000D02*
D03*
X394000D02*
D03*
X384000D02*
D03*
X374000D02*
D03*
X364000D02*
D03*
X354000D02*
D03*
X344000D02*
D03*
X334000D02*
D03*
X324000D02*
D03*
X314000D02*
D03*
X414000D02*
D03*
X404000Y192000D02*
D03*
X394000D02*
D03*
X384000D02*
D03*
X374000D02*
D03*
X364000D02*
D03*
X354000D02*
D03*
X344000D02*
D03*
X334000D02*
D03*
X324000D02*
D03*
X314000D02*
D03*
X414000D02*
D03*
D87*
X295000Y211000D02*
D03*
X453000Y331000D02*
D03*
D88*
X314000Y350000D02*
D03*
X434000Y192000D02*
D03*
D89*
X314000Y148653D02*
D03*
D90*
X98000Y202000D02*
D03*
X100000Y25000D02*
D03*
X284000Y129000D02*
D03*
X188000Y192000D02*
D03*
X108000Y195000D02*
D03*
D91*
X235000Y417000D02*
D03*
X138000Y425000D02*
D03*
Y417000D02*
D03*
X217000Y425000D02*
D03*
X250000Y301000D02*
D03*
Y311000D02*
D03*
X260000Y281000D02*
D03*
Y296000D02*
D03*
X270000Y301000D02*
D03*
D92*
X277000Y486000D02*
D03*
Y481000D02*
D03*
Y476000D02*
D03*
Y471000D02*
D03*
X298260D02*
D03*
Y476000D02*
D03*
Y481000D02*
D03*
Y486000D02*
D03*
D93*
X222740Y321500D02*
D03*
Y324000D02*
D03*
Y326500D02*
D03*
Y329000D02*
D03*
Y331500D02*
D03*
Y334000D02*
D03*
Y336500D02*
D03*
Y319000D02*
D03*
X244000Y321500D02*
D03*
Y324000D02*
D03*
Y326500D02*
D03*
Y329000D02*
D03*
Y331500D02*
D03*
Y334000D02*
D03*
Y336500D02*
D03*
Y319000D02*
D03*
D94*
X263000Y22000D02*
X276000Y9000D01*
X372000D02*
X389559Y26559D01*
X276000Y9000D02*
X372000D01*
X41244Y125756D02*
X46244D01*
X56000Y116000D02*
X62000D01*
X41000Y126000D02*
X41244Y125756D01*
X46244D02*
X56000Y116000D01*
X78000D02*
X84000D01*
X90000Y122000D01*
Y133000D01*
X180000Y33000D02*
X186000D01*
X200000Y47000D02*
X233000D01*
X186000Y33000D02*
X200000Y47000D01*
X172000Y25000D02*
X180000Y33000D01*
X158000D02*
X164000D01*
X133000Y58000D02*
Y64000D01*
Y58000D02*
X158000Y33000D01*
X164000D02*
X172000Y25000D01*
X62000Y116000D02*
X70000Y108000D01*
X78000Y116000D01*
X69756Y80244D02*
Y88244D01*
X65000Y93000D02*
X69756Y88244D01*
X65000Y93000D02*
X70000Y98000D01*
Y108000D01*
X106000Y149000D02*
Y160000D01*
X90000Y133000D02*
X106000Y149000D01*
X389559Y26559D02*
Y51000D01*
D95*
X126000Y160000D02*
Y170000D01*
X120000Y176000D02*
X126000Y170000D01*
X113000Y176000D02*
X120000D01*
X108000Y181000D02*
X113000Y176000D01*
X103000D02*
X108000Y181000D01*
Y195000D01*
X79000Y176000D02*
X103000D01*
M02*
