G04*
G04 #@! TF.GenerationSoftware,Altium Limited,Altium Designer,21.5.1 (32)*
G04*
G04 Layer_Color=16711935*
%FSLAX25Y25*%
%MOIN*%
G70*
G04*
G04 #@! TF.SameCoordinates,C97E674D-CBD0-4417-8129-BB80065031B2*
G04*
G04*
G04 #@! TF.FilePolarity,Positive*
G04*
G01*
G75*
%ADD12C,0.01000*%
D12*
X342827Y40000D02*
X342781Y40999D01*
X342642Y41989D01*
X342413Y42963D01*
X342096Y43911D01*
X341692Y44826D01*
X341205Y45700D01*
X340640Y46525D01*
X340001Y47294D01*
X339294Y48001D01*
X338525Y48640D01*
X337700Y49205D01*
X336826Y49692D01*
X335911Y50096D01*
X334963Y50414D01*
X333989Y50642D01*
X332999Y50781D01*
X332000Y50827D01*
X331001Y50781D01*
X330011Y50642D01*
X329037Y50414D01*
X328089Y50096D01*
X327174Y49692D01*
X326300Y49205D01*
X325475Y48640D01*
X324706Y48001D01*
X323999Y47294D01*
X323360Y46525D01*
X322795Y45700D01*
X322308Y44826D01*
X321904Y43911D01*
X321586Y42963D01*
X321358Y41989D01*
X321219Y40999D01*
X321173Y40000D01*
X321219Y39001D01*
X321358Y38011D01*
X321586Y37037D01*
X321904Y36089D01*
X322308Y35174D01*
X322795Y34301D01*
X323360Y33475D01*
X323999Y32706D01*
X324706Y31999D01*
X325475Y31360D01*
X326300Y30795D01*
X327174Y30308D01*
X328089Y29904D01*
X329037Y29586D01*
X330011Y29358D01*
X331001Y29219D01*
X332000Y29173D01*
X332999Y29219D01*
X333989Y29358D01*
X334963Y29586D01*
X335911Y29904D01*
X336826Y30308D01*
X337700Y30795D01*
X338525Y31360D01*
X339294Y31999D01*
X340001Y32706D01*
X340640Y33475D01*
X341205Y34301D01*
X341692Y35174D01*
X342096Y36089D01*
X342413Y37037D01*
X342642Y38011D01*
X342781Y39001D01*
X342827Y40000D01*
X30827Y20000D02*
X30781Y20999D01*
X30642Y21989D01*
X30413Y22963D01*
X30096Y23911D01*
X29692Y24826D01*
X29205Y25700D01*
X28640Y26525D01*
X28001Y27294D01*
X27294Y28001D01*
X26525Y28640D01*
X25700Y29205D01*
X24826Y29692D01*
X23911Y30096D01*
X22963Y30413D01*
X21989Y30642D01*
X20999Y30781D01*
X20000Y30827D01*
X19001Y30781D01*
X18011Y30642D01*
X17037Y30413D01*
X16089Y30096D01*
X15174Y29692D01*
X14300Y29205D01*
X13475Y28640D01*
X12706Y28001D01*
X11999Y27294D01*
X11360Y26525D01*
X10795Y25700D01*
X10308Y24826D01*
X9904Y23911D01*
X9586Y22963D01*
X9358Y21989D01*
X9219Y20999D01*
X9173Y20000D01*
X9219Y19001D01*
X9358Y18011D01*
X9586Y17037D01*
X9904Y16089D01*
X10308Y15174D01*
X10795Y14300D01*
X11360Y13475D01*
X11999Y12706D01*
X12706Y11999D01*
X13475Y11360D01*
X14300Y10795D01*
X15174Y10308D01*
X16089Y9904D01*
X17037Y9586D01*
X18011Y9358D01*
X19001Y9219D01*
X20000Y9173D01*
X20999Y9219D01*
X21989Y9358D01*
X22963Y9586D01*
X23911Y9904D01*
X24826Y10308D01*
X25700Y10795D01*
X26525Y11360D01*
X27294Y11999D01*
X28001Y12706D01*
X28640Y13475D01*
X29205Y14300D01*
X29692Y15174D01*
X30096Y16089D01*
X30413Y17037D01*
X30642Y18011D01*
X30781Y19001D01*
X30827Y20000D01*
Y615000D02*
X30781Y615999D01*
X30642Y616989D01*
X30413Y617963D01*
X30096Y618911D01*
X29692Y619826D01*
X29205Y620700D01*
X28640Y621525D01*
X28001Y622294D01*
X27294Y623001D01*
X26525Y623640D01*
X25700Y624205D01*
X24826Y624692D01*
X23911Y625096D01*
X22963Y625414D01*
X21989Y625642D01*
X20999Y625781D01*
X20000Y625827D01*
X19001Y625781D01*
X18011Y625642D01*
X17037Y625414D01*
X16089Y625096D01*
X15174Y624692D01*
X14300Y624205D01*
X13475Y623640D01*
X12706Y623001D01*
X11999Y622294D01*
X11360Y621525D01*
X10795Y620700D01*
X10308Y619826D01*
X9904Y618911D01*
X9586Y617963D01*
X9358Y616989D01*
X9219Y615999D01*
X9173Y615000D01*
X9219Y614001D01*
X9358Y613011D01*
X9586Y612037D01*
X9904Y611089D01*
X10308Y610174D01*
X10795Y609301D01*
X11360Y608475D01*
X11999Y607706D01*
X12706Y606999D01*
X13475Y606360D01*
X14300Y605795D01*
X15174Y605308D01*
X16089Y604904D01*
X17037Y604587D01*
X18011Y604358D01*
X19001Y604219D01*
X20000Y604173D01*
X20999Y604219D01*
X21989Y604358D01*
X22963Y604587D01*
X23911Y604904D01*
X24826Y605308D01*
X25700Y605795D01*
X26525Y606360D01*
X27294Y606999D01*
X28001Y607706D01*
X28640Y608475D01*
X29205Y609301D01*
X29692Y610174D01*
X30096Y611089D01*
X30413Y612037D01*
X30642Y613011D01*
X30781Y614001D01*
X30827Y615000D01*
X634827Y20000D02*
X634781Y20999D01*
X634642Y21989D01*
X634413Y22963D01*
X634096Y23911D01*
X633692Y24826D01*
X633205Y25700D01*
X632640Y26525D01*
X632001Y27294D01*
X631294Y28001D01*
X630525Y28640D01*
X629700Y29205D01*
X628826Y29692D01*
X627911Y30096D01*
X626963Y30413D01*
X625989Y30642D01*
X624999Y30781D01*
X624000Y30827D01*
X623001Y30781D01*
X622011Y30642D01*
X621037Y30413D01*
X620089Y30096D01*
X619174Y29692D01*
X618300Y29205D01*
X617475Y28640D01*
X616706Y28001D01*
X615999Y27294D01*
X615360Y26525D01*
X614795Y25700D01*
X614308Y24826D01*
X613904Y23911D01*
X613587Y22963D01*
X613358Y21989D01*
X613219Y20999D01*
X613173Y20000D01*
X613219Y19001D01*
X613358Y18011D01*
X613587Y17037D01*
X613904Y16089D01*
X614308Y15174D01*
X614795Y14300D01*
X615360Y13475D01*
X615999Y12706D01*
X616706Y11999D01*
X617475Y11360D01*
X618300Y10795D01*
X619174Y10308D01*
X620089Y9904D01*
X621037Y9586D01*
X622011Y9358D01*
X623001Y9219D01*
X624000Y9173D01*
X624999Y9219D01*
X625989Y9358D01*
X626963Y9586D01*
X627911Y9904D01*
X628826Y10308D01*
X629700Y10795D01*
X630525Y11360D01*
X631294Y11999D01*
X632001Y12706D01*
X632640Y13475D01*
X633205Y14300D01*
X633692Y15174D01*
X634096Y16089D01*
X634413Y17037D01*
X634642Y18011D01*
X634781Y19001D01*
X634827Y20000D01*
Y615000D02*
X634781Y615999D01*
X634642Y616989D01*
X634413Y617963D01*
X634096Y618911D01*
X633692Y619826D01*
X633205Y620700D01*
X632640Y621525D01*
X632001Y622294D01*
X631294Y623001D01*
X630525Y623640D01*
X629700Y624205D01*
X628826Y624692D01*
X627911Y625096D01*
X626963Y625414D01*
X625989Y625642D01*
X624999Y625781D01*
X624000Y625827D01*
X623001Y625781D01*
X622011Y625642D01*
X621037Y625414D01*
X620089Y625096D01*
X619174Y624692D01*
X618300Y624205D01*
X617475Y623640D01*
X616706Y623001D01*
X615999Y622294D01*
X615360Y621525D01*
X614795Y620700D01*
X614308Y619826D01*
X613904Y618911D01*
X613587Y617963D01*
X613358Y616989D01*
X613219Y615999D01*
X613173Y615000D01*
X613219Y614001D01*
X613358Y613011D01*
X613587Y612037D01*
X613904Y611089D01*
X614308Y610174D01*
X614795Y609301D01*
X615360Y608475D01*
X615999Y607706D01*
X616706Y606999D01*
X617475Y606360D01*
X618300Y605795D01*
X619174Y605308D01*
X620089Y604904D01*
X621037Y604587D01*
X622011Y604358D01*
X623001Y604219D01*
X624000Y604173D01*
X624999Y604219D01*
X625989Y604358D01*
X626963Y604587D01*
X627911Y604904D01*
X628826Y605308D01*
X629700Y605795D01*
X630525Y606360D01*
X631294Y606999D01*
X632001Y607706D01*
X632640Y608475D01*
X633205Y609301D01*
X633692Y610174D01*
X634096Y611089D01*
X634413Y612037D01*
X634642Y613011D01*
X634781Y614001D01*
X634827Y615000D01*
M02*
