G04*
G04 #@! TF.GenerationSoftware,Altium Limited,Altium Designer,21.5.1 (32)*
G04*
G04 Layer_Physical_Order=2*
G04 Layer_Color=16711680*
%FSLAX25Y25*%
%MOIN*%
G70*
G04*
G04 #@! TF.SameCoordinates,DC1D8B1E-EA3E-4B6B-A205-361A43EFEAAA*
G04*
G04*
G04 #@! TF.FilePolarity,Positive*
G04*
G01*
G75*
%ADD43C,0.01378*%
%ADD44C,0.04724*%
%ADD45C,0.02362*%
%ADD46C,0.06000*%
%ADD47R,0.05543X0.05543*%
%ADD48C,0.05543*%
%ADD49C,0.09291*%
%ADD50C,0.06200*%
%ADD51R,0.06200X0.06200*%
%ADD52R,0.06200X0.06200*%
%ADD53C,0.05906*%
%ADD54C,0.06890*%
%ADD55R,0.06890X0.06890*%
%ADD56R,0.10827X0.10827*%
%ADD57C,0.10827*%
%ADD58C,0.07087*%
%ADD59R,0.06000X0.06000*%
%ADD60R,0.06890X0.06890*%
%ADD61R,0.05906X0.05906*%
%ADD62C,0.13055*%
%ADD63C,0.19685*%
%ADD64R,0.06000X0.06000*%
%ADD65O,0.07000X0.10000*%
%ADD66C,0.15748*%
%ADD67R,0.05118X0.09843*%
%ADD68C,0.09843*%
%ADD69C,0.04000*%
%ADD70C,0.04921*%
G04:AMPARAMS|DCode=71|XSize=77.56mil|YSize=23.62mil|CornerRadius=2.95mil|HoleSize=0mil|Usage=FLASHONLY|Rotation=270.000|XOffset=0mil|YOffset=0mil|HoleType=Round|Shape=RoundedRectangle|*
%AMROUNDEDRECTD71*
21,1,0.07756,0.01772,0,0,270.0*
21,1,0.07165,0.02362,0,0,270.0*
1,1,0.00591,-0.00886,-0.03583*
1,1,0.00591,-0.00886,0.03583*
1,1,0.00591,0.00886,0.03583*
1,1,0.00591,0.00886,-0.03583*
%
%ADD71ROUNDEDRECTD71*%
%ADD72R,0.06300X0.01400*%
%ADD73R,0.31496X0.33465*%
D43*
X326400Y410600D02*
X332000Y405000D01*
Y380000D02*
Y405000D01*
X44000Y565079D02*
X44039Y565039D01*
X57961D01*
X58000Y565000D01*
X85000Y564000D02*
X101000Y580000D01*
X85000Y541000D02*
Y564000D01*
X101000Y580000D02*
X190000D01*
X90000Y549000D02*
Y562000D01*
X103000Y575000D02*
X190000D01*
X90000Y562000D02*
X103000Y575000D01*
X190000Y580000D02*
X350000Y420000D01*
X190000Y575000D02*
X350000Y415000D01*
X95000Y560000D02*
X105000Y570000D01*
X190000D02*
X350000Y410000D01*
X105000Y570000D02*
X190000D01*
X95000Y533000D02*
Y560000D01*
X34000Y533000D02*
X58000D01*
X38000Y541000D02*
X58000D01*
X57984Y549016D02*
X58000Y549000D01*
X44000Y549016D02*
X57984D01*
X34000Y545000D02*
X38000Y541000D01*
X25000Y542000D02*
X34000Y533000D01*
X25000Y542000D02*
Y549000D01*
X29032Y553031D01*
X34000D01*
X350000Y420000D02*
X362000D01*
X367000Y415000D01*
X350000D02*
X357000D01*
X350000Y410000D02*
X362000D01*
X367000Y405000D01*
X115000Y565000D02*
X190000D01*
X350000Y405000D01*
X357000D01*
X376000Y235000D02*
Y267000D01*
X346000Y235000D02*
Y259000D01*
X356000Y235000D02*
Y264000D01*
X134000Y370000D02*
Y412000D01*
X172000Y450000D02*
X182000D01*
X134000Y412000D02*
X172000Y450000D01*
Y430000D02*
X182000D01*
X140000Y353000D02*
Y398000D01*
X172000Y430000D01*
X146000Y337000D02*
Y384000D01*
X172000Y410000D02*
X182000D01*
X146000Y384000D02*
X172000Y410000D01*
X152000Y370000D02*
X172000Y390000D01*
X152000Y320000D02*
Y370000D01*
X172000Y390000D02*
X182000D01*
X237000Y465000D02*
X242000Y470000D01*
X267000D01*
X277000Y460000D01*
Y418000D02*
Y460000D01*
X279400Y415600D02*
X286000D01*
X277000Y418000D02*
X279400Y415600D01*
X272000Y417000D02*
Y440000D01*
X276000Y413000D02*
X286000D01*
X272000Y417000D02*
X276000Y413000D01*
X262000Y450000D02*
X272000Y440000D01*
X257000Y450000D02*
X262000D01*
X272400Y410600D02*
X286000D01*
X267000Y416000D02*
X272400Y410600D01*
X267000Y416000D02*
Y425000D01*
X262000Y430000D02*
X267000Y425000D01*
X257000Y430000D02*
X262000D01*
X257000Y450000D02*
Y460000D01*
Y430000D02*
Y440000D01*
Y410000D02*
Y420000D01*
Y410000D02*
X267000D01*
X269000Y408000D02*
X286000D01*
X267000Y410000D02*
X269000Y408000D01*
X257000Y390000D02*
Y400000D01*
X267000D01*
X272600Y405600D02*
X286000D01*
X267000Y400000D02*
X272600Y405600D01*
X77000Y320394D02*
X77197Y320197D01*
X111803D02*
X112000Y320000D01*
X77197Y320197D02*
X111803D01*
X77035Y336965D02*
X105965D01*
X77000Y336929D02*
X77035Y336965D01*
X105965D02*
X106000Y337000D01*
X77232Y353232D02*
X99768D01*
X100000Y353000D01*
X77000Y353465D02*
X77232Y353232D01*
X77000Y370000D02*
X94000D01*
X182000Y390000D02*
Y395000D01*
X187000Y400000D01*
X227000D01*
X182000Y410000D02*
Y415000D01*
X187000Y420000D01*
X227000D01*
X182000Y430000D02*
Y435000D01*
X187000Y440000D01*
X227000D01*
X182000Y450000D02*
Y455000D01*
X187000Y460000D02*
X227000D01*
X182000Y455000D02*
X187000Y460000D01*
X286000Y420600D02*
X291400D01*
X456000Y390000D02*
X486000Y420000D01*
X312000Y428000D02*
X314000Y426000D01*
Y420000D02*
Y426000D01*
X457000Y370000D02*
X530000D01*
X535000Y375000D01*
X486000Y420000D02*
Y434000D01*
X421000Y271000D02*
X426000Y266000D01*
X301000Y384000D02*
Y394000D01*
X302000Y395000D01*
X316000Y387000D02*
Y400000D01*
Y387000D02*
X318000Y385000D01*
X322000D01*
X327000Y377000D02*
Y405000D01*
Y377000D02*
X329000Y375000D01*
X337000Y382000D02*
Y405000D01*
Y382000D02*
X339000Y380000D01*
X329000Y375000D02*
X357000D01*
X332000Y365000D02*
X357000D01*
X347000Y395000D02*
X352000Y390000D01*
X342000Y385000D02*
X357000D01*
X339000Y380000D02*
X362000D01*
X367000Y375000D01*
X356000Y264000D02*
X377000Y285000D01*
X376000Y267000D02*
X380000Y271000D01*
X421000D01*
X377000Y285000D02*
X424000D01*
X346000Y259000D02*
X457000Y370000D01*
X352000Y390000D02*
X456000D01*
X424000Y285000D02*
X426000Y283000D01*
Y276000D02*
Y283000D01*
X301000Y396000D02*
Y416000D01*
Y396000D02*
X302000Y395000D01*
X301000Y416000D02*
X302991Y417991D01*
X302000Y395000D02*
X306000D01*
X302991Y417991D02*
X306991D01*
X307000Y418000D01*
Y415600D02*
Y418000D01*
Y403000D02*
X313000D01*
X307000Y405600D02*
X316400D01*
X313000Y403000D02*
X316000Y400000D01*
X307000Y408000D02*
X324000D01*
X307000Y410600D02*
X326400D01*
X307000Y413000D02*
X329000D01*
X316400Y405600D02*
X322000Y400000D01*
Y395000D02*
Y400000D01*
X324000Y408000D02*
X327000Y405000D01*
X329000Y413000D02*
X337000Y405000D01*
X342000Y395000D02*
X347000D01*
X294600Y420600D02*
X307000D01*
X312000Y418000D02*
X314000Y420000D01*
X296000Y428000D02*
X312000D01*
X307000Y418000D02*
X312000D01*
X286000Y403000D02*
X291000D01*
X293000Y405000D01*
Y419000D01*
X286000Y418000D02*
Y420600D01*
X291400D02*
X293000Y419000D01*
X294600Y420600D01*
D44*
X29000Y486918D02*
Y515000D01*
X34000Y520000D01*
X60000D01*
X65000Y525000D02*
Y554123D01*
X60000Y520000D02*
X65000Y525000D01*
X113528Y425528D02*
X118000Y430000D01*
X113528Y418000D02*
Y425528D01*
X60247Y509323D02*
X75000Y524076D01*
X65046Y572954D02*
X75000Y563000D01*
Y524076D02*
Y563000D01*
X44157Y556891D02*
X62233D01*
X65000Y554123D01*
X44157Y572954D02*
X65046D01*
X44000Y573110D02*
X44157Y572954D01*
X44000Y557047D02*
X44157Y556891D01*
X34063Y561000D02*
X37000D01*
X34000Y561063D02*
X34063Y561000D01*
X37000D02*
X40796Y557204D01*
X38081Y572954D02*
X43843D01*
X34000Y569095D02*
X34222D01*
X43843Y572954D02*
X44000Y573110D01*
X34222Y569095D02*
X38081Y572954D01*
X444000Y233000D02*
X452000Y225000D01*
X430000Y230000D02*
X433000Y233000D01*
X444000D01*
X430000Y225000D02*
Y230000D01*
X361000Y225000D02*
X366000Y230000D01*
X330000Y225000D02*
X361000D01*
X366000Y230000D02*
X371000Y225000D01*
X366000Y230000D02*
Y235000D01*
X371000Y225000D02*
X402000D01*
X322000Y233000D02*
X330000Y225000D01*
X407321Y235000D02*
X430000Y212321D01*
Y208000D02*
Y212321D01*
X386000Y235000D02*
Y266000D01*
Y235000D02*
X407321D01*
X394000Y216000D02*
X402000Y208000D01*
X279000Y256000D02*
X319000Y216000D01*
X394000D01*
X279000Y256000D02*
Y367435D01*
X37000Y68000D02*
Y81842D01*
X80000Y25000D02*
X183000D01*
X37000Y68000D02*
X80000Y25000D01*
X340000Y75000D02*
Y85000D01*
X350000Y65000D02*
X364283D01*
X340000Y75000D02*
X350000Y65000D01*
X340000Y85000D02*
X345000Y90000D01*
Y106000D01*
X326000Y125000D02*
X345000Y106000D01*
X378000Y70000D02*
X386842D01*
X370000Y78000D02*
Y92000D01*
Y78000D02*
X378000Y70000D01*
X350000Y112000D02*
Y129000D01*
Y112000D02*
X370000Y92000D01*
X405000Y68158D02*
Y75300D01*
X396843Y60000D02*
X405000Y68158D01*
X386842Y70000D02*
X396843Y60000D01*
X344000Y135000D02*
X350000Y129000D01*
X303000Y102000D02*
X326000Y125000D01*
X303000Y68000D02*
Y102000D01*
X326000Y125000D02*
Y174000D01*
X364283Y65000D02*
X369284Y60000D01*
Y50000D02*
Y60000D01*
X10000Y118311D02*
Y425076D01*
X118000Y430000D02*
X124000D01*
X35000Y439761D02*
X35239Y440000D01*
X10000Y425076D02*
X25000Y440076D01*
X34685D02*
X35000Y439761D01*
X35239Y440000D02*
X61000D01*
X25000Y440076D02*
X34685D01*
X36000Y479918D02*
X53000D01*
X29000Y486918D02*
X36000Y479918D01*
X35000Y395000D02*
Y420076D01*
X76718Y479282D02*
X77000Y479000D01*
X67588Y479282D02*
X76718D01*
X114000Y489000D02*
Y499000D01*
X115000Y473000D02*
Y483000D01*
X111000Y469000D02*
X114000Y466000D01*
Y484000D02*
Y489000D01*
Y484000D02*
X115000Y483000D01*
X111000Y469000D02*
X115000Y473000D01*
X114000Y434000D02*
Y466000D01*
X100201Y469000D02*
X111000D01*
X61000Y446000D02*
X77000Y462000D01*
Y479000D01*
X114000Y434000D02*
X118000Y430000D01*
X61000Y440000D02*
Y446000D01*
X84000Y418000D02*
Y430000D01*
X53000Y508871D02*
X53452Y509323D01*
X67476Y494394D02*
Y500394D01*
X75000Y507918D01*
X53452Y509323D02*
X60247D01*
X75000Y507918D02*
X110000D01*
X113718Y499282D02*
X114000Y499000D01*
X113718Y499282D02*
Y504201D01*
X110000Y507918D02*
X113718Y504201D01*
X52476Y494394D02*
X67588Y479282D01*
X38524Y494394D02*
X52476D01*
X27000Y199000D02*
X41315Y184685D01*
X27000Y199000D02*
Y387000D01*
X35000Y395000D01*
X22000Y194000D02*
X27000Y199000D01*
X22000Y140000D02*
Y194000D01*
Y140000D02*
X33081Y128919D01*
X57234D01*
X42000Y215000D02*
Y290000D01*
Y215000D02*
X52000Y205000D01*
X42000Y290000D02*
X57000Y305000D01*
X10000Y118311D02*
X41734Y86577D01*
X396843Y50000D02*
Y60000D01*
X452000Y75000D02*
Y183000D01*
X442000Y30000D02*
Y178000D01*
X452000Y75000D02*
X462000Y65000D01*
X442000Y30000D02*
X451813Y20187D01*
X461813D02*
X462000Y20000D01*
X451813Y20187D02*
X461813D01*
X462000Y30000D02*
Y65000D01*
X477000Y80000D02*
X492000D01*
X462000Y65000D02*
X477000Y80000D01*
X462000Y20000D02*
X472000D01*
X482000D01*
X492000Y80000D02*
X498000D01*
X492000Y60000D02*
X498000D01*
Y80000D02*
X502000Y76000D01*
X498000Y60000D02*
X502000Y64000D01*
Y76000D01*
X183000Y25000D02*
X193000Y35000D01*
Y130000D01*
X254157Y111000D02*
Y147000D01*
X193000Y130000D02*
X198000Y135000D01*
X222158D01*
X193000Y140000D02*
X198000Y135000D01*
X222158D02*
X231157Y144000D01*
Y150000D01*
X193000Y140000D02*
Y159000D01*
X214244Y147087D02*
Y154087D01*
X254311Y147153D02*
Y159846D01*
X231157Y150000D02*
X241158Y160000D01*
X247772D01*
X193000Y159000D02*
X199000Y165000D01*
X214244Y154087D02*
X233842Y173685D01*
X199000Y165000D02*
X206157D01*
X233842Y173685D02*
X258157D01*
X206157Y184685D02*
X258157D01*
X254157Y44071D02*
X279071D01*
X303000Y68000D01*
X261157Y160000D02*
Y170685D01*
X274543Y160000D02*
Y171299D01*
X258157Y173685D02*
X261157Y170685D01*
X264158Y173685D01*
X272158D02*
X274543Y171299D01*
X264158Y173685D02*
X272158D01*
X294158Y174000D02*
X306315D01*
X258157Y173685D02*
X261157Y176685D01*
Y181685D01*
X283157Y185000D02*
X294158Y174000D01*
X258157Y184685D02*
X261157Y181685D01*
X264472Y185000D01*
X283157D01*
X430000Y208000D02*
X437000D01*
X452000Y193000D02*
Y225000D01*
X447000Y188000D02*
X452000Y183000D01*
X430000Y188000D02*
X447000D01*
X452000Y193000D01*
X442000Y199000D02*
Y203000D01*
X437000Y208000D02*
X442000Y203000D01*
X380000Y185000D02*
Y196000D01*
X390000D01*
X402000Y208000D01*
X410000D01*
X430000D01*
X366000Y235000D02*
Y265000D01*
X301000Y379000D02*
Y384000D01*
Y379000D02*
X322000Y358000D01*
X366000Y265000D02*
X377000Y276000D01*
X386000D01*
X344000Y135000D02*
Y164000D01*
X354000D01*
X326000Y174000D02*
X354000D01*
X392126Y164000D02*
X409063Y147063D01*
X354000Y164000D02*
X392126D01*
X406000Y144000D02*
X409063Y147063D01*
X423000D01*
X406000Y134000D02*
Y144000D01*
X423233Y147296D02*
X427296D01*
X430000Y150000D01*
Y188000D01*
X354000Y174000D02*
X370000D01*
X306315D02*
X306559Y174244D01*
Y179559D01*
X380000Y174000D02*
Y185000D01*
X306559Y179559D02*
X311000Y184000D01*
X344000D01*
X172000Y375000D02*
X177000D01*
Y365000D02*
Y375000D01*
X167000Y370000D02*
X172000Y375000D01*
X279000Y367435D02*
X291282Y379718D01*
Y383718D01*
X291000Y384000D02*
X291282Y383718D01*
X177000Y320000D02*
Y330000D01*
X167000Y325000D02*
X172000Y330000D01*
X177000D01*
X167000Y335000D02*
X172000Y330000D01*
X167000Y335000D02*
Y345000D01*
X177000Y340000D02*
Y350000D01*
X167000Y345000D02*
X172000Y350000D01*
X177000D01*
X167000Y355000D02*
X172000Y350000D01*
X167000Y355000D02*
Y370000D01*
Y310000D02*
X172000Y305000D01*
X177000D01*
Y295000D02*
Y305000D01*
X167000Y310000D02*
Y325000D01*
X52000Y205000D02*
X152000D01*
X126234Y44000D02*
X152000D01*
X167998Y59998D01*
Y74002D01*
X162000Y80000D02*
X167998Y74002D01*
X156000Y80000D02*
X162000D01*
X167998Y85998D01*
X106234Y60000D02*
Y91077D01*
X87234Y89077D02*
Y99077D01*
X66234Y91077D02*
Y98077D01*
X106081Y91230D02*
Y103923D01*
X57234Y93077D02*
Y109234D01*
X87234Y99077D02*
X92234Y104077D01*
X99234D01*
X112423Y104273D02*
X112620Y104077D01*
X66234Y98077D02*
X86234Y118077D01*
X112423Y104273D02*
Y114888D01*
X109234Y118077D02*
X112423Y114888D01*
X115612Y118077D01*
X167998Y85998D02*
Y109313D01*
X126006Y104077D02*
Y114305D01*
X167998Y109313D02*
X168636Y109951D01*
X172951D01*
X178000Y115000D01*
X122234Y118077D02*
X126006Y114305D01*
X178000Y115000D02*
Y140000D01*
X167919Y129077D02*
X167998Y128998D01*
X157000Y161000D02*
X178000Y140000D01*
X157000Y161000D02*
Y175000D01*
X322000Y285000D02*
Y358000D01*
X317000Y280000D02*
X322000Y275000D01*
X317000Y280000D02*
X322000Y285000D01*
Y233000D02*
Y275000D01*
X58234Y79077D02*
X77234D01*
X50734Y86577D02*
X57234Y93077D01*
X50734Y86577D02*
X58234Y79077D01*
X77234D02*
X87234Y89077D01*
X41734Y86577D02*
X50734D01*
X37000Y81842D02*
X41734Y86577D01*
X115612Y118077D02*
X122234D01*
X86234D02*
X109234D01*
X112234Y121077D01*
Y125077D01*
X108392Y128919D02*
X112234Y125077D01*
X116234Y129077D01*
X57234Y128919D02*
X108392D01*
X116234Y129077D02*
X167919D01*
X162000Y305000D02*
X167000Y310000D01*
X41315Y184685D02*
X206157D01*
X57000Y305000D02*
X162000D01*
X157000Y195000D02*
Y200000D01*
X152000Y205000D02*
X157000Y200000D01*
D45*
X57234Y128919D02*
Y141766D01*
X49700Y149300D02*
X57234Y141766D01*
X49700Y149300D02*
Y155000D01*
X40000D02*
Y170000D01*
X146000Y150000D02*
X157000Y161000D01*
X70000Y160000D02*
X80000Y150000D01*
X146000D01*
X70000Y160000D02*
Y170000D01*
X345000Y90000D02*
X350000Y85000D01*
X355000D01*
X385000D02*
X405000D01*
X468000Y188000D02*
X472000Y192000D01*
X457000Y188000D02*
X468000D01*
X472000Y192000D02*
Y199300D01*
X452000Y183000D02*
X457000Y188000D01*
X472000Y209000D02*
Y220000D01*
X437000Y208000D02*
X442000Y213000D01*
Y220000D01*
X462000Y95000D02*
X492000D01*
X607000Y70000D02*
Y164000D01*
X551000Y173000D02*
X598000D01*
X607000Y164000D01*
X545000Y167000D02*
X551000Y173000D01*
X545000Y161000D02*
Y167000D01*
X602000Y75000D02*
Y157000D01*
X597465Y161535D02*
X602000Y157000D01*
X589653Y161535D02*
X597465D01*
X545000Y161000D02*
X545174Y161174D01*
X555000Y161000D02*
X567174D01*
X545000Y131000D02*
X555000D01*
X589653Y75000D02*
Y95000D01*
X522000D02*
X568000D01*
X182000Y470000D02*
X232000D01*
X212000Y410000D02*
X232000D01*
X212000Y390000D02*
X232000D01*
X212000Y450000D02*
X232000D01*
X212000Y430000D02*
X232000D01*
Y450000D02*
X237000Y455000D01*
X232000Y430000D02*
X237000Y435000D01*
X232000Y410000D02*
X237000Y415000D01*
X232000Y390000D02*
X237000Y395000D01*
X232000Y470000D02*
X237000Y465000D01*
X127000Y415000D02*
X182000Y470000D01*
X127000Y405000D02*
Y415000D01*
X112000Y390000D02*
X127000Y405000D01*
X35000Y420076D02*
X56924D01*
X94000Y469000D02*
Y477000D01*
X84000Y469000D02*
Y489000D01*
X89000Y469000D02*
Y484000D01*
X94000Y477000D02*
X96000Y479000D01*
X84000Y430000D02*
Y449551D01*
X91000Y440000D02*
Y440157D01*
X99000Y433000D02*
Y449551D01*
X94000Y443157D02*
Y449551D01*
X91000Y440157D02*
X94000Y443157D01*
X96000Y479000D02*
X107000D01*
X84000Y449551D02*
Y455000D01*
X77000Y462000D02*
X84000Y455000D01*
X66000Y411000D02*
X90000D01*
X94000Y428000D02*
X99000Y433000D01*
X56924Y420076D02*
X66000Y411000D01*
X90000D02*
X94000Y415000D01*
Y428000D01*
X84000Y499000D02*
X84643Y498357D01*
X89000Y484000D02*
X91000Y486000D01*
Y496973D01*
X89616Y498357D02*
X91000Y496973D01*
X84643Y498357D02*
X89616D01*
X242000Y390000D02*
X247000D01*
X237000Y395000D02*
X242000Y390000D01*
X237000Y395000D02*
Y405000D01*
X242000Y410000D01*
X247000D01*
X237000Y415000D02*
X242000Y410000D01*
X237000Y415000D02*
Y425000D01*
X242000Y430000D01*
X247000D01*
X237000Y435000D02*
X242000Y430000D01*
X237000Y445000D02*
X242000Y450000D01*
X237000Y435000D02*
Y445000D01*
Y455000D02*
Y465000D01*
Y455000D02*
X242000Y450000D01*
X247000D01*
X76000Y390000D02*
X112000D01*
X66000Y380000D02*
X76000Y390000D01*
X66000Y373000D02*
Y380000D01*
X63000Y370000D02*
X66000Y373000D01*
X55347Y370000D02*
X63000D01*
X66000Y367000D01*
Y356000D02*
Y367000D01*
X63000Y353000D02*
X66000Y356000D01*
X55811Y353000D02*
X63000D01*
X55347Y353465D02*
X55811Y353000D01*
X63000D02*
X66000Y350000D01*
X63071Y336929D02*
X66000Y339858D01*
Y350000D01*
X63071Y336929D02*
X66000Y334000D01*
X62394Y320394D02*
X66000Y324000D01*
Y334000D01*
X55347Y336929D02*
X63071D01*
X55347Y320394D02*
X62394D01*
X77000Y275000D02*
X187000D01*
X77000Y241929D02*
X200929D01*
X182000Y15000D02*
X417000D01*
X432000Y30000D02*
Y95000D01*
X417000Y15000D02*
X432000Y30000D01*
X622000Y65000D02*
Y220000D01*
X487000Y30000D02*
X587000D01*
X622000Y65000D01*
X587000Y40000D02*
X617000Y70000D01*
X507000Y40000D02*
X587000D01*
X617000Y70000D02*
Y215000D01*
X587000Y50000D02*
X607000Y70000D01*
X522000Y50000D02*
X587000D01*
X497000Y575000D02*
X597000D01*
X372000Y439000D02*
Y450000D01*
X497000Y575000D01*
X406000Y444000D02*
Y469000D01*
X502000Y565000D02*
X597000D01*
X406000Y469000D02*
X502000Y565000D01*
X507000Y555000D02*
X597000D01*
X416000Y444000D02*
Y464000D01*
X507000Y555000D01*
X482000Y521000D02*
X608000D01*
X426000Y444000D02*
Y465000D01*
X482000Y521000D01*
X446000Y444000D02*
Y454000D01*
X457000Y465000D02*
X597000D01*
X446000Y454000D02*
X457000Y465000D01*
X436000Y444000D02*
Y459000D01*
X452000Y475000D02*
X597000D01*
X436000Y459000D02*
X452000Y475000D01*
X625000Y518000D02*
Y569000D01*
X597000Y490000D02*
X625000Y518000D01*
X597000Y485000D02*
Y490000D01*
X567000Y455000D02*
X587000Y435000D01*
X456000Y452000D02*
X459000Y455000D01*
X567000D01*
X456000Y444000D02*
Y452000D01*
X587000Y435000D02*
X612000D01*
X577000Y430000D02*
X606921Y400079D01*
X547000Y430000D02*
X577000D01*
X606921Y395079D02*
X607000Y395000D01*
X606921Y395079D02*
Y400079D01*
X557000Y405000D02*
Y410000D01*
X542000Y425000D02*
X557000Y410000D01*
X529000Y425000D02*
X542000D01*
X525000Y415000D02*
Y421000D01*
X529000Y425000D01*
X557000Y405000D02*
X567000D01*
X577000Y395000D01*
X597000D01*
X562000D02*
X572000Y385000D01*
X597000D01*
X562000Y365000D02*
X572000Y375000D01*
X597000D01*
X535000Y355000D02*
X567000D01*
X597000Y305000D02*
Y315000D01*
X567000Y345000D02*
X597000Y315000D01*
X557000Y345000D02*
X567000D01*
X577000Y305000D02*
X587000Y295000D01*
X597000D01*
X577000Y305000D02*
Y310000D01*
X567000Y300000D02*
Y310000D01*
X582000Y285000D02*
X597000D01*
X567000Y300000D02*
X582000Y285000D01*
X607000Y305000D02*
Y315000D01*
X567000Y355000D02*
X607000Y315000D01*
X552000Y290000D02*
Y315000D01*
Y290000D02*
X622000Y220000D01*
X547000Y285000D02*
X617000Y215000D01*
X547000Y285000D02*
Y302000D01*
X542000Y325000D02*
X552000Y315000D01*
X544000Y305000D02*
X547000Y302000D01*
X535000Y305000D02*
X544000D01*
X522000Y60000D02*
X587000D01*
X602000Y75000D01*
X584654Y70000D02*
X589653Y75000D01*
X522000Y70000D02*
X584654D01*
X607000Y485000D02*
X612000D01*
X617000Y440000D02*
Y480000D01*
X612000Y485000D02*
X617000Y480000D01*
X612000Y435000D02*
X617000Y440000D01*
X535000Y365000D02*
X562000D01*
X535000Y395000D02*
X562000D01*
X472000Y45000D02*
X487000Y30000D01*
X497000Y50000D02*
X507000Y40000D01*
X482000Y70000D02*
X492000D01*
X472000Y50000D02*
Y60000D01*
Y45000D02*
Y50000D01*
Y60000D02*
X482000Y70000D01*
X506000Y80000D02*
X522000D01*
X482000Y50000D02*
X492000D01*
X497000D01*
X502000Y76000D02*
X506000Y80000D01*
X172951Y109951D02*
X182000Y100901D01*
Y40000D02*
Y100901D01*
X217000Y295000D02*
X227000D01*
X217000Y305000D02*
X237000D01*
X202000Y290000D02*
Y335000D01*
X237000Y315000D02*
X240000Y312000D01*
X210071Y318071D02*
X212000Y320000D01*
X192000Y280000D02*
Y359000D01*
X212000Y320000D02*
X217000D01*
X227000D01*
X237000Y315000D02*
Y330000D01*
X214158Y147000D02*
X214244Y147087D01*
X254157Y147000D02*
X254311Y147153D01*
X206000Y184843D02*
X206157Y184685D01*
X275157Y138000D02*
X285157D01*
X273000D02*
X275157D01*
X267850Y143150D02*
X273000Y138000D01*
X287000D02*
Y144000D01*
X291000Y148000D01*
X305157D01*
X274850Y148307D02*
X275157Y148000D01*
X267850Y143150D02*
Y160000D01*
X274850Y148307D02*
Y159693D01*
X274543Y160000D02*
X274850Y159693D01*
X254311Y159846D02*
X254465Y160000D01*
X227000Y242000D02*
Y295000D01*
X201535Y262535D02*
Y289535D01*
X210071Y251071D02*
Y318071D01*
X201535Y289535D02*
X202000Y290000D01*
X270000Y263000D02*
Y292000D01*
X284000Y285000D02*
X289000Y280000D01*
X284000Y285000D02*
Y302000D01*
X267000Y295000D02*
X270000Y292000D01*
X247000Y295000D02*
X262000D01*
X292000D02*
X297000D01*
X262000D02*
X267000D01*
X270000Y298000D01*
X297000Y295000D02*
X302000Y300000D01*
X284000Y302000D02*
X287000Y305000D01*
X237000D02*
X262000D01*
X287000D02*
X292000D01*
X284000Y308000D02*
X287000Y305000D01*
X270000Y298000D02*
Y322000D01*
X284000Y308000D02*
Y312000D01*
X240000D02*
X254000D01*
X257000Y315000D01*
X284000Y312000D02*
X287000Y315000D01*
X257000D02*
X262000D01*
X287000D02*
X292000D01*
X284000Y318000D02*
X287000Y315000D01*
X247000Y320000D02*
X252000D01*
X257000Y325000D01*
X267000D02*
X270000Y322000D01*
X206000Y184843D02*
Y199000D01*
X192000Y213000D02*
X206000Y199000D01*
X187000Y275000D02*
X192000Y280000D01*
X206000Y199000D02*
X270000Y263000D01*
X210394Y225394D02*
X227000Y242000D01*
X197465Y258465D02*
X201535Y262535D01*
X200929Y241929D02*
X210071Y251071D01*
X286000Y421101D02*
Y428000D01*
X608000Y521000D02*
X617000Y530000D01*
Y570000D01*
X599000Y582000D02*
X612000D01*
Y575000D02*
X617000Y570000D01*
X597000Y580000D02*
X599000Y582000D01*
X597000Y575000D02*
Y580000D01*
X607000Y575000D02*
X612000D01*
X420000Y185000D02*
Y196000D01*
X370000Y174000D02*
Y208000D01*
X406000Y174000D02*
X415000D01*
X542000Y345000D02*
X577000Y310000D01*
X542000Y335000D02*
X567000Y310000D01*
X535000Y405000D02*
X547000D01*
X535000Y325000D02*
X542000D01*
X535000Y335000D02*
X542000D01*
X535000Y345000D02*
X542000D01*
X372000Y439000D02*
X377000Y434000D01*
X386000D01*
X342000Y315000D02*
X357000D01*
X342000Y325000D02*
X357000D01*
X342000Y335000D02*
X357000D01*
X342000Y345000D02*
X357000D01*
X302000D02*
Y360000D01*
X317000Y138000D02*
Y170843D01*
X320158Y174000D01*
X326000D01*
X423000Y147063D02*
X423233Y147296D01*
X415000Y174000D02*
X423000Y166000D01*
Y154937D02*
Y166000D01*
X390000Y174000D02*
X406000D01*
X415000D02*
X419357Y178357D01*
Y184357D01*
X420000Y185000D01*
X262000Y325000D02*
X267000D01*
X257000D02*
X262000D01*
X267000D02*
X270000Y328000D01*
X267000Y335000D02*
X270000Y332000D01*
X262000Y335000D02*
X267000D01*
X257000D02*
X262000D01*
X267000D02*
X270000Y338000D01*
X252000Y340000D02*
X257000Y335000D01*
X247000Y340000D02*
X252000D01*
X257000Y345000D02*
X262000D01*
X252000Y350000D02*
X257000Y345000D01*
X217000Y330000D02*
X237000D01*
X202000Y335000D02*
X207000Y340000D01*
X217000D02*
X227000D01*
X207000D02*
X217000D01*
Y350000D02*
X237000D01*
X192000Y359000D02*
X198000Y365000D01*
X217000D02*
X227000D01*
X198000D02*
X217000D01*
Y375000D02*
X237000D01*
Y350000D02*
X252000D01*
X242000Y355000D02*
X262000D01*
X237000Y360000D02*
X242000Y355000D01*
X267000Y365000D02*
X270000Y362000D01*
X262000Y365000D02*
X267000D01*
X247000D02*
X262000D01*
X237000Y360000D02*
Y375000D01*
X292000Y325000D02*
X302000D01*
X270000Y328000D02*
Y332000D01*
X284000Y318000D02*
Y342000D01*
X292000Y335000D02*
X302000D01*
X284000Y342000D02*
X287000Y345000D01*
X292000D01*
X284000Y348000D02*
X287000Y345000D01*
X270000Y338000D02*
Y362000D01*
X284000Y348000D02*
Y352000D01*
X287000Y355000D01*
X292000D01*
X297000Y365000D02*
X302000Y360000D01*
X292000Y365000D02*
X297000D01*
X291000Y384000D02*
Y390000D01*
X286000Y395000D02*
X291000Y390000D01*
X286000Y395000D02*
Y402519D01*
X77000Y225394D02*
X210394D01*
X55347Y275000D02*
X62000D01*
X65000Y272000D01*
Y262000D02*
Y272000D01*
X62000Y259000D02*
X65000Y262000D01*
X55882Y259000D02*
X62000D01*
X55347Y258465D02*
X55882Y259000D01*
X65000Y245000D02*
Y256000D01*
X61929Y241929D02*
X65000Y238858D01*
X61929Y241929D02*
X65000Y245000D01*
X155923Y91234D02*
X156000Y91158D01*
X122000Y80000D02*
X126000D01*
X135000D01*
X119313Y82687D02*
X122000Y80000D01*
X135000D02*
X146234Y91234D01*
X119313Y82687D02*
Y104077D01*
X106081Y91230D02*
X106234Y91077D01*
X105927Y104077D02*
X106081Y103923D01*
X146234Y91234D02*
X155923D01*
X125923D02*
X125965Y91275D01*
Y104035D01*
X126006Y104077D01*
X612000Y582000D02*
X625000Y569000D01*
X302000Y300000D02*
Y315000D01*
X289000Y280000D02*
X317000D01*
X77000Y258465D02*
X197465D01*
X70000Y213000D02*
X192000D01*
X65000Y218000D02*
X70000Y213000D01*
X62000Y259000D02*
X65000Y256000D01*
X55740Y225000D02*
X62000D01*
X55347Y241929D02*
X61929D01*
X65000Y218000D02*
Y222000D01*
Y228000D02*
Y238858D01*
X62000Y225000D02*
X65000Y222000D01*
X55347Y225394D02*
X55740Y225000D01*
X62000D02*
X65000Y228000D01*
D46*
X113528Y418000D02*
D03*
X84000D02*
D03*
X416000Y444000D02*
D03*
X396000Y434000D02*
D03*
X386000Y444000D02*
D03*
X396000D02*
D03*
X426000D02*
D03*
X436000D02*
D03*
X446000D02*
D03*
X456000D02*
D03*
X466000D02*
D03*
X476000D02*
D03*
X486000D02*
D03*
X496000D02*
D03*
X506000D02*
D03*
X406000D02*
D03*
X416000Y434000D02*
D03*
X426000D02*
D03*
X436000D02*
D03*
X446000D02*
D03*
X456000D02*
D03*
X466000D02*
D03*
X476000D02*
D03*
X486000D02*
D03*
X496000D02*
D03*
X506000D02*
D03*
X406000D02*
D03*
X35000Y420076D02*
D03*
X522000Y60000D02*
D03*
Y70000D02*
D03*
X492000D02*
D03*
Y60000D02*
D03*
Y50000D02*
D03*
Y80000D02*
D03*
X522000D02*
D03*
X367000Y315000D02*
D03*
Y415000D02*
D03*
Y405000D02*
D03*
Y395000D02*
D03*
Y385000D02*
D03*
Y375000D02*
D03*
Y365000D02*
D03*
Y355000D02*
D03*
Y345000D02*
D03*
Y335000D02*
D03*
Y325000D02*
D03*
X357000Y315000D02*
D03*
Y415000D02*
D03*
Y405000D02*
D03*
Y395000D02*
D03*
Y385000D02*
D03*
Y375000D02*
D03*
Y365000D02*
D03*
Y355000D02*
D03*
Y345000D02*
D03*
Y335000D02*
D03*
Y305000D02*
D03*
Y295000D02*
D03*
X367000Y305000D02*
D03*
X357000Y325000D02*
D03*
X486000Y276000D02*
D03*
X386000D02*
D03*
X396000D02*
D03*
X406000D02*
D03*
X416000D02*
D03*
X426000D02*
D03*
X436000D02*
D03*
X446000D02*
D03*
X456000D02*
D03*
X466000D02*
D03*
X476000D02*
D03*
X486000Y266000D02*
D03*
X386000D02*
D03*
X396000D02*
D03*
X406000D02*
D03*
X416000D02*
D03*
X426000D02*
D03*
X436000D02*
D03*
X446000D02*
D03*
X456000D02*
D03*
X466000D02*
D03*
X496000D02*
D03*
X506000D02*
D03*
X496000Y276000D02*
D03*
X476000Y266000D02*
D03*
X525000Y395000D02*
D03*
Y295000D02*
D03*
Y305000D02*
D03*
Y315000D02*
D03*
Y325000D02*
D03*
Y335000D02*
D03*
Y345000D02*
D03*
Y355000D02*
D03*
Y365000D02*
D03*
Y375000D02*
D03*
Y385000D02*
D03*
X535000Y395000D02*
D03*
Y295000D02*
D03*
Y305000D02*
D03*
Y315000D02*
D03*
Y325000D02*
D03*
Y335000D02*
D03*
Y345000D02*
D03*
Y355000D02*
D03*
Y365000D02*
D03*
Y375000D02*
D03*
Y405000D02*
D03*
Y415000D02*
D03*
X525000Y405000D02*
D03*
X535000Y385000D02*
D03*
X306315Y174000D02*
D03*
X423000Y147063D02*
D03*
X57234Y128919D02*
D03*
X167998Y128998D02*
D03*
X206157Y184685D02*
D03*
X247000Y295000D02*
D03*
X227000D02*
D03*
X237000Y305000D02*
D03*
X247000Y320000D02*
D03*
X227000D02*
D03*
X237000Y330000D02*
D03*
X262000Y295000D02*
D03*
Y305000D02*
D03*
Y315000D02*
D03*
X292000D02*
D03*
Y305000D02*
D03*
Y325000D02*
D03*
Y335000D02*
D03*
X262000D02*
D03*
Y325000D02*
D03*
X292000Y345000D02*
D03*
Y355000D02*
D03*
X262000D02*
D03*
Y345000D02*
D03*
Y365000D02*
D03*
X292000D02*
D03*
X247000Y340000D02*
D03*
X227000D02*
D03*
X237000Y350000D02*
D03*
X247000Y365000D02*
D03*
X227000D02*
D03*
X237000Y375000D02*
D03*
D47*
X34000Y545000D02*
D03*
D48*
X44000Y549016D02*
D03*
X34000Y553031D02*
D03*
X44000Y557047D02*
D03*
X34000Y561063D02*
D03*
X44000Y565079D02*
D03*
X34000Y569095D02*
D03*
X44000Y573110D02*
D03*
D49*
X24945Y588583D02*
D03*
Y529528D02*
D03*
D50*
X40000Y170000D02*
D03*
X70000D02*
D03*
X40000Y155000D02*
D03*
X385000Y85000D02*
D03*
X355000D02*
D03*
X405000D02*
D03*
X472000Y209000D02*
D03*
Y220000D02*
D03*
X442000D02*
D03*
X522000Y95000D02*
D03*
X492000D02*
D03*
X227000Y460000D02*
D03*
X257000D02*
D03*
X227000Y440000D02*
D03*
X257000D02*
D03*
X227000Y420000D02*
D03*
X257000D02*
D03*
X227000Y400000D02*
D03*
X257000D02*
D03*
X212000Y390000D02*
D03*
X182000D02*
D03*
X212000Y410000D02*
D03*
X182000D02*
D03*
X212000Y430000D02*
D03*
X182000D02*
D03*
X212000Y450000D02*
D03*
X182000D02*
D03*
X61000Y440000D02*
D03*
X91000D02*
D03*
X84000Y499000D02*
D03*
X114000D02*
D03*
X77000Y479000D02*
D03*
X107000D02*
D03*
X84000Y489000D02*
D03*
X114000D02*
D03*
X247000Y450000D02*
D03*
X257000D02*
D03*
X247000Y430000D02*
D03*
X257000D02*
D03*
X247000Y410000D02*
D03*
X257000D02*
D03*
X247000Y390000D02*
D03*
X257000D02*
D03*
X545000Y161000D02*
D03*
Y131000D02*
D03*
X555000D02*
D03*
Y161000D02*
D03*
X462000Y30000D02*
D03*
Y20000D02*
D03*
X472000D02*
D03*
Y50000D02*
D03*
X482000Y20000D02*
D03*
Y50000D02*
D03*
X462000Y95000D02*
D03*
X432000D02*
D03*
X305157Y148000D02*
D03*
X275157D02*
D03*
X287000Y138000D02*
D03*
X317000D02*
D03*
X354000Y164000D02*
D03*
Y174000D02*
D03*
X380000Y185000D02*
D03*
X420000D02*
D03*
X406000Y174000D02*
D03*
Y134000D02*
D03*
X430000Y188000D02*
D03*
Y208000D02*
D03*
X302000Y315000D02*
D03*
X342000D02*
D03*
Y335000D02*
D03*
X302000D02*
D03*
X286000Y395000D02*
D03*
X306000D02*
D03*
X302000Y325000D02*
D03*
X342000D02*
D03*
X302000Y345000D02*
D03*
X342000D02*
D03*
X155923Y91234D02*
D03*
X125923D02*
D03*
X126000Y80000D02*
D03*
X156000D02*
D03*
X177000Y320000D02*
D03*
X217000D02*
D03*
X177000Y305000D02*
D03*
X217000D02*
D03*
X177000Y295000D02*
D03*
X217000D02*
D03*
X177000Y340000D02*
D03*
X217000D02*
D03*
X177000Y330000D02*
D03*
X217000D02*
D03*
X177000Y350000D02*
D03*
X217000D02*
D03*
X177000Y365000D02*
D03*
X217000D02*
D03*
X177000Y375000D02*
D03*
X217000D02*
D03*
X301000Y384000D02*
D03*
X291000D02*
D03*
X296000Y428000D02*
D03*
X286000D02*
D03*
D51*
X49700Y155000D02*
D03*
D52*
X405000Y75300D02*
D03*
X472000Y199300D02*
D03*
D53*
X152000Y320000D02*
D03*
X112000D02*
D03*
X146000Y337000D02*
D03*
X106000D02*
D03*
X134000Y370000D02*
D03*
X94000D02*
D03*
X140000Y353000D02*
D03*
X100000D02*
D03*
X379126Y50000D02*
D03*
X387000D02*
D03*
X396843D02*
D03*
D54*
X607000Y265000D02*
D03*
X597000D02*
D03*
X607000Y275000D02*
D03*
X597000D02*
D03*
X607000Y285000D02*
D03*
X597000D02*
D03*
X607000Y295000D02*
D03*
X597000D02*
D03*
X607000Y305000D02*
D03*
Y535000D02*
D03*
X597000D02*
D03*
X607000Y545000D02*
D03*
X597000D02*
D03*
X607000Y555000D02*
D03*
X597000D02*
D03*
X607000Y565000D02*
D03*
X597000D02*
D03*
X607000Y575000D02*
D03*
Y445000D02*
D03*
X597000D02*
D03*
X607000Y455000D02*
D03*
X597000D02*
D03*
X607000Y465000D02*
D03*
X597000D02*
D03*
X607000Y475000D02*
D03*
X597000D02*
D03*
X607000Y485000D02*
D03*
Y395000D02*
D03*
X597000Y385000D02*
D03*
X607000D02*
D03*
X597000Y375000D02*
D03*
X607000D02*
D03*
X597000Y365000D02*
D03*
X607000D02*
D03*
X597000Y355000D02*
D03*
X607000D02*
D03*
X336000Y235000D02*
D03*
X346000D02*
D03*
X356000D02*
D03*
X366000D02*
D03*
X376000D02*
D03*
X126234Y60000D02*
D03*
X106234Y44000D02*
D03*
X126234D02*
D03*
X106234Y60000D02*
D03*
D55*
X386000Y235000D02*
D03*
D56*
X55347Y320394D02*
D03*
X589653Y111535D02*
D03*
Y161535D02*
D03*
X55347Y225394D02*
D03*
D57*
X77000Y320394D02*
D03*
X55347Y336929D02*
D03*
X77000D02*
D03*
X55347Y353465D02*
D03*
X77000D02*
D03*
X55347Y370000D02*
D03*
X77000D02*
D03*
X568000Y111535D02*
D03*
X589653Y95000D02*
D03*
X568000D02*
D03*
Y161535D02*
D03*
X589653Y145000D02*
D03*
X568000D02*
D03*
X77000Y225394D02*
D03*
X55347Y241929D02*
D03*
X77000D02*
D03*
X55347Y258465D02*
D03*
X77000D02*
D03*
X55347Y275000D02*
D03*
X77000D02*
D03*
D58*
X53000Y479918D02*
D03*
X67476Y494394D02*
D03*
X53000Y508871D02*
D03*
X38524Y494394D02*
D03*
X84000Y430000D02*
D03*
X124000D02*
D03*
X370000Y208000D02*
D03*
X410000D02*
D03*
X380000Y196000D02*
D03*
X420000D02*
D03*
X106234Y91077D02*
D03*
X66234D02*
D03*
D59*
X35000Y439761D02*
D03*
X367000Y295000D02*
D03*
X525000Y415000D02*
D03*
X423000Y154937D02*
D03*
X57234Y109234D02*
D03*
X167998Y109313D02*
D03*
X206157Y165000D02*
D03*
D60*
X597000Y305000D02*
D03*
Y575000D02*
D03*
Y485000D02*
D03*
Y395000D02*
D03*
D61*
X369284Y50000D02*
D03*
D62*
X357197Y39331D02*
D03*
X408929D02*
D03*
D63*
X332000Y40000D02*
D03*
X20000Y20000D02*
D03*
Y615000D02*
D03*
X624000Y20000D02*
D03*
Y615000D02*
D03*
D64*
X386000Y434000D02*
D03*
X522000Y50000D02*
D03*
X506000Y276000D02*
D03*
X326000Y174000D02*
D03*
X292000Y295000D02*
D03*
D65*
X390000Y174000D02*
D03*
X380000D02*
D03*
X370000D02*
D03*
D66*
X380000Y108567D02*
D03*
X112620Y172777D02*
D03*
X261157Y228700D02*
D03*
D67*
X112620Y104077D02*
D03*
X119313D02*
D03*
X126006D02*
D03*
X105927D02*
D03*
X99234D02*
D03*
X247772Y160000D02*
D03*
X254465D02*
D03*
X274543D02*
D03*
X267850D02*
D03*
X261157D02*
D03*
D68*
X214158Y147000D02*
D03*
X254157D02*
D03*
D69*
X58000Y565000D02*
D03*
X90000Y549000D02*
D03*
X58000Y533000D02*
D03*
Y541000D02*
D03*
X95000Y533000D02*
D03*
X85000Y541000D02*
D03*
X58000Y549000D02*
D03*
X115000Y565000D02*
D03*
X322000Y385000D02*
D03*
Y395000D02*
D03*
X332000Y365000D02*
D03*
Y380000D02*
D03*
X342000Y385000D02*
D03*
Y395000D02*
D03*
D70*
X430000Y225000D02*
D03*
X547000Y430000D02*
D03*
X557000Y345000D02*
D03*
Y405000D02*
D03*
X182000Y15000D02*
D03*
Y40000D02*
D03*
X344000Y164000D02*
D03*
Y184000D02*
D03*
X442000Y199000D02*
D03*
Y178000D02*
D03*
X402000Y225000D02*
D03*
X547000Y405000D02*
D03*
X157000Y175000D02*
D03*
Y195000D02*
D03*
D71*
X84000Y469000D02*
D03*
X89000D02*
D03*
X94000D02*
D03*
X99000D02*
D03*
Y449551D02*
D03*
X94000D02*
D03*
X89000D02*
D03*
X84000D02*
D03*
D72*
X307000Y403000D02*
D03*
Y405600D02*
D03*
Y408000D02*
D03*
Y410600D02*
D03*
Y413000D02*
D03*
Y415600D02*
D03*
Y418000D02*
D03*
Y420600D02*
D03*
X286000D02*
D03*
Y418000D02*
D03*
Y415600D02*
D03*
Y413000D02*
D03*
Y410600D02*
D03*
Y408000D02*
D03*
Y405600D02*
D03*
Y403000D02*
D03*
D73*
X254157Y44071D02*
D03*
Y111000D02*
D03*
M02*
