M48
;Layer_Color=9474304
;FILE_FORMAT=2:4
INCH,TZ
;TYPE=PLATED
T1F00S00C0.0200
T2F00S00C0.0280
T3F00S00C0.0300
T4F00S00C0.0320
T5F00S00C0.0394
T6F00S00C0.0400
T7F00S00C0.0591
T8F00S00C0.0630
T9F00S00C0.0906
T10F00S00C0.1181
T11F00S00C0.1280
T12F00S00C0.1378
;TYPE=NON_PLATED
T13F00S00C0.0929
%
T01
X11200Y32000
X10600Y33700
X10000Y35300
X14000
X14600Y33700
X15200Y32000
X13400Y37000
X9400
X32200Y38500
Y39500
X34200
Y38500
X33200Y38000
Y36500
X9500Y53300
X8500Y54100
X9000Y54900
X5800
Y54100
Y53300
Y56500
X11500
X4400Y56508
Y55705
Y54902
X3400Y54500
Y55303
Y56106
Y56909
X4400Y57311
T02
X18200Y1500
Y4000
X34400Y16400
Y18400
X44200Y17800
Y19900
X55700Y34500
X43000Y22500
X40200
X54700Y40500
X55700
X54700Y43000
T03
X36928Y5000
X37913
X38700
X39684
X49200
X52200
X16800Y10931
Y12900
X15700Y17500
Y19500
X20616Y18469
Y16500
X5723Y12892
Y10923
X30631Y17400
X32600
X42300Y15494
Y14706
X49200Y8000
Y7000
Y6000
X52200
Y7000
Y8000
X3500Y42008
Y43976
X5300Y47992
X3852Y49439
X5300Y50887
X6748Y49439
X8400Y49900
Y48900
X7700Y47900
X10700
X11400Y48900
Y49900
X12400Y43000
X11353Y41800
X8400
Y43000
X9100Y44000
X6100
T04
X46200Y2000
Y3000
X47200Y2000
X48200
Y5000
X47200
X4970Y15500
X4000
Y17000
X7000
X12592Y9123
X12600Y8000
X15600
X15592Y9123
X27516Y14800
X28700Y13800
X30516Y14800
X31700Y13800
X35400Y16400
Y17400
X35500Y8500
X38500
X40500
Y7530
X43200Y9500
X46200
X49200
X52200
X47200Y19930
X43000Y20800
Y18800
X42000Y18500
X40600Y17400
X38000Y18500
X40600Y13400
X54500Y13100
X55500
Y16100
X54500
X47200Y20900
Y22000
X44200
X34200Y31500
Y32500
Y33500
Y34500
X30200
Y33500
Y32500
Y31500
X29200
Y30500
Y29500
X26200
Y30500
Y31500
Y32500
Y33500
Y34500
Y35500
X29200
Y34500
Y33500
Y32500
X24700Y32000
X22700
X21700
Y33000
Y34000
Y35000
X22700Y34000
X23700Y33000
X24700Y34000
X23700Y35000
Y30500
X21700
Y29500
X22700
X24700
X17700
Y30500
Y32000
Y33000
Y34000
Y35000
Y36500
Y37500
X18200Y39000
Y41000
Y43000
Y45000
X21200
Y43000
Y41000
Y39000
X21700Y37500
Y36500
X22700
X24700
X26200
X25700Y39000
Y40000
Y41000
Y42000
Y43000
Y44000
Y45000
Y46000
X24700Y45000
Y43000
Y41000
Y39000
X23700Y37500
X22700Y40000
Y42000
Y44000
Y46000
X28600Y42800
X29600
X28600Y39500
X29100Y38400
X30100
X30600Y39500
X29200Y36500
T05
X10623Y4400
X12623
Y6000
X10623
T06
X6623Y9108
X10623
X10593Y10408
X11262
X11931
X12601
X9923
X24777Y16000
X25446
X26116
X26785
X27454
X37000Y17400
X38000
X39000
X38000Y19600
X37000Y20800
X41000
X42000Y19600
X52500Y29500
Y30500
Y31500
Y32500
Y33500
Y34500
Y35500
X53500
Y34500
Y33500
Y32500
Y31500
Y30500
Y29500
X59700
Y28500
Y27500
Y26500
X60700
Y27500
Y28500
Y29500
Y30500
X59700
Y35500
X60700
X50600Y27600
Y26600
X49600
X48600
Y27600
X47600
X46600
X45600
X44600
X43600
X42600
X41600
X40600
X39600
X38600
Y26600
X39600
X40600
X41600
X42600
X43600
X44600
X45600
X46600
X47600
X49600Y27600
X36700Y29500
Y30500
Y31500
Y32500
Y33500
Y34500
Y35500
X37600Y23500
X38600
X36600
X35600
X34600
X33600
X35700Y29500
Y30500
Y31500
Y32500
Y33500
Y34500
Y35500
Y36500
Y37500
Y38500
Y39500
Y40500
Y41500
X36700
Y40500
Y39500
Y38500
Y37500
Y36500
X38600Y43400
X39600
Y44400
X38600
X40600
X41600
X42600
X43600
X44600
X45600
X46600
X47600
X48600
X49600
X50600
Y43400
X49600
X48600
X47600
X46600
X45600
X44600
X43600
X42600
X41600
X40600
X52500Y41500
X53500
Y40500
Y39500
X52500
Y38500
Y37500
Y36500
X53500
Y37500
Y38500
X52500Y40500
X59700Y39500
X60700
Y38500
X59700
Y37500
X60700
Y36500
X59700
Y44500
X60700
Y45500
X59700
Y46500
X60700
Y47500
X59700
Y48500
X60700
Y53500
X59700
Y54500
X60700
Y55500
X59700
Y56500
X60700
Y57500
X59700
T07
X21416Y14700
X25416
T08
X56800Y9500
Y11154
X58965
Y9500
Y14500
Y16154
X56800
Y14500
X7700Y22539
Y24193
Y25846
Y27500
X5535
Y25846
Y24193
Y22539
Y32039
Y33693
Y35346
X7700
Y33693
Y32039
Y37000
X5535
T09
X40893Y3933
X35720
T10
X11262Y17278
X26116Y22870
T11
X38000Y10857
T12
X62400Y2000
X33200Y4000
X2000Y2000
X62400Y61500
X2000
T13
X2494Y52953
Y58858
M30
