G04*
G04 #@! TF.GenerationSoftware,Altium Limited,Altium Designer,21.5.1 (32)*
G04*
G04 Layer_Color=16711935*
%FSLAX25Y25*%
%MOIN*%
G70*
G04*
G04 #@! TF.SameCoordinates,C97E674D-CBD0-4417-8129-BB80065031B2*
G04*
G04*
G04 #@! TF.FilePolarity,Positive*
G04*
G01*
G75*
%ADD11C,0.00787*%
%ADD15C,0.00500*%
%ADD75C,0.00000*%
D11*
X55740Y307205D02*
X54953D01*
X55740D01*
X82819Y475181D02*
X82032D01*
X82819D01*
X597394Y327559D02*
X596606D01*
X597394D01*
Y597559D02*
X596606D01*
X597394D01*
Y507559D02*
X596606D01*
X597394D01*
Y417559D02*
X596606D01*
X597394D01*
X590047Y124724D02*
X589260D01*
X590047D01*
Y174724D02*
X589260D01*
X590047D01*
X55740Y212205D02*
X54953D01*
X55740D01*
D15*
X-165Y380630D02*
X51016D01*
Y309764D02*
Y380630D01*
X-165Y309764D02*
X51016D01*
X-165D02*
Y380630D01*
Y309764D02*
Y380630D01*
X81845Y451598D02*
Y466953D01*
X101155Y451598D02*
Y466953D01*
X81845D02*
X101155D01*
X81845Y451598D02*
X101155D01*
X620000Y245000D02*
Y325000D01*
Y245000D02*
Y325000D01*
X584000D02*
X620000D01*
X584000Y245000D02*
Y325000D01*
Y245000D02*
X620000D01*
Y515000D02*
Y595000D01*
Y515000D02*
Y595000D01*
X584000D02*
X620000D01*
X584000Y515000D02*
Y595000D01*
Y515000D02*
X620000D01*
X357217Y53976D02*
X408910D01*
Y-1142D02*
Y53976D01*
X357217Y-1142D02*
X408910D01*
X357217D02*
Y53976D01*
X620000Y425000D02*
Y505000D01*
Y425000D02*
Y505000D01*
X584000D02*
X620000D01*
X584000Y425000D02*
Y505000D01*
Y425000D02*
X620000D01*
X584000Y335000D02*
X620000D01*
X584000D02*
Y415000D01*
X620000D01*
Y335000D02*
Y415000D01*
Y335000D02*
Y415000D01*
X593984Y84370D02*
X645165D01*
X593984D02*
Y122165D01*
X645165D01*
Y84370D02*
Y122165D01*
Y84370D02*
Y122165D01*
X593984Y134370D02*
X645165D01*
X593984D02*
Y172165D01*
X645165D01*
Y134370D02*
Y172165D01*
Y134370D02*
Y172165D01*
X-165Y285630D02*
X51016D01*
Y214764D02*
Y285630D01*
X-165Y214764D02*
X51016D01*
X-165D02*
Y285630D01*
Y214764D02*
Y285630D01*
D75*
X297700Y402000D02*
X297348Y402848D01*
X296500Y403200D01*
X295652Y402848D01*
X295300Y402000D01*
X288600D02*
Y421600D01*
Y402000D02*
X295300D01*
X297700D01*
X304400D01*
Y421600D01*
X288600D02*
X304400D01*
Y402500D02*
X308700D01*
Y403600D01*
X304400D02*
X308700D01*
X304400Y402500D02*
Y403600D01*
Y405000D02*
X308700D01*
Y406100D01*
X304400D02*
X308700D01*
X304400Y405000D02*
Y406100D01*
Y407500D02*
X308700D01*
Y408600D01*
X304400D02*
X308700D01*
X304400Y407500D02*
Y408600D01*
Y410000D02*
X308700D01*
Y411100D01*
X304400D02*
X308700D01*
X304400Y410000D02*
Y411100D01*
Y412500D02*
X308700D01*
Y413600D01*
X304400D02*
X308700D01*
X304400Y412500D02*
Y413600D01*
Y415000D02*
X308700D01*
Y416100D01*
X304400D02*
X308700D01*
X304400Y415000D02*
Y416100D01*
Y417500D02*
X308700D01*
Y418600D01*
X304400D02*
X308700D01*
X304400Y417500D02*
Y418600D01*
Y420000D02*
X308700D01*
Y421100D01*
X304400D02*
X308700D01*
X304400Y420000D02*
Y421100D01*
X284300D02*
X288600D01*
X284300Y420000D02*
Y421100D01*
Y420000D02*
X288600D01*
Y421100D01*
X284300Y418600D02*
X288600D01*
X284300Y417500D02*
Y418600D01*
Y417500D02*
X288600D01*
Y418600D01*
X284300Y416100D02*
X288600D01*
X284300Y415000D02*
Y416100D01*
Y415000D02*
X288600D01*
Y416100D01*
X284300Y413600D02*
X288600D01*
X284300Y412500D02*
Y413600D01*
Y412500D02*
X288600D01*
Y413600D01*
X284300Y411100D02*
X288600D01*
X284300Y410000D02*
Y411100D01*
Y410000D02*
X288600D01*
Y411100D01*
X284300Y408600D02*
X288600D01*
X284300Y407500D02*
Y408600D01*
Y407500D02*
X288600D01*
Y408600D01*
X284300Y406100D02*
X288600D01*
X284300Y405000D02*
Y406100D01*
Y405000D02*
X288600D01*
Y406100D01*
X284300Y403600D02*
X288600D01*
X284300Y402500D02*
Y403600D01*
Y402500D02*
X288600D01*
Y403600D01*
M02*
