M48
;Layer_Color=9474304
;FILE_FORMAT=2:4
INCH,TZ
;TYPE=PLATED
T1F00S00C0.0280
T2F00S00C0.0295
T3F00S00C0.0300
T4F00S00C0.0320
T5F00S00C0.0380
T6F00S00C0.0394
T7F00S00C0.0400
T8F00S00C0.0402
T9F00S00C0.0500
T10F00S00C0.0709
T11F00S00C0.0906
T12F00S00C0.1181
T13F00S00C0.1280
T14F00S00C0.1378
;TYPE=NON_PLATED
T15F00S00C0.1380
%
T01
X18200Y1500
Y4000
X15700Y17500
Y19500
X34400Y18400
Y16400
X44200Y17800
Y19900
X55700Y34500
X43000Y22500
X40200
X33200Y36500
Y38000
X32200Y38500
Y39500
X34200
Y38500
X54700Y40500
X55700
X54700Y43000
T02
X11200Y32000
X10600Y33700
X10000Y35300
X14000
X14600Y33700
X15200Y32000
X13400Y37000
X9400
T03
X10623Y4400
X12623
Y6000
X10623
X5723Y10923
Y12892
X16800Y12900
Y10931
X20616Y16500
Y18469
X30631Y17400
X32600
X42300Y15494
Y14706
X3500Y42008
Y43976
T04
X46200Y2000
Y3000
X47200Y2000
X48200
Y5000
X47200
X49200
X52200
X4970Y15500
X4000
Y17000
X7000
X12592Y9123
X12600Y8000
X15600
X15592Y9123
X27516Y14800
X28700Y13800
X30516Y14800
X31700Y13800
X35400Y16400
Y17400
X35500Y8500
X38500
X40500
Y7530
X43200Y9500
X46200
X49200
Y8000
Y7000
Y6000
X52200
Y7000
Y8000
Y9500
X47200Y19930
X43000Y20800
Y18800
X42000Y18500
X40600Y17400
X38000Y18500
X40600Y13400
X54500Y13100
X55500
Y16100
X54500
X47200Y20900
Y22000
X44200
X34200Y31500
Y32500
Y33500
Y34500
X30200
Y33500
Y32500
Y31500
X29200
Y30500
Y29500
X26200
Y30500
Y31500
Y32500
Y33500
Y34500
Y35500
X29200
Y34500
Y33500
Y32500
X24700Y32000
X22700
X21700
Y33000
Y34000
Y35000
X22700Y34000
X23700Y33000
X24700Y34000
X23700Y35000
Y30500
X21700
Y29500
X22700
X24700
X17700
Y30500
Y32000
Y33000
Y34000
Y35000
Y36500
Y37500
X18200Y39000
Y41000
Y43000
Y45000
X9100Y44000
X8400Y41800
X10400
X10700Y47900
X11400Y48900
Y49900
X8400
Y48900
X7700Y47900
X6100Y44000
X21200Y43000
Y41000
Y39000
X21700Y37500
Y36500
X22700
X24700
X26200
X25700Y39000
Y40000
Y41000
Y42000
Y43000
Y44000
Y45000
Y46000
X24700Y45000
Y43000
Y41000
Y39000
X23700Y37500
X22700Y40000
Y42000
Y44000
Y46000
X21200Y45000
X28600Y42800
X29600
X28600Y39500
X29100Y38400
X30100
X30600Y39500
X29200Y36500
T05
X52500Y29500
Y30500
Y31500
Y32500
Y33500
Y34500
Y35500
X53500
Y34500
Y33500
Y32500
Y31500
Y30500
Y29500
X50600Y27600
Y26600
X49600
X48600
Y27600
X47600
X46600
X45600
X44600
X43600
X42600
X41600
X40600
X39600
X38600
Y26600
X39600
X40600
X41600
X42600
X43600
X44600
X45600
X46600
X47600
X49600Y27600
X36700Y29500
Y30500
Y31500
Y32500
Y33500
Y34500
Y35500
X35700
Y34500
Y33500
Y32500
Y31500
Y30500
Y29500
Y36500
Y37500
Y38500
Y39500
Y40500
Y41500
X36700
Y40500
Y39500
Y38500
Y37500
Y36500
X38600Y43400
X39600
Y44400
X38600
X40600
X41600
X42600
X43600
X44600
X45600
X46600
X47600
X48600
X49600
X50600
Y43400
X49600
X48600
X47600
X46600
X45600
X44600
X43600
X42600
X41600
X40600
X52500Y41500
X53500
Y40500
Y39500
X52500
Y38500
Y37500
Y36500
X53500
Y37500
Y38500
X52500Y40500
X7561Y54347
Y55347
Y56347
Y57347
X6561Y56847
Y55847
Y54847
Y57847
T06
X36928Y5000
X37913
X38700
X39684
T07
X6623Y9108
X10623
X10593Y10408
X11262
X11931
X12601
X9923
X21416Y14700
X25416
X25446Y16000
X26116
X26785
X27454
X24777
X37000Y17400
X38000
X39000
X38000Y19600
X37000Y20800
X41000
X42000Y19600
X38600Y23500
X37600
X36600
X35600
X34600
X33600
X5300Y47992
X3852Y49439
X5300Y50887
X6748Y49439
X8400Y43000
X12400
T08
X59700Y26500
X60700
Y27500
X59700
Y28500
X60700
Y29500
X59700
Y30500
X60700
Y35500
X59700
Y36500
Y37500
Y38500
Y39500
X60700
Y38500
Y37500
Y36500
Y44500
X59700
Y45500
X60700
Y46500
X59700
Y47500
X60700
Y48500
X59700
Y53500
X60700
Y54500
X59700
Y55500
X60700
Y56500
X59700
Y57500
X60700
T09
X2811Y53097
Y59097
T10
X56800Y9500
Y11154
X58965
Y9500
Y14500
Y16154
X56800
Y14500
X7700Y22539
Y24193
Y25846
Y27500
X5535
Y25846
Y24193
Y22539
Y32039
Y33693
Y35346
X7700
Y33693
Y32039
Y37000
X5535
T11
X40893Y3933
X35720
T12
X11262Y17278
X26116Y22870
T13
X38000Y10857
T14
X62400Y2000
X33200Y4000
X2000Y2000
X62400Y61500
X2000
T15
X4061Y53847
Y58347
M30
