G04*
G04 #@! TF.GenerationSoftware,Altium Limited,Altium Designer,21.5.1 (32)*
G04*
G04 Layer_Physical_Order=1*
G04 Layer_Color=255*
%FSLAX25Y25*%
%MOIN*%
G70*
G04*
G04 #@! TF.SameCoordinates,DC1D8B1E-EA3E-4B6B-A205-361A43EFEAAA*
G04*
G04*
G04 #@! TF.FilePolarity,Positive*
G04*
G01*
G75*
%ADD43C,0.01378*%
%ADD44C,0.04724*%
%ADD45C,0.02362*%
%ADD46C,0.06000*%
%ADD47R,0.05543X0.05543*%
%ADD48C,0.05543*%
%ADD49C,0.09291*%
%ADD50C,0.06200*%
%ADD51R,0.06200X0.06200*%
%ADD52R,0.06200X0.06200*%
%ADD53C,0.05906*%
%ADD54C,0.06890*%
%ADD55R,0.06890X0.06890*%
%ADD56R,0.10827X0.10827*%
%ADD57C,0.10827*%
%ADD58C,0.07087*%
%ADD59R,0.06000X0.06000*%
%ADD60R,0.06890X0.06890*%
%ADD61R,0.05906X0.05906*%
%ADD62C,0.13055*%
%ADD63C,0.19685*%
%ADD64R,0.06000X0.06000*%
%ADD65O,0.07000X0.10000*%
%ADD66C,0.15748*%
%ADD67R,0.05118X0.09843*%
%ADD68C,0.09843*%
%ADD69C,0.04000*%
%ADD70C,0.04921*%
D43*
X58000Y565000D02*
X115000D01*
X58000Y549000D02*
X90000D01*
X58000Y533000D02*
X95000D01*
X58000Y541000D02*
X85000D01*
X332000Y365000D02*
Y380000D01*
X322000Y385000D02*
X342000D01*
X322000Y395000D02*
X342000D01*
D44*
X402000Y225000D02*
X430000D01*
X344000Y164000D02*
Y184000D01*
X442000Y178000D02*
Y199000D01*
X157000Y175000D02*
Y195000D01*
D45*
X547000Y405000D02*
Y430000D01*
X557000Y345000D02*
Y405000D01*
X182000Y15000D02*
Y40000D01*
D46*
X113528Y418000D02*
D03*
X84000D02*
D03*
X35000Y420076D02*
D03*
X522000Y60000D02*
D03*
Y70000D02*
D03*
X492000D02*
D03*
Y60000D02*
D03*
Y50000D02*
D03*
Y80000D02*
D03*
X522000D02*
D03*
X306315Y174000D02*
D03*
X423000Y147063D02*
D03*
X57234Y128919D02*
D03*
X167998Y128998D02*
D03*
X206157Y184685D02*
D03*
X247000Y295000D02*
D03*
X227000D02*
D03*
X237000Y305000D02*
D03*
X247000Y320000D02*
D03*
X227000D02*
D03*
X237000Y330000D02*
D03*
X262000Y295000D02*
D03*
Y305000D02*
D03*
Y315000D02*
D03*
X292000D02*
D03*
Y305000D02*
D03*
Y325000D02*
D03*
Y335000D02*
D03*
X262000D02*
D03*
Y325000D02*
D03*
X292000Y345000D02*
D03*
Y355000D02*
D03*
X262000D02*
D03*
Y345000D02*
D03*
Y365000D02*
D03*
X292000D02*
D03*
X247000Y340000D02*
D03*
X227000D02*
D03*
X237000Y350000D02*
D03*
X247000Y365000D02*
D03*
X227000D02*
D03*
X237000Y375000D02*
D03*
D47*
X34000Y545000D02*
D03*
D48*
X44000Y549016D02*
D03*
X34000Y553031D02*
D03*
X44000Y557047D02*
D03*
X34000Y561063D02*
D03*
X44000Y565079D02*
D03*
X34000Y569095D02*
D03*
X44000Y573110D02*
D03*
D49*
X24945Y588583D02*
D03*
Y529528D02*
D03*
D50*
X40000Y170000D02*
D03*
X70000D02*
D03*
X40000Y155000D02*
D03*
X385000Y85000D02*
D03*
X355000D02*
D03*
X405000D02*
D03*
X472000Y209000D02*
D03*
Y220000D02*
D03*
X442000D02*
D03*
X522000Y95000D02*
D03*
X492000D02*
D03*
X227000Y460000D02*
D03*
X257000D02*
D03*
X227000Y440000D02*
D03*
X257000D02*
D03*
X227000Y420000D02*
D03*
X257000D02*
D03*
X227000Y400000D02*
D03*
X257000D02*
D03*
X212000Y390000D02*
D03*
X182000D02*
D03*
X212000Y410000D02*
D03*
X182000D02*
D03*
X212000Y430000D02*
D03*
X182000D02*
D03*
X212000Y450000D02*
D03*
X182000D02*
D03*
X61000Y440000D02*
D03*
X91000D02*
D03*
X84000Y499000D02*
D03*
X114000D02*
D03*
X77000Y479000D02*
D03*
X107000D02*
D03*
X84000Y489000D02*
D03*
X114000D02*
D03*
X247000Y450000D02*
D03*
X257000D02*
D03*
X247000Y430000D02*
D03*
X257000D02*
D03*
X247000Y410000D02*
D03*
X257000D02*
D03*
X247000Y390000D02*
D03*
X257000D02*
D03*
X545000Y161000D02*
D03*
Y131000D02*
D03*
X555000D02*
D03*
Y161000D02*
D03*
X462000Y30000D02*
D03*
Y20000D02*
D03*
X472000D02*
D03*
Y50000D02*
D03*
X482000Y20000D02*
D03*
Y50000D02*
D03*
X462000Y95000D02*
D03*
X432000D02*
D03*
X305157Y148000D02*
D03*
X275157D02*
D03*
X287000Y138000D02*
D03*
X317000D02*
D03*
X354000Y164000D02*
D03*
Y174000D02*
D03*
X380000Y185000D02*
D03*
X420000D02*
D03*
X406000Y174000D02*
D03*
Y134000D02*
D03*
X430000Y188000D02*
D03*
Y208000D02*
D03*
X302000Y315000D02*
D03*
X342000D02*
D03*
Y335000D02*
D03*
X302000D02*
D03*
X286000Y395000D02*
D03*
X306000D02*
D03*
X302000Y325000D02*
D03*
X342000D02*
D03*
X302000Y345000D02*
D03*
X342000D02*
D03*
X155923Y91234D02*
D03*
X125923D02*
D03*
X126000Y80000D02*
D03*
X156000D02*
D03*
X177000Y320000D02*
D03*
X217000D02*
D03*
X177000Y305000D02*
D03*
X217000D02*
D03*
X177000Y295000D02*
D03*
X217000D02*
D03*
X177000Y340000D02*
D03*
X217000D02*
D03*
X177000Y330000D02*
D03*
X217000D02*
D03*
X177000Y350000D02*
D03*
X217000D02*
D03*
X177000Y365000D02*
D03*
X217000D02*
D03*
X177000Y375000D02*
D03*
X217000D02*
D03*
X301000Y384000D02*
D03*
X291000D02*
D03*
X296000Y428000D02*
D03*
X286000D02*
D03*
D51*
X49700Y155000D02*
D03*
D52*
X405000Y75300D02*
D03*
X472000Y199300D02*
D03*
D53*
X152000Y320000D02*
D03*
X112000D02*
D03*
X146000Y337000D02*
D03*
X106000D02*
D03*
X134000Y370000D02*
D03*
X94000D02*
D03*
X140000Y353000D02*
D03*
X100000D02*
D03*
X379126Y50000D02*
D03*
X387000D02*
D03*
X396843D02*
D03*
D54*
X416000Y444000D02*
D03*
X396000Y434000D02*
D03*
X386000Y444000D02*
D03*
X396000D02*
D03*
X426000D02*
D03*
X436000D02*
D03*
X446000D02*
D03*
X456000D02*
D03*
X466000D02*
D03*
X476000D02*
D03*
X486000D02*
D03*
X496000D02*
D03*
X506000D02*
D03*
X406000D02*
D03*
X416000Y434000D02*
D03*
X426000D02*
D03*
X436000D02*
D03*
X446000D02*
D03*
X456000D02*
D03*
X466000D02*
D03*
X476000D02*
D03*
X486000D02*
D03*
X496000D02*
D03*
X506000D02*
D03*
X406000D02*
D03*
X607000Y265000D02*
D03*
X597000D02*
D03*
X607000Y275000D02*
D03*
X597000D02*
D03*
X607000Y285000D02*
D03*
X597000D02*
D03*
X607000Y295000D02*
D03*
X597000D02*
D03*
X607000Y305000D02*
D03*
Y535000D02*
D03*
X597000D02*
D03*
X607000Y545000D02*
D03*
X597000D02*
D03*
X607000Y555000D02*
D03*
X597000D02*
D03*
X607000Y565000D02*
D03*
X597000D02*
D03*
X607000Y575000D02*
D03*
Y445000D02*
D03*
X597000D02*
D03*
X607000Y455000D02*
D03*
X597000D02*
D03*
X607000Y465000D02*
D03*
X597000D02*
D03*
X607000Y475000D02*
D03*
X597000D02*
D03*
X607000Y485000D02*
D03*
Y395000D02*
D03*
X597000Y385000D02*
D03*
X607000D02*
D03*
X597000Y375000D02*
D03*
X607000D02*
D03*
X597000Y365000D02*
D03*
X607000D02*
D03*
X597000Y355000D02*
D03*
X607000D02*
D03*
X367000Y315000D02*
D03*
Y415000D02*
D03*
Y405000D02*
D03*
Y395000D02*
D03*
Y385000D02*
D03*
Y375000D02*
D03*
Y365000D02*
D03*
Y355000D02*
D03*
Y345000D02*
D03*
Y335000D02*
D03*
Y325000D02*
D03*
X357000Y315000D02*
D03*
Y415000D02*
D03*
Y405000D02*
D03*
Y395000D02*
D03*
Y385000D02*
D03*
Y375000D02*
D03*
Y365000D02*
D03*
Y355000D02*
D03*
Y345000D02*
D03*
Y335000D02*
D03*
Y305000D02*
D03*
Y295000D02*
D03*
X367000Y305000D02*
D03*
X357000Y325000D02*
D03*
X486000Y276000D02*
D03*
X386000D02*
D03*
X396000D02*
D03*
X406000D02*
D03*
X416000D02*
D03*
X426000D02*
D03*
X436000D02*
D03*
X446000D02*
D03*
X456000D02*
D03*
X466000D02*
D03*
X476000D02*
D03*
X486000Y266000D02*
D03*
X386000D02*
D03*
X396000D02*
D03*
X406000D02*
D03*
X416000D02*
D03*
X426000D02*
D03*
X436000D02*
D03*
X446000D02*
D03*
X456000D02*
D03*
X466000D02*
D03*
X496000D02*
D03*
X506000D02*
D03*
X496000Y276000D02*
D03*
X476000Y266000D02*
D03*
X525000Y395000D02*
D03*
Y295000D02*
D03*
Y305000D02*
D03*
Y315000D02*
D03*
Y325000D02*
D03*
Y335000D02*
D03*
Y345000D02*
D03*
Y355000D02*
D03*
Y365000D02*
D03*
Y375000D02*
D03*
Y385000D02*
D03*
X535000Y395000D02*
D03*
Y295000D02*
D03*
Y305000D02*
D03*
Y315000D02*
D03*
Y325000D02*
D03*
Y335000D02*
D03*
Y345000D02*
D03*
Y355000D02*
D03*
Y365000D02*
D03*
Y375000D02*
D03*
Y405000D02*
D03*
Y415000D02*
D03*
X525000Y405000D02*
D03*
X535000Y385000D02*
D03*
X336000Y235000D02*
D03*
X346000D02*
D03*
X356000D02*
D03*
X366000D02*
D03*
X376000D02*
D03*
X126234Y60000D02*
D03*
X106234Y44000D02*
D03*
X126234D02*
D03*
X106234Y60000D02*
D03*
D55*
X386000Y434000D02*
D03*
X506000Y276000D02*
D03*
X386000Y235000D02*
D03*
D56*
X55347Y320394D02*
D03*
X589653Y111535D02*
D03*
Y161535D02*
D03*
X55347Y225394D02*
D03*
D57*
X77000Y320394D02*
D03*
X55347Y336929D02*
D03*
X77000D02*
D03*
X55347Y353465D02*
D03*
X77000D02*
D03*
X55347Y370000D02*
D03*
X77000D02*
D03*
X568000Y111535D02*
D03*
X589653Y95000D02*
D03*
X568000D02*
D03*
Y161535D02*
D03*
X589653Y145000D02*
D03*
X568000D02*
D03*
X77000Y225394D02*
D03*
X55347Y241929D02*
D03*
X77000D02*
D03*
X55347Y258465D02*
D03*
X77000D02*
D03*
X55347Y275000D02*
D03*
X77000D02*
D03*
D58*
X53000Y479918D02*
D03*
X67476Y494394D02*
D03*
X53000Y508871D02*
D03*
X38524Y494394D02*
D03*
X84000Y430000D02*
D03*
X124000D02*
D03*
X370000Y208000D02*
D03*
X410000D02*
D03*
X380000Y196000D02*
D03*
X420000D02*
D03*
X106234Y91077D02*
D03*
X66234D02*
D03*
D59*
X35000Y439761D02*
D03*
X423000Y154937D02*
D03*
X57234Y109234D02*
D03*
X167998Y109313D02*
D03*
X206157Y165000D02*
D03*
D60*
X597000Y305000D02*
D03*
Y575000D02*
D03*
Y485000D02*
D03*
Y395000D02*
D03*
X367000Y295000D02*
D03*
X525000Y415000D02*
D03*
D61*
X369284Y50000D02*
D03*
D62*
X357197Y39331D02*
D03*
X408929D02*
D03*
D63*
X332000Y40000D02*
D03*
X20000Y20000D02*
D03*
Y615000D02*
D03*
X624000Y20000D02*
D03*
Y615000D02*
D03*
D64*
X522000Y50000D02*
D03*
X326000Y174000D02*
D03*
X292000Y295000D02*
D03*
D65*
X390000Y174000D02*
D03*
X380000D02*
D03*
X370000D02*
D03*
D66*
X380000Y108567D02*
D03*
X112620Y172777D02*
D03*
X261157Y228700D02*
D03*
D67*
X112620Y104077D02*
D03*
X119313D02*
D03*
X126006D02*
D03*
X105927D02*
D03*
X99234D02*
D03*
X247772Y160000D02*
D03*
X254465D02*
D03*
X274543D02*
D03*
X267850D02*
D03*
X261157D02*
D03*
D68*
X214158Y147000D02*
D03*
X254157D02*
D03*
D69*
X58000Y565000D02*
D03*
X90000Y549000D02*
D03*
X58000Y533000D02*
D03*
Y541000D02*
D03*
X95000Y533000D02*
D03*
X85000Y541000D02*
D03*
X58000Y549000D02*
D03*
X115000Y565000D02*
D03*
X322000Y385000D02*
D03*
Y395000D02*
D03*
X332000Y365000D02*
D03*
Y380000D02*
D03*
X342000Y385000D02*
D03*
Y395000D02*
D03*
D70*
X430000Y225000D02*
D03*
X547000Y430000D02*
D03*
X557000Y345000D02*
D03*
Y405000D02*
D03*
X182000Y15000D02*
D03*
Y40000D02*
D03*
X344000Y164000D02*
D03*
Y184000D02*
D03*
X442000Y199000D02*
D03*
Y178000D02*
D03*
X402000Y225000D02*
D03*
X547000Y405000D02*
D03*
X157000Y175000D02*
D03*
Y195000D02*
D03*
M02*
