G04*
G04 #@! TF.GenerationSoftware,Altium Limited,Altium Designer,21.5.1 (32)*
G04*
G04 Layer_Color=32896*
%FSLAX25Y25*%
%MOIN*%
G70*
G04*
G04 #@! TF.SameCoordinates,DC1D8B1E-EA3E-4B6B-A205-361A43EFEAAA*
G04*
G04*
G04 #@! TF.FilePolarity,Positive*
G04*
G01*
G75*
%ADD11C,0.00787*%
%ADD13C,0.01000*%
%ADD16C,0.00500*%
%ADD77C,0.00600*%
D11*
X82819Y475181D02*
X82032D01*
X82819D01*
D13*
X309658Y26535D02*
Y128535D01*
X198658Y26535D02*
Y128535D01*
Y26535D02*
X254157D01*
X309658D01*
X254157Y128535D02*
X309658D01*
X198658D02*
X254157D01*
X321999Y412002D02*
X317001D01*
X316001Y413001D01*
Y415001D01*
X317001Y416000D01*
X321999D01*
X316001Y420999D02*
X321999D01*
X319000Y418000D01*
Y421998D01*
X109999Y454920D02*
X105001D01*
X104001Y455920D01*
Y457919D01*
X105001Y458919D01*
X109999D01*
X108999Y460918D02*
X109999Y461918D01*
Y463917D01*
X108999Y464917D01*
X108000D01*
X107000Y463917D01*
X106000Y464917D01*
X105001D01*
X104001Y463917D01*
Y461918D01*
X105001Y460918D01*
X106000D01*
X107000Y461918D01*
X108000Y460918D01*
X108999D01*
X107000Y461918D02*
Y463917D01*
X209156Y137684D02*
Y131686D01*
X205157D01*
X199159D02*
X203158D01*
X199159Y135685D01*
Y136684D01*
X200159Y137684D01*
X202158D01*
X203158Y136684D01*
D16*
X81559Y451598D02*
Y466953D01*
X101441Y451598D02*
Y466953D01*
D77*
X297700Y402000D02*
X297348Y402848D01*
X296500Y403200D01*
X295652Y402848D01*
X295300Y402000D01*
X290400D02*
X295300D01*
X297700D01*
X302600D01*
X290400Y421600D02*
X302600D01*
X311300Y417900D02*
X315300D01*
M02*
