M48
;Layer_Color=9474304
;FILE_FORMAT=2:4
INCH,TZ
;TYPE=PLATED
T1F00S00C0.0400
%
T01
X19550Y5800
Y6800
X20550
Y5800
X17450Y2400
Y1400
X16450
X15450
X14450
X13450
X12450
X11450
X10450
X9450
X8450
X7450
X6450
Y2400
X5450
Y1400
X7450Y2400
X8450
X9450
X10450
X11450
X12450
X13450
X14450
X15450
X16450
X2800Y4350
X1800
Y5350
X2800
Y6350
X1800
Y7350
X2800
Y8350
Y9350
Y10350
Y11350
Y12350
Y13350
Y14350
Y15350
Y16350
X1800
Y15350
Y14350
Y13350
Y12350
Y11350
Y10350
Y9350
Y8350
X4700Y19100
Y20100
X5700
Y19100
X6700
X7700
X8700
X9700
X10700
X11700
X12700
X13700
X14700
X15700
X16700
Y20100
X15700
X14700
X13700
X12700
X11700
X10700
X9700
X8700
X7700
X6700
X19550Y17800
X20550
Y16800
Y15800
Y14800
Y13800
Y12800
Y11800
Y10800
Y9800
Y8800
Y7800
X19550
Y8800
Y9800
Y10800
Y11800
Y12800
Y13800
Y14800
Y15800
Y16800
M30
