G04*
G04 #@! TF.GenerationSoftware,Altium Limited,Altium Designer,22.7.1 (60)*
G04*
G04 Layer_Color=32896*
%FSLAX25Y25*%
%MOIN*%
G70*
G04*
G04 #@! TF.SameCoordinates,BF298F06-0039-4E40-975A-608DE0A09416*
G04*
G04*
G04 #@! TF.FilePolarity,Positive*
G04*
G01*
G75*
%ADD10C,0.01000*%
%ADD39C,0.00787*%
D10*
X40500Y203500D02*
X40000Y204366D01*
X39000D01*
X38500Y203500D01*
X39000Y202634D01*
X40000D01*
X40500Y203500D01*
X39646D02*
X38908Y203926D01*
Y203074D01*
X39646Y203500D01*
X194000Y50500D02*
X193500Y51366D01*
X192500D01*
X192000Y50500D01*
X192500Y49634D01*
X193500D01*
X194000Y50500D01*
X193492Y50153D02*
X192754Y50580D01*
Y49727D01*
X193492Y50153D01*
X48000Y26500D02*
X47500Y27366D01*
X46500D01*
X46000Y26500D01*
X46500Y25634D01*
X47500D01*
X48000Y26500D01*
X47146D02*
X46407Y26926D01*
Y26074D01*
X47146Y26500D01*
X16500Y36000D02*
X16000Y36866D01*
X15000D01*
X14500Y36000D01*
X15000Y35134D01*
X16000D01*
X16500Y36000D01*
X15992Y35653D02*
X15254Y36080D01*
Y35227D01*
X15992Y35653D01*
D39*
X179500Y183500D02*
Y208500D01*
X34500Y183500D02*
Y208500D01*
Y183500D02*
X179500D01*
X34500Y208500D02*
X179500D01*
X188000Y190500D02*
X213000D01*
X188000Y45500D02*
X213000D01*
Y190500D01*
X188000Y45500D02*
Y190500D01*
X187000Y6500D02*
Y31500D01*
X42000Y6500D02*
Y31500D01*
Y6500D02*
X187000D01*
X42000Y31500D02*
X187000D01*
X10500Y176000D02*
X35500D01*
X10500Y31000D02*
X35500D01*
Y176000D01*
X10500Y31000D02*
Y176000D01*
M02*
