G04*
G04 #@! TF.GenerationSoftware,Altium Limited,Altium Designer,22.7.1 (60)*
G04*
G04 Layer_Color=16776960*
%FSLAX25Y25*%
%MOIN*%
G70*
G04*
G04 #@! TF.SameCoordinates,BF298F06-0039-4E40-975A-608DE0A09416*
G04*
G04*
G04 #@! TF.FilePolarity,Positive*
G04*
G01*
G75*
%ADD10C,0.01000*%
%ADD40C,0.00100*%
D10*
X83400Y60500D02*
X82800Y60846D01*
Y60154D01*
X83400Y60500D01*
X43750Y133000D02*
X43250D01*
X43750D01*
D40*
X125500Y159250D02*
Y177750D01*
X75500Y159250D02*
X125500D01*
X75500D02*
Y177750D01*
X125500D01*
X100500Y166000D02*
Y171000D01*
X98000Y168500D02*
X103000D01*
X82500Y63500D02*
X137500D01*
X110000Y90000D02*
Y92000D01*
X109000Y91000D02*
X111000D01*
X82500Y63500D02*
Y118500D01*
X137500D01*
Y63500D02*
Y118500D01*
X42626Y134626D02*
Y150374D01*
X58374D01*
Y134626D02*
Y150374D01*
X42626Y134626D02*
X58374D01*
X173350Y97075D02*
X179650D01*
X173350Y93925D02*
Y97075D01*
X179650Y93925D02*
Y97075D01*
X176000Y95500D02*
X177000D01*
X176500Y95000D02*
Y96000D01*
X173350Y93925D02*
X179650D01*
X155850D02*
X162150D01*
X159000Y95000D02*
Y96000D01*
X158500Y95500D02*
X159500D01*
X162150Y93925D02*
Y97075D01*
X155850Y93925D02*
Y97075D01*
X162150D01*
X173350Y107075D02*
X179650D01*
X173350Y103925D02*
Y107075D01*
X179650Y103925D02*
Y107075D01*
X176000Y105500D02*
X177000D01*
X176500Y105000D02*
Y106000D01*
X173350Y103925D02*
X179650D01*
X156350D02*
X162650D01*
X159500Y105000D02*
Y106000D01*
X159000Y105500D02*
X160000D01*
X162650Y103925D02*
Y107075D01*
X156350Y103925D02*
Y107075D01*
X162650D01*
X162350Y159075D02*
X168650D01*
X162350Y155925D02*
Y159075D01*
X168650Y155925D02*
Y159075D01*
X165000Y157500D02*
X166000D01*
X165500Y157000D02*
Y158000D01*
X162350Y155925D02*
X168650D01*
X141350Y155425D02*
X147650D01*
X144500Y156500D02*
Y157500D01*
X144000Y157000D02*
X145000D01*
X147650Y155425D02*
Y158575D01*
X141350Y155425D02*
Y158575D01*
X147650D01*
X162075Y133350D02*
Y139650D01*
X160000Y136500D02*
X161000D01*
X160500Y136000D02*
Y137000D01*
X158925Y139650D02*
X162075D01*
X158925Y133350D02*
X162075D01*
X158925D02*
Y139650D01*
X148925Y133350D02*
Y139650D01*
Y133350D02*
X152075D01*
X148925Y139650D02*
X152075D01*
X150500Y136000D02*
Y137000D01*
X150000Y136500D02*
X151000D01*
X152075Y133350D02*
Y139650D01*
X128075Y142850D02*
Y149150D01*
X126000Y146000D02*
X127000D01*
X126500Y145500D02*
Y146500D01*
X124925Y149150D02*
X128075D01*
X124925Y142850D02*
X128075D01*
X124925D02*
Y149150D01*
X119075Y142850D02*
Y149150D01*
X117000Y146000D02*
X118000D01*
X117500Y145500D02*
Y146500D01*
X115925Y149150D02*
X119075D01*
X115925Y142850D02*
X119075D01*
X115925D02*
Y149150D01*
X117350Y131925D02*
X123650D01*
Y135075D01*
X117350Y131925D02*
Y135075D01*
X120000Y133500D02*
X121000D01*
X120500Y133000D02*
Y134000D01*
X117350Y135075D02*
X123650D01*
X164350Y76575D02*
X170650D01*
X164350Y73425D02*
Y76575D01*
X170650Y73425D02*
Y76575D01*
X167000Y75000D02*
X168000D01*
X167500Y74500D02*
Y75500D01*
X164350Y73425D02*
X170650D01*
X109075Y132850D02*
Y139150D01*
X107000Y136000D02*
X108000D01*
X107500Y135500D02*
Y136500D01*
X105925Y139150D02*
X109075D01*
X105925Y132850D02*
X109075D01*
X105925D02*
Y139150D01*
X99575Y132350D02*
Y138650D01*
X97500Y135500D02*
X98500D01*
X98000Y135000D02*
Y136000D01*
X96425Y138650D02*
X99575D01*
X96425Y132350D02*
X99575D01*
X96425D02*
Y138650D01*
X85425Y132350D02*
Y138650D01*
Y132350D02*
X88575D01*
X85425Y138650D02*
X88575D01*
X87000Y135000D02*
Y136000D01*
X86500Y135500D02*
X87500D01*
X88575Y132350D02*
Y138650D01*
X80075Y132350D02*
Y138650D01*
X78000Y135500D02*
X79000D01*
X78500Y135000D02*
Y136000D01*
X76925Y138650D02*
X80075D01*
X76925Y132350D02*
X80075D01*
X76925D02*
Y138650D01*
X71075Y128850D02*
Y135150D01*
X69000Y132000D02*
X70000D01*
X69500Y131500D02*
Y132500D01*
X67925Y135150D02*
X71075D01*
X67925Y128850D02*
X71075D01*
X67925D02*
Y135150D01*
X59350Y119575D02*
X65650D01*
X59350Y116425D02*
Y119575D01*
X65650Y116425D02*
Y119575D01*
X62000Y118000D02*
X63000D01*
X62500Y117500D02*
Y118500D01*
X59350Y116425D02*
X65650D01*
X60075Y101850D02*
Y108150D01*
X58000Y105000D02*
X59000D01*
X58500Y104500D02*
Y105500D01*
X56925Y108150D02*
X60075D01*
X56925Y101850D02*
X60075D01*
X56925D02*
Y108150D01*
X67425Y82350D02*
Y88650D01*
Y82350D02*
X70575D01*
X67425Y88650D02*
X70575D01*
X69000Y85000D02*
Y86000D01*
X68500Y85500D02*
X69500D01*
X70575Y82350D02*
Y88650D01*
X67925Y61850D02*
Y68150D01*
Y61850D02*
X71075D01*
X67925Y68150D02*
X71075D01*
X69500Y64500D02*
Y65500D01*
X69000Y65000D02*
X70000D01*
X71075Y61850D02*
Y68150D01*
X57850Y47925D02*
X64150D01*
X61000Y49000D02*
Y50000D01*
X60500Y49500D02*
X61500D01*
X64150Y47925D02*
Y51075D01*
X57850Y47925D02*
Y51075D01*
X64150D01*
X136350Y48925D02*
X142650D01*
X139500Y50000D02*
Y51000D01*
X139000Y50500D02*
X140000D01*
X142650Y48925D02*
Y52075D01*
X136350Y48925D02*
Y52075D01*
X142650D01*
X135350Y42075D02*
X141650D01*
X135350Y38925D02*
Y42075D01*
X141650Y38925D02*
Y42075D01*
X138000Y40500D02*
X139000D01*
X138500Y40000D02*
Y41000D01*
X135350Y38925D02*
X141650D01*
X77850Y47925D02*
X84150D01*
X81000Y49000D02*
Y50000D01*
X80500Y49500D02*
X81500D01*
X84150Y47925D02*
Y51075D01*
X77850Y47925D02*
Y51075D01*
X84150D01*
X18201Y16150D02*
X30799D01*
X24500Y12500D02*
Y13500D01*
X24000Y13000D02*
X25000D01*
X18201Y9850D02*
Y16150D01*
X30799Y9850D02*
Y16150D01*
X18201Y9850D02*
X30799D01*
X17350Y186201D02*
Y198799D01*
X20000Y192500D02*
X21000D01*
X20500Y192000D02*
Y193000D01*
X17350Y186201D02*
X23650D01*
X17350Y198799D02*
X23650D01*
Y186201D02*
Y198799D01*
X194701Y205650D02*
X207299D01*
X201000Y202000D02*
Y203000D01*
X200500Y202500D02*
X201500D01*
X194701Y199350D02*
Y205650D01*
X207299Y199350D02*
Y205650D01*
X194701Y199350D02*
X207299D01*
X204650Y16201D02*
Y28799D01*
X201000Y22500D02*
X202000D01*
X201500Y22000D02*
Y23000D01*
X198350Y28799D02*
X204650D01*
X198350Y16201D02*
X204650D01*
X198350D02*
Y28799D01*
M02*
