G04*
G04 #@! TF.GenerationSoftware,Altium Limited,Altium Designer,22.7.1 (60)*
G04*
G04 Layer_Color=8388736*
%FSLAX25Y25*%
%MOIN*%
G70*
G04*
G04 #@! TF.SameCoordinates,BF298F06-0039-4E40-975A-608DE0A09416*
G04*
G04*
G04 #@! TF.FilePolarity,Negative*
G04*
G01*
G75*
%ADD13R,0.22800X0.09100*%
%ADD14R,0.05118X0.01575*%
%ADD15R,0.01575X0.05118*%
G04:AMPARAMS|DCode=16|XSize=31.1mil|YSize=14.96mil|CornerRadius=3.35mil|HoleSize=0mil|Usage=FLASHONLY|Rotation=90.000|XOffset=0mil|YOffset=0mil|HoleType=Round|Shape=RoundedRectangle|*
%AMROUNDEDRECTD16*
21,1,0.03110,0.00827,0,0,90.0*
21,1,0.02441,0.01496,0,0,90.0*
1,1,0.00669,0.00413,0.01221*
1,1,0.00669,0.00413,-0.01221*
1,1,0.00669,-0.00413,-0.01221*
1,1,0.00669,-0.00413,0.01221*
%
%ADD16ROUNDEDRECTD16*%
G04:AMPARAMS|DCode=17|XSize=31.1mil|YSize=14.96mil|CornerRadius=3.35mil|HoleSize=0mil|Usage=FLASHONLY|Rotation=180.000|XOffset=0mil|YOffset=0mil|HoleType=Round|Shape=RoundedRectangle|*
%AMROUNDEDRECTD17*
21,1,0.03110,0.00827,0,0,180.0*
21,1,0.02441,0.01496,0,0,180.0*
1,1,0.00669,-0.01221,0.00413*
1,1,0.00669,0.01221,0.00413*
1,1,0.00669,0.01221,-0.00413*
1,1,0.00669,-0.01221,-0.00413*
%
%ADD17ROUNDEDRECTD17*%
G04:AMPARAMS|DCode=18|XSize=102.36mil|YSize=102.36mil|CornerRadius=4.43mil|HoleSize=0mil|Usage=FLASHONLY|Rotation=270.000|XOffset=0mil|YOffset=0mil|HoleType=Round|Shape=RoundedRectangle|*
%AMROUNDEDRECTD18*
21,1,0.10236,0.09350,0,0,270.0*
21,1,0.09350,0.10236,0,0,270.0*
1,1,0.00886,-0.04675,-0.04675*
1,1,0.00886,-0.04675,0.04675*
1,1,0.00886,0.04675,0.04675*
1,1,0.00886,0.04675,-0.04675*
%
%ADD18ROUNDEDRECTD18*%
%ADD19R,0.04737X0.03950*%
%ADD20R,0.03950X0.04737*%
%ADD21R,0.05918X0.05918*%
%ADD22R,0.05918X0.05918*%
%ADD23C,0.06800*%
%ADD24R,0.06800X0.06800*%
%ADD25R,0.06800X0.06800*%
D13*
X119200Y168500D02*
D03*
X81800D02*
D03*
D14*
X79488Y67378D02*
D03*
Y69346D02*
D03*
Y71315D02*
D03*
Y73283D02*
D03*
Y75252D02*
D03*
Y77220D02*
D03*
Y79189D02*
D03*
Y81157D02*
D03*
Y83126D02*
D03*
Y85094D02*
D03*
Y87063D02*
D03*
Y89031D02*
D03*
Y91000D02*
D03*
Y92968D02*
D03*
Y94937D02*
D03*
Y96905D02*
D03*
Y98874D02*
D03*
Y100842D02*
D03*
Y102811D02*
D03*
Y104780D02*
D03*
Y106748D02*
D03*
Y108716D02*
D03*
Y110685D02*
D03*
Y112654D02*
D03*
Y114622D02*
D03*
X140512Y69346D02*
D03*
Y71315D02*
D03*
Y73283D02*
D03*
Y75252D02*
D03*
Y77220D02*
D03*
Y79189D02*
D03*
Y81157D02*
D03*
Y83126D02*
D03*
Y85094D02*
D03*
Y87063D02*
D03*
Y89031D02*
D03*
Y91000D02*
D03*
Y92968D02*
D03*
Y94937D02*
D03*
Y96905D02*
D03*
Y98874D02*
D03*
Y100842D02*
D03*
Y102811D02*
D03*
Y104780D02*
D03*
Y106748D02*
D03*
Y108716D02*
D03*
Y110685D02*
D03*
Y112654D02*
D03*
Y114622D02*
D03*
Y67378D02*
D03*
D15*
X86378Y121512D02*
D03*
X88346D02*
D03*
X90315D02*
D03*
X92283D02*
D03*
X94252D02*
D03*
X96220D02*
D03*
X98189D02*
D03*
X100157D02*
D03*
X102126D02*
D03*
X104095D02*
D03*
X106063D02*
D03*
X108031D02*
D03*
X110000D02*
D03*
X111969D02*
D03*
X113937D02*
D03*
X115905D02*
D03*
X117874D02*
D03*
X119843D02*
D03*
X121811D02*
D03*
X123779D02*
D03*
X125748D02*
D03*
X127717D02*
D03*
X129685D02*
D03*
X131653D02*
D03*
X86378Y60488D02*
D03*
X133622D02*
D03*
X131653D02*
D03*
X129685D02*
D03*
X127717D02*
D03*
X125748D02*
D03*
X123779D02*
D03*
X121811D02*
D03*
X119843D02*
D03*
X117874D02*
D03*
X115905D02*
D03*
X113937D02*
D03*
X111969D02*
D03*
X110000D02*
D03*
X108031D02*
D03*
X106063D02*
D03*
X104095D02*
D03*
X102126D02*
D03*
X100157D02*
D03*
X98189D02*
D03*
X96220D02*
D03*
X94252D02*
D03*
X92283D02*
D03*
X90315D02*
D03*
X88346D02*
D03*
X133622Y121512D02*
D03*
D16*
X55421Y135020D02*
D03*
X53453D02*
D03*
X51484D02*
D03*
X49516D02*
D03*
X47547D02*
D03*
X45579D02*
D03*
X55421Y149980D02*
D03*
X53453D02*
D03*
X51484D02*
D03*
X49516D02*
D03*
X47547D02*
D03*
X45579D02*
D03*
D17*
X57980Y137579D02*
D03*
Y139547D02*
D03*
Y141516D02*
D03*
Y143484D02*
D03*
Y145453D02*
D03*
Y147421D02*
D03*
X43020D02*
D03*
Y145453D02*
D03*
Y143484D02*
D03*
Y141516D02*
D03*
Y139547D02*
D03*
Y137579D02*
D03*
D18*
X50500Y142500D02*
D03*
D19*
X180500Y95500D02*
D03*
X172500D02*
D03*
X155000D02*
D03*
X163000D02*
D03*
X180500Y105500D02*
D03*
X172500D02*
D03*
X155500D02*
D03*
X163500D02*
D03*
X169500Y157500D02*
D03*
X161500D02*
D03*
X140500Y157000D02*
D03*
X148500D02*
D03*
X116500Y133500D02*
D03*
X124500D02*
D03*
X171500Y75000D02*
D03*
X163500D02*
D03*
X66500Y118000D02*
D03*
X58500D02*
D03*
X57000Y49500D02*
D03*
X65000D02*
D03*
X135500Y50500D02*
D03*
X143500D02*
D03*
X142500Y40500D02*
D03*
X134500D02*
D03*
X77000Y49500D02*
D03*
X85000D02*
D03*
D20*
X160500Y132500D02*
D03*
Y140500D02*
D03*
X150500D02*
D03*
Y132500D02*
D03*
X126500Y142000D02*
D03*
Y150000D02*
D03*
X117500Y142000D02*
D03*
Y150000D02*
D03*
X107500Y132000D02*
D03*
Y140000D02*
D03*
X98000Y131500D02*
D03*
Y139500D02*
D03*
X87000D02*
D03*
Y131500D02*
D03*
X78500D02*
D03*
Y139500D02*
D03*
X69500Y128000D02*
D03*
Y136000D02*
D03*
X58500Y101000D02*
D03*
Y109000D02*
D03*
X69000Y89500D02*
D03*
Y81500D02*
D03*
X69500Y69000D02*
D03*
Y61000D02*
D03*
D21*
X31500Y13000D02*
D03*
X17500D02*
D03*
X208000Y202500D02*
D03*
X194000D02*
D03*
D22*
X20500Y199500D02*
D03*
Y185500D02*
D03*
X201500Y15500D02*
D03*
Y29500D02*
D03*
D23*
X57000Y201000D02*
D03*
X47000Y191000D02*
D03*
X57000D02*
D03*
X77000D02*
D03*
X87000D02*
D03*
X97000D02*
D03*
X107000D02*
D03*
X117000D02*
D03*
X127000D02*
D03*
X137000D02*
D03*
X147000D02*
D03*
X157000D02*
D03*
X167000D02*
D03*
X67000D02*
D03*
X77000Y201000D02*
D03*
X87000D02*
D03*
X97000D02*
D03*
X107000D02*
D03*
X117000D02*
D03*
X127000D02*
D03*
X137000D02*
D03*
X147000D02*
D03*
X157000D02*
D03*
X167000D02*
D03*
X67000D02*
D03*
X195500Y68000D02*
D03*
X205500Y58000D02*
D03*
Y68000D02*
D03*
Y88000D02*
D03*
Y98000D02*
D03*
Y108000D02*
D03*
Y118000D02*
D03*
Y128000D02*
D03*
Y138000D02*
D03*
Y148000D02*
D03*
Y158000D02*
D03*
Y168000D02*
D03*
Y178000D02*
D03*
Y78000D02*
D03*
X195500Y88000D02*
D03*
Y98000D02*
D03*
Y108000D02*
D03*
Y118000D02*
D03*
Y128000D02*
D03*
Y138000D02*
D03*
Y148000D02*
D03*
Y158000D02*
D03*
Y168000D02*
D03*
Y178000D02*
D03*
Y78000D02*
D03*
X64500Y24000D02*
D03*
X54500Y14000D02*
D03*
X64500D02*
D03*
X84500D02*
D03*
X94500D02*
D03*
X104500D02*
D03*
X114500D02*
D03*
X124500D02*
D03*
X134500D02*
D03*
X144500D02*
D03*
X154500D02*
D03*
X164500D02*
D03*
X174500D02*
D03*
X74500D02*
D03*
X84500Y24000D02*
D03*
X94500D02*
D03*
X104500D02*
D03*
X114500D02*
D03*
X124500D02*
D03*
X134500D02*
D03*
X144500D02*
D03*
X154500D02*
D03*
X164500D02*
D03*
X174500D02*
D03*
X74500D02*
D03*
X18000Y53500D02*
D03*
X28000Y43500D02*
D03*
Y53500D02*
D03*
Y73500D02*
D03*
Y83500D02*
D03*
Y93500D02*
D03*
Y103500D02*
D03*
Y113500D02*
D03*
Y123500D02*
D03*
Y133500D02*
D03*
Y143500D02*
D03*
Y153500D02*
D03*
Y163500D02*
D03*
Y63500D02*
D03*
X18000Y73500D02*
D03*
Y83500D02*
D03*
Y93500D02*
D03*
Y103500D02*
D03*
Y113500D02*
D03*
Y123500D02*
D03*
Y133500D02*
D03*
Y143500D02*
D03*
Y153500D02*
D03*
Y163500D02*
D03*
Y63500D02*
D03*
D24*
X47000Y201000D02*
D03*
X54500Y24000D02*
D03*
D25*
X195500Y58000D02*
D03*
X18000Y43500D02*
D03*
M02*
