G04*
G04 #@! TF.GenerationSoftware,Altium Limited,Altium Designer,22.7.1 (60)*
G04*
G04 Layer_Physical_Order=1*
G04 Layer_Color=255*
%FSLAX25Y25*%
%MOIN*%
G70*
G04*
G04 #@! TF.SameCoordinates,BF298F06-0039-4E40-975A-608DE0A09416*
G04*
G04*
G04 #@! TF.FilePolarity,Positive*
G04*
G01*
G75*
%ADD26R,0.22000X0.08300*%
%ADD27R,0.04724X0.01181*%
%ADD28R,0.01181X0.04724*%
G04:AMPARAMS|DCode=29|XSize=27.17mil|YSize=11.02mil|CornerRadius=1.38mil|HoleSize=0mil|Usage=FLASHONLY|Rotation=90.000|XOffset=0mil|YOffset=0mil|HoleType=Round|Shape=RoundedRectangle|*
%AMROUNDEDRECTD29*
21,1,0.02717,0.00827,0,0,90.0*
21,1,0.02441,0.01102,0,0,90.0*
1,1,0.00276,0.00413,0.01221*
1,1,0.00276,0.00413,-0.01221*
1,1,0.00276,-0.00413,-0.01221*
1,1,0.00276,-0.00413,0.01221*
%
%ADD29ROUNDEDRECTD29*%
G04:AMPARAMS|DCode=30|XSize=27.17mil|YSize=11.02mil|CornerRadius=1.38mil|HoleSize=0mil|Usage=FLASHONLY|Rotation=180.000|XOffset=0mil|YOffset=0mil|HoleType=Round|Shape=RoundedRectangle|*
%AMROUNDEDRECTD30*
21,1,0.02717,0.00827,0,0,180.0*
21,1,0.02441,0.01102,0,0,180.0*
1,1,0.00276,-0.01221,0.00413*
1,1,0.00276,0.01221,0.00413*
1,1,0.00276,0.01221,-0.00413*
1,1,0.00276,-0.01221,-0.00413*
%
%ADD30ROUNDEDRECTD30*%
G04:AMPARAMS|DCode=31|XSize=98.43mil|YSize=98.43mil|CornerRadius=2.46mil|HoleSize=0mil|Usage=FLASHONLY|Rotation=270.000|XOffset=0mil|YOffset=0mil|HoleType=Round|Shape=RoundedRectangle|*
%AMROUNDEDRECTD31*
21,1,0.09843,0.09350,0,0,270.0*
21,1,0.09350,0.09843,0,0,270.0*
1,1,0.00492,-0.04675,-0.04675*
1,1,0.00492,-0.04675,0.04675*
1,1,0.00492,0.04675,0.04675*
1,1,0.00492,0.04675,-0.04675*
%
%ADD31ROUNDEDRECTD31*%
%ADD32R,0.03937X0.03150*%
%ADD33R,0.03150X0.03937*%
%ADD34R,0.05118X0.05118*%
%ADD35R,0.05118X0.05118*%
%ADD36C,0.06000*%
%ADD37R,0.06000X0.06000*%
%ADD38R,0.06000X0.06000*%
D26*
X119200Y168500D02*
D03*
X81800D02*
D03*
D27*
X79488Y67378D02*
D03*
Y69346D02*
D03*
Y71315D02*
D03*
Y73283D02*
D03*
Y75252D02*
D03*
Y77220D02*
D03*
Y79189D02*
D03*
Y81157D02*
D03*
Y83126D02*
D03*
Y85094D02*
D03*
Y87063D02*
D03*
Y89031D02*
D03*
Y91000D02*
D03*
Y92968D02*
D03*
Y94937D02*
D03*
Y96905D02*
D03*
Y98874D02*
D03*
Y100842D02*
D03*
Y102811D02*
D03*
Y104780D02*
D03*
Y106748D02*
D03*
Y108716D02*
D03*
Y110685D02*
D03*
Y112654D02*
D03*
Y114622D02*
D03*
X140512Y69346D02*
D03*
Y71315D02*
D03*
Y73283D02*
D03*
Y75252D02*
D03*
Y77220D02*
D03*
Y79189D02*
D03*
Y81157D02*
D03*
Y83126D02*
D03*
Y85094D02*
D03*
Y87063D02*
D03*
Y89031D02*
D03*
Y91000D02*
D03*
Y92968D02*
D03*
Y94937D02*
D03*
Y96905D02*
D03*
Y98874D02*
D03*
Y100842D02*
D03*
Y102811D02*
D03*
Y104780D02*
D03*
Y106748D02*
D03*
Y108716D02*
D03*
Y110685D02*
D03*
Y112654D02*
D03*
Y114622D02*
D03*
Y67378D02*
D03*
D28*
X86378Y121512D02*
D03*
X88346D02*
D03*
X90315D02*
D03*
X92283D02*
D03*
X94252D02*
D03*
X96220D02*
D03*
X98189D02*
D03*
X100157D02*
D03*
X102126D02*
D03*
X104095D02*
D03*
X106063D02*
D03*
X108031D02*
D03*
X110000D02*
D03*
X111969D02*
D03*
X113937D02*
D03*
X115905D02*
D03*
X117874D02*
D03*
X119843D02*
D03*
X121811D02*
D03*
X123779D02*
D03*
X125748D02*
D03*
X127717D02*
D03*
X129685D02*
D03*
X131653D02*
D03*
X86378Y60488D02*
D03*
X133622D02*
D03*
X131653D02*
D03*
X129685D02*
D03*
X127717D02*
D03*
X125748D02*
D03*
X123779D02*
D03*
X121811D02*
D03*
X119843D02*
D03*
X117874D02*
D03*
X115905D02*
D03*
X113937D02*
D03*
X111969D02*
D03*
X110000D02*
D03*
X108031D02*
D03*
X106063D02*
D03*
X104095D02*
D03*
X102126D02*
D03*
X100157D02*
D03*
X98189D02*
D03*
X96220D02*
D03*
X94252D02*
D03*
X92283D02*
D03*
X90315D02*
D03*
X88346D02*
D03*
X133622Y121512D02*
D03*
D29*
X55421Y135020D02*
D03*
X53453D02*
D03*
X51484D02*
D03*
X49516D02*
D03*
X47547D02*
D03*
X45579D02*
D03*
X55421Y149980D02*
D03*
X53453D02*
D03*
X51484D02*
D03*
X49516D02*
D03*
X47547D02*
D03*
X45579D02*
D03*
D30*
X57980Y137579D02*
D03*
Y139547D02*
D03*
Y141516D02*
D03*
Y143484D02*
D03*
Y145453D02*
D03*
Y147421D02*
D03*
X43020D02*
D03*
Y145453D02*
D03*
Y143484D02*
D03*
Y141516D02*
D03*
Y139547D02*
D03*
Y137579D02*
D03*
D31*
X50500Y142500D02*
D03*
D32*
X180500Y95500D02*
D03*
X172500D02*
D03*
X155000D02*
D03*
X163000D02*
D03*
X180500Y105500D02*
D03*
X172500D02*
D03*
X155500D02*
D03*
X163500D02*
D03*
X169500Y157500D02*
D03*
X161500D02*
D03*
X140500Y157000D02*
D03*
X148500D02*
D03*
X116500Y133500D02*
D03*
X124500D02*
D03*
X171500Y75000D02*
D03*
X163500D02*
D03*
X66500Y118000D02*
D03*
X58500D02*
D03*
X57000Y49500D02*
D03*
X65000D02*
D03*
X135500Y50500D02*
D03*
X143500D02*
D03*
X142500Y40500D02*
D03*
X134500D02*
D03*
X77000Y49500D02*
D03*
X85000D02*
D03*
D33*
X160500Y132500D02*
D03*
Y140500D02*
D03*
X150500D02*
D03*
Y132500D02*
D03*
X126500Y142000D02*
D03*
Y150000D02*
D03*
X117500Y142000D02*
D03*
Y150000D02*
D03*
X107500Y132000D02*
D03*
Y140000D02*
D03*
X98000Y131500D02*
D03*
Y139500D02*
D03*
X87000D02*
D03*
Y131500D02*
D03*
X78500D02*
D03*
Y139500D02*
D03*
X69500Y128000D02*
D03*
Y136000D02*
D03*
X58500Y101000D02*
D03*
Y109000D02*
D03*
X69000Y89500D02*
D03*
Y81500D02*
D03*
X69500Y69000D02*
D03*
Y61000D02*
D03*
D34*
X31500Y13000D02*
D03*
X17500D02*
D03*
X208000Y202500D02*
D03*
X194000D02*
D03*
D35*
X20500Y199500D02*
D03*
Y185500D02*
D03*
X201500Y15500D02*
D03*
Y29500D02*
D03*
D36*
X57000Y201000D02*
D03*
X47000Y191000D02*
D03*
X57000D02*
D03*
X77000D02*
D03*
X87000D02*
D03*
X97000D02*
D03*
X107000D02*
D03*
X117000D02*
D03*
X127000D02*
D03*
X137000D02*
D03*
X147000D02*
D03*
X157000D02*
D03*
X167000D02*
D03*
X67000D02*
D03*
X77000Y201000D02*
D03*
X87000D02*
D03*
X97000D02*
D03*
X107000D02*
D03*
X117000D02*
D03*
X127000D02*
D03*
X137000D02*
D03*
X147000D02*
D03*
X157000D02*
D03*
X167000D02*
D03*
X67000D02*
D03*
X195500Y68000D02*
D03*
X205500Y58000D02*
D03*
Y68000D02*
D03*
Y88000D02*
D03*
Y98000D02*
D03*
Y108000D02*
D03*
Y118000D02*
D03*
Y128000D02*
D03*
Y138000D02*
D03*
Y148000D02*
D03*
Y158000D02*
D03*
Y168000D02*
D03*
Y178000D02*
D03*
Y78000D02*
D03*
X195500Y88000D02*
D03*
Y98000D02*
D03*
Y108000D02*
D03*
Y118000D02*
D03*
Y128000D02*
D03*
Y138000D02*
D03*
Y148000D02*
D03*
Y158000D02*
D03*
Y168000D02*
D03*
Y178000D02*
D03*
Y78000D02*
D03*
X64500Y24000D02*
D03*
X54500Y14000D02*
D03*
X64500D02*
D03*
X84500D02*
D03*
X94500D02*
D03*
X104500D02*
D03*
X114500D02*
D03*
X124500D02*
D03*
X134500D02*
D03*
X144500D02*
D03*
X154500D02*
D03*
X164500D02*
D03*
X174500D02*
D03*
X74500D02*
D03*
X84500Y24000D02*
D03*
X94500D02*
D03*
X104500D02*
D03*
X114500D02*
D03*
X124500D02*
D03*
X134500D02*
D03*
X144500D02*
D03*
X154500D02*
D03*
X164500D02*
D03*
X174500D02*
D03*
X74500D02*
D03*
X18000Y53500D02*
D03*
X28000Y43500D02*
D03*
Y53500D02*
D03*
Y73500D02*
D03*
Y83500D02*
D03*
Y93500D02*
D03*
Y103500D02*
D03*
Y113500D02*
D03*
Y123500D02*
D03*
Y133500D02*
D03*
Y143500D02*
D03*
Y153500D02*
D03*
Y163500D02*
D03*
Y63500D02*
D03*
X18000Y73500D02*
D03*
Y83500D02*
D03*
Y93500D02*
D03*
Y103500D02*
D03*
Y113500D02*
D03*
Y123500D02*
D03*
Y133500D02*
D03*
Y143500D02*
D03*
Y153500D02*
D03*
Y163500D02*
D03*
Y63500D02*
D03*
D37*
X47000Y201000D02*
D03*
X54500Y24000D02*
D03*
D38*
X195500Y58000D02*
D03*
X18000Y43500D02*
D03*
M02*
