G04*
G04 #@! TF.GenerationSoftware,Altium Limited,Altium Designer,22.8.2 (66)*
G04*
G04 Layer_Color=1930808*
%FSLAX25Y25*%
%MOIN*%
G70*
G04*
G04 #@! TF.SameCoordinates,5222FF82-13DF-4D67-8A3D-296B4DE4B60E*
G04*
G04*
G04 #@! TF.FilePolarity,Positive*
G04*
G01*
G75*
%ADD58C,0.00100*%
D58*
X71839Y135161D02*
Y156839D01*
X50161D02*
X71839D01*
X50161Y135161D02*
Y156839D01*
Y135161D02*
X71839D01*
X39169Y183878D02*
X49831D01*
Y179122D02*
Y183878D01*
X39169Y179122D02*
Y183878D01*
Y179122D02*
X49831D01*
X95296Y67705D02*
X102205Y60796D01*
X106704Y65295D01*
X99795Y72204D02*
X106704Y65295D01*
X95296Y67705D02*
X99795Y72204D01*
X26835Y35362D02*
X35165D01*
Y16638D02*
Y35362D01*
X26835Y16638D02*
X35165D01*
X26835D02*
Y35362D01*
X186835D02*
X195165D01*
Y16638D02*
Y35362D01*
X186835Y16638D02*
X195165D01*
X186835D02*
Y35362D01*
Y186638D02*
X195165D01*
X186835D02*
Y205362D01*
X195165D01*
Y186638D02*
Y205362D01*
X26835Y186638D02*
X35165D01*
X26835D02*
Y205362D01*
X35165D01*
Y186638D02*
Y205362D01*
X89725Y155274D02*
X96774Y148225D01*
X85226Y150775D02*
X89725Y155274D01*
X85226Y150775D02*
X92275Y143726D01*
X96774Y148225D01*
X61393Y111838D02*
X72662Y123107D01*
X67607Y128162D02*
X72662Y123107D01*
X56338Y116893D02*
X67607Y128162D01*
X56338Y116893D02*
X61393Y111838D01*
X50296Y113205D02*
X54795Y117704D01*
X61704Y110795D01*
X57205Y106296D02*
X61704Y110795D01*
X50296Y113205D02*
X57205Y106296D01*
X66796Y130295D02*
X71295Y125796D01*
X66796Y130295D02*
X73705Y137204D01*
X78204Y132705D01*
X71295Y125796D02*
X78204Y132705D01*
X56393Y116838D02*
X67662Y128107D01*
X62607Y133162D02*
X67662Y128107D01*
X51338Y121893D02*
X62607Y133162D01*
X51338Y121893D02*
X56393Y116838D01*
X57226Y106275D02*
X64275Y99226D01*
X68774Y103725D01*
X61725Y110774D02*
X68774Y103725D01*
X57226Y106275D02*
X61725Y110774D01*
X165838Y154607D02*
X177107Y143338D01*
X182162Y148393D01*
X170893Y159662D02*
X182162Y148393D01*
X165838Y154607D02*
X170893Y159662D01*
X149893Y180662D02*
X161162Y169393D01*
X144838Y175607D02*
X149893Y180662D01*
X144838Y175607D02*
X156107Y164338D01*
X161162Y169393D01*
X131705Y153704D02*
X136204Y149205D01*
X129295Y142296D02*
X136204Y149205D01*
X124796Y146795D02*
X129295Y142296D01*
X124796Y146795D02*
X131705Y153704D01*
X106205Y164704D02*
X110704Y160205D01*
X103795Y153296D02*
X110704Y160205D01*
X99296Y157795D02*
X103795Y153296D01*
X99296Y157795D02*
X106205Y164704D01*
X94893Y68162D02*
X106162Y56893D01*
X89838Y63107D02*
X94893Y68162D01*
X89838Y63107D02*
X101107Y51838D01*
X106162Y56893D01*
X166753Y121837D02*
X182663Y137747D01*
X123337Y165253D02*
X166753Y121837D01*
X123337Y165253D02*
X139247Y181163D01*
X182663Y137747D01*
X144205Y127296D02*
X148704Y131795D01*
X137296Y134205D02*
X144205Y127296D01*
X137296Y134205D02*
X141795Y138704D01*
X148704Y131795D01*
X120296Y151295D02*
X124795Y146796D01*
X120296Y151295D02*
X127205Y158204D01*
X131704Y153705D01*
X124795Y146796D02*
X131704Y153705D01*
X160319Y115886D02*
X166681D01*
Y106114D02*
Y115886D01*
X160319Y106114D02*
X166681D01*
X160319D02*
Y115886D01*
X173181Y106016D02*
Y115984D01*
X166819D02*
X173181D01*
X166819Y106016D02*
Y115984D01*
Y106016D02*
X173181D01*
X77226Y144725D02*
X84275Y151774D01*
X77226Y144725D02*
X81725Y140226D01*
X88774Y147275D01*
X84275Y151774D02*
X88774Y147275D01*
X81726Y140225D02*
X88775Y147274D01*
X81726Y140225D02*
X86225Y135726D01*
X93274Y142775D01*
X88775Y147274D02*
X93274Y142775D01*
X106726Y165225D02*
X111225Y160726D01*
X106726Y165225D02*
X113775Y172274D01*
X118274Y167775D01*
X111225Y160726D02*
X118274Y167775D01*
X111226Y160725D02*
X118275Y167774D01*
X111226Y160725D02*
X115725Y156226D01*
X122774Y163275D01*
X118275Y167774D02*
X122774Y163275D01*
X38114Y130819D02*
Y137181D01*
X47886D01*
Y130819D02*
Y137181D01*
X38114Y130819D02*
X47886D01*
X61681Y111000D02*
X111000Y61681D01*
X160319Y111000D01*
X111000Y160319D02*
X160319Y111000D01*
X61681D02*
X111000Y160319D01*
X44000Y184000D02*
Y208000D01*
Y184000D02*
X178000D01*
Y208000D01*
X44000D02*
X178000D01*
X184000Y178000D02*
X208000D01*
X184000Y44000D02*
Y178000D01*
Y44000D02*
X208000D01*
Y178000D01*
X14000D02*
X38000D01*
X14000Y44000D02*
Y178000D01*
Y44000D02*
X38000D01*
Y178000D01*
X44000Y14000D02*
Y38000D01*
Y14000D02*
X178000D01*
Y38000D01*
X44000D02*
X178000D01*
X48319Y177484D02*
X54681D01*
Y167516D02*
Y177484D01*
X48319Y167516D02*
X54681D01*
X48319D02*
Y177484D01*
X54819D02*
X61181D01*
Y167516D02*
Y177484D01*
X54819Y167516D02*
X61181D01*
X54819D02*
Y177484D01*
X61319D02*
X67681D01*
Y167516D02*
Y177484D01*
X61319Y167516D02*
X67681D01*
X61319D02*
Y177484D01*
X38016Y137819D02*
Y144181D01*
X47984D01*
Y137819D02*
Y144181D01*
X38016Y137819D02*
X47984D01*
M02*
