G04*
G04 #@! TF.GenerationSoftware,Altium Limited,Altium Designer,22.8.2 (66)*
G04*
G04 Layer_Color=8388736*
%FSLAX25Y25*%
%MOIN*%
G70*
G04*
G04 #@! TF.SameCoordinates,5222FF82-13DF-4D67-8A3D-296B4DE4B60E*
G04*
G04*
G04 #@! TF.FilePolarity,Negative*
G04*
G01*
G75*
G04:AMPARAMS|DCode=13|XSize=31.1mil|YSize=14.96mil|CornerRadius=3.35mil|HoleSize=0mil|Usage=FLASHONLY|Rotation=90.000|XOffset=0mil|YOffset=0mil|HoleType=Round|Shape=RoundedRectangle|*
%AMROUNDEDRECTD13*
21,1,0.03110,0.00827,0,0,90.0*
21,1,0.02441,0.01496,0,0,90.0*
1,1,0.00669,0.00413,0.01221*
1,1,0.00669,0.00413,-0.01221*
1,1,0.00669,-0.00413,-0.01221*
1,1,0.00669,-0.00413,0.01221*
%
%ADD13ROUNDEDRECTD13*%
G04:AMPARAMS|DCode=14|XSize=31.1mil|YSize=14.96mil|CornerRadius=3.35mil|HoleSize=0mil|Usage=FLASHONLY|Rotation=180.000|XOffset=0mil|YOffset=0mil|HoleType=Round|Shape=RoundedRectangle|*
%AMROUNDEDRECTD14*
21,1,0.03110,0.00827,0,0,180.0*
21,1,0.02441,0.01496,0,0,180.0*
1,1,0.00669,-0.01221,0.00413*
1,1,0.00669,0.01221,0.00413*
1,1,0.00669,0.01221,-0.00413*
1,1,0.00669,-0.01221,-0.00413*
%
%ADD14ROUNDEDRECTD14*%
G04:AMPARAMS|DCode=15|XSize=102.36mil|YSize=102.36mil|CornerRadius=4.43mil|HoleSize=0mil|Usage=FLASHONLY|Rotation=270.000|XOffset=0mil|YOffset=0mil|HoleType=Round|Shape=RoundedRectangle|*
%AMROUNDEDRECTD15*
21,1,0.10236,0.09350,0,0,270.0*
21,1,0.09350,0.10236,0,0,270.0*
1,1,0.00886,-0.04675,-0.04675*
1,1,0.00886,-0.04675,0.04675*
1,1,0.00886,0.04675,0.04675*
1,1,0.00886,0.04675,-0.04675*
%
%ADD15ROUNDEDRECTD15*%
%ADD16R,0.03753X0.03556*%
G04:AMPARAMS|DCode=17|XSize=25.72mil|YSize=31.62mil|CornerRadius=0mil|HoleSize=0mil|Usage=FLASHONLY|Rotation=315.000|XOffset=0mil|YOffset=0mil|HoleType=Round|Shape=Rectangle|*
%AMROTATEDRECTD17*
4,1,4,-0.02027,-0.00209,0.00209,0.02027,0.02027,0.00209,-0.00209,-0.02027,-0.02027,-0.00209,0.0*
%
%ADD17ROTATEDRECTD17*%

%ADD18R,0.05131X0.05524*%
G04:AMPARAMS|DCode=19|XSize=27.69mil|YSize=31.62mil|CornerRadius=0mil|HoleSize=0mil|Usage=FLASHONLY|Rotation=135.000|XOffset=0mil|YOffset=0mil|HoleType=Round|Shape=Rectangle|*
%AMROTATEDRECTD19*
4,1,4,0.02097,0.00139,-0.00139,-0.02097,-0.02097,-0.00139,0.00139,0.02097,0.02097,0.00139,0.0*
%
%ADD19ROTATEDRECTD19*%

G04:AMPARAMS|DCode=20|XSize=47.37mil|YSize=39.5mil|CornerRadius=0mil|HoleSize=0mil|Usage=FLASHONLY|Rotation=45.000|XOffset=0mil|YOffset=0mil|HoleType=Round|Shape=Rectangle|*
%AMROTATEDRECTD20*
4,1,4,-0.00278,-0.03071,-0.03071,-0.00278,0.00278,0.03071,0.03071,0.00278,-0.00278,-0.03071,0.0*
%
%ADD20ROTATEDRECTD20*%

G04:AMPARAMS|DCode=21|XSize=25.72mil|YSize=31.62mil|CornerRadius=0mil|HoleSize=0mil|Usage=FLASHONLY|Rotation=45.000|XOffset=0mil|YOffset=0mil|HoleType=Round|Shape=Rectangle|*
%AMROTATEDRECTD21*
4,1,4,0.00209,-0.02027,-0.02027,0.00209,-0.00209,0.02027,0.02027,-0.00209,0.00209,-0.02027,0.0*
%
%ADD21ROTATEDRECTD21*%

G04:AMPARAMS|DCode=22|XSize=47.37mil|YSize=39.5mil|CornerRadius=0mil|HoleSize=0mil|Usage=FLASHONLY|Rotation=315.000|XOffset=0mil|YOffset=0mil|HoleType=Round|Shape=Rectangle|*
%AMROTATEDRECTD22*
4,1,4,-0.03071,0.00278,-0.00278,0.03071,0.03071,-0.00278,0.00278,-0.03071,-0.03071,0.00278,0.0*
%
%ADD22ROTATEDRECTD22*%

G04:AMPARAMS|DCode=23|XSize=228mil|YSize=91mil|CornerRadius=0mil|HoleSize=0mil|Usage=FLASHONLY|Rotation=135.000|XOffset=0mil|YOffset=0mil|HoleType=Round|Shape=Rectangle|*
%AMROTATEDRECTD23*
4,1,4,0.11278,-0.04844,0.04844,-0.11278,-0.11278,0.04844,-0.04844,0.11278,0.11278,-0.04844,0.0*
%
%ADD23ROTATEDRECTD23*%

%ADD24R,0.03162X0.02572*%
%ADD25R,0.03162X0.02769*%
G04:AMPARAMS|DCode=26|XSize=27.69mil|YSize=31.62mil|CornerRadius=0mil|HoleSize=0mil|Usage=FLASHONLY|Rotation=225.000|XOffset=0mil|YOffset=0mil|HoleType=Round|Shape=Rectangle|*
%AMROTATEDRECTD26*
4,1,4,-0.00139,0.02097,0.02097,-0.00139,0.00139,-0.02097,-0.02097,0.00139,-0.00139,0.02097,0.0*
%
%ADD26ROTATEDRECTD26*%

%ADD27R,0.02572X0.03162*%
G04:AMPARAMS|DCode=28|XSize=15.75mil|YSize=51.18mil|CornerRadius=0mil|HoleSize=0mil|Usage=FLASHONLY|Rotation=225.000|XOffset=0mil|YOffset=0mil|HoleType=Round|Shape=Rectangle|*
%AMROTATEDRECTD28*
4,1,4,-0.01253,0.02366,0.02366,-0.01253,0.01253,-0.02366,-0.02366,0.01253,-0.01253,0.02366,0.0*
%
%ADD28ROTATEDRECTD28*%

G04:AMPARAMS|DCode=29|XSize=15.75mil|YSize=51.18mil|CornerRadius=0mil|HoleSize=0mil|Usage=FLASHONLY|Rotation=315.000|XOffset=0mil|YOffset=0mil|HoleType=Round|Shape=Rectangle|*
%AMROTATEDRECTD29*
4,1,4,-0.02366,-0.01253,0.01253,0.02366,0.02366,0.01253,-0.01253,-0.02366,-0.02366,-0.01253,0.0*
%
%ADD29ROTATEDRECTD29*%

%ADD30R,0.02769X0.03162*%
%ADD31C,0.08000*%
%ADD32R,0.08000X0.08000*%
%ADD33R,0.08000X0.08000*%
D13*
X65921Y138520D02*
D03*
X63953D02*
D03*
X61984D02*
D03*
X60016D02*
D03*
X58047D02*
D03*
X56079D02*
D03*
X65921Y153480D02*
D03*
X63953D02*
D03*
X61984D02*
D03*
X60016D02*
D03*
X58047D02*
D03*
X56079D02*
D03*
D14*
X68480Y141079D02*
D03*
Y143047D02*
D03*
Y145016D02*
D03*
Y146984D02*
D03*
Y148953D02*
D03*
Y150921D02*
D03*
X53520D02*
D03*
Y148953D02*
D03*
Y146984D02*
D03*
Y145016D02*
D03*
Y143047D02*
D03*
Y141079D02*
D03*
D15*
X61000Y146000D02*
D03*
D16*
X47354Y181500D02*
D03*
X41646D02*
D03*
D17*
X102414Y65086D02*
D03*
X99586Y67914D02*
D03*
X54586Y113414D02*
D03*
X57414Y110586D02*
D03*
X144414Y131586D02*
D03*
X141586Y134414D02*
D03*
D18*
X31000Y31000D02*
D03*
Y21000D02*
D03*
X191000Y31000D02*
D03*
Y21000D02*
D03*
Y191000D02*
D03*
Y201000D02*
D03*
X31000Y191000D02*
D03*
Y201000D02*
D03*
D19*
X89586Y150914D02*
D03*
X92414Y148086D02*
D03*
X64414Y103586D02*
D03*
X61586Y106414D02*
D03*
D20*
X67328Y122828D02*
D03*
X61672Y117172D02*
D03*
X62328Y127828D02*
D03*
X56672Y122172D02*
D03*
D21*
X71086Y130086D02*
D03*
X73914Y132914D02*
D03*
X131914Y149414D02*
D03*
X129086Y146586D02*
D03*
X106414Y160414D02*
D03*
X103586Y157586D02*
D03*
X124586Y151086D02*
D03*
X127414Y153914D02*
D03*
D22*
X176828Y148672D02*
D03*
X171172Y154328D02*
D03*
X150172Y175328D02*
D03*
X155828Y169672D02*
D03*
X95172Y62828D02*
D03*
X100828Y57172D02*
D03*
D23*
X166223Y138277D02*
D03*
X139777Y164723D02*
D03*
D24*
X163500Y113000D02*
D03*
Y109000D02*
D03*
D25*
X170000Y113000D02*
D03*
Y109000D02*
D03*
X51500Y174500D02*
D03*
Y170500D02*
D03*
X58000Y174500D02*
D03*
Y170500D02*
D03*
X64500Y174500D02*
D03*
Y170500D02*
D03*
D26*
X81586Y144586D02*
D03*
X84414Y147414D02*
D03*
X86086Y140086D02*
D03*
X88914Y142914D02*
D03*
X111086Y165086D02*
D03*
X113914Y167914D02*
D03*
X115586Y160586D02*
D03*
X118414Y163414D02*
D03*
D27*
X41000Y134000D02*
D03*
X45000D02*
D03*
D28*
X106128Y149278D02*
D03*
X72722Y115872D02*
D03*
X74114Y117264D02*
D03*
X75506Y118656D02*
D03*
X76897Y120048D02*
D03*
X78289Y121440D02*
D03*
X79681Y122831D02*
D03*
X81073Y124223D02*
D03*
X82465Y125615D02*
D03*
X83857Y127007D02*
D03*
X85249Y128399D02*
D03*
X86641Y129791D02*
D03*
X88033Y131183D02*
D03*
X89425Y132575D02*
D03*
X90817Y133967D02*
D03*
X92209Y135359D02*
D03*
X93601Y136751D02*
D03*
X94993Y138143D02*
D03*
X96385Y139535D02*
D03*
X97777Y140927D02*
D03*
X99168Y142319D02*
D03*
X100560Y143711D02*
D03*
X101952Y145103D02*
D03*
X103344Y146494D02*
D03*
X104736Y147887D02*
D03*
X115872Y72722D02*
D03*
X117264Y74114D02*
D03*
X118656Y75506D02*
D03*
X120048Y76897D02*
D03*
X121440Y78289D02*
D03*
X122831Y79681D02*
D03*
X124223Y81073D02*
D03*
X125615Y82465D02*
D03*
X127007Y83857D02*
D03*
X128399Y85249D02*
D03*
X129791Y86641D02*
D03*
X131183Y88033D02*
D03*
X132575Y89425D02*
D03*
X133967Y90817D02*
D03*
X135359Y92209D02*
D03*
X136751Y93601D02*
D03*
X138143Y94993D02*
D03*
X139535Y96385D02*
D03*
X140927Y97777D02*
D03*
X142319Y99168D02*
D03*
X143711Y100560D02*
D03*
X145103Y101952D02*
D03*
X146494Y103344D02*
D03*
X147887Y104736D02*
D03*
X149278Y106128D02*
D03*
D29*
X72722D02*
D03*
X147887Y117264D02*
D03*
X146494Y118656D02*
D03*
X145103Y120048D02*
D03*
X143711Y121440D02*
D03*
X142319Y122831D02*
D03*
X140927Y124223D02*
D03*
X139535Y125615D02*
D03*
X138143Y127007D02*
D03*
X136751Y128399D02*
D03*
X135359Y129791D02*
D03*
X133967Y131183D02*
D03*
X132575Y132575D02*
D03*
X131183Y133967D02*
D03*
X129791Y135359D02*
D03*
X128399Y136751D02*
D03*
X127007Y138143D02*
D03*
X125615Y139535D02*
D03*
X124223Y140927D02*
D03*
X122831Y142319D02*
D03*
X121440Y143711D02*
D03*
X120048Y145103D02*
D03*
X118656Y146494D02*
D03*
X117264Y147887D02*
D03*
X115872Y149278D02*
D03*
X149278Y115872D02*
D03*
X74114Y104736D02*
D03*
X75506Y103344D02*
D03*
X76897Y101952D02*
D03*
X78289Y100560D02*
D03*
X79681Y99168D02*
D03*
X81073Y97777D02*
D03*
X82465Y96385D02*
D03*
X83857Y94993D02*
D03*
X85249Y93601D02*
D03*
X86641Y92209D02*
D03*
X88033Y90817D02*
D03*
X89425Y89425D02*
D03*
X90817Y88033D02*
D03*
X92209Y86641D02*
D03*
X93601Y85249D02*
D03*
X94993Y83857D02*
D03*
X96385Y82465D02*
D03*
X97777Y81073D02*
D03*
X99168Y79681D02*
D03*
X100560Y78289D02*
D03*
X101952Y76897D02*
D03*
X103344Y75506D02*
D03*
X104736Y74114D02*
D03*
X106128Y72722D02*
D03*
D30*
X41000Y141000D02*
D03*
X45000D02*
D03*
D31*
X171000Y191000D02*
D03*
X81000D02*
D03*
X161000D02*
D03*
X151000D02*
D03*
X141000D02*
D03*
X131000D02*
D03*
X121000D02*
D03*
X111000D02*
D03*
X101000D02*
D03*
X91000D02*
D03*
X51000Y201000D02*
D03*
X61000Y191000D02*
D03*
Y201000D02*
D03*
X71000Y191000D02*
D03*
Y201000D02*
D03*
X91000D02*
D03*
X101000D02*
D03*
X111000D02*
D03*
X121000D02*
D03*
X131000D02*
D03*
X141000D02*
D03*
X151000D02*
D03*
X161000D02*
D03*
X171000D02*
D03*
X81000D02*
D03*
X191000Y51000D02*
D03*
Y141000D02*
D03*
Y61000D02*
D03*
Y71000D02*
D03*
Y81000D02*
D03*
Y91000D02*
D03*
Y101000D02*
D03*
Y111000D02*
D03*
Y121000D02*
D03*
Y131000D02*
D03*
X201000Y171000D02*
D03*
X191000Y161000D02*
D03*
X201000D02*
D03*
X191000Y151000D02*
D03*
X201000D02*
D03*
Y131000D02*
D03*
Y121000D02*
D03*
Y111000D02*
D03*
Y101000D02*
D03*
Y91000D02*
D03*
Y81000D02*
D03*
Y71000D02*
D03*
Y61000D02*
D03*
Y51000D02*
D03*
Y141000D02*
D03*
X21000Y51000D02*
D03*
Y141000D02*
D03*
Y61000D02*
D03*
Y71000D02*
D03*
Y81000D02*
D03*
Y91000D02*
D03*
Y101000D02*
D03*
Y111000D02*
D03*
Y121000D02*
D03*
Y131000D02*
D03*
X31000Y171000D02*
D03*
X21000Y161000D02*
D03*
X31000D02*
D03*
X21000Y151000D02*
D03*
X31000D02*
D03*
Y131000D02*
D03*
Y121000D02*
D03*
Y111000D02*
D03*
Y101000D02*
D03*
Y91000D02*
D03*
Y81000D02*
D03*
Y71000D02*
D03*
Y61000D02*
D03*
Y51000D02*
D03*
Y141000D02*
D03*
X171000Y21000D02*
D03*
X81000D02*
D03*
X161000D02*
D03*
X151000D02*
D03*
X141000D02*
D03*
X131000D02*
D03*
X121000D02*
D03*
X111000D02*
D03*
X101000D02*
D03*
X91000D02*
D03*
X51000Y31000D02*
D03*
X61000Y21000D02*
D03*
Y31000D02*
D03*
X71000Y21000D02*
D03*
Y31000D02*
D03*
X91000D02*
D03*
X101000D02*
D03*
X111000D02*
D03*
X121000D02*
D03*
X131000D02*
D03*
X141000D02*
D03*
X151000D02*
D03*
X161000D02*
D03*
X171000D02*
D03*
X81000D02*
D03*
D32*
X51000Y191000D02*
D03*
Y21000D02*
D03*
D33*
X191000Y171000D02*
D03*
X21000D02*
D03*
M02*
