G04*
G04 #@! TF.GenerationSoftware,Altium Limited,Altium Designer,22.9.1 (49)*
G04*
G04 Layer_Color=65535*
%FSLAX25Y25*%
%MOIN*%
G70*
G04*
G04 #@! TF.SameCoordinates,8D4C7E38-BABD-4712-AC01-C6420393E34D*
G04*
G04*
G04 #@! TF.FilePolarity,Positive*
G04*
G01*
G75*
%ADD10C,0.01000*%
%ADD11C,0.00500*%
%ADD12C,0.00300*%
G36*
X37769Y237265D02*
X37907D01*
Y237250D01*
X38015D01*
Y237235D01*
X38108D01*
Y237219D01*
X38154D01*
Y237204D01*
X38232D01*
Y237188D01*
X38262D01*
Y237173D01*
X38324D01*
Y237157D01*
X38370D01*
Y237142D01*
X38401D01*
Y237126D01*
X38447D01*
Y237111D01*
X38478D01*
Y237096D01*
X38540D01*
Y237080D01*
X38555D01*
Y237065D01*
X38586D01*
Y237049D01*
X38617D01*
Y237034D01*
X38648D01*
Y237018D01*
X38694D01*
Y237003D01*
X38710D01*
Y236988D01*
X38741D01*
Y236972D01*
X38756D01*
Y236957D01*
X38787D01*
Y236941D01*
X38818D01*
Y236926D01*
X38833D01*
Y236911D01*
X38864D01*
Y236895D01*
X38880D01*
Y236880D01*
X38910D01*
Y236864D01*
X38926D01*
Y236849D01*
X38941D01*
Y236833D01*
X38972D01*
Y236818D01*
X38988D01*
Y236803D01*
X39018D01*
Y236787D01*
X39034D01*
Y236772D01*
X39049D01*
Y236756D01*
X39065D01*
Y236741D01*
X39080D01*
Y236725D01*
X39111D01*
Y236710D01*
X39127D01*
Y236694D01*
X39142D01*
Y236679D01*
X39157D01*
Y236664D01*
X39173D01*
Y236648D01*
X39188D01*
Y236633D01*
X39204D01*
Y236617D01*
X39219D01*
Y236602D01*
X39235D01*
Y236586D01*
X39250D01*
Y236571D01*
X39265D01*
Y236556D01*
X39281D01*
Y236540D01*
X39296D01*
Y236525D01*
X39312D01*
Y236509D01*
X39327D01*
Y236478D01*
X39343D01*
Y236463D01*
X39358D01*
Y236448D01*
X39373D01*
Y236432D01*
X39389D01*
Y236401D01*
X39404D01*
Y236386D01*
X39420D01*
Y236370D01*
X39435D01*
Y236339D01*
X39451D01*
Y236324D01*
X39466D01*
Y236309D01*
X39481D01*
Y236278D01*
X39497D01*
Y236262D01*
X39512D01*
Y236231D01*
X39528D01*
Y236216D01*
X39543D01*
Y236185D01*
X39559D01*
Y236170D01*
X39574D01*
Y236123D01*
X39590D01*
Y236108D01*
X39605D01*
Y236077D01*
X39620D01*
Y236046D01*
X39636D01*
Y236031D01*
X39651D01*
Y235985D01*
X39667D01*
Y235954D01*
X39682D01*
Y235923D01*
X39698D01*
Y235876D01*
X39713D01*
Y235846D01*
X39728D01*
Y235799D01*
X39744D01*
Y235769D01*
X39759D01*
Y235707D01*
X39775D01*
Y235661D01*
X39790D01*
Y235614D01*
X39805D01*
Y235537D01*
X39821D01*
Y235491D01*
X39836D01*
Y235383D01*
X39852D01*
Y235306D01*
X39867D01*
Y235028D01*
X39883D01*
Y224580D01*
X39867D01*
Y224287D01*
X39852D01*
Y224210D01*
X39836D01*
Y224102D01*
X39821D01*
Y224056D01*
X39805D01*
Y223994D01*
X39790D01*
Y223932D01*
X39775D01*
Y223901D01*
X39759D01*
Y223839D01*
X39744D01*
Y223809D01*
X39728D01*
Y223747D01*
X39713D01*
Y223731D01*
X39698D01*
Y223685D01*
X39682D01*
Y223654D01*
X39667D01*
Y223623D01*
X39651D01*
Y223577D01*
X39636D01*
Y223562D01*
X39620D01*
Y223515D01*
X39605D01*
Y223500D01*
X39590D01*
Y223469D01*
X39574D01*
Y223438D01*
X39559D01*
Y223423D01*
X39543D01*
Y223392D01*
X39528D01*
Y223361D01*
X39512D01*
Y223346D01*
X39497D01*
Y223315D01*
X39481D01*
Y223299D01*
X39466D01*
Y223269D01*
X39451D01*
Y223253D01*
X39435D01*
Y223238D01*
X39420D01*
Y223222D01*
X39404D01*
Y223191D01*
X39389D01*
Y223176D01*
X39373D01*
Y223161D01*
X39358D01*
Y223130D01*
X39343D01*
Y223114D01*
X39327D01*
Y223099D01*
X39312D01*
Y223083D01*
X39296D01*
Y223068D01*
X39281D01*
Y223037D01*
X39250D01*
Y223006D01*
X39235D01*
Y222991D01*
X39204D01*
Y222960D01*
X39173D01*
Y222929D01*
X39142D01*
Y222914D01*
X39127D01*
Y222898D01*
X39111D01*
Y222883D01*
X39096D01*
Y222867D01*
X39080D01*
Y222852D01*
X39049D01*
Y222836D01*
X39034D01*
Y222821D01*
X39018D01*
Y222806D01*
X38988D01*
Y222790D01*
X38972D01*
Y222775D01*
X38957D01*
Y222759D01*
X38941D01*
Y222744D01*
X38910D01*
Y222728D01*
X38895D01*
Y222713D01*
X38880D01*
Y222697D01*
X38849D01*
Y222682D01*
X38833D01*
Y222667D01*
X38802D01*
Y222651D01*
X38772D01*
Y222636D01*
X38756D01*
Y222620D01*
X38710D01*
Y222605D01*
X38694D01*
Y222589D01*
X38648D01*
Y222574D01*
X38633D01*
Y222559D01*
X38602D01*
Y222543D01*
X38555D01*
Y222528D01*
X38540D01*
Y222512D01*
X38494D01*
Y222497D01*
X38463D01*
Y222481D01*
X38417D01*
Y222466D01*
X38386D01*
Y222451D01*
X38339D01*
Y222435D01*
X38278D01*
Y222420D01*
X38247D01*
Y222404D01*
X38170D01*
Y222389D01*
X38124D01*
Y222374D01*
X38046D01*
Y222358D01*
X37938D01*
Y222343D01*
X37846D01*
Y222327D01*
X7923D01*
Y222343D01*
X7815D01*
Y222358D01*
X7707D01*
Y222374D01*
X7645D01*
Y222389D01*
X7599D01*
Y222404D01*
X7506D01*
Y222420D01*
X7475D01*
Y222435D01*
X7414D01*
Y222451D01*
X7367D01*
Y222466D01*
X7336D01*
Y222481D01*
X7290D01*
Y222497D01*
X7259D01*
Y222512D01*
X7213D01*
Y222528D01*
X7198D01*
Y222543D01*
X7151D01*
Y222559D01*
X7120D01*
Y222574D01*
X7105D01*
Y222589D01*
X7059D01*
Y222605D01*
X7043D01*
Y222620D01*
X7012D01*
Y222636D01*
X6982D01*
Y222651D01*
X6966D01*
Y222667D01*
X6935D01*
Y222682D01*
X6920D01*
Y222697D01*
X6889D01*
Y222713D01*
X6873D01*
Y222728D01*
X6843D01*
Y222744D01*
X6812D01*
Y222759D01*
X6796D01*
Y222775D01*
X6781D01*
Y222790D01*
X6765D01*
Y222806D01*
X6735D01*
Y222821D01*
X6719D01*
Y222836D01*
X6704D01*
Y222852D01*
X6688D01*
Y222867D01*
X6657D01*
Y222883D01*
X6642D01*
Y222898D01*
X6627D01*
Y222914D01*
X6611D01*
Y222929D01*
X6596D01*
Y222944D01*
X6580D01*
Y222960D01*
X6565D01*
Y222975D01*
X6549D01*
Y222991D01*
X6534D01*
Y223006D01*
X6519D01*
Y223022D01*
X6503D01*
Y223037D01*
X6488D01*
Y223053D01*
X6472D01*
Y223068D01*
X6457D01*
Y223083D01*
X6441D01*
Y223099D01*
X6426D01*
Y223130D01*
X6410D01*
Y223145D01*
X6395D01*
Y223161D01*
X6380D01*
Y223176D01*
X6364D01*
Y223207D01*
X6349D01*
Y223222D01*
X6333D01*
Y223238D01*
X6318D01*
Y223269D01*
X6302D01*
Y223284D01*
X6287D01*
Y223299D01*
X6272D01*
Y223330D01*
X6256D01*
Y223346D01*
X6241D01*
Y223376D01*
X6225D01*
Y223392D01*
X6210D01*
Y223423D01*
X6194D01*
Y223438D01*
X6179D01*
Y223485D01*
X6164D01*
Y223500D01*
X6148D01*
Y223531D01*
X6133D01*
Y223562D01*
X6117D01*
Y223577D01*
X6102D01*
Y223639D01*
X6086D01*
Y223654D01*
X6071D01*
Y223685D01*
X6056D01*
Y223731D01*
X6040D01*
Y223762D01*
X6025D01*
Y223824D01*
X6009D01*
Y223839D01*
X5994D01*
Y223917D01*
X5978D01*
Y223948D01*
X5963D01*
Y223994D01*
X5948D01*
Y224071D01*
X5932D01*
Y224117D01*
X5917D01*
Y224241D01*
X5901D01*
Y224318D01*
X5886D01*
Y235275D01*
X5901D01*
Y235367D01*
X5917D01*
Y235491D01*
X5932D01*
Y235537D01*
X5948D01*
Y235614D01*
X5963D01*
Y235661D01*
X5978D01*
Y235691D01*
X5994D01*
Y235769D01*
X6009D01*
Y235784D01*
X6025D01*
Y235846D01*
X6040D01*
Y235861D01*
X6056D01*
Y235907D01*
X6071D01*
Y235954D01*
X6086D01*
Y235969D01*
X6102D01*
Y236015D01*
X6117D01*
Y236031D01*
X6133D01*
Y236077D01*
X6148D01*
Y236108D01*
X6164D01*
Y236123D01*
X6179D01*
Y236154D01*
X6194D01*
Y236170D01*
X6210D01*
Y236201D01*
X6225D01*
Y236231D01*
X6241D01*
Y236262D01*
X6256D01*
Y236278D01*
X6272D01*
Y236293D01*
X6287D01*
Y236324D01*
X6302D01*
Y236339D01*
X6318D01*
Y236370D01*
X6333D01*
Y236386D01*
X6349D01*
Y236401D01*
X6364D01*
Y236432D01*
X6395D01*
Y236463D01*
X6410D01*
Y236478D01*
X6426D01*
Y236494D01*
X6441D01*
Y236509D01*
X6457D01*
Y236540D01*
X6472D01*
Y236556D01*
X6488D01*
Y236571D01*
X6503D01*
Y236586D01*
X6519D01*
Y236602D01*
X6534D01*
Y236617D01*
X6549D01*
Y236633D01*
X6565D01*
Y236648D01*
X6580D01*
Y236664D01*
X6596D01*
Y236679D01*
X6611D01*
Y236694D01*
X6642D01*
Y236710D01*
X6657D01*
Y236725D01*
X6673D01*
Y236741D01*
X6688D01*
Y236756D01*
X6704D01*
Y236772D01*
X6719D01*
Y236787D01*
X6735D01*
Y236803D01*
X6765D01*
Y236818D01*
X6781D01*
Y236833D01*
X6812D01*
Y236849D01*
X6827D01*
Y236864D01*
X6843D01*
Y236880D01*
X6873D01*
Y236895D01*
X6889D01*
Y236911D01*
X6920D01*
Y236926D01*
X6935D01*
Y236941D01*
X6966D01*
Y236957D01*
X6997D01*
Y236972D01*
X7012D01*
Y236988D01*
X7043D01*
Y237003D01*
X7074D01*
Y237018D01*
X7105D01*
Y237034D01*
X7136D01*
Y237049D01*
X7167D01*
Y237065D01*
X7198D01*
Y237080D01*
X7228D01*
Y237096D01*
X7275D01*
Y237111D01*
X7305D01*
Y237126D01*
X7352D01*
Y237142D01*
X7383D01*
Y237157D01*
X7429D01*
Y237173D01*
X7491D01*
Y237188D01*
X7522D01*
Y237204D01*
X7599D01*
Y237219D01*
X7660D01*
Y237235D01*
X7738D01*
Y237250D01*
X7861D01*
Y237265D01*
X7985D01*
Y237281D01*
X37769D01*
Y237265D01*
D02*
G37*
G36*
X50325Y232291D02*
X50392Y232284D01*
X50473Y232276D01*
X50554Y232269D01*
X50651Y232247D01*
X50850Y232202D01*
X51072Y232136D01*
X51183Y232091D01*
X51287Y232039D01*
X51391Y231973D01*
X51494Y231906D01*
X51502Y231899D01*
X51516Y231891D01*
X51546Y231869D01*
X51583Y231832D01*
X51620Y231795D01*
X51672Y231743D01*
X51724Y231684D01*
X51783Y231625D01*
X51842Y231551D01*
X51901Y231462D01*
X51968Y231373D01*
X52027Y231277D01*
X52079Y231166D01*
X52138Y231055D01*
X52182Y230937D01*
X52227Y230804D01*
X51561Y230648D01*
Y230656D01*
X51553Y230670D01*
X51539Y230700D01*
X51524Y230737D01*
X51509Y230781D01*
X51487Y230841D01*
X51428Y230959D01*
X51354Y231092D01*
X51265Y231225D01*
X51154Y231351D01*
X51035Y231462D01*
X51021Y231477D01*
X50976Y231507D01*
X50902Y231544D01*
X50806Y231595D01*
X50680Y231640D01*
X50540Y231684D01*
X50369Y231714D01*
X50184Y231721D01*
X50125D01*
X50088Y231714D01*
X50036D01*
X49977Y231706D01*
X49837Y231684D01*
X49681Y231655D01*
X49518Y231603D01*
X49348Y231529D01*
X49193Y231433D01*
X49185D01*
X49178Y231418D01*
X49126Y231381D01*
X49060Y231322D01*
X48978Y231233D01*
X48882Y231122D01*
X48793Y230996D01*
X48712Y230841D01*
X48638Y230670D01*
Y230663D01*
X48630Y230648D01*
X48623Y230626D01*
X48616Y230589D01*
X48601Y230545D01*
X48586Y230493D01*
X48564Y230367D01*
X48534Y230219D01*
X48505Y230056D01*
X48490Y229879D01*
X48482Y229686D01*
Y229679D01*
Y229657D01*
Y229620D01*
Y229575D01*
X48490Y229523D01*
Y229457D01*
X48497Y229383D01*
X48505Y229301D01*
X48527Y229124D01*
X48564Y228931D01*
X48608Y228739D01*
X48667Y228547D01*
Y228539D01*
X48675Y228524D01*
X48690Y228502D01*
X48704Y228465D01*
X48749Y228376D01*
X48815Y228273D01*
X48897Y228154D01*
X49000Y228029D01*
X49119Y227918D01*
X49259Y227814D01*
X49267D01*
X49282Y227807D01*
X49304Y227792D01*
X49333Y227777D01*
X49370Y227762D01*
X49415Y227740D01*
X49518Y227696D01*
X49652Y227651D01*
X49800Y227614D01*
X49962Y227585D01*
X50133Y227577D01*
X50184D01*
X50229Y227585D01*
X50281D01*
X50332Y227592D01*
X50466Y227622D01*
X50621Y227659D01*
X50776Y227718D01*
X50939Y227799D01*
X51021Y227844D01*
X51095Y227903D01*
X51102Y227910D01*
X51109Y227918D01*
X51132Y227940D01*
X51161Y227962D01*
X51191Y227999D01*
X51228Y228043D01*
X51272Y228088D01*
X51309Y228147D01*
X51354Y228214D01*
X51405Y228288D01*
X51450Y228362D01*
X51494Y228450D01*
X51531Y228547D01*
X51568Y228650D01*
X51605Y228761D01*
X51635Y228880D01*
X52316Y228709D01*
Y228702D01*
X52308Y228672D01*
X52293Y228628D01*
X52271Y228569D01*
X52249Y228502D01*
X52219Y228421D01*
X52182Y228332D01*
X52138Y228236D01*
X52034Y228029D01*
X51901Y227821D01*
X51820Y227718D01*
X51738Y227614D01*
X51650Y227525D01*
X51546Y227437D01*
X51539Y227429D01*
X51524Y227414D01*
X51487Y227400D01*
X51450Y227370D01*
X51391Y227333D01*
X51331Y227296D01*
X51250Y227259D01*
X51169Y227222D01*
X51072Y227178D01*
X50969Y227141D01*
X50858Y227104D01*
X50739Y227067D01*
X50614Y227037D01*
X50480Y227022D01*
X50340Y227007D01*
X50192Y227000D01*
X50110D01*
X50051Y227007D01*
X49985D01*
X49903Y227015D01*
X49814Y227030D01*
X49711Y227044D01*
X49496Y227081D01*
X49274Y227141D01*
X49052Y227222D01*
X48949Y227274D01*
X48845Y227333D01*
X48838Y227340D01*
X48823Y227348D01*
X48793Y227370D01*
X48764Y227400D01*
X48719Y227429D01*
X48667Y227474D01*
X48608Y227525D01*
X48549Y227585D01*
X48490Y227651D01*
X48423Y227718D01*
X48290Y227888D01*
X48164Y228088D01*
X48053Y228310D01*
Y228317D01*
X48038Y228339D01*
X48031Y228376D01*
X48009Y228421D01*
X47994Y228480D01*
X47972Y228554D01*
X47942Y228635D01*
X47920Y228724D01*
X47898Y228820D01*
X47868Y228931D01*
X47831Y229161D01*
X47802Y229420D01*
X47787Y229686D01*
Y229694D01*
Y229723D01*
Y229768D01*
X47794Y229819D01*
Y229893D01*
X47802Y229967D01*
X47809Y230064D01*
X47824Y230160D01*
X47861Y230374D01*
X47913Y230611D01*
X47987Y230848D01*
X48090Y231077D01*
X48098Y231085D01*
X48105Y231107D01*
X48120Y231137D01*
X48149Y231174D01*
X48179Y231225D01*
X48216Y231285D01*
X48312Y231418D01*
X48438Y231566D01*
X48586Y231714D01*
X48756Y231862D01*
X48956Y231988D01*
X48963Y231995D01*
X48986Y232002D01*
X49015Y232017D01*
X49052Y232039D01*
X49111Y232062D01*
X49171Y232084D01*
X49245Y232113D01*
X49326Y232143D01*
X49415Y232173D01*
X49511Y232202D01*
X49718Y232247D01*
X49955Y232284D01*
X50199Y232298D01*
X50273D01*
X50325Y232291D01*
D02*
G37*
G36*
X78327Y227089D02*
X77742D01*
Y227555D01*
X77735Y227548D01*
X77727Y227533D01*
X77705Y227503D01*
X77675Y227466D01*
X77638Y227429D01*
X77594Y227385D01*
X77542Y227333D01*
X77476Y227281D01*
X77409Y227229D01*
X77335Y227178D01*
X77246Y227133D01*
X77150Y227096D01*
X77054Y227059D01*
X76943Y227030D01*
X76824Y227015D01*
X76699Y227007D01*
X76654D01*
X76625Y227015D01*
X76536Y227022D01*
X76432Y227037D01*
X76306Y227067D01*
X76166Y227111D01*
X76025Y227170D01*
X75885Y227252D01*
X75877D01*
X75870Y227266D01*
X75825Y227296D01*
X75759Y227355D01*
X75677Y227429D01*
X75581Y227525D01*
X75485Y227644D01*
X75389Y227777D01*
X75307Y227932D01*
Y227940D01*
X75300Y227955D01*
X75293Y227977D01*
X75278Y228006D01*
X75263Y228051D01*
X75241Y228103D01*
X75226Y228154D01*
X75211Y228221D01*
X75174Y228369D01*
X75137Y228539D01*
X75115Y228732D01*
X75108Y228939D01*
Y228946D01*
Y228961D01*
Y228991D01*
Y229035D01*
X75115Y229079D01*
Y229139D01*
X75130Y229272D01*
X75152Y229427D01*
X75189Y229597D01*
X75233Y229775D01*
X75293Y229945D01*
Y229953D01*
X75300Y229967D01*
X75315Y229990D01*
X75330Y230019D01*
X75374Y230101D01*
X75433Y230204D01*
X75507Y230315D01*
X75603Y230426D01*
X75714Y230545D01*
X75848Y230641D01*
X75855D01*
X75862Y230648D01*
X75885Y230663D01*
X75914Y230678D01*
X75988Y230715D01*
X76092Y230767D01*
X76210Y230811D01*
X76351Y230848D01*
X76506Y230878D01*
X76669Y230885D01*
X76728D01*
X76787Y230878D01*
X76869Y230870D01*
X76965Y230848D01*
X77069Y230826D01*
X77172Y230789D01*
X77268Y230737D01*
X77283Y230730D01*
X77313Y230715D01*
X77357Y230678D01*
X77416Y230641D01*
X77490Y230589D01*
X77557Y230522D01*
X77631Y230456D01*
X77698Y230374D01*
Y232210D01*
X78327D01*
Y227089D01*
D02*
G37*
G36*
X74442Y230878D02*
X74523Y230863D01*
X74619Y230833D01*
X74723Y230796D01*
X74841Y230744D01*
X74967Y230678D01*
X74738Y230101D01*
X74730Y230108D01*
X74701Y230123D01*
X74656Y230145D01*
X74597Y230167D01*
X74530Y230189D01*
X74449Y230212D01*
X74368Y230226D01*
X74286Y230234D01*
X74249D01*
X74212Y230226D01*
X74160Y230219D01*
X74109Y230204D01*
X74042Y230182D01*
X73975Y230152D01*
X73916Y230108D01*
X73909Y230101D01*
X73887Y230086D01*
X73864Y230056D01*
X73827Y230019D01*
X73790Y229967D01*
X73753Y229908D01*
X73716Y229842D01*
X73687Y229760D01*
X73679Y229745D01*
X73672Y229701D01*
X73657Y229634D01*
X73635Y229546D01*
X73613Y229435D01*
X73598Y229309D01*
X73591Y229176D01*
X73583Y229028D01*
Y227089D01*
X72954D01*
Y230804D01*
X73524D01*
Y230241D01*
X73531Y230249D01*
X73561Y230300D01*
X73598Y230367D01*
X73657Y230448D01*
X73716Y230530D01*
X73783Y230619D01*
X73850Y230693D01*
X73916Y230752D01*
X73924Y230759D01*
X73946Y230774D01*
X73990Y230796D01*
X74035Y230818D01*
X74094Y230841D01*
X74168Y230863D01*
X74242Y230878D01*
X74323Y230885D01*
X74375D01*
X74442Y230878D01*
D02*
G37*
G36*
X82922Y227089D02*
X82323D01*
X80924Y230804D01*
X81590D01*
X82389Y228576D01*
Y228569D01*
X82397Y228561D01*
X82404Y228539D01*
X82411Y228517D01*
X82434Y228443D01*
X82463Y228347D01*
X82500Y228236D01*
X82545Y228110D01*
X82582Y227969D01*
X82626Y227829D01*
X82633Y227844D01*
X82641Y227881D01*
X82663Y227940D01*
X82685Y228029D01*
X82722Y228125D01*
X82759Y228251D01*
X82811Y228384D01*
X82863Y228532D01*
X83684Y230804D01*
X84335D01*
X82922Y227089D01*
D02*
G37*
G36*
X46884D02*
X46233D01*
Y231373D01*
X44738Y227089D01*
X44131D01*
X42651Y231447D01*
Y227089D01*
X42000D01*
Y232210D01*
X43014D01*
X44227Y228576D01*
Y228569D01*
X44235Y228554D01*
X44242Y228532D01*
X44257Y228495D01*
X44287Y228406D01*
X44324Y228295D01*
X44361Y228169D01*
X44405Y228043D01*
X44442Y227925D01*
X44472Y227821D01*
X44479Y227836D01*
X44486Y227873D01*
X44509Y227940D01*
X44538Y228029D01*
X44575Y228147D01*
X44627Y228288D01*
X44679Y228450D01*
X44745Y228643D01*
X45974Y232210D01*
X46884D01*
Y227089D01*
D02*
G37*
G36*
X57185Y229250D02*
Y229242D01*
Y229213D01*
Y229176D01*
Y229124D01*
X57177Y229057D01*
Y228983D01*
X57170Y228894D01*
X57163Y228806D01*
X57140Y228606D01*
X57111Y228399D01*
X57066Y228199D01*
X57037Y228103D01*
X57007Y228014D01*
Y228006D01*
X57000Y227992D01*
X56985Y227969D01*
X56970Y227940D01*
X56926Y227858D01*
X56859Y227755D01*
X56770Y227636D01*
X56667Y227518D01*
X56534Y227392D01*
X56371Y227281D01*
X56363D01*
X56349Y227266D01*
X56326Y227259D01*
X56289Y227237D01*
X56245Y227215D01*
X56186Y227192D01*
X56127Y227170D01*
X56053Y227141D01*
X55971Y227111D01*
X55882Y227089D01*
X55786Y227067D01*
X55675Y227044D01*
X55564Y227030D01*
X55446Y227015D01*
X55179Y227000D01*
X55113D01*
X55061Y227007D01*
X55002D01*
X54928Y227015D01*
X54846Y227022D01*
X54765Y227030D01*
X54580Y227059D01*
X54380Y227104D01*
X54188Y227163D01*
X54003Y227244D01*
X53995D01*
X53981Y227259D01*
X53958Y227274D01*
X53929Y227289D01*
X53847Y227348D01*
X53751Y227429D01*
X53640Y227533D01*
X53537Y227651D01*
X53433Y227799D01*
X53352Y227962D01*
Y227969D01*
X53344Y227984D01*
X53337Y228014D01*
X53322Y228051D01*
X53307Y228095D01*
X53292Y228154D01*
X53270Y228221D01*
X53255Y228302D01*
X53241Y228391D01*
X53218Y228487D01*
X53204Y228591D01*
X53189Y228702D01*
X53174Y228828D01*
X53167Y228961D01*
X53159Y229102D01*
Y229250D01*
Y232210D01*
X53840D01*
Y229250D01*
Y229242D01*
Y229220D01*
Y229183D01*
Y229139D01*
X53847Y229087D01*
Y229020D01*
X53855Y228880D01*
X53870Y228717D01*
X53892Y228554D01*
X53921Y228399D01*
X53936Y228332D01*
X53958Y228265D01*
X53966Y228251D01*
X53981Y228214D01*
X54018Y228162D01*
X54062Y228088D01*
X54114Y228014D01*
X54188Y227932D01*
X54277Y227851D01*
X54380Y227784D01*
X54395Y227777D01*
X54432Y227755D01*
X54499Y227733D01*
X54587Y227703D01*
X54691Y227666D01*
X54824Y227644D01*
X54965Y227622D01*
X55120Y227614D01*
X55194D01*
X55239Y227622D01*
X55305D01*
X55372Y227629D01*
X55535Y227659D01*
X55712Y227696D01*
X55882Y227755D01*
X56045Y227836D01*
X56119Y227888D01*
X56186Y227947D01*
X56193Y227955D01*
X56201Y227962D01*
X56215Y227984D01*
X56238Y228014D01*
X56260Y228058D01*
X56289Y228103D01*
X56319Y228169D01*
X56349Y228236D01*
X56378Y228317D01*
X56400Y228413D01*
X56430Y228524D01*
X56452Y228643D01*
X56474Y228776D01*
X56489Y228917D01*
X56504Y229079D01*
Y229250D01*
Y232210D01*
X57185D01*
Y229250D01*
D02*
G37*
G36*
X87088Y227089D02*
X86459D01*
Y231092D01*
X86452Y231085D01*
X86415Y231055D01*
X86370Y231011D01*
X86296Y230959D01*
X86215Y230892D01*
X86111Y230818D01*
X85993Y230737D01*
X85860Y230656D01*
X85852D01*
X85845Y230648D01*
X85801Y230619D01*
X85727Y230582D01*
X85638Y230537D01*
X85534Y230485D01*
X85423Y230434D01*
X85312Y230382D01*
X85201Y230337D01*
Y230944D01*
X85209D01*
X85223Y230959D01*
X85253Y230966D01*
X85290Y230989D01*
X85334Y231011D01*
X85386Y231040D01*
X85512Y231114D01*
X85660Y231196D01*
X85808Y231299D01*
X85963Y231418D01*
X86119Y231544D01*
X86126Y231551D01*
X86134Y231558D01*
X86156Y231581D01*
X86185Y231603D01*
X86252Y231677D01*
X86341Y231766D01*
X86430Y231869D01*
X86526Y231988D01*
X86607Y232106D01*
X86681Y232232D01*
X87088D01*
Y227089D01*
D02*
G37*
G36*
X70712Y230878D02*
X70823Y230870D01*
X70949Y230855D01*
X71075Y230833D01*
X71200Y230804D01*
X71319Y230767D01*
X71334Y230759D01*
X71371Y230744D01*
X71422Y230722D01*
X71489Y230693D01*
X71563Y230648D01*
X71637Y230604D01*
X71704Y230545D01*
X71763Y230485D01*
X71770Y230478D01*
X71785Y230456D01*
X71807Y230419D01*
X71837Y230374D01*
X71874Y230308D01*
X71903Y230241D01*
X71933Y230160D01*
X71955Y230064D01*
Y230056D01*
X71963Y230034D01*
X71970Y229990D01*
X71977Y229930D01*
Y229849D01*
X71985Y229753D01*
X71992Y229627D01*
Y229486D01*
Y228643D01*
Y228635D01*
Y228606D01*
Y228561D01*
Y228502D01*
Y228436D01*
Y228354D01*
X72000Y228177D01*
Y227992D01*
X72007Y227807D01*
X72014Y227725D01*
Y227651D01*
X72022Y227585D01*
X72029Y227533D01*
Y227525D01*
X72037Y227496D01*
X72044Y227451D01*
X72066Y227392D01*
X72081Y227326D01*
X72111Y227252D01*
X72148Y227170D01*
X72185Y227089D01*
X71526D01*
X71519Y227096D01*
X71511Y227126D01*
X71496Y227163D01*
X71474Y227222D01*
X71452Y227289D01*
X71437Y227370D01*
X71422Y227459D01*
X71408Y227555D01*
X71400D01*
X71393Y227540D01*
X71348Y227503D01*
X71282Y227451D01*
X71193Y227385D01*
X71082Y227318D01*
X70971Y227244D01*
X70853Y227178D01*
X70727Y227126D01*
X70712Y227118D01*
X70668Y227111D01*
X70601Y227089D01*
X70520Y227067D01*
X70416Y227044D01*
X70298Y227030D01*
X70164Y227015D01*
X70031Y227007D01*
X69972D01*
X69928Y227015D01*
X69876D01*
X69817Y227022D01*
X69683Y227044D01*
X69535Y227081D01*
X69373Y227133D01*
X69225Y227207D01*
X69091Y227303D01*
X69077Y227318D01*
X69040Y227355D01*
X68988Y227422D01*
X68929Y227511D01*
X68869Y227622D01*
X68818Y227747D01*
X68781Y227903D01*
X68773Y227977D01*
X68766Y228066D01*
Y228080D01*
Y228110D01*
X68773Y228162D01*
X68781Y228228D01*
X68795Y228310D01*
X68818Y228391D01*
X68847Y228480D01*
X68884Y228561D01*
X68892Y228569D01*
X68906Y228598D01*
X68936Y228643D01*
X68973Y228695D01*
X69017Y228754D01*
X69077Y228813D01*
X69136Y228872D01*
X69210Y228924D01*
X69217Y228931D01*
X69247Y228946D01*
X69284Y228976D01*
X69343Y229005D01*
X69410Y229035D01*
X69491Y229072D01*
X69572Y229102D01*
X69669Y229131D01*
X69676D01*
X69706Y229139D01*
X69750Y229153D01*
X69809Y229161D01*
X69883Y229176D01*
X69979Y229190D01*
X70090Y229213D01*
X70224Y229227D01*
X70231D01*
X70261Y229235D01*
X70298D01*
X70349Y229242D01*
X70409Y229250D01*
X70483Y229264D01*
X70564Y229272D01*
X70653Y229287D01*
X70830Y229324D01*
X71023Y229361D01*
X71193Y229405D01*
X71274Y229427D01*
X71348Y229449D01*
Y229457D01*
Y229472D01*
X71356Y229516D01*
Y229568D01*
Y229597D01*
Y229612D01*
Y229620D01*
Y229627D01*
Y229671D01*
X71348Y229745D01*
X71334Y229827D01*
X71311Y229916D01*
X71274Y230004D01*
X71230Y230086D01*
X71171Y230152D01*
X71163Y230160D01*
X71126Y230189D01*
X71067Y230219D01*
X70993Y230263D01*
X70890Y230300D01*
X70771Y230337D01*
X70623Y230360D01*
X70453Y230367D01*
X70379D01*
X70305Y230360D01*
X70201Y230345D01*
X70098Y230330D01*
X69987Y230300D01*
X69883Y230263D01*
X69794Y230212D01*
X69787Y230204D01*
X69757Y230182D01*
X69720Y230145D01*
X69676Y230086D01*
X69632Y230012D01*
X69580Y229916D01*
X69535Y229797D01*
X69491Y229664D01*
X68877Y229745D01*
Y229753D01*
X68884Y229760D01*
Y229782D01*
X68892Y229812D01*
X68914Y229879D01*
X68943Y229975D01*
X68980Y230071D01*
X69025Y230175D01*
X69084Y230278D01*
X69151Y230374D01*
X69158Y230382D01*
X69188Y230411D01*
X69232Y230456D01*
X69291Y230515D01*
X69373Y230574D01*
X69469Y230633D01*
X69580Y230700D01*
X69706Y230752D01*
X69713D01*
X69720Y230759D01*
X69743Y230767D01*
X69772Y230774D01*
X69846Y230796D01*
X69950Y230818D01*
X70068Y230841D01*
X70216Y230863D01*
X70372Y230878D01*
X70549Y230885D01*
X70631D01*
X70712Y230878D01*
D02*
G37*
G36*
X62343Y232202D02*
X62402D01*
X62535Y232187D01*
X62683Y232173D01*
X62838Y232143D01*
X62994Y232106D01*
X63134Y232054D01*
X63142D01*
X63149Y232047D01*
X63194Y232025D01*
X63260Y231988D01*
X63334Y231936D01*
X63423Y231869D01*
X63519Y231788D01*
X63608Y231684D01*
X63689Y231573D01*
X63697Y231558D01*
X63719Y231514D01*
X63756Y231455D01*
X63793Y231366D01*
X63830Y231262D01*
X63867Y231151D01*
X63889Y231026D01*
X63897Y230900D01*
Y230885D01*
Y230848D01*
X63889Y230781D01*
X63874Y230700D01*
X63852Y230604D01*
X63815Y230500D01*
X63771Y230397D01*
X63712Y230286D01*
X63704Y230271D01*
X63682Y230241D01*
X63638Y230182D01*
X63578Y230123D01*
X63504Y230049D01*
X63416Y229967D01*
X63305Y229893D01*
X63179Y229819D01*
X63186D01*
X63201Y229812D01*
X63223Y229805D01*
X63253Y229790D01*
X63342Y229760D01*
X63445Y229708D01*
X63556Y229642D01*
X63682Y229560D01*
X63793Y229464D01*
X63897Y229346D01*
X63904Y229331D01*
X63934Y229287D01*
X63978Y229220D01*
X64022Y229131D01*
X64067Y229013D01*
X64111Y228887D01*
X64141Y228739D01*
X64148Y228576D01*
Y228569D01*
Y228561D01*
Y228517D01*
X64141Y228443D01*
X64126Y228354D01*
X64111Y228251D01*
X64082Y228140D01*
X64045Y228021D01*
X63993Y227903D01*
X63985Y227888D01*
X63963Y227851D01*
X63934Y227799D01*
X63889Y227725D01*
X63830Y227651D01*
X63771Y227570D01*
X63697Y227488D01*
X63615Y227422D01*
X63608Y227414D01*
X63578Y227392D01*
X63527Y227363D01*
X63460Y227333D01*
X63379Y227289D01*
X63282Y227244D01*
X63179Y227207D01*
X63053Y227170D01*
X63038D01*
X62994Y227155D01*
X62920Y227148D01*
X62824Y227133D01*
X62705Y227118D01*
X62565Y227104D01*
X62409Y227096D01*
X62232Y227089D01*
X60278D01*
Y232210D01*
X62291D01*
X62343Y232202D01*
D02*
G37*
G36*
X66627Y230878D02*
X66694Y230870D01*
X66768Y230855D01*
X66849Y230841D01*
X66945Y230826D01*
X67145Y230759D01*
X67249Y230722D01*
X67352Y230670D01*
X67456Y230619D01*
X67560Y230545D01*
X67656Y230471D01*
X67752Y230382D01*
X67759Y230374D01*
X67774Y230360D01*
X67796Y230330D01*
X67826Y230293D01*
X67863Y230241D01*
X67907Y230175D01*
X67952Y230101D01*
X67996Y230019D01*
X68041Y229930D01*
X68085Y229819D01*
X68129Y229708D01*
X68166Y229583D01*
X68196Y229449D01*
X68218Y229309D01*
X68233Y229161D01*
X68240Y228998D01*
Y228991D01*
Y228968D01*
Y228931D01*
Y228880D01*
X68233Y228820D01*
X68226Y228746D01*
Y228672D01*
X68211Y228591D01*
X68189Y228406D01*
X68144Y228221D01*
X68092Y228036D01*
X68018Y227866D01*
Y227858D01*
X68011Y227851D01*
X67996Y227829D01*
X67981Y227799D01*
X67930Y227725D01*
X67863Y227636D01*
X67774Y227533D01*
X67663Y227429D01*
X67537Y227326D01*
X67389Y227229D01*
X67382D01*
X67375Y227222D01*
X67352Y227207D01*
X67315Y227192D01*
X67278Y227178D01*
X67234Y227163D01*
X67123Y227118D01*
X66997Y227081D01*
X66842Y227044D01*
X66679Y227015D01*
X66501Y227007D01*
X66427D01*
X66368Y227015D01*
X66302Y227022D01*
X66228Y227037D01*
X66139Y227052D01*
X66050Y227067D01*
X65850Y227126D01*
X65739Y227170D01*
X65636Y227215D01*
X65532Y227274D01*
X65428Y227340D01*
X65332Y227414D01*
X65236Y227503D01*
X65229Y227511D01*
X65214Y227525D01*
X65192Y227555D01*
X65162Y227599D01*
X65125Y227651D01*
X65088Y227710D01*
X65044Y227784D01*
X64999Y227873D01*
X64955Y227969D01*
X64910Y228080D01*
X64873Y228199D01*
X64836Y228325D01*
X64807Y228465D01*
X64785Y228613D01*
X64770Y228776D01*
X64762Y228946D01*
Y228961D01*
Y228991D01*
X64770Y229042D01*
Y229116D01*
X64777Y229198D01*
X64792Y229301D01*
X64807Y229405D01*
X64836Y229523D01*
X64866Y229642D01*
X64903Y229768D01*
X64947Y229901D01*
X65007Y230027D01*
X65066Y230145D01*
X65147Y230263D01*
X65229Y230374D01*
X65332Y230471D01*
X65340Y230478D01*
X65354Y230485D01*
X65384Y230508D01*
X65421Y230537D01*
X65465Y230567D01*
X65525Y230604D01*
X65584Y230641D01*
X65658Y230678D01*
X65739Y230715D01*
X65828Y230752D01*
X66028Y230818D01*
X66257Y230870D01*
X66376Y230878D01*
X66501Y230885D01*
X66575D01*
X66627Y230878D01*
D02*
G37*
G36*
X75942Y154725D02*
Y154720D01*
Y154698D01*
Y154670D01*
Y154631D01*
X75936Y154581D01*
Y154525D01*
X75931Y154459D01*
X75925Y154392D01*
X75908Y154242D01*
X75886Y154087D01*
X75853Y153937D01*
X75831Y153865D01*
X75809Y153798D01*
Y153793D01*
X75803Y153782D01*
X75792Y153765D01*
X75781Y153743D01*
X75748Y153682D01*
X75697Y153604D01*
X75631Y153515D01*
X75553Y153427D01*
X75453Y153332D01*
X75331Y153249D01*
X75326D01*
X75315Y153238D01*
X75298Y153232D01*
X75270Y153216D01*
X75237Y153199D01*
X75192Y153182D01*
X75148Y153166D01*
X75093Y153144D01*
X75032Y153121D01*
X74965Y153105D01*
X74893Y153088D01*
X74809Y153071D01*
X74726Y153060D01*
X74638Y153049D01*
X74438Y153038D01*
X74388D01*
X74349Y153044D01*
X74304D01*
X74249Y153049D01*
X74188Y153055D01*
X74127Y153060D01*
X73988Y153083D01*
X73838Y153116D01*
X73694Y153160D01*
X73555Y153221D01*
X73550D01*
X73539Y153232D01*
X73522Y153243D01*
X73500Y153254D01*
X73439Y153299D01*
X73366Y153360D01*
X73283Y153438D01*
X73206Y153526D01*
X73128Y153638D01*
X73067Y153760D01*
Y153765D01*
X73061Y153776D01*
X73056Y153798D01*
X73045Y153826D01*
X73033Y153859D01*
X73022Y153904D01*
X73006Y153954D01*
X72995Y154015D01*
X72984Y154081D01*
X72967Y154154D01*
X72956Y154231D01*
X72945Y154315D01*
X72934Y154409D01*
X72928Y154509D01*
X72922Y154614D01*
Y154725D01*
Y156945D01*
X73433D01*
Y154725D01*
Y154720D01*
Y154703D01*
Y154675D01*
Y154642D01*
X73439Y154603D01*
Y154553D01*
X73444Y154448D01*
X73455Y154326D01*
X73472Y154204D01*
X73494Y154087D01*
X73505Y154037D01*
X73522Y153987D01*
X73527Y153976D01*
X73539Y153948D01*
X73566Y153909D01*
X73600Y153854D01*
X73638Y153798D01*
X73694Y153737D01*
X73761Y153676D01*
X73838Y153626D01*
X73849Y153621D01*
X73877Y153604D01*
X73927Y153587D01*
X73994Y153565D01*
X74071Y153538D01*
X74171Y153521D01*
X74277Y153504D01*
X74393Y153499D01*
X74449D01*
X74482Y153504D01*
X74532D01*
X74582Y153510D01*
X74704Y153532D01*
X74837Y153560D01*
X74965Y153604D01*
X75087Y153665D01*
X75143Y153704D01*
X75192Y153749D01*
X75198Y153754D01*
X75204Y153760D01*
X75215Y153776D01*
X75231Y153798D01*
X75248Y153832D01*
X75270Y153865D01*
X75292Y153915D01*
X75315Y153965D01*
X75337Y154026D01*
X75353Y154098D01*
X75376Y154181D01*
X75392Y154270D01*
X75409Y154370D01*
X75420Y154475D01*
X75431Y154598D01*
Y154725D01*
Y156945D01*
X75942D01*
Y154725D01*
D02*
G37*
G36*
X77962Y156956D02*
X78006Y156951D01*
X78062Y156945D01*
X78123Y156934D01*
X78184Y156923D01*
X78328Y156884D01*
X78473Y156829D01*
X78545Y156795D01*
X78617Y156757D01*
X78683Y156707D01*
X78745Y156651D01*
X78750Y156646D01*
X78761Y156640D01*
X78772Y156618D01*
X78794Y156596D01*
X78822Y156568D01*
X78850Y156529D01*
X78878Y156490D01*
X78911Y156440D01*
X78966Y156335D01*
X79022Y156202D01*
X79044Y156135D01*
X79055Y156057D01*
X79066Y155980D01*
X79072Y155896D01*
Y155885D01*
Y155858D01*
X79066Y155813D01*
X79061Y155752D01*
X79050Y155685D01*
X79027Y155608D01*
X79005Y155525D01*
X78972Y155441D01*
X78966Y155430D01*
X78955Y155402D01*
X78933Y155358D01*
X78900Y155297D01*
X78856Y155230D01*
X78800Y155147D01*
X78733Y155064D01*
X78656Y154970D01*
X78645Y154958D01*
X78617Y154925D01*
X78589Y154897D01*
X78561Y154870D01*
X78528Y154836D01*
X78484Y154792D01*
X78439Y154747D01*
X78384Y154698D01*
X78328Y154642D01*
X78262Y154581D01*
X78189Y154520D01*
X78112Y154448D01*
X78023Y154376D01*
X77934Y154298D01*
X77929Y154292D01*
X77917Y154281D01*
X77895Y154265D01*
X77868Y154242D01*
X77834Y154209D01*
X77795Y154176D01*
X77707Y154104D01*
X77612Y154020D01*
X77523Y153937D01*
X77446Y153865D01*
X77412Y153837D01*
X77385Y153809D01*
X77379Y153804D01*
X77363Y153787D01*
X77340Y153765D01*
X77313Y153732D01*
X77285Y153693D01*
X77251Y153654D01*
X77185Y153560D01*
X79078D01*
Y153105D01*
X76530D01*
Y153110D01*
Y153132D01*
Y153166D01*
X76536Y153210D01*
X76541Y153260D01*
X76552Y153316D01*
X76563Y153371D01*
X76586Y153432D01*
Y153438D01*
X76591Y153443D01*
X76602Y153477D01*
X76624Y153526D01*
X76658Y153593D01*
X76702Y153671D01*
X76758Y153760D01*
X76819Y153848D01*
X76896Y153943D01*
Y153948D01*
X76907Y153954D01*
X76935Y153987D01*
X76985Y154037D01*
X77057Y154109D01*
X77140Y154192D01*
X77246Y154292D01*
X77374Y154403D01*
X77512Y154520D01*
X77518Y154525D01*
X77540Y154542D01*
X77573Y154570D01*
X77612Y154603D01*
X77662Y154648D01*
X77723Y154698D01*
X77784Y154753D01*
X77856Y154814D01*
X77995Y154947D01*
X78134Y155080D01*
X78201Y155147D01*
X78262Y155214D01*
X78317Y155275D01*
X78361Y155336D01*
Y155341D01*
X78373Y155347D01*
X78384Y155364D01*
X78395Y155386D01*
X78434Y155447D01*
X78478Y155519D01*
X78517Y155608D01*
X78556Y155702D01*
X78578Y155807D01*
X78589Y155907D01*
Y155913D01*
Y155919D01*
X78584Y155952D01*
X78578Y156007D01*
X78561Y156068D01*
X78539Y156146D01*
X78500Y156224D01*
X78450Y156301D01*
X78384Y156379D01*
X78373Y156390D01*
X78345Y156412D01*
X78306Y156440D01*
X78245Y156479D01*
X78167Y156512D01*
X78079Y156546D01*
X77973Y156568D01*
X77856Y156573D01*
X77823D01*
X77801Y156568D01*
X77734Y156562D01*
X77657Y156546D01*
X77573Y156524D01*
X77479Y156485D01*
X77390Y156435D01*
X77307Y156368D01*
X77296Y156357D01*
X77274Y156329D01*
X77240Y156285D01*
X77207Y156218D01*
X77168Y156140D01*
X77135Y156041D01*
X77113Y155930D01*
X77102Y155802D01*
X76619Y155852D01*
Y155858D01*
X76624Y155874D01*
Y155902D01*
X76630Y155941D01*
X76641Y155985D01*
X76652Y156035D01*
X76669Y156096D01*
X76685Y156157D01*
X76730Y156290D01*
X76796Y156424D01*
X76835Y156490D01*
X76885Y156557D01*
X76935Y156618D01*
X76991Y156673D01*
X76996Y156679D01*
X77007Y156684D01*
X77024Y156701D01*
X77052Y156718D01*
X77085Y156740D01*
X77124Y156762D01*
X77168Y156790D01*
X77224Y156818D01*
X77285Y156845D01*
X77351Y156873D01*
X77424Y156895D01*
X77501Y156918D01*
X77584Y156934D01*
X77673Y156951D01*
X77768Y156956D01*
X77868Y156962D01*
X77923D01*
X77962Y156956D01*
D02*
G37*
G36*
X28704Y41402D02*
X28754Y41396D01*
X28815Y41391D01*
X28876Y41385D01*
X28948Y41368D01*
X29098Y41335D01*
X29264Y41285D01*
X29347Y41252D01*
X29425Y41213D01*
X29503Y41163D01*
X29581Y41113D01*
X29586Y41107D01*
X29597Y41102D01*
X29619Y41085D01*
X29647Y41058D01*
X29675Y41030D01*
X29714Y40991D01*
X29753Y40947D01*
X29797Y40902D01*
X29841Y40847D01*
X29886Y40780D01*
X29936Y40714D01*
X29980Y40641D01*
X30019Y40558D01*
X30063Y40475D01*
X30097Y40386D01*
X30130Y40286D01*
X29631Y40170D01*
Y40175D01*
X29625Y40186D01*
X29614Y40208D01*
X29603Y40236D01*
X29592Y40270D01*
X29575Y40314D01*
X29531Y40403D01*
X29475Y40503D01*
X29408Y40602D01*
X29325Y40697D01*
X29237Y40780D01*
X29225Y40791D01*
X29192Y40813D01*
X29136Y40841D01*
X29064Y40880D01*
X28970Y40913D01*
X28865Y40947D01*
X28737Y40969D01*
X28598Y40974D01*
X28554D01*
X28526Y40969D01*
X28487D01*
X28443Y40963D01*
X28337Y40947D01*
X28221Y40924D01*
X28099Y40885D01*
X27971Y40830D01*
X27854Y40758D01*
X27849D01*
X27843Y40747D01*
X27805Y40719D01*
X27755Y40675D01*
X27694Y40608D01*
X27621Y40525D01*
X27555Y40430D01*
X27494Y40314D01*
X27438Y40186D01*
Y40181D01*
X27433Y40170D01*
X27427Y40153D01*
X27422Y40125D01*
X27411Y40092D01*
X27399Y40053D01*
X27383Y39959D01*
X27361Y39848D01*
X27338Y39726D01*
X27327Y39592D01*
X27322Y39448D01*
Y39443D01*
Y39426D01*
Y39398D01*
Y39365D01*
X27327Y39326D01*
Y39276D01*
X27333Y39220D01*
X27338Y39159D01*
X27355Y39026D01*
X27383Y38882D01*
X27416Y38738D01*
X27460Y38593D01*
Y38588D01*
X27466Y38577D01*
X27477Y38560D01*
X27488Y38532D01*
X27521Y38466D01*
X27571Y38388D01*
X27632Y38299D01*
X27710Y38205D01*
X27799Y38122D01*
X27904Y38044D01*
X27910D01*
X27921Y38038D01*
X27938Y38027D01*
X27960Y38016D01*
X27988Y38005D01*
X28021Y37988D01*
X28099Y37955D01*
X28199Y37922D01*
X28310Y37894D01*
X28432Y37872D01*
X28559Y37866D01*
X28598D01*
X28631Y37872D01*
X28670D01*
X28709Y37877D01*
X28809Y37900D01*
X28926Y37927D01*
X29042Y37972D01*
X29164Y38033D01*
X29225Y38066D01*
X29281Y38111D01*
X29286Y38116D01*
X29292Y38122D01*
X29309Y38138D01*
X29331Y38155D01*
X29353Y38183D01*
X29381Y38216D01*
X29414Y38249D01*
X29442Y38294D01*
X29475Y38344D01*
X29514Y38399D01*
X29547Y38455D01*
X29581Y38521D01*
X29608Y38593D01*
X29636Y38671D01*
X29664Y38754D01*
X29686Y38843D01*
X30197Y38715D01*
Y38710D01*
X30191Y38688D01*
X30180Y38654D01*
X30163Y38610D01*
X30147Y38560D01*
X30125Y38499D01*
X30097Y38432D01*
X30063Y38360D01*
X29986Y38205D01*
X29886Y38050D01*
X29825Y37972D01*
X29764Y37894D01*
X29697Y37827D01*
X29619Y37761D01*
X29614Y37755D01*
X29603Y37744D01*
X29575Y37733D01*
X29547Y37711D01*
X29503Y37683D01*
X29458Y37655D01*
X29397Y37628D01*
X29336Y37600D01*
X29264Y37567D01*
X29186Y37539D01*
X29103Y37511D01*
X29014Y37483D01*
X28920Y37461D01*
X28820Y37450D01*
X28715Y37439D01*
X28604Y37433D01*
X28543D01*
X28498Y37439D01*
X28448D01*
X28387Y37444D01*
X28321Y37456D01*
X28243Y37467D01*
X28082Y37495D01*
X27916Y37539D01*
X27749Y37600D01*
X27671Y37639D01*
X27594Y37683D01*
X27588Y37689D01*
X27577Y37694D01*
X27555Y37711D01*
X27533Y37733D01*
X27499Y37755D01*
X27460Y37789D01*
X27416Y37827D01*
X27372Y37872D01*
X27327Y37922D01*
X27277Y37972D01*
X27177Y38099D01*
X27083Y38249D01*
X27000Y38416D01*
Y38421D01*
X26989Y38438D01*
X26983Y38466D01*
X26967Y38499D01*
X26955Y38543D01*
X26939Y38599D01*
X26917Y38660D01*
X26900Y38726D01*
X26883Y38799D01*
X26861Y38882D01*
X26833Y39054D01*
X26811Y39248D01*
X26800Y39448D01*
Y39454D01*
Y39476D01*
Y39509D01*
X26805Y39548D01*
Y39603D01*
X26811Y39659D01*
X26817Y39731D01*
X26828Y39803D01*
X26855Y39964D01*
X26894Y40142D01*
X26950Y40319D01*
X27028Y40491D01*
X27033Y40497D01*
X27039Y40514D01*
X27050Y40536D01*
X27072Y40564D01*
X27094Y40602D01*
X27122Y40647D01*
X27194Y40747D01*
X27288Y40858D01*
X27399Y40969D01*
X27527Y41080D01*
X27677Y41174D01*
X27683Y41180D01*
X27699Y41185D01*
X27721Y41196D01*
X27749Y41213D01*
X27793Y41230D01*
X27838Y41246D01*
X27893Y41269D01*
X27954Y41291D01*
X28021Y41313D01*
X28093Y41335D01*
X28249Y41368D01*
X28426Y41396D01*
X28609Y41407D01*
X28665D01*
X28704Y41402D01*
D02*
G37*
G36*
X36191Y38854D02*
X36712D01*
Y38421D01*
X36191D01*
Y37500D01*
X35719D01*
Y38421D01*
X34048D01*
Y38854D01*
X35808Y41341D01*
X36191D01*
Y38854D01*
D02*
G37*
G36*
X33610Y40885D02*
X31340D01*
Y39714D01*
X33466D01*
Y39259D01*
X31340D01*
Y37955D01*
X33699D01*
Y37500D01*
X30829D01*
Y41341D01*
X33610D01*
Y40885D01*
D02*
G37*
G36*
X188704Y41402D02*
X188754Y41396D01*
X188815Y41391D01*
X188876Y41385D01*
X188948Y41368D01*
X189098Y41335D01*
X189264Y41285D01*
X189348Y41252D01*
X189425Y41213D01*
X189503Y41163D01*
X189581Y41113D01*
X189586Y41107D01*
X189597Y41102D01*
X189619Y41085D01*
X189647Y41058D01*
X189675Y41030D01*
X189714Y40991D01*
X189753Y40947D01*
X189797Y40902D01*
X189841Y40847D01*
X189886Y40780D01*
X189936Y40714D01*
X189980Y40641D01*
X190019Y40558D01*
X190063Y40475D01*
X190097Y40386D01*
X190130Y40286D01*
X189630Y40170D01*
Y40175D01*
X189625Y40186D01*
X189614Y40208D01*
X189603Y40236D01*
X189592Y40270D01*
X189575Y40314D01*
X189531Y40403D01*
X189475Y40503D01*
X189409Y40602D01*
X189325Y40697D01*
X189236Y40780D01*
X189225Y40791D01*
X189192Y40813D01*
X189137Y40841D01*
X189064Y40880D01*
X188970Y40913D01*
X188865Y40947D01*
X188737Y40969D01*
X188598Y40974D01*
X188554D01*
X188526Y40969D01*
X188487D01*
X188443Y40963D01*
X188337Y40947D01*
X188221Y40924D01*
X188099Y40885D01*
X187971Y40830D01*
X187855Y40758D01*
X187849D01*
X187843Y40747D01*
X187804Y40719D01*
X187755Y40675D01*
X187694Y40608D01*
X187621Y40525D01*
X187555Y40430D01*
X187494Y40314D01*
X187438Y40186D01*
Y40181D01*
X187433Y40170D01*
X187427Y40153D01*
X187422Y40125D01*
X187410Y40092D01*
X187399Y40053D01*
X187383Y39959D01*
X187361Y39848D01*
X187338Y39726D01*
X187327Y39592D01*
X187322Y39448D01*
Y39443D01*
Y39426D01*
Y39398D01*
Y39365D01*
X187327Y39326D01*
Y39276D01*
X187333Y39220D01*
X187338Y39159D01*
X187355Y39026D01*
X187383Y38882D01*
X187416Y38738D01*
X187460Y38593D01*
Y38588D01*
X187466Y38577D01*
X187477Y38560D01*
X187488Y38532D01*
X187522Y38466D01*
X187572Y38388D01*
X187633Y38299D01*
X187710Y38205D01*
X187799Y38122D01*
X187904Y38044D01*
X187910D01*
X187921Y38038D01*
X187938Y38027D01*
X187960Y38016D01*
X187988Y38005D01*
X188021Y37988D01*
X188099Y37955D01*
X188199Y37922D01*
X188310Y37894D01*
X188432Y37872D01*
X188559Y37866D01*
X188598D01*
X188631Y37872D01*
X188670D01*
X188709Y37877D01*
X188809Y37900D01*
X188926Y37927D01*
X189042Y37972D01*
X189164Y38033D01*
X189225Y38066D01*
X189281Y38111D01*
X189286Y38116D01*
X189292Y38122D01*
X189309Y38138D01*
X189331Y38155D01*
X189353Y38183D01*
X189381Y38216D01*
X189414Y38249D01*
X189442Y38294D01*
X189475Y38344D01*
X189514Y38399D01*
X189547Y38455D01*
X189581Y38521D01*
X189608Y38593D01*
X189636Y38671D01*
X189664Y38754D01*
X189686Y38843D01*
X190197Y38715D01*
Y38710D01*
X190191Y38688D01*
X190180Y38654D01*
X190163Y38610D01*
X190147Y38560D01*
X190124Y38499D01*
X190097Y38432D01*
X190063Y38360D01*
X189986Y38205D01*
X189886Y38050D01*
X189825Y37972D01*
X189764Y37894D01*
X189697Y37827D01*
X189619Y37761D01*
X189614Y37755D01*
X189603Y37744D01*
X189575Y37733D01*
X189547Y37711D01*
X189503Y37683D01*
X189458Y37655D01*
X189397Y37628D01*
X189336Y37600D01*
X189264Y37567D01*
X189187Y37539D01*
X189103Y37511D01*
X189014Y37483D01*
X188920Y37461D01*
X188820Y37450D01*
X188715Y37439D01*
X188604Y37433D01*
X188543D01*
X188498Y37439D01*
X188448D01*
X188387Y37444D01*
X188321Y37456D01*
X188243Y37467D01*
X188082Y37495D01*
X187916Y37539D01*
X187749Y37600D01*
X187671Y37639D01*
X187594Y37683D01*
X187588Y37689D01*
X187577Y37694D01*
X187555Y37711D01*
X187533Y37733D01*
X187499Y37755D01*
X187460Y37789D01*
X187416Y37827D01*
X187372Y37872D01*
X187327Y37922D01*
X187277Y37972D01*
X187177Y38099D01*
X187083Y38249D01*
X187000Y38416D01*
Y38421D01*
X186989Y38438D01*
X186983Y38466D01*
X186967Y38499D01*
X186955Y38543D01*
X186939Y38599D01*
X186917Y38660D01*
X186900Y38726D01*
X186883Y38799D01*
X186861Y38882D01*
X186833Y39054D01*
X186811Y39248D01*
X186800Y39448D01*
Y39454D01*
Y39476D01*
Y39509D01*
X186805Y39548D01*
Y39603D01*
X186811Y39659D01*
X186817Y39731D01*
X186828Y39803D01*
X186855Y39964D01*
X186894Y40142D01*
X186950Y40319D01*
X187028Y40491D01*
X187033Y40497D01*
X187039Y40514D01*
X187050Y40536D01*
X187072Y40564D01*
X187094Y40602D01*
X187122Y40647D01*
X187194Y40747D01*
X187288Y40858D01*
X187399Y40969D01*
X187527Y41080D01*
X187677Y41174D01*
X187682Y41180D01*
X187699Y41185D01*
X187721Y41196D01*
X187749Y41213D01*
X187794Y41230D01*
X187838Y41246D01*
X187893Y41269D01*
X187954Y41291D01*
X188021Y41313D01*
X188093Y41335D01*
X188249Y41368D01*
X188426Y41396D01*
X188609Y41407D01*
X188665D01*
X188704Y41402D01*
D02*
G37*
G36*
X195530Y41352D02*
X195602Y41341D01*
X195691Y41324D01*
X195791Y41296D01*
X195891Y41263D01*
X195991Y41219D01*
X195996D01*
X196002Y41213D01*
X196035Y41196D01*
X196085Y41163D01*
X196141Y41124D01*
X196207Y41069D01*
X196274Y41008D01*
X196341Y40935D01*
X196396Y40852D01*
X196402Y40841D01*
X196418Y40813D01*
X196440Y40763D01*
X196468Y40702D01*
X196496Y40630D01*
X196518Y40547D01*
X196535Y40453D01*
X196540Y40358D01*
Y40347D01*
Y40314D01*
X196535Y40270D01*
X196524Y40208D01*
X196507Y40136D01*
X196479Y40059D01*
X196446Y39981D01*
X196402Y39903D01*
X196396Y39892D01*
X196379Y39870D01*
X196346Y39831D01*
X196302Y39787D01*
X196246Y39737D01*
X196179Y39681D01*
X196102Y39631D01*
X196007Y39581D01*
X196013D01*
X196024Y39576D01*
X196041Y39570D01*
X196063Y39565D01*
X196124Y39542D01*
X196202Y39509D01*
X196291Y39465D01*
X196379Y39409D01*
X196463Y39337D01*
X196540Y39254D01*
X196546Y39243D01*
X196568Y39209D01*
X196601Y39154D01*
X196635Y39082D01*
X196668Y38993D01*
X196701Y38888D01*
X196723Y38765D01*
X196729Y38632D01*
Y38627D01*
Y38610D01*
Y38582D01*
X196723Y38549D01*
X196718Y38505D01*
X196707Y38455D01*
X196696Y38399D01*
X196685Y38338D01*
X196640Y38205D01*
X196607Y38133D01*
X196574Y38066D01*
X196529Y37994D01*
X196479Y37922D01*
X196424Y37850D01*
X196357Y37783D01*
X196352Y37778D01*
X196341Y37766D01*
X196318Y37750D01*
X196291Y37728D01*
X196257Y37700D01*
X196213Y37672D01*
X196163Y37639D01*
X196102Y37611D01*
X196041Y37578D01*
X195969Y37544D01*
X195896Y37517D01*
X195813Y37489D01*
X195724Y37467D01*
X195630Y37450D01*
X195536Y37439D01*
X195430Y37433D01*
X195380D01*
X195347Y37439D01*
X195303Y37444D01*
X195253Y37450D01*
X195197Y37461D01*
X195136Y37472D01*
X195003Y37505D01*
X194864Y37561D01*
X194792Y37594D01*
X194725Y37633D01*
X194659Y37683D01*
X194592Y37733D01*
X194587Y37739D01*
X194576Y37750D01*
X194559Y37766D01*
X194542Y37789D01*
X194515Y37816D01*
X194487Y37855D01*
X194453Y37894D01*
X194420Y37944D01*
X194387Y37999D01*
X194353Y38055D01*
X194292Y38188D01*
X194243Y38344D01*
X194226Y38427D01*
X194215Y38516D01*
X194687Y38577D01*
Y38571D01*
X194692Y38560D01*
X194698Y38538D01*
X194703Y38510D01*
X194709Y38477D01*
X194720Y38438D01*
X194748Y38355D01*
X194786Y38255D01*
X194836Y38160D01*
X194892Y38072D01*
X194958Y37994D01*
X194970Y37988D01*
X194992Y37966D01*
X195036Y37938D01*
X195092Y37911D01*
X195158Y37877D01*
X195242Y37850D01*
X195336Y37827D01*
X195436Y37822D01*
X195469D01*
X195491Y37827D01*
X195552Y37833D01*
X195630Y37850D01*
X195719Y37877D01*
X195813Y37916D01*
X195907Y37972D01*
X195996Y38050D01*
X196007Y38061D01*
X196035Y38094D01*
X196069Y38144D01*
X196113Y38210D01*
X196157Y38294D01*
X196191Y38388D01*
X196218Y38499D01*
X196229Y38621D01*
Y38627D01*
Y38638D01*
Y38654D01*
X196224Y38677D01*
X196218Y38738D01*
X196202Y38810D01*
X196179Y38899D01*
X196141Y38987D01*
X196085Y39076D01*
X196013Y39159D01*
X196002Y39171D01*
X195974Y39193D01*
X195930Y39226D01*
X195869Y39265D01*
X195791Y39304D01*
X195697Y39337D01*
X195591Y39359D01*
X195475Y39370D01*
X195425D01*
X195386Y39365D01*
X195336Y39359D01*
X195280Y39348D01*
X195214Y39337D01*
X195142Y39320D01*
X195197Y39737D01*
X195225D01*
X195247Y39731D01*
X195319D01*
X195380Y39742D01*
X195452Y39753D01*
X195536Y39770D01*
X195630Y39798D01*
X195719Y39836D01*
X195813Y39887D01*
X195819D01*
X195824Y39892D01*
X195852Y39914D01*
X195891Y39953D01*
X195935Y40003D01*
X195980Y40075D01*
X196019Y40158D01*
X196046Y40253D01*
X196057Y40308D01*
Y40369D01*
Y40375D01*
Y40380D01*
Y40414D01*
X196046Y40458D01*
X196035Y40519D01*
X196013Y40586D01*
X195985Y40658D01*
X195941Y40730D01*
X195880Y40797D01*
X195874Y40802D01*
X195846Y40824D01*
X195808Y40852D01*
X195758Y40885D01*
X195691Y40913D01*
X195613Y40941D01*
X195525Y40963D01*
X195425Y40969D01*
X195380D01*
X195330Y40958D01*
X195264Y40947D01*
X195192Y40924D01*
X195120Y40897D01*
X195042Y40852D01*
X194970Y40797D01*
X194964Y40791D01*
X194942Y40763D01*
X194908Y40725D01*
X194870Y40669D01*
X194831Y40597D01*
X194792Y40508D01*
X194759Y40403D01*
X194737Y40281D01*
X194265Y40364D01*
Y40369D01*
X194270Y40386D01*
X194276Y40408D01*
X194281Y40442D01*
X194292Y40480D01*
X194309Y40525D01*
X194343Y40630D01*
X194398Y40752D01*
X194465Y40874D01*
X194548Y40991D01*
X194653Y41096D01*
X194659Y41102D01*
X194670Y41107D01*
X194687Y41119D01*
X194709Y41135D01*
X194737Y41157D01*
X194775Y41180D01*
X194814Y41202D01*
X194864Y41230D01*
X194975Y41274D01*
X195103Y41318D01*
X195253Y41346D01*
X195330Y41357D01*
X195469D01*
X195530Y41352D01*
D02*
G37*
G36*
X193610Y40885D02*
X191340D01*
Y39714D01*
X193466D01*
Y39259D01*
X191340D01*
Y37955D01*
X193699D01*
Y37500D01*
X190829D01*
Y41341D01*
X193610D01*
Y40885D01*
D02*
G37*
G36*
X188704Y211402D02*
X188754Y211396D01*
X188815Y211390D01*
X188876Y211385D01*
X188948Y211368D01*
X189098Y211335D01*
X189264Y211285D01*
X189348Y211252D01*
X189425Y211213D01*
X189503Y211163D01*
X189581Y211113D01*
X189586Y211107D01*
X189597Y211102D01*
X189619Y211085D01*
X189647Y211057D01*
X189675Y211030D01*
X189714Y210991D01*
X189753Y210946D01*
X189797Y210902D01*
X189841Y210847D01*
X189886Y210780D01*
X189936Y210714D01*
X189980Y210641D01*
X190019Y210558D01*
X190063Y210475D01*
X190097Y210386D01*
X190130Y210286D01*
X189630Y210170D01*
Y210175D01*
X189625Y210186D01*
X189614Y210208D01*
X189603Y210236D01*
X189592Y210269D01*
X189575Y210314D01*
X189531Y210403D01*
X189475Y210503D01*
X189409Y210602D01*
X189325Y210697D01*
X189236Y210780D01*
X189225Y210791D01*
X189192Y210813D01*
X189137Y210841D01*
X189064Y210880D01*
X188970Y210913D01*
X188865Y210946D01*
X188737Y210969D01*
X188598Y210974D01*
X188554D01*
X188526Y210969D01*
X188487D01*
X188443Y210963D01*
X188337Y210946D01*
X188221Y210924D01*
X188099Y210886D01*
X187971Y210830D01*
X187855Y210758D01*
X187849D01*
X187843Y210747D01*
X187804Y210719D01*
X187755Y210675D01*
X187694Y210608D01*
X187621Y210525D01*
X187555Y210430D01*
X187494Y210314D01*
X187438Y210186D01*
Y210181D01*
X187433Y210170D01*
X187427Y210153D01*
X187422Y210125D01*
X187410Y210092D01*
X187399Y210053D01*
X187383Y209959D01*
X187361Y209848D01*
X187338Y209726D01*
X187327Y209592D01*
X187322Y209448D01*
Y209442D01*
Y209426D01*
Y209398D01*
Y209365D01*
X187327Y209326D01*
Y209276D01*
X187333Y209221D01*
X187338Y209159D01*
X187355Y209026D01*
X187383Y208882D01*
X187416Y208738D01*
X187460Y208593D01*
Y208588D01*
X187466Y208577D01*
X187477Y208560D01*
X187488Y208532D01*
X187522Y208466D01*
X187572Y208388D01*
X187633Y208299D01*
X187710Y208205D01*
X187799Y208122D01*
X187904Y208044D01*
X187910D01*
X187921Y208038D01*
X187938Y208027D01*
X187960Y208016D01*
X187988Y208005D01*
X188021Y207988D01*
X188099Y207955D01*
X188199Y207922D01*
X188310Y207894D01*
X188432Y207872D01*
X188559Y207866D01*
X188598D01*
X188631Y207872D01*
X188670D01*
X188709Y207877D01*
X188809Y207900D01*
X188926Y207927D01*
X189042Y207972D01*
X189164Y208033D01*
X189225Y208066D01*
X189281Y208110D01*
X189286Y208116D01*
X189292Y208122D01*
X189309Y208138D01*
X189331Y208155D01*
X189353Y208183D01*
X189381Y208216D01*
X189414Y208249D01*
X189442Y208294D01*
X189475Y208344D01*
X189514Y208399D01*
X189547Y208455D01*
X189581Y208521D01*
X189608Y208593D01*
X189636Y208671D01*
X189664Y208754D01*
X189686Y208843D01*
X190197Y208716D01*
Y208710D01*
X190191Y208688D01*
X190180Y208654D01*
X190163Y208610D01*
X190147Y208560D01*
X190124Y208499D01*
X190097Y208432D01*
X190063Y208360D01*
X189986Y208205D01*
X189886Y208049D01*
X189825Y207972D01*
X189764Y207894D01*
X189697Y207827D01*
X189619Y207761D01*
X189614Y207755D01*
X189603Y207744D01*
X189575Y207733D01*
X189547Y207711D01*
X189503Y207683D01*
X189458Y207655D01*
X189397Y207628D01*
X189336Y207600D01*
X189264Y207567D01*
X189187Y207539D01*
X189103Y207511D01*
X189014Y207483D01*
X188920Y207461D01*
X188820Y207450D01*
X188715Y207439D01*
X188604Y207433D01*
X188543D01*
X188498Y207439D01*
X188448D01*
X188387Y207445D01*
X188321Y207456D01*
X188243Y207467D01*
X188082Y207494D01*
X187916Y207539D01*
X187749Y207600D01*
X187671Y207639D01*
X187594Y207683D01*
X187588Y207689D01*
X187577Y207694D01*
X187555Y207711D01*
X187533Y207733D01*
X187499Y207755D01*
X187460Y207789D01*
X187416Y207827D01*
X187372Y207872D01*
X187327Y207922D01*
X187277Y207972D01*
X187177Y208099D01*
X187083Y208249D01*
X187000Y208416D01*
Y208421D01*
X186989Y208438D01*
X186983Y208466D01*
X186967Y208499D01*
X186955Y208543D01*
X186939Y208599D01*
X186917Y208660D01*
X186900Y208727D01*
X186883Y208799D01*
X186861Y208882D01*
X186833Y209054D01*
X186811Y209248D01*
X186800Y209448D01*
Y209454D01*
Y209476D01*
Y209509D01*
X186805Y209548D01*
Y209604D01*
X186811Y209659D01*
X186817Y209731D01*
X186828Y209803D01*
X186855Y209964D01*
X186894Y210142D01*
X186950Y210319D01*
X187028Y210491D01*
X187033Y210497D01*
X187039Y210514D01*
X187050Y210536D01*
X187072Y210564D01*
X187094Y210602D01*
X187122Y210647D01*
X187194Y210747D01*
X187288Y210858D01*
X187399Y210969D01*
X187527Y211080D01*
X187677Y211174D01*
X187682Y211180D01*
X187699Y211185D01*
X187721Y211196D01*
X187749Y211213D01*
X187794Y211230D01*
X187838Y211246D01*
X187893Y211268D01*
X187954Y211291D01*
X188021Y211313D01*
X188093Y211335D01*
X188249Y211368D01*
X188426Y211396D01*
X188609Y211407D01*
X188665D01*
X188704Y211402D01*
D02*
G37*
G36*
X195574Y211352D02*
X195619Y211346D01*
X195675Y211341D01*
X195736Y211330D01*
X195797Y211318D01*
X195941Y211280D01*
X196085Y211224D01*
X196157Y211191D01*
X196229Y211152D01*
X196296Y211102D01*
X196357Y211047D01*
X196363Y211041D01*
X196374Y211035D01*
X196385Y211013D01*
X196407Y210991D01*
X196435Y210963D01*
X196463Y210924D01*
X196490Y210886D01*
X196524Y210836D01*
X196579Y210730D01*
X196635Y210597D01*
X196657Y210530D01*
X196668Y210453D01*
X196679Y210375D01*
X196685Y210292D01*
Y210280D01*
Y210253D01*
X196679Y210208D01*
X196674Y210147D01*
X196662Y210081D01*
X196640Y210003D01*
X196618Y209920D01*
X196585Y209837D01*
X196579Y209825D01*
X196568Y209798D01*
X196546Y209753D01*
X196512Y209692D01*
X196468Y209626D01*
X196413Y209542D01*
X196346Y209459D01*
X196268Y209365D01*
X196257Y209354D01*
X196229Y209320D01*
X196202Y209293D01*
X196174Y209265D01*
X196141Y209232D01*
X196096Y209187D01*
X196052Y209143D01*
X195996Y209093D01*
X195941Y209037D01*
X195874Y208976D01*
X195802Y208915D01*
X195724Y208843D01*
X195636Y208771D01*
X195547Y208693D01*
X195541Y208688D01*
X195530Y208677D01*
X195508Y208660D01*
X195480Y208638D01*
X195447Y208604D01*
X195408Y208571D01*
X195319Y208499D01*
X195225Y208416D01*
X195136Y208332D01*
X195058Y208260D01*
X195025Y208233D01*
X194997Y208205D01*
X194992Y208199D01*
X194975Y208183D01*
X194953Y208160D01*
X194925Y208127D01*
X194897Y208088D01*
X194864Y208049D01*
X194798Y207955D01*
X196690D01*
Y207500D01*
X194143D01*
Y207505D01*
Y207528D01*
Y207561D01*
X194148Y207606D01*
X194154Y207655D01*
X194165Y207711D01*
X194176Y207766D01*
X194198Y207827D01*
Y207833D01*
X194204Y207839D01*
X194215Y207872D01*
X194237Y207922D01*
X194270Y207988D01*
X194315Y208066D01*
X194370Y208155D01*
X194431Y208244D01*
X194509Y208338D01*
Y208344D01*
X194520Y208349D01*
X194548Y208383D01*
X194598Y208432D01*
X194670Y208505D01*
X194753Y208588D01*
X194859Y208688D01*
X194986Y208799D01*
X195125Y208915D01*
X195131Y208921D01*
X195153Y208937D01*
X195186Y208965D01*
X195225Y208998D01*
X195275Y209043D01*
X195336Y209093D01*
X195397Y209148D01*
X195469Y209209D01*
X195608Y209343D01*
X195747Y209476D01*
X195813Y209542D01*
X195874Y209609D01*
X195930Y209670D01*
X195974Y209731D01*
Y209737D01*
X195985Y209742D01*
X195996Y209759D01*
X196007Y209781D01*
X196046Y209842D01*
X196091Y209914D01*
X196130Y210003D01*
X196168Y210097D01*
X196191Y210203D01*
X196202Y210303D01*
Y210308D01*
Y210314D01*
X196196Y210347D01*
X196191Y210403D01*
X196174Y210464D01*
X196152Y210541D01*
X196113Y210619D01*
X196063Y210697D01*
X195996Y210774D01*
X195985Y210786D01*
X195958Y210808D01*
X195919Y210836D01*
X195858Y210874D01*
X195780Y210908D01*
X195691Y210941D01*
X195586Y210963D01*
X195469Y210969D01*
X195436D01*
X195414Y210963D01*
X195347Y210958D01*
X195269Y210941D01*
X195186Y210919D01*
X195092Y210880D01*
X195003Y210830D01*
X194920Y210763D01*
X194908Y210752D01*
X194886Y210724D01*
X194853Y210680D01*
X194820Y210613D01*
X194781Y210536D01*
X194748Y210436D01*
X194725Y210325D01*
X194714Y210197D01*
X194231Y210247D01*
Y210253D01*
X194237Y210269D01*
Y210297D01*
X194243Y210336D01*
X194254Y210381D01*
X194265Y210430D01*
X194281Y210491D01*
X194298Y210553D01*
X194343Y210686D01*
X194409Y210819D01*
X194448Y210886D01*
X194498Y210952D01*
X194548Y211013D01*
X194603Y211069D01*
X194609Y211074D01*
X194620Y211080D01*
X194637Y211096D01*
X194664Y211113D01*
X194698Y211135D01*
X194737Y211157D01*
X194781Y211185D01*
X194836Y211213D01*
X194897Y211241D01*
X194964Y211268D01*
X195036Y211291D01*
X195114Y211313D01*
X195197Y211330D01*
X195286Y211346D01*
X195380Y211352D01*
X195480Y211357D01*
X195536D01*
X195574Y211352D01*
D02*
G37*
G36*
X193610Y210886D02*
X191340D01*
Y209714D01*
X193466D01*
Y209259D01*
X191340D01*
Y207955D01*
X193699D01*
Y207500D01*
X190829D01*
Y211341D01*
X193610D01*
Y210886D01*
D02*
G37*
G36*
X28704Y211402D02*
X28754Y211396D01*
X28815Y211390D01*
X28876Y211385D01*
X28948Y211368D01*
X29098Y211335D01*
X29264Y211285D01*
X29347Y211252D01*
X29425Y211213D01*
X29503Y211163D01*
X29581Y211113D01*
X29586Y211107D01*
X29597Y211102D01*
X29619Y211085D01*
X29647Y211057D01*
X29675Y211030D01*
X29714Y210991D01*
X29753Y210946D01*
X29797Y210902D01*
X29841Y210847D01*
X29886Y210780D01*
X29936Y210714D01*
X29980Y210641D01*
X30019Y210558D01*
X30063Y210475D01*
X30097Y210386D01*
X30130Y210286D01*
X29631Y210170D01*
Y210175D01*
X29625Y210186D01*
X29614Y210208D01*
X29603Y210236D01*
X29592Y210269D01*
X29575Y210314D01*
X29531Y210403D01*
X29475Y210503D01*
X29408Y210602D01*
X29325Y210697D01*
X29237Y210780D01*
X29225Y210791D01*
X29192Y210813D01*
X29136Y210841D01*
X29064Y210880D01*
X28970Y210913D01*
X28865Y210946D01*
X28737Y210969D01*
X28598Y210974D01*
X28554D01*
X28526Y210969D01*
X28487D01*
X28443Y210963D01*
X28337Y210946D01*
X28221Y210924D01*
X28099Y210886D01*
X27971Y210830D01*
X27854Y210758D01*
X27849D01*
X27843Y210747D01*
X27805Y210719D01*
X27755Y210675D01*
X27694Y210608D01*
X27621Y210525D01*
X27555Y210430D01*
X27494Y210314D01*
X27438Y210186D01*
Y210181D01*
X27433Y210170D01*
X27427Y210153D01*
X27422Y210125D01*
X27411Y210092D01*
X27399Y210053D01*
X27383Y209959D01*
X27361Y209848D01*
X27338Y209726D01*
X27327Y209592D01*
X27322Y209448D01*
Y209442D01*
Y209426D01*
Y209398D01*
Y209365D01*
X27327Y209326D01*
Y209276D01*
X27333Y209221D01*
X27338Y209159D01*
X27355Y209026D01*
X27383Y208882D01*
X27416Y208738D01*
X27460Y208593D01*
Y208588D01*
X27466Y208577D01*
X27477Y208560D01*
X27488Y208532D01*
X27521Y208466D01*
X27571Y208388D01*
X27632Y208299D01*
X27710Y208205D01*
X27799Y208122D01*
X27904Y208044D01*
X27910D01*
X27921Y208038D01*
X27938Y208027D01*
X27960Y208016D01*
X27988Y208005D01*
X28021Y207988D01*
X28099Y207955D01*
X28199Y207922D01*
X28310Y207894D01*
X28432Y207872D01*
X28559Y207866D01*
X28598D01*
X28631Y207872D01*
X28670D01*
X28709Y207877D01*
X28809Y207900D01*
X28926Y207927D01*
X29042Y207972D01*
X29164Y208033D01*
X29225Y208066D01*
X29281Y208110D01*
X29286Y208116D01*
X29292Y208122D01*
X29309Y208138D01*
X29331Y208155D01*
X29353Y208183D01*
X29381Y208216D01*
X29414Y208249D01*
X29442Y208294D01*
X29475Y208344D01*
X29514Y208399D01*
X29547Y208455D01*
X29581Y208521D01*
X29608Y208593D01*
X29636Y208671D01*
X29664Y208754D01*
X29686Y208843D01*
X30197Y208716D01*
Y208710D01*
X30191Y208688D01*
X30180Y208654D01*
X30163Y208610D01*
X30147Y208560D01*
X30125Y208499D01*
X30097Y208432D01*
X30063Y208360D01*
X29986Y208205D01*
X29886Y208049D01*
X29825Y207972D01*
X29764Y207894D01*
X29697Y207827D01*
X29619Y207761D01*
X29614Y207755D01*
X29603Y207744D01*
X29575Y207733D01*
X29547Y207711D01*
X29503Y207683D01*
X29458Y207655D01*
X29397Y207628D01*
X29336Y207600D01*
X29264Y207567D01*
X29186Y207539D01*
X29103Y207511D01*
X29014Y207483D01*
X28920Y207461D01*
X28820Y207450D01*
X28715Y207439D01*
X28604Y207433D01*
X28543D01*
X28498Y207439D01*
X28448D01*
X28387Y207445D01*
X28321Y207456D01*
X28243Y207467D01*
X28082Y207494D01*
X27916Y207539D01*
X27749Y207600D01*
X27671Y207639D01*
X27594Y207683D01*
X27588Y207689D01*
X27577Y207694D01*
X27555Y207711D01*
X27533Y207733D01*
X27499Y207755D01*
X27460Y207789D01*
X27416Y207827D01*
X27372Y207872D01*
X27327Y207922D01*
X27277Y207972D01*
X27177Y208099D01*
X27083Y208249D01*
X27000Y208416D01*
Y208421D01*
X26989Y208438D01*
X26983Y208466D01*
X26967Y208499D01*
X26955Y208543D01*
X26939Y208599D01*
X26917Y208660D01*
X26900Y208727D01*
X26883Y208799D01*
X26861Y208882D01*
X26833Y209054D01*
X26811Y209248D01*
X26800Y209448D01*
Y209454D01*
Y209476D01*
Y209509D01*
X26805Y209548D01*
Y209604D01*
X26811Y209659D01*
X26817Y209731D01*
X26828Y209803D01*
X26855Y209964D01*
X26894Y210142D01*
X26950Y210319D01*
X27028Y210491D01*
X27033Y210497D01*
X27039Y210514D01*
X27050Y210536D01*
X27072Y210564D01*
X27094Y210602D01*
X27122Y210647D01*
X27194Y210747D01*
X27288Y210858D01*
X27399Y210969D01*
X27527Y211080D01*
X27677Y211174D01*
X27683Y211180D01*
X27699Y211185D01*
X27721Y211196D01*
X27749Y211213D01*
X27793Y211230D01*
X27838Y211246D01*
X27893Y211268D01*
X27954Y211291D01*
X28021Y211313D01*
X28093Y211335D01*
X28249Y211368D01*
X28426Y211396D01*
X28609Y211407D01*
X28665D01*
X28704Y211402D01*
D02*
G37*
G36*
X35985Y207500D02*
X35513D01*
Y210503D01*
X35508Y210497D01*
X35480Y210475D01*
X35447Y210441D01*
X35391Y210403D01*
X35330Y210353D01*
X35253Y210297D01*
X35164Y210236D01*
X35064Y210175D01*
X35058D01*
X35053Y210170D01*
X35019Y210147D01*
X34964Y210120D01*
X34897Y210086D01*
X34820Y210047D01*
X34736Y210009D01*
X34653Y209970D01*
X34570Y209936D01*
Y210392D01*
X34576D01*
X34587Y210403D01*
X34609Y210408D01*
X34637Y210425D01*
X34670Y210441D01*
X34709Y210464D01*
X34803Y210519D01*
X34914Y210580D01*
X35025Y210658D01*
X35142Y210747D01*
X35258Y210841D01*
X35264Y210847D01*
X35269Y210852D01*
X35286Y210869D01*
X35308Y210886D01*
X35358Y210941D01*
X35425Y211008D01*
X35491Y211085D01*
X35563Y211174D01*
X35625Y211263D01*
X35680Y211357D01*
X35985D01*
Y207500D01*
D02*
G37*
G36*
X33610Y210886D02*
X31340D01*
Y209714D01*
X33466D01*
Y209259D01*
X31340D01*
Y207955D01*
X33699D01*
Y207500D01*
X30829D01*
Y211341D01*
X33610D01*
Y210886D01*
D02*
G37*
G36*
X173832Y122604D02*
X173498Y122271D01*
X171375Y124394D01*
Y124386D01*
X171371Y124351D01*
Y124304D01*
X171359Y124237D01*
X171352Y124158D01*
X171336Y124064D01*
X171316Y123958D01*
X171289Y123845D01*
X171285Y123841D01*
Y123833D01*
X171277Y123793D01*
X171257Y123735D01*
X171234Y123664D01*
X171206Y123582D01*
X171175Y123495D01*
X171144Y123409D01*
X171108Y123327D01*
X170786Y123648D01*
X170790Y123652D01*
Y123668D01*
X170802Y123688D01*
X170810Y123719D01*
X170822Y123754D01*
X170834Y123797D01*
X170861Y123903D01*
X170896Y124025D01*
X170920Y124158D01*
X170940Y124304D01*
X170955Y124453D01*
Y124461D01*
Y124469D01*
Y124492D01*
X170959Y124520D01*
X170955Y124594D01*
Y124688D01*
X170947Y124790D01*
X170936Y124904D01*
X170916Y125010D01*
X170888Y125116D01*
X171104Y125332D01*
X173832Y122604D01*
D02*
G37*
G36*
X170155Y121227D02*
X171305Y120077D01*
X170943Y119716D01*
X169794Y120866D01*
X167180Y121384D01*
X167615Y121819D01*
X168973Y121529D01*
X168977Y121525D01*
X168993D01*
X169013Y121521D01*
X169036Y121513D01*
X169071Y121509D01*
X169111Y121502D01*
X169205Y121478D01*
X169319Y121451D01*
X169444Y121419D01*
X169578Y121388D01*
X169711Y121349D01*
X169707Y121353D01*
X169703Y121364D01*
X169699Y121384D01*
X169695Y121411D01*
X169688Y121443D01*
X169680Y121482D01*
X169656Y121576D01*
X169629Y121690D01*
X169597Y121823D01*
X169566Y121973D01*
X169531Y122133D01*
X169252Y123456D01*
X169672Y123876D01*
X170155Y121227D01*
D02*
G37*
G36*
X84647Y87778D02*
X83077Y86209D01*
X83073Y86205D01*
X83061Y86193D01*
X83042Y86173D01*
X83018Y86150D01*
X82995Y86118D01*
X82959Y86083D01*
X82889Y86005D01*
X82810Y85910D01*
X82736Y85812D01*
X82669Y85714D01*
X82641Y85671D01*
X82618Y85624D01*
X82614Y85612D01*
X82602Y85585D01*
X82594Y85538D01*
X82578Y85475D01*
X82567Y85408D01*
X82563Y85326D01*
X82567Y85235D01*
X82586Y85145D01*
X82590Y85133D01*
X82598Y85102D01*
X82622Y85055D01*
X82653Y84992D01*
X82688Y84917D01*
X82747Y84835D01*
X82810Y84749D01*
X82889Y84662D01*
X82928Y84623D01*
X82955Y84604D01*
X82991Y84568D01*
X83030Y84537D01*
X83132Y84466D01*
X83246Y84392D01*
X83367Y84333D01*
X83497Y84290D01*
X83564Y84278D01*
X83630Y84274D01*
X83638D01*
X83646D01*
X83666Y84278D01*
X83693Y84282D01*
X83728Y84294D01*
X83768Y84301D01*
X83819Y84321D01*
X83870Y84341D01*
X83929Y84368D01*
X83991Y84407D01*
X84066Y84451D01*
X84140Y84501D01*
X84223Y84560D01*
X84305Y84627D01*
X84399Y84706D01*
X84490Y84796D01*
X86059Y86366D01*
X86421Y86005D01*
X84851Y84435D01*
X84847Y84431D01*
X84831Y84415D01*
X84812Y84396D01*
X84784Y84368D01*
X84745Y84337D01*
X84706Y84297D01*
X84655Y84254D01*
X84604Y84211D01*
X84486Y84117D01*
X84360Y84023D01*
X84231Y83940D01*
X84164Y83905D01*
X84101Y83874D01*
X84097Y83870D01*
X84086Y83866D01*
X84066Y83862D01*
X84042Y83854D01*
X83976Y83834D01*
X83885Y83815D01*
X83776Y83799D01*
X83658Y83791D01*
X83520Y83795D01*
X83375Y83823D01*
X83371Y83827D01*
X83356D01*
X83340Y83834D01*
X83309Y83842D01*
X83273Y83854D01*
X83230Y83874D01*
X83187Y83893D01*
X83132Y83917D01*
X83073Y83944D01*
X83014Y83979D01*
X82951Y84019D01*
X82881Y84066D01*
X82814Y84117D01*
X82743Y84172D01*
X82594Y84305D01*
X82559Y84341D01*
X82535Y84372D01*
X82504Y84403D01*
X82469Y84447D01*
X82429Y84494D01*
X82390Y84541D01*
X82308Y84655D01*
X82225Y84784D01*
X82155Y84917D01*
X82100Y85059D01*
X82096Y85063D01*
Y85078D01*
X82092Y85098D01*
X82084Y85122D01*
X82072Y85196D01*
X82064Y85290D01*
X82060Y85404D01*
X82068Y85522D01*
X82092Y85655D01*
X82135Y85785D01*
X82139Y85789D01*
X82143Y85800D01*
X82155Y85820D01*
X82166Y85848D01*
X82182Y85879D01*
X82206Y85918D01*
X82229Y85965D01*
X82265Y86016D01*
X82304Y86071D01*
X82343Y86134D01*
X82390Y86197D01*
X82441Y86264D01*
X82500Y86338D01*
X82567Y86413D01*
X82637Y86491D01*
X82716Y86570D01*
X84286Y88139D01*
X84647Y87778D01*
D02*
G37*
G36*
X86472Y84611D02*
X86487D01*
X86507Y84600D01*
X86538Y84592D01*
X86574Y84580D01*
X86617Y84568D01*
X86723Y84541D01*
X86844Y84505D01*
X86978Y84482D01*
X87123Y84462D01*
X87272Y84447D01*
X87280D01*
X87288D01*
X87311D01*
X87339Y84443D01*
X87413Y84447D01*
X87508D01*
X87610Y84454D01*
X87723Y84466D01*
X87829Y84486D01*
X87935Y84513D01*
X88151Y84297D01*
X85424Y81570D01*
X85090Y81903D01*
X87213Y84027D01*
X87205D01*
X87170Y84031D01*
X87123D01*
X87056Y84042D01*
X86978Y84050D01*
X86884Y84066D01*
X86778Y84086D01*
X86664Y84113D01*
X86660Y84117D01*
X86652D01*
X86613Y84125D01*
X86554Y84144D01*
X86483Y84168D01*
X86401Y84195D01*
X86315Y84227D01*
X86228Y84258D01*
X86146Y84294D01*
X86468Y84615D01*
X86472Y84611D01*
D02*
G37*
G36*
X171912Y100436D02*
X171906Y100392D01*
Y100342D01*
X171901Y100225D01*
X171884Y100103D01*
X171868Y99970D01*
X171840Y99848D01*
X171823Y99787D01*
X171807Y99737D01*
Y99732D01*
X171801Y99726D01*
X171784Y99693D01*
X171762Y99643D01*
X171723Y99582D01*
X171673Y99515D01*
X171607Y99443D01*
X171529Y99376D01*
X171440Y99310D01*
X171435D01*
X171429Y99304D01*
X171396Y99282D01*
X171340Y99260D01*
X171268Y99226D01*
X171185Y99199D01*
X171085Y99171D01*
X170980Y99154D01*
X170863Y99149D01*
X170858D01*
X170846D01*
X170824D01*
X170796Y99154D01*
X170758D01*
X170719Y99160D01*
X170624Y99182D01*
X170513Y99215D01*
X170397Y99260D01*
X170280Y99326D01*
X170225Y99371D01*
X170169Y99415D01*
X170164Y99421D01*
X170158Y99426D01*
X170141Y99443D01*
X170125Y99465D01*
X170103Y99493D01*
X170080Y99526D01*
X170053Y99571D01*
X170019Y99615D01*
X169992Y99671D01*
X169964Y99732D01*
X169931Y99798D01*
X169903Y99870D01*
X169881Y99954D01*
X169853Y100037D01*
X169836Y100131D01*
X169820Y100231D01*
X169814Y100220D01*
X169803Y100198D01*
X169781Y100164D01*
X169759Y100120D01*
X169697Y100020D01*
X169659Y99970D01*
X169625Y99926D01*
X169614Y99915D01*
X169587Y99887D01*
X169542Y99843D01*
X169487Y99787D01*
X169409Y99726D01*
X169326Y99654D01*
X169226Y99582D01*
X169115Y99504D01*
X168071Y98844D01*
Y99476D01*
X168871Y99981D01*
X168876D01*
X168887Y99992D01*
X168904Y100004D01*
X168926Y100020D01*
X168987Y100059D01*
X169065Y100109D01*
X169148Y100170D01*
X169237Y100231D01*
X169320Y100292D01*
X169398Y100348D01*
X169403Y100353D01*
X169426Y100370D01*
X169459Y100398D01*
X169498Y100436D01*
X169581Y100520D01*
X169620Y100564D01*
X169653Y100609D01*
X169659Y100614D01*
X169664Y100625D01*
X169675Y100647D01*
X169692Y100681D01*
X169709Y100714D01*
X169725Y100753D01*
X169753Y100842D01*
Y100847D01*
X169759Y100858D01*
Y100880D01*
X169764Y100908D01*
X169770Y100947D01*
Y100991D01*
X169775Y101052D01*
Y101707D01*
X168071D01*
Y102218D01*
X171912D01*
Y100436D01*
D02*
G37*
G36*
X170963Y98178D02*
X170974Y98167D01*
X170980Y98144D01*
X170996Y98116D01*
X171013Y98083D01*
X171035Y98044D01*
X171091Y97950D01*
X171152Y97839D01*
X171229Y97728D01*
X171318Y97611D01*
X171413Y97495D01*
X171418Y97489D01*
X171424Y97484D01*
X171440Y97467D01*
X171457Y97445D01*
X171512Y97395D01*
X171579Y97328D01*
X171657Y97262D01*
X171746Y97190D01*
X171834Y97129D01*
X171929Y97073D01*
Y96768D01*
X168071D01*
Y97240D01*
X171074D01*
X171068Y97245D01*
X171046Y97273D01*
X171013Y97306D01*
X170974Y97362D01*
X170924Y97423D01*
X170869Y97500D01*
X170808Y97589D01*
X170747Y97689D01*
Y97695D01*
X170741Y97700D01*
X170719Y97734D01*
X170691Y97789D01*
X170658Y97856D01*
X170619Y97933D01*
X170580Y98017D01*
X170541Y98100D01*
X170508Y98183D01*
X170963D01*
Y98178D01*
D02*
G37*
G36*
Y95192D02*
X170974Y95181D01*
X170980Y95158D01*
X170996Y95131D01*
X171013Y95097D01*
X171035Y95059D01*
X171091Y94964D01*
X171152Y94853D01*
X171229Y94742D01*
X171318Y94626D01*
X171413Y94509D01*
X171418Y94503D01*
X171424Y94498D01*
X171440Y94481D01*
X171457Y94459D01*
X171512Y94409D01*
X171579Y94343D01*
X171657Y94276D01*
X171746Y94204D01*
X171834Y94143D01*
X171929Y94087D01*
Y93782D01*
X168071D01*
Y94254D01*
X171074D01*
X171068Y94259D01*
X171046Y94287D01*
X171013Y94320D01*
X170974Y94376D01*
X170924Y94437D01*
X170869Y94515D01*
X170808Y94603D01*
X170747Y94703D01*
Y94709D01*
X170741Y94714D01*
X170719Y94748D01*
X170691Y94803D01*
X170658Y94870D01*
X170619Y94947D01*
X170580Y95031D01*
X170541Y95114D01*
X170508Y95197D01*
X170963D01*
Y95192D01*
D02*
G37*
G36*
X59894Y102857D02*
X59921Y102822D01*
X59957Y102787D01*
X60035Y102700D01*
X60110Y102602D01*
X60192Y102496D01*
X60259Y102390D01*
X60290Y102335D01*
X60314Y102288D01*
X60317Y102284D01*
Y102277D01*
X60329Y102241D01*
X60349Y102190D01*
X60365Y102120D01*
X60376Y102037D01*
X60380Y101939D01*
X60373Y101837D01*
X60357Y101727D01*
X60353Y101723D01*
Y101715D01*
X60345Y101676D01*
X60321Y101621D01*
X60294Y101547D01*
X60255Y101468D01*
X60204Y101378D01*
X60141Y101292D01*
X60062Y101205D01*
X60058Y101201D01*
X60051Y101193D01*
X60035Y101178D01*
X60011Y101162D01*
X59984Y101135D01*
X59952Y101111D01*
X59870Y101060D01*
X59768Y101005D01*
X59654Y100954D01*
X59525Y100919D01*
X59454Y100911D01*
X59383Y100903D01*
X59376D01*
X59368D01*
X59344D01*
X59317Y100907D01*
X59281Y100911D01*
X59242Y100919D01*
X59191Y100931D01*
X59136Y100938D01*
X59077Y100958D01*
X59015Y100981D01*
X58944Y101005D01*
X58873Y101036D01*
X58799Y101080D01*
X58720Y101119D01*
X58642Y101174D01*
X58559Y101233D01*
X58563Y101221D01*
X58571Y101197D01*
X58579Y101158D01*
X58595Y101111D01*
X58622Y100997D01*
X58630Y100934D01*
X58638Y100879D01*
Y100864D01*
Y100824D01*
Y100762D01*
Y100683D01*
X58626Y100585D01*
X58618Y100475D01*
X58599Y100354D01*
X58575Y100220D01*
X58304Y99015D01*
X57857Y99463D01*
X58065Y100385D01*
X58069Y100389D01*
Y100405D01*
X58073Y100424D01*
X58077Y100452D01*
X58092Y100522D01*
X58112Y100613D01*
X58128Y100715D01*
X58147Y100821D01*
X58163Y100923D01*
X58179Y101017D01*
Y101025D01*
X58183Y101052D01*
X58187Y101095D01*
Y101150D01*
Y101268D01*
X58183Y101327D01*
X58175Y101382D01*
Y101390D01*
X58171Y101401D01*
X58163Y101425D01*
X58151Y101460D01*
X58139Y101496D01*
X58124Y101535D01*
X58081Y101617D01*
X58077Y101621D01*
X58073Y101633D01*
X58057Y101649D01*
X58041Y101672D01*
X58018Y101704D01*
X57986Y101735D01*
X57947Y101782D01*
X57484Y102245D01*
X56279Y101040D01*
X55918Y101401D01*
X58634Y104117D01*
X59894Y102857D01*
D02*
G37*
G36*
X60820Y100589D02*
X60836D01*
X60855Y100577D01*
X60887Y100569D01*
X60922Y100558D01*
X60965Y100546D01*
X61071Y100518D01*
X61193Y100483D01*
X61326Y100460D01*
X61471Y100440D01*
X61620Y100424D01*
X61628D01*
X61636D01*
X61660D01*
X61687Y100420D01*
X61762Y100424D01*
X61856D01*
X61958Y100432D01*
X62072Y100444D01*
X62178Y100463D01*
X62284Y100491D01*
X62499Y100275D01*
X59772Y97548D01*
X59438Y97881D01*
X61562Y100004D01*
X61554D01*
X61518Y100008D01*
X61471D01*
X61405Y100020D01*
X61326Y100028D01*
X61232Y100043D01*
X61126Y100063D01*
X61012Y100091D01*
X61008Y100095D01*
X61000D01*
X60961Y100102D01*
X60902Y100122D01*
X60832Y100146D01*
X60749Y100173D01*
X60663Y100204D01*
X60576Y100236D01*
X60494Y100271D01*
X60816Y100593D01*
X60820Y100589D01*
D02*
G37*
G36*
X63587Y98866D02*
X63591Y98862D01*
X63602Y98866D01*
X63622Y98862D01*
X63645Y98854D01*
X63681Y98851D01*
X63716Y98839D01*
X63806Y98811D01*
X63905Y98768D01*
X64014Y98713D01*
X64128Y98631D01*
X64242Y98533D01*
X64277Y98497D01*
X64316Y98450D01*
X64360Y98391D01*
X64407Y98321D01*
X64454Y98242D01*
X64501Y98156D01*
X64532Y98062D01*
X64536Y98058D01*
Y98050D01*
X64544Y98018D01*
X64556Y97967D01*
X64568Y97901D01*
X64572Y97818D01*
X64575Y97728D01*
X64568Y97634D01*
X64552Y97532D01*
X64548Y97520D01*
X64544Y97485D01*
X64525Y97434D01*
X64501Y97355D01*
X64466Y97273D01*
X64430Y97175D01*
X64379Y97069D01*
X64316Y96959D01*
X64313Y96955D01*
X64309Y96943D01*
X64301Y96927D01*
X64285Y96904D01*
X64266Y96877D01*
X64242Y96845D01*
X64214Y96802D01*
X64179Y96759D01*
X64144Y96708D01*
X64101Y96657D01*
X64050Y96598D01*
X64003Y96535D01*
X63944Y96468D01*
X63881Y96406D01*
X63814Y96331D01*
X63740Y96256D01*
X63736Y96253D01*
X63720Y96237D01*
X63692Y96209D01*
X63661Y96178D01*
X63614Y96139D01*
X63567Y96092D01*
X63512Y96044D01*
X63453Y95994D01*
X63316Y95880D01*
X63167Y95770D01*
X63017Y95668D01*
X62943Y95625D01*
X62865Y95585D01*
X62861Y95581D01*
X62849Y95578D01*
X62825Y95570D01*
X62798Y95558D01*
X62762Y95538D01*
X62719Y95526D01*
X62621Y95491D01*
X62511Y95460D01*
X62382Y95432D01*
X62252Y95421D01*
X62115Y95424D01*
X62111Y95428D01*
X62099Y95424D01*
X62080Y95428D01*
X62056Y95436D01*
X62025Y95444D01*
X61989Y95448D01*
X61903Y95479D01*
X61805Y95523D01*
X61695Y95578D01*
X61581Y95660D01*
X61467Y95758D01*
X61428Y95797D01*
X61405Y95829D01*
X61377Y95864D01*
X61346Y95911D01*
X61310Y95962D01*
X61275Y96021D01*
X61244Y96084D01*
X61208Y96150D01*
X61181Y96225D01*
X61157Y96303D01*
X61138Y96386D01*
X61126Y96476D01*
X61122Y96566D01*
X61126Y96657D01*
Y96665D01*
X61130Y96684D01*
X61138Y96716D01*
X61150Y96767D01*
X61165Y96822D01*
X61193Y96888D01*
X61220Y96971D01*
X61259Y97057D01*
X61307Y97151D01*
X61365Y97257D01*
X61432Y97371D01*
X61515Y97493D01*
X61605Y97622D01*
X61711Y97752D01*
X61832Y97889D01*
X61966Y98030D01*
X61970Y98034D01*
X61985Y98050D01*
X62013Y98077D01*
X62044Y98109D01*
X62091Y98148D01*
X62138Y98195D01*
X62193Y98242D01*
X62256Y98297D01*
X62390Y98407D01*
X62539Y98517D01*
X62692Y98623D01*
X62766Y98666D01*
X62841Y98709D01*
X62845Y98713D01*
X62857Y98717D01*
X62880Y98725D01*
X62908Y98737D01*
X62943Y98756D01*
X62986Y98768D01*
X63084Y98803D01*
X63194Y98835D01*
X63320Y98858D01*
X63453Y98874D01*
X63587Y98866D01*
D02*
G37*
G36*
X86718Y73471D02*
X86887Y73460D01*
X87060Y73421D01*
X87068D01*
X87083Y73413D01*
X87107Y73405D01*
X87138Y73397D01*
X87181Y73377D01*
X87225Y73358D01*
X87279Y73334D01*
X87338Y73307D01*
X87401Y73275D01*
X87468Y73240D01*
X87601Y73154D01*
X87747Y73048D01*
X87884Y72926D01*
X87923Y72887D01*
X87947Y72855D01*
X87978Y72816D01*
X88017Y72769D01*
X88056Y72722D01*
X88096Y72659D01*
X88178Y72530D01*
X88261Y72377D01*
X88296Y72294D01*
X88323Y72212D01*
X88343Y72122D01*
X88363Y72031D01*
Y72023D01*
X88367Y72012D01*
X88371Y71984D01*
Y71945D01*
Y71906D01*
Y71851D01*
X88367Y71792D01*
Y71729D01*
X88359Y71658D01*
X88343Y71580D01*
X88331Y71497D01*
X88312Y71415D01*
X88280Y71329D01*
X88253Y71238D01*
X88213Y71152D01*
X88166Y71058D01*
X87731Y71329D01*
X87735Y71333D01*
X87739Y71345D01*
X87747Y71368D01*
X87758Y71395D01*
X87774Y71427D01*
X87794Y71470D01*
X87825Y71564D01*
X87856Y71674D01*
X87880Y71792D01*
X87888Y71917D01*
X87884Y72039D01*
Y72055D01*
X87876Y72094D01*
X87856Y72153D01*
X87833Y72231D01*
X87790Y72322D01*
X87739Y72420D01*
X87664Y72526D01*
X87570Y72628D01*
X87538Y72659D01*
X87515Y72675D01*
X87488Y72702D01*
X87452Y72730D01*
X87366Y72793D01*
X87268Y72859D01*
X87154Y72918D01*
X87024Y72969D01*
X86891Y73001D01*
X86887Y73005D01*
X86875Y73001D01*
X86828Y73009D01*
X86761Y73012D01*
X86671Y73009D01*
X86561Y73001D01*
X86448Y72981D01*
X86322Y72942D01*
X86192Y72891D01*
X86189Y72887D01*
X86177Y72883D01*
X86161Y72875D01*
X86137Y72859D01*
X86106Y72844D01*
X86071Y72824D01*
X85992Y72769D01*
X85898Y72706D01*
X85796Y72636D01*
X85694Y72549D01*
X85588Y72451D01*
X85584Y72447D01*
X85572Y72435D01*
X85553Y72416D01*
X85529Y72392D01*
X85506Y72361D01*
X85470Y72326D01*
X85435Y72282D01*
X85396Y72235D01*
X85313Y72129D01*
X85231Y72008D01*
X85152Y71882D01*
X85082Y71749D01*
X85078Y71745D01*
X85074Y71733D01*
X85070Y71713D01*
X85058Y71686D01*
X85035Y71615D01*
X85015Y71525D01*
X84996Y71419D01*
X84984Y71297D01*
X84988Y71176D01*
X85007Y71046D01*
X85011Y71042D01*
X85015Y71030D01*
X85019Y71011D01*
X85027Y70987D01*
X85039Y70960D01*
X85050Y70925D01*
X85082Y70846D01*
X85129Y70752D01*
X85188Y70654D01*
X85258Y70552D01*
X85345Y70458D01*
X85372Y70430D01*
X85400Y70411D01*
X85427Y70383D01*
X85459Y70359D01*
X85545Y70305D01*
X85647Y70242D01*
X85761Y70191D01*
X85890Y70148D01*
X85957Y70128D01*
X86028Y70120D01*
X86036D01*
X86043D01*
X86067D01*
X86094Y70116D01*
X86130Y70120D01*
X86173Y70124D01*
X86220D01*
X86271Y70136D01*
X86330Y70148D01*
X86396Y70159D01*
X86459Y70175D01*
X86530Y70199D01*
X86601Y70230D01*
X86675Y70265D01*
X86754Y70305D01*
X86832Y70352D01*
X87103Y69900D01*
X87099Y69896D01*
X87079Y69885D01*
X87048Y69869D01*
X87005Y69849D01*
X86958Y69826D01*
X86899Y69798D01*
X86832Y69771D01*
X86758Y69743D01*
X86593Y69688D01*
X86412Y69649D01*
X86314Y69637D01*
X86216Y69626D01*
X86122D01*
X86020Y69633D01*
X86012D01*
X85996D01*
X85969Y69645D01*
X85933Y69649D01*
X85882Y69661D01*
X85831Y69673D01*
X85769Y69696D01*
X85706Y69720D01*
X85631Y69747D01*
X85557Y69783D01*
X85478Y69822D01*
X85396Y69865D01*
X85313Y69916D01*
X85235Y69979D01*
X85152Y70046D01*
X85070Y70120D01*
X85027Y70163D01*
X84999Y70199D01*
X84964Y70234D01*
X84925Y70281D01*
X84886Y70336D01*
X84838Y70399D01*
X84744Y70532D01*
X84658Y70681D01*
X84583Y70842D01*
X84556Y70925D01*
X84532Y71011D01*
Y71019D01*
X84528Y71030D01*
X84525Y71058D01*
Y71089D01*
X84517Y71129D01*
X84513Y71180D01*
X84509Y71238D01*
Y71301D01*
X84513Y71368D01*
Y71439D01*
X84532Y71600D01*
X84572Y71772D01*
X84631Y71949D01*
X84634Y71953D01*
X84638Y71972D01*
X84654Y71996D01*
X84666Y72031D01*
X84689Y72070D01*
X84717Y72122D01*
X84744Y72180D01*
X84780Y72239D01*
X84819Y72302D01*
X84862Y72377D01*
X84964Y72518D01*
X85086Y72671D01*
X85219Y72820D01*
X85223Y72824D01*
X85239Y72840D01*
X85262Y72863D01*
X85294Y72887D01*
X85333Y72926D01*
X85376Y72961D01*
X85431Y73009D01*
X85490Y73052D01*
X85623Y73146D01*
X85776Y73244D01*
X85941Y73330D01*
X86118Y73397D01*
X86126D01*
X86141Y73405D01*
X86165Y73413D01*
X86200Y73417D01*
X86243Y73428D01*
X86295Y73440D01*
X86416Y73460D01*
X86561Y73471D01*
X86718D01*
D02*
G37*
G36*
X91494Y68766D02*
X91549Y68758D01*
X91620Y68750D01*
X91687Y68739D01*
X91761Y68719D01*
X91844Y68699D01*
X91926Y68664D01*
X92012Y68633D01*
X92099Y68586D01*
X92185Y68531D01*
X92268Y68464D01*
X92350Y68389D01*
X92381Y68358D01*
X92401Y68331D01*
X92428Y68303D01*
X92456Y68268D01*
X92515Y68177D01*
X92577Y68075D01*
X92632Y67958D01*
X92672Y67824D01*
X92687Y67754D01*
X92695Y67683D01*
Y67675D01*
Y67667D01*
Y67644D01*
Y67620D01*
Y67581D01*
X92687Y67542D01*
X92676Y67444D01*
X92648Y67330D01*
X92601Y67204D01*
X92538Y67071D01*
X92452Y66937D01*
X92091Y67243D01*
X92095Y67247D01*
Y67255D01*
X92114Y67283D01*
X92138Y67330D01*
X92165Y67389D01*
X92197Y67451D01*
X92220Y67522D01*
X92236Y67593D01*
X92244Y67655D01*
Y67671D01*
Y67703D01*
X92240Y67754D01*
X92228Y67820D01*
X92201Y67895D01*
X92169Y67973D01*
X92118Y68056D01*
X92056Y68134D01*
X92028Y68162D01*
X91993Y68189D01*
X91950Y68217D01*
X91891Y68252D01*
X91828Y68283D01*
X91761Y68311D01*
X91683Y68327D01*
X91671Y68331D01*
X91636Y68334D01*
X91581D01*
X91506Y68331D01*
X91420Y68323D01*
X91322Y68311D01*
X91212Y68279D01*
X91094Y68240D01*
X91090Y68236D01*
X91078Y68232D01*
X91063Y68225D01*
X91039Y68217D01*
X91012Y68197D01*
X90976Y68177D01*
X90937Y68154D01*
X90890Y68123D01*
X90835Y68091D01*
X90780Y68052D01*
X90721Y68009D01*
X90662Y67958D01*
X90592Y67903D01*
X90525Y67844D01*
X90451Y67777D01*
X90380Y67707D01*
X90388D01*
X90427Y67714D01*
X90486Y67718D01*
X90560Y67722D01*
X90647Y67730D01*
X90741Y67722D01*
X90839Y67711D01*
X90941Y67687D01*
X90945Y67683D01*
X90953D01*
X90988Y67671D01*
X91035Y67648D01*
X91102Y67620D01*
X91173Y67581D01*
X91247Y67530D01*
X91326Y67475D01*
X91400Y67408D01*
X91432Y67377D01*
X91451Y67349D01*
X91479Y67314D01*
X91506Y67279D01*
X91537Y67232D01*
X91565Y67181D01*
X91628Y67063D01*
X91655Y66996D01*
X91675Y66922D01*
X91694Y66847D01*
X91714Y66765D01*
X91722Y66678D01*
Y66592D01*
Y66584D01*
Y66568D01*
Y66545D01*
X91714Y66514D01*
X91706Y66466D01*
X91698Y66419D01*
X91683Y66364D01*
X91667Y66302D01*
X91647Y66235D01*
X91620Y66168D01*
X91585Y66094D01*
X91549Y66019D01*
X91502Y65948D01*
X91447Y65870D01*
X91388Y65795D01*
X91322Y65721D01*
X91318Y65717D01*
X91310Y65709D01*
X91298Y65697D01*
X91278Y65678D01*
X91251Y65658D01*
X91228Y65634D01*
X91153Y65583D01*
X91067Y65521D01*
X90969Y65462D01*
X90855Y65403D01*
X90733Y65360D01*
X90729Y65356D01*
X90721D01*
X90702Y65352D01*
X90678Y65344D01*
X90615Y65328D01*
X90529Y65313D01*
X90431Y65301D01*
X90325Y65297D01*
X90207Y65305D01*
X90093Y65324D01*
X90089Y65328D01*
X90082D01*
X90062Y65332D01*
X90042Y65344D01*
X89983Y65364D01*
X89913Y65395D01*
X89823Y65438D01*
X89732Y65497D01*
X89634Y65564D01*
X89540Y65650D01*
X89520Y65670D01*
X89505Y65693D01*
X89473Y65725D01*
X89442Y65764D01*
X89411Y65811D01*
X89375Y65870D01*
X89340Y65929D01*
X89301Y65999D01*
X89265Y66074D01*
X89234Y66152D01*
X89206Y66243D01*
X89187Y66333D01*
X89171Y66427D01*
X89163Y66529D01*
X89167Y66635D01*
Y66643D01*
X89171Y66663D01*
X89175Y66690D01*
X89187Y66733D01*
X89199Y66792D01*
X89218Y66851D01*
X89246Y66926D01*
X89277Y67004D01*
X89316Y67098D01*
X89367Y67196D01*
X89430Y67298D01*
X89501Y67408D01*
X89583Y67530D01*
X89681Y67652D01*
X89791Y67777D01*
X89913Y67907D01*
X89917Y67911D01*
X89921Y67914D01*
X89932Y67926D01*
X89948Y67942D01*
X89991Y67977D01*
X90046Y68032D01*
X90113Y68091D01*
X90195Y68158D01*
X90286Y68232D01*
X90388Y68311D01*
X90494Y68385D01*
X90611Y68464D01*
X90729Y68535D01*
X90851Y68601D01*
X90976Y68656D01*
X91102Y68703D01*
X91228Y68743D01*
X91349Y68762D01*
X91357D01*
X91373D01*
X91404D01*
X91447Y68766D01*
X91494D01*
D02*
G37*
G36*
X88853Y70520D02*
X88869D01*
X88889Y70509D01*
X88920Y70501D01*
X88955Y70489D01*
X88998Y70477D01*
X89104Y70450D01*
X89226Y70414D01*
X89359Y70391D01*
X89505Y70371D01*
X89654Y70355D01*
X89662D01*
X89670D01*
X89693D01*
X89720Y70352D01*
X89795Y70355D01*
X89889D01*
X89991Y70363D01*
X90105Y70375D01*
X90211Y70395D01*
X90317Y70422D01*
X90533Y70206D01*
X87805Y67479D01*
X87472Y67813D01*
X89595Y69936D01*
X89587D01*
X89552Y69940D01*
X89505D01*
X89438Y69951D01*
X89359Y69959D01*
X89265Y69975D01*
X89159Y69994D01*
X89046Y70022D01*
X89042Y70026D01*
X89034D01*
X88994Y70034D01*
X88936Y70053D01*
X88865Y70077D01*
X88783Y70104D01*
X88696Y70136D01*
X88610Y70167D01*
X88528Y70202D01*
X88849Y70524D01*
X88853Y70520D01*
D02*
G37*
G36*
X176481Y159209D02*
X176650Y159197D01*
X176823Y159158D01*
X176830D01*
X176846Y159150D01*
X176870Y159142D01*
X176901Y159134D01*
X176944Y159114D01*
X176988Y159095D01*
X177042Y159071D01*
X177101Y159044D01*
X177164Y159012D01*
X177231Y158977D01*
X177364Y158891D01*
X177509Y158785D01*
X177647Y158663D01*
X177686Y158624D01*
X177710Y158592D01*
X177741Y158553D01*
X177780Y158506D01*
X177820Y158459D01*
X177859Y158396D01*
X177941Y158267D01*
X178024Y158114D01*
X178059Y158031D01*
X178086Y157949D01*
X178106Y157859D01*
X178126Y157768D01*
Y157761D01*
X178129Y157749D01*
X178133Y157721D01*
Y157682D01*
Y157643D01*
Y157588D01*
X178129Y157529D01*
Y157466D01*
X178122Y157396D01*
X178106Y157317D01*
X178094Y157235D01*
X178075Y157152D01*
X178043Y157066D01*
X178016Y156976D01*
X177976Y156889D01*
X177929Y156795D01*
X177494Y157066D01*
X177498Y157070D01*
X177502Y157081D01*
X177509Y157105D01*
X177521Y157133D01*
X177537Y157164D01*
X177557Y157207D01*
X177588Y157301D01*
X177619Y157411D01*
X177643Y157529D01*
X177651Y157655D01*
X177647Y157776D01*
Y157792D01*
X177639Y157831D01*
X177619Y157890D01*
X177596Y157968D01*
X177553Y158059D01*
X177502Y158157D01*
X177427Y158263D01*
X177333Y158365D01*
X177301Y158396D01*
X177278Y158412D01*
X177250Y158439D01*
X177215Y158467D01*
X177129Y158530D01*
X177031Y158596D01*
X176917Y158655D01*
X176787Y158706D01*
X176654Y158738D01*
X176650Y158742D01*
X176638Y158738D01*
X176591Y158746D01*
X176524Y158749D01*
X176434Y158746D01*
X176324Y158738D01*
X176210Y158718D01*
X176085Y158679D01*
X175955Y158628D01*
X175951Y158624D01*
X175940Y158620D01*
X175924Y158612D01*
X175900Y158596D01*
X175869Y158581D01*
X175834Y158561D01*
X175755Y158506D01*
X175661Y158443D01*
X175559Y158373D01*
X175457Y158286D01*
X175351Y158188D01*
X175347Y158184D01*
X175335Y158173D01*
X175316Y158153D01*
X175292Y158129D01*
X175269Y158098D01*
X175233Y158063D01*
X175198Y158019D01*
X175159Y157972D01*
X175076Y157866D01*
X174994Y157745D01*
X174915Y157619D01*
X174845Y157486D01*
X174841Y157482D01*
X174837Y157470D01*
X174833Y157450D01*
X174821Y157423D01*
X174798Y157352D01*
X174778Y157262D01*
X174758Y157156D01*
X174747Y157035D01*
X174751Y156913D01*
X174770Y156783D01*
X174774Y156779D01*
X174778Y156768D01*
X174782Y156748D01*
X174790Y156724D01*
X174802Y156697D01*
X174813Y156662D01*
X174845Y156583D01*
X174892Y156489D01*
X174951Y156391D01*
X175021Y156289D01*
X175108Y156195D01*
X175135Y156167D01*
X175163Y156148D01*
X175190Y156120D01*
X175222Y156096D01*
X175308Y156042D01*
X175410Y155979D01*
X175524Y155928D01*
X175653Y155885D01*
X175720Y155865D01*
X175791Y155857D01*
X175798D01*
X175806D01*
X175830D01*
X175857Y155853D01*
X175893Y155857D01*
X175936Y155861D01*
X175983D01*
X176034Y155873D01*
X176093Y155885D01*
X176159Y155896D01*
X176222Y155912D01*
X176293Y155936D01*
X176364Y155967D01*
X176438Y156002D01*
X176517Y156042D01*
X176595Y156089D01*
X176866Y155637D01*
X176862Y155633D01*
X176842Y155622D01*
X176811Y155606D01*
X176768Y155586D01*
X176721Y155563D01*
X176662Y155535D01*
X176595Y155508D01*
X176521Y155480D01*
X176356Y155425D01*
X176175Y155386D01*
X176077Y155374D01*
X175979Y155363D01*
X175885D01*
X175783Y155370D01*
X175775D01*
X175759D01*
X175732Y155382D01*
X175696Y155386D01*
X175645Y155398D01*
X175594Y155410D01*
X175531Y155433D01*
X175469Y155457D01*
X175394Y155484D01*
X175320Y155520D01*
X175241Y155559D01*
X175159Y155602D01*
X175076Y155653D01*
X174998Y155716D01*
X174915Y155783D01*
X174833Y155857D01*
X174790Y155900D01*
X174762Y155936D01*
X174727Y155971D01*
X174688Y156018D01*
X174648Y156073D01*
X174601Y156136D01*
X174507Y156269D01*
X174421Y156418D01*
X174346Y156579D01*
X174319Y156662D01*
X174295Y156748D01*
Y156756D01*
X174291Y156768D01*
X174287Y156795D01*
Y156826D01*
X174280Y156866D01*
X174276Y156917D01*
X174272Y156976D01*
Y157038D01*
X174276Y157105D01*
Y157176D01*
X174295Y157337D01*
X174335Y157509D01*
X174393Y157686D01*
X174397Y157690D01*
X174401Y157710D01*
X174417Y157733D01*
X174429Y157768D01*
X174452Y157808D01*
X174480Y157859D01*
X174507Y157917D01*
X174543Y157976D01*
X174582Y158039D01*
X174625Y158114D01*
X174727Y158255D01*
X174849Y158408D01*
X174982Y158557D01*
X174986Y158561D01*
X175002Y158577D01*
X175025Y158600D01*
X175057Y158624D01*
X175096Y158663D01*
X175139Y158698D01*
X175194Y158746D01*
X175253Y158789D01*
X175386Y158883D01*
X175539Y158981D01*
X175704Y159067D01*
X175881Y159134D01*
X175889D01*
X175904Y159142D01*
X175928Y159150D01*
X175963Y159154D01*
X176006Y159165D01*
X176057Y159177D01*
X176179Y159197D01*
X176324Y159209D01*
X176481D01*
D02*
G37*
G36*
X178616Y156257D02*
X178632D01*
X178651Y156246D01*
X178683Y156238D01*
X178718Y156226D01*
X178761Y156214D01*
X178867Y156187D01*
X178989Y156151D01*
X179122Y156128D01*
X179268Y156108D01*
X179417Y156093D01*
X179425D01*
X179432D01*
X179456D01*
X179483Y156089D01*
X179558Y156093D01*
X179652D01*
X179754Y156100D01*
X179868Y156112D01*
X179974Y156132D01*
X180080Y156159D01*
X180296Y155944D01*
X177568Y153216D01*
X177235Y153550D01*
X179358Y155673D01*
X179350D01*
X179315Y155677D01*
X179268D01*
X179201Y155688D01*
X179122Y155696D01*
X179028Y155712D01*
X178922Y155731D01*
X178808Y155759D01*
X178805Y155763D01*
X178797D01*
X178757Y155771D01*
X178699Y155790D01*
X178628Y155814D01*
X178545Y155841D01*
X178459Y155873D01*
X178373Y155904D01*
X178290Y155939D01*
X178612Y156261D01*
X178616Y156257D01*
D02*
G37*
G36*
X180728Y154146D02*
X180743D01*
X180763Y154134D01*
X180794Y154126D01*
X180830Y154115D01*
X180873Y154103D01*
X180979Y154075D01*
X181100Y154040D01*
X181234Y154017D01*
X181379Y153997D01*
X181528Y153981D01*
X181536D01*
X181544D01*
X181567D01*
X181595Y153977D01*
X181669Y153981D01*
X181764D01*
X181866Y153989D01*
X181979Y154001D01*
X182085Y154021D01*
X182191Y154048D01*
X182407Y153832D01*
X179680Y151105D01*
X179346Y151438D01*
X181469Y153561D01*
X181461D01*
X181426Y153565D01*
X181379D01*
X181312Y153577D01*
X181234Y153585D01*
X181140Y153601D01*
X181034Y153620D01*
X180920Y153648D01*
X180916Y153652D01*
X180908D01*
X180869Y153659D01*
X180810Y153679D01*
X180739Y153703D01*
X180657Y153730D01*
X180570Y153761D01*
X180484Y153793D01*
X180402Y153828D01*
X180724Y154150D01*
X180728Y154146D01*
D02*
G37*
G36*
X155222Y180468D02*
X155391Y180456D01*
X155564Y180417D01*
X155571D01*
X155587Y180409D01*
X155611Y180401D01*
X155642Y180393D01*
X155685Y180373D01*
X155728Y180354D01*
X155783Y180330D01*
X155842Y180303D01*
X155905Y180271D01*
X155972Y180236D01*
X156105Y180150D01*
X156250Y180044D01*
X156388Y179922D01*
X156427Y179883D01*
X156451Y179851D01*
X156482Y179812D01*
X156521Y179765D01*
X156561Y179718D01*
X156600Y179655D01*
X156682Y179526D01*
X156764Y179373D01*
X156800Y179290D01*
X156827Y179208D01*
X156847Y179118D01*
X156867Y179027D01*
Y179019D01*
X156870Y179008D01*
X156874Y178980D01*
Y178941D01*
Y178902D01*
Y178847D01*
X156870Y178788D01*
Y178725D01*
X156863Y178655D01*
X156847Y178576D01*
X156835Y178494D01*
X156816Y178411D01*
X156784Y178325D01*
X156757Y178235D01*
X156718Y178148D01*
X156670Y178054D01*
X156235Y178325D01*
X156239Y178329D01*
X156243Y178341D01*
X156250Y178364D01*
X156262Y178392D01*
X156278Y178423D01*
X156298Y178466D01*
X156329Y178560D01*
X156360Y178670D01*
X156384Y178788D01*
X156392Y178913D01*
X156388Y179035D01*
Y179051D01*
X156380Y179090D01*
X156360Y179149D01*
X156337Y179227D01*
X156294Y179318D01*
X156243Y179416D01*
X156168Y179522D01*
X156074Y179624D01*
X156043Y179655D01*
X156019Y179671D01*
X155991Y179698D01*
X155956Y179726D01*
X155870Y179789D01*
X155772Y179855D01*
X155658Y179914D01*
X155528Y179965D01*
X155395Y179997D01*
X155391Y180001D01*
X155379Y179997D01*
X155332Y180005D01*
X155265Y180008D01*
X155175Y180005D01*
X155065Y179997D01*
X154951Y179977D01*
X154826Y179938D01*
X154696Y179887D01*
X154692Y179883D01*
X154681Y179879D01*
X154665Y179871D01*
X154641Y179855D01*
X154610Y179840D01*
X154575Y179820D01*
X154496Y179765D01*
X154402Y179702D01*
X154300Y179632D01*
X154198Y179545D01*
X154092Y179447D01*
X154088Y179443D01*
X154076Y179431D01*
X154057Y179412D01*
X154033Y179388D01*
X154010Y179357D01*
X153974Y179322D01*
X153939Y179279D01*
X153900Y179231D01*
X153817Y179125D01*
X153735Y179004D01*
X153656Y178878D01*
X153586Y178745D01*
X153582Y178741D01*
X153578Y178729D01*
X153574Y178709D01*
X153562Y178682D01*
X153539Y178611D01*
X153519Y178521D01*
X153499Y178415D01*
X153488Y178294D01*
X153492Y178172D01*
X153511Y178042D01*
X153515Y178038D01*
X153519Y178027D01*
X153523Y178007D01*
X153531Y177983D01*
X153543Y177956D01*
X153554Y177921D01*
X153586Y177842D01*
X153633Y177748D01*
X153692Y177650D01*
X153762Y177548D01*
X153849Y177454D01*
X153876Y177426D01*
X153904Y177407D01*
X153931Y177379D01*
X153963Y177356D01*
X154049Y177301D01*
X154151Y177238D01*
X154265Y177187D01*
X154394Y177144D01*
X154461Y177124D01*
X154532Y177116D01*
X154539D01*
X154547D01*
X154571D01*
X154598Y177112D01*
X154634Y177116D01*
X154677Y177120D01*
X154724D01*
X154775Y177132D01*
X154834Y177144D01*
X154900Y177155D01*
X154963Y177171D01*
X155034Y177195D01*
X155104Y177226D01*
X155179Y177261D01*
X155258Y177301D01*
X155336Y177348D01*
X155607Y176896D01*
X155603Y176892D01*
X155583Y176881D01*
X155552Y176865D01*
X155509Y176845D01*
X155462Y176822D01*
X155403Y176794D01*
X155336Y176767D01*
X155262Y176739D01*
X155097Y176684D01*
X154916Y176645D01*
X154818Y176633D01*
X154720Y176622D01*
X154626D01*
X154524Y176629D01*
X154516D01*
X154500D01*
X154473Y176641D01*
X154437Y176645D01*
X154386Y176657D01*
X154335Y176669D01*
X154272Y176692D01*
X154210Y176716D01*
X154135Y176743D01*
X154061Y176779D01*
X153982Y176818D01*
X153900Y176861D01*
X153817Y176912D01*
X153739Y176975D01*
X153656Y177042D01*
X153574Y177116D01*
X153531Y177159D01*
X153503Y177195D01*
X153468Y177230D01*
X153429Y177277D01*
X153390Y177332D01*
X153342Y177395D01*
X153248Y177528D01*
X153162Y177677D01*
X153087Y177838D01*
X153060Y177921D01*
X153036Y178007D01*
Y178015D01*
X153032Y178027D01*
X153029Y178054D01*
Y178085D01*
X153021Y178125D01*
X153017Y178176D01*
X153013Y178235D01*
Y178297D01*
X153017Y178364D01*
Y178435D01*
X153036Y178596D01*
X153076Y178768D01*
X153134Y178945D01*
X153138Y178949D01*
X153142Y178969D01*
X153158Y178992D01*
X153170Y179027D01*
X153193Y179067D01*
X153221Y179118D01*
X153248Y179176D01*
X153284Y179235D01*
X153323Y179298D01*
X153366Y179373D01*
X153468Y179514D01*
X153590Y179667D01*
X153723Y179816D01*
X153727Y179820D01*
X153743Y179836D01*
X153766Y179859D01*
X153798Y179883D01*
X153837Y179922D01*
X153880Y179957D01*
X153935Y180005D01*
X153994Y180048D01*
X154127Y180142D01*
X154280Y180240D01*
X154445Y180326D01*
X154622Y180393D01*
X154630D01*
X154645Y180401D01*
X154669Y180409D01*
X154704Y180413D01*
X154747Y180424D01*
X154798Y180436D01*
X154920Y180456D01*
X155065Y180468D01*
X155222D01*
D02*
G37*
G36*
X157357Y177516D02*
X157373D01*
X157393Y177505D01*
X157424Y177497D01*
X157459Y177485D01*
X157502Y177473D01*
X157608Y177446D01*
X157730Y177410D01*
X157863Y177387D01*
X158009Y177367D01*
X158158Y177352D01*
X158166D01*
X158173D01*
X158197D01*
X158224Y177348D01*
X158299Y177352D01*
X158393D01*
X158495Y177359D01*
X158609Y177371D01*
X158715Y177391D01*
X158821Y177418D01*
X159037Y177202D01*
X156309Y174475D01*
X155976Y174809D01*
X158099Y176932D01*
X158091D01*
X158056Y176936D01*
X158009D01*
X157942Y176947D01*
X157863Y176955D01*
X157769Y176971D01*
X157663Y176990D01*
X157549Y177018D01*
X157545Y177022D01*
X157538D01*
X157498Y177030D01*
X157440Y177049D01*
X157369Y177073D01*
X157287Y177100D01*
X157200Y177132D01*
X157114Y177163D01*
X157031Y177199D01*
X157353Y177520D01*
X157357Y177516D01*
D02*
G37*
G36*
X160124Y175794D02*
X160128Y175790D01*
X160140Y175794D01*
X160159Y175790D01*
X160183Y175782D01*
X160218Y175778D01*
X160253Y175766D01*
X160344Y175739D01*
X160442Y175696D01*
X160552Y175640D01*
X160665Y175558D01*
X160779Y175460D01*
X160815Y175425D01*
X160854Y175378D01*
X160897Y175319D01*
X160944Y175248D01*
X160991Y175170D01*
X161038Y175083D01*
X161070Y174989D01*
X161074Y174985D01*
Y174977D01*
X161081Y174946D01*
X161093Y174895D01*
X161105Y174828D01*
X161109Y174746D01*
X161113Y174655D01*
X161105Y174561D01*
X161089Y174459D01*
X161085Y174448D01*
X161081Y174412D01*
X161062Y174361D01*
X161038Y174283D01*
X161003Y174200D01*
X160968Y174102D01*
X160917Y173996D01*
X160854Y173886D01*
X160850Y173882D01*
X160846Y173871D01*
X160838Y173855D01*
X160822Y173831D01*
X160803Y173804D01*
X160779Y173773D01*
X160752Y173729D01*
X160716Y173686D01*
X160681Y173635D01*
X160638Y173584D01*
X160587Y173525D01*
X160540Y173462D01*
X160481Y173396D01*
X160418Y173333D01*
X160352Y173258D01*
X160277Y173184D01*
X160273Y173180D01*
X160257Y173164D01*
X160230Y173137D01*
X160198Y173105D01*
X160151Y173066D01*
X160104Y173019D01*
X160049Y172972D01*
X159990Y172921D01*
X159853Y172807D01*
X159704Y172697D01*
X159555Y172595D01*
X159480Y172552D01*
X159402Y172513D01*
X159398Y172509D01*
X159386Y172505D01*
X159362Y172497D01*
X159335Y172485D01*
X159300Y172466D01*
X159257Y172454D01*
X159158Y172419D01*
X159049Y172387D01*
X158919Y172360D01*
X158790Y172348D01*
X158652Y172352D01*
X158648Y172356D01*
X158636Y172352D01*
X158617Y172356D01*
X158593Y172364D01*
X158562Y172371D01*
X158527Y172375D01*
X158440Y172407D01*
X158342Y172450D01*
X158232Y172505D01*
X158118Y172587D01*
X158005Y172685D01*
X157965Y172725D01*
X157942Y172756D01*
X157914Y172791D01*
X157883Y172838D01*
X157848Y172889D01*
X157812Y172948D01*
X157781Y173011D01*
X157746Y173078D01*
X157718Y173152D01*
X157695Y173231D01*
X157675Y173313D01*
X157663Y173404D01*
X157659Y173494D01*
X157663Y173584D01*
Y173592D01*
X157667Y173612D01*
X157675Y173643D01*
X157687Y173694D01*
X157703Y173749D01*
X157730Y173816D01*
X157757Y173898D01*
X157797Y173984D01*
X157844Y174079D01*
X157903Y174185D01*
X157969Y174298D01*
X158052Y174420D01*
X158142Y174549D01*
X158248Y174679D01*
X158370Y174816D01*
X158503Y174958D01*
X158507Y174962D01*
X158523Y174977D01*
X158550Y175005D01*
X158582Y175036D01*
X158629Y175075D01*
X158676Y175122D01*
X158731Y175170D01*
X158793Y175224D01*
X158927Y175334D01*
X159076Y175444D01*
X159229Y175550D01*
X159304Y175593D01*
X159378Y175637D01*
X159382Y175640D01*
X159394Y175645D01*
X159417Y175652D01*
X159445Y175664D01*
X159480Y175684D01*
X159523Y175696D01*
X159622Y175731D01*
X159731Y175762D01*
X159857Y175786D01*
X159990Y175801D01*
X160124Y175794D01*
D02*
G37*
G36*
X94274Y75416D02*
X94443Y75404D01*
X94615Y75365D01*
X94623D01*
X94639Y75357D01*
X94662Y75349D01*
X94694Y75341D01*
X94737Y75322D01*
X94780Y75302D01*
X94835Y75279D01*
X94894Y75251D01*
X94957Y75220D01*
X95024Y75184D01*
X95157Y75098D01*
X95302Y74992D01*
X95439Y74870D01*
X95479Y74831D01*
X95502Y74800D01*
X95534Y74761D01*
X95573Y74713D01*
X95612Y74666D01*
X95652Y74603D01*
X95734Y74474D01*
X95816Y74321D01*
X95852Y74239D01*
X95879Y74156D01*
X95899Y74066D01*
X95918Y73976D01*
Y73968D01*
X95922Y73956D01*
X95926Y73928D01*
Y73889D01*
Y73850D01*
Y73795D01*
X95922Y73736D01*
Y73673D01*
X95914Y73603D01*
X95899Y73524D01*
X95887Y73442D01*
X95867Y73360D01*
X95836Y73273D01*
X95808Y73183D01*
X95769Y73097D01*
X95722Y73002D01*
X95287Y73273D01*
X95290Y73277D01*
X95294Y73289D01*
X95302Y73312D01*
X95314Y73340D01*
X95330Y73371D01*
X95349Y73414D01*
X95381Y73509D01*
X95412Y73619D01*
X95436Y73736D01*
X95443Y73862D01*
X95439Y73983D01*
Y73999D01*
X95432Y74038D01*
X95412Y74097D01*
X95389Y74176D01*
X95345Y74266D01*
X95294Y74364D01*
X95220Y74470D01*
X95126Y74572D01*
X95094Y74603D01*
X95071Y74619D01*
X95043Y74647D01*
X95008Y74674D01*
X94921Y74737D01*
X94823Y74804D01*
X94710Y74862D01*
X94580Y74914D01*
X94447Y74945D01*
X94443Y74949D01*
X94431Y74945D01*
X94384Y74953D01*
X94317Y74957D01*
X94227Y74953D01*
X94117Y74945D01*
X94003Y74925D01*
X93878Y74886D01*
X93748Y74835D01*
X93744Y74831D01*
X93732Y74827D01*
X93717Y74819D01*
X93693Y74804D01*
X93662Y74788D01*
X93626Y74768D01*
X93548Y74713D01*
X93454Y74651D01*
X93352Y74580D01*
X93250Y74494D01*
X93144Y74396D01*
X93140Y74392D01*
X93128Y74380D01*
X93108Y74360D01*
X93085Y74337D01*
X93061Y74305D01*
X93026Y74270D01*
X92991Y74227D01*
X92951Y74180D01*
X92869Y74074D01*
X92787Y73952D01*
X92708Y73826D01*
X92637Y73693D01*
X92634Y73689D01*
X92630Y73677D01*
X92626Y73658D01*
X92614Y73630D01*
X92590Y73560D01*
X92571Y73469D01*
X92551Y73363D01*
X92539Y73242D01*
X92543Y73120D01*
X92563Y72991D01*
X92567Y72987D01*
X92571Y72975D01*
X92575Y72955D01*
X92582Y72932D01*
X92594Y72904D01*
X92606Y72869D01*
X92637Y72790D01*
X92685Y72696D01*
X92743Y72598D01*
X92814Y72496D01*
X92900Y72402D01*
X92928Y72374D01*
X92955Y72355D01*
X92983Y72327D01*
X93014Y72304D01*
X93101Y72249D01*
X93203Y72186D01*
X93316Y72135D01*
X93446Y72092D01*
X93513Y72072D01*
X93583Y72064D01*
X93591D01*
X93599D01*
X93622D01*
X93650Y72061D01*
X93685Y72064D01*
X93729Y72068D01*
X93776D01*
X93827Y72080D01*
X93885Y72092D01*
X93952Y72104D01*
X94015Y72119D01*
X94086Y72143D01*
X94156Y72174D01*
X94231Y72210D01*
X94309Y72249D01*
X94388Y72296D01*
X94659Y71845D01*
X94655Y71841D01*
X94635Y71829D01*
X94604Y71813D01*
X94560Y71794D01*
X94513Y71770D01*
X94454Y71743D01*
X94388Y71715D01*
X94313Y71688D01*
X94148Y71633D01*
X93968Y71593D01*
X93870Y71582D01*
X93772Y71570D01*
X93678D01*
X93575Y71578D01*
X93568D01*
X93552D01*
X93524Y71589D01*
X93489Y71593D01*
X93438Y71605D01*
X93387Y71617D01*
X93324Y71640D01*
X93261Y71664D01*
X93187Y71692D01*
X93112Y71727D01*
X93034Y71766D01*
X92951Y71809D01*
X92869Y71860D01*
X92791Y71923D01*
X92708Y71990D01*
X92626Y72064D01*
X92582Y72108D01*
X92555Y72143D01*
X92520Y72178D01*
X92480Y72225D01*
X92441Y72280D01*
X92394Y72343D01*
X92300Y72476D01*
X92214Y72626D01*
X92139Y72786D01*
X92112Y72869D01*
X92088Y72955D01*
Y72963D01*
X92084Y72975D01*
X92080Y73002D01*
Y73034D01*
X92072Y73073D01*
X92068Y73124D01*
X92064Y73183D01*
Y73246D01*
X92068Y73312D01*
Y73383D01*
X92088Y73544D01*
X92127Y73717D01*
X92186Y73893D01*
X92190Y73897D01*
X92194Y73917D01*
X92210Y73940D01*
X92221Y73976D01*
X92245Y74015D01*
X92273Y74066D01*
X92300Y74125D01*
X92335Y74184D01*
X92374Y74246D01*
X92418Y74321D01*
X92520Y74462D01*
X92641Y74615D01*
X92775Y74764D01*
X92779Y74768D01*
X92795Y74784D01*
X92818Y74808D01*
X92849Y74831D01*
X92889Y74870D01*
X92932Y74906D01*
X92987Y74953D01*
X93046Y74996D01*
X93179Y75090D01*
X93332Y75188D01*
X93497Y75275D01*
X93673Y75341D01*
X93681D01*
X93697Y75349D01*
X93721Y75357D01*
X93756Y75361D01*
X93799Y75373D01*
X93850Y75384D01*
X93972Y75404D01*
X94117Y75416D01*
X94274D01*
D02*
G37*
G36*
X96939Y72822D02*
X96994Y72814D01*
X97064Y72806D01*
X97131Y72794D01*
X97206Y72775D01*
X97288Y72755D01*
X97370Y72720D01*
X97457Y72688D01*
X97543Y72641D01*
X97629Y72586D01*
X97712Y72520D01*
X97794Y72445D01*
X97826Y72414D01*
X97845Y72386D01*
X97873Y72359D01*
X97900Y72323D01*
X97959Y72233D01*
X98022Y72131D01*
X98077Y72013D01*
X98116Y71880D01*
X98132Y71809D01*
X98140Y71739D01*
Y71731D01*
Y71723D01*
Y71699D01*
Y71676D01*
Y71637D01*
X98132Y71597D01*
X98120Y71499D01*
X98093Y71386D01*
X98045Y71260D01*
X97983Y71126D01*
X97896Y70993D01*
X97535Y71299D01*
X97539Y71303D01*
Y71311D01*
X97559Y71338D01*
X97582Y71386D01*
X97610Y71444D01*
X97641Y71507D01*
X97665Y71578D01*
X97680Y71648D01*
X97688Y71711D01*
Y71727D01*
Y71758D01*
X97684Y71809D01*
X97672Y71876D01*
X97645Y71951D01*
X97614Y72029D01*
X97563Y72111D01*
X97500Y72190D01*
X97472Y72217D01*
X97437Y72245D01*
X97394Y72272D01*
X97335Y72308D01*
X97272Y72339D01*
X97206Y72367D01*
X97127Y72382D01*
X97115Y72386D01*
X97080Y72390D01*
X97025D01*
X96951Y72386D01*
X96864Y72378D01*
X96766Y72367D01*
X96656Y72335D01*
X96538Y72296D01*
X96535Y72292D01*
X96523Y72288D01*
X96507Y72280D01*
X96483Y72272D01*
X96456Y72253D01*
X96421Y72233D01*
X96381Y72210D01*
X96334Y72178D01*
X96279Y72147D01*
X96224Y72108D01*
X96166Y72064D01*
X96107Y72013D01*
X96036Y71958D01*
X95969Y71900D01*
X95895Y71833D01*
X95824Y71762D01*
X95832D01*
X95871Y71770D01*
X95930Y71774D01*
X96005Y71778D01*
X96091Y71786D01*
X96185Y71778D01*
X96283Y71766D01*
X96385Y71743D01*
X96389Y71739D01*
X96397D01*
X96432Y71727D01*
X96479Y71703D01*
X96546Y71676D01*
X96617Y71637D01*
X96691Y71586D01*
X96770Y71531D01*
X96845Y71464D01*
X96876Y71433D01*
X96895Y71405D01*
X96923Y71370D01*
X96951Y71334D01*
X96982Y71287D01*
X97009Y71236D01*
X97072Y71119D01*
X97100Y71052D01*
X97119Y70977D01*
X97139Y70903D01*
X97158Y70820D01*
X97166Y70734D01*
Y70648D01*
Y70640D01*
Y70624D01*
Y70601D01*
X97158Y70569D01*
X97151Y70522D01*
X97143Y70475D01*
X97127Y70420D01*
X97111Y70357D01*
X97092Y70290D01*
X97064Y70224D01*
X97029Y70149D01*
X96994Y70075D01*
X96947Y70004D01*
X96892Y69926D01*
X96833Y69851D01*
X96766Y69776D01*
X96762Y69772D01*
X96754Y69765D01*
X96742Y69753D01*
X96723Y69733D01*
X96695Y69714D01*
X96672Y69690D01*
X96597Y69639D01*
X96511Y69576D01*
X96413Y69517D01*
X96299Y69459D01*
X96177Y69415D01*
X96173Y69411D01*
X96166D01*
X96146Y69407D01*
X96122Y69400D01*
X96060Y69384D01*
X95973Y69368D01*
X95875Y69357D01*
X95769Y69353D01*
X95652Y69360D01*
X95538Y69380D01*
X95534Y69384D01*
X95526D01*
X95506Y69388D01*
X95487Y69400D01*
X95428Y69419D01*
X95357Y69451D01*
X95267Y69494D01*
X95177Y69553D01*
X95078Y69619D01*
X94984Y69706D01*
X94965Y69725D01*
X94949Y69749D01*
X94918Y69780D01*
X94886Y69820D01*
X94855Y69867D01*
X94819Y69926D01*
X94784Y69984D01*
X94745Y70055D01*
X94710Y70130D01*
X94678Y70208D01*
X94651Y70298D01*
X94631Y70389D01*
X94615Y70483D01*
X94608Y70585D01*
X94612Y70691D01*
Y70699D01*
X94615Y70718D01*
X94619Y70746D01*
X94631Y70789D01*
X94643Y70848D01*
X94662Y70907D01*
X94690Y70981D01*
X94721Y71060D01*
X94761Y71154D01*
X94812Y71252D01*
X94874Y71354D01*
X94945Y71464D01*
X95028Y71586D01*
X95126Y71707D01*
X95236Y71833D01*
X95357Y71962D01*
X95361Y71966D01*
X95365Y71970D01*
X95377Y71982D01*
X95392Y71998D01*
X95436Y72033D01*
X95490Y72088D01*
X95557Y72147D01*
X95640Y72214D01*
X95730Y72288D01*
X95832Y72367D01*
X95938Y72441D01*
X96056Y72520D01*
X96173Y72590D01*
X96295Y72657D01*
X96421Y72712D01*
X96546Y72759D01*
X96672Y72798D01*
X96794Y72818D01*
X96801D01*
X96817D01*
X96848D01*
X96892Y72822D01*
X96939D01*
D02*
G37*
G36*
X163628Y105661D02*
X163683D01*
X163739Y105655D01*
X163811Y105650D01*
X163883Y105639D01*
X164044Y105611D01*
X164222Y105572D01*
X164399Y105516D01*
X164571Y105439D01*
X164577Y105433D01*
X164593Y105428D01*
X164616Y105417D01*
X164643Y105394D01*
X164682Y105372D01*
X164726Y105344D01*
X164826Y105272D01*
X164937Y105178D01*
X165049Y105067D01*
X165159Y104939D01*
X165254Y104789D01*
X165259Y104784D01*
X165265Y104767D01*
X165276Y104745D01*
X165293Y104717D01*
X165309Y104673D01*
X165326Y104628D01*
X165348Y104573D01*
X165370Y104512D01*
X165393Y104445D01*
X165415Y104373D01*
X165448Y104218D01*
X165476Y104040D01*
X165487Y103857D01*
Y103802D01*
X165481Y103763D01*
X165476Y103713D01*
X165470Y103652D01*
X165465Y103591D01*
X165448Y103518D01*
X165415Y103369D01*
X165365Y103202D01*
X165331Y103119D01*
X165293Y103041D01*
X165243Y102963D01*
X165193Y102886D01*
X165187Y102880D01*
X165182Y102869D01*
X165165Y102847D01*
X165137Y102819D01*
X165110Y102791D01*
X165071Y102752D01*
X165026Y102714D01*
X164982Y102669D01*
X164926Y102625D01*
X164860Y102580D01*
X164793Y102531D01*
X164721Y102486D01*
X164638Y102447D01*
X164555Y102403D01*
X164466Y102370D01*
X164366Y102336D01*
X164249Y102836D01*
X164255D01*
X164266Y102841D01*
X164288Y102852D01*
X164316Y102864D01*
X164349Y102875D01*
X164394Y102891D01*
X164482Y102936D01*
X164582Y102991D01*
X164682Y103058D01*
X164777Y103141D01*
X164860Y103230D01*
X164871Y103241D01*
X164893Y103274D01*
X164921Y103330D01*
X164960Y103402D01*
X164993Y103496D01*
X165026Y103602D01*
X165049Y103729D01*
X165054Y103868D01*
Y103912D01*
X165049Y103940D01*
Y103979D01*
X165043Y104024D01*
X165026Y104129D01*
X165004Y104245D01*
X164965Y104368D01*
X164910Y104495D01*
X164838Y104612D01*
Y104617D01*
X164826Y104623D01*
X164799Y104662D01*
X164754Y104712D01*
X164688Y104773D01*
X164604Y104845D01*
X164510Y104911D01*
X164394Y104973D01*
X164266Y105028D01*
X164260D01*
X164249Y105034D01*
X164233Y105039D01*
X164205Y105045D01*
X164172Y105056D01*
X164133Y105067D01*
X164038Y105084D01*
X163927Y105106D01*
X163805Y105128D01*
X163672Y105139D01*
X163528Y105145D01*
X163522D01*
X163505D01*
X163478D01*
X163444D01*
X163406Y105139D01*
X163356D01*
X163300Y105133D01*
X163239Y105128D01*
X163106Y105111D01*
X162962Y105084D01*
X162817Y105050D01*
X162673Y105006D01*
X162668D01*
X162656Y105000D01*
X162640Y104989D01*
X162612Y104978D01*
X162545Y104945D01*
X162468Y104895D01*
X162379Y104834D01*
X162285Y104756D01*
X162201Y104667D01*
X162124Y104562D01*
Y104556D01*
X162118Y104545D01*
X162107Y104528D01*
X162096Y104506D01*
X162085Y104479D01*
X162068Y104445D01*
X162035Y104368D01*
X162002Y104268D01*
X161974Y104157D01*
X161951Y104035D01*
X161946Y103907D01*
Y103868D01*
X161951Y103835D01*
Y103796D01*
X161957Y103757D01*
X161979Y103657D01*
X162007Y103541D01*
X162051Y103424D01*
X162112Y103302D01*
X162146Y103241D01*
X162190Y103185D01*
X162196Y103180D01*
X162201Y103174D01*
X162218Y103158D01*
X162235Y103136D01*
X162262Y103113D01*
X162296Y103085D01*
X162329Y103052D01*
X162373Y103024D01*
X162423Y102991D01*
X162479Y102952D01*
X162534Y102919D01*
X162601Y102886D01*
X162673Y102858D01*
X162751Y102830D01*
X162834Y102803D01*
X162923Y102780D01*
X162795Y102270D01*
X162790D01*
X162767Y102275D01*
X162734Y102286D01*
X162690Y102303D01*
X162640Y102320D01*
X162579Y102342D01*
X162512Y102370D01*
X162440Y102403D01*
X162285Y102481D01*
X162129Y102580D01*
X162051Y102641D01*
X161974Y102703D01*
X161907Y102769D01*
X161841Y102847D01*
X161835Y102852D01*
X161824Y102864D01*
X161813Y102891D01*
X161791Y102919D01*
X161763Y102963D01*
X161735Y103008D01*
X161707Y103069D01*
X161680Y103130D01*
X161646Y103202D01*
X161619Y103280D01*
X161591Y103363D01*
X161563Y103452D01*
X161541Y103546D01*
X161530Y103646D01*
X161519Y103752D01*
X161513Y103863D01*
Y103924D01*
X161519Y103968D01*
Y104018D01*
X161524Y104079D01*
X161535Y104146D01*
X161546Y104223D01*
X161574Y104384D01*
X161619Y104551D01*
X161680Y104717D01*
X161718Y104795D01*
X161763Y104873D01*
X161768Y104878D01*
X161774Y104889D01*
X161791Y104911D01*
X161813Y104934D01*
X161835Y104967D01*
X161868Y105006D01*
X161907Y105050D01*
X161951Y105095D01*
X162002Y105139D01*
X162051Y105189D01*
X162179Y105289D01*
X162329Y105383D01*
X162496Y105466D01*
X162501D01*
X162518Y105478D01*
X162545Y105483D01*
X162579Y105500D01*
X162623Y105511D01*
X162679Y105527D01*
X162740Y105550D01*
X162806Y105566D01*
X162878Y105583D01*
X162962Y105605D01*
X163134Y105633D01*
X163328Y105655D01*
X163528Y105666D01*
X163533D01*
X163556D01*
X163589D01*
X163628Y105661D01*
D02*
G37*
G36*
X165420Y100238D02*
Y99855D01*
X162934D01*
Y99334D01*
X162501D01*
Y99855D01*
X161580D01*
Y100327D01*
X162501D01*
Y101998D01*
X162934D01*
X165420Y100238D01*
D02*
G37*
G36*
X99764Y163922D02*
X99827D01*
X99897Y163914D01*
X99976Y163899D01*
X100058Y163887D01*
X100141Y163867D01*
X100227Y163836D01*
X100317Y163808D01*
X100403Y163769D01*
X100498Y163722D01*
X100227Y163286D01*
X100223Y163290D01*
X100211Y163294D01*
X100188Y163302D01*
X100160Y163314D01*
X100129Y163330D01*
X100086Y163349D01*
X99991Y163381D01*
X99882Y163412D01*
X99764Y163436D01*
X99638Y163444D01*
X99517Y163440D01*
X99501D01*
X99462Y163432D01*
X99403Y163412D01*
X99324Y163389D01*
X99234Y163345D01*
X99136Y163294D01*
X99030Y163220D01*
X98928Y163126D01*
X98896Y163094D01*
X98881Y163071D01*
X98853Y163043D01*
X98826Y163008D01*
X98763Y162922D01*
X98696Y162823D01*
X98637Y162710D01*
X98586Y162580D01*
X98555Y162447D01*
X98551Y162443D01*
X98555Y162431D01*
X98547Y162384D01*
X98543Y162317D01*
X98547Y162227D01*
X98555Y162117D01*
X98575Y162003D01*
X98614Y161878D01*
X98665Y161748D01*
X98669Y161744D01*
X98673Y161732D01*
X98681Y161717D01*
X98696Y161693D01*
X98712Y161662D01*
X98732Y161626D01*
X98787Y161548D01*
X98849Y161454D01*
X98920Y161352D01*
X99006Y161250D01*
X99104Y161144D01*
X99108Y161140D01*
X99120Y161128D01*
X99140Y161108D01*
X99163Y161085D01*
X99195Y161061D01*
X99230Y161026D01*
X99273Y160991D01*
X99320Y160951D01*
X99426Y160869D01*
X99548Y160787D01*
X99673Y160708D01*
X99807Y160637D01*
X99811Y160634D01*
X99823Y160630D01*
X99842Y160626D01*
X99870Y160614D01*
X99940Y160590D01*
X100031Y160571D01*
X100137Y160551D01*
X100258Y160539D01*
X100380Y160543D01*
X100510Y160563D01*
X100513Y160567D01*
X100525Y160571D01*
X100545Y160575D01*
X100568Y160582D01*
X100596Y160594D01*
X100631Y160606D01*
X100710Y160637D01*
X100804Y160685D01*
X100902Y160743D01*
X101004Y160814D01*
X101098Y160900D01*
X101126Y160928D01*
X101145Y160955D01*
X101173Y160983D01*
X101196Y161014D01*
X101251Y161101D01*
X101314Y161203D01*
X101365Y161316D01*
X101408Y161446D01*
X101428Y161513D01*
X101436Y161583D01*
Y161591D01*
Y161599D01*
Y161623D01*
X101439Y161650D01*
X101436Y161685D01*
X101432Y161729D01*
Y161776D01*
X101420Y161827D01*
X101408Y161885D01*
X101396Y161952D01*
X101381Y162015D01*
X101357Y162086D01*
X101326Y162156D01*
X101290Y162231D01*
X101251Y162309D01*
X101204Y162388D01*
X101655Y162659D01*
X101659Y162655D01*
X101671Y162635D01*
X101687Y162604D01*
X101706Y162560D01*
X101730Y162513D01*
X101757Y162454D01*
X101785Y162388D01*
X101812Y162313D01*
X101867Y162148D01*
X101907Y161968D01*
X101918Y161870D01*
X101930Y161772D01*
Y161678D01*
X101922Y161575D01*
Y161568D01*
Y161552D01*
X101910Y161524D01*
X101907Y161489D01*
X101895Y161438D01*
X101883Y161387D01*
X101859Y161324D01*
X101836Y161261D01*
X101808Y161187D01*
X101773Y161112D01*
X101734Y161034D01*
X101691Y160951D01*
X101640Y160869D01*
X101577Y160791D01*
X101510Y160708D01*
X101436Y160626D01*
X101392Y160582D01*
X101357Y160555D01*
X101322Y160520D01*
X101275Y160480D01*
X101220Y160441D01*
X101157Y160394D01*
X101024Y160300D01*
X100874Y160214D01*
X100714Y160139D01*
X100631Y160112D01*
X100545Y160088D01*
X100537D01*
X100525Y160084D01*
X100498Y160080D01*
X100466D01*
X100427Y160072D01*
X100376Y160068D01*
X100317Y160064D01*
X100254D01*
X100188Y160068D01*
X100117D01*
X99956Y160088D01*
X99783Y160127D01*
X99607Y160186D01*
X99603Y160190D01*
X99583Y160194D01*
X99560Y160210D01*
X99524Y160222D01*
X99485Y160245D01*
X99434Y160273D01*
X99375Y160300D01*
X99316Y160335D01*
X99254Y160374D01*
X99179Y160418D01*
X99038Y160520D01*
X98885Y160641D01*
X98736Y160775D01*
X98732Y160779D01*
X98716Y160794D01*
X98692Y160818D01*
X98669Y160849D01*
X98630Y160889D01*
X98594Y160932D01*
X98547Y160987D01*
X98504Y161046D01*
X98410Y161179D01*
X98312Y161332D01*
X98225Y161497D01*
X98159Y161673D01*
Y161681D01*
X98151Y161697D01*
X98143Y161721D01*
X98139Y161756D01*
X98127Y161799D01*
X98115Y161850D01*
X98096Y161972D01*
X98084Y162117D01*
Y162274D01*
X98096Y162443D01*
X98135Y162615D01*
Y162623D01*
X98143Y162639D01*
X98151Y162662D01*
X98159Y162694D01*
X98178Y162737D01*
X98198Y162780D01*
X98221Y162835D01*
X98249Y162894D01*
X98280Y162957D01*
X98316Y163023D01*
X98402Y163157D01*
X98508Y163302D01*
X98630Y163440D01*
X98669Y163479D01*
X98700Y163502D01*
X98739Y163534D01*
X98787Y163573D01*
X98834Y163612D01*
X98896Y163652D01*
X99026Y163734D01*
X99179Y163816D01*
X99261Y163852D01*
X99344Y163879D01*
X99434Y163899D01*
X99524Y163918D01*
X99532D01*
X99544Y163922D01*
X99572Y163926D01*
X99705D01*
X99764Y163922D01*
D02*
G37*
G36*
X101899Y166041D02*
X101997Y166022D01*
X102009Y166018D01*
X102040Y166010D01*
X102091Y165990D01*
X102154Y165967D01*
X102224Y165936D01*
X102299Y165892D01*
X102377Y165837D01*
X102448Y165775D01*
X102456Y165767D01*
X102480Y165743D01*
X102507Y165708D01*
X102542Y165657D01*
X102582Y165594D01*
X102617Y165519D01*
X102648Y165441D01*
X102672Y165355D01*
X102676Y165343D01*
X102680Y165315D01*
X102684Y165264D01*
Y165202D01*
X102680Y165127D01*
X102672Y165041D01*
X102652Y164951D01*
X102621Y164848D01*
X102625Y164852D01*
X102637Y164856D01*
X102652Y164864D01*
X102672Y164876D01*
X102731Y164903D01*
X102809Y164935D01*
X102903Y164966D01*
X103005Y164990D01*
X103115Y164997D01*
X103229Y164994D01*
X103241Y164990D01*
X103280Y164982D01*
X103343Y164966D01*
X103418Y164939D01*
X103504Y164899D01*
X103602Y164848D01*
X103704Y164778D01*
X103802Y164688D01*
X103806Y164684D01*
X103818Y164672D01*
X103837Y164652D01*
X103857Y164625D01*
X103884Y164589D01*
X103912Y164546D01*
X103943Y164499D01*
X103979Y164448D01*
X104042Y164322D01*
X104069Y164248D01*
X104093Y164177D01*
X104112Y164095D01*
X104128Y164009D01*
X104140Y163918D01*
Y163824D01*
Y163816D01*
Y163801D01*
X104136Y163773D01*
X104132Y163738D01*
X104128Y163695D01*
X104116Y163644D01*
X104104Y163585D01*
X104081Y163522D01*
X104061Y163455D01*
X104034Y163381D01*
X104002Y163310D01*
X103963Y163232D01*
X103916Y163153D01*
X103861Y163075D01*
X103802Y163000D01*
X103731Y162922D01*
X103696Y162886D01*
X103669Y162867D01*
X103633Y162839D01*
X103594Y162808D01*
X103547Y162776D01*
X103496Y162741D01*
X103378Y162670D01*
X103241Y162611D01*
X103166Y162584D01*
X103092Y162564D01*
X103009Y162553D01*
X102927Y162541D01*
X102880D01*
X102852Y162545D01*
X102813D01*
X102766Y162553D01*
X102715Y162557D01*
X102656Y162568D01*
X102593Y162584D01*
X102531Y162600D01*
X102393Y162651D01*
X102248Y162725D01*
X102177Y162772D01*
X102107Y162827D01*
X102397Y163204D01*
X102401Y163200D01*
X102413Y163196D01*
X102432Y163184D01*
X102456Y163169D01*
X102483Y163149D01*
X102519Y163129D01*
X102597Y163090D01*
X102695Y163047D01*
X102797Y163016D01*
X102899Y162992D01*
X103001Y162984D01*
X103013Y162988D01*
X103045D01*
X103096Y163000D01*
X103155Y163020D01*
X103225Y163043D01*
X103304Y163082D01*
X103386Y163133D01*
X103461Y163200D01*
X103484Y163224D01*
X103496Y163243D01*
X103535Y163290D01*
X103578Y163357D01*
X103621Y163440D01*
X103661Y163534D01*
X103688Y163640D01*
X103696Y163757D01*
Y163773D01*
X103692Y163816D01*
X103680Y163875D01*
X103665Y163954D01*
X103637Y164044D01*
X103594Y164134D01*
X103535Y164232D01*
X103457Y164327D01*
X103453Y164330D01*
X103445Y164338D01*
X103433Y164350D01*
X103413Y164362D01*
X103366Y164401D01*
X103304Y164440D01*
X103225Y164487D01*
X103135Y164523D01*
X103033Y164546D01*
X102923Y164554D01*
X102907D01*
X102872Y164550D01*
X102817Y164542D01*
X102746Y164527D01*
X102664Y164499D01*
X102574Y164456D01*
X102483Y164397D01*
X102393Y164322D01*
X102358Y164287D01*
X102334Y164256D01*
X102303Y164217D01*
X102271Y164170D01*
X102232Y164114D01*
X102193Y164052D01*
X101938Y164385D01*
X101958Y164405D01*
X101977Y164417D01*
X102028Y164468D01*
X102064Y164519D01*
X102107Y164578D01*
X102154Y164648D01*
X102201Y164735D01*
X102236Y164825D01*
X102268Y164927D01*
X102271Y164931D01*
Y164939D01*
X102276Y164974D01*
Y165029D01*
X102271Y165096D01*
X102252Y165178D01*
X102220Y165264D01*
X102173Y165351D01*
X102142Y165398D01*
X102099Y165441D01*
X102095Y165445D01*
X102091Y165449D01*
X102067Y165472D01*
X102028Y165496D01*
X101977Y165531D01*
X101914Y165563D01*
X101844Y165594D01*
X101761Y165614D01*
X101671Y165618D01*
X101663D01*
X101628Y165614D01*
X101581Y165606D01*
X101522Y165594D01*
X101455Y165567D01*
X101381Y165531D01*
X101302Y165484D01*
X101228Y165418D01*
X101196Y165386D01*
X101169Y165343D01*
X101129Y165288D01*
X101094Y165221D01*
X101063Y165151D01*
X101039Y165064D01*
X101028Y164974D01*
Y164966D01*
X101031Y164931D01*
X101035Y164880D01*
X101047Y164813D01*
X101071Y164735D01*
X101106Y164644D01*
X101157Y164546D01*
X101228Y164444D01*
X100835Y164170D01*
X100831Y164173D01*
X100823Y164189D01*
X100812Y164209D01*
X100792Y164236D01*
X100772Y164271D01*
X100753Y164315D01*
X100702Y164413D01*
X100655Y164538D01*
X100615Y164672D01*
X100592Y164813D01*
Y164962D01*
Y164970D01*
X100596Y164982D01*
X100600Y165001D01*
X100604Y165029D01*
X100608Y165064D01*
X100619Y165107D01*
X100631Y165151D01*
X100647Y165206D01*
X100694Y165315D01*
X100753Y165437D01*
X100839Y165563D01*
X100886Y165626D01*
X100984Y165724D01*
X101031Y165763D01*
X101090Y165806D01*
X101165Y165857D01*
X101255Y165908D01*
X101349Y165955D01*
X101451Y165994D01*
X101455Y165998D01*
X101463D01*
X101498Y166010D01*
X101557Y166022D01*
X101624Y166034D01*
X101710Y166041D01*
X101801Y166045D01*
X101899Y166041D01*
D02*
G37*
G36*
X145788Y139902D02*
X145957Y139890D01*
X146129Y139851D01*
X146137D01*
X146153Y139843D01*
X146176Y139835D01*
X146208Y139828D01*
X146251Y139808D01*
X146294Y139788D01*
X146349Y139765D01*
X146408Y139737D01*
X146471Y139706D01*
X146537Y139671D01*
X146671Y139584D01*
X146816Y139478D01*
X146953Y139357D01*
X146993Y139317D01*
X147016Y139286D01*
X147047Y139247D01*
X147087Y139200D01*
X147126Y139153D01*
X147165Y139090D01*
X147248Y138960D01*
X147330Y138807D01*
X147365Y138725D01*
X147393Y138642D01*
X147412Y138552D01*
X147432Y138462D01*
Y138454D01*
X147436Y138442D01*
X147440Y138415D01*
Y138375D01*
Y138336D01*
Y138281D01*
X147436Y138223D01*
Y138160D01*
X147428Y138089D01*
X147412Y138011D01*
X147401Y137928D01*
X147381Y137846D01*
X147350Y137759D01*
X147322Y137669D01*
X147283Y137583D01*
X147236Y137489D01*
X146800Y137759D01*
X146804Y137763D01*
X146808Y137775D01*
X146816Y137799D01*
X146828Y137826D01*
X146843Y137857D01*
X146863Y137901D01*
X146894Y137995D01*
X146926Y138105D01*
X146949Y138223D01*
X146957Y138348D01*
X146953Y138470D01*
Y138485D01*
X146945Y138525D01*
X146926Y138584D01*
X146902Y138662D01*
X146859Y138752D01*
X146808Y138850D01*
X146733Y138956D01*
X146639Y139058D01*
X146608Y139090D01*
X146584Y139105D01*
X146557Y139133D01*
X146522Y139160D01*
X146435Y139223D01*
X146337Y139290D01*
X146223Y139349D01*
X146094Y139400D01*
X145960Y139431D01*
X145957Y139435D01*
X145945Y139431D01*
X145898Y139439D01*
X145831Y139443D01*
X145741Y139439D01*
X145631Y139431D01*
X145517Y139412D01*
X145391Y139372D01*
X145262Y139321D01*
X145258Y139317D01*
X145246Y139313D01*
X145230Y139306D01*
X145207Y139290D01*
X145176Y139274D01*
X145140Y139255D01*
X145062Y139200D01*
X144967Y139137D01*
X144866Y139066D01*
X144763Y138980D01*
X144658Y138882D01*
X144653Y138878D01*
X144642Y138866D01*
X144622Y138846D01*
X144599Y138823D01*
X144575Y138792D01*
X144540Y138756D01*
X144504Y138713D01*
X144465Y138666D01*
X144383Y138560D01*
X144300Y138438D01*
X144222Y138313D01*
X144151Y138179D01*
X144147Y138175D01*
X144143Y138164D01*
X144140Y138144D01*
X144128Y138117D01*
X144104Y138046D01*
X144085Y137956D01*
X144065Y137850D01*
X144053Y137728D01*
X144057Y137606D01*
X144077Y137477D01*
X144081Y137473D01*
X144085Y137461D01*
X144088Y137442D01*
X144096Y137418D01*
X144108Y137390D01*
X144120Y137355D01*
X144151Y137277D01*
X144198Y137182D01*
X144257Y137084D01*
X144328Y136982D01*
X144414Y136888D01*
X144442Y136861D01*
X144469Y136841D01*
X144497Y136814D01*
X144528Y136790D01*
X144614Y136735D01*
X144716Y136672D01*
X144830Y136621D01*
X144960Y136578D01*
X145026Y136558D01*
X145097Y136551D01*
X145105D01*
X145113D01*
X145136D01*
X145164Y136547D01*
X145199Y136551D01*
X145242Y136555D01*
X145289D01*
X145340Y136566D01*
X145399Y136578D01*
X145466Y136590D01*
X145529Y136606D01*
X145599Y136629D01*
X145670Y136661D01*
X145745Y136696D01*
X145823Y136735D01*
X145902Y136782D01*
X146172Y136331D01*
X146168Y136327D01*
X146149Y136315D01*
X146117Y136300D01*
X146074Y136280D01*
X146027Y136256D01*
X145968Y136229D01*
X145902Y136201D01*
X145827Y136174D01*
X145662Y136119D01*
X145482Y136080D01*
X145384Y136068D01*
X145285Y136056D01*
X145191D01*
X145089Y136064D01*
X145081D01*
X145066D01*
X145038Y136076D01*
X145003Y136080D01*
X144952Y136091D01*
X144901Y136103D01*
X144838Y136127D01*
X144775Y136150D01*
X144701Y136178D01*
X144626Y136213D01*
X144548Y136252D01*
X144465Y136296D01*
X144383Y136347D01*
X144304Y136409D01*
X144222Y136476D01*
X144140Y136551D01*
X144096Y136594D01*
X144069Y136629D01*
X144034Y136664D01*
X143994Y136712D01*
X143955Y136767D01*
X143908Y136829D01*
X143814Y136963D01*
X143727Y137112D01*
X143653Y137273D01*
X143625Y137355D01*
X143602Y137442D01*
Y137449D01*
X143598Y137461D01*
X143594Y137489D01*
Y137520D01*
X143586Y137559D01*
X143582Y137610D01*
X143578Y137669D01*
Y137732D01*
X143582Y137799D01*
Y137869D01*
X143602Y138030D01*
X143641Y138203D01*
X143700Y138379D01*
X143704Y138383D01*
X143708Y138403D01*
X143723Y138426D01*
X143735Y138462D01*
X143759Y138501D01*
X143786Y138552D01*
X143814Y138611D01*
X143849Y138670D01*
X143888Y138733D01*
X143931Y138807D01*
X144034Y138949D01*
X144155Y139102D01*
X144289Y139251D01*
X144292Y139255D01*
X144308Y139270D01*
X144332Y139294D01*
X144363Y139317D01*
X144402Y139357D01*
X144446Y139392D01*
X144501Y139439D01*
X144559Y139482D01*
X144693Y139576D01*
X144846Y139674D01*
X145011Y139761D01*
X145187Y139828D01*
X145195D01*
X145211Y139835D01*
X145234Y139843D01*
X145270Y139847D01*
X145313Y139859D01*
X145364Y139871D01*
X145485Y139890D01*
X145631Y139902D01*
X145788D01*
D02*
G37*
G36*
X148421Y137410D02*
X148429D01*
X148441Y137406D01*
X148464D01*
X148496Y137398D01*
X148535Y137390D01*
X148578Y137379D01*
X148629Y137367D01*
X148688Y137347D01*
X148751Y137324D01*
X148817Y137296D01*
X148884Y137261D01*
X148955Y137222D01*
X149025Y137175D01*
X149100Y137124D01*
X149171Y137061D01*
X149245Y136994D01*
X149284Y136955D01*
X149308Y136924D01*
X149335Y136888D01*
X149371Y136845D01*
X149406Y136794D01*
X149441Y136743D01*
X149516Y136613D01*
X149579Y136472D01*
X149606Y136398D01*
X149630Y136319D01*
X149642Y136237D01*
X149645Y136154D01*
Y136146D01*
X149649Y136135D01*
X149642Y136111D01*
Y136080D01*
Y136040D01*
X149634Y135993D01*
X149626Y135946D01*
X149614Y135887D01*
X149579Y135774D01*
X149524Y135640D01*
X149492Y135577D01*
X149445Y135515D01*
X149398Y135452D01*
X149343Y135389D01*
X149335Y135381D01*
X149316Y135362D01*
X149281Y135334D01*
X149233Y135295D01*
X149178Y135256D01*
X149108Y135216D01*
X149033Y135173D01*
X148951Y135138D01*
X148939Y135134D01*
X148912Y135122D01*
X148864Y135106D01*
X148798Y135087D01*
X148719Y135071D01*
X148621Y135052D01*
X148515Y135040D01*
X148394Y135028D01*
X148378D01*
X148335Y135024D01*
X148295D01*
X148256D01*
X148209D01*
X148146D01*
X148083D01*
X148009Y135028D01*
X147931D01*
X147840Y135032D01*
X147746Y135040D01*
X147640Y135044D01*
X147526Y135055D01*
X147408Y135063D01*
X147401D01*
X147385D01*
X147357Y135067D01*
X147322Y135071D01*
X147275D01*
X147224Y135075D01*
X147110Y135087D01*
X146985Y135095D01*
X146863Y135099D01*
X146757Y135102D01*
X146714Y135106D01*
X146675D01*
X146667D01*
X146643D01*
X146612D01*
X146569Y135102D01*
X146522Y135095D01*
X146471Y135091D01*
X146357Y135071D01*
X147695Y133733D01*
X147373Y133411D01*
X145572Y135212D01*
X145576Y135216D01*
X145591Y135232D01*
X145615Y135256D01*
X145650Y135283D01*
X145690Y135314D01*
X145737Y135346D01*
X145784Y135377D01*
X145843Y135405D01*
X145847Y135409D01*
X145854D01*
X145886Y135424D01*
X145937Y135444D01*
X146008Y135468D01*
X146094Y135491D01*
X146196Y135515D01*
X146302Y135534D01*
X146423Y135546D01*
X146427Y135550D01*
X146439Y135546D01*
X146482Y135550D01*
X146553D01*
X146655D01*
X146773D01*
X146918Y135546D01*
X147087Y135534D01*
X147267Y135519D01*
X147275D01*
X147302Y135515D01*
X147346Y135511D01*
X147397Y135507D01*
X147463Y135503D01*
X147542Y135495D01*
X147624Y135491D01*
X147719Y135483D01*
X147911Y135479D01*
X148103Y135475D01*
X148197D01*
X148288Y135479D01*
X148370Y135483D01*
X148445Y135495D01*
X148449Y135499D01*
X148460Y135495D01*
X148480Y135499D01*
X148503Y135507D01*
X148574Y135522D01*
X148656Y135542D01*
X148747Y135577D01*
X148841Y135617D01*
X148931Y135676D01*
X149010Y135738D01*
X149014Y135742D01*
X149018Y135746D01*
X149037Y135774D01*
X149073Y135817D01*
X149104Y135872D01*
X149143Y135942D01*
X149171Y136025D01*
X149190Y136115D01*
X149198Y136217D01*
Y136233D01*
X149194Y136268D01*
X149186Y136315D01*
X149171Y136386D01*
X149139Y136464D01*
X149100Y136551D01*
X149041Y136641D01*
X148963Y136727D01*
X148939Y136751D01*
X148919Y136763D01*
X148868Y136806D01*
X148802Y136849D01*
X148727Y136892D01*
X148633Y136931D01*
X148535Y136959D01*
X148429Y136971D01*
X148413D01*
X148378Y136967D01*
X148323Y136959D01*
X148252Y136935D01*
X148170Y136908D01*
X148076Y136861D01*
X147982Y136798D01*
X147883Y136715D01*
X147577Y137092D01*
X147581Y137096D01*
X147597Y137104D01*
X147617Y137124D01*
X147648Y137147D01*
X147687Y137171D01*
X147730Y137198D01*
X147785Y137230D01*
X147840Y137261D01*
X147966Y137324D01*
X148107Y137371D01*
X148182Y137390D01*
X148264Y137402D01*
X148343Y137410D01*
X148421D01*
D02*
G37*
%LPC*%
G36*
X37059Y236586D02*
X8710D01*
Y236571D01*
X8586D01*
Y236556D01*
X8509D01*
Y236540D01*
X8386D01*
Y236525D01*
X8355D01*
Y236509D01*
X8278D01*
Y236494D01*
X8231D01*
Y236478D01*
X8185D01*
Y236463D01*
X8123D01*
Y236448D01*
X8108D01*
Y236432D01*
X8046D01*
Y236417D01*
X8015D01*
Y236401D01*
X7969D01*
Y236386D01*
X7938D01*
Y236370D01*
X7907D01*
Y236355D01*
X7876D01*
Y236339D01*
X7846D01*
Y236324D01*
X7815D01*
Y236309D01*
X7784D01*
Y236293D01*
X7768D01*
Y236278D01*
X7738D01*
Y236262D01*
X7707D01*
Y236247D01*
X7676D01*
Y236231D01*
X7660D01*
Y236216D01*
X7630D01*
Y236201D01*
X7614D01*
Y236185D01*
X7599D01*
Y236170D01*
X7568D01*
Y236154D01*
X7553D01*
Y236139D01*
X7522D01*
Y236123D01*
X7506D01*
Y236108D01*
X7491D01*
Y236093D01*
X7475D01*
Y236077D01*
X7460D01*
Y236062D01*
X7429D01*
Y236046D01*
X7414D01*
Y236031D01*
X7398D01*
Y236015D01*
X7367D01*
Y236000D01*
X7352D01*
Y235985D01*
X7336D01*
Y235969D01*
X7321D01*
Y235954D01*
X7305D01*
Y235938D01*
X7290D01*
Y235923D01*
X7275D01*
Y235907D01*
X7259D01*
Y235892D01*
X7244D01*
Y235876D01*
X7228D01*
Y235861D01*
X7213D01*
Y235830D01*
X7198D01*
Y235815D01*
X7182D01*
Y235799D01*
X7167D01*
Y235784D01*
X7151D01*
Y235769D01*
X7136D01*
Y235738D01*
X7120D01*
Y235722D01*
X7105D01*
Y235707D01*
X7090D01*
Y235691D01*
X7074D01*
Y235676D01*
X7059D01*
Y235645D01*
X7043D01*
Y235630D01*
X7028D01*
Y235599D01*
X7012D01*
Y235583D01*
X6997D01*
Y235553D01*
X6982D01*
Y235522D01*
X6966D01*
Y235506D01*
X6951D01*
Y235475D01*
X6935D01*
Y235460D01*
X6920D01*
Y235429D01*
X6904D01*
Y235398D01*
X6889D01*
Y235367D01*
X6873D01*
Y235321D01*
X6858D01*
Y235306D01*
X6843D01*
Y235259D01*
X6827D01*
Y235228D01*
X6812D01*
Y235197D01*
X6796D01*
Y235151D01*
X6781D01*
Y235120D01*
X6765D01*
Y235059D01*
X6750D01*
Y235012D01*
X6735D01*
Y234966D01*
X6719D01*
Y234889D01*
X6704D01*
Y234827D01*
X6688D01*
Y234704D01*
X6673D01*
Y234580D01*
X6657D01*
Y225028D01*
X6673D01*
Y224904D01*
X6688D01*
Y224781D01*
X6704D01*
Y224719D01*
X6719D01*
Y224657D01*
X6735D01*
Y224580D01*
X6750D01*
Y224549D01*
X6765D01*
Y224488D01*
X6781D01*
Y224457D01*
X6796D01*
Y224411D01*
X6812D01*
Y224380D01*
X6827D01*
Y224333D01*
X6843D01*
Y224303D01*
X6858D01*
Y224272D01*
X6873D01*
Y224225D01*
X6889D01*
Y224210D01*
X6904D01*
Y224179D01*
X6920D01*
Y224148D01*
X6935D01*
Y224133D01*
X6951D01*
Y224086D01*
X6966D01*
Y224071D01*
X6982D01*
Y224040D01*
X6997D01*
Y224025D01*
X7012D01*
Y224009D01*
X7028D01*
Y223978D01*
X7043D01*
Y223963D01*
X7059D01*
Y223932D01*
X7074D01*
Y223917D01*
X7090D01*
Y223901D01*
X7105D01*
Y223870D01*
X7120D01*
Y223855D01*
X7136D01*
Y223839D01*
X7151D01*
Y223824D01*
X7167D01*
Y223793D01*
X7182D01*
Y223778D01*
X7198D01*
Y223762D01*
X7213D01*
Y223747D01*
X7228D01*
Y223731D01*
X7244D01*
Y223716D01*
X7259D01*
Y223701D01*
X7275D01*
Y223685D01*
X7290D01*
Y223670D01*
X7305D01*
Y223654D01*
X7321D01*
Y223639D01*
X7336D01*
Y223623D01*
X7352D01*
Y223608D01*
X7367D01*
Y223593D01*
X7383D01*
Y223577D01*
X7398D01*
Y223562D01*
X7429D01*
Y223546D01*
X7444D01*
Y223531D01*
X7460D01*
Y223515D01*
X7475D01*
Y223500D01*
X7506D01*
Y223485D01*
X7522D01*
Y223469D01*
X7537D01*
Y223454D01*
X7553D01*
Y223438D01*
X7583D01*
Y223423D01*
X7614D01*
Y223407D01*
X7630D01*
Y223392D01*
X7660D01*
Y223376D01*
X7676D01*
Y223361D01*
X7707D01*
Y223346D01*
X7722D01*
Y223330D01*
X7753D01*
Y223315D01*
X7784D01*
Y223299D01*
X7799D01*
Y223284D01*
X7846D01*
Y223269D01*
X7861D01*
Y223253D01*
X7907D01*
Y223238D01*
X7923D01*
Y223222D01*
X7969D01*
Y223207D01*
X8000D01*
Y223191D01*
X8031D01*
Y223176D01*
X8093D01*
Y223161D01*
X8108D01*
Y223145D01*
X8170D01*
Y223130D01*
X8216D01*
Y223114D01*
X8247D01*
Y223099D01*
X8324D01*
Y223083D01*
X8370D01*
Y223068D01*
X8478D01*
Y223053D01*
X8556D01*
Y223037D01*
X8648D01*
Y223022D01*
X37105D01*
Y223037D01*
X37198D01*
Y223053D01*
X37275D01*
Y223068D01*
X37383D01*
Y223083D01*
X37429D01*
Y223099D01*
X37506D01*
Y223114D01*
X37537D01*
Y223130D01*
X37583D01*
Y223145D01*
X37645D01*
Y223161D01*
X37661D01*
Y223176D01*
X37722D01*
Y223191D01*
X37753D01*
Y223207D01*
X37799D01*
Y223222D01*
X37830D01*
Y223238D01*
X37846D01*
Y223253D01*
X37892D01*
Y223269D01*
X37907D01*
Y223284D01*
X37954D01*
Y223299D01*
X37969D01*
Y223315D01*
X38000D01*
Y223330D01*
X38031D01*
Y223346D01*
X38046D01*
Y223361D01*
X38093D01*
Y223376D01*
X38108D01*
Y223392D01*
X38124D01*
Y223407D01*
X38154D01*
Y223423D01*
X38170D01*
Y223438D01*
X38201D01*
Y223454D01*
X38216D01*
Y223469D01*
X38232D01*
Y223485D01*
X38247D01*
Y223500D01*
X38278D01*
Y223515D01*
X38293D01*
Y223531D01*
X38309D01*
Y223546D01*
X38339D01*
Y223562D01*
X38355D01*
Y223577D01*
X38370D01*
Y223593D01*
X38386D01*
Y223608D01*
X38401D01*
Y223623D01*
X38432D01*
Y223654D01*
X38447D01*
Y223670D01*
X38463D01*
Y223685D01*
X38478D01*
Y223701D01*
X38509D01*
Y223731D01*
X38540D01*
Y223762D01*
X38555D01*
Y223778D01*
X38571D01*
Y223793D01*
X38586D01*
Y223809D01*
X38602D01*
Y223824D01*
X38617D01*
Y223855D01*
X38633D01*
Y223870D01*
X38648D01*
Y223886D01*
X38664D01*
Y223917D01*
X38679D01*
Y223932D01*
X38694D01*
Y223948D01*
X38710D01*
Y223978D01*
X38725D01*
Y223994D01*
X38741D01*
Y224025D01*
X38756D01*
Y224040D01*
X38772D01*
Y224071D01*
X38787D01*
Y224086D01*
X38802D01*
Y224133D01*
X38818D01*
Y224148D01*
X38833D01*
Y224164D01*
X38849D01*
Y224210D01*
X38864D01*
Y224225D01*
X38880D01*
Y224272D01*
X38895D01*
Y224287D01*
X38910D01*
Y224333D01*
X38926D01*
Y224364D01*
X38941D01*
Y224395D01*
X38957D01*
Y224457D01*
X38972D01*
Y224472D01*
X38988D01*
Y224534D01*
X39003D01*
Y224580D01*
X39018D01*
Y224642D01*
X39034D01*
Y224704D01*
X39049D01*
Y224750D01*
X39065D01*
Y224873D01*
X39080D01*
Y224981D01*
X39096D01*
Y234627D01*
X39080D01*
Y234735D01*
X39065D01*
Y234843D01*
X39049D01*
Y234904D01*
X39034D01*
Y234966D01*
X39018D01*
Y235028D01*
X39003D01*
Y235059D01*
X38988D01*
Y235120D01*
X38972D01*
Y235151D01*
X38957D01*
Y235197D01*
X38941D01*
Y235244D01*
X38926D01*
Y235275D01*
X38910D01*
Y235306D01*
X38895D01*
Y235336D01*
X38880D01*
Y235383D01*
X38864D01*
Y235398D01*
X38849D01*
Y235429D01*
X38833D01*
Y235460D01*
X38818D01*
Y235475D01*
X38802D01*
Y235522D01*
X38787D01*
Y235537D01*
X38772D01*
Y235568D01*
X38756D01*
Y235583D01*
X38741D01*
Y235599D01*
X38725D01*
Y235630D01*
X38710D01*
Y235645D01*
X38694D01*
Y235676D01*
X38679D01*
Y235691D01*
X38664D01*
Y235707D01*
X38648D01*
Y235738D01*
X38633D01*
Y235753D01*
X38617D01*
Y235769D01*
X38602D01*
Y235784D01*
X38586D01*
Y235815D01*
X38571D01*
Y235830D01*
X38555D01*
Y235846D01*
X38540D01*
Y235861D01*
X38525D01*
Y235876D01*
X38509D01*
Y235892D01*
X38494D01*
Y235907D01*
X38478D01*
Y235923D01*
X38463D01*
Y235938D01*
X38447D01*
Y235954D01*
X38432D01*
Y235969D01*
X38417D01*
Y235985D01*
X38401D01*
Y236000D01*
X38386D01*
Y236015D01*
X38370D01*
Y236031D01*
X38339D01*
Y236046D01*
X38324D01*
Y236062D01*
X38309D01*
Y236077D01*
X38293D01*
Y236093D01*
X38278D01*
Y236108D01*
X38247D01*
Y236123D01*
X38232D01*
Y236139D01*
X38201D01*
Y236154D01*
X38185D01*
Y236170D01*
X38154D01*
Y236185D01*
X38139D01*
Y236201D01*
X38124D01*
Y236216D01*
X38093D01*
Y236231D01*
X38077D01*
Y236247D01*
X38046D01*
Y236262D01*
X38031D01*
Y236278D01*
X38000D01*
Y236293D01*
X37969D01*
Y236309D01*
X37938D01*
Y236324D01*
X37907D01*
Y236339D01*
X37892D01*
Y236355D01*
X37830D01*
Y236370D01*
X37815D01*
Y236386D01*
X37784D01*
Y236401D01*
X37738D01*
Y236417D01*
X37707D01*
Y236432D01*
X37661D01*
Y236448D01*
X37630D01*
Y236463D01*
X37568D01*
Y236478D01*
X37522D01*
Y236494D01*
X37491D01*
Y236509D01*
X37398D01*
Y236525D01*
X37367D01*
Y236540D01*
X37259D01*
Y236556D01*
X37198D01*
Y236571D01*
X37059D01*
Y236586D01*
D02*
G37*
%LPD*%
G36*
X37043Y235969D02*
X37120D01*
Y235954D01*
X37228D01*
Y235938D01*
X37290D01*
Y235923D01*
X37336D01*
Y235907D01*
X37398D01*
Y235892D01*
X37429D01*
Y235876D01*
X37475D01*
Y235861D01*
X37506D01*
Y235846D01*
X37537D01*
Y235830D01*
X37583D01*
Y235815D01*
X37614D01*
Y235799D01*
X37645D01*
Y235784D01*
X37661D01*
Y235769D01*
X37691D01*
Y235753D01*
X37722D01*
Y235738D01*
X37753D01*
Y235722D01*
X37769D01*
Y235707D01*
X37799D01*
Y235691D01*
X37815D01*
Y235676D01*
X37846D01*
Y235661D01*
X37861D01*
Y235645D01*
X37876D01*
Y235630D01*
X37892D01*
Y235614D01*
X37923D01*
Y235599D01*
X37938D01*
Y235583D01*
X37954D01*
Y235568D01*
X37969D01*
Y235553D01*
X37985D01*
Y235537D01*
X38000D01*
Y235522D01*
X38015D01*
Y235506D01*
X38031D01*
Y235491D01*
X38046D01*
Y235475D01*
X38062D01*
Y235460D01*
X38077D01*
Y235444D01*
X38093D01*
Y235429D01*
X38108D01*
Y235414D01*
X38124D01*
Y235398D01*
X38139D01*
Y235367D01*
X38154D01*
Y235352D01*
X38170D01*
Y235321D01*
X38185D01*
Y235306D01*
X38201D01*
Y235290D01*
X38216D01*
Y235259D01*
X38232D01*
Y235244D01*
X38247D01*
Y235213D01*
X38262D01*
Y235197D01*
X38278D01*
Y235151D01*
X38293D01*
Y235136D01*
X38309D01*
Y235105D01*
X38324D01*
Y235059D01*
X38339D01*
Y235043D01*
X38355D01*
Y234981D01*
X38370D01*
Y234966D01*
X38386D01*
Y234904D01*
X38401D01*
Y234858D01*
X38417D01*
Y234827D01*
X38432D01*
Y234735D01*
X38447D01*
Y234657D01*
X38463D01*
Y224920D01*
X38447D01*
Y224889D01*
X38432D01*
Y224781D01*
X38417D01*
Y224735D01*
X38401D01*
Y224688D01*
X38386D01*
Y224642D01*
X38370D01*
Y224611D01*
X38355D01*
Y224565D01*
X38339D01*
Y224534D01*
X38324D01*
Y224488D01*
X38309D01*
Y224472D01*
X38293D01*
Y224441D01*
X38278D01*
Y224411D01*
X38262D01*
Y224395D01*
X38247D01*
Y224364D01*
X38232D01*
Y224333D01*
X38216D01*
Y224318D01*
X38201D01*
Y224287D01*
X38185D01*
Y224272D01*
X38170D01*
Y224256D01*
X38154D01*
Y224241D01*
X38139D01*
Y224210D01*
X38124D01*
Y224194D01*
X38108D01*
Y224179D01*
X38093D01*
Y224148D01*
X38077D01*
Y224133D01*
X38062D01*
Y224117D01*
X38046D01*
Y224102D01*
X38031D01*
Y224086D01*
X38015D01*
Y224071D01*
X38000D01*
Y224056D01*
X37985D01*
Y224040D01*
X37969D01*
Y224025D01*
X37938D01*
Y224009D01*
X37923D01*
Y223994D01*
X37907D01*
Y223978D01*
X37892D01*
Y223963D01*
X37861D01*
Y223948D01*
X37846D01*
Y223932D01*
X37830D01*
Y223917D01*
X37799D01*
Y223901D01*
X37784D01*
Y223886D01*
X37753D01*
Y223870D01*
X37738D01*
Y223855D01*
X37707D01*
Y223839D01*
X37676D01*
Y223824D01*
X37661D01*
Y223809D01*
X37614D01*
Y223793D01*
X37599D01*
Y223778D01*
X37552D01*
Y223762D01*
X37522D01*
Y223747D01*
X37491D01*
Y223731D01*
X37444D01*
Y223716D01*
X37414D01*
Y223701D01*
X37352D01*
Y223685D01*
X37306D01*
Y223670D01*
X37244D01*
Y223654D01*
X37167D01*
Y223639D01*
X37074D01*
Y223623D01*
X8679D01*
Y223639D01*
X8586D01*
Y223654D01*
X8509D01*
Y223670D01*
X8448D01*
Y223685D01*
X8401D01*
Y223701D01*
X8339D01*
Y223716D01*
X8309D01*
Y223731D01*
X8262D01*
Y223747D01*
X8231D01*
Y223762D01*
X8201D01*
Y223778D01*
X8170D01*
Y223793D01*
X8139D01*
Y223809D01*
X8093D01*
Y223824D01*
X8077D01*
Y223839D01*
X8046D01*
Y223855D01*
X8031D01*
Y223870D01*
X8000D01*
Y223886D01*
X7969D01*
Y223901D01*
X7954D01*
Y223917D01*
X7923D01*
Y223932D01*
X7907D01*
Y223948D01*
X7892D01*
Y223963D01*
X7876D01*
Y223978D01*
X7861D01*
Y223994D01*
X7830D01*
Y224009D01*
X7815D01*
Y224025D01*
X7799D01*
Y224040D01*
X7784D01*
Y224056D01*
X7768D01*
Y224071D01*
X7738D01*
Y224102D01*
X7722D01*
Y224117D01*
X7707D01*
Y224133D01*
X7691D01*
Y224148D01*
X7676D01*
Y224164D01*
X7660D01*
Y224179D01*
X7645D01*
Y224194D01*
X7630D01*
Y224210D01*
X7614D01*
Y224241D01*
X7599D01*
Y224256D01*
X7583D01*
Y224287D01*
X7568D01*
Y224303D01*
X7553D01*
Y224318D01*
X7537D01*
Y224349D01*
X7522D01*
Y224364D01*
X7506D01*
Y224395D01*
X7491D01*
Y224411D01*
X7475D01*
Y224457D01*
X7460D01*
Y224472D01*
X7444D01*
Y224503D01*
X7429D01*
Y224549D01*
X7414D01*
Y224565D01*
X7398D01*
Y224626D01*
X7383D01*
Y224642D01*
X7367D01*
Y224704D01*
X7352D01*
Y224765D01*
X7336D01*
Y224796D01*
X7321D01*
Y224889D01*
X7305D01*
Y224951D01*
X7290D01*
Y234657D01*
X7305D01*
Y234704D01*
X7321D01*
Y234796D01*
X7336D01*
Y234843D01*
X7352D01*
Y234904D01*
X7367D01*
Y234951D01*
X7383D01*
Y234981D01*
X7398D01*
Y235028D01*
X7414D01*
Y235059D01*
X7429D01*
Y235105D01*
X7444D01*
Y235120D01*
X7460D01*
Y235151D01*
X7475D01*
Y235182D01*
X7491D01*
Y235197D01*
X7506D01*
Y235244D01*
X7522D01*
Y235259D01*
X7537D01*
Y235290D01*
X7553D01*
Y235306D01*
X7568D01*
Y235321D01*
X7583D01*
Y235352D01*
X7599D01*
Y235367D01*
X7614D01*
Y235383D01*
X7630D01*
Y235398D01*
X7645D01*
Y235429D01*
X7660D01*
Y235444D01*
X7676D01*
Y235460D01*
X7691D01*
Y235475D01*
X7707D01*
Y235491D01*
X7722D01*
Y235506D01*
X7738D01*
Y235522D01*
X7753D01*
Y235537D01*
X7768D01*
Y235553D01*
X7784D01*
Y235568D01*
X7799D01*
Y235583D01*
X7830D01*
Y235599D01*
X7846D01*
Y235614D01*
X7861D01*
Y235630D01*
X7876D01*
Y235645D01*
X7892D01*
Y235661D01*
X7923D01*
Y235676D01*
X7938D01*
Y235691D01*
X7969D01*
Y235707D01*
X7985D01*
Y235722D01*
X8015D01*
Y235738D01*
X8031D01*
Y235753D01*
X8062D01*
Y235769D01*
X8093D01*
Y235784D01*
X8108D01*
Y235799D01*
X8154D01*
Y235815D01*
X8170D01*
Y235830D01*
X8216D01*
Y235846D01*
X8247D01*
Y235861D01*
X8278D01*
Y235876D01*
X8324D01*
Y235892D01*
X8355D01*
Y235907D01*
X8417D01*
Y235923D01*
X8463D01*
Y235938D01*
X8525D01*
Y235954D01*
X8633D01*
Y235969D01*
X8710D01*
Y235985D01*
X37043D01*
Y235969D01*
D02*
G37*
%LPC*%
G36*
X34327Y233145D02*
X33417D01*
Y233130D01*
X33401D01*
Y233114D01*
X33386D01*
Y233022D01*
X33370D01*
Y232975D01*
X33355D01*
Y232867D01*
X33340D01*
Y232805D01*
X33324D01*
Y232713D01*
X33309D01*
Y232651D01*
X33293D01*
Y232590D01*
X33278D01*
Y232482D01*
X33262D01*
Y232435D01*
X33247D01*
Y232327D01*
X33231D01*
Y232265D01*
X33216D01*
Y232188D01*
X33201D01*
Y232096D01*
X33185D01*
Y232049D01*
X33170D01*
Y231941D01*
X33154D01*
Y231880D01*
X33139D01*
Y231787D01*
X33123D01*
Y231725D01*
X33108D01*
Y231664D01*
X33093D01*
Y231556D01*
X33077D01*
Y231509D01*
X33062D01*
Y231401D01*
X33046D01*
Y231340D01*
X33031D01*
Y231262D01*
X33015D01*
Y231170D01*
X33000D01*
Y231123D01*
X32985D01*
Y231015D01*
X32969D01*
Y230954D01*
X32954D01*
Y230861D01*
X32938D01*
Y230799D01*
X32923D01*
Y230738D01*
X32907D01*
Y230630D01*
X32892D01*
Y230583D01*
X32877D01*
Y230475D01*
X32861D01*
Y230414D01*
X32846D01*
Y230336D01*
X32830D01*
Y230244D01*
X32815D01*
Y230198D01*
X32799D01*
Y230089D01*
X32784D01*
Y230043D01*
X32768D01*
Y229935D01*
X32753D01*
Y229873D01*
X32738D01*
Y229812D01*
X32722D01*
Y229704D01*
X32707D01*
Y229657D01*
X32691D01*
Y229549D01*
X32676D01*
Y229488D01*
X32660D01*
Y229411D01*
X32645D01*
Y229318D01*
X32630D01*
Y229272D01*
X32614D01*
Y229164D01*
X32599D01*
Y229117D01*
X32583D01*
Y229009D01*
X32568D01*
Y228947D01*
X32552D01*
Y228886D01*
X32537D01*
Y228778D01*
X32522D01*
Y228731D01*
X32506D01*
Y228624D01*
X32491D01*
Y228562D01*
X32475D01*
Y228485D01*
X32460D01*
Y228392D01*
X32444D01*
Y228346D01*
X32429D01*
Y228238D01*
X32414D01*
Y228191D01*
X32398D01*
Y228083D01*
X32383D01*
Y228022D01*
X32367D01*
Y227960D01*
X32352D01*
Y227852D01*
X32336D01*
Y227805D01*
X32321D01*
Y227697D01*
X32305D01*
Y227636D01*
X32290D01*
Y227559D01*
X32275D01*
Y227466D01*
X32259D01*
Y227420D01*
X32244D01*
Y227312D01*
X32228D01*
Y227265D01*
X32213D01*
Y227157D01*
X32197D01*
Y227096D01*
X32182D01*
Y227034D01*
X32167D01*
Y226926D01*
X32151D01*
Y226880D01*
X32136D01*
Y226772D01*
X32120D01*
Y226710D01*
X32105D01*
Y226633D01*
X32089D01*
Y226555D01*
X32074D01*
Y226494D01*
X32059D01*
Y226386D01*
X32043D01*
Y226340D01*
X32028D01*
Y226247D01*
X32012D01*
Y226170D01*
X31997D01*
Y226108D01*
X31982D01*
Y226000D01*
X32691D01*
Y225985D01*
X32707D01*
Y226000D01*
X32722D01*
Y226015D01*
X32738D01*
Y226062D01*
X32753D01*
Y226123D01*
X32768D01*
Y226232D01*
X32784D01*
Y226278D01*
X32799D01*
Y226386D01*
X32815D01*
Y226448D01*
X32830D01*
Y226509D01*
X32846D01*
Y226617D01*
X32861D01*
Y226664D01*
X32877D01*
Y226772D01*
X32892D01*
Y226818D01*
X32907D01*
Y226910D01*
X32923D01*
Y226988D01*
X32938D01*
Y227049D01*
X32954D01*
Y227157D01*
X32969D01*
Y227204D01*
X32985D01*
Y227265D01*
X33000D01*
Y227281D01*
X34759D01*
Y227219D01*
X34775D01*
Y227142D01*
X34790D01*
Y227096D01*
X34806D01*
Y226988D01*
X34821D01*
Y226941D01*
X34836D01*
Y226833D01*
X34852D01*
Y226772D01*
X34867D01*
Y226694D01*
X34883D01*
Y226602D01*
X34898D01*
Y226555D01*
X34914D01*
Y226432D01*
X34929D01*
Y226386D01*
X34944D01*
Y226293D01*
X34960D01*
Y226216D01*
X34975D01*
Y226170D01*
X34991D01*
Y226062D01*
X35006D01*
Y226046D01*
Y226031D01*
Y226015D01*
X35022D01*
Y226000D01*
X35762D01*
Y226108D01*
X35747D01*
Y226170D01*
X35732D01*
Y226278D01*
X35716D01*
Y226324D01*
X35701D01*
Y226417D01*
X35685D01*
Y226494D01*
X35670D01*
Y226555D01*
X35654D01*
Y226664D01*
X35639D01*
Y226710D01*
X35623D01*
Y226818D01*
X35608D01*
Y226864D01*
X35593D01*
Y226941D01*
X35577D01*
Y227034D01*
X35562D01*
Y227096D01*
X35546D01*
Y227204D01*
X35531D01*
Y227250D01*
X35515D01*
Y227343D01*
X35500D01*
Y227420D01*
X35485D01*
Y227482D01*
X35469D01*
Y227590D01*
X35454D01*
Y227636D01*
X35438D01*
Y227744D01*
X35423D01*
Y227790D01*
X35407D01*
Y227867D01*
X35392D01*
Y227960D01*
X35377D01*
Y228022D01*
X35361D01*
Y228130D01*
X35346D01*
Y228176D01*
X35330D01*
Y228269D01*
X35315D01*
Y228346D01*
X35299D01*
Y228407D01*
X35284D01*
Y228515D01*
X35269D01*
Y228562D01*
X35253D01*
Y228670D01*
X35238D01*
Y228716D01*
X35222D01*
Y228793D01*
X35207D01*
Y228886D01*
X35191D01*
Y228947D01*
X35176D01*
Y229056D01*
X35160D01*
Y229102D01*
X35145D01*
Y229194D01*
X35130D01*
Y229272D01*
X35114D01*
Y229333D01*
X35099D01*
Y229441D01*
X35083D01*
Y229488D01*
X35068D01*
Y229596D01*
X35052D01*
Y229642D01*
X35037D01*
Y229719D01*
X35022D01*
Y229812D01*
X35006D01*
Y229873D01*
X34991D01*
Y229981D01*
X34975D01*
Y230028D01*
X34960D01*
Y230120D01*
X34944D01*
Y230198D01*
X34929D01*
Y230259D01*
X34914D01*
Y230367D01*
X34898D01*
Y230414D01*
X34883D01*
Y230522D01*
X34867D01*
Y230568D01*
X34852D01*
Y230645D01*
X34836D01*
Y230738D01*
X34821D01*
Y230799D01*
X34806D01*
Y230907D01*
X34790D01*
Y230954D01*
X34775D01*
Y231046D01*
X34759D01*
Y231123D01*
X34744D01*
Y231185D01*
X34728D01*
Y231293D01*
X34713D01*
Y231340D01*
X34697D01*
Y231448D01*
X34682D01*
Y231494D01*
X34667D01*
Y231571D01*
X34651D01*
Y231664D01*
X34636D01*
Y231725D01*
X34620D01*
Y231833D01*
X34605D01*
Y231880D01*
X34589D01*
Y231972D01*
X34574D01*
Y232049D01*
X34559D01*
Y232111D01*
X34543D01*
Y232204D01*
X34528D01*
Y232265D01*
X34512D01*
Y232373D01*
X34497D01*
Y232420D01*
X34481D01*
Y232497D01*
X34466D01*
Y232590D01*
X34451D01*
Y232651D01*
X34435D01*
Y232759D01*
X34420D01*
Y232805D01*
X34404D01*
Y232898D01*
X34389D01*
Y232975D01*
X34374D01*
Y233037D01*
X34358D01*
Y233130D01*
X34327D01*
Y233145D01*
D02*
G37*
G36*
X30654D02*
X29512D01*
Y233130D01*
X29343D01*
Y233114D01*
X29250D01*
Y233099D01*
X29157D01*
Y233083D01*
X29111D01*
Y233068D01*
X29034D01*
Y233052D01*
X29003D01*
Y233037D01*
X28972D01*
Y233022D01*
X28910D01*
Y233006D01*
X28880D01*
Y232991D01*
X28833D01*
Y232975D01*
X28818D01*
Y232960D01*
X28787D01*
Y232944D01*
X28756D01*
Y232929D01*
X28741D01*
Y232914D01*
X28694D01*
Y232898D01*
X28679D01*
Y232883D01*
X28648D01*
Y232867D01*
X28633D01*
Y232852D01*
X28617D01*
Y232836D01*
X28602D01*
Y232821D01*
X28586D01*
Y232805D01*
X28556D01*
Y232790D01*
X28540D01*
Y232775D01*
X28525D01*
Y232759D01*
X28509D01*
Y232744D01*
X28494D01*
Y232728D01*
X28478D01*
Y232713D01*
X28463D01*
Y232682D01*
X28447D01*
Y232667D01*
X28432D01*
Y232651D01*
X28417D01*
Y232636D01*
X28401D01*
Y232605D01*
X28386D01*
Y232590D01*
X28370D01*
Y232574D01*
X28355D01*
Y232543D01*
X28339D01*
Y232512D01*
X28324D01*
Y232482D01*
X28309D01*
Y232451D01*
X28293D01*
Y232435D01*
X28278D01*
Y232373D01*
X28262D01*
Y232358D01*
X28247D01*
Y232296D01*
X28231D01*
Y232265D01*
X28216D01*
Y232219D01*
X28201D01*
Y232157D01*
X28185D01*
Y232111D01*
X28170D01*
Y232003D01*
X28154D01*
Y231910D01*
X28139D01*
Y227235D01*
X28154D01*
Y227142D01*
X28170D01*
Y227034D01*
X28185D01*
Y226988D01*
X28201D01*
Y226910D01*
X28216D01*
Y226864D01*
X28231D01*
Y226833D01*
X28247D01*
Y226772D01*
X28262D01*
Y226741D01*
X28278D01*
Y226710D01*
X28293D01*
Y226679D01*
X28309D01*
Y226648D01*
X28324D01*
Y226617D01*
X28339D01*
Y226602D01*
X28355D01*
Y226571D01*
X28370D01*
Y226555D01*
X28386D01*
Y226525D01*
X28401D01*
Y226509D01*
X28417D01*
Y226478D01*
X28432D01*
Y226463D01*
X28447D01*
Y226448D01*
X28463D01*
Y226432D01*
X28478D01*
Y226401D01*
X28509D01*
Y226370D01*
X28525D01*
Y226355D01*
X28540D01*
Y226340D01*
X28556D01*
Y226324D01*
X28586D01*
Y226309D01*
X28602D01*
Y226293D01*
X28617D01*
Y226278D01*
X28648D01*
Y226262D01*
X28664D01*
Y226247D01*
X28694D01*
Y226232D01*
X28710D01*
Y226216D01*
X28741D01*
Y226201D01*
X28756D01*
Y226185D01*
X28787D01*
Y226170D01*
X28833D01*
Y226154D01*
X28849D01*
Y226139D01*
X28895D01*
Y226123D01*
X28926D01*
Y226108D01*
X28972D01*
Y226093D01*
X29019D01*
Y226077D01*
X29049D01*
Y226062D01*
X29127D01*
Y226046D01*
X29173D01*
Y226031D01*
X29281D01*
Y226015D01*
X29373D01*
Y226000D01*
X30685D01*
Y226741D01*
X30670D01*
Y226756D01*
X29605D01*
Y226772D01*
X29404D01*
Y226787D01*
X29373D01*
Y226802D01*
X29312D01*
Y226818D01*
X29265D01*
Y226833D01*
X29250D01*
Y226849D01*
X29204D01*
Y226864D01*
X29188D01*
Y226880D01*
X29157D01*
Y226895D01*
X29142D01*
Y226910D01*
X29111D01*
Y226926D01*
X29096D01*
Y226941D01*
X29080D01*
Y226957D01*
X29065D01*
Y226972D01*
X29049D01*
Y227003D01*
X29034D01*
Y227018D01*
X29019D01*
Y227049D01*
X29003D01*
Y227065D01*
X28988D01*
Y227096D01*
X28972D01*
Y227127D01*
X28957D01*
Y227173D01*
X28941D01*
Y227219D01*
X28926D01*
Y227265D01*
X28910D01*
Y227389D01*
X28895D01*
Y231741D01*
X28910D01*
Y231864D01*
X28926D01*
Y231910D01*
X28941D01*
Y231957D01*
X28957D01*
Y232003D01*
X28972D01*
Y232034D01*
X28988D01*
Y232080D01*
X29003D01*
Y232096D01*
X29019D01*
Y232111D01*
X29034D01*
Y232142D01*
X29049D01*
Y232157D01*
X29065D01*
Y232173D01*
X29080D01*
Y232188D01*
X29096D01*
Y232204D01*
X29111D01*
Y232219D01*
X29127D01*
Y232235D01*
X29157D01*
Y232250D01*
X29173D01*
Y232265D01*
X29188D01*
Y232281D01*
X29235D01*
Y232296D01*
X29265D01*
Y232312D01*
X29296D01*
Y232327D01*
X29343D01*
Y232343D01*
X29389D01*
Y232358D01*
X29512D01*
Y232373D01*
X30670D01*
Y232389D01*
X30685D01*
Y233130D01*
X30654D01*
Y233145D01*
D02*
G37*
G36*
X16519D02*
X15963D01*
Y233130D01*
X15778D01*
Y233114D01*
X15701D01*
Y233099D01*
X15593D01*
Y233083D01*
X15562D01*
Y233068D01*
X15485D01*
Y233052D01*
X15438D01*
Y233037D01*
X15407D01*
Y233022D01*
X15361D01*
Y233006D01*
X15330D01*
Y232991D01*
X15284D01*
Y232975D01*
X15253D01*
Y232960D01*
X15222D01*
Y232944D01*
X15191D01*
Y232929D01*
X15176D01*
Y232914D01*
X15145D01*
Y232898D01*
X15130D01*
Y232883D01*
X15099D01*
Y232867D01*
X15083D01*
Y232852D01*
X15068D01*
Y232836D01*
X15037D01*
Y232821D01*
X15022D01*
Y232805D01*
X15006D01*
Y232790D01*
X14991D01*
Y232775D01*
X14975D01*
Y232759D01*
X14960D01*
Y232744D01*
X14944D01*
Y232728D01*
X14929D01*
Y232713D01*
X14914D01*
Y232698D01*
X14898D01*
Y232682D01*
X14883D01*
Y232667D01*
X14867D01*
Y232636D01*
X14852D01*
Y232620D01*
X14836D01*
Y232590D01*
X14821D01*
Y232574D01*
X14806D01*
Y232543D01*
X14790D01*
Y232528D01*
X14775D01*
Y232497D01*
X14759D01*
Y232466D01*
X14744D01*
Y232435D01*
X14728D01*
Y232389D01*
X14713D01*
Y232373D01*
X14697D01*
Y232327D01*
X14682D01*
Y232281D01*
X14667D01*
Y232250D01*
X14651D01*
Y232173D01*
X14636D01*
Y232126D01*
X14620D01*
Y232034D01*
X14605D01*
Y231941D01*
X14590D01*
Y231803D01*
X14574D01*
Y227775D01*
Y227759D01*
Y227343D01*
X14590D01*
Y227188D01*
X14605D01*
Y227096D01*
X14620D01*
Y227003D01*
X14636D01*
Y226972D01*
X14651D01*
Y226880D01*
X14667D01*
Y226849D01*
X14682D01*
Y226802D01*
X14697D01*
Y226756D01*
X14713D01*
Y226741D01*
X14728D01*
Y226694D01*
X14744D01*
Y226679D01*
X14759D01*
Y226633D01*
X14775D01*
Y226617D01*
X14790D01*
Y226586D01*
X14806D01*
Y226555D01*
X14821D01*
Y226540D01*
X14836D01*
Y226509D01*
X14852D01*
Y226494D01*
X14867D01*
Y226478D01*
X14883D01*
Y226448D01*
X14898D01*
Y226432D01*
X14914D01*
Y226417D01*
X14929D01*
Y226401D01*
X14944D01*
Y226386D01*
X14960D01*
Y226370D01*
X14975D01*
Y226355D01*
X14991D01*
Y226340D01*
X15006D01*
Y226324D01*
X15037D01*
Y226309D01*
X15053D01*
Y226293D01*
X15068D01*
Y226278D01*
X15083D01*
Y226262D01*
X15099D01*
Y226247D01*
X15130D01*
Y226232D01*
X15145D01*
Y226216D01*
X15176D01*
Y226201D01*
X15207D01*
Y226185D01*
X15238D01*
Y226170D01*
X15269D01*
Y226154D01*
X15299D01*
Y226139D01*
X15346D01*
Y226123D01*
X15361D01*
Y226108D01*
X15423D01*
Y226093D01*
X15454D01*
Y226077D01*
X15500D01*
Y226062D01*
X15577D01*
Y226046D01*
X15623D01*
Y226031D01*
X15732D01*
Y226015D01*
X15809D01*
Y226000D01*
X16642D01*
Y226015D01*
X16735D01*
Y226031D01*
X16843D01*
Y226046D01*
X16889D01*
Y226062D01*
X16982D01*
Y226077D01*
X17012D01*
Y226093D01*
X17059D01*
Y226108D01*
X17105D01*
Y226123D01*
X17136D01*
Y226139D01*
X17182D01*
Y226154D01*
X17198D01*
Y226170D01*
X17244D01*
Y226185D01*
X17259D01*
Y226201D01*
X17290D01*
Y226216D01*
X17321D01*
Y226232D01*
X17336D01*
Y226247D01*
X17367D01*
Y226262D01*
X17383D01*
Y226278D01*
X17398D01*
Y226293D01*
X17429D01*
Y226309D01*
X17444D01*
Y226324D01*
X17460D01*
Y226340D01*
X17475D01*
Y226355D01*
X17491D01*
Y226370D01*
X17506D01*
Y226386D01*
X17522D01*
Y226401D01*
X17537D01*
Y226417D01*
X17552D01*
Y226432D01*
X17568D01*
Y226448D01*
X17583D01*
Y226463D01*
X17599D01*
Y226494D01*
X17614D01*
Y226509D01*
X17630D01*
Y226525D01*
X17645D01*
Y226555D01*
X17661D01*
Y226586D01*
X17676D01*
Y226602D01*
X17691D01*
Y226633D01*
X17707D01*
Y226664D01*
X17722D01*
Y226694D01*
X17738D01*
Y226725D01*
X17753D01*
Y226756D01*
X17768D01*
Y226802D01*
X17784D01*
Y226833D01*
X17799D01*
Y226895D01*
X17815D01*
Y226941D01*
X17830D01*
Y226988D01*
X17846D01*
Y227096D01*
X17861D01*
Y227142D01*
X17876D01*
Y227312D01*
X17892D01*
Y227528D01*
X17907D01*
Y227574D01*
X17892D01*
Y227590D01*
X17907D01*
Y231571D01*
X17892D01*
Y231818D01*
X17876D01*
Y231988D01*
X17861D01*
Y232049D01*
X17846D01*
Y232142D01*
X17830D01*
Y232188D01*
X17815D01*
Y232250D01*
X17799D01*
Y232296D01*
X17784D01*
Y232327D01*
X17768D01*
Y232389D01*
X17753D01*
Y232404D01*
X17738D01*
Y232451D01*
X17722D01*
Y232482D01*
X17707D01*
Y232497D01*
X17691D01*
Y232528D01*
X17676D01*
Y232559D01*
X17661D01*
Y232590D01*
X17645D01*
Y232605D01*
X17630D01*
Y232620D01*
X17614D01*
Y232651D01*
X17599D01*
Y232667D01*
X17583D01*
Y232682D01*
X17568D01*
Y232698D01*
X17552D01*
Y232713D01*
X17537D01*
Y232728D01*
X17522D01*
Y232744D01*
X17506D01*
Y232759D01*
X17491D01*
Y232775D01*
X17475D01*
Y232790D01*
X17460D01*
Y232805D01*
X17444D01*
Y232821D01*
X17429D01*
Y232836D01*
X17414D01*
Y232852D01*
X17383D01*
Y232867D01*
X17367D01*
Y232883D01*
X17336D01*
Y232898D01*
X17321D01*
Y232914D01*
X17290D01*
Y232929D01*
X17275D01*
Y232944D01*
X17244D01*
Y232960D01*
X17213D01*
Y232975D01*
X17182D01*
Y232991D01*
X17136D01*
Y233006D01*
X17120D01*
Y233022D01*
X17059D01*
Y233037D01*
X17028D01*
Y233052D01*
X16982D01*
Y233068D01*
X16904D01*
Y233083D01*
X16873D01*
Y233099D01*
X16765D01*
Y233114D01*
X16673D01*
Y233130D01*
X16519D01*
Y233145D01*
D02*
G37*
G36*
X26565D02*
X24312D01*
Y233130D01*
X24296D01*
Y233114D01*
X24281D01*
Y226015D01*
X24296D01*
Y226000D01*
X26796D01*
Y225985D01*
X26812D01*
Y226000D01*
X26843D01*
Y226741D01*
X26827D01*
Y226756D01*
X25068D01*
Y226787D01*
X25052D01*
Y230306D01*
X25068D01*
Y230336D01*
X26318D01*
Y230352D01*
X26333D01*
Y231077D01*
X26318D01*
Y231093D01*
X25068D01*
Y231108D01*
X25052D01*
Y232343D01*
X25068D01*
Y232373D01*
X26580D01*
Y232404D01*
X26596D01*
Y233130D01*
X26565D01*
Y233145D01*
D02*
G37*
G36*
X19204Y233114D02*
X19188D01*
Y233099D01*
X19173D01*
Y226015D01*
X19188D01*
Y226000D01*
X19944D01*
Y231324D01*
X19991D01*
Y231309D01*
X20006D01*
Y231278D01*
X20022D01*
Y231262D01*
X20037D01*
Y231247D01*
X20068D01*
Y231216D01*
X20099D01*
Y231185D01*
X20114D01*
Y231170D01*
X20145D01*
Y231139D01*
X20176D01*
Y231108D01*
X20207D01*
Y231077D01*
X20222D01*
Y231062D01*
X20253D01*
Y231031D01*
X20284D01*
Y231000D01*
X20299D01*
Y230985D01*
X20330D01*
Y230954D01*
X20361D01*
Y230923D01*
X20392D01*
Y230892D01*
X20407D01*
Y230876D01*
X20438D01*
Y230846D01*
X20469D01*
Y230815D01*
X20500D01*
Y230799D01*
X20515D01*
Y230768D01*
X20546D01*
Y230738D01*
X20577D01*
Y230707D01*
X20593D01*
Y230691D01*
X20623D01*
Y230661D01*
X20654D01*
Y230630D01*
X20685D01*
Y230614D01*
X20701D01*
Y230583D01*
X20731D01*
Y230553D01*
X20762D01*
Y230537D01*
X20778D01*
Y230506D01*
X20809D01*
Y230475D01*
X20840D01*
Y230444D01*
X20870D01*
Y230429D01*
X20886D01*
Y230398D01*
X20917D01*
Y230367D01*
X20947D01*
Y230352D01*
X20963D01*
Y230321D01*
X20994D01*
Y230290D01*
X21025D01*
Y230259D01*
X21056D01*
Y230228D01*
X21071D01*
Y230213D01*
X21102D01*
Y230228D01*
X21117D01*
Y230244D01*
X21133D01*
Y230259D01*
X21148D01*
Y230275D01*
X21164D01*
Y230290D01*
X21179D01*
Y230306D01*
X21194D01*
Y230321D01*
X21210D01*
Y230336D01*
X21225D01*
Y230352D01*
X21241D01*
Y230367D01*
X21256D01*
Y230383D01*
X21272D01*
Y230398D01*
X21287D01*
Y230414D01*
X21303D01*
Y230429D01*
X21318D01*
Y230444D01*
X21333D01*
Y230460D01*
X21349D01*
Y230475D01*
X21364D01*
Y230491D01*
X21380D01*
Y230506D01*
X21395D01*
Y230522D01*
X21410D01*
Y230537D01*
X21426D01*
Y230553D01*
X21441D01*
Y230568D01*
X21457D01*
Y230583D01*
X21472D01*
Y230599D01*
X21488D01*
Y230614D01*
X21503D01*
Y230630D01*
X21519D01*
Y230645D01*
X21534D01*
Y230661D01*
X21549D01*
Y230676D01*
X21565D01*
Y230691D01*
X21580D01*
Y230707D01*
X21596D01*
Y230722D01*
X21611D01*
Y230738D01*
X21626D01*
Y230753D01*
X21642D01*
Y230768D01*
X21657D01*
Y230784D01*
X21673D01*
Y230799D01*
X21688D01*
Y230815D01*
X21704D01*
Y230830D01*
X21719D01*
Y230846D01*
X21735D01*
Y230861D01*
X21750D01*
Y230876D01*
X21765D01*
Y230892D01*
X21781D01*
Y230907D01*
X21796D01*
Y230923D01*
X21812D01*
Y230938D01*
X21827D01*
Y230954D01*
X21843D01*
Y230969D01*
X21858D01*
Y230985D01*
X21873D01*
Y231000D01*
X21889D01*
Y231015D01*
X21904D01*
Y231031D01*
X21920D01*
Y231046D01*
X21935D01*
Y231062D01*
X21951D01*
Y231077D01*
X21966D01*
Y231093D01*
X21982D01*
Y231108D01*
X21997D01*
Y231123D01*
X22012D01*
Y231139D01*
X22028D01*
Y231154D01*
X22043D01*
Y231170D01*
X22059D01*
Y231185D01*
X22074D01*
Y231201D01*
X22090D01*
Y231216D01*
X22105D01*
Y231231D01*
X22120D01*
Y231247D01*
X22136D01*
Y231262D01*
X22151D01*
Y231278D01*
X22182D01*
Y231309D01*
X22197D01*
Y231324D01*
X22213D01*
Y231340D01*
X22244D01*
Y226000D01*
X22275D01*
Y225985D01*
X22290D01*
Y226000D01*
X23000D01*
Y226015D01*
X23015D01*
Y233099D01*
X22954D01*
Y233083D01*
X22938D01*
Y233068D01*
X22923D01*
Y233052D01*
X22907D01*
Y233022D01*
X22876D01*
Y232991D01*
X22846D01*
Y232960D01*
X22830D01*
Y232944D01*
X22799D01*
Y232914D01*
X22769D01*
Y232883D01*
X22738D01*
Y232867D01*
X22722D01*
Y232836D01*
X22691D01*
Y232805D01*
X22660D01*
Y232775D01*
X22645D01*
Y232759D01*
X22614D01*
Y232728D01*
X22583D01*
Y232698D01*
X22553D01*
Y232682D01*
X22537D01*
Y232651D01*
X22506D01*
Y232620D01*
X22475D01*
Y232590D01*
X22460D01*
Y232574D01*
X22429D01*
Y232543D01*
X22398D01*
Y232512D01*
X22383D01*
Y232497D01*
X22367D01*
Y232482D01*
X22352D01*
Y232466D01*
X22336D01*
Y232451D01*
X22321D01*
Y232435D01*
X22306D01*
Y232420D01*
X22290D01*
Y232404D01*
X22275D01*
Y232389D01*
X22259D01*
Y232373D01*
X22244D01*
Y232358D01*
X22228D01*
Y232343D01*
X22213D01*
Y232327D01*
X22197D01*
Y232312D01*
X22182D01*
Y232296D01*
X22167D01*
Y232281D01*
X22151D01*
Y232265D01*
X22136D01*
Y232250D01*
X22120D01*
Y232235D01*
X22105D01*
Y232219D01*
X22090D01*
Y232204D01*
X22074D01*
Y232188D01*
X22059D01*
Y232173D01*
X22043D01*
Y232157D01*
X22028D01*
Y232142D01*
X22012D01*
Y232126D01*
X21997D01*
Y232111D01*
X21982D01*
Y232096D01*
X21966D01*
Y232080D01*
X21951D01*
Y232065D01*
X21935D01*
Y232049D01*
X21920D01*
Y232034D01*
X21904D01*
Y232018D01*
X21889D01*
Y232003D01*
X21873D01*
Y231988D01*
X21858D01*
Y231972D01*
X21843D01*
Y231957D01*
X21827D01*
Y231941D01*
X21812D01*
Y231926D01*
X21796D01*
Y231910D01*
X21781D01*
Y231895D01*
X21765D01*
Y231880D01*
X21750D01*
Y231864D01*
X21735D01*
Y231849D01*
X21719D01*
Y231833D01*
X21704D01*
Y231818D01*
X21688D01*
Y231803D01*
X21673D01*
Y231787D01*
X21657D01*
Y231772D01*
X21642D01*
Y231756D01*
X21626D01*
Y231741D01*
X21611D01*
Y231725D01*
X21596D01*
Y231710D01*
X21580D01*
Y231694D01*
X21565D01*
Y231679D01*
X21549D01*
Y231664D01*
X21534D01*
Y231648D01*
X21519D01*
Y231633D01*
X21503D01*
Y231617D01*
X21488D01*
Y231602D01*
X21472D01*
Y231586D01*
X21457D01*
Y231571D01*
X21441D01*
Y231556D01*
X21426D01*
Y231540D01*
X21410D01*
Y231525D01*
X21395D01*
Y231509D01*
X21380D01*
Y231494D01*
X21364D01*
Y231478D01*
X21349D01*
Y231463D01*
X21333D01*
Y231448D01*
X21318D01*
Y231432D01*
X21303D01*
Y231417D01*
X21287D01*
Y231401D01*
X21272D01*
Y231386D01*
X21256D01*
Y231370D01*
X21241D01*
Y231355D01*
X21225D01*
Y231340D01*
X21210D01*
Y231324D01*
X21194D01*
Y231309D01*
X21179D01*
Y231293D01*
X21164D01*
Y231278D01*
X21148D01*
Y231262D01*
X21133D01*
Y231247D01*
X21117D01*
Y231231D01*
X21071D01*
Y231247D01*
X21056D01*
Y231262D01*
X21040D01*
Y231278D01*
X21025D01*
Y231293D01*
X21009D01*
Y231309D01*
X20994D01*
Y231324D01*
X20978D01*
Y231340D01*
X20963D01*
Y231355D01*
X20947D01*
Y231370D01*
X20932D01*
Y231386D01*
X20917D01*
Y231401D01*
X20901D01*
Y231417D01*
X20886D01*
Y231432D01*
X20870D01*
Y231448D01*
X20855D01*
Y231463D01*
X20840D01*
Y231478D01*
X20824D01*
Y231494D01*
X20809D01*
Y231509D01*
X20793D01*
Y231525D01*
X20778D01*
Y231540D01*
X20762D01*
Y231556D01*
X20747D01*
Y231571D01*
X20731D01*
Y231586D01*
X20716D01*
Y231602D01*
X20701D01*
Y231617D01*
X20685D01*
Y231633D01*
X20670D01*
Y231648D01*
X20654D01*
Y231664D01*
X20639D01*
Y231679D01*
X20623D01*
Y231694D01*
X20608D01*
Y231710D01*
X20593D01*
Y231725D01*
X20577D01*
Y231741D01*
X20562D01*
Y231756D01*
X20546D01*
Y231772D01*
X20531D01*
Y231787D01*
X20515D01*
Y231803D01*
X20500D01*
Y231818D01*
X20485D01*
Y231833D01*
X20469D01*
Y231849D01*
X20454D01*
Y231864D01*
X20438D01*
Y231880D01*
X20423D01*
Y231895D01*
X20407D01*
Y231910D01*
X20392D01*
Y231926D01*
X20377D01*
Y231941D01*
X20361D01*
Y231957D01*
X20346D01*
Y231972D01*
X20330D01*
Y231988D01*
X20315D01*
Y232003D01*
X20299D01*
Y232018D01*
X20284D01*
Y232034D01*
X20268D01*
Y232049D01*
X20253D01*
Y232065D01*
X20238D01*
Y232080D01*
X20222D01*
Y232096D01*
X20207D01*
Y232111D01*
X20191D01*
Y232126D01*
X20176D01*
Y232142D01*
X20161D01*
Y232157D01*
X20145D01*
Y232173D01*
X20130D01*
Y232188D01*
X20114D01*
Y232204D01*
X20099D01*
Y232219D01*
X20083D01*
Y232235D01*
X20068D01*
Y232250D01*
X20053D01*
Y232265D01*
X20037D01*
Y232281D01*
X20022D01*
Y232296D01*
X20006D01*
Y232312D01*
X19991D01*
Y232327D01*
X19975D01*
Y232343D01*
X19960D01*
Y232358D01*
X19944D01*
Y232373D01*
X19929D01*
Y232389D01*
X19914D01*
Y232404D01*
X19898D01*
Y232420D01*
X19883D01*
Y232435D01*
X19867D01*
Y232451D01*
X19852D01*
Y232466D01*
X19836D01*
Y232482D01*
X19821D01*
Y232497D01*
X19805D01*
Y232512D01*
X19790D01*
Y232528D01*
X19775D01*
Y232543D01*
X19759D01*
Y232559D01*
X19744D01*
Y232574D01*
X19728D01*
Y232590D01*
X19713D01*
Y232605D01*
X19697D01*
Y232620D01*
X19682D01*
Y232636D01*
X19667D01*
Y232651D01*
X19651D01*
Y232667D01*
X19636D01*
Y232682D01*
X19620D01*
Y232713D01*
X19605D01*
Y232728D01*
X19590D01*
Y232744D01*
X19574D01*
Y232759D01*
X19559D01*
Y232775D01*
X19543D01*
Y232790D01*
X19528D01*
Y232805D01*
X19512D01*
Y232821D01*
X19497D01*
Y232836D01*
X19481D01*
Y232852D01*
X19466D01*
Y232867D01*
X19451D01*
Y232883D01*
X19435D01*
Y232898D01*
X19420D01*
Y232914D01*
X19404D01*
Y232929D01*
X19389D01*
Y232944D01*
X19373D01*
Y232960D01*
X19358D01*
Y232975D01*
X19343D01*
Y232991D01*
X19327D01*
Y233006D01*
X19312D01*
Y233022D01*
X19281D01*
Y233052D01*
X19265D01*
Y233068D01*
X19250D01*
Y233083D01*
X19235D01*
Y233099D01*
X19204D01*
Y233114D01*
D02*
G37*
G36*
X13262Y233145D02*
X12120D01*
Y233130D01*
X11935D01*
Y233114D01*
X11889D01*
Y233099D01*
X11765D01*
Y233083D01*
X11719D01*
Y233068D01*
X11642D01*
Y233052D01*
X11611D01*
Y233037D01*
X11565D01*
Y233022D01*
X11519D01*
Y233006D01*
X11488D01*
Y232991D01*
X11441D01*
Y232975D01*
X11426D01*
Y232960D01*
X11395D01*
Y232944D01*
X11364D01*
Y232929D01*
X11333D01*
Y232914D01*
X11303D01*
Y232898D01*
X11287D01*
Y232883D01*
X11256D01*
Y232867D01*
X11241D01*
Y232852D01*
X11225D01*
Y232836D01*
X11210D01*
Y232821D01*
X11194D01*
Y232805D01*
X11164D01*
Y232790D01*
X11148D01*
Y232775D01*
X11133D01*
Y232759D01*
X11117D01*
Y232744D01*
X11102D01*
Y232728D01*
X11086D01*
Y232713D01*
X11071D01*
Y232682D01*
X11056D01*
Y232667D01*
X11040D01*
Y232651D01*
X11025D01*
Y232636D01*
X11009D01*
Y232620D01*
X10994D01*
Y232590D01*
X10978D01*
Y232559D01*
X10963D01*
Y232543D01*
X10948D01*
Y232512D01*
X10932D01*
Y232497D01*
X10917D01*
Y232451D01*
X10901D01*
Y232420D01*
X10886D01*
Y232404D01*
X10870D01*
Y232343D01*
X10855D01*
Y232327D01*
X10840D01*
Y232250D01*
X10824D01*
Y232219D01*
X10809D01*
Y232157D01*
X10793D01*
Y232096D01*
X10778D01*
Y232018D01*
X10762D01*
Y231849D01*
X10747D01*
Y231664D01*
X10731D01*
Y227466D01*
X10747D01*
Y227281D01*
X10762D01*
Y227111D01*
X10778D01*
Y227049D01*
X10793D01*
Y226972D01*
X10809D01*
Y226910D01*
X10824D01*
Y226880D01*
X10840D01*
Y226818D01*
X10855D01*
Y226787D01*
X10870D01*
Y226741D01*
X10886D01*
Y226710D01*
X10901D01*
Y226679D01*
X10917D01*
Y226648D01*
X10932D01*
Y226617D01*
X10948D01*
Y226586D01*
X10963D01*
Y226571D01*
X10978D01*
Y226540D01*
X10994D01*
Y226525D01*
X11009D01*
Y226509D01*
X11025D01*
Y226478D01*
X11040D01*
Y226463D01*
X11056D01*
Y226448D01*
X11071D01*
Y226432D01*
X11086D01*
Y226417D01*
X11102D01*
Y226386D01*
X11117D01*
Y226370D01*
X11133D01*
Y226355D01*
X11164D01*
Y226340D01*
X11179D01*
Y226324D01*
X11194D01*
Y226309D01*
X11210D01*
Y226293D01*
X11225D01*
Y226278D01*
X11256D01*
Y226262D01*
X11272D01*
Y226247D01*
X11303D01*
Y226232D01*
X11318D01*
Y226216D01*
X11349D01*
Y226201D01*
X11364D01*
Y226185D01*
X11395D01*
Y226170D01*
X11426D01*
Y226154D01*
X11457D01*
Y226139D01*
X11503D01*
Y226123D01*
X11534D01*
Y226108D01*
X11565D01*
Y226093D01*
X11626D01*
Y226077D01*
X11657D01*
Y226062D01*
X11735D01*
Y226046D01*
X11781D01*
Y226031D01*
X11904D01*
Y226015D01*
X11981D01*
Y226000D01*
X13247D01*
Y225985D01*
X13262D01*
Y226000D01*
X13278D01*
Y226031D01*
X13293D01*
Y226725D01*
X13278D01*
Y226756D01*
X12197D01*
Y226772D01*
X12012D01*
Y226787D01*
X11966D01*
Y226802D01*
X11904D01*
Y226818D01*
X11873D01*
Y226833D01*
X11843D01*
Y226849D01*
X11812D01*
Y226864D01*
X11796D01*
Y226880D01*
X11765D01*
Y226895D01*
X11750D01*
Y226910D01*
X11735D01*
Y226926D01*
X11704D01*
Y226941D01*
X11688D01*
Y226957D01*
X11673D01*
Y226972D01*
X11657D01*
Y227003D01*
X11642D01*
Y227018D01*
X11626D01*
Y227034D01*
X11611D01*
Y227065D01*
X11596D01*
Y227080D01*
X11580D01*
Y227127D01*
X11565D01*
Y227157D01*
X11549D01*
Y227219D01*
X11534D01*
Y227281D01*
X11519D01*
Y227358D01*
X11503D01*
Y231787D01*
X11519D01*
Y231864D01*
X11534D01*
Y231910D01*
X11549D01*
Y231972D01*
X11565D01*
Y232003D01*
X11580D01*
Y232049D01*
X11596D01*
Y232065D01*
X11611D01*
Y232096D01*
X11626D01*
Y232126D01*
X11642D01*
Y232142D01*
X11657D01*
Y232157D01*
X11673D01*
Y232173D01*
X11688D01*
Y232188D01*
X11704D01*
Y232204D01*
X11719D01*
Y232219D01*
X11735D01*
Y232235D01*
X11750D01*
Y232250D01*
X11781D01*
Y232265D01*
X11796D01*
Y232281D01*
X11843D01*
Y232296D01*
X11858D01*
Y232312D01*
X11904D01*
Y232327D01*
X11951D01*
Y232343D01*
X11997D01*
Y232358D01*
X12136D01*
Y232373D01*
X13278D01*
Y232404D01*
X13293D01*
Y233114D01*
X13278D01*
Y233130D01*
X13262D01*
Y233145D01*
D02*
G37*
%LPD*%
G36*
X33880Y231602D02*
X33895D01*
Y231556D01*
X33911D01*
Y231448D01*
X33926D01*
Y231401D01*
X33941D01*
Y231324D01*
X33957D01*
Y231231D01*
X33972D01*
Y231185D01*
X33988D01*
Y231062D01*
X34003D01*
Y231015D01*
X34018D01*
Y230923D01*
X34034D01*
Y230846D01*
X34049D01*
Y230799D01*
X34065D01*
Y230691D01*
X34080D01*
Y230645D01*
X34096D01*
Y230522D01*
X34111D01*
Y230475D01*
X34126D01*
Y230398D01*
X34142D01*
Y230306D01*
X34157D01*
Y230259D01*
X34173D01*
Y230136D01*
X34188D01*
Y230089D01*
X34204D01*
Y229997D01*
X34219D01*
Y229920D01*
X34235D01*
Y229873D01*
X34250D01*
Y229765D01*
X34265D01*
Y229719D01*
X34281D01*
Y229596D01*
X34296D01*
Y229549D01*
X34312D01*
Y229472D01*
X34327D01*
Y229380D01*
X34343D01*
Y229333D01*
X34358D01*
Y229210D01*
X34374D01*
Y229164D01*
X34389D01*
Y229071D01*
X34404D01*
Y228994D01*
X34420D01*
Y228947D01*
X34435D01*
Y228932D01*
Y228917D01*
Y228839D01*
X34451D01*
Y228793D01*
X34466D01*
Y228685D01*
X34481D01*
Y228624D01*
X34497D01*
Y228546D01*
X34512D01*
Y228454D01*
X34528D01*
Y228407D01*
X34543D01*
Y228284D01*
X34559D01*
Y228238D01*
X34574D01*
Y228145D01*
X34589D01*
Y228083D01*
X34605D01*
Y228037D01*
X33185D01*
Y228022D01*
X33154D01*
Y228037D01*
X33139D01*
Y228083D01*
X33154D01*
Y228130D01*
X33170D01*
Y228238D01*
X33185D01*
Y228299D01*
X33201D01*
Y228361D01*
X33216D01*
Y228469D01*
X33231D01*
Y228515D01*
X33247D01*
Y228624D01*
X33262D01*
Y228670D01*
X33278D01*
Y228762D01*
X33293D01*
Y228839D01*
X33309D01*
Y228901D01*
X33324D01*
Y229009D01*
X33340D01*
Y229056D01*
X33355D01*
Y229164D01*
X33370D01*
Y229225D01*
X33386D01*
Y229287D01*
X33401D01*
Y229395D01*
X33417D01*
Y229441D01*
X33432D01*
Y229549D01*
X33448D01*
Y229596D01*
X33463D01*
Y229688D01*
X33478D01*
Y229765D01*
X33494D01*
Y229827D01*
X33509D01*
Y229935D01*
X33525D01*
Y229981D01*
X33540D01*
Y230089D01*
X33555D01*
Y230151D01*
X33571D01*
Y230213D01*
X33586D01*
Y230321D01*
X33602D01*
Y230367D01*
X33617D01*
Y230475D01*
X33633D01*
Y230522D01*
X33648D01*
Y230614D01*
X33664D01*
Y230691D01*
X33679D01*
Y230753D01*
X33694D01*
Y230861D01*
X33710D01*
Y230907D01*
X33725D01*
Y231015D01*
X33741D01*
Y231077D01*
X33756D01*
Y231139D01*
X33772D01*
Y231247D01*
X33787D01*
Y231293D01*
X33803D01*
Y231401D01*
X33818D01*
Y231448D01*
X33833D01*
Y231540D01*
X33849D01*
Y231617D01*
X33864D01*
Y231633D01*
X33880D01*
Y231602D01*
D02*
G37*
G36*
X16503Y232358D02*
X16642D01*
Y232343D01*
X16673D01*
Y232327D01*
X16719D01*
Y232312D01*
X16765D01*
Y232296D01*
X16796D01*
Y232281D01*
X16827D01*
Y232265D01*
X16843D01*
Y232250D01*
X16873D01*
Y232235D01*
X16889D01*
Y232219D01*
X16904D01*
Y232204D01*
X16935D01*
Y232188D01*
X16951D01*
Y232173D01*
X16966D01*
Y232157D01*
X16982D01*
Y232126D01*
X16997D01*
Y232111D01*
X17012D01*
Y232080D01*
X17028D01*
Y232049D01*
X17043D01*
Y232034D01*
X17059D01*
Y231988D01*
X17074D01*
Y231957D01*
X17089D01*
Y231895D01*
X17105D01*
Y231818D01*
X17120D01*
Y231694D01*
X17136D01*
Y229997D01*
Y229981D01*
Y227420D01*
X17120D01*
Y227312D01*
X17105D01*
Y227235D01*
X17089D01*
Y227188D01*
X17074D01*
Y227142D01*
X17059D01*
Y227096D01*
X17043D01*
Y227080D01*
X17028D01*
Y227049D01*
X17012D01*
Y227034D01*
X16997D01*
Y227003D01*
X16982D01*
Y226988D01*
X16966D01*
Y226972D01*
X16951D01*
Y226957D01*
X16935D01*
Y226941D01*
X16920D01*
Y226926D01*
X16904D01*
Y226910D01*
X16889D01*
Y226895D01*
X16873D01*
Y226880D01*
X16843D01*
Y226864D01*
X16827D01*
Y226849D01*
X16796D01*
Y226833D01*
X16750D01*
Y226818D01*
X16719D01*
Y226802D01*
X16657D01*
Y226787D01*
X16611D01*
Y226772D01*
X16426D01*
Y226756D01*
X16056D01*
Y226772D01*
X15855D01*
Y226787D01*
X15809D01*
Y226802D01*
X15747D01*
Y226818D01*
X15716D01*
Y226833D01*
X15685D01*
Y226849D01*
X15639D01*
Y226864D01*
X15623D01*
Y226880D01*
X15593D01*
Y226895D01*
X15577D01*
Y226910D01*
X15562D01*
Y226926D01*
X15546D01*
Y226941D01*
X15531D01*
Y226957D01*
X15515D01*
Y226972D01*
X15500D01*
Y226988D01*
X15485D01*
Y227003D01*
X15469D01*
Y227034D01*
X15454D01*
Y227049D01*
X15438D01*
Y227096D01*
X15423D01*
Y227111D01*
X15407D01*
Y227142D01*
X15392D01*
Y227204D01*
X15376D01*
Y227235D01*
X15361D01*
Y227358D01*
X15346D01*
Y231772D01*
X15361D01*
Y231895D01*
X15376D01*
Y231926D01*
X15392D01*
Y231988D01*
X15407D01*
Y232018D01*
X15423D01*
Y232049D01*
X15438D01*
Y232080D01*
X15454D01*
Y232096D01*
X15469D01*
Y232126D01*
X15485D01*
Y232142D01*
X15500D01*
Y232157D01*
X15515D01*
Y232173D01*
X15531D01*
Y232188D01*
X15546D01*
Y232204D01*
X15562D01*
Y232219D01*
X15577D01*
Y232235D01*
X15593D01*
Y232250D01*
X15623D01*
Y232265D01*
X15639D01*
Y232281D01*
X15670D01*
Y232296D01*
X15701D01*
Y232312D01*
X15747D01*
Y232327D01*
X15793D01*
Y232343D01*
X15840D01*
Y232358D01*
X15963D01*
Y232373D01*
X16503D01*
Y232358D01*
D02*
G37*
%LPC*%
G36*
X76736Y230367D02*
X76699D01*
X76669Y230360D01*
X76588Y230352D01*
X76491Y230323D01*
X76380Y230286D01*
X76262Y230219D01*
X76144Y230138D01*
X76084Y230078D01*
X76033Y230019D01*
Y230012D01*
X76018Y230004D01*
X76010Y229982D01*
X75988Y229953D01*
X75966Y229916D01*
X75944Y229871D01*
X75922Y229819D01*
X75892Y229760D01*
X75862Y229686D01*
X75840Y229605D01*
X75818Y229516D01*
X75796Y229420D01*
X75781Y229316D01*
X75766Y229198D01*
X75751Y229072D01*
Y228939D01*
Y228931D01*
Y228909D01*
Y228872D01*
X75759Y228820D01*
Y228761D01*
X75766Y228695D01*
X75788Y228539D01*
X75825Y228369D01*
X75877Y228191D01*
X75951Y228021D01*
X75996Y227947D01*
X76047Y227873D01*
X76055D01*
X76062Y227858D01*
X76099Y227821D01*
X76166Y227762D01*
X76247Y227703D01*
X76351Y227636D01*
X76477Y227577D01*
X76610Y227540D01*
X76684Y227533D01*
X76758Y227525D01*
X76795D01*
X76824Y227533D01*
X76906Y227540D01*
X77002Y227570D01*
X77113Y227607D01*
X77231Y227666D01*
X77350Y227747D01*
X77409Y227799D01*
X77461Y227858D01*
Y227866D01*
X77476Y227873D01*
X77490Y227895D01*
X77505Y227925D01*
X77527Y227962D01*
X77557Y227999D01*
X77579Y228058D01*
X77609Y228117D01*
X77638Y228184D01*
X77661Y228258D01*
X77690Y228347D01*
X77712Y228436D01*
X77727Y228539D01*
X77742Y228643D01*
X77757Y228761D01*
Y228887D01*
Y228894D01*
Y228924D01*
Y228961D01*
X77749Y229013D01*
Y229072D01*
X77742Y229146D01*
X77735Y229227D01*
X77720Y229316D01*
X77683Y229494D01*
X77631Y229679D01*
X77557Y229856D01*
X77513Y229930D01*
X77461Y230004D01*
Y230012D01*
X77446Y230019D01*
X77409Y230064D01*
X77342Y230123D01*
X77261Y230189D01*
X77157Y230256D01*
X77032Y230308D01*
X76891Y230352D01*
X76817Y230360D01*
X76736Y230367D01*
D02*
G37*
G36*
X71356Y228954D02*
X71348D01*
X71341Y228946D01*
X71319Y228939D01*
X71289Y228931D01*
X71252Y228917D01*
X71208Y228902D01*
X71156Y228887D01*
X71097Y228872D01*
X71030Y228850D01*
X70949Y228835D01*
X70867Y228813D01*
X70771Y228791D01*
X70668Y228769D01*
X70564Y228746D01*
X70446Y228732D01*
X70320Y228709D01*
X70305D01*
X70261Y228702D01*
X70187Y228687D01*
X70105Y228672D01*
X70016Y228658D01*
X69928Y228635D01*
X69846Y228613D01*
X69772Y228584D01*
X69765D01*
X69743Y228569D01*
X69713Y228554D01*
X69683Y228532D01*
X69595Y228473D01*
X69521Y228384D01*
Y228376D01*
X69506Y228362D01*
X69498Y228332D01*
X69484Y228295D01*
X69469Y228251D01*
X69454Y228206D01*
X69447Y228147D01*
X69439Y228088D01*
Y228080D01*
Y228043D01*
X69447Y227999D01*
X69461Y227940D01*
X69484Y227873D01*
X69521Y227807D01*
X69565Y227733D01*
X69624Y227666D01*
X69632Y227659D01*
X69661Y227644D01*
X69706Y227614D01*
X69765Y227585D01*
X69846Y227555D01*
X69942Y227525D01*
X70053Y227511D01*
X70187Y227503D01*
X70246D01*
X70320Y227511D01*
X70401Y227525D01*
X70505Y227540D01*
X70608Y227570D01*
X70719Y227607D01*
X70830Y227659D01*
X70845Y227666D01*
X70875Y227688D01*
X70927Y227725D01*
X70986Y227777D01*
X71052Y227836D01*
X71126Y227910D01*
X71186Y227999D01*
X71245Y228095D01*
X71252Y228103D01*
X71260Y228132D01*
X71274Y228184D01*
X71297Y228251D01*
X71319Y228339D01*
X71334Y228443D01*
X71341Y228569D01*
X71348Y228717D01*
X71356Y228954D01*
D02*
G37*
G36*
X62172Y231603D02*
X60959D01*
Y230064D01*
X62217D01*
X62313Y230071D01*
X62417Y230078D01*
X62520Y230086D01*
X62624Y230101D01*
X62705Y230115D01*
X62720Y230123D01*
X62750Y230130D01*
X62794Y230152D01*
X62853Y230182D01*
X62912Y230212D01*
X62979Y230256D01*
X63046Y230315D01*
X63097Y230374D01*
X63105Y230382D01*
X63120Y230404D01*
X63142Y230448D01*
X63164Y230500D01*
X63186Y230559D01*
X63208Y230633D01*
X63223Y230722D01*
X63231Y230818D01*
Y230833D01*
Y230863D01*
X63223Y230907D01*
X63216Y230966D01*
X63201Y231040D01*
X63179Y231114D01*
X63149Y231188D01*
X63105Y231262D01*
X63097Y231270D01*
X63083Y231292D01*
X63053Y231329D01*
X63016Y231366D01*
X62964Y231410D01*
X62905Y231455D01*
X62831Y231499D01*
X62750Y231529D01*
X62742D01*
X62705Y231544D01*
X62653Y231551D01*
X62572Y231566D01*
X62461Y231581D01*
X62335Y231588D01*
X62172Y231603D01*
D02*
G37*
G36*
X62306Y229457D02*
X60959D01*
Y227696D01*
X62417D01*
X62572Y227703D01*
X62639Y227710D01*
X62698Y227718D01*
X62705D01*
X62735Y227725D01*
X62779Y227733D01*
X62831Y227747D01*
X62957Y227792D01*
X63083Y227851D01*
X63090Y227858D01*
X63112Y227873D01*
X63142Y227895D01*
X63179Y227925D01*
X63216Y227969D01*
X63268Y228014D01*
X63305Y228073D01*
X63349Y228140D01*
X63356Y228147D01*
X63364Y228169D01*
X63379Y228214D01*
X63401Y228265D01*
X63423Y228325D01*
X63438Y228399D01*
X63445Y228487D01*
X63453Y228576D01*
Y228591D01*
Y228621D01*
X63445Y228680D01*
X63430Y228746D01*
X63416Y228820D01*
X63386Y228902D01*
X63349Y228983D01*
X63297Y229065D01*
X63290Y229072D01*
X63268Y229102D01*
X63238Y229139D01*
X63194Y229183D01*
X63134Y229235D01*
X63060Y229287D01*
X62979Y229331D01*
X62883Y229368D01*
X62868Y229375D01*
X62838Y229383D01*
X62772Y229398D01*
X62690Y229412D01*
X62587Y229427D01*
X62461Y229442D01*
X62306Y229457D01*
D02*
G37*
G36*
X66501Y230367D02*
X66457D01*
X66420Y230360D01*
X66339Y230352D01*
X66228Y230323D01*
X66102Y230278D01*
X65969Y230219D01*
X65843Y230130D01*
X65776Y230071D01*
X65717Y230012D01*
Y230004D01*
X65702Y229997D01*
X65687Y229975D01*
X65665Y229945D01*
X65643Y229908D01*
X65621Y229864D01*
X65591Y229805D01*
X65562Y229745D01*
X65532Y229671D01*
X65502Y229597D01*
X65480Y229509D01*
X65458Y229412D01*
X65436Y229309D01*
X65421Y229198D01*
X65414Y229072D01*
X65406Y228946D01*
Y228939D01*
Y228917D01*
Y228880D01*
X65414Y228828D01*
Y228769D01*
X65421Y228702D01*
X65443Y228547D01*
X65480Y228369D01*
X65539Y228191D01*
X65613Y228021D01*
X65665Y227947D01*
X65717Y227873D01*
X65724D01*
X65732Y227858D01*
X65776Y227821D01*
X65843Y227762D01*
X65932Y227703D01*
X66043Y227636D01*
X66176Y227577D01*
X66331Y227540D01*
X66413Y227533D01*
X66501Y227525D01*
X66546D01*
X66583Y227533D01*
X66664Y227548D01*
X66775Y227570D01*
X66894Y227614D01*
X67027Y227673D01*
X67153Y227762D01*
X67219Y227821D01*
X67278Y227881D01*
X67286Y227888D01*
X67293Y227895D01*
X67308Y227918D01*
X67330Y227947D01*
X67352Y227984D01*
X67382Y228029D01*
X67412Y228088D01*
X67441Y228147D01*
X67471Y228221D01*
X67493Y228302D01*
X67523Y228391D01*
X67545Y228487D01*
X67567Y228598D01*
X67582Y228709D01*
X67597Y228835D01*
Y228968D01*
Y228976D01*
Y228998D01*
Y229035D01*
X67589Y229079D01*
Y229139D01*
X67582Y229205D01*
X67560Y229361D01*
X67523Y229523D01*
X67463Y229701D01*
X67382Y229864D01*
X67338Y229945D01*
X67278Y230012D01*
Y230019D01*
X67264Y230027D01*
X67219Y230071D01*
X67153Y230123D01*
X67064Y230189D01*
X66953Y230256D01*
X66820Y230315D01*
X66672Y230352D01*
X66590Y230360D01*
X66501Y230367D01*
D02*
G37*
G36*
X35719Y40575D02*
X34509Y38854D01*
X35719D01*
Y40575D01*
D02*
G37*
G36*
X171485Y101707D02*
X170214D01*
Y100564D01*
X170219Y100497D01*
X170225Y100420D01*
X170230Y100331D01*
X170241Y100242D01*
X170258Y100153D01*
X170280Y100076D01*
X170286Y100065D01*
X170297Y100042D01*
X170314Y100009D01*
X170336Y99965D01*
X170369Y99915D01*
X170408Y99865D01*
X170458Y99815D01*
X170513Y99776D01*
X170519Y99770D01*
X170541Y99759D01*
X170574Y99743D01*
X170619Y99721D01*
X170669Y99704D01*
X170724Y99687D01*
X170791Y99676D01*
X170858Y99671D01*
X170863D01*
X170869D01*
X170902Y99676D01*
X170952Y99682D01*
X171018Y99693D01*
X171085Y99721D01*
X171163Y99754D01*
X171235Y99804D01*
X171307Y99870D01*
X171313Y99881D01*
X171335Y99909D01*
X171362Y99954D01*
X171396Y100026D01*
X171429Y100109D01*
X171457Y100220D01*
X171479Y100348D01*
X171485Y100497D01*
Y101707D01*
D02*
G37*
G36*
X58693Y103454D02*
X57794Y102555D01*
X58602Y101747D01*
X58654Y101704D01*
X58712Y101653D01*
X58779Y101594D01*
X58850Y101539D01*
X58924Y101488D01*
X58995Y101449D01*
X59007Y101445D01*
X59030Y101437D01*
X59066Y101425D01*
X59113Y101409D01*
X59172Y101398D01*
X59234Y101390D01*
X59305D01*
X59372Y101401D01*
X59380D01*
X59403Y101409D01*
X59438Y101421D01*
X59486Y101437D01*
X59533Y101460D01*
X59584Y101488D01*
X59639Y101527D01*
X59690Y101570D01*
X59693Y101574D01*
X59698Y101578D01*
X59717Y101605D01*
X59749Y101645D01*
X59788Y101700D01*
X59815Y101766D01*
X59847Y101845D01*
X59862Y101931D01*
X59866Y102029D01*
X59862Y102041D01*
X59858Y102076D01*
X59847Y102127D01*
X59819Y102202D01*
X59784Y102284D01*
X59725Y102383D01*
X59650Y102489D01*
X59548Y102598D01*
X58693Y103454D01*
D02*
G37*
G36*
X63516Y98450D02*
X63457Y98446D01*
X63394Y98438D01*
X63390Y98435D01*
X63375D01*
X63351Y98427D01*
X63320Y98419D01*
X63276Y98399D01*
X63226Y98380D01*
X63171Y98348D01*
X63104Y98313D01*
X63029Y98270D01*
X62947Y98219D01*
X62857Y98160D01*
X62762Y98089D01*
X62656Y98007D01*
X62547Y97913D01*
X62433Y97807D01*
X62307Y97689D01*
X62299Y97681D01*
X62280Y97661D01*
X62244Y97626D01*
X62201Y97575D01*
X62150Y97524D01*
X62091Y97457D01*
X62029Y97387D01*
X61966Y97308D01*
X61832Y97136D01*
X61770Y97049D01*
X61715Y96963D01*
X61664Y96880D01*
X61624Y96794D01*
X61593Y96716D01*
X61573Y96641D01*
X61569Y96637D01*
X61573Y96625D01*
X61566Y96578D01*
Y96508D01*
X61569Y96425D01*
X61589Y96327D01*
X61620Y96225D01*
X61668Y96123D01*
X61703Y96080D01*
X61742Y96033D01*
X61766Y96009D01*
X61785Y95997D01*
X61832Y95966D01*
X61903Y95927D01*
X61989Y95895D01*
X62095Y95868D01*
X62150Y95860D01*
X62213D01*
X62276D01*
X62347Y95868D01*
X62350Y95872D01*
X62366D01*
X62386Y95876D01*
X62413Y95888D01*
X62456Y95899D01*
X62503Y95923D01*
X62558Y95946D01*
X62621Y95978D01*
X62692Y96025D01*
X62770Y96072D01*
X62861Y96131D01*
X62951Y96198D01*
X63053Y96284D01*
X63159Y96374D01*
X63276Y96476D01*
X63398Y96598D01*
X63402Y96602D01*
X63406Y96606D01*
X63426Y96625D01*
X63461Y96661D01*
X63504Y96712D01*
X63555Y96763D01*
X63614Y96829D01*
X63677Y96900D01*
X63744Y96983D01*
X63873Y97151D01*
X63936Y97238D01*
X63991Y97324D01*
X64042Y97406D01*
X64081Y97493D01*
X64113Y97571D01*
X64132Y97646D01*
X64136Y97650D01*
X64132Y97661D01*
X64136Y97681D01*
X64140Y97708D01*
Y97779D01*
Y97865D01*
X64120Y97964D01*
X64089Y98066D01*
X64069Y98117D01*
X64042Y98168D01*
X64003Y98215D01*
X63963Y98262D01*
X63940Y98285D01*
X63920Y98297D01*
X63869Y98333D01*
X63806Y98372D01*
X63724Y98407D01*
X63626Y98435D01*
X63571Y98442D01*
X63516Y98450D01*
D02*
G37*
G36*
X90474Y67400D02*
X90439Y67396D01*
X90376Y67389D01*
X90297Y67365D01*
X90211Y67334D01*
X90109Y67287D01*
X90011Y67220D01*
X89909Y67134D01*
X89901Y67126D01*
X89881Y67106D01*
X89850Y67067D01*
X89811Y67020D01*
X89768Y66961D01*
X89728Y66890D01*
X89685Y66816D01*
X89650Y66733D01*
X89646Y66721D01*
X89638Y66690D01*
X89626Y66647D01*
X89614Y66588D01*
X89607Y66525D01*
X89599Y66447D01*
X89603Y66372D01*
X89614Y66290D01*
X89618Y66278D01*
X89626Y66255D01*
X89638Y66211D01*
X89662Y66164D01*
X89685Y66109D01*
X89717Y66047D01*
X89760Y65988D01*
X89811Y65929D01*
X89830Y65909D01*
X89850Y65897D01*
X89893Y65862D01*
X89956Y65823D01*
X90035Y65791D01*
X90125Y65756D01*
X90231Y65737D01*
X90286Y65729D01*
X90345Y65733D01*
X90348Y65737D01*
X90360Y65733D01*
X90399Y65740D01*
X90462Y65756D01*
X90545Y65776D01*
X90639Y65815D01*
X90741Y65870D01*
X90847Y65944D01*
X90961Y66043D01*
X90965Y66047D01*
X90972Y66054D01*
X90988Y66070D01*
X91004Y66094D01*
X91027Y66117D01*
X91051Y66149D01*
X91102Y66223D01*
X91157Y66309D01*
X91204Y66412D01*
X91235Y66521D01*
X91251Y66639D01*
Y66655D01*
Y66694D01*
X91243Y66749D01*
X91231Y66824D01*
X91208Y66910D01*
X91169Y66996D01*
X91114Y67090D01*
X91039Y67181D01*
X91016Y67204D01*
X90996Y67216D01*
X90953Y67251D01*
X90886Y67295D01*
X90808Y67334D01*
X90710Y67369D01*
X90607Y67393D01*
X90490Y67400D01*
X90474D01*
D02*
G37*
G36*
X160053Y175378D02*
X159994Y175374D01*
X159932Y175366D01*
X159928Y175362D01*
X159912D01*
X159888Y175354D01*
X159857Y175346D01*
X159814Y175327D01*
X159763Y175307D01*
X159708Y175276D01*
X159641Y175240D01*
X159567Y175197D01*
X159484Y175146D01*
X159394Y175087D01*
X159300Y175016D01*
X159194Y174934D01*
X159084Y174840D01*
X158970Y174734D01*
X158844Y174616D01*
X158837Y174608D01*
X158817Y174589D01*
X158782Y174554D01*
X158739Y174502D01*
X158687Y174451D01*
X158629Y174385D01*
X158566Y174314D01*
X158503Y174236D01*
X158370Y174063D01*
X158307Y173977D01*
X158252Y173890D01*
X158201Y173808D01*
X158162Y173722D01*
X158130Y173643D01*
X158111Y173568D01*
X158107Y173565D01*
X158111Y173553D01*
X158103Y173506D01*
Y173435D01*
X158107Y173353D01*
X158126Y173255D01*
X158158Y173152D01*
X158205Y173050D01*
X158240Y173007D01*
X158279Y172960D01*
X158303Y172937D01*
X158323Y172925D01*
X158370Y172893D01*
X158440Y172854D01*
X158527Y172823D01*
X158633Y172795D01*
X158687Y172787D01*
X158750D01*
X158813D01*
X158884Y172795D01*
X158888Y172799D01*
X158903D01*
X158923Y172803D01*
X158950Y172815D01*
X158994Y172827D01*
X159041Y172850D01*
X159096Y172874D01*
X159158Y172905D01*
X159229Y172952D01*
X159308Y172999D01*
X159398Y173058D01*
X159488Y173125D01*
X159590Y173211D01*
X159696Y173302D01*
X159814Y173404D01*
X159935Y173525D01*
X159939Y173529D01*
X159943Y173533D01*
X159963Y173553D01*
X159998Y173588D01*
X160041Y173639D01*
X160092Y173690D01*
X160151Y173757D01*
X160214Y173827D01*
X160281Y173910D01*
X160410Y174079D01*
X160473Y174165D01*
X160528Y174251D01*
X160579Y174334D01*
X160618Y174420D01*
X160650Y174498D01*
X160669Y174573D01*
X160673Y174577D01*
X160669Y174589D01*
X160673Y174608D01*
X160677Y174636D01*
Y174706D01*
Y174793D01*
X160658Y174891D01*
X160626Y174993D01*
X160607Y175044D01*
X160579Y175095D01*
X160540Y175142D01*
X160501Y175189D01*
X160477Y175213D01*
X160457Y175224D01*
X160406Y175260D01*
X160344Y175299D01*
X160261Y175334D01*
X160163Y175362D01*
X160108Y175370D01*
X160053Y175378D01*
D02*
G37*
G36*
X95918Y71456D02*
X95883Y71452D01*
X95820Y71444D01*
X95742Y71421D01*
X95655Y71389D01*
X95553Y71342D01*
X95455Y71276D01*
X95353Y71189D01*
X95345Y71181D01*
X95326Y71162D01*
X95294Y71122D01*
X95255Y71075D01*
X95212Y71017D01*
X95173Y70946D01*
X95130Y70871D01*
X95094Y70789D01*
X95090Y70777D01*
X95082Y70746D01*
X95071Y70703D01*
X95059Y70644D01*
X95051Y70581D01*
X95043Y70502D01*
X95047Y70428D01*
X95059Y70345D01*
X95063Y70334D01*
X95071Y70310D01*
X95082Y70267D01*
X95106Y70220D01*
X95130Y70165D01*
X95161Y70102D01*
X95204Y70043D01*
X95255Y69984D01*
X95275Y69965D01*
X95294Y69953D01*
X95337Y69918D01*
X95400Y69879D01*
X95479Y69847D01*
X95569Y69812D01*
X95675Y69792D01*
X95730Y69784D01*
X95789Y69788D01*
X95793Y69792D01*
X95805Y69788D01*
X95844Y69796D01*
X95907Y69812D01*
X95989Y69831D01*
X96083Y69871D01*
X96185Y69926D01*
X96291Y70000D01*
X96405Y70098D01*
X96409Y70102D01*
X96417Y70110D01*
X96432Y70126D01*
X96448Y70149D01*
X96472Y70173D01*
X96495Y70204D01*
X96546Y70279D01*
X96601Y70365D01*
X96648Y70467D01*
X96680Y70577D01*
X96695Y70695D01*
Y70710D01*
Y70750D01*
X96688Y70805D01*
X96676Y70879D01*
X96652Y70965D01*
X96613Y71052D01*
X96558Y71146D01*
X96483Y71236D01*
X96460Y71260D01*
X96440Y71272D01*
X96397Y71307D01*
X96330Y71350D01*
X96252Y71389D01*
X96154Y71425D01*
X96052Y71448D01*
X95934Y71456D01*
X95918D01*
D02*
G37*
G36*
X162934Y101537D02*
Y100327D01*
X164654D01*
X162934Y101537D01*
D02*
G37*
%LPD*%
D10*
X53902Y136500D02*
X53299Y136848D01*
Y136152D01*
X53902Y136500D01*
X152059Y113475D02*
X151459Y113821D01*
Y113128D01*
X152059Y113475D01*
X43000Y191000D02*
X42500Y191866D01*
X41500D01*
X41000Y191000D01*
X41500Y190134D01*
X42500D01*
X43000Y191000D01*
X42492D02*
X41754Y191426D01*
Y190574D01*
X42492Y191000D01*
X192000Y180000D02*
X191500Y180866D01*
X190500D01*
X190000Y180000D01*
X190500Y179134D01*
X191500D01*
X192000Y180000D01*
X191492D02*
X190754Y180426D01*
Y179574D01*
X191492Y180000D01*
X22000D02*
X21500Y180866D01*
X20500D01*
X20000Y180000D01*
X20500Y179134D01*
X21500D01*
X22000Y180000D01*
X21492D02*
X20754Y180426D01*
Y179574D01*
X21492Y180000D01*
X43000Y21000D02*
X42500Y21866D01*
X41500D01*
X41000Y21000D01*
X41500Y20134D01*
X42500D01*
X43000Y21000D01*
X42492D02*
X41754Y21426D01*
Y20574D01*
X42492Y21000D01*
X142570Y176426D02*
X177926Y141070D01*
X128075Y161930D02*
X163430Y126575D01*
X109586Y67872D02*
X111000Y66458D01*
X112414Y67872D01*
X66458Y111000D02*
X67872Y112414D01*
X66458Y111000D02*
X67872Y109586D01*
X111000Y155542D02*
X112414Y154128D01*
X109586D02*
X111000Y155542D01*
X154128Y109586D02*
X155542Y111000D01*
X154128Y112414D02*
X155542Y111000D01*
X177000Y185000D02*
Y207000D01*
X45000Y185000D02*
Y207000D01*
X177000D01*
X45000Y185000D02*
X177000D01*
X185000Y45000D02*
X207000D01*
X185000Y177000D02*
X207000D01*
Y45000D02*
Y177000D01*
X185000Y45000D02*
Y177000D01*
X15000Y45000D02*
X37000D01*
X15000Y177000D02*
X37000D01*
Y45000D02*
Y177000D01*
X15000Y45000D02*
Y177000D01*
X177000Y15000D02*
Y37000D01*
X45000Y15000D02*
Y37000D01*
X177000D01*
X45000Y15000D02*
X177000D01*
D11*
X67874Y138126D02*
X68874D01*
Y139126D01*
Y152874D02*
Y153874D01*
X67874D02*
X68874D01*
X53126D02*
X54126D01*
X53126Y152874D02*
Y153874D01*
Y138126D02*
Y139126D01*
Y138126D02*
X54126D01*
D12*
X27835Y17638D02*
Y34362D01*
Y17638D02*
X34165D01*
X27835Y34362D02*
X34165D01*
Y17638D02*
Y34362D01*
X187835Y17638D02*
Y34362D01*
Y17638D02*
X194165D01*
X187835Y34362D02*
X194165D01*
Y17638D02*
Y34362D01*
Y187638D02*
Y204362D01*
X187835D02*
X194165D01*
X187835Y187638D02*
X194165D01*
X187835D02*
Y204362D01*
X34165Y187638D02*
Y204362D01*
X27835D02*
X34165D01*
X27835Y187638D02*
X34165D01*
X27835D02*
Y204362D01*
X57752Y116893D02*
X67607Y126748D01*
X57752Y116893D02*
X61393Y113252D01*
X67607Y126748D02*
X71248Y123107D01*
X61393Y113252D02*
X71248Y123107D01*
X52752Y121893D02*
X62607Y131748D01*
X52752Y121893D02*
X56393Y118252D01*
X62607Y131748D02*
X66248Y128107D01*
X56393Y118252D02*
X66248Y128107D01*
X170893Y158248D02*
X180748Y148393D01*
X167252Y154607D02*
X170893Y158248D01*
X177107Y144752D02*
X180748Y148393D01*
X167252Y154607D02*
X177107Y144752D01*
X146252Y175607D02*
X156107Y165752D01*
X159748Y169393D01*
X146252Y175607D02*
X149893Y179248D01*
X159748Y169393D01*
X91252Y63107D02*
X101107Y53252D01*
X104748Y56893D01*
X91252Y63107D02*
X94893Y66748D01*
X104748Y56893D01*
M02*
