G04*
G04 #@! TF.GenerationSoftware,Altium Limited,Altium Designer,22.9.1 (49)*
G04*
G04 Layer_Color=16776960*
%FSLAX25Y25*%
%MOIN*%
G70*
G04*
G04 #@! TF.SameCoordinates,8D4C7E38-BABD-4712-AC01-C6420393E34D*
G04*
G04*
G04 #@! TF.FilePolarity,Positive*
G04*
G01*
G75*
%ADD10C,0.01000*%
%ADD59C,0.00100*%
D10*
X53902Y136500D02*
X53299Y136848D01*
Y136152D01*
X53902Y136500D01*
X152059Y113475D02*
X151459Y113821D01*
Y113128D01*
X152059Y113475D01*
X32500Y108000D02*
X34499D01*
X33500D01*
Y113998D01*
X32500Y112998D01*
X120499Y23000D02*
X116500D01*
X120499Y26999D01*
Y27998D01*
X119499Y28998D01*
X117500D01*
X116500Y27998D01*
X201500Y112998D02*
X202500Y113998D01*
X204499D01*
X205499Y112998D01*
Y111999D01*
X204499Y110999D01*
X203499D01*
X204499D01*
X205499Y109999D01*
Y109000D01*
X204499Y108000D01*
X202500D01*
X201500Y109000D01*
X119499Y193000D02*
Y198998D01*
X116500Y195999D01*
X120499D01*
D59*
X53126Y138126D02*
Y153874D01*
X68874D01*
Y138126D02*
Y153874D01*
X53126Y138126D02*
X68874D01*
X39850Y181575D02*
X46150D01*
X43000Y179500D02*
Y180500D01*
X42500Y180000D02*
X43500D01*
X39850Y178425D02*
Y181575D01*
X46150Y178425D02*
Y181575D01*
X39850Y178425D02*
X46150D01*
X100646Y66854D02*
X101354Y66146D01*
X100646D02*
X101354Y66854D01*
X98912Y67196D02*
X100304Y68588D01*
X103088Y65804D01*
X101696Y64412D02*
X103088Y65804D01*
X98912Y67196D02*
X101696Y64412D01*
X28539Y22063D02*
Y29937D01*
X30500Y26000D02*
X31500D01*
X31000Y25500D02*
Y26500D01*
X28539Y22063D02*
X33461D01*
X28539Y29937D02*
X33461D01*
Y22063D02*
Y29937D01*
X188539Y22063D02*
Y29937D01*
X190500Y26000D02*
X191500D01*
X191000Y25500D02*
Y26500D01*
X188539Y22063D02*
X193461D01*
X188539Y29937D02*
X193461D01*
Y22063D02*
Y29937D01*
Y192063D02*
Y199937D01*
X190500Y196000D02*
X191500D01*
X191000Y195500D02*
Y196500D01*
X188539Y199937D02*
X193461D01*
X188539Y192063D02*
X193461D01*
X188539D02*
Y199937D01*
X33461Y192063D02*
Y199937D01*
X30500Y196000D02*
X31500D01*
X31000Y195500D02*
Y196500D01*
X28539Y199937D02*
X33461D01*
X28539Y192063D02*
X33461D01*
X28539D02*
Y199937D01*
X90646Y149854D02*
X91353Y149146D01*
X90646D02*
X91353Y149854D01*
X91696Y147412D02*
X93088Y148804D01*
X88912Y150196D02*
X91696Y147412D01*
X88912Y150196D02*
X90304Y151588D01*
X93088Y148804D01*
X61159Y118886D02*
X65614Y123341D01*
X61159Y118886D02*
X63386Y116659D01*
X65614Y123341D02*
X67841Y121114D01*
X64147Y119647D02*
X64854Y120353D01*
X64147D02*
X64854Y119647D01*
X63386Y116659D02*
X67841Y121114D01*
X53912Y112696D02*
X56696Y109912D01*
X58088Y111304D01*
X55304Y114088D02*
X58088Y111304D01*
X53912Y112696D02*
X55304Y114088D01*
X55647Y111646D02*
X56353Y112354D01*
X55647D02*
X56353Y111646D01*
X71804Y129412D02*
X74588Y132196D01*
X73196Y133588D02*
X74588Y132196D01*
X70412Y130804D02*
X73196Y133588D01*
X70412Y130804D02*
X71804Y129412D01*
X72146Y131853D02*
X72853Y131147D01*
X72146D02*
X72853Y131853D01*
X56159Y123886D02*
X60614Y128341D01*
X56159Y123886D02*
X58386Y121659D01*
X60614Y128341D02*
X62841Y126114D01*
X59146Y124646D02*
X59854Y125354D01*
X59146D02*
X59854Y124646D01*
X58386Y121659D02*
X62841Y126114D01*
X62647Y105353D02*
X63354Y104647D01*
X62647D02*
X63354Y105353D01*
X60912Y105696D02*
X62304Y107088D01*
X65088Y104304D01*
X63696Y102912D02*
X65088Y104304D01*
X60912Y105696D02*
X63696Y102912D01*
X172886Y154841D02*
X177341Y150386D01*
X170659Y152614D02*
X172886Y154841D01*
X175114Y148159D02*
X177341Y150386D01*
X173646Y151854D02*
X174354Y151146D01*
X173646D02*
X174354Y151854D01*
X170659Y152614D02*
X175114Y148159D01*
X149659Y173614D02*
X154114Y169159D01*
X156341Y171386D01*
X149659Y173614D02*
X151886Y175841D01*
X152647Y172854D02*
X153354Y172146D01*
X152647D02*
X153354Y172854D01*
X151886Y175841D02*
X156341Y171386D01*
X128412Y147304D02*
X131196Y150088D01*
X128412Y147304D02*
X129804Y145912D01*
X132588Y148696D01*
X131196Y150088D02*
X132588Y148696D01*
X130147Y148354D02*
X130853Y147646D01*
X130147D02*
X130853Y148354D01*
X102912Y158304D02*
X105696Y161088D01*
X102912Y158304D02*
X104304Y156912D01*
X107088Y159696D01*
X105696Y161088D02*
X107088Y159696D01*
X104647Y159353D02*
X105353Y158647D01*
X104647D02*
X105353Y159353D01*
X94659Y61114D02*
X99114Y56659D01*
X101341Y58886D01*
X94659Y61114D02*
X96886Y63341D01*
X97646Y60353D02*
X98353Y59646D01*
X97646D02*
X98353Y60353D01*
X96886Y63341D02*
X101341Y58886D01*
X164137Y127282D02*
X177218Y140363D01*
X128782Y162637D02*
X164137Y127282D01*
X128782Y162637D02*
X141863Y175718D01*
X177218Y140363D01*
X151232Y149732D02*
X154768Y153268D01*
X151232D02*
X154768Y149732D01*
X142304Y135088D02*
X145088Y132304D01*
X140912Y133696D02*
X142304Y135088D01*
X140912Y133696D02*
X143696Y130912D01*
X145088Y132304D01*
X142647Y132647D02*
X143353Y133353D01*
X142647D02*
X143353Y132647D01*
X125304Y150412D02*
X128088Y153196D01*
X126696Y154588D02*
X128088Y153196D01*
X123912Y151804D02*
X126696Y154588D01*
X123912Y151804D02*
X125304Y150412D01*
X125646Y152854D02*
X126354Y152146D01*
X125646D02*
X126354Y152854D01*
X162516Y109031D02*
Y112969D01*
Y109031D02*
X164484D01*
Y112969D01*
X162516D02*
X164484D01*
X163000Y111000D02*
X164000D01*
X163500Y110500D02*
Y111500D01*
X170000Y110500D02*
Y111500D01*
X169500Y111000D02*
X170500D01*
X169016Y109031D02*
X170984D01*
X169016D02*
Y112969D01*
X170984D01*
Y109031D02*
Y112969D01*
X82647Y145647D02*
X83354Y146353D01*
X82647D02*
X83354Y145647D01*
X83696Y148088D02*
X85088Y146696D01*
X82304Y143912D02*
X85088Y146696D01*
X80912Y145304D02*
X82304Y143912D01*
X80912Y145304D02*
X83696Y148088D01*
X87147Y141147D02*
X87853Y141853D01*
X87147D02*
X87853Y141147D01*
X88196Y143588D02*
X89588Y142196D01*
X86804Y139412D02*
X89588Y142196D01*
X85412Y140804D02*
X86804Y139412D01*
X85412Y140804D02*
X88196Y143588D01*
X111804Y164412D02*
X114588Y167196D01*
X113196Y168588D02*
X114588Y167196D01*
X110412Y165804D02*
X113196Y168588D01*
X110412Y165804D02*
X111804Y164412D01*
X112146Y166853D02*
X112854Y166147D01*
X112146D02*
X112854Y166853D01*
X116647Y161646D02*
X117353Y162354D01*
X116647D02*
X117353Y161646D01*
X117696Y164088D02*
X119088Y162696D01*
X116304Y159912D02*
X119088Y162696D01*
X114912Y161304D02*
X116304Y159912D01*
X114912Y161304D02*
X117696Y164088D01*
X41032Y133016D02*
X44969D01*
Y134984D01*
X41032D02*
X44969D01*
X41032Y133016D02*
Y134984D01*
X43000Y133500D02*
Y134500D01*
X42500Y134000D02*
X43500D01*
X72109Y111000D02*
X111000Y149891D01*
X72109Y111000D02*
X111000Y72109D01*
X149891Y111000D01*
X110293Y111707D02*
X111707Y110293D01*
X110293D02*
X111707Y111707D01*
X111000Y149891D02*
X149891Y111000D01*
X110500Y196000D02*
X111500D01*
X111000Y195500D02*
Y196500D01*
X46000Y186000D02*
X176000D01*
Y206000D01*
X46000D02*
X176000D01*
X46000Y186000D02*
Y206000D01*
X196000Y110500D02*
Y111500D01*
X195500Y111000D02*
X196500D01*
X186000Y46000D02*
Y176000D01*
Y46000D02*
X206000D01*
Y176000D01*
X186000D02*
X206000D01*
X26000Y110500D02*
Y111500D01*
X25500Y111000D02*
X26500D01*
X16000Y46000D02*
Y176000D01*
Y46000D02*
X36000D01*
Y176000D01*
X16000D02*
X36000D01*
X110500Y26000D02*
X111500D01*
X111000Y25500D02*
Y26500D01*
X46000Y16000D02*
X176000D01*
Y36000D01*
X46000D02*
X176000D01*
X46000Y16000D02*
Y36000D01*
X111000Y109000D02*
Y113000D01*
X109000Y111000D02*
X113000D01*
X109000Y196000D02*
X113000D01*
X111000Y194000D02*
Y198000D01*
X109000Y26000D02*
X113000D01*
X111000Y24000D02*
Y28000D01*
X196000Y109000D02*
Y113000D01*
X194000Y111000D02*
X198000D01*
X26000Y109000D02*
Y113000D01*
X24000Y111000D02*
X28000D01*
X50516Y170531D02*
Y174469D01*
Y170531D02*
X52484D01*
Y174469D01*
X50516D02*
X52484D01*
X51000Y172500D02*
X52000D01*
X51500Y172000D02*
Y173000D01*
X57016Y170531D02*
Y174469D01*
Y170531D02*
X58984D01*
Y174469D01*
X57016D02*
X58984D01*
X57500Y172500D02*
X58500D01*
X58000Y172000D02*
Y173000D01*
X63516Y170531D02*
Y174469D01*
Y170531D02*
X65484D01*
Y174469D01*
X63516D02*
X65484D01*
X64000Y172500D02*
X65000D01*
X64500Y172000D02*
Y173000D01*
X41032Y140016D02*
X44969D01*
Y141984D01*
X41032D02*
X44969D01*
X41032Y140016D02*
Y141984D01*
X43000Y140500D02*
Y141500D01*
X42500Y141000D02*
X43500D01*
M02*
