G04*
G04 #@! TF.GenerationSoftware,Altium Limited,Altium Designer,22.8.2 (66)*
G04*
G04 Layer_Color=16711935*
%FSLAX25Y25*%
%MOIN*%
G70*
G04*
G04 #@! TF.SameCoordinates,5222FF82-13DF-4D67-8A3D-296B4DE4B60E*
G04*
G04*
G04 #@! TF.FilePolarity,Positive*
G04*
G01*
G75*
%ADD59C,0.02000*%
D59*
X222000Y212000D02*
X221952Y212980D01*
X221808Y213951D01*
X221569Y214903D01*
X221239Y215827D01*
X220819Y216714D01*
X220315Y217556D01*
X219730Y218344D01*
X219071Y219071D01*
X218344Y219730D01*
X217556Y220315D01*
X216714Y220819D01*
X215827Y221239D01*
X214903Y221569D01*
X213951Y221808D01*
X212980Y221952D01*
X212000Y222000D01*
Y0D02*
X212980Y48D01*
X213951Y192D01*
X214903Y431D01*
X215827Y761D01*
X216714Y1181D01*
X217556Y1685D01*
X218344Y2270D01*
X219071Y2929D01*
X219730Y3656D01*
X220315Y4444D01*
X220819Y5286D01*
X221239Y6173D01*
X221569Y7097D01*
X221808Y8049D01*
X221952Y9020D01*
X222000Y10000D01*
X0D02*
X48Y9020D01*
X192Y8049D01*
X431Y7097D01*
X761Y6173D01*
X1181Y5286D01*
X1685Y4444D01*
X2270Y3656D01*
X2929Y2929D01*
X3656Y2270D01*
X4444Y1685D01*
X5286Y1181D01*
X6173Y761D01*
X7097Y431D01*
X8049Y192D01*
X9020Y48D01*
X10000Y0D01*
X-0Y10000D02*
X0Y222000D01*
X10000Y-0D02*
X212000Y0D01*
X222000Y10000D02*
X222000Y212000D01*
X94000Y222000D02*
X212000D01*
X94000D02*
Y240500D01*
X0D02*
X94000D01*
X0Y222000D02*
Y240500D01*
M02*
