M48
;Layer_Color=9474304
;FILE_FORMAT=2:4
INCH,TZ
;TYPE=PLATED
T1F00S00C0.0118
T2F00S00C0.0400
%
T01
X15600Y4250
X16650Y5500
X17000
X18000Y7600
X17000Y10450
X15850Y10250
X15500
X15900Y11300
X14450Y10800
X13900Y11400
X13600Y11450
X13550Y11750
X13250Y11800
X13200Y12100
X12900Y10200
X12450Y9750
X12000Y9300
X11250Y8750
X11200Y8450
X10900Y8400
X10800Y7750
X10650Y10650
X11100Y11100
X11550Y11550
X8800
X8500Y11500
X8450Y11200
X8850Y11850
X9150Y11900
X9200Y12200
X8750Y10250
X7750Y10800
X6750Y10650
X6950Y10300
X6750Y11250
X5700Y11750
X5550Y10450
X4750Y4750
X4400
X9450
X9800
X9750Y5400
X10600Y2600
X11600
X7600
X7250Y12350
X6550Y13250
X6250Y13350
X6400Y14300
Y14600
Y14900
X6100
X5800
Y14600
Y14300
X6100
Y14600
X7550
X8050Y15050
Y13450
X10300Y13550
X10250Y13250
X10200Y12950
X9900Y12900
X9850Y12600
X9550Y12550
X9500Y12250
X11100Y13300
X11450
X11550Y13750
X11900Y13400
X11950Y13100
X11200Y14100
X10650Y14300
X10800Y15150
X11400Y15450
X11100Y15800
X9650Y16000
X10500Y16900
X11850Y17900
X12150Y18100
X7550Y18000
X6450Y17900
X5800
X5150
X4000Y18650
Y19000
X4900Y16000
X6450
X3800Y14950
X2600Y15600
X4900Y13750
X4500Y12900
X12300Y12750
X12600Y12700
X12950Y15150
X12250Y15750
X12500Y16000
X12450Y18300
X12600Y19600
X13600
X17400Y17750
X17750
X16250Y16250
X16500Y16000
X19600Y13600
T02
X13100Y2100
X14100
X15100
X16100
X17100
Y3100
X16100
X15100
X14100
X13100
X19100Y5100
Y6100
Y7100
Y8100
Y9100
Y10100
Y11100
Y12100
X20100
Y11100
Y10100
Y9100
Y8100
Y7100
Y6100
Y5100
X12100Y3100
Y2100
X11100
X10100
X9100
X8100
X7100
X6100
X5100
Y3100
X6100
X7100
X8100
X9100
X10100
X11100
X3100Y5100
X2100
Y6100
Y7100
Y8100
Y9100
Y10100
Y11100
Y12100
X3100
Y11100
Y10100
Y9100
Y8100
Y7100
Y6100
Y13100
X2100
Y14100
Y15100
Y16100
Y17100
X3100
Y16100
Y15100
Y14100
X5100Y19100
Y20100
X6100
Y19100
X7100
X8100
X9100
X10100
X11100
X12100
Y20100
X11100
X10100
X9100
X8100
X7100
X13100
Y19100
X14100
X15100
X16100
X17100
Y20100
X16100
X15100
X14100
X19100Y17100
X20100
Y16100
X19100
Y15100
Y14100
Y13100
X20100
Y14100
Y15100
M30
