<?xml version="1.0" encoding="UTF-8" standalone="no"?>
<!-- Created with Inkscape (http://www.inkscape.org/) -->

<svg
   xmlns:ns0="http://www.iki.fi/pav/software/textext/"
   xmlns:dc="http://purl.org/dc/elements/1.1/"
   xmlns:cc="http://creativecommons.org/ns#"
   xmlns:rdf="http://www.w3.org/1999/02/22-rdf-syntax-ns#"
   xmlns:svg="http://www.w3.org/2000/svg"
   xmlns="http://www.w3.org/2000/svg"
   xmlns:sodipodi="http://sodipodi.sourceforge.net/DTD/sodipodi-0.dtd"
   xmlns:inkscape="http://www.inkscape.org/namespaces/inkscape"
   width="266.59872mm"
   height="172.85722mm"
   viewBox="0 0 266.59872 172.85723"
   version="1.1"
   id="svg8"
   inkscape:version="0.92.4 (5da689c313, 2019-01-14)"
   sodipodi:docname="Fuente3V3.svg"
   inkscape:export-filename="C:\Users\Marcelo\Documents\GitHub\DisenioBJAM\Hito 3\Leandro\Fuente3V3.png"
   inkscape:export-xdpi="600"
   inkscape:export-ydpi="600">
  <defs
     id="defs2">
    <marker
       inkscape:isstock="true"
       style="overflow:visible"
       id="marker6194"
       refX="0"
       refY="0"
       orient="auto"
       inkscape:stockid="DotS">
      <path
         inkscape:connector-curvature="0"
         transform="matrix(0.2,0,0,0.2,1.48,0.2)"
         style="fill:#000000;fill-opacity:1;fill-rule:evenodd;stroke:#000000;stroke-width:1.00000003pt;stroke-opacity:1"
         d="m -2.5,-1 c 0,2.76 -2.24,5 -5,5 -2.76,0 -5,-2.24 -5,-5 0,-2.76 2.24,-5 5,-5 2.76,0 5,2.24 5,5 z"
         id="path6192" />
    </marker>
    <marker
       inkscape:stockid="DotS"
       orient="auto"
       refY="0"
       refX="0"
       id="marker6142"
       style="overflow:visible"
       inkscape:isstock="true">
      <path
         id="path6140"
         d="m -2.5,-1 c 0,2.76 -2.24,5 -5,5 -2.76,0 -5,-2.24 -5,-5 0,-2.76 2.24,-5 5,-5 2.76,0 5,2.24 5,5 z"
         style="fill:#000000;fill-opacity:1;fill-rule:evenodd;stroke:#000000;stroke-width:1.00000003pt;stroke-opacity:1"
         transform="matrix(0.2,0,0,0.2,1.48,0.2)"
         inkscape:connector-curvature="0" />
    </marker>
    <marker
       inkscape:stockid="DotS"
       orient="auto"
       refY="0"
       refX="0"
       id="marker6118"
       style="overflow:visible"
       inkscape:isstock="true">
      <path
         id="path5922"
         d="m -2.5,-1 c 0,2.76 -2.24,5 -5,5 -2.76,0 -5,-2.24 -5,-5 0,-2.76 2.24,-5 5,-5 2.76,0 5,2.24 5,5 z"
         style="fill:#000000;fill-opacity:1;fill-rule:evenodd;stroke:#000000;stroke-width:1.00000003pt;stroke-opacity:1"
         transform="matrix(0.2,0,0,0.2,1.48,0.2)"
         inkscape:connector-curvature="0" />
    </marker>
    <marker
       inkscape:isstock="true"
       style="overflow:visible"
       id="marker7220"
       refX="0"
       refY="0"
       orient="auto"
       inkscape:stockid="DotS">
      <path
         transform="matrix(0.2,0,0,0.2,1.48,0.2)"
         style="fill:#000000;fill-opacity:1;fill-rule:evenodd;stroke:#000000;stroke-width:1.00000003pt;stroke-opacity:1"
         d="m -2.5,-1 c 0,2.76 -2.24,5 -5,5 -2.76,0 -5,-2.24 -5,-5 0,-2.76 2.24,-5 5,-5 2.76,0 5,2.24 5,5 z"
         id="path7218"
         inkscape:connector-curvature="0" />
    </marker>
    <marker
       inkscape:isstock="true"
       style="overflow:visible"
       id="marker6764"
       refX="0"
       refY="0"
       orient="auto"
       inkscape:stockid="DotS">
      <path
         transform="matrix(0.2,0,0,0.2,1.48,0.2)"
         style="fill:#000000;fill-opacity:1;fill-rule:evenodd;stroke:#000000;stroke-width:1.00000003pt;stroke-opacity:1"
         d="m -2.5,-1 c 0,2.76 -2.24,5 -5,5 -2.76,0 -5,-2.24 -5,-5 0,-2.76 2.24,-5 5,-5 2.76,0 5,2.24 5,5 z"
         id="path6762"
         inkscape:connector-curvature="0" />
    </marker>
    <marker
       inkscape:stockid="DotS"
       orient="auto"
       refY="0"
       refX="0"
       id="marker5971"
       style="overflow:visible"
       inkscape:isstock="true"
       inkscape:collect="always">
      <path
         id="path5969"
         d="m -2.5,-1 c 0,2.76 -2.24,5 -5,5 -2.76,0 -5,-2.24 -5,-5 0,-2.76 2.24,-5 5,-5 2.76,0 5,2.24 5,5 z"
         style="fill:#000000;fill-opacity:1;fill-rule:evenodd;stroke:#000000;stroke-width:1.00000003pt;stroke-opacity:1"
         transform="matrix(0.2,0,0,0.2,1.48,0.2)"
         inkscape:connector-curvature="0" />
    </marker>
    <marker
       inkscape:isstock="true"
       style="overflow:visible"
       id="marker5695"
       refX="0"
       refY="0"
       orient="auto"
       inkscape:stockid="DotS"
       inkscape:collect="always">
      <path
         transform="matrix(0.2,0,0,0.2,1.48,0.2)"
         style="fill:#000000;fill-opacity:1;fill-rule:evenodd;stroke:#000000;stroke-width:1.00000003pt;stroke-opacity:1"
         d="m -2.5,-1 c 0,2.76 -2.24,5 -5,5 -2.76,0 -5,-2.24 -5,-5 0,-2.76 2.24,-5 5,-5 2.76,0 5,2.24 5,5 z"
         id="path5693"
         inkscape:connector-curvature="0" />
    </marker>
    <marker
       inkscape:stockid="DotS"
       orient="auto"
       refY="0"
       refX="0"
       id="DotS"
       style="overflow:visible"
       inkscape:isstock="true"
       inkscape:collect="always">
      <path
         id="path5464"
         d="m -2.5,-1 c 0,2.76 -2.24,5 -5,5 -2.76,0 -5,-2.24 -5,-5 0,-2.76 2.24,-5 5,-5 2.76,0 5,2.24 5,5 z"
         style="fill:#000000;fill-opacity:1;fill-rule:evenodd;stroke:#000000;stroke-width:1.00000003pt;stroke-opacity:1"
         transform="matrix(0.2,0,0,0.2,1.48,0.2)"
         inkscape:connector-curvature="0" />
    </marker>
    <marker
       inkscape:stockid="BJTArrow"
       style="overflow:visible"
       refY="0"
       refX="0"
       orient="auto"
       id="BJTArrow">
      <path
         id="path4922"
         style="fill:#000000;fill-rule:evenodd;stroke:#000000;stroke-width:0.60000002"
         d="m 0,0 -3,1.25 v -2.5 z"
         inkscape:connector-curvature="0" />
    </marker>
    <marker
       inkscape:stockid="arrowVoltageStart"
       style="overflow:visible"
       refY="0"
       refX="0"
       orient="auto"
       id="arrowVoltageStart">
      <path
         id="path6293"
         transform="matrix(0.25,0,0,0.25,1.823125,0)"
         style="fill:#217b21;fill-rule:evenodd;stroke:#217b21;stroke-width:1"
         d="M 0,0 5,-5 -12.5,0 5,5 Z"
         inkscape:connector-curvature="0" />
    </marker>
    <marker
       inkscape:stockid="arrowVoltageEnd"
       style="overflow:visible"
       refY="0"
       refX="0"
       orient="auto"
       id="arrowVoltageEnd">
      <path
         id="path6296"
         transform="matrix(-0.25,0,0,-0.25,-1.823125,0)"
         style="fill:#217b21;fill-rule:evenodd;stroke:#217b21;stroke-width:1"
         d="M 0,0 5,-5 -12.5,0 5,5 Z"
         inkscape:connector-curvature="0" />
    </marker>
    <marker
       inkscape:stockid="arrowCurrentStart"
       style="overflow:visible"
       refY="0"
       refX="0"
       orient="auto"
       id="arrowCurrentStart">
      <path
         id="path6834"
         transform="matrix(0.25,0,0,0.25,1.823125,0)"
         style="fill:#ff0000;fill-rule:evenodd;stroke:#ff0000;stroke-width:1"
         d="M 0,0 5,-5 -12.5,0 5,5 Z"
         inkscape:connector-curvature="0" />
    </marker>
    <marker
       inkscape:stockid="arrowCurrentEnd"
       style="overflow:visible"
       refY="0"
       refX="0"
       orient="auto"
       id="arrowCurrentEnd">
      <path
         id="path6837"
         transform="matrix(-0.25,0,0,-0.25,-1.823125,0)"
         style="fill:#ff0000;fill-rule:evenodd;stroke:#ff0000;stroke-width:1"
         d="M 0,0 5,-5 -12.5,0 5,5 Z"
         inkscape:connector-curvature="0" />
    </marker>
  </defs>
  <sodipodi:namedview
     id="base"
     pagecolor="#ffffff"
     bordercolor="#666666"
     borderopacity="1.0"
     inkscape:pageopacity="0.0"
     inkscape:pageshadow="2"
     inkscape:zoom="0.98994949"
     inkscape:cx="569.45417"
     inkscape:cy="419.67866"
     inkscape:document-units="mm"
     inkscape:current-layer="svg8"
     showgrid="false"
     inkscape:window-width="1920"
     inkscape:window-height="1001"
     inkscape:window-x="-9"
     inkscape:window-y="-9"
     inkscape:window-maximized="1"
     fit-margin-top="0"
     fit-margin-left="0"
     fit-margin-right="0"
     fit-margin-bottom="0">
    <inkscape:grid
       originy="-154.82724"
       originx="11.940128"
       type="xygrid"
       id="grid4558" />
  </sodipodi:namedview>
  <metadata
     id="metadata5">
    <rdf:RDF>
      <cc:Work
         rdf:about="">
        <dc:format>image/svg+xml</dc:format>
        <dc:type
           rdf:resource="http://purl.org/dc/dcmitype/StillImage" />
        <dc:title />
      </cc:Work>
    </rdf:RDF>
  </metadata>
  <g
     inkscape:label="Layer 1"
     inkscape:groupmode="layer"
     id="layer1"
     transform="translate(11.940129,30.684464)" />
  <g
     id="g4584"
     inkscape:label="Resistor"
     transform="rotate(-90,157.77063,50.309663)"
     inkscape:export-xdpi="600"
     inkscape:export-ydpi="600">
    <g
       id="g4577">
      <path
         id="path4575"
         inkscape:label="none"
         style="fill:none;stroke:#000000;stroke-width:1;stroke-linecap:round;stroke-linejoin:round;stroke-dasharray:none"
         d="m 100,50 h 15.5 l 2,3 3,-6 3,6 3,-6 3,6 3,-6 2,3 H 150"
         inkscape:connector-curvature="0" />
    </g>
    <g
       transform="matrix(0.739645,0,0,-0.739645,-44.781812,396.49213)"
       ns0:preamble="C:\\Users\\Marcelo\\AppData\\Roaming\\inkscape\\extensions/textextLib/CircuitSymbolsLatexPreamble.tex"
       ns0:text=" $R1$"
       word-spacing="normal"
       letter-spacing="normal"
       font-size-adjust="none"
       font-stretch="normal"
       font-weight="normal"
       font-variant="normal"
       font-style="normal"
       stroke-miterlimit="10.433"
       xml:space="preserve"
       id="content"
       style="font-style:normal;font-variant:normal;font-weight:normal;font-stretch:normal;letter-spacing:normal;word-spacing:normal;text-anchor:start;fill:none;fill-opacity:1;fill-rule:evenodd;stroke:#000000;stroke-linecap:butt;stroke-linejoin:miter;stroke-miterlimit:10.43299961;stroke-dasharray:none;stroke-dashoffset:0;stroke-opacity:1">
<path
   id="path4579"
   style="fill:#000000;stroke-width:0"
   d="m 229.63501,481.45501 0.02,-0.09 0.03,-0.1 0.03,-0.09 0.03,-0.1 0.03,-0.1 0.03,-0.09 0.04,-0.1 0.04,-0.1 0.05,-0.09 0.04,-0.09 0.05,-0.09 0.05,-0.09 0.05,-0.09 0.06,-0.09 0.06,-0.08 0.06,-0.08 0.06,-0.08 0.06,-0.07 0.07,-0.08 0.07,-0.06 0.07,-0.07 0.07,-0.06 0.08,-0.05 0.08,-0.05 0.08,-0.05 0.08,-0.03 0.08,-0.04 0.09,-0.03 0.09,-0.02 0.09,-0.02 0.09,-0.01 h 0.09 c 0.85,0 1.49,0.9 1.49,2.2 v 2.84 c 0,0.2 0,0.29 -0.2,0.29 -0.11,0 -0.11,-0.09 -0.11,-0.28 0,-0.01 0,-0.21 -0.02,-0.38 -0.02,-0.17 -0.03,-0.26 -0.16,-0.26 -0.04,0 -0.07,0.01 -0.19,0.04 l -5.33,1.33 c -0.39,0.1 -0.47,0.12 -0.47,0.91 0,0.18 0,0.27 -0.2,0.27 -0.11,0 -0.11,-0.12 -0.11,-0.14 0,-0.28 0.04,-0.98 0.04,-1.26 0,-0.28 -0.04,-0.98 -0.04,-1.26 0,-0.08 0,-0.2 0.2,-0.2 0.11,0 0.11,0.09 0.11,0.28 0,0.37 0,0.65 0.18,0.65 0.06,0 0.11,-0.02 0.17,-0.03 l 2.63,-0.66 v -1.19 l 0.22,0.01 v 1.12 l 2.59,-0.65 c 0.24,-0.06 0.34,-0.09 0.37,-0.28 0.01,-0.09 0.01,-0.41 0.01,-0.61 0,-0.71 0,-1.81 -0.98,-1.81 -0.34,0 -1.03,0.16 -1.41,0.55 -0.26,0.25 -0.58,0.78 -0.58,1.68 l -0.22,-0.01 c 0,-0.91 -0.55,-1.09 -0.9,-1.09 -0.15,0 -0.46,0.08 -0.69,0.14 -0.27,0.07 -0.64,0.16 -0.84,0.16 -1.07,0 -1.07,-1.19 -1.07,-1.32 0,-0.85 1,-1.2 1.14,-1.2 0.12,0 0.12,0.11 0.12,0.12 0,0.09 -0.07,0.11 -0.14,0.13 -0.74,0.25 -0.91,0.68 -0.91,0.91 0,0.32 0.22,0.4 0.61,0.4 0.31,0 0.82,-0.06 1.13,-0.11 0.14,-0.01 0.33,-0.03 0.47,-0.03 0.76,0 1.07,0.66 1.17,0.93 z"
   inkscape:connector-curvature="0" />
<path
   id="path4581"
   style="fill:#000000;stroke-width:0"
   d="m 232.61501,476.05501 h 0.01 0.01 0.02 0.01 v 0 h 0.01 0.01 0.01 0.01 0.01 l 0.01,0.01 h 0.01 v 0 h 0.01 0.01 v 0 h 0.01 0.01 0.01 0.01 l 0.01,0.01 h 0.01 0.01 v 0.01 h 0.01 l 0.01,0.01 v 0 l 0.01,0.01 v 0.01 l 0.01,0.01 v 0 0.01 0 0.01 0.01 0 l 0.01,0.01 v 0 0.01 0.01 0 0.01 0.01 0.01 0.01 0.01 0 0.01 0.01 0.01 0.01 0.01 c -0.64,0.62 -0.64,1.5 -0.64,1.82 h -0.3 c 0,-0.2 0,-0.79 0.26,-1.31 h -5.15 c -0.36,0 -0.48,0.03 -0.48,0.93 v 0.32 h -0.31 c 0.04,-0.35 0.04,-1.22 0.04,-1.62 0,-0.4 0,-1.26 -0.04,-1.61 h 0.31 v 0.32 c 0,0.89 0.11,0.92 0.48,0.92 z"
   inkscape:connector-curvature="0" />
</g>    <path
       style="fill:none;stroke:#000000;stroke-width:1;stroke-linecap:butt;stroke-linejoin:miter;stroke-miterlimit:4;stroke-dasharray:none;stroke-opacity:1;marker-start:url(#marker5695)"
       d="m 150.00626,49.999998 v -15.875"
       id="path5685"
       inkscape:connector-curvature="0" />
  </g>
  <g
     id="g4625"
     inkscape:label="Resistor"
     transform="rotate(-90,160.28105,97.799246)"
     inkscape:export-xdpi="600"
     inkscape:export-ydpi="600">
    <g
       id="g4617">
      <path
         id="path4615"
         inkscape:label="none"
         style="fill:none;stroke:#000000;stroke-width:1;stroke-linecap:round;stroke-linejoin:round;stroke-dasharray:none"
         d="m 100,50 h 15.5 l 2,3 3,-6 3,6 3,-6 3,6 3,-6 2,3 H 150"
         inkscape:connector-curvature="0" />
    </g>
    <g
       transform="matrix(0,0.739645,0.739645,0,-230.41421,-128.81485)"
       ns0:preamble="C:\\Users\\Marcelo\\AppData\\Roaming\\inkscape\\extensions/textextLib/CircuitSymbolsLatexPreamble.tex"
       ns0:text=" $R2$"
       word-spacing="normal"
       letter-spacing="normal"
       font-size-adjust="none"
       font-stretch="normal"
       font-weight="normal"
       font-variant="normal"
       font-style="normal"
       stroke-miterlimit="10.433"
       xml:space="preserve"
       id="g4623"
       style="font-style:normal;font-variant:normal;font-weight:normal;font-stretch:normal;letter-spacing:normal;word-spacing:normal;text-anchor:start;fill:none;fill-opacity:1;fill-rule:evenodd;stroke:#000000;stroke-linecap:butt;stroke-linejoin:miter;stroke-miterlimit:10.43299961;stroke-dasharray:none;stroke-dashoffset:0;stroke-opacity:1">
<path
   id="path4619"
   style="fill:#000000;stroke-width:0"
   d="m 228.61,480.61 0.09,0.02 0.1,0.03 0.09,0.03 0.1,0.03 0.1,0.03 0.09,0.03 0.1,0.04 0.1,0.04 0.09,0.05 0.09,0.04 0.09,0.05 0.09,0.05 0.09,0.05 0.09,0.06 0.08,0.06 0.08,0.06 0.08,0.06 0.07,0.06 0.08,0.07 0.06,0.07 0.07,0.07 0.06,0.07 0.05,0.08 0.05,0.08 0.05,0.08 0.03,0.08 0.04,0.08 0.03,0.09 0.02,0.09 0.02,0.09 0.01,0.09 v 0.09 c 0,0.85 -0.9,1.49 -2.2,1.49 h -2.84 c -0.2,0 -0.29,0 -0.29,-0.2 0,-0.11 0.09,-0.11 0.28,-0.11 0.01,0 0.21,0 0.38,-0.02 0.17,-0.02 0.26,-0.03 0.26,-0.16 0,-0.04 -0.01,-0.07 -0.04,-0.19 l -1.33,-5.33 c -0.1,-0.39 -0.12,-0.47 -0.91,-0.47 -0.18,0 -0.27,0 -0.27,-0.2 0,-0.11 0.12,-0.11 0.14,-0.11 0.28,0 0.98,0.04 1.26,0.04 0.28,0 0.98,-0.04 1.26,-0.04 0.08,0 0.2,0 0.2,0.2 0,0.11 -0.09,0.11 -0.28,0.11 -0.37,0 -0.65,0 -0.65,0.18 0,0.06 0.02,0.11 0.03,0.17 l 0.66,2.63 h 1.19 l -0.01,0.22 h -1.12 l 0.65,2.59 c 0.06,0.24 0.09,0.34 0.28,0.37 0.09,0.01 0.41,0.01 0.61,0.01 0.71,0 1.81,0 1.81,-0.98 0,-0.34 -0.16,-1.03 -0.55,-1.41 -0.25,-0.26 -0.78,-0.58 -1.68,-0.58 l 0.01,-0.22 c 0.91,0 1.09,-0.55 1.09,-0.9 0,-0.15 -0.08,-0.46 -0.14,-0.69 -0.07,-0.27 -0.16,-0.64 -0.16,-0.84 0,-1.07 1.19,-1.07 1.32,-1.07 0.85,0 1.2,1 1.2,1.14 0,0.12 -0.11,0.12 -0.12,0.12 -0.09,0 -0.11,-0.07 -0.13,-0.14 -0.25,-0.74 -0.68,-0.91 -0.91,-0.91 -0.32,0 -0.4,0.22 -0.4,0.61 0,0.31 0.06,0.82 0.11,1.13 0.01,0.14 0.03,0.33 0.03,0.47 0,0.76 -0.66,1.07 -0.93,1.17 z"
   inkscape:connector-curvature="0" />
<path
   id="path4621"
   style="fill:#000000;stroke-width:0"
   d="m 232.34,478 1.06,1.02 c 1.55,1.37 2.15,1.91 2.15,2.9 0,1.14 -0.9,1.93 -2.11,1.93 -1.13,0 -1.87,-0.91 -1.87,-1.8 0,-0.55 0.5,-0.55 0.53,-0.55 0.17,0 0.52,0.12 0.52,0.52 0,0.26 -0.18,0.52 -0.53,0.52 -0.08,0 -0.1,0 -0.13,-0.01 0.23,0.64 0.77,1.01 1.35,1.01 0.9,0 1.33,-0.8 1.33,-1.62 0,-0.79 -0.49,-1.58 -1.04,-2.19 l -1.92,-2.13 c -0.11,-0.11 -0.11,-0.13 -0.11,-0.37 h 3.7 l 0.28,1.73 h -0.25 c -0.05,-0.29 -0.12,-0.73 -0.22,-0.88 C 235.01,478 234.35,478 234.13,478 Z"
   inkscape:connector-curvature="0" />
</g>  </g>
  <g
     id="g4739"
     inkscape:label="Capacitor"
     transform="rotate(-90,120.59355,112.35133)"
     inkscape:export-xdpi="600"
     inkscape:export-ydpi="600">
    <g
       id="g4723"
       inkscape:label="Capacitor">
      <path
         id="path4715"
         inkscape:label="none"
         style="fill:none;stroke:#000000;stroke-width:1;stroke-linecap:round;stroke-linejoin:round;stroke-dasharray:none"
         d="m 100,50 h 23"
         inkscape:connector-curvature="0" />
      <path
         id="path4717"
         inkscape:label="none"
         style="fill:none;stroke:#000000;stroke-width:1;stroke-linecap:round;stroke-linejoin:round;stroke-dasharray:none"
         d="M 150,50 H 127"
         inkscape:connector-curvature="0" />
      <path
         id="path4719"
         inkscape:label="none"
         style="fill:none;stroke:#000000;stroke-width:1;stroke-linecap:round;stroke-linejoin:round;stroke-dasharray:none"
         d="M 123,57 V 43"
         inkscape:connector-curvature="0" />
      <path
         id="path4721"
         inkscape:label="none"
         style="fill:none;stroke:#000000;stroke-width:1;stroke-linecap:round;stroke-linejoin:round;stroke-dasharray:none"
         d="M 127,57 V 43"
         inkscape:connector-curvature="0" />
    </g>
    <g
       transform="matrix(0,0.739645,0.739645,0,-230.49557,-138.67617)"
       ns0:preamble="C:\\Users\\Marcelo\\AppData\\Roaming\\inkscape\\extensions/textextLib/CircuitSymbolsLatexPreamble.tex"
       ns0:text=" $Cin$"
       word-spacing="normal"
       letter-spacing="normal"
       font-size-adjust="none"
       font-stretch="normal"
       font-weight="normal"
       font-variant="normal"
       font-style="normal"
       stroke-miterlimit="10.433"
       xml:space="preserve"
       id="g4733"
       style="font-style:normal;font-variant:normal;font-weight:normal;font-stretch:normal;letter-spacing:normal;word-spacing:normal;text-anchor:start;fill:none;fill-opacity:1;fill-rule:evenodd;stroke:#000000;stroke-linecap:butt;stroke-linejoin:miter;stroke-miterlimit:10.43299961;stroke-dasharray:none;stroke-dashoffset:0;stroke-opacity:1">
<path
   id="path4725"
   style="fill:#000000;stroke-width:0"
   d="m 231.01,484.14 v 0 0.01 0 0 0.01 0 0 0.01 0 l -0.01,0.01 v 0 0 0.01 0 l -0.01,0.01 v 0 0 l -0.01,0.01 v 0 0 l -0.01,0.01 v 0 h -0.01 v 0.01 h -0.01 v 0 h -0.01 v 0 0 h -0.01 v 0 0.01 h -0.01 v 0 0 h -0.01 v 0 0 h -0.01 c -0.03,0 -0.04,-0.01 -0.15,-0.12 l -0.7,-0.77 c -0.09,0.14 -0.54,0.89 -1.65,0.89 -2.23,0 -4.47,-2.2 -4.47,-4.5 0,-1.64 1.18,-2.72 2.7,-2.72 0.87,0 1.63,0.39 2.16,0.85 0.92,0.81 1.09,1.72 1.09,1.75 0,0.1 -0.1,0.1 -0.12,0.1 -0.06,0 -0.11,-0.02 -0.13,-0.1 -0.09,-0.29 -0.31,-0.99 -1,-1.57 -0.69,-0.56 -1.32,-0.73 -1.84,-0.73 -0.89,0 -1.95,0.52 -1.95,2.07 0,0.57 0.21,2.18 1.2,3.34 0.61,0.7 1.55,1.2 2.44,1.2 1.01,0 1.6,-0.76 1.6,-1.92 0,-0.39 -0.03,-0.4 -0.03,-0.5 0,-0.1 0.11,-0.1 0.15,-0.1 0.13,0 0.13,0.02 0.18,0.2 z"
   inkscape:connector-curvature="0" />
<path
   id="path4727"
   style="fill:#000000;stroke-width:0"
   d="m 234.1,483.44 v 0.02 0.02 0.02 0.02 l -0.01,0.01 v 0.02 l -0.01,0.02 v 0.01 l -0.01,0.02 -0.01,0.01 -0.01,0.02 v 0.01 l -0.01,0.02 -0.01,0.01 -0.02,0.01 -0.01,0.02 -0.01,0.01 -0.01,0.01 -0.02,0.01 -0.01,0.01 -0.01,0.01 -0.02,0.01 -0.02,0.01 h -0.01 l -0.02,0.01 -0.02,0.01 h -0.02 -0.02 l -0.01,0.01 h -0.03 -0.02 -0.02 c -0.27,0 -0.54,-0.26 -0.54,-0.53 0,-0.18 0.14,-0.35 0.38,-0.35 0.23,0 0.53,0.23 0.53,0.52 z"
   inkscape:connector-curvature="0" />
<path
   id="path4729"
   style="fill:#000000;stroke-width:0"
   d="m 233.34,479.71 0.01,0.02 0.01,0.03 0.01,0.02 0.01,0.02 0.01,0.03 0.01,0.02 0.01,0.01 v 0.02 l 0.01,0.02 0.01,0.02 v 0.01 l 0.01,0.02 v 0.01 l 0.01,0.02 0.01,0.02 0.01,0.03 0.01,0.03 0.01,0.02 v 0.01 l 0.01,0.02 v 0.01 l 0.01,0.02 0.01,0.02 v 0.02 l 0.01,0.01 0.01,0.03 0.01,0.02 v 0.02 l 0.01,0.03 c 0.08,0.19 0.13,0.33 0.13,0.52 0,0.45 -0.32,0.82 -0.81,0.82 -0.94,0 -1.32,-1.45 -1.32,-1.53 0,-0.1 0.1,-0.1 0.12,-0.1 0.1,0 0.11,0.02 0.16,0.17 0.27,0.94 0.67,1.24 1.01,1.24 0.08,0 0.24,0 0.24,-0.32 0,-0.21 -0.07,-0.42 -0.1,-0.52 -0.09,-0.26 -0.53,-1.41 -0.69,-1.84 -0.1,-0.25 -0.23,-0.58 -0.23,-0.79 0,-0.47 0.34,-0.81 0.81,-0.81 0.94,0 1.31,1.44 1.31,1.53 0,0.1 -0.09,0.1 -0.12,0.1 -0.1,0 -0.1,-0.03 -0.15,-0.18 -0.18,-0.63 -0.51,-1.24 -1.02,-1.24 -0.16,0 -0.23,0.1 -0.23,0.33 0,0.25 0.06,0.39 0.29,1 z"
   inkscape:connector-curvature="0" />
<path
   id="path4731"
   style="fill:#000000;stroke-width:0"
   d="m 235.58,477.82 v -0.01 l -0.01,-0.02 v -0.01 -0.02 l -0.01,-0.03 -0.01,-0.03 v -0.03 l -0.01,-0.04 -0.01,-0.03 -0.01,-0.03 v -0.01 -0.02 l -0.01,-0.01 v -0.02 -0.01 l -0.01,-0.01 v -0.02 -0.01 -0.01 -0.01 l -0.01,-0.01 v -0.01 -0.01 0 -0.01 -0.01 c 0,-0.18 0.14,-0.26 0.29,-0.26 0.12,0 0.3,0.07 0.37,0.27 0.01,0.02 0.13,0.49 0.19,0.74 l 0.22,0.89 c 0.06,0.22 0.12,0.44 0.17,0.67 0.04,0.17 0.12,0.46 0.13,0.5 0.15,0.3 0.67,1.21 1.62,1.21 0.45,0 0.54,-0.37 0.54,-0.7 0,-0.61 -0.49,-1.89 -0.65,-2.31 -0.09,-0.23 -0.1,-0.35 -0.1,-0.46 0,-0.47 0.35,-0.81 0.82,-0.81 0.94,0 1.31,1.45 1.31,1.53 0,0.1 -0.09,0.1 -0.12,0.1 -0.1,0 -0.1,-0.03 -0.15,-0.18 -0.2,-0.68 -0.53,-1.24 -1.02,-1.24 -0.17,0 -0.24,0.1 -0.24,0.33 0,0.25 0.09,0.49 0.18,0.71 0.19,0.52 0.61,1.62 0.61,2.18 0,0.67 -0.43,1.07 -1.15,1.07 -0.9,0 -1.38,-0.64 -1.55,-0.87 -0.05,0.56 -0.46,0.87 -0.92,0.87 -0.46,0 -0.65,-0.39 -0.75,-0.57 -0.16,-0.34 -0.3,-0.92 -0.3,-0.96 0,-0.1 0.1,-0.1 0.12,-0.1 0.1,0 0.11,0.01 0.17,0.23 0.17,0.7 0.37,1.18 0.73,1.18 0.2,0 0.31,-0.13 0.31,-0.46 0,-0.21 -0.03,-0.32 -0.16,-0.83 z"
   inkscape:connector-curvature="0" />
</g>    <text
       id="text4737"
       xml:space="preserve"
       y="47"
       x="131"
       style="font-style:normal;font-weight:normal;font-size:5px;line-height:100%;font-family:Sans;text-align:center;letter-spacing:0px;word-spacing:0px;text-anchor:middle;fill:#000000;fill-opacity:1;stroke:none"><tspan
         id="tspan4735"
         sodipodi:role="line"
         y="47"
         x="131">+</tspan></text>
  </g>
  <g
     id="g4826"
     inkscape:label="Capacitor"
     transform="rotate(-90,203.27816,20.411982)"
     inkscape:export-xdpi="600"
     inkscape:export-ydpi="600">
    <g
       id="g4810"
       inkscape:label="Capacitor"
       transform="translate(-9.2604173,1.3229177)">
      <path
         id="path4802"
         inkscape:label="none"
         style="fill:none;stroke:#000000;stroke-width:1;stroke-linecap:round;stroke-linejoin:round;stroke-dasharray:none"
         d="m 100,50 h 23"
         inkscape:connector-curvature="0" />
      <path
         id="path4804"
         inkscape:label="none"
         style="fill:none;stroke:#000000;stroke-width:1;stroke-linecap:round;stroke-linejoin:round;stroke-dasharray:none"
         d="M 150,50 H 127"
         inkscape:connector-curvature="0" />
      <path
         id="path4806"
         inkscape:label="none"
         style="fill:none;stroke:#000000;stroke-width:1;stroke-linecap:round;stroke-linejoin:round;stroke-dasharray:none"
         d="M 123,57 V 43"
         inkscape:connector-curvature="0" />
      <path
         id="path4808"
         inkscape:label="none"
         style="fill:none;stroke:#000000;stroke-width:1;stroke-linecap:round;stroke-linejoin:round;stroke-dasharray:none"
         d="M 127,57 V 43"
         inkscape:connector-curvature="0" />
    </g>
    <g
       transform="matrix(0,0.739645,0.739645,0,-238.62557,-140.39424)"
       ns0:preamble="C:\\Users\\Marcelo\\AppData\\Roaming\\inkscape\\extensions/textextLib/CircuitSymbolsLatexPreamble.tex"
       ns0:text=" $Cout$"
       word-spacing="normal"
       letter-spacing="normal"
       font-size-adjust="none"
       font-stretch="normal"
       font-weight="normal"
       font-variant="normal"
       font-style="normal"
       stroke-miterlimit="10.433"
       xml:space="preserve"
       id="g4820"
       style="font-style:normal;font-variant:normal;font-weight:normal;font-stretch:normal;letter-spacing:normal;word-spacing:normal;text-anchor:start;fill:none;fill-opacity:1;fill-rule:evenodd;stroke:#000000;stroke-linecap:butt;stroke-linejoin:miter;stroke-miterlimit:10.43299961;stroke-dasharray:none;stroke-dashoffset:0;stroke-opacity:1">
<path
   id="path4812"
   style="fill:#000000;stroke-width:0"
   d="m 231.01,484.14 v 0 0.01 0 0 0.01 0 0 0.01 0 l -0.01,0.01 v 0 0 0.01 0 l -0.01,0.01 v 0 0 l -0.01,0.01 v 0 0 l -0.01,0.01 v 0 h -0.01 v 0.01 h -0.01 v 0 h -0.01 v 0 0 h -0.01 v 0 0.01 h -0.01 v 0 0 h -0.01 v 0 0 h -0.01 c -0.03,0 -0.04,-0.01 -0.15,-0.12 l -0.7,-0.77 c -0.09,0.14 -0.54,0.89 -1.65,0.89 -2.23,0 -4.47,-2.2 -4.47,-4.5 0,-1.64 1.18,-2.72 2.7,-2.72 0.87,0 1.63,0.39 2.16,0.85 0.92,0.81 1.09,1.72 1.09,1.75 0,0.1 -0.1,0.1 -0.12,0.1 -0.06,0 -0.11,-0.02 -0.13,-0.1 -0.09,-0.29 -0.31,-0.99 -1,-1.57 -0.69,-0.56 -1.32,-0.73 -1.84,-0.73 -0.89,0 -1.95,0.52 -1.95,2.07 0,0.57 0.21,2.18 1.2,3.34 0.61,0.7 1.55,1.2 2.44,1.2 1.01,0 1.6,-0.76 1.6,-1.92 0,-0.39 -0.03,-0.4 -0.03,-0.5 0,-0.1 0.11,-0.1 0.15,-0.1 0.13,0 0.13,0.02 0.18,0.2 z"
   inkscape:connector-curvature="0" />
<path
   id="path4814"
   style="fill:#000000;stroke-width:0"
   d="m 235.95,479.95 -0.01,0.09 v 0.1 l -0.01,0.09 -0.01,0.09 -0.02,0.08 -0.02,0.09 -0.03,0.08 -0.03,0.08 -0.03,0.07 -0.03,0.07 -0.04,0.07 -0.04,0.07 -0.05,0.07 -0.04,0.06 -0.05,0.06 -0.05,0.05 -0.06,0.06 -0.06,0.05 -0.06,0.04 -0.06,0.05 -0.06,0.04 -0.07,0.03 -0.07,0.04 -0.07,0.03 -0.07,0.03 -0.08,0.02 -0.07,0.02 -0.08,0.02 -0.08,0.01 -0.08,0.01 h -0.09 l -0.08,0.01 c -1.34,0 -2.67,-1.42 -2.67,-2.83 0,-0.98 0.67,-1.67 1.59,-1.67 l 0.01,0.21 c -0.43,0 -0.86,0.31 -0.86,1.09 0,0.48 0.26,1.56 0.57,2.06 0.5,0.77 1.07,0.92 1.35,0.92 0.58,0 0.88,-0.48 0.88,-1.08 0,-0.38 -0.2,-1.43 -0.58,-2.07 -0.35,-0.58 -0.9,-0.92 -1.36,-0.92 v 0 l -0.01,-0.21 c 1.33,0 2.68,1.37 2.68,2.82 z"
   inkscape:connector-curvature="0" />
<path
   id="path4816"
   style="fill:#000000;stroke-width:0"
   d="m 239.59,477.79 0.01,-0.04 0.01,-0.03 0.02,-0.04 0.01,-0.03 0.02,-0.04 0.01,-0.03 0.02,-0.03 0.02,-0.03 0.02,-0.03 0.03,-0.03 0.02,-0.03 0.02,-0.03 0.03,-0.02 0.03,-0.03 0.02,-0.02 0.03,-0.02 0.03,-0.03 0.03,-0.01 0.03,-0.02 0.04,-0.02 0.03,-0.02 0.03,-0.01 0.04,-0.02 0.03,-0.01 0.04,-0.01 0.03,-0.01 0.04,-0.01 h 0.04 l 0.04,-0.01 h 0.04 0.04 0.04 c 0.34,0 0.57,0.22 0.73,0.54 0.17,0.36 0.3,0.97 0.3,0.99 0,0.1 -0.09,0.1 -0.12,0.1 -0.1,0 -0.11,-0.05 -0.14,-0.18 -0.14,-0.56 -0.32,-1.24 -0.74,-1.24 -0.21,0 -0.31,0.13 -0.31,0.46 0,0.22 0.12,0.69 0.2,1.03 l 0.28,1.08 c 0.03,0.15 0.12,0.52 0.17,0.67 0.05,0.23 0.14,0.61 0.14,0.67 0,0.18 -0.14,0.27 -0.28,0.27 -0.05,0 -0.31,-0.01 -0.39,-0.35 -0.19,-0.73 -0.63,-2.47 -0.75,-2.99 -0.01,-0.04 -0.41,-0.84 -1.14,-0.84 -0.52,0 -0.62,0.45 -0.62,0.82 0,0.55 0.28,1.34 0.54,2.02 0.12,0.3 0.17,0.44 0.17,0.63 0,0.45 -0.32,0.82 -0.82,0.82 -0.94,0 -1.31,-1.45 -1.31,-1.53 0,-0.1 0.1,-0.1 0.12,-0.1 0.1,0 0.11,0.02 0.16,0.17 0.25,0.87 0.62,1.24 1,1.24 0.09,0 0.25,-0.01 0.25,-0.33 0,-0.24 -0.11,-0.53 -0.17,-0.68 -0.37,-0.98 -0.57,-1.6 -0.57,-2.08 0,-0.95 0.68,-1.19 1.22,-1.19 0.66,0 1.02,0.44 1.19,0.66 z"
   inkscape:connector-curvature="0" />
<path
   id="path4818"
   style="fill:#000000;stroke-width:0"
   d="m 243.86,481.21 h 0.93 c 0.2,0 0.3,0 0.3,0.2 0,0.11 -0.1,0.11 -0.28,0.11 h -0.87 c 0.35,1.41 0.41,1.61 0.41,1.66 0,0.17 -0.12,0.27 -0.29,0.27 -0.03,0 -0.31,-0.01 -0.4,-0.35 l -0.39,-1.58 h -0.94 c -0.2,0 -0.3,0 -0.3,-0.19 0,-0.12 0.08,-0.12 0.28,-0.12 h 0.88 c -0.72,-2.82 -0.76,-2.99 -0.76,-3.17 0,-0.54 0.38,-0.91 0.92,-0.91 1.02,0 1.58,1.45 1.58,1.53 0,0.1 -0.08,0.1 -0.12,0.1 -0.09,0 -0.1,-0.03 -0.15,-0.14 -0.42,-1.04 -0.95,-1.28 -1.29,-1.28 -0.21,0 -0.31,0.13 -0.31,0.46 0,0.24 0.02,0.31 0.06,0.48 z"
   inkscape:connector-curvature="0" />
</g>    <text
       id="text4824"
       xml:space="preserve"
       y="47"
       x="131"
       style="font-style:normal;font-weight:normal;font-size:5px;line-height:100%;font-family:Sans;text-align:center;letter-spacing:0px;word-spacing:0px;text-anchor:middle;fill:#000000;fill-opacity:1;stroke:none"><tspan
         id="tspan4822"
         sodipodi:role="line"
         y="47"
         x="131">+</tspan></text>
  </g>
  <g
     id="g5079"
     inkscape:label="GND"
     transform="translate(20.057486,14.197521)"
     inkscape:export-xdpi="600"
     inkscape:export-ydpi="600">
    <g
       transform="matrix(0.739645,0,0,-0.739645,-64.26406,398.44183)"
       ns0:preamble="C:\\Users\\Marcelo\\AppData\\Roaming\\inkscape\\extensions/textextLib/CircuitSymbolsLatexPreamble.tex"
       ns0:text=" $V_{OUT}$"
       word-spacing="normal"
       letter-spacing="normal"
       font-size-adjust="none"
       font-stretch="normal"
       font-weight="normal"
       font-variant="normal"
       font-style="normal"
       stroke-miterlimit="10.433"
       xml:space="preserve"
       id="g5077"
       style="font-style:normal;font-variant:normal;font-weight:normal;font-stretch:normal;letter-spacing:normal;word-spacing:normal;text-anchor:start;fill:none;fill-opacity:1;fill-rule:evenodd;stroke:#000000;stroke-linecap:butt;stroke-linejoin:miter;stroke-miterlimit:10.43299961;stroke-dasharray:none;stroke-dashoffset:0;stroke-opacity:1">
<path
   id="path5069"
   style="fill:#000000;stroke-width:0"
   d="m 229.7,482.89 0.04,0.07 0.05,0.06 0.04,0.07 0.04,0.05 0.05,0.06 0.04,0.05 0.05,0.05 0.04,0.04 0.04,0.04 0.04,0.04 0.04,0.03 0.05,0.03 0.04,0.03 0.04,0.03 0.04,0.02 0.04,0.02 0.04,0.02 0.04,0.02 0.04,0.01 0.03,0.02 0.04,0.01 0.04,0.01 0.04,0.01 h 0.03 l 0.04,0.01 h 0.04 l 0.07,0.01 0.07,0.01 h 0.07 c 0.12,0.01 0.13,0.18 0.13,0.19 0,0.08 -0.05,0.12 -0.13,0.12 -0.26,0 -0.55,-0.03 -0.82,-0.03 -0.33,0 -0.66,0.03 -0.98,0.03 -0.06,0 -0.19,0 -0.19,-0.19 0,-0.11 0.09,-0.12 0.16,-0.12 0.26,-0.02 0.46,-0.12 0.46,-0.33 0,-0.15 -0.15,-0.36 -0.15,-0.37 l -3.07,-4.85 -0.67,5.25 c 0,0.17 0.22,0.3 0.68,0.3 0.14,0 0.25,0 0.25,0.2 0,0.09 -0.08,0.11 -0.14,0.11 -0.4,0 -0.82,-0.03 -1.23,-0.03 -0.18,0 -0.37,0.01 -0.55,0.01 -0.18,0 -0.37,0.02 -0.54,0.02 -0.07,0 -0.19,0 -0.19,-0.19 0,-0.12 0.09,-0.12 0.25,-0.12 0.56,0 0.57,-0.09 0.6,-0.34 l 0.79,-6.13 c 0.03,-0.19 0.07,-0.22 0.19,-0.22 0.17,0 0.2,0.05 0.28,0.18 z"
   inkscape:connector-curvature="0" />
<path
   id="path5071"
   style="fill:#000000;stroke-width:0"
   d="m 235.04,478.7 v 0.1 l -0.01,0.1 -0.01,0.1 -0.02,0.09 -0.02,0.1 -0.02,0.09 -0.03,0.09 -0.03,0.09 -0.04,0.08 -0.04,0.09 -0.05,0.08 -0.05,0.08 -0.05,0.07 -0.05,0.08 -0.07,0.07 -0.06,0.06 -0.07,0.07 -0.07,0.06 -0.07,0.05 -0.08,0.06 -0.08,0.04 -0.09,0.05 -0.09,0.04 -0.09,0.04 -0.09,0.03 -0.1,0.03 -0.1,0.03 -0.1,0.02 -0.11,0.02 -0.11,0.01 -0.11,0.01 h -0.12 l -0.05,-0.22 c 0.72,0 1.39,-0.46 1.39,-1.47 0,-0.51 -0.21,-1.52 -0.86,-2.27 -0.49,-0.55 -1.13,-0.84 -1.67,-0.84 v 0 c -0.74,0 -1.37,0.5 -1.37,1.53 0,0.36 0.09,1.34 0.74,2.14 0.47,0.57 1.14,0.91 1.77,0.91 l 0.05,0.22 c -1.67,0 -3.28,-1.56 -3.28,-3.12 0,-1.12 0.83,-1.91 2.03,-1.91 1.67,0 3.28,1.52 3.28,3.1 z"
   inkscape:connector-curvature="0" />
<path
   id="path5073"
   style="fill:#000000;stroke-width:0"
   d="m 240.46,479.73 0.02,0.05 v 0.03 l 0.01,0.02 0.01,0.03 0.01,0.02 0.01,0.02 0.01,0.02 0.01,0.03 0.01,0.02 0.02,0.02 0.01,0.02 0.02,0.02 0.01,0.02 0.02,0.02 0.02,0.01 0.02,0.02 0.02,0.02 0.03,0.01 0.02,0.01 0.03,0.02 0.03,0.01 0.03,0.01 0.03,0.01 0.04,0.01 0.03,0.01 0.04,0.01 0.04,0.01 h 0.05 0.02 0.02 l 0.03,0.01 h 0.02 0.03 0.02 c 0.04,0 0.14,0.01 0.14,0.15 0,0.04 -0.03,0.1 -0.1,0.1 -0.23,0 -0.49,-0.03 -0.72,-0.03 -0.23,0 -0.53,0.03 -0.73,0.03 -0.04,0 -0.14,0 -0.14,-0.15 0,-0.09 0.09,-0.1 0.15,-0.1 0.33,-0.01 0.45,-0.11 0.45,-0.29 0,-0.03 -0.01,-0.06 -0.02,-0.09 -0.1,-0.45 -0.61,-2.55 -0.7,-2.76 -0.4,-0.89 -1.21,-1.25 -1.79,-1.25 -0.47,0 -0.96,0.24 -0.96,0.93 0,0.16 0.02,0.33 0.06,0.49 l 0.68,2.68 c 0.06,0.23 0.08,0.29 0.61,0.29 0.12,0 0.21,0 0.21,0.15 0,0.03 -0.02,0.1 -0.11,0.1 -0.2,0 -0.71,-0.03 -0.91,-0.03 -0.12,0 -0.37,0 -0.49,0.01 -0.14,0.01 -0.3,0.02 -0.44,0.02 -0.04,0 -0.14,0 -0.14,-0.15 0,-0.1 0.08,-0.1 0.22,-0.1 0.01,0 0.14,0 0.27,-0.01 0.14,-0.02 0.16,-0.03 0.16,-0.1 0,-0.04 -0.07,-0.31 -0.11,-0.47 l -0.16,-0.61 -0.4,-1.59 c -0.07,-0.29 -0.07,-0.34 -0.07,-0.48 0,-0.86 0.72,-1.38 1.55,-1.38 0.97,0 1.91,0.78 2.14,1.69 z"
   inkscape:connector-curvature="0" />
<path
   id="path5075"
   style="fill:#000000;stroke-width:0"
   d="m 245.09,479.95 v 0.01 l 0.01,0.01 v 0.01 0 0.01 0.01 l 0.01,0.01 v 0.01 0.01 l 0.01,0.01 v 0.02 0.01 l 0.01,0.01 v 0.01 l 0.01,0.01 v 0.01 l 0.01,0.01 v 0 0.01 l 0.01,0.01 h 0.01 v 0.01 h 0.01 v 0.01 h 0.01 0.01 l 0.01,0.01 h 0.01 0.01 v 0 l 0.02,0.01 h 0.01 0.01 0.01 0.01 0.02 c 0.03,0.01 0.28,0.01 0.42,0.01 0.42,0 0.61,0 0.78,-0.05 0.31,-0.1 0.33,-0.3 0.33,-0.55 0,-0.11 0,-0.2 -0.05,-0.57 l -0.01,-0.07 c 0,-0.07 0.04,-0.11 0.12,-0.11 0.1,0 0.11,0.06 0.13,0.18 l 0.19,1.32 c 0,0.1 -0.09,0.1 -0.21,0.1 h -4.3 c -0.18,0 -0.19,0 -0.24,-0.14 l -0.44,-1.23 c -0.01,-0.03 -0.04,-0.1 -0.04,-0.13 0,-0.03 0.02,-0.1 0.12,-0.1 0.09,0 0.11,0.04 0.15,0.17 0.4,1.11 0.64,1.18 1.7,1.18 h 0.29 c 0.21,0 0.22,-0.01 0.22,-0.07 0,-0.01 0,-0.04 -0.03,-0.14 l -0.92,-3.66 c -0.06,-0.26 -0.09,-0.33 -0.82,-0.33 -0.25,0 -0.32,0 -0.32,-0.15 0,-0.02 0.02,-0.1 0.12,-0.1 0.2,0 0.41,0.02 0.6,0.02 0.2,0 0.41,0.01 0.61,0.01 0.19,0 0.43,0 0.63,-0.01 0.18,0 0.39,-0.02 0.58,-0.02 0.06,0 0.16,0 0.16,0.15 0,0.1 -0.07,0.1 -0.28,0.1 -0.14,0 -0.28,0.01 -0.41,0.02 -0.24,0.02 -0.25,0.04 -0.25,0.13 0,0.05 0,0.06 0.03,0.16 z"
   inkscape:connector-curvature="0" />
</g>  </g>
  <g
     id="g5171"
     inkscape:label="GND"
     transform="translate(-19.316774,14.170032)"
     inkscape:export-xdpi="600"
     inkscape:export-ydpi="600">
    <g
       transform="matrix(0.739645,0,0,-0.739645,-61.605036,398.54538)"
       ns0:preamble="C:\\Users\\Marcelo\\AppData\\Roaming\\inkscape\\extensions/textextLib/CircuitSymbolsLatexPreamble.tex"
       ns0:text=" $V_{IN}$"
       word-spacing="normal"
       letter-spacing="normal"
       font-size-adjust="none"
       font-stretch="normal"
       font-weight="normal"
       font-variant="normal"
       font-style="normal"
       stroke-miterlimit="10.433"
       xml:space="preserve"
       id="g5169"
       style="font-style:normal;font-variant:normal;font-weight:normal;font-stretch:normal;letter-spacing:normal;word-spacing:normal;text-anchor:start;fill:none;fill-opacity:1;fill-rule:evenodd;stroke:#000000;stroke-linecap:butt;stroke-linejoin:miter;stroke-miterlimit:10.43299961;stroke-dasharray:none;stroke-dashoffset:0;stroke-opacity:1">
<path
   id="path5163"
   style="fill:#000000;stroke-width:0"
   d="m 229.7,482.89 0.04,0.07 0.05,0.06 0.04,0.07 0.04,0.05 0.05,0.06 0.04,0.05 0.05,0.05 0.04,0.04 0.04,0.04 0.04,0.04 0.04,0.03 0.05,0.03 0.04,0.03 0.04,0.03 0.04,0.02 0.04,0.02 0.04,0.02 0.04,0.02 0.04,0.01 0.03,0.02 0.04,0.01 0.04,0.01 0.04,0.01 h 0.03 l 0.04,0.01 h 0.04 l 0.07,0.01 0.07,0.01 h 0.07 c 0.12,0.01 0.13,0.18 0.13,0.19 0,0.08 -0.05,0.12 -0.13,0.12 -0.26,0 -0.55,-0.03 -0.82,-0.03 -0.33,0 -0.66,0.03 -0.98,0.03 -0.06,0 -0.19,0 -0.19,-0.19 0,-0.11 0.09,-0.12 0.16,-0.12 0.26,-0.02 0.46,-0.12 0.46,-0.33 0,-0.15 -0.15,-0.36 -0.15,-0.37 l -3.07,-4.85 -0.67,5.25 c 0,0.17 0.22,0.3 0.68,0.3 0.14,0 0.25,0 0.25,0.2 0,0.09 -0.08,0.11 -0.14,0.11 -0.4,0 -0.82,-0.03 -1.23,-0.03 -0.18,0 -0.37,0.01 -0.55,0.01 -0.18,0 -0.37,0.02 -0.54,0.02 -0.07,0 -0.19,0 -0.19,-0.19 0,-0.12 0.09,-0.12 0.25,-0.12 0.56,0 0.57,-0.09 0.6,-0.34 l 0.79,-6.13 c 0.03,-0.19 0.07,-0.22 0.19,-0.22 0.17,0 0.2,0.05 0.28,0.18 z"
   inkscape:connector-curvature="0" />
<path
   id="path5165"
   style="fill:#000000;stroke-width:0"
   d="m 232.13,479.94 0.01,0.02 v 0.02 l 0.01,0.02 v 0.02 l 0.01,0.02 0.01,0.02 v 0.01 l 0.01,0.02 0.01,0.01 v 0.01 l 0.01,0.02 0.01,0.01 0.01,0.01 0.01,0.01 0.02,0.01 0.01,0.01 0.01,0.01 h 0.02 l 0.02,0.01 0.02,0.01 h 0.02 l 0.01,0.01 h 0.01 0.02 0.01 0.01 l 0.02,0.01 h 0.01 0.02 0.01 0.02 0.02 0.01 l 0.02,0.01 h 0.02 0.02 0.02 0.02 0.02 0.02 0.03 0.02 0.02 c 0.18,0 0.26,0 0.26,0.15 0,0.06 -0.05,0.1 -0.11,0.1 -0.15,0 -0.32,-0.02 -0.47,-0.02 -0.15,0 -0.32,-0.01 -0.47,-0.01 0,0 -0.49,0.01 -0.49,0.01 -0.15,0 -0.32,0.02 -0.48,0.02 -0.04,0 -0.15,0 -0.15,-0.15 0,-0.1 0.08,-0.1 0.23,-0.1 0.01,0 0.15,0 0.27,-0.01 0.14,-0.02 0.19,-0.03 0.19,-0.1 0,-0.04 -0.02,-0.09 -0.03,-0.15 l -0.93,-3.69 c -0.05,-0.23 -0.07,-0.3 -0.6,-0.3 -0.19,0 -0.26,0 -0.26,-0.15 0,-0.01 0,-0.1 0.11,-0.1 0.21,0 0.74,0.03 0.95,0.03 l 0.48,-0.01 c 0.15,0 0.33,-0.02 0.48,-0.02 0.04,0 0.15,0 0.15,0.15 0,0.1 -0.09,0.1 -0.23,0.1 -0.01,0 -0.16,0 -0.29,0.02 -0.17,0.01 -0.17,0.04 -0.17,0.1 0,0.01 0,0.05 0.03,0.15 z"
   inkscape:connector-curvature="0" />
<path
   id="path5167"
   style="fill:#000000;stroke-width:0"
   d="m 239.15,479.73 0.01,0.05 0.02,0.05 0.01,0.02 0.01,0.03 0.01,0.02 0.01,0.02 0.01,0.02 0.01,0.02 0.01,0.03 0.02,0.02 0.01,0.02 0.02,0.01 0.02,0.02 0.02,0.02 0.02,0.02 0.02,0.01 0.02,0.02 0.03,0.01 0.03,0.02 0.03,0.01 0.03,0.01 0.03,0.01 0.03,0.01 0.04,0.01 0.04,0.01 0.04,0.01 h 0.05 0.02 0.02 l 0.03,0.01 h 0.02 0.03 0.02 c 0.04,0 0.14,0.01 0.14,0.15 0,0.04 -0.03,0.1 -0.1,0.1 -0.23,0 -0.49,-0.03 -0.73,-0.03 -0.17,0 -0.57,0.03 -0.74,0.03 -0.04,0 -0.14,0 -0.14,-0.15 0,-0.09 0.09,-0.1 0.15,-0.1 0.33,-0.01 0.45,-0.11 0.45,-0.29 0,-0.05 -0.01,-0.09 -0.03,-0.16 l -0.76,-3.03 -1.78,3.61 c -0.05,0.12 -0.07,0.12 -0.23,0.12 h -0.96 c -0.14,0 -0.23,0 -0.23,-0.15 0,-0.1 0.09,-0.1 0.23,-0.1 0.15,0 0.3,-0.01 0.45,-0.04 l -0.93,-3.72 c -0.07,-0.26 -0.19,-0.47 -0.73,-0.49 -0.05,0 -0.15,-0.01 -0.15,-0.14 0,-0.08 0.06,-0.11 0.11,-0.11 0.23,0 0.49,0.03 0.72,0.03 0.17,0 0.58,-0.03 0.74,-0.03 0.07,0 0.14,0.04 0.14,0.15 0,0.09 -0.08,0.1 -0.16,0.1 -0.44,0.02 -0.44,0.2 -0.44,0.29 0,0.03 0,0.07 0.03,0.18 l 0.9,3.56 2.04,-4.16 c 0.05,-0.11 0.08,-0.12 0.15,-0.12 0.11,0 0.11,0.02 0.15,0.15 z"
   inkscape:connector-curvature="0" />
</g>  </g>
  <g
     id="g5269"
     inkscape:label="GND"
     transform="translate(2.8378733,25.104199)"
     inkscape:export-xdpi="600"
     inkscape:export-ydpi="600">
    <g
       transform="matrix(0.739645,0,0,-0.739645,-63.63906,399.49213)"
       ns0:preamble="C:\\Users\\Marcelo\\AppData\\Roaming\\inkscape\\extensions/textextLib/CircuitSymbolsLatexPreamble.tex"
       ns0:text=" $ADJ$"
       word-spacing="normal"
       letter-spacing="normal"
       font-size-adjust="none"
       font-stretch="normal"
       font-weight="normal"
       font-variant="normal"
       font-style="normal"
       stroke-miterlimit="10.433"
       xml:space="preserve"
       id="g5267"
       style="font-style:normal;font-variant:normal;font-weight:normal;font-stretch:normal;letter-spacing:normal;word-spacing:normal;text-anchor:start;fill:none;fill-opacity:1;fill-rule:evenodd;stroke:#000000;stroke-linecap:butt;stroke-linejoin:miter;stroke-miterlimit:10.43299961;stroke-dasharray:none;stroke-dashoffset:0;stroke-opacity:1">
<path
   id="path5261"
   style="fill:#000000;stroke-width:0"
   d="m 225.22,478.38 -0.04,-0.06 -0.04,-0.06 -0.04,-0.06 -0.03,-0.05 -0.04,-0.05 -0.04,-0.04 -0.03,-0.05 -0.04,-0.04 -0.04,-0.04 -0.04,-0.04 -0.03,-0.03 -0.04,-0.03 -0.04,-0.03 -0.04,-0.03 -0.03,-0.02 -0.04,-0.03 -0.04,-0.02 -0.04,-0.02 -0.04,-0.02 -0.03,-0.02 -0.04,-0.01 -0.04,-0.01 -0.04,-0.02 -0.04,-0.01 -0.04,-0.01 -0.04,-0.01 h -0.04 l -0.04,-0.01 -0.08,-0.01 -0.08,-0.01 c -0.12,-0.01 -0.21,-0.01 -0.21,-0.2 0,-0.05 0.05,-0.11 0.13,-0.11 0.27,0 0.58,0.04 0.86,0.04 0.33,0 0.68,-0.04 0.99,-0.04 0.06,0 0.2,0 0.2,0.19 0,0.11 -0.09,0.12 -0.17,0.12 -0.22,0.02 -0.46,0.1 -0.46,0.35 0,0.12 0.06,0.23 0.14,0.37 l 0.75,1.27 h 2.51 l -0.03,0.31 h -2.29 l 1.97,3.28 0.32,-3.28 0.03,-0.31 c 0.02,-0.21 0.16,-1.56 0.16,-1.66 0,-0.3 -0.52,-0.33 -0.72,-0.33 -0.14,0 -0.24,0 -0.24,-0.2 0,-0.11 0.12,-0.11 0.14,-0.11 0.41,0 0.84,0.04 1.25,0.04 0.25,0 0.87,-0.04 1.12,-0.04 0.06,0 0.18,0 0.18,0.2 0,0.11 -0.1,0.11 -0.23,0.11 -0.62,0 -0.62,0.07 -0.65,0.36 l -0.6,6.21 c -0.02,0.2 -0.02,0.24 -0.19,0.24 -0.16,0 -0.2,-0.07 -0.26,-0.17 z"
   inkscape:connector-curvature="0" />
<path
   id="path5263"
   style="fill:#000000;stroke-width:0"
   d="m 232.49,478.01 -0.01,-0.04 -0.01,-0.03 -0.01,-0.03 -0.01,-0.03 v -0.03 l -0.01,-0.03 -0.01,-0.02 -0.01,-0.03 -0.01,-0.02 -0.02,-0.02 -0.01,-0.02 -0.01,-0.02 -0.02,-0.02 -0.02,-0.01 -0.02,-0.02 -0.02,-0.01 -0.02,-0.01 -0.02,-0.01 -0.03,-0.01 -0.03,-0.01 -0.03,-0.01 h -0.02 l -0.02,-0.01 h -0.02 -0.02 l -0.02,-0.01 h -0.02 -0.02 -0.02 l -0.03,-0.01 h -0.02 -0.03 -0.02 -0.03 -0.03 -0.03 -0.03 l -0.03,-0.01 h -0.03 -0.03 -0.04 -0.03 -0.04 c -0.17,0 -0.28,0 -0.28,-0.19 0,-0.12 0.09,-0.12 0.28,-0.12 h 3.3 l -0.18,0.31 h -1.12 c -0.14,0 -0.16,0 -0.22,0.01 -0.1,0.01 -0.13,0.02 -0.13,0.1 0,0.03 0,0.05 0.05,0.23 l 1.36,5.45 c 0.09,0.35 0.11,0.38 0.54,0.38 h 1.07 c 0.98,0 1.8,-0.53 1.8,-1.84 0,-0.48 -0.2,-2.11 -1.04,-3.2 -0.29,-0.37 -1.08,-1.13 -2.31,-1.13 l 0.18,-0.31 c 2.08,0 4.04,2.1 4.04,4.28 0,1.4 -0.85,2.51 -2.34,2.51 h -3.35 c -0.19,0 -0.3,0 -0.3,-0.19 0,-0.12 0.09,-0.12 0.29,-0.12 0.13,0 0.31,-0.01 0.43,-0.02 0.16,-0.02 0.22,-0.05 0.22,-0.16 0,-0.04 -0.01,-0.07 -0.04,-0.19 z"
   inkscape:connector-curvature="0" />
<path
   id="path5265"
   style="fill:#000000;stroke-width:0"
   d="m 244.83,483.3 v 0.02 l 0.01,0.03 0.01,0.03 v 0.03 l 0.01,0.02 0.01,0.02 0.01,0.03 v 0.02 l 0.01,0.02 0.01,0.02 0.01,0.01 0.01,0.02 0.01,0.02 0.02,0.01 0.01,0.01 0.01,0.02 0.02,0.01 0.02,0.01 0.02,0.01 0.02,0.01 h 0.02 l 0.03,0.01 0.02,0.01 h 0.02 0.01 l 0.02,0.01 h 0.01 0.02 0.02 0.02 0.01 l 0.02,0.01 h 0.02 0.02 0.02 0.02 0.03 0.02 0.02 0.03 0.02 c 0.16,0 0.27,0 0.27,0.19 0,0.09 -0.06,0.12 -0.14,0.12 -0.25,0 -0.85,-0.03 -1.1,-0.03 -0.33,0 -1.14,0.03 -1.47,0.03 -0.09,0 -0.21,0 -0.21,-0.2 0,-0.11 0.08,-0.11 0.34,-0.11 0.23,0 0.33,0 0.58,-0.02 0.24,-0.03 0.31,-0.06 0.31,-0.2 0,-0.06 -0.02,-0.13 -0.04,-0.2 l -1.15,-4.56 c -0.24,-0.97 -0.92,-1.5 -1.43,-1.5 -0.26,0 -0.79,0.1 -0.95,0.62 0.03,-0.01 0.1,-0.01 0.12,-0.01 0.39,0 0.65,0.34 0.65,0.64 0,0.32 -0.27,0.41 -0.44,0.41 -0.18,0 -0.67,-0.12 -0.67,-0.79 0,-0.62 0.53,-1.08 1.32,-1.08 0.91,0 1.95,0.65 2.2,1.64 z"
   inkscape:connector-curvature="0" />
</g>  </g>
  <path
     style="fill:none;stroke:#000000;stroke-width:1;stroke-linecap:butt;stroke-linejoin:miter;stroke-miterlimit:4;stroke-dasharray:none;stroke-opacity:1"
     d="M 141.58596,73.684454 V 41.934455 H 83.377633 v 31.750001 z"
     id="path5280"
     inkscape:connector-curvature="0"
     inkscape:export-xdpi="600"
     inkscape:export-ydpi="600" />
  <path
     style="fill:none;stroke:#000000;stroke-width:1;stroke-linecap:butt;stroke-linejoin:miter;stroke-miterlimit:4;stroke-dasharray:none;stroke-opacity:1"
     d="M 112.4818,108.08029 V 73.684454"
     id="path5393"
     inkscape:connector-curvature="0"
     inkscape:export-xdpi="600"
     inkscape:export-ydpi="600" />
  <path
     style="fill:none;stroke:#000000;stroke-width:1;stroke-linecap:butt;stroke-linejoin:miter;stroke-miterlimit:4;stroke-dasharray:none;stroke-opacity:1;marker-end:url(#DotS)"
     d="M 157.46096,108.08029 H 112.4818"
     id="path5395"
     inkscape:connector-curvature="0"
     inkscape:export-xdpi="600"
     inkscape:export-ydpi="600" />
  <g
     id="g5829"
     inkscape:label="GND"
     transform="translate(22.481796,68.351122)"
     inkscape:export-xdpi="600"
     inkscape:export-ydpi="600">
    <g
       id="g5827"
       inkscape:label="GND">
      <path
         id="path5819"
         inkscape:label="none"
         style="fill:none;stroke:#000000;stroke-width:1;stroke-linecap:round;stroke-linejoin:round;stroke-dasharray:none"
         d="m 90,90 v 10"
         inkscape:connector-curvature="0" />
      <path
         id="path5821"
         inkscape:label="none"
         style="fill:none;stroke:#000000;stroke-width:1;stroke-linecap:round;stroke-linejoin:round;stroke-dasharray:none"
         d="M 97,100 H 83"
         inkscape:connector-curvature="0" />
      <path
         id="path5823"
         inkscape:label="none"
         style="fill:none;stroke:#000000;stroke-width:1;stroke-linecap:round;stroke-linejoin:round;stroke-dasharray:none"
         d="m 93.5,102 h -7"
         inkscape:connector-curvature="0" />
      <path
         id="path5825"
         inkscape:label="none"
         style="fill:none;stroke:#000000;stroke-width:1;stroke-linecap:round;stroke-linejoin:round;stroke-dasharray:none"
         d="M 91,104 H 89"
         inkscape:connector-curvature="0" />
    </g>
  </g>
  <g
     id="g5947"
     inkscape:label="GND"
     transform="translate(74.189658,78.357176)"
     inkscape:export-xdpi="600"
     inkscape:export-ydpi="600">
    <g
       id="g5945"
       inkscape:label="GND">
      <path
         id="path5937"
         inkscape:label="none"
         style="fill:none;stroke:#000000;stroke-width:1;stroke-linecap:round;stroke-linejoin:round;stroke-dasharray:none"
         d="M 160,80 V 90"
         inkscape:connector-curvature="0" />
      <path
         id="path5939"
         inkscape:label="none"
         style="fill:none;stroke:#000000;stroke-width:1;stroke-linecap:round;stroke-linejoin:round;stroke-dasharray:none"
         d="M 167,90 H 153"
         inkscape:connector-curvature="0" />
      <path
         id="path5941"
         inkscape:label="none"
         style="fill:none;stroke:#000000;stroke-width:1;stroke-linecap:round;stroke-linejoin:round;stroke-dasharray:none"
         d="m 163.5,92 h -7"
         inkscape:connector-curvature="0" />
      <path
         id="path5943"
         inkscape:label="none"
         style="fill:none;stroke:#000000;stroke-width:1;stroke-linecap:round;stroke-linejoin:round;stroke-dasharray:none"
         d="m 161,94 h -2"
         inkscape:connector-curvature="0" />
    </g>
  </g>
  <path
     style="fill:none;stroke:#000000;stroke-width:1;stroke-linecap:butt;stroke-linejoin:miter;stroke-miterlimit:4;stroke-dasharray:none;stroke-opacity:1"
     d="m 234.18988,158.35718 v -25.4"
     id="path5957"
     inkscape:connector-curvature="0"
     inkscape:export-xdpi="600"
     inkscape:export-ydpi="600" />
  <path
     style="fill:none;stroke:#000000;stroke-width:1;stroke-linecap:butt;stroke-linejoin:miter;stroke-miterlimit:4;stroke-dasharray:none;stroke-opacity:1"
     d="m 191.85655,58.080092 h 42.33333 v 24.870834"
     id="path5959"
     inkscape:connector-curvature="0"
     inkscape:export-xdpi="600"
     inkscape:export-ydpi="600" />
  <path
     style="fill:none;stroke:#000000;stroke-width:1;stroke-linecap:butt;stroke-linejoin:miter;stroke-miterlimit:4;stroke-dasharray:none;stroke-opacity:1;marker-start:url(#marker5971)"
     d="M 234.18988,58.080092 H 251.3878"
     id="path5961"
     inkscape:connector-curvature="0"
     inkscape:export-xdpi="600"
     inkscape:export-ydpi="600" />
  <g
     id="g6138"
     inkscape:label="GND"
     transform="translate(46.335376,30.690518)"
     inkscape:export-xdpi="600"
     inkscape:export-ydpi="600">
    <g
       id="g6120"
       inkscape:label="GND"
       transform="translate(5.072389,-12.622753)">
      <circle
         id="path6118"
         inkscape:label="circle"
         style="fill:#000000;stroke:#000000;stroke-width:0.69999999;stroke-linecap:round;stroke-linejoin:round;stroke-dasharray:none"
         cx="200"
         cy="40"
         r="1" />
    </g>
  </g>
  <g
     id="g6275"
     inkscape:label="GND"
     transform="translate(61.387498,16.919676)"
     inkscape:export-xdpi="600"
     inkscape:export-ydpi="600">
    <g
       id="g6273"
       inkscape:label="GND">
      <path
         id="path6265"
         inkscape:label="none"
         style="fill:none;stroke:#000000;stroke-width:1;stroke-linecap:round;stroke-linejoin:round;stroke-dasharray:none"
         d="M 190,70 V 80"
         inkscape:connector-curvature="0" />
      <path
         id="path6267"
         inkscape:label="none"
         style="fill:none;stroke:#000000;stroke-width:1;stroke-linecap:round;stroke-linejoin:round;stroke-dasharray:none"
         d="M 197,80 H 183"
         inkscape:connector-curvature="0" />
      <path
         id="path6269"
         inkscape:label="none"
         style="fill:none;stroke:#000000;stroke-width:1;stroke-linecap:round;stroke-linejoin:round;stroke-dasharray:none"
         d="m 193.5,82 h -7"
         inkscape:connector-curvature="0" />
      <path
         id="path6271"
         inkscape:label="none"
         style="fill:none;stroke:#000000;stroke-width:1;stroke-linecap:round;stroke-linejoin:round;stroke-dasharray:none"
         d="m 191,84 h -2"
         inkscape:connector-curvature="0" />
    </g>
  </g>
  <g
     id="g6596"
     transform="rotate(-90,222.90837,40.198457)"
     inkscape:label="arrowV"
     inkscape:export-xdpi="600"
     inkscape:export-ydpi="600">
    <path
       id="path6588"
       inkscape:label="arc"
       sodipodi:type="arc"
       sodipodi:start="1.2309594"
       sodipodi:ry="30"
       sodipodi:rx="30"
       sodipodi:open="true"
       sodipodi:end="1.9106332"
       sodipodi:cy="41.715729"
       sodipodi:cx="190"
       style="fill:none;stroke:#217b21;stroke-width:1;stroke-linecap:round;stroke-linejoin:round;stroke-dasharray:none;marker-start:url(#arrowVoltageStart)"
       d="m 200,70 a 30,30 0 0 1 -20,0" />
    <g
       transform="matrix(0,0.739645,0.739645,0,-164.88907,-89.957355)"
       ns0:preamble="C:\\Users\\Marcelo\\AppData\\Roaming\\inkscape\\extensions/textextLib/CircuitSymbolsLatexPreamble.tex"
       ns0:text=" $V_O$"
       word-spacing="normal"
       letter-spacing="normal"
       font-size-adjust="none"
       font-stretch="normal"
       font-weight="normal"
       font-variant="normal"
       font-style="normal"
       stroke-miterlimit="10.433"
       xml:space="preserve"
       id="g6594"
       style="font-style:normal;font-variant:normal;font-weight:normal;font-stretch:normal;letter-spacing:normal;word-spacing:normal;text-anchor:start;fill:none;fill-opacity:1;fill-rule:evenodd;stroke:#000000;stroke-linecap:butt;stroke-linejoin:miter;stroke-miterlimit:10.43299961;stroke-dasharray:none;stroke-dashoffset:0;stroke-opacity:1">
<path
   id="path6590"
   style="fill:#217b21;stroke-width:0"
   d="m 229.7,482.89 0.04,0.07 0.05,0.06 0.04,0.07 0.04,0.05 0.05,0.06 0.04,0.05 0.05,0.05 0.04,0.04 0.04,0.04 0.04,0.04 0.04,0.03 0.05,0.03 0.04,0.03 0.04,0.03 0.04,0.02 0.04,0.02 0.04,0.02 0.04,0.02 0.04,0.01 0.03,0.02 0.04,0.01 0.04,0.01 0.04,0.01 h 0.03 l 0.04,0.01 h 0.04 l 0.07,0.01 0.07,0.01 h 0.07 c 0.12,0.01 0.13,0.18 0.13,0.19 0,0.08 -0.05,0.12 -0.13,0.12 -0.26,0 -0.55,-0.03 -0.82,-0.03 -0.33,0 -0.66,0.03 -0.98,0.03 -0.06,0 -0.19,0 -0.19,-0.19 0,-0.11 0.09,-0.12 0.16,-0.12 0.26,-0.02 0.46,-0.12 0.46,-0.33 0,-0.15 -0.15,-0.36 -0.15,-0.37 l -3.07,-4.85 -0.67,5.25 c 0,0.17 0.22,0.3 0.68,0.3 0.14,0 0.25,0 0.25,0.2 0,0.09 -0.08,0.11 -0.14,0.11 -0.4,0 -0.82,-0.03 -1.23,-0.03 -0.18,0 -0.37,0.01 -0.55,0.01 -0.18,0 -0.37,0.02 -0.54,0.02 -0.07,0 -0.19,0 -0.19,-0.19 0,-0.12 0.09,-0.12 0.25,-0.12 0.56,0 0.57,-0.09 0.6,-0.34 l 0.79,-6.13 c 0.03,-0.19 0.07,-0.22 0.19,-0.22 0.17,0 0.2,0.05 0.28,0.18 z"
   inkscape:connector-curvature="0" />
<path
   id="path6592"
   style="fill:#217b21;stroke-width:0"
   d="m 235.04,478.7 v 0.1 l -0.01,0.1 -0.01,0.1 -0.02,0.09 -0.02,0.1 -0.02,0.09 -0.03,0.09 -0.03,0.09 -0.04,0.08 -0.04,0.09 -0.05,0.08 -0.05,0.08 -0.05,0.07 -0.05,0.08 -0.07,0.07 -0.06,0.06 -0.07,0.07 -0.07,0.06 -0.07,0.05 -0.08,0.06 -0.08,0.04 -0.09,0.05 -0.09,0.04 -0.09,0.04 -0.09,0.03 -0.1,0.03 -0.1,0.03 -0.1,0.02 -0.11,0.02 -0.11,0.01 -0.11,0.01 h -0.12 l -0.05,-0.22 c 0.72,0 1.39,-0.46 1.39,-1.47 0,-0.51 -0.21,-1.52 -0.86,-2.27 -0.49,-0.55 -1.13,-0.84 -1.67,-0.84 v 0 c -0.74,0 -1.37,0.5 -1.37,1.53 0,0.36 0.09,1.34 0.74,2.14 0.47,0.57 1.14,0.91 1.77,0.91 l 0.05,0.22 c -1.67,0 -3.28,-1.56 -3.28,-3.12 0,-1.12 0.83,-1.91 2.03,-1.91 1.67,0 3.28,1.52 3.28,3.1 z"
   inkscape:connector-curvature="0" />
</g>  </g>
  <path
     style="fill:none;stroke:#000000;stroke-width:1;stroke-linecap:butt;stroke-linejoin:miter;stroke-miterlimit:4;stroke-dasharray:none;stroke-opacity:1"
     d="M 58.242212,82.944872 V 57.809455"
     id="path6752"
     inkscape:connector-curvature="0"
     inkscape:export-xdpi="600"
     inkscape:export-ydpi="600" />
  <path
     style="fill:none;stroke:#000000;stroke-width:1;stroke-linecap:butt;stroke-linejoin:miter;stroke-miterlimit:4;stroke-dasharray:none;stroke-opacity:1;marker-start:url(#marker7220)"
     d="M 58.242212,57.809454 H 83.377633"
     id="path7210"
     inkscape:connector-curvature="0"
     inkscape:export-xdpi="600"
     inkscape:export-ydpi="600" />
  <g
     id="g7461"
     inkscape:label="GND"
     transform="translate(-21.757787,98.351122)"
     inkscape:export-xdpi="600"
     inkscape:export-ydpi="600">
    <g
       id="g7459"
       inkscape:label="GND">
      <path
         id="path7451"
         inkscape:label="none"
         style="fill:none;stroke:#000000;stroke-width:1;stroke-linecap:round;stroke-linejoin:round;stroke-dasharray:none"
         d="M 80,60 V 70"
         inkscape:connector-curvature="0" />
      <path
         id="path7453"
         inkscape:label="none"
         style="fill:none;stroke:#000000;stroke-width:1;stroke-linecap:round;stroke-linejoin:round;stroke-dasharray:none"
         d="M 87,70 H 73"
         inkscape:connector-curvature="0" />
      <path
         id="path7455"
         inkscape:label="none"
         style="fill:none;stroke:#000000;stroke-width:1;stroke-linecap:round;stroke-linejoin:round;stroke-dasharray:none"
         d="m 83.5,72 h -7"
         inkscape:connector-curvature="0" />
      <path
         id="path7457"
         inkscape:label="none"
         style="fill:none;stroke:#000000;stroke-width:1;stroke-linecap:round;stroke-linejoin:round;stroke-dasharray:none"
         d="M 81,74 H 79"
         inkscape:connector-curvature="0" />
    </g>
  </g>
  <path
     style="fill:none;stroke:#000000;stroke-width:1;stroke-linecap:butt;stroke-linejoin:miter;stroke-miterlimit:4;stroke-dasharray:none;stroke-opacity:1"
     d="M 58.242212,158.35113 V 132.94488"
     id="path7471"
     inkscape:connector-curvature="0"
     inkscape:export-xdpi="600"
     inkscape:export-ydpi="600" />
  <path
     style="fill:none;stroke:#000000;stroke-width:1;stroke-linecap:butt;stroke-linejoin:miter;stroke-miterlimit:4;stroke-dasharray:none;stroke-opacity:1"
     d="M 58.242212,57.809454 H 43.425545"
     id="path7473"
     inkscape:connector-curvature="0"
     inkscape:export-xdpi="600"
     inkscape:export-ydpi="600" />
  <g
     id="g7656"
     inkscape:label="GND"
     transform="translate(12.457534,8.5497809)"
     inkscape:export-xdpi="600"
     inkscape:export-ydpi="600">
    <g
       id="g7648"
       inkscape:label="GND"
       transform="translate(0.28397387,-0.78510424)">
      <circle
         id="path7646"
         inkscape:label="circle"
         style="fill:#000000;stroke:#000000;stroke-width:0.69999999;stroke-linecap:round;stroke-linejoin:round;stroke-dasharray:none"
         cx="0"
         cy="50"
         r="1" />
    </g>
  </g>
  <g
     id="g8026"
     transform="rotate(90,-5.8450655,67.256062)"
     inkscape:label="arrowV"
     inkscape:export-xdpi="600"
     inkscape:export-ydpi="600">
    <path
       id="path8016"
       inkscape:label="arc"
       sodipodi:type="arc"
       sodipodi:start="1.2309594"
       sodipodi:ry="30"
       sodipodi:rx="30"
       sodipodi:open="true"
       sodipodi:end="1.9106332"
       sodipodi:cy="21.715729"
       sodipodi:cx="0"
       style="fill:none;stroke:#217b21;stroke-width:1;stroke-linecap:round;stroke-linejoin:round;stroke-dasharray:none;marker-end:url(#arrowVoltageEnd)"
       d="M 10,50 A 30,30 0 0 1 -9.999999,50" />
    <g
       transform="matrix(0,-0.739645,-0.739645,0,354.91496,227.08408)"
       ns0:preamble="C:\\Users\\Marcelo\\AppData\\Roaming\\inkscape\\extensions/textextLib/CircuitSymbolsLatexPreamble.tex"
       ns0:text=" $V_i$"
       word-spacing="normal"
       letter-spacing="normal"
       font-size-adjust="none"
       font-stretch="normal"
       font-weight="normal"
       font-variant="normal"
       font-style="normal"
       stroke-miterlimit="10.433"
       xml:space="preserve"
       id="g8024"
       style="font-style:normal;font-variant:normal;font-weight:normal;font-stretch:normal;letter-spacing:normal;word-spacing:normal;text-anchor:start;fill:none;fill-opacity:1;fill-rule:evenodd;stroke:#000000;stroke-linecap:butt;stroke-linejoin:miter;stroke-miterlimit:10.43299961;stroke-dasharray:none;stroke-dashoffset:0;stroke-opacity:1">
<path
   id="path8018"
   style="fill:#217b21;stroke-width:0"
   d="m 229.7,482.89 0.04,0.07 0.05,0.06 0.04,0.07 0.04,0.05 0.05,0.06 0.04,0.05 0.05,0.05 0.04,0.04 0.04,0.04 0.04,0.04 0.04,0.03 0.05,0.03 0.04,0.03 0.04,0.03 0.04,0.02 0.04,0.02 0.04,0.02 0.04,0.02 0.04,0.01 0.03,0.02 0.04,0.01 0.04,0.01 0.04,0.01 h 0.03 l 0.04,0.01 h 0.04 l 0.07,0.01 0.07,0.01 h 0.07 c 0.12,0.01 0.13,0.18 0.13,0.19 0,0.08 -0.05,0.12 -0.13,0.12 -0.26,0 -0.55,-0.03 -0.82,-0.03 -0.33,0 -0.66,0.03 -0.98,0.03 -0.06,0 -0.19,0 -0.19,-0.19 0,-0.11 0.09,-0.12 0.16,-0.12 0.26,-0.02 0.46,-0.12 0.46,-0.33 0,-0.15 -0.15,-0.36 -0.15,-0.37 l -3.07,-4.85 -0.67,5.25 c 0,0.17 0.22,0.3 0.68,0.3 0.14,0 0.25,0 0.25,0.2 0,0.09 -0.08,0.11 -0.14,0.11 -0.4,0 -0.82,-0.03 -1.23,-0.03 -0.18,0 -0.37,0.01 -0.55,0.01 -0.18,0 -0.37,0.02 -0.54,0.02 -0.07,0 -0.19,0 -0.19,-0.19 0,-0.12 0.09,-0.12 0.25,-0.12 0.56,0 0.57,-0.09 0.6,-0.34 l 0.79,-6.13 c 0.03,-0.19 0.07,-0.22 0.19,-0.22 0.17,0 0.2,0.05 0.28,0.18 z"
   inkscape:connector-curvature="0" />
<path
   id="path8020"
   style="fill:#217b21;stroke-width:0"
   d="m 231.51,480.09 v 0.01 0.01 0.01 0.01 l -0.01,0.01 v 0.01 0.01 l -0.01,0.02 v 0.01 l -0.01,0.01 v 0.01 l -0.01,0.01 v 0.01 l -0.01,0.01 -0.01,0.01 -0.01,0.01 -0.01,0.01 -0.01,0.01 -0.01,0.01 -0.01,0.01 h -0.01 l -0.01,0.01 -0.01,0.01 -0.01,0.01 h -0.02 l -0.01,0.01 h -0.02 -0.01 l -0.02,0.01 h -0.01 -0.02 -0.02 c -0.19,0 -0.39,-0.18 -0.39,-0.38 0,-0.12 0.09,-0.27 0.28,-0.27 0.2,0 0.39,0.2 0.39,0.39 z"
   inkscape:connector-curvature="0" />
<path
   id="path8022"
   style="fill:#217b21;stroke-width:0"
   d="m 230.08,476.55 v -0.01 l -0.01,-0.02 -0.01,-0.03 v -0.02 l -0.01,-0.02 v -0.01 l -0.01,-0.02 v -0.02 l -0.01,-0.02 v -0.02 -0.01 l -0.01,-0.01 v -0.01 -0.01 -0.01 -0.02 -0.01 -0.01 -0.01 c 0,-0.32 0.28,-0.59 0.66,-0.59 0.7,0 1.01,0.96 1.01,1.06 0,0.1 -0.09,0.1 -0.11,0.1 -0.1,0 -0.11,-0.05 -0.13,-0.12 -0.16,-0.56 -0.47,-0.84 -0.74,-0.84 -0.14,0 -0.18,0.09 -0.18,0.24 0,0.16 0.05,0.29 0.11,0.44 0.07,0.19 0.15,0.38 0.23,0.56 0.06,0.17 0.31,0.8 0.34,0.88 0.02,0.07 0.04,0.16 0.04,0.23 0,0.32 -0.28,0.59 -0.66,0.59 -0.7,0 -1.02,-0.95 -1.02,-1.07 0,-0.09 0.1,-0.09 0.12,-0.09 0.1,0 0.11,0.04 0.13,0.11 0.18,0.6 0.49,0.85 0.75,0.85 0.11,0 0.17,-0.05 0.17,-0.24 0,-0.16 -0.04,-0.26 -0.22,-0.7 z"
   inkscape:connector-curvature="0" />
</g>  </g>
  <g
     id="g8214"
     inkscape:label="GND"
     transform="translate(32.733859,36.913622)"
     inkscape:export-xdpi="600"
     inkscape:export-ydpi="600">
    <g
       id="g8212"
       inkscape:label="GND">
      <path
         id="path8204"
         inkscape:label="none"
         style="fill:none;stroke:#000000;stroke-width:1;stroke-linecap:round;stroke-linejoin:round;stroke-dasharray:none"
         d="M -20,50 V 60"
         inkscape:connector-curvature="0" />
      <path
         id="path8206"
         inkscape:label="none"
         style="fill:none;stroke:#000000;stroke-width:1;stroke-linecap:round;stroke-linejoin:round;stroke-dasharray:none"
         d="M -13,60 H -27"
         inkscape:connector-curvature="0" />
      <path
         id="path8208"
         inkscape:label="none"
         style="fill:none;stroke:#000000;stroke-width:1;stroke-linecap:round;stroke-linejoin:round;stroke-dasharray:none"
         d="m -16.5,62 h -7"
         inkscape:connector-curvature="0" />
      <path
         id="path8210"
         inkscape:label="none"
         style="fill:none;stroke:#000000;stroke-width:1;stroke-linecap:round;stroke-linejoin:round;stroke-dasharray:none"
         d="m -19,64 h -2"
         inkscape:connector-curvature="0" />
    </g>
  </g>
  <path
     style="fill:none;stroke:#000000;stroke-width:1;stroke-linecap:butt;stroke-linejoin:miter;stroke-miterlimit:4;stroke-dasharray:none;stroke-opacity:1"
     d="M 43.425544,57.809453 H 12.6575"
     id="path4868"
     inkscape:connector-curvature="0"
     inkscape:export-xdpi="600"
     inkscape:export-ydpi="600" />
  <g
     id="g5033"
     inkscape:label="GND"
     transform="translate(-17.04676,-16.429028)"
     inkscape:export-xdpi="600"
     inkscape:export-ydpi="600">
    <g
       transform="matrix(0.739645,0,0,-0.739645,-46.53477,409.49213)"
       ns0:preamble="C:\\Users\\Marcelo\\AppData\\Roaming\\inkscape\\extensions/textextLib/CircuitSymbolsLatexPreamble.tex"
       ns0:text=" $\\textrm{LM317}$"
       word-spacing="normal"
       letter-spacing="normal"
       font-size-adjust="none"
       font-stretch="normal"
       font-weight="normal"
       font-variant="normal"
       font-style="normal"
       stroke-miterlimit="10.433"
       xml:space="preserve"
       id="g5031"
       style="font-style:normal;font-variant:normal;font-weight:normal;font-stretch:normal;letter-spacing:normal;word-spacing:normal;text-anchor:start;fill:none;fill-opacity:1;fill-rule:evenodd;stroke:#000000;stroke-linecap:butt;stroke-linejoin:miter;stroke-miterlimit:10.43299961;stroke-dasharray:none;stroke-dashoffset:0;stroke-opacity:1">
<path
   id="path5021"
   style="fill:#000000;stroke-width:0"
   d="m 229.24,479.8 h -0.25 c -0.11,-1.01 -0.25,-2.26 -2.01,-2.26 h -0.82 c -0.46,0 -0.48,0.07 -0.48,0.4 v 5.29 c 0,0.34 0,0.48 0.94,0.48 h 0.33 v 0.31 c -0.36,-0.03 -1.26,-0.03 -1.67,-0.03 -0.39,0 -1.17,0 -1.52,0.03 v -0.31 H 224 c 0.77,0 0.79,-0.11 0.79,-0.47 v -5.23 c 0,-0.36 -0.02,-0.47 -0.79,-0.47 h -0.24 v -0.31 h 5.2 z"
   inkscape:connector-curvature="0" />
<path
   id="path5023"
   style="fill:#000000;stroke-width:0"
   d="m 232.06,483.8 v 0.01 l -0.01,0.01 v 0.01 0.01 l -0.01,0.02 -0.01,0.01 -0.01,0.02 v 0.01 l -0.01,0.02 -0.01,0.01 -0.01,0.01 v 0.01 l -0.01,0.01 -0.01,0.01 h -0.01 v 0.01 l -0.01,0.01 h -0.01 l -0.01,0.01 h -0.01 l -0.01,0.01 h -0.01 -0.01 -0.01 l -0.02,0.01 h -0.01 -0.01 -0.02 -0.01 -0.02 -0.02 -0.02 -0.02 -0.02 -1.68 v -0.31 h 0.24 c 0.77,0 0.78,-0.11 0.78,-0.47 v -4.96 c 0,-0.27 0,-0.74 -1.02,-0.74 v -0.31 c 0.35,0.01 0.84,0.04 1.16,0.04 0.33,0 0.82,-0.03 1.17,-0.04 v 0.31 c -1.03,0 -1.03,0.47 -1.03,0.74 v 5.35 h 0.01 l 2.41,-6.18 c 0.05,-0.13 0.1,-0.22 0.2,-0.22 0.11,0 0.14,0.08 0.18,0.19 l 2.45,6.29 h 0.01 v -5.7 c 0,-0.36 -0.02,-0.47 -0.79,-0.47 h -0.24 v -0.31 c 0.37,0.04 1.05,0.04 1.44,0.04 0.39,0 1.05,0 1.42,-0.04 v 0.31 h -0.24 c -0.76,0 -0.78,0.11 -0.78,0.47 v 5.23 c 0,0.36 0.02,0.47 0.78,0.47 h 0.24 v 0.31 h -1.68 c -0.26,0 -0.26,-0.01 -0.33,-0.19 l -2.18,-5.59 z"
   inkscape:connector-curvature="0" />
<path
   id="path5025"
   style="fill:#000000;stroke-width:0"
   d="m 241.68,480.73 0.08,0.03 0.07,0.03 0.08,0.03 0.07,0.03 0.07,0.04 0.07,0.04 0.06,0.04 0.07,0.04 0.06,0.04 0.06,0.05 0.06,0.05 0.05,0.05 0.06,0.05 0.05,0.05 0.05,0.06 0.05,0.05 0.04,0.06 0.05,0.06 0.04,0.06 0.03,0.06 0.04,0.07 0.03,0.06 0.03,0.07 0.03,0.06 0.02,0.07 0.02,0.07 0.02,0.07 0.01,0.07 0.01,0.07 0.01,0.07 0.01,0.08 v 0.07 c 0,0.82 -0.88,1.37 -1.84,1.37 -1,0 -1.76,-0.59 -1.76,-1.35 0,-0.33 0.22,-0.52 0.51,-0.52 0.31,0 0.51,0.22 0.51,0.51 0,0.5 -0.47,0.5 -0.62,0.5 0.31,0.48 0.97,0.61 1.33,0.61 0.4,0 0.95,-0.22 0.95,-1.11 0,-0.12 -0.02,-0.69 -0.28,-1.13 -0.3,-0.48 -0.64,-0.51 -0.89,-0.52 -0.08,-0.01 -0.31,-0.03 -0.38,-0.03 -0.08,-0.01 -0.15,-0.02 -0.15,-0.12 0,-0.11 0.07,-0.11 0.24,-0.11 h 0.43 c 0.82,0 1.19,-0.67 1.19,-1.65 0,-1.35 -0.69,-1.63 -1.12,-1.63 -0.43,0 -1.18,0.16 -1.53,0.75 0.35,-0.05 0.66,0.17 0.66,0.55 0,0.35 -0.27,0.55 -0.56,0.55 -0.24,0 -0.56,-0.14 -0.56,-0.57 0,-0.91 0.93,-1.56 2.02,-1.56 1.21,0 2.12,0.9 2.12,1.91 0,0.82 -0.63,1.59 -1.67,1.8 z"
   inkscape:connector-curvature="0" />
<path
   id="path5027"
   style="fill:#000000;stroke-width:0"
   d="m 246.7,483.59 v 0.01 0.01 0.02 0.01 0 0.01 0.01 0.01 0.01 0.01 0.01 0.01 0 0.01 0.01 0 0.01 0.01 0.01 l -0.01,0.01 v 0.01 0.01 l -0.01,0.01 v 0 0.01 l -0.01,0.01 h -0.01 v 0.01 h -0.01 l -0.01,0.01 h -0.01 v 0 h -0.01 v 0 h -0.01 v 0 l -0.01,0.01 h -0.01 v 0 h -0.01 -0.01 v 0 h -0.01 -0.01 -0.01 -0.01 -0.01 v 0 h -0.01 -0.01 -0.01 -0.01 c -0.62,-0.64 -1.5,-0.64 -1.82,-0.64 v -0.3 c 0.2,0 0.79,0 1.31,0.26 v -5.15 c 0,-0.36 -0.03,-0.48 -0.93,-0.48 h -0.32 v -0.31 c 0.35,0.04 1.22,0.04 1.62,0.04 0.39,0 1.26,0 1.61,-0.04 v 0.31 h -0.32 c -0.9,0 -0.93,0.11 -0.93,0.48 z"
   inkscape:connector-curvature="0" />
<path
   id="path5029"
   style="fill:#000000;stroke-width:0"
   d="m 253.5,483.29 0.01,0.01 0.01,0.01 v 0.01 l 0.01,0.01 h 0.01 v 0.01 l 0.01,0.01 v 0.01 l 0.01,0.01 v 0.01 0 l 0.01,0.01 v 0.01 0.01 l 0.01,0.01 v 0.01 0 0.01 0.01 l 0.01,0.01 v 0.01 0.01 0.01 0.02 0.01 0.01 0.02 0.01 0.02 0.02 0.01 0.01 0.01 h -2.42 c -1.22,0 -1.24,0.13 -1.28,0.32 h -0.25 l -0.33,-2.05 h 0.25 c 0.03,0.16 0.12,0.79 0.25,0.91 0.07,0.06 0.85,0.06 0.98,0.06 h 2.06 c -0.11,-0.16 -0.89,-1.24 -1.11,-1.57 -0.9,-1.34 -1.23,-2.72 -1.23,-3.74 0,-0.1 0,-0.54 0.46,-0.54 0.46,0 0.46,0.44 0.46,0.54 v 0.51 c 0,0.55 0.03,1.09 0.11,1.63 0.04,0.23 0.18,1.08 0.61,1.7 z"
   inkscape:connector-curvature="0" />
</g>  </g>
  <g
     id="g5228"
     inkscape:label="Capacitor"
     transform="rotate(-90,209.96833,78.111767)"
     inkscape:export-xdpi="600"
     inkscape:export-ydpi="600">
    <g
       id="g5210"
       inkscape:label="Capacitor">
      <path
         id="path5202"
         inkscape:label="none"
         style="fill:none;stroke:#000000;stroke-width:1;stroke-linecap:round;stroke-linejoin:round;stroke-dasharray:none"
         d="m 130,60 h 23"
         inkscape:connector-curvature="0" />
      <path
         id="path5204"
         inkscape:label="none"
         style="fill:none;stroke:#000000;stroke-width:1;stroke-linecap:round;stroke-linejoin:round;stroke-dasharray:none"
         d="M 180,60 H 157"
         inkscape:connector-curvature="0" />
      <path
         id="path5206"
         inkscape:label="none"
         style="fill:none;stroke:#000000;stroke-width:1;stroke-linecap:round;stroke-linejoin:round;stroke-dasharray:none"
         d="M 153,67 V 53"
         inkscape:connector-curvature="0" />
      <path
         id="path5208"
         inkscape:label="none"
         style="fill:none;stroke:#000000;stroke-width:1;stroke-linecap:round;stroke-linejoin:round;stroke-dasharray:none"
         d="M 157,67 V 53"
         inkscape:connector-curvature="0" />
    </g>
    <g
       transform="matrix(0,0.739645,0.739645,0,-199.82251,-130.01353)"
       ns0:preamble="C:\\Users\\Marcelo\\AppData\\Roaming\\inkscape\\extensions/textextLib/CircuitSymbolsLatexPreamble.tex"
       ns0:text=" $Cadj$"
       word-spacing="normal"
       letter-spacing="normal"
       font-size-adjust="none"
       font-stretch="normal"
       font-weight="normal"
       font-variant="normal"
       font-style="normal"
       stroke-miterlimit="10.433"
       xml:space="preserve"
       id="g5222"
       style="font-style:normal;font-variant:normal;font-weight:normal;font-stretch:normal;letter-spacing:normal;word-spacing:normal;text-anchor:start;fill:none;fill-opacity:1;fill-rule:evenodd;stroke:#000000;stroke-linecap:butt;stroke-linejoin:miter;stroke-miterlimit:10.43299961;stroke-dasharray:none;stroke-dashoffset:0;stroke-opacity:1">
<path
   id="path5212"
   style="fill:#000000;stroke-width:0"
   d="m 231.01,484.14 v 0 0.01 0 0 0.01 0 0 0.01 0 l -0.01,0.01 v 0 0 0.01 0 l -0.01,0.01 v 0 0 l -0.01,0.01 v 0 0 l -0.01,0.01 v 0 h -0.01 v 0.01 h -0.01 v 0 h -0.01 v 0 0 h -0.01 v 0 0.01 h -0.01 v 0 0 h -0.01 v 0 0 h -0.01 c -0.03,0 -0.04,-0.01 -0.15,-0.12 l -0.7,-0.77 c -0.09,0.14 -0.54,0.89 -1.65,0.89 -2.23,0 -4.47,-2.2 -4.47,-4.5 0,-1.64 1.18,-2.72 2.7,-2.72 0.87,0 1.63,0.39 2.16,0.85 0.92,0.81 1.09,1.72 1.09,1.75 0,0.1 -0.1,0.1 -0.12,0.1 -0.06,0 -0.11,-0.02 -0.13,-0.1 -0.09,-0.29 -0.31,-0.99 -1,-1.57 -0.69,-0.56 -1.32,-0.73 -1.84,-0.73 -0.89,0 -1.95,0.52 -1.95,2.07 0,0.57 0.21,2.18 1.2,3.34 0.61,0.7 1.55,1.2 2.44,1.2 1.01,0 1.6,-0.76 1.6,-1.92 0,-0.39 -0.03,-0.4 -0.03,-0.5 0,-0.1 0.11,-0.1 0.15,-0.1 0.13,0 0.13,0.02 0.18,0.2 z"
   inkscape:connector-curvature="0" />
<path
   id="path5214"
   style="fill:#000000;stroke-width:0"
   d="m 234.99,480.99 -0.02,0.03 -0.02,0.04 -0.01,0.03 -0.02,0.03 -0.02,0.03 -0.02,0.04 -0.02,0.03 -0.03,0.02 -0.02,0.03 -0.02,0.03 -0.03,0.03 -0.02,0.02 -0.03,0.03 -0.02,0.02 -0.03,0.02 -0.03,0.03 -0.03,0.02 -0.03,0.02 -0.03,0.01 -0.03,0.02 -0.03,0.02 -0.03,0.01 -0.04,0.02 -0.03,0.01 -0.04,0.01 -0.03,0.01 -0.04,0.01 h -0.04 l -0.04,0.01 h -0.04 l -0.04,0.01 h -0.04 c -1.17,0 -2.4,-1.46 -2.4,-2.92 0,-0.93 0.55,-1.58 1.32,-1.58 l 0.02,0.21 c -0.49,0 -0.63,0.55 -0.63,0.94 0,0.49 0.32,1.72 0.55,2.17 0.3,0.59 0.75,0.96 1.15,0.96 0.65,0 0.79,-0.82 0.79,-0.88 0,-0.06 -0.02,-0.12 -0.03,-0.17 l -0.5,-1.94 c -0.05,-0.18 -0.05,-0.2 -0.2,-0.37 -0.44,-0.55 -0.85,-0.71 -1.13,-0.71 l -0.02,-0.21 c 0.2,0 0.7,0.04 1.3,0.74 0.08,-0.42 0.43,-0.74 0.91,-0.74 0.35,0 0.58,0.22 0.74,0.54 0.17,0.36 0.3,0.97 0.3,0.99 0,0.1 -0.09,0.1 -0.12,0.1 -0.1,0 -0.11,-0.05 -0.14,-0.18 -0.17,-0.65 -0.35,-1.24 -0.76,-1.24 -0.27,0 -0.3,0.26 -0.3,0.46 0,0.22 0.02,0.3 0.13,0.74 0.11,0.41 0.13,0.51 0.22,0.89 l 0.36,1.39 c 0.07,0.28 0.07,0.3 0.07,0.34 0,0.17 -0.12,0.27 -0.29,0.27 -0.24,0 -0.39,-0.22 -0.42,-0.44 z"
   inkscape:connector-curvature="0" />
<path
   id="path5216"
   style="fill:#000000;stroke-width:0"
   d="m 241.68,484.02 v 0 0 0 0 0.01 0 0 0.01 0 0.01 0 0 l -0.01,0.01 v 0 0.01 0 l -0.01,0.01 v 0 0.01 h -0.01 v 0.01 0 h -0.01 v 0 0.01 0 h -0.01 v 0 0 l -0.01,0.01 v 0 0 h -0.01 v 0 h -0.01 v 0 h -0.01 v 0.01 h -0.01 v 0 h -0.01 v 0 h -0.01 v 0 h -0.01 c -0.15,0 -1.09,-0.09 -1.26,-0.11 -0.08,-0.01 -0.14,-0.06 -0.14,-0.19 0,-0.12 0.09,-0.12 0.23,-0.12 0.48,0 0.5,-0.07 0.5,-0.17 l -0.03,-0.2 -0.59,-2.35 c -0.18,0.37 -0.47,0.64 -0.92,0.64 -1.17,0 -2.41,-1.46 -2.41,-2.92 0,-0.93 0.55,-1.58 1.33,-1.58 l 0.02,0.21 c -0.5,0 -0.64,0.55 -0.64,0.94 0,0.49 0.32,1.72 0.55,2.17 0.31,0.59 0.76,0.96 1.16,0.96 0.65,0 0.79,-0.82 0.79,-0.88 0,-0.06 -0.02,-0.12 -0.03,-0.17 l -0.5,-1.94 c -0.05,-0.18 -0.05,-0.2 -0.2,-0.37 -0.44,-0.55 -0.85,-0.71 -1.13,-0.71 l -0.02,-0.21 c 0.2,0 0.7,0.04 1.3,0.74 0.08,-0.42 0.43,-0.74 0.9,-0.74 0.35,0 0.58,0.22 0.74,0.54 0.17,0.36 0.3,0.97 0.3,0.99 0,0.1 -0.09,0.1 -0.12,0.1 -0.1,0 -0.11,-0.05 -0.14,-0.18 -0.17,-0.65 -0.35,-1.24 -0.75,-1.24 -0.28,0 -0.3,0.26 -0.3,0.46 0,0.24 0.02,0.31 0.05,0.48 z"
   inkscape:connector-curvature="0" />
<path
   id="path5218"
   style="fill:#000000;stroke-width:0"
   d="m 244.56,483.44 v 0.02 0.02 0.02 0.01 l -0.01,0.02 v 0.02 l -0.01,0.01 v 0.02 l -0.01,0.01 -0.01,0.02 v 0.02 l -0.01,0.01 -0.01,0.01 -0.01,0.02 -0.01,0.01 -0.02,0.01 -0.01,0.02 -0.01,0.01 -0.02,0.01 -0.01,0.01 -0.01,0.01 -0.02,0.01 h -0.02 l -0.01,0.01 -0.02,0.01 h -0.02 l -0.02,0.01 h -0.02 l -0.02,0.01 h -0.02 -0.02 -0.03 c -0.22,0 -0.52,-0.23 -0.52,-0.53 0,-0.19 0.14,-0.35 0.37,-0.35 0.26,0 0.53,0.25 0.53,0.52 z"
   inkscape:connector-curvature="0" />
<path
   id="path5220"
   style="fill:#000000;stroke-width:0"
   d="m 242.56,476.74 -0.02,-0.07 -0.02,-0.07 -0.02,-0.07 -0.02,-0.07 -0.03,-0.06 -0.03,-0.06 -0.02,-0.07 -0.03,-0.06 -0.03,-0.06 -0.04,-0.05 -0.03,-0.06 -0.03,-0.05 -0.04,-0.05 -0.04,-0.05 -0.04,-0.05 -0.03,-0.05 -0.05,-0.04 -0.04,-0.04 -0.04,-0.04 -0.04,-0.03 -0.05,-0.04 -0.04,-0.03 -0.05,-0.03 -0.05,-0.02 -0.04,-0.03 -0.05,-0.02 -0.05,-0.01 -0.05,-0.02 -0.05,-0.01 -0.05,-0.01 h -0.05 -0.06 c -0.06,0 -0.21,0 -0.38,0.09 0.29,0.07 0.44,0.32 0.44,0.52 0,0.16 -0.11,0.35 -0.38,0.35 -0.25,0 -0.53,-0.21 -0.53,-0.57 0,-0.39 0.4,-0.61 0.87,-0.61 0.7,0 1.63,0.53 1.88,1.51 l 0.92,3.63 c 0.05,0.2 0.05,0.34 0.05,0.37 0,0.57 -0.42,0.92 -0.92,0.92 -1.02,0 -1.59,-1.45 -1.59,-1.53 0,-0.1 0.1,-0.1 0.12,-0.1 0.09,0 0.1,0.01 0.18,0.2 0.25,0.6 0.71,1.21 1.26,1.21 0.14,0 0.32,-0.04 0.32,-0.46 0,-0.23 -0.03,-0.34 -0.07,-0.51 z"
   inkscape:connector-curvature="0" />
</g>    <text
       id="text5226"
       xml:space="preserve"
       y="57"
       x="161"
       style="font-style:normal;font-weight:normal;font-size:5px;line-height:100%;font-family:Sans;text-align:center;letter-spacing:0px;word-spacing:0px;text-anchor:middle;fill:#000000;fill-opacity:1;stroke:none"><tspan
         id="tspan5224"
         sodipodi:role="line"
         y="57"
         x="161">+</tspan></text>
  </g>
  <g
     id="g5421"
     inkscape:label="diode"
     transform="rotate(-180,149.22183,27.097837)"
     inkscape:export-xdpi="600"
     inkscape:export-ydpi="600">
    <g
       id="g5413">
      <path
         id="path5405"
         inkscape:label="none"
         style="fill:none;stroke:#000000;stroke-width:1;stroke-linecap:round;stroke-linejoin:round;stroke-dasharray:none"
         d="m 160,40 h 19"
         inkscape:connector-curvature="0" />
      <path
         id="path5407"
         inkscape:label="none"
         style="fill:none;stroke:#000000;stroke-width:1;stroke-linecap:round;stroke-linejoin:round;stroke-dasharray:none"
         d="m 191,40 -12,6 V 34 l 12,6"
         inkscape:connector-curvature="0" />
      <path
         id="path5409"
         inkscape:label="none"
         style="fill:none;stroke:#000000;stroke-width:1;stroke-linecap:round;stroke-linejoin:round;stroke-dasharray:none"
         d="m 191,40 h 19"
         inkscape:connector-curvature="0" />
      <path
         id="path5411"
         inkscape:label="none"
         style="fill:none;stroke:#000000;stroke-width:1;stroke-linecap:round;stroke-linejoin:round;stroke-dasharray:none"
         d="M 191,34 V 46"
         inkscape:connector-curvature="0" />
    </g>
    <g
       transform="matrix(-0.739645,0,0,0.739645,355.10356,-303.8073)"
       ns0:preamble="C:\\Users\\Marcelo\\AppData\\Roaming\\inkscape\\extensions/textextLib/CircuitSymbolsLatexPreamble.tex"
       ns0:text=" $D1$"
       word-spacing="normal"
       letter-spacing="normal"
       font-size-adjust="none"
       font-stretch="normal"
       font-weight="normal"
       font-variant="normal"
       font-style="normal"
       stroke-miterlimit="10.433"
       xml:space="preserve"
       id="g5419"
       style="font-style:normal;font-variant:normal;font-weight:normal;font-stretch:normal;letter-spacing:normal;word-spacing:normal;text-anchor:start;fill:none;fill-opacity:1;fill-rule:evenodd;stroke:#000000;stroke-linecap:butt;stroke-linejoin:miter;stroke-miterlimit:10.43299961;stroke-dasharray:none;stroke-dashoffset:0;stroke-opacity:1">
<path
   id="path5415"
   style="fill:#000000;stroke-width:0"
   d="m 225.02,478.01 -0.01,-0.04 -0.01,-0.03 -0.01,-0.03 -0.01,-0.03 -0.01,-0.03 -0.01,-0.03 -0.01,-0.02 -0.01,-0.03 -0.01,-0.02 -0.01,-0.02 -0.01,-0.02 -0.02,-0.02 -0.01,-0.02 -0.02,-0.01 -0.02,-0.02 -0.02,-0.01 -0.02,-0.01 -0.03,-0.01 -0.02,-0.01 -0.03,-0.01 -0.04,-0.01 h -0.01 l -0.02,-0.01 h -0.02 -0.02 l -0.02,-0.01 h -0.02 -0.02 -0.02 l -0.03,-0.01 h -0.02 -0.03 -0.02 -0.03 -0.03 -0.03 -0.03 l -0.03,-0.01 h -0.03 -0.03 -0.04 -0.03 -0.04 c -0.17,0 -0.28,0 -0.28,-0.19 0,-0.12 0.09,-0.12 0.28,-0.12 h 3.3 l -0.18,0.31 h -1.13 c -0.14,0 -0.15,0 -0.22,0.01 -0.09,0.01 -0.12,0.02 -0.12,0.1 0,0.03 0,0.05 0.04,0.23 l 1.37,5.45 c 0.09,0.35 0.11,0.38 0.54,0.38 h 1.07 c 0.97,0 1.8,-0.53 1.8,-1.84 0,-0.48 -0.2,-2.11 -1.04,-3.2 -0.29,-0.37 -1.08,-1.13 -2.31,-1.13 l 0.18,-0.31 c 2.08,0 4.04,2.1 4.04,4.28 0,1.4 -0.85,2.51 -2.34,2.51 h -3.35 c -0.19,0 -0.3,0 -0.3,-0.19 0,-0.12 0.09,-0.12 0.29,-0.12 0.13,0 0.3,-0.01 0.42,-0.02 0.16,-0.02 0.22,-0.05 0.22,-0.16 0,-0.04 -0.01,-0.07 -0.04,-0.19 z"
   inkscape:connector-curvature="0" />
<path
   id="path5417"
   style="fill:#000000;stroke-width:0"
   d="m 234.89,483.59 v 0.01 0.01 0.02 0.01 0 0.01 0.01 0.01 0.01 0.01 0.01 0.01 0 0.01 0.01 0 l -0.01,0.01 v 0.01 0.01 0.01 0.01 l -0.01,0.01 v 0.01 0 l -0.01,0.01 -0.01,0.01 v 0 l -0.01,0.01 h -0.01 l -0.01,0.01 v 0 h -0.01 v 0 h -0.01 v 0 h -0.01 v 0.01 h -0.01 -0.01 v 0 h -0.01 -0.01 -0.01 -0.01 v 0 h -0.01 -0.01 -0.01 -0.01 -0.01 -0.01 -0.01 c -0.62,-0.64 -1.5,-0.64 -1.82,-0.64 v -0.3 c 0.2,0 0.79,0 1.31,0.26 v -5.15 c 0,-0.36 -0.03,-0.48 -0.93,-0.48 h -0.32 v -0.31 c 0.35,0.04 1.22,0.04 1.62,0.04 0.4,0 1.27,0 1.61,-0.04 v 0.31 h -0.31 c -0.9,0 -0.93,0.11 -0.93,0.48 z"
   inkscape:connector-curvature="0" />
</g>  </g>
  <g
     id="g5618"
     inkscape:label="diode"
     transform="rotate(-90,209.96833,58.111767)"
     inkscape:export-xdpi="600"
     inkscape:export-ydpi="600">
    <g
       id="g5610">
      <path
         id="path5602"
         inkscape:label="none"
         style="fill:none;stroke:#000000;stroke-width:1;stroke-linecap:round;stroke-linejoin:round;stroke-dasharray:none"
         d="m 160,40 h 19"
         inkscape:connector-curvature="0" />
      <path
         id="path5604"
         inkscape:label="none"
         style="fill:none;stroke:#000000;stroke-width:1;stroke-linecap:round;stroke-linejoin:round;stroke-dasharray:none"
         d="m 191,40 -12,6 V 34 l 12,6"
         inkscape:connector-curvature="0" />
      <path
         id="path5606"
         inkscape:label="none"
         style="fill:none;stroke:#000000;stroke-width:1;stroke-linecap:round;stroke-linejoin:round;stroke-dasharray:none"
         d="m 191,40 h 19"
         inkscape:connector-curvature="0" />
      <path
         id="path5608"
         inkscape:label="none"
         style="fill:none;stroke:#000000;stroke-width:1;stroke-linecap:round;stroke-linejoin:round;stroke-dasharray:none"
         d="M 191,34 V 46"
         inkscape:connector-curvature="0" />
    </g>
    <g
       transform="matrix(0,0.739645,0.739645,0,-170.49189,-142.53139)"
       ns0:preamble="C:\\Users\\Marcelo\\AppData\\Roaming\\inkscape\\extensions/textextLib/CircuitSymbolsLatexPreamble.tex"
       ns0:text=" $D2$"
       word-spacing="normal"
       letter-spacing="normal"
       font-size-adjust="none"
       font-stretch="normal"
       font-weight="normal"
       font-variant="normal"
       font-style="normal"
       stroke-miterlimit="10.433"
       xml:space="preserve"
       id="g5616"
       style="font-style:normal;font-variant:normal;font-weight:normal;font-stretch:normal;letter-spacing:normal;word-spacing:normal;text-anchor:start;fill:none;fill-opacity:1;fill-rule:evenodd;stroke:#000000;stroke-linecap:butt;stroke-linejoin:miter;stroke-miterlimit:10.43299961;stroke-dasharray:none;stroke-dashoffset:0;stroke-opacity:1">
<path
   id="path5612"
   style="fill:#000000;stroke-width:0"
   d="m 225.02,478.01 -0.01,-0.04 -0.01,-0.03 -0.01,-0.03 -0.01,-0.03 -0.01,-0.03 -0.01,-0.03 -0.01,-0.02 -0.01,-0.03 -0.01,-0.02 -0.01,-0.02 -0.01,-0.02 -0.02,-0.02 -0.01,-0.02 -0.02,-0.01 -0.02,-0.02 -0.02,-0.01 -0.02,-0.01 -0.03,-0.01 -0.02,-0.01 -0.03,-0.01 -0.04,-0.01 h -0.01 l -0.02,-0.01 h -0.02 -0.02 l -0.02,-0.01 h -0.02 -0.02 -0.02 l -0.03,-0.01 h -0.02 -0.03 -0.02 -0.03 -0.03 -0.03 -0.03 l -0.03,-0.01 h -0.03 -0.03 -0.04 -0.03 -0.04 c -0.17,0 -0.28,0 -0.28,-0.19 0,-0.12 0.09,-0.12 0.28,-0.12 h 3.3 l -0.18,0.31 h -1.13 c -0.14,0 -0.15,0 -0.22,0.01 -0.09,0.01 -0.12,0.02 -0.12,0.1 0,0.03 0,0.05 0.04,0.23 l 1.37,5.45 c 0.09,0.35 0.11,0.38 0.54,0.38 h 1.07 c 0.97,0 1.8,-0.53 1.8,-1.84 0,-0.48 -0.2,-2.11 -1.04,-3.2 -0.29,-0.37 -1.08,-1.13 -2.31,-1.13 l 0.18,-0.31 c 2.08,0 4.04,2.1 4.04,4.28 0,1.4 -0.85,2.51 -2.34,2.51 h -3.35 c -0.19,0 -0.3,0 -0.3,-0.19 0,-0.12 0.09,-0.12 0.29,-0.12 0.13,0 0.3,-0.01 0.42,-0.02 0.16,-0.02 0.22,-0.05 0.22,-0.16 0,-0.04 -0.01,-0.07 -0.04,-0.19 z"
   inkscape:connector-curvature="0" />
<path
   id="path5614"
   style="fill:#000000;stroke-width:0"
   d="m 233.22,478 1.06,1.02 c 1.56,1.37 2.15,1.91 2.15,2.9 0,1.14 -0.89,1.93 -2.11,1.93 -1.13,0 -1.86,-0.91 -1.86,-1.8 0,-0.55 0.49,-0.55 0.52,-0.55 0.17,0 0.52,0.12 0.52,0.52 0,0.26 -0.18,0.52 -0.53,0.52 -0.08,0 -0.1,0 -0.13,-0.01 0.23,0.64 0.77,1.01 1.35,1.01 0.91,0 1.34,-0.8 1.34,-1.62 0,-0.79 -0.5,-1.58 -1.05,-2.19 l -1.91,-2.13 c -0.11,-0.11 -0.11,-0.13 -0.11,-0.37 h 3.69 l 0.28,1.73 h -0.25 c -0.05,-0.29 -0.11,-0.73 -0.21,-0.88 C 235.9,478 235.24,478 235.02,478 Z"
   inkscape:connector-curvature="0" />
</g>    <path
       style="fill:none;stroke:#000000;stroke-width:1;stroke-linecap:butt;stroke-linejoin:miter;stroke-miterlimit:4;stroke-dasharray:none;stroke-opacity:1;marker-start:url(#marker6118);marker-end:url(#marker6142)"
       d="M 160,40.000004 V 5.4382028"
       id="path5853"
       inkscape:connector-curvature="0" />
  </g>
  <path
     style="fill:none;stroke:#000000;stroke-width:1;stroke-linecap:butt;stroke-linejoin:miter;stroke-miterlimit:4;stroke-dasharray:none;stroke-opacity:1"
     d="M 58.24221,57.809455 V 14.195673"
     id="path5631"
     inkscape:connector-curvature="0"
     inkscape:export-xdpi="600"
     inkscape:export-ydpi="600" />
  <path
     style="fill:none;stroke:#000000;stroke-width:1;stroke-linecap:butt;stroke-linejoin:miter;stroke-miterlimit:4;stroke-dasharray:none;stroke-opacity:1"
     d="M 157.46096,58.080288 V 14.466506"
     id="path5631-1"
     inkscape:connector-curvature="0"
     inkscape:export-xdpi="600"
     inkscape:export-ydpi="600" />
  <path
     style="fill:none;stroke:#000000;stroke-width:1;stroke-linecap:butt;stroke-linejoin:miter;stroke-miterlimit:4;stroke-dasharray:none;stroke-opacity:1"
     d="M 88.443663,14.195673 H 57.739372"
     id="path5648"
     inkscape:connector-curvature="0"
     inkscape:export-xdpi="600"
     inkscape:export-ydpi="600" />
  <path
     style="fill:none;stroke:#000000;stroke-width:1;stroke-linecap:butt;stroke-linejoin:miter;stroke-miterlimit:4;stroke-dasharray:none;stroke-opacity:1"
     d="m 138.44366,14.195673 h 19.51659"
     id="path5650"
     inkscape:connector-curvature="0"
     inkscape:export-xdpi="600"
     inkscape:export-ydpi="600" />
  <g
     id="g5843"
     inkscape:label="GND"
     transform="translate(1.8565583,8.0800923)"
     inkscape:export-xdpi="600"
     inkscape:export-ydpi="600">
    <g
       id="g5841"
       inkscape:label="GND">
      <path
         id="path5833"
         inkscape:label="none"
         style="fill:none;stroke:#000000;stroke-width:1;stroke-linecap:round;stroke-linejoin:round;stroke-dasharray:none"
         d="m 190,150 v 10"
         inkscape:connector-curvature="0" />
      <path
         id="path5835"
         inkscape:label="none"
         style="fill:none;stroke:#000000;stroke-width:1;stroke-linecap:round;stroke-linejoin:round;stroke-dasharray:none"
         d="M 197,160 H 183"
         inkscape:connector-curvature="0" />
      <path
         id="path5837"
         inkscape:label="none"
         style="fill:none;stroke:#000000;stroke-width:1;stroke-linecap:round;stroke-linejoin:round;stroke-dasharray:none"
         d="m 193.5,162 h -7"
         inkscape:connector-curvature="0" />
      <path
         id="path5839"
         inkscape:label="none"
         style="fill:none;stroke:#000000;stroke-width:1;stroke-linecap:round;stroke-linejoin:round;stroke-dasharray:none"
         d="m 191,164 h -2"
         inkscape:connector-curvature="0" />
    </g>
  </g>
  <path
     style="fill:none;stroke:#000000;stroke-width:1;stroke-linecap:butt;stroke-linejoin:miter;stroke-miterlimit:4;stroke-dasharray:none;stroke-opacity:1;marker-start:url(#marker6194)"
     d="M 191.85655,58.080092 H 157.53099"
     id="path6184"
     inkscape:connector-curvature="0"
     inkscape:export-xdpi="600"
     inkscape:export-ydpi="600" />
  <g
     id="g2562"
     inkscape:label="GND"
     transform="translate(-117.24331,-32.222184)">
    <g
       id="g2552"
       inkscape:label="GND">
      <circle
         id="path2550"
         inkscape:label="circle"
         style="fill:#000000;stroke:#000000;stroke-width:0.69999999;stroke-linecap:round;stroke-linejoin:round;stroke-dasharray:none"
         cx="130"
         cy="90"
         r="1" />
    </g>
    <g
       transform="matrix(0.739645,0,0,-0.739645,-42.866131,439.04094)"
       ns0:preamble="C:\\Users\\Marcelo\\AppData\\Roaming\\inkscape\\extensions/textextLib/CircuitSymbolsLatexPreamble.tex"
       ns0:text=" $\\textrm{+5V}$"
       word-spacing="normal"
       letter-spacing="normal"
       font-size-adjust="none"
       font-stretch="normal"
       font-weight="normal"
       font-variant="normal"
       font-style="normal"
       stroke-miterlimit="10.433"
       xml:space="preserve"
       id="g2560"
       style="font-style:normal;font-variant:normal;font-weight:normal;font-stretch:normal;letter-spacing:normal;word-spacing:normal;text-anchor:start;fill:none;fill-opacity:1;fill-rule:evenodd;stroke:#000000;stroke-linecap:butt;stroke-linejoin:miter;stroke-miterlimit:10.43299961;stroke-dasharray:none;stroke-dashoffset:0;stroke-opacity:1">
<path
   id="path2554"
   style="fill:#000000;stroke-width:0"
   d="m 227.51,479.52 h 2.78 c 0.14,0 0.33,0 0.33,0.2 0,0.2 -0.19,0.2 -0.33,0.2 h -2.78 v 2.78 c 0,0.14 0,0.33 -0.2,0.33 -0.2,0 -0.2,-0.19 -0.2,-0.33 v -2.78 h -2.79 c -0.14,0 -0.33,0 -0.33,-0.2 0,-0.2 0.19,-0.2 0.33,-0.2 h 2.79 v -2.78 c 0,-0.14 0,-0.33 0.2,-0.33 0.2,0 0.2,0.19 0.2,0.33 z"
   inkscape:connector-curvature="0" />
<path
   id="path2556"
   style="fill:#000000;stroke-width:0"
   d="m 235.66,479.23 v 0.11 l -0.01,0.11 -0.01,0.11 -0.02,0.1 -0.02,0.11 -0.02,0.1 -0.03,0.1 -0.04,0.1 -0.03,0.1 -0.04,0.09 -0.05,0.09 -0.05,0.09 -0.05,0.09 -0.05,0.08 -0.06,0.08 -0.07,0.07 -0.06,0.08 -0.07,0.06 -0.07,0.07 -0.07,0.06 -0.08,0.06 -0.08,0.05 -0.08,0.05 -0.09,0.04 -0.08,0.04 -0.09,0.04 -0.09,0.03 -0.1,0.02 -0.09,0.02 -0.1,0.02 h -0.1 l -0.1,0.01 c -0.47,0 -0.9,-0.16 -1.26,-0.51 v 1.94 c 0.2,-0.06 0.53,-0.13 0.85,-0.13 1.22,0 1.92,0.9 1.92,1.03 0,0.06 -0.03,0.11 -0.1,0.11 -0.01,0 -0.03,0 -0.08,-0.03 -0.2,-0.09 -0.69,-0.29 -1.36,-0.29 -0.39,0 -0.85,0.07 -1.32,0.28 -0.08,0.03 -0.1,0.03 -0.12,0.03 -0.1,0 -0.1,-0.08 -0.1,-0.24 v -2.94 c 0,-0.18 0,-0.26 0.14,-0.26 0.07,0 0.09,0.03 0.13,0.09 0.11,0.16 0.48,0.7 1.28,0.7 0.52,0 0.77,-0.46 0.85,-0.64 0.16,-0.37 0.18,-0.75 0.18,-1.25 0,-0.35 0,-0.94 -0.24,-1.36 -0.24,-0.39 -0.61,-0.64 -1.07,-0.64 -0.72,0 -1.29,0.52 -1.46,1.11 0.03,-0.01 0.06,-0.02 0.17,-0.02 0.33,0 0.5,0.25 0.5,0.48 0,0.24 -0.17,0.49 -0.5,0.49 -0.14,0 -0.49,-0.07 -0.49,-0.53 0,-0.85 0.69,-1.81 1.8,-1.81 1.16,0 2.18,0.95 2.18,2.21 z"
   inkscape:connector-curvature="0" />
<path
   id="path2558"
   style="fill:#000000;stroke-width:0"
   d="m 242.35,483.05 0.02,0.03 0.01,0.03 0.02,0.04 0.01,0.03 0.02,0.03 0.02,0.03 0.02,0.03 0.02,0.03 0.02,0.03 0.02,0.03 0.03,0.03 0.02,0.03 0.03,0.02 0.03,0.03 0.03,0.02 0.03,0.02 0.03,0.03 0.03,0.02 0.04,0.02 0.04,0.01 0.04,0.02 0.04,0.02 0.04,0.01 0.05,0.02 0.04,0.01 0.05,0.01 0.05,0.01 0.06,0.01 h 0.05 l 0.06,0.01 h 0.06 0.06 v 0.31 c -0.31,-0.02 -0.71,-0.03 -0.96,-0.03 -0.3,0 -0.88,0.02 -1.14,0.03 v -0.31 c 0.52,-0.01 0.73,-0.27 0.73,-0.5 0,-0.07 -0.03,-0.13 -0.05,-0.19 l -1.83,-4.79 -1.9,5.01 c -0.06,0.14 -0.06,0.16 -0.06,0.18 0,0.29 0.56,0.29 0.81,0.29 v 0.31 c -0.36,-0.03 -1.04,-0.03 -1.42,-0.03 -0.48,0 -0.91,0.02 -1.27,0.03 v -0.31 c 0.65,0 0.84,0 0.98,-0.38 l 2.31,-6.1 c 0.07,-0.18 0.12,-0.21 0.25,-0.21 0.17,0 0.19,0.05 0.24,0.18 z"
   inkscape:connector-curvature="0" />
</g>  </g>
  <g
     id="g2869"
     inkscape:label="GND"
     transform="translate(121.41078,-31.970418)">
    <g
       id="g2855"
       inkscape:label="GND">
      <circle
         id="path2853"
         inkscape:label="circle"
         style="fill:#000000;stroke:#000000;stroke-width:0.69999999;stroke-linecap:round;stroke-linejoin:round;stroke-dasharray:none"
         cx="130"
         cy="90"
         r="1" />
    </g>
    <g
       transform="matrix(0.739645,0,0,-0.739645,-45.732256,439.04094)"
       ns0:preamble="C:\\Users\\Marcelo\\AppData\\Roaming\\inkscape\\extensions/textextLib/CircuitSymbolsLatexPreamble.tex"
       ns0:text=" $\\textrm{+3.3V}$"
       word-spacing="normal"
       letter-spacing="normal"
       font-size-adjust="none"
       font-stretch="normal"
       font-weight="normal"
       font-variant="normal"
       font-style="normal"
       stroke-miterlimit="10.433"
       xml:space="preserve"
       id="g2867"
       style="font-style:normal;font-variant:normal;font-weight:normal;font-stretch:normal;letter-spacing:normal;word-spacing:normal;text-anchor:start;fill:none;fill-opacity:1;fill-rule:evenodd;stroke:#000000;stroke-linecap:butt;stroke-linejoin:miter;stroke-miterlimit:10.43299961;stroke-dasharray:none;stroke-dashoffset:0;stroke-opacity:1">
<path
   id="path2857"
   style="fill:#000000;stroke-width:0"
   d="m 227.51,479.52 h 2.78 c 0.14,0 0.33,0 0.33,0.2 0,0.2 -0.19,0.2 -0.33,0.2 h -2.78 v 2.78 c 0,0.14 0,0.33 -0.2,0.33 -0.2,0 -0.2,-0.19 -0.2,-0.33 v -2.78 h -2.79 c -0.14,0 -0.33,0 -0.33,-0.2 0,-0.2 0.19,-0.2 0.33,-0.2 h 2.79 v -2.78 c 0,-0.14 0,-0.33 0.2,-0.33 0.2,0 0.2,0.19 0.2,0.33 z"
   inkscape:connector-curvature="0" />
<path
   id="path2859"
   style="fill:#000000;stroke-width:0"
   d="m 234.07,480.73 0.08,0.03 0.07,0.03 0.08,0.03 0.07,0.03 0.07,0.04 0.07,0.04 0.06,0.04 0.07,0.04 0.06,0.04 0.06,0.05 0.06,0.05 0.05,0.05 0.06,0.05 0.05,0.05 0.05,0.06 0.05,0.05 0.04,0.06 0.05,0.06 0.04,0.06 0.03,0.06 0.04,0.07 0.03,0.06 0.03,0.07 0.03,0.06 0.02,0.07 0.02,0.07 0.02,0.07 0.01,0.07 0.01,0.07 0.01,0.07 0.01,0.08 v 0.07 c 0,0.82 -0.88,1.37 -1.84,1.37 -1,0 -1.76,-0.59 -1.76,-1.35 0,-0.33 0.22,-0.52 0.51,-0.52 0.31,0 0.51,0.22 0.51,0.51 0,0.5 -0.47,0.5 -0.62,0.5 0.31,0.48 0.97,0.61 1.32,0.61 0.41,0 0.96,-0.22 0.96,-1.11 0,-0.12 -0.02,-0.69 -0.28,-1.13 -0.3,-0.48 -0.64,-0.51 -0.89,-0.52 -0.08,-0.01 -0.31,-0.03 -0.38,-0.03 -0.08,-0.01 -0.15,-0.02 -0.15,-0.12 0,-0.11 0.07,-0.11 0.24,-0.11 h 0.43 c 0.82,0 1.19,-0.67 1.19,-1.65 0,-1.35 -0.69,-1.63 -1.13,-1.63 -0.43,0 -1.17,0.16 -1.52,0.75 0.35,-0.05 0.66,0.17 0.66,0.55 0,0.35 -0.27,0.55 -0.56,0.55 -0.24,0 -0.56,-0.14 -0.56,-0.57 0,-0.91 0.93,-1.56 2.01,-1.56 1.22,0 2.13,0.9 2.13,1.91 0,0.82 -0.63,1.59 -1.67,1.8 z"
   inkscape:connector-curvature="0" />
<path
   id="path2861"
   style="fill:#000000;stroke-width:0"
   d="m 238.08,477.76 v 0.03 l -0.01,0.03 v 0.02 0.03 l -0.01,0.02 -0.01,0.03 -0.01,0.02 v 0.03 l -0.02,0.02 -0.01,0.02 -0.01,0.02 -0.01,0.02 -0.02,0.03 -0.01,0.02 -0.02,0.01 -0.02,0.02 -0.02,0.02 -0.02,0.02 -0.02,0.01 -0.02,0.02 -0.02,0.01 -0.02,0.01 -0.02,0.02 -0.03,0.01 -0.02,0.01 h -0.03 l -0.02,0.01 -0.03,0.01 h -0.02 l -0.03,0.01 h -0.02 -0.03 c -0.29,0 -0.53,-0.24 -0.53,-0.53 0,-0.29 0.24,-0.53 0.53,-0.53 0.29,0 0.53,0.24 0.53,0.53 z"
   inkscape:connector-curvature="0" />
<path
   id="path2863"
   style="fill:#000000;stroke-width:0"
   d="m 241.82,480.73 0.08,0.03 0.07,0.03 0.08,0.03 0.07,0.03 0.07,0.04 0.06,0.04 0.07,0.04 0.06,0.04 0.07,0.04 0.06,0.05 0.06,0.05 0.05,0.05 0.06,0.05 0.05,0.05 0.05,0.06 0.05,0.05 0.04,0.06 0.04,0.06 0.04,0.06 0.04,0.06 0.04,0.07 0.03,0.06 0.03,0.07 0.02,0.06 0.03,0.07 0.02,0.07 0.02,0.07 0.01,0.07 0.01,0.07 0.01,0.07 0.01,0.08 v 0.07 c 0,0.82 -0.88,1.37 -1.84,1.37 -1,0 -1.76,-0.59 -1.76,-1.35 0,-0.33 0.22,-0.52 0.51,-0.52 0.31,0 0.5,0.22 0.5,0.51 0,0.5 -0.46,0.5 -0.61,0.5 0.31,0.48 0.96,0.61 1.32,0.61 0.41,0 0.96,-0.22 0.96,-1.11 0,-0.12 -0.02,-0.69 -0.28,-1.13 -0.3,-0.48 -0.64,-0.51 -0.89,-0.52 -0.08,-0.01 -0.31,-0.03 -0.39,-0.03 -0.08,-0.01 -0.14,-0.02 -0.14,-0.12 0,-0.11 0.06,-0.11 0.23,-0.11 h 0.44 c 0.82,0 1.19,-0.67 1.19,-1.65 0,-1.35 -0.69,-1.63 -1.13,-1.63 -0.43,0 -1.17,0.16 -1.52,0.75 0.35,-0.05 0.66,0.17 0.66,0.55 0,0.35 -0.27,0.55 -0.56,0.55 -0.24,0 -0.56,-0.14 -0.56,-0.57 0,-0.91 0.93,-1.56 2.01,-1.56 1.22,0 2.13,0.9 2.13,1.91 0,0.82 -0.63,1.59 -1.67,1.8 z"
   inkscape:connector-curvature="0" />
<path
   id="path2865"
   style="fill:#000000;stroke-width:0"
   d="m 250.1,483.05 0.02,0.03 0.01,0.03 0.02,0.04 0.01,0.03 0.02,0.03 0.02,0.03 0.02,0.03 0.02,0.03 0.02,0.03 0.02,0.03 0.03,0.03 0.02,0.03 0.03,0.02 0.02,0.03 0.03,0.02 0.04,0.02 0.03,0.03 0.03,0.02 0.04,0.02 0.04,0.01 0.04,0.02 0.04,0.02 0.04,0.01 0.04,0.02 0.05,0.01 0.05,0.01 0.05,0.01 0.06,0.01 h 0.05 l 0.06,0.01 h 0.06 0.06 v 0.31 c -0.31,-0.02 -0.71,-0.03 -0.97,-0.03 -0.3,0 -0.87,0.02 -1.13,0.03 v -0.31 c 0.51,-0.01 0.73,-0.27 0.73,-0.5 0,-0.07 -0.03,-0.13 -0.06,-0.19 l -1.82,-4.79 -1.9,5.01 c -0.06,0.14 -0.06,0.16 -0.06,0.18 0,0.29 0.56,0.29 0.81,0.29 v 0.31 c -0.36,-0.03 -1.04,-0.03 -1.42,-0.03 -0.48,0 -0.91,0.02 -1.27,0.03 v -0.31 c 0.65,0 0.84,0 0.98,-0.38 l 2.31,-6.1 c 0.07,-0.18 0.12,-0.21 0.25,-0.21 0.17,0 0.19,0.05 0.24,0.18 z"
   inkscape:connector-curvature="0" />
</g>  </g>
</svg>
