<?xml version="1.0" encoding="UTF-8" standalone="no"?>
<!-- Created with Inkscape (http://www.inkscape.org/) -->

<svg
   xmlns:ns0="http://www.iki.fi/pav/software/textext/"
   xmlns:dc="http://purl.org/dc/elements/1.1/"
   xmlns:cc="http://creativecommons.org/ns#"
   xmlns:rdf="http://www.w3.org/1999/02/22-rdf-syntax-ns#"
   xmlns:svg="http://www.w3.org/2000/svg"
   xmlns="http://www.w3.org/2000/svg"
   xmlns:sodipodi="http://sodipodi.sourceforge.net/DTD/sodipodi-0.dtd"
   xmlns:inkscape="http://www.inkscape.org/namespaces/inkscape"
   width="85.537781mm"
   height="128.53247mm"
   viewBox="0 0 85.537781 128.53247"
   version="1.1"
   id="svg8"
   inkscape:version="0.92.4 (5da689c313, 2019-01-14)"
   sodipodi:docname="Transistor.svg">
  <defs
     id="defs2">
    <marker
       inkscape:stockid="DotS"
       orient="auto"
       refY="0"
       refX="0"
       id="DotS"
       style="overflow:visible"
       inkscape:isstock="true">
      <path
         id="path1297"
         d="m -2.5,-1 c 0,2.76 -2.24,5 -5,5 -2.76,0 -5,-2.24 -5,-5 0,-2.76 2.24,-5 5,-5 2.76,0 5,2.24 5,5 z"
         style="fill:#000000;fill-opacity:1;fill-rule:evenodd;stroke:#000000;stroke-width:1.00000003pt;stroke-opacity:1"
         transform="matrix(0.2,0,0,0.2,1.48,0.2)"
         inkscape:connector-curvature="0" />
    </marker>
    <marker
       inkscape:stockid="DotM"
       orient="auto"
       refY="0"
       refX="0"
       id="DotM"
       style="overflow:visible"
       inkscape:isstock="true">
      <path
         id="path1294"
         d="m -2.5,-1 c 0,2.76 -2.24,5 -5,5 -2.76,0 -5,-2.24 -5,-5 0,-2.76 2.24,-5 5,-5 2.76,0 5,2.24 5,5 z"
         style="fill:#000000;fill-opacity:1;fill-rule:evenodd;stroke:#000000;stroke-width:1.00000003pt;stroke-opacity:1"
         transform="matrix(0.4,0,0,0.4,2.96,0.4)"
         inkscape:connector-curvature="0" />
    </marker>
    <marker
       inkscape:stockid="MOSArrow"
       style="overflow:visible"
       refY="0"
       refX="0"
       orient="auto"
       id="MOSArrow">
      <path
         id="path815"
         style="fill:#000000;fill-rule:evenodd;stroke:#000000;stroke-width:0.60000002"
         d="M -0.3,0 -2.7,1 V -1 Z"
         inkscape:connector-curvature="0" />
    </marker>
  </defs>
  <sodipodi:namedview
     id="base"
     pagecolor="#ffffff"
     bordercolor="#666666"
     borderopacity="1.0"
     inkscape:pageopacity="0.0"
     inkscape:pageshadow="2"
     inkscape:zoom="0.98994949"
     inkscape:cx="136.01659"
     inkscape:cy="210.78524"
     inkscape:document-units="mm"
     inkscape:current-layer="g2031"
     showgrid="false"
     inkscape:window-width="1920"
     inkscape:window-height="1001"
     inkscape:window-x="-9"
     inkscape:window-y="-9"
     inkscape:window-maximized="1"
     fit-margin-top="0"
     fit-margin-left="0"
     fit-margin-right="0"
     fit-margin-bottom="0">
    <inkscape:grid
       id="grid1916"
       type="xygrid"
       originx="0"
       originy="5.2916633" />
  </sodipodi:namedview>
  <metadata
     id="metadata5">
    <rdf:RDF>
      <cc:Work
         rdf:about="">
        <dc:format>image/svg+xml</dc:format>
        <dc:type
           rdf:resource="http://purl.org/dc/dcmitype/StillImage" />
        <dc:title></dc:title>
      </cc:Work>
    </rdf:RDF>
  </metadata>
  <g
     inkscape:label="Layer 1"
     inkscape:groupmode="layer"
     id="layer1"
     transform="translate(-41.987062,23.740754)" />
  <g
     id="g848"
     inkscape:label="MOSFET"
     transform="translate(-41.987062,23.740754)"
     inkscape:export-xdpi="600"
     inkscape:export-ydpi="600">
    <g
       id="g846"
       inkscape:label="MOSFET">
      <path
         id="path822"
         inkscape:label="none"
         style="fill:none;stroke:#000000;stroke-width:1;stroke-linecap:round;stroke-linejoin:round;stroke-dasharray:none"
         d="M 87,54 V 65 H 59"
         inkscape:connector-curvature="0" />
      <path
         id="path824"
         inkscape:label="none"
         style="fill:none;stroke:#000000;stroke-width:1;stroke-linecap:round;stroke-linejoin:round;stroke-dasharray:none"
         d="M 94,54.6 V 35"
         inkscape:connector-curvature="0" />
      <path
         id="path826"
         inkscape:label="none"
         style="fill:none;stroke:#000000;stroke-width:0.69999999;stroke-linecap:round;stroke-linejoin:round;stroke-dasharray:none"
         d="m 89,54.75 h 5"
         inkscape:connector-curvature="0" />
      <path
         id="path828"
         inkscape:label="none"
         style="fill:none;stroke:#000000;stroke-width:1;stroke-linecap:round;stroke-linejoin:round;stroke-dasharray:none"
         d="M 94,65.4 V 85"
         inkscape:connector-curvature="0" />
      <path
         id="path830"
         inkscape:label="none"
         style="fill:none;stroke:#000000;stroke-width:0.69999999;stroke-linecap:round;stroke-linejoin:round;stroke-dasharray:none"
         d="m 89,65.25 h 5"
         inkscape:connector-curvature="0" />
      <path
         id="path832"
         inkscape:label="none"
         style="fill:none;stroke:#000000;stroke-width:0.69999999;stroke-linecap:round;stroke-linejoin:round;stroke-dasharray:none"
         d="M 94,65.25 V 60"
         inkscape:connector-curvature="0" />
      <circle
         id="path834"
         inkscape:label="circle"
         style="fill:none;stroke:#000000;stroke-width:1;stroke-linecap:round;stroke-linejoin:round;stroke-dasharray:none"
         cx="94"
         cy="65.25"
         r="0.40000001" />
      <path
         id="path836"
         inkscape:label="none"
         style="fill:none;stroke:#000000;stroke-width:0.69999999;stroke-linecap:round;stroke-linejoin:round;stroke-dasharray:none;marker-end:url(#MOSArrow)"
         d="m 89,60 h 5"
         inkscape:connector-curvature="0" />
      <path
         id="path838"
         inkscape:label="none"
         style="fill:none;stroke:#000000;stroke-width:0.69999999;stroke-linecap:round;stroke-linejoin:round;stroke-dasharray:none"
         d="m 89,53 v 3.5"
         inkscape:connector-curvature="0" />
      <path
         id="path840"
         inkscape:label="none"
         style="fill:none;stroke:#000000;stroke-width:0.69999999;stroke-linecap:round;stroke-linejoin:round;stroke-dasharray:none"
         d="m 89,58.25 v 3.5"
         inkscape:connector-curvature="0" />
      <path
         id="path842"
         inkscape:label="none"
         style="fill:none;stroke:#000000;stroke-width:0.69999999;stroke-linecap:round;stroke-linejoin:round;stroke-dasharray:none"
         d="M 89,63.5 V 67"
         inkscape:connector-curvature="0" />
      <circle
         id="path844"
         inkscape:label="circle"
         style="fill:none;stroke:#000000;stroke-width:1;stroke-linecap:round;stroke-linejoin:round;stroke-dasharray:none"
         cx="90"
         cy="60"
         r="10" />
    </g>
  </g>
  <g
     id="g900"
     inkscape:label="Resistor"
     transform="rotate(90,86.636092,25.376846)"
     inkscape:export-xdpi="600"
     inkscape:export-ydpi="600">
    <g
       id="g895">
      <path
         id="path893"
         inkscape:label="none"
         style="fill:none;stroke:#000000;stroke-width:1;stroke-linecap:round;stroke-linejoin:round;stroke-dasharray:none"
         d="m 70,60 h 15.5 l 2,3 3,-6 3,6 3,-6 3,6 3,-6 2,3 H 120"
         inkscape:connector-curvature="0" />
    </g>
    <g
       transform="matrix(0,-0.739645,-0.739645,0,450.41421,219.27318)"
       ns0:preamble="C:\\Users\\Marcelo\\AppData\\Roaming\\inkscape\\extensions/textextLib/CircuitSymbolsLatexPreamble.tex"
       ns0:text=" $R$"
       word-spacing="normal"
       letter-spacing="normal"
       font-size-adjust="none"
       font-stretch="normal"
       font-weight="normal"
       font-variant="normal"
       font-style="normal"
       stroke-miterlimit="10.433"
       xml:space="preserve"
       id="content"
       style="font-style:normal;font-variant:normal;font-weight:normal;font-stretch:normal;letter-spacing:normal;word-spacing:normal;text-anchor:start;fill:none;fill-opacity:1;fill-rule:evenodd;stroke:#000000;stroke-linecap:butt;stroke-linejoin:miter;stroke-miterlimit:10.43299961;stroke-dasharray:none;stroke-dashoffset:0;stroke-opacity:1">
<path
   id="path897"
   style="fill:#000000;stroke-width:0"
   d="m 228.61,480.61 0.09,0.02 0.1,0.03 0.09,0.03 0.1,0.03 0.1,0.03 0.09,0.03 0.1,0.04 0.1,0.04 0.09,0.05 0.09,0.04 0.09,0.05 0.09,0.05 0.09,0.05 0.09,0.06 0.08,0.06 0.08,0.06 0.08,0.06 0.07,0.06 0.08,0.07 0.06,0.07 0.07,0.07 0.06,0.07 0.05,0.08 0.05,0.08 0.05,0.08 0.03,0.08 0.04,0.08 0.03,0.09 0.02,0.09 0.02,0.09 0.01,0.09 v 0.09 c 0,0.85 -0.9,1.49 -2.2,1.49 h -2.84 c -0.2,0 -0.29,0 -0.29,-0.2 0,-0.11 0.09,-0.11 0.28,-0.11 0.01,0 0.21,0 0.38,-0.02 0.17,-0.02 0.26,-0.03 0.26,-0.16 0,-0.04 -0.01,-0.07 -0.04,-0.19 l -1.33,-5.33 c -0.1,-0.39 -0.12,-0.47 -0.91,-0.47 -0.18,0 -0.27,0 -0.27,-0.2 0,-0.11 0.12,-0.11 0.14,-0.11 0.28,0 0.98,0.04 1.26,0.04 0.28,0 0.98,-0.04 1.26,-0.04 0.08,0 0.2,0 0.2,0.2 0,0.11 -0.09,0.11 -0.28,0.11 -0.37,0 -0.65,0 -0.65,0.18 0,0.06 0.02,0.11 0.03,0.17 l 0.66,2.63 h 1.19 l -0.01,0.22 h -1.12 l 0.65,2.59 c 0.06,0.24 0.09,0.34 0.28,0.37 0.09,0.01 0.41,0.01 0.61,0.01 0.71,0 1.81,0 1.81,-0.98 0,-0.34 -0.16,-1.03 -0.55,-1.41 -0.25,-0.26 -0.78,-0.58 -1.68,-0.58 l 0.01,-0.22 c 0.91,0 1.09,-0.55 1.09,-0.9 0,-0.15 -0.08,-0.46 -0.14,-0.69 -0.07,-0.27 -0.16,-0.64 -0.16,-0.84 0,-1.07 1.19,-1.07 1.32,-1.07 0.85,0 1.2,1 1.2,1.14 0,0.12 -0.11,0.12 -0.12,0.12 -0.09,0 -0.11,-0.07 -0.13,-0.14 -0.25,-0.74 -0.68,-0.91 -0.91,-0.91 -0.32,0 -0.4,0.22 -0.4,0.61 0,0.31 0.06,0.82 0.11,1.13 0.01,0.14 0.03,0.33 0.03,0.47 0,0.76 -0.66,1.07 -0.93,1.17 z"
   inkscape:connector-curvature="0" />
</g>  </g>
  <g
     id="g945"
     inkscape:label="GND"
     transform="translate(-5.8446742,-14.221789)"
     inkscape:export-xdpi="600"
     inkscape:export-ydpi="600">
    <g
       transform="matrix(0.739645,0,0,-0.739645,-101.98595,409.49213)"
       ns0:preamble="C:\\Users\\Marcelo\\AppData\\Roaming\\inkscape\\extensions/textextLib/CircuitSymbolsLatexPreamble.tex"
       ns0:text=" $\\textrm{10K}$"
       word-spacing="normal"
       letter-spacing="normal"
       font-size-adjust="none"
       font-stretch="normal"
       font-weight="normal"
       font-variant="normal"
       font-style="normal"
       stroke-miterlimit="10.433"
       xml:space="preserve"
       id="g943"
       style="font-style:normal;font-variant:normal;font-weight:normal;font-stretch:normal;letter-spacing:normal;word-spacing:normal;text-anchor:start;fill:none;fill-opacity:1;fill-rule:evenodd;stroke:#000000;stroke-linecap:butt;stroke-linejoin:miter;stroke-miterlimit:10.43299961;stroke-dasharray:none;stroke-dashoffset:0;stroke-opacity:1">
<path
   id="path937"
   style="fill:#000000;stroke-width:0"
   d="m 226.36,483.59 v 0.01 0.01 0.02 0.01 0 0.01 0.01 0.01 0.01 0.01 0.01 0.01 0 0.01 0.01 0 0.01 0.01 0.01 l -0.01,0.01 v 0.01 0.01 l -0.01,0.01 v 0 0.01 l -0.01,0.01 h -0.01 v 0.01 h -0.01 l -0.01,0.01 h -0.01 v 0 h -0.01 v 0 h -0.01 v 0 l -0.01,0.01 h -0.01 v 0 h -0.01 -0.01 v 0 h -0.01 -0.01 -0.01 -0.01 -0.01 -0.01 -0.01 -0.01 -0.01 -0.01 c -0.61,-0.64 -1.49,-0.64 -1.81,-0.64 v -0.3 c 0.2,0 0.79,0 1.31,0.26 v -5.15 c 0,-0.36 -0.03,-0.48 -0.93,-0.48 h -0.32 v -0.31 c 0.35,0.04 1.22,0.04 1.61,0.04 0.4,0 1.27,0 1.62,-0.04 v 0.31 h -0.32 c -0.9,0 -0.93,0.11 -0.93,0.48 z"
   inkscape:connector-curvature="0" />
<path
   id="path939"
   style="fill:#000000;stroke-width:0"
   d="m 233,480.41 v 0.15 0.15 l -0.01,0.15 v 0.15 l -0.01,0.15 -0.01,0.14 -0.02,0.15 -0.02,0.15 -0.02,0.14 -0.03,0.15 -0.03,0.14 -0.04,0.15 -0.04,0.14 -0.05,0.14 -0.06,0.14 -0.03,0.07 -0.03,0.07 c -0.46,0.95 -1.28,1.11 -1.69,1.11 -0.6,0 -1.33,-0.26 -1.74,-1.18 -0.32,-0.69 -0.37,-1.46 -0.37,-2.26 0,-0.74 0.04,-1.64 0.45,-2.39 0.43,-0.81 1.16,-1 1.65,-1 v 0.21 c -0.39,0 -0.98,0.25 -1.16,1.21 -0.11,0.59 -0.11,1.51 -0.11,2.09 0,0.64 0,1.29 0.08,1.83 0.19,1.18 0.94,1.27 1.19,1.27 0.33,0 0.98,-0.18 1.17,-1.16 0.1,-0.56 0.1,-1.31 0.1,-1.94 0,-0.74 0,-1.42 -0.11,-2.05 -0.15,-0.95 -0.71,-1.25 -1.16,-1.25 v 0 -0.21 c 0.53,0 1.29,0.21 1.73,1.15 0.32,0.68 0.37,1.46 0.37,2.24 z"
   inkscape:connector-curvature="0" />
<path
   id="path941"
   style="fill:#000000;stroke-width:0"
   d="m 237.38,481.4 1.8,1.72 c 0.08,0.08 0.61,0.58 1.41,0.59 v 0.31 c -0.25,-0.03 -0.57,-0.03 -0.84,-0.03 -0.36,0 -0.93,0 -1.27,0.03 v -0.31 c 0.4,-0.01 0.46,-0.24 0.46,-0.33 0,-0.15 -0.1,-0.25 -0.18,-0.32 l -3.12,-2.97 v 3.15 c 0,0.36 0.02,0.47 0.79,0.47 h 0.23 v 0.31 c -0.34,-0.03 -1.08,-0.03 -1.46,-0.03 -0.38,0 -1.13,0 -1.48,0.03 v -0.31 h 0.24 c 0.77,0 0.79,-0.11 0.79,-0.47 v -5.23 c 0,-0.36 -0.02,-0.47 -0.79,-0.47 h -0.24 v -0.31 c 0.35,0.04 1.09,0.04 1.47,0.04 0.38,0 1.13,0 1.47,-0.04 v 0.31 h -0.23 c -0.77,0 -0.79,0.11 -0.79,0.47 v 1.74 l 1.15,1.09 1.81,-2.66 c 0.06,-0.09 0.15,-0.22 0.15,-0.34 0,-0.3 -0.39,-0.3 -0.59,-0.3 v -0.31 c 0.35,0.04 1.05,0.04 1.43,0.04 0.35,0 0.73,-0.01 1.14,-0.04 v 0.31 c -0.53,0 -0.74,0.04 -1.04,0.48 z"
   inkscape:connector-curvature="0" />
</g>  </g>
  <g
     id="g999"
     inkscape:label="GND"
     transform="translate(-38.018312,-1.4891567)"
     inkscape:export-xdpi="600"
     inkscape:export-ydpi="600">
    <g
       id="g987"
       inkscape:label="GND">
      <circle
         id="path985"
         inkscape:label="circle"
         style="fill:#000000;stroke:#000000;stroke-width:0.69999999;stroke-linecap:round;stroke-linejoin:round;stroke-dasharray:none"
         cx="90"
         cy="10"
         r="1" />
    </g>
    <g
       transform="matrix(0.739645,0,0,-0.739645,-82.814356,359.49213)"
       ns0:preamble="C:\\Users\\Marcelo\\AppData\\Roaming\\inkscape\\extensions/textextLib/CircuitSymbolsLatexPreamble.tex"
       ns0:text=" $\\textrm{3.3V}$"
       word-spacing="normal"
       letter-spacing="normal"
       font-size-adjust="none"
       font-stretch="normal"
       font-weight="normal"
       font-variant="normal"
       font-style="normal"
       stroke-miterlimit="10.433"
       xml:space="preserve"
       id="g997"
       style="font-style:normal;font-variant:normal;font-weight:normal;font-stretch:normal;letter-spacing:normal;word-spacing:normal;text-anchor:start;fill:none;fill-opacity:1;fill-rule:evenodd;stroke:#000000;stroke-linecap:butt;stroke-linejoin:miter;stroke-miterlimit:10.43299961;stroke-dasharray:none;stroke-dashoffset:0;stroke-opacity:1">
<path
   id="path989"
   style="fill:#000000;stroke-width:0"
   d="m 226.32,480.73 0.08,0.03 0.07,0.03 0.08,0.03 0.07,0.03 0.07,0.04 0.07,0.04 0.06,0.04 0.07,0.04 0.06,0.04 0.06,0.05 0.06,0.05 0.06,0.05 0.05,0.05 0.05,0.05 0.05,0.06 0.05,0.05 0.04,0.06 0.05,0.06 0.04,0.06 0.03,0.06 0.04,0.07 0.03,0.06 0.03,0.07 0.03,0.06 0.02,0.07 0.02,0.07 0.02,0.07 0.01,0.07 0.02,0.07 v 0.07 l 0.01,0.08 v 0.07 c 0,0.82 -0.88,1.37 -1.84,1.37 -1,0 -1.76,-0.59 -1.76,-1.35 0,-0.33 0.22,-0.52 0.51,-0.52 0.31,0 0.51,0.22 0.51,0.51 0,0.5 -0.47,0.5 -0.62,0.5 0.31,0.48 0.97,0.61 1.33,0.61 0.4,0 0.95,-0.22 0.95,-1.11 0,-0.12 -0.02,-0.69 -0.28,-1.13 -0.3,-0.48 -0.64,-0.51 -0.88,-0.52 -0.08,-0.01 -0.32,-0.03 -0.39,-0.03 -0.08,-0.01 -0.15,-0.02 -0.15,-0.12 0,-0.11 0.07,-0.11 0.24,-0.11 h 0.43 c 0.82,0 1.19,-0.67 1.19,-1.65 0,-1.35 -0.69,-1.63 -1.12,-1.63 -0.43,0 -1.18,0.16 -1.53,0.75 0.35,-0.05 0.66,0.17 0.66,0.55 0,0.35 -0.27,0.55 -0.56,0.55 -0.24,0 -0.56,-0.14 -0.56,-0.57 0,-0.91 0.93,-1.56 2.02,-1.56 1.21,0 2.12,0.9 2.12,1.91 0,0.82 -0.63,1.59 -1.67,1.8 z"
   inkscape:connector-curvature="0" />
<path
   id="path991"
   style="fill:#000000;stroke-width:0"
   d="m 230.33,477.76 v 0.03 0.03 l -0.01,0.02 v 0.03 l -0.01,0.02 -0.01,0.03 v 0.02 l -0.01,0.03 -0.01,0.02 -0.02,0.02 -0.01,0.02 -0.01,0.02 -0.02,0.03 -0.01,0.02 -0.02,0.01 -0.02,0.02 -0.02,0.02 -0.02,0.02 -0.02,0.01 -0.02,0.02 -0.02,0.01 -0.02,0.01 -0.02,0.02 -0.03,0.01 -0.02,0.01 h -0.02 l -0.03,0.01 -0.03,0.01 h -0.02 l -0.03,0.01 h -0.02 -0.03 c -0.29,0 -0.53,-0.24 -0.53,-0.53 0,-0.29 0.24,-0.53 0.53,-0.53 0.29,0 0.53,0.24 0.53,0.53 z"
   inkscape:connector-curvature="0" />
<path
   id="path993"
   style="fill:#000000;stroke-width:0"
   d="m 234.07,480.73 0.08,0.03 0.07,0.03 0.08,0.03 0.07,0.03 0.07,0.04 0.07,0.04 0.06,0.04 0.07,0.04 0.06,0.04 0.06,0.05 0.06,0.05 0.05,0.05 0.06,0.05 0.05,0.05 0.05,0.06 0.05,0.05 0.04,0.06 0.05,0.06 0.04,0.06 0.03,0.06 0.04,0.07 0.03,0.06 0.03,0.07 0.03,0.06 0.02,0.07 0.02,0.07 0.02,0.07 0.01,0.07 0.01,0.07 0.01,0.07 0.01,0.08 v 0.07 c 0,0.82 -0.88,1.37 -1.84,1.37 -1,0 -1.76,-0.59 -1.76,-1.35 0,-0.33 0.22,-0.52 0.51,-0.52 0.31,0 0.51,0.22 0.51,0.51 0,0.5 -0.47,0.5 -0.62,0.5 0.31,0.48 0.97,0.61 1.32,0.61 0.41,0 0.96,-0.22 0.96,-1.11 0,-0.12 -0.02,-0.69 -0.28,-1.13 -0.3,-0.48 -0.64,-0.51 -0.89,-0.52 -0.08,-0.01 -0.31,-0.03 -0.38,-0.03 -0.08,-0.01 -0.15,-0.02 -0.15,-0.12 0,-0.11 0.07,-0.11 0.24,-0.11 h 0.43 c 0.82,0 1.19,-0.67 1.19,-1.65 0,-1.35 -0.69,-1.63 -1.13,-1.63 -0.43,0 -1.17,0.16 -1.52,0.75 0.35,-0.05 0.66,0.17 0.66,0.55 0,0.35 -0.27,0.55 -0.56,0.55 -0.24,0 -0.56,-0.14 -0.56,-0.57 0,-0.91 0.93,-1.56 2.01,-1.56 1.22,0 2.13,0.9 2.13,1.91 0,0.82 -0.63,1.59 -1.67,1.8 z"
   inkscape:connector-curvature="0" />
<path
   id="path995"
   style="fill:#000000;stroke-width:0"
   d="m 242.35,483.05 0.02,0.03 0.01,0.03 0.02,0.04 0.01,0.03 0.02,0.03 0.02,0.03 0.02,0.03 0.02,0.03 0.02,0.03 0.02,0.03 0.03,0.03 0.02,0.03 0.03,0.02 0.03,0.03 0.03,0.02 0.03,0.02 0.03,0.03 0.03,0.02 0.04,0.02 0.04,0.01 0.04,0.02 0.04,0.02 0.04,0.01 0.05,0.02 0.04,0.01 0.05,0.01 0.05,0.01 0.06,0.01 h 0.05 l 0.06,0.01 h 0.06 0.06 v 0.31 c -0.31,-0.02 -0.71,-0.03 -0.97,-0.03 -0.29,0 -0.87,0.02 -1.13,0.03 v -0.31 c 0.52,-0.01 0.73,-0.27 0.73,-0.5 0,-0.07 -0.03,-0.13 -0.05,-0.19 l -1.83,-4.79 -1.9,5.01 c -0.06,0.14 -0.06,0.16 -0.06,0.18 0,0.29 0.56,0.29 0.81,0.29 v 0.31 c -0.36,-0.03 -1.04,-0.03 -1.42,-0.03 -0.48,0 -0.91,0.02 -1.27,0.03 v -0.31 c 0.65,0 0.84,0 0.98,-0.38 l 2.31,-6.1 c 0.07,-0.18 0.12,-0.21 0.25,-0.21 0.17,0 0.19,0.05 0.24,0.18 z"
   inkscape:connector-curvature="0" />
</g>  </g>
  <g
     id="g1058"
     inkscape:label="GND"
     transform="translate(-37.987062,68.740754)"
     inkscape:export-xdpi="600"
     inkscape:export-ydpi="600">
    <g
       id="g1056"
       inkscape:label="GND">
      <path
         id="path1048"
         inkscape:label="none"
         style="fill:none;stroke:#000000;stroke-width:1;stroke-linecap:round;stroke-linejoin:round;stroke-dasharray:none"
         d="M 90,40 V 50"
         inkscape:connector-curvature="0" />
      <path
         id="path1050"
         inkscape:label="none"
         style="fill:none;stroke:#000000;stroke-width:1;stroke-linecap:round;stroke-linejoin:round;stroke-dasharray:none"
         d="M 97,50 H 83"
         inkscape:connector-curvature="0" />
      <path
         id="path1052"
         inkscape:label="none"
         style="fill:none;stroke:#000000;stroke-width:1;stroke-linecap:round;stroke-linejoin:round;stroke-dasharray:none"
         d="m 93.5,52 h -7"
         inkscape:connector-curvature="0" />
      <path
         id="path1054"
         inkscape:label="none"
         style="fill:none;stroke:#000000;stroke-width:1;stroke-linecap:round;stroke-linejoin:round;stroke-dasharray:none"
         d="M 91,54 H 89"
         inkscape:connector-curvature="0" />
    </g>
  </g>
  <g
     id="g1131"
     inkscape:label="GND"
     transform="translate(-73.095413,48.714044)"
     inkscape:export-xdpi="600"
     inkscape:export-ydpi="600">
    <g
       id="g1113"
       inkscape:label="GND">
      <circle
         id="path1111"
         inkscape:label="circle"
         style="fill:#000000;stroke:#000000;stroke-width:0.69999999;stroke-linecap:round;stroke-linejoin:round;stroke-dasharray:none"
         cx="90"
         cy="40"
         r="1" />
    </g>
    <g
       transform="matrix(0.739645,0,0,-0.739645,-92.57767,389.49213)"
       ns0:preamble="C:\\Users\\Marcelo\\AppData\\Roaming\\inkscape\\extensions/textextLib/CircuitSymbolsLatexPreamble.tex"
       ns0:text=" $\\textrm{CAL-OUT}$"
       word-spacing="normal"
       letter-spacing="normal"
       font-size-adjust="none"
       font-stretch="normal"
       font-weight="normal"
       font-variant="normal"
       font-style="normal"
       stroke-miterlimit="10.433"
       xml:space="preserve"
       id="g1129"
       style="font-style:normal;font-variant:normal;font-weight:normal;font-stretch:normal;letter-spacing:normal;word-spacing:normal;text-anchor:start;fill:none;fill-opacity:1;fill-rule:evenodd;stroke:#000000;stroke-linecap:butt;stroke-linejoin:miter;stroke-miterlimit:10.43299961;stroke-dasharray:none;stroke-dashoffset:0;stroke-opacity:1">
<path
   id="path1115"
   style="fill:#000000;stroke-width:0"
   d="m 223.99,480.63 v -0.19 l 0.02,-0.19 0.02,-0.18 0.03,-0.18 0.04,-0.18 0.05,-0.18 0.06,-0.16 0.06,-0.17 0.07,-0.16 0.08,-0.16 0.09,-0.15 0.09,-0.15 0.1,-0.14 0.1,-0.13 0.11,-0.13 0.12,-0.13 0.12,-0.12 0.13,-0.11 0.13,-0.1 0.14,-0.1 0.14,-0.09 0.14,-0.09 0.15,-0.08 0.16,-0.07 0.15,-0.06 0.16,-0.06 0.16,-0.04 0.17,-0.04 0.17,-0.03 0.17,-0.03 0.17,-0.01 h 0.17 c 1.63,0 2.6,1.38 2.6,2.53 0,0.1 0,0.17 -0.13,0.17 -0.11,0 -0.11,-0.06 -0.12,-0.16 -0.08,-1.42 -1.14,-2.24 -2.23,-2.24 -0.61,0 -2.56,0.34 -2.56,3.3 0,2.97 1.94,3.31 2.55,3.31 1.09,0 1.97,-0.9 2.17,-2.35 0.02,-0.14 0.02,-0.17 0.16,-0.17 0.16,0 0.16,0.03 0.16,0.24 V 484 c 0,0.17 0,0.24 -0.11,0.24 -0.04,0 -0.08,0 -0.16,-0.12 l -0.49,-0.74 c -0.37,0.36 -0.88,0.86 -1.84,0.86 -1.86,0 -3.47,-1.58 -3.47,-3.61 z"
   inkscape:connector-curvature="0" />
<path
   id="path1117"
   style="fill:#000000;stroke-width:0"
   d="m 234.6,484.15 -0.01,0.01 v 0.01 l -0.01,0.01 v 0.01 l -0.01,0.02 v 0.01 0.01 h -0.01 v 0.01 l -0.01,0.01 v 0.01 l -0.01,0.01 v 0.01 h -0.01 v 0.01 l -0.01,0.01 v 0 l -0.01,0.01 h -0.01 v 0.01 h -0.01 l -0.01,0.01 h -0.01 l -0.01,0.01 h -0.01 -0.01 -0.01 -0.01 l -0.01,0.01 h -0.01 -0.02 -0.01 v 0 c -0.16,0 -0.19,-0.06 -0.24,-0.2 l -2.07,-5.94 c -0.18,-0.51 -0.57,-0.66 -1.11,-0.67 v -0.31 c 0.23,0.01 0.65,0.04 1.01,0.04 0.31,0 0.83,-0.03 1.15,-0.04 v 0.31 c -0.5,0 -0.75,0.25 -0.75,0.51 0,0.03 0.01,0.13 0.02,0.15 l 0.46,1.3 0.11,0.31 1.12,3.23 1.12,-3.23 h -2.24 l -0.11,-0.31 h 2.46 l 0.53,-1.52 c 0.01,-0.04 0.03,-0.1 0.03,-0.14 0,-0.3 -0.56,-0.3 -0.82,-0.3 v -0.31 c 0.35,0.04 1.05,0.04 1.43,0.04 0.43,0 0.89,-0.01 1.31,-0.04 v 0.31 h -0.18 c -0.6,0 -0.74,0.07 -0.85,0.4 z"
   inkscape:connector-curvature="0" />
<path
   id="path1119"
   style="fill:#000000;stroke-width:0"
   d="m 243.9,479.8 h -0.25 c -0.11,-1.01 -0.25,-2.26 -2,-2.26 h -0.82 c -0.47,0 -0.49,0.07 -0.49,0.4 v 5.29 c 0,0.34 0,0.48 0.95,0.48 h 0.33 v 0.31 c -0.36,-0.03 -1.27,-0.03 -1.68,-0.03 -0.39,0 -1.16,0 -1.51,0.03 v -0.31 h 0.24 c 0.76,0 0.79,-0.11 0.79,-0.47 v -5.23 c 0,-0.36 -0.03,-0.47 -0.79,-0.47 h -0.24 v -0.31 h 5.19 z"
   inkscape:connector-curvature="0" />
<polygon
   id="polygon1121"
   style="fill:#000000;stroke-width:0"
   points="244.43,479.67 244.43,479.09 247.08,479.09 247.08,479.67 " />
<path
   id="path1123"
   style="fill:#000000;stroke-width:0"
   d="m 254.84,480.6 -0.01,0.19 -0.01,0.19 -0.02,0.18 -0.03,0.18 -0.04,0.18 -0.04,0.17 -0.06,0.17 -0.06,0.17 -0.06,0.16 -0.08,0.15 -0.08,0.16 -0.09,0.14 -0.09,0.15 -0.1,0.13 -0.1,0.13 -0.11,0.13 -0.12,0.12 -0.12,0.11 -0.13,0.11 -0.13,0.1 -0.13,0.1 -0.14,0.08 -0.14,0.08 -0.15,0.07 -0.15,0.07 -0.15,0.06 -0.16,0.04 -0.16,0.04 -0.16,0.04 -0.17,0.02 -0.17,0.01 -0.17,0.01 v -0.25 c 0.87,0 2.3,-0.7 2.3,-3.25 0,-2.63 -1.37,-3.47 -2.29,-3.47 v 0 c -0.95,0 -2.29,0.88 -2.29,3.47 0,2.58 1.46,3.25 2.28,3.25 v 0.25 c -1.78,0 -3.31,-1.59 -3.31,-3.64 0,-2.03 1.54,-3.58 3.31,-3.58 1.82,0 3.33,1.58 3.33,3.58 z"
   inkscape:connector-curvature="0" />
<path
   id="path1125"
   style="fill:#000000;stroke-width:0"
   d="m 261.2,479.53 v -0.13 l -0.01,-0.13 -0.02,-0.12 -0.01,-0.12 -0.03,-0.12 -0.03,-0.11 -0.03,-0.11 -0.04,-0.1 -0.04,-0.1 -0.04,-0.1 -0.05,-0.09 -0.06,-0.09 -0.05,-0.08 -0.06,-0.08 -0.07,-0.08 -0.06,-0.07 -0.07,-0.07 -0.07,-0.06 -0.08,-0.06 -0.07,-0.06 -0.08,-0.05 -0.08,-0.05 -0.08,-0.04 -0.09,-0.04 -0.08,-0.03 -0.09,-0.03 -0.08,-0.03 -0.09,-0.02 -0.09,-0.02 -0.09,-0.01 h -0.09 l -0.09,-0.01 c -0.46,0 -1.64,0.25 -1.64,2.14 v 3.78 c 0,0.36 0.02,0.47 0.79,0.47 h 0.24 v 0.31 c -0.35,-0.03 -1.09,-0.03 -1.47,-0.03 -0.38,0 -1.13,0 -1.48,0.03 v -0.31 h 0.24 c 0.77,0 0.79,-0.11 0.79,-0.47 v -3.74 c 0,-1.4 1.16,-2.48 2.51,-2.48 1.15,0 2.05,0.92 2.22,2.05 0.03,0.2 0.03,0.29 0.03,0.69 v 3.18 c 0,0.33 0,0.77 1.03,0.77 v 0.31 c -0.36,-0.01 -0.84,-0.03 -1.18,-0.03 -0.35,0 -0.83,0.02 -1.19,0.03 v -0.31 c 1.03,0 1.03,-0.47 1.03,-0.73 z"
   inkscape:connector-curvature="0" />
<path
   id="path1127"
   style="fill:#000000;stroke-width:0"
   d="m 269.51,483.96 h -6.09 l -0.19,-2.23 h 0.25 c 0.13,1.59 0.28,1.92 1.79,1.92 0.18,0 0.44,0 0.54,-0.02 0.21,-0.04 0.21,-0.15 0.21,-0.37 v -5.24 c 0,-0.34 0,-0.48 -1.05,-0.48 h -0.4 v -0.31 c 0.41,0.04 1.43,0.04 1.89,0.04 0.46,0 1.48,0 1.89,-0.04 v 0.31 h -0.4 c -1.05,0 -1.05,0.14 -1.05,0.48 v 5.24 c 0,0.19 0,0.33 0.18,0.37 0.12,0.02 0.38,0.02 0.57,0.02 1.51,0 1.66,-0.33 1.8,-1.92 h 0.25 z"
   inkscape:connector-curvature="0" />
</g>  </g>
  <g
     id="g1216"
     inkscape:label="GND"
     transform="translate(-14.251419,18.741382)"
     inkscape:export-xdpi="600"
     inkscape:export-ydpi="600">
    <g
       id="g1202"
       inkscape:label="GND">
      <circle
         id="path1200"
         inkscape:label="circle"
         style="fill:#000000;stroke:#000000;stroke-width:0.69999999;stroke-linecap:round;stroke-linejoin:round;stroke-dasharray:none"
         cx="90"
         cy="40"
         r="1" />
    </g>
    <g
       transform="matrix(0.739645,0,0,-0.739645,-85.28477,389.49213)"
       ns0:preamble="C:\\Users\\Marcelo\\AppData\\Roaming\\inkscape\\extensions/textextLib/CircuitSymbolsLatexPreamble.tex"
       ns0:text=" $\\textrm{uC-IN}$"
       word-spacing="normal"
       letter-spacing="normal"
       font-size-adjust="none"
       font-stretch="normal"
       font-weight="normal"
       font-variant="normal"
       font-style="normal"
       stroke-miterlimit="10.433"
       xml:space="preserve"
       id="g1214"
       style="font-style:normal;font-variant:normal;font-weight:normal;font-stretch:normal;letter-spacing:normal;word-spacing:normal;text-anchor:start;fill:none;fill-opacity:1;fill-rule:evenodd;stroke:#000000;stroke-linecap:butt;stroke-linejoin:miter;stroke-miterlimit:10.43299961;stroke-dasharray:none;stroke-dashoffset:0;stroke-opacity:1">
<path
   id="path1204"
   style="fill:#000000;stroke-width:0"
   d="m 227.33,478.02 v -0.89 l 1.44,0.1 v 0.31 c -0.7,0 -0.78,0.07 -0.78,0.56 v 3.53 l -1.47,-0.11 v -0.31 c 0.7,0 0.78,-0.07 0.78,-0.56 v -1.77 c 0,-0.86 -0.48,-1.54 -1.2,-1.54 -0.84,0 -0.88,0.47 -0.88,0.99 v 3.3 l -1.47,-0.11 v -0.31 c 0.78,0 0.78,-0.03 0.78,-0.91 v -1.5 c 0,-0.77 0,-1.67 1.51,-1.67 0.56,0 1,0.27 1.29,0.89 z"
   inkscape:connector-curvature="0" />
<path
   id="path1206"
   style="fill:#000000;stroke-width:0"
   d="m 229.53,480.63 v -0.19 l 0.01,-0.19 0.03,-0.18 0.03,-0.18 0.04,-0.18 0.05,-0.18 0.05,-0.16 0.07,-0.17 0.07,-0.16 0.08,-0.16 0.08,-0.15 0.09,-0.15 0.1,-0.14 0.11,-0.13 0.11,-0.13 0.12,-0.13 0.12,-0.12 0.12,-0.11 0.14,-0.1 0.13,-0.1 0.14,-0.09 0.15,-0.09 0.15,-0.08 0.15,-0.07 0.16,-0.06 0.16,-0.06 0.16,-0.04 0.16,-0.04 0.17,-0.03 0.17,-0.03 0.17,-0.01 H 233 c 1.62,0 2.6,1.38 2.6,2.53 0,0.1 0,0.17 -0.13,0.17 -0.11,0 -0.11,-0.06 -0.12,-0.16 -0.08,-1.42 -1.15,-2.24 -2.23,-2.24 -0.61,0 -2.57,0.34 -2.57,3.3 0,2.97 1.95,3.31 2.56,3.31 1.08,0 1.97,-0.9 2.17,-2.35 0.02,-0.14 0.02,-0.17 0.16,-0.17 0.16,0 0.16,0.03 0.16,0.24 V 484 c 0,0.17 0,0.24 -0.11,0.24 -0.04,0 -0.08,0 -0.16,-0.12 l -0.5,-0.74 c -0.37,0.36 -0.88,0.86 -1.83,0.86 -1.87,0 -3.47,-1.58 -3.47,-3.61 z"
   inkscape:connector-curvature="0" />
<polygon
   id="polygon1208"
   style="fill:#000000;stroke-width:0"
   points="236.27,479.09 238.91,479.09 238.91,479.67 236.27,479.67 " />
<path
   id="path1210"
   style="fill:#000000;stroke-width:0"
   d="m 241.73,483.24 v 0.04 0.03 0.03 0.03 0.03 0.02 l 0.01,0.03 v 0.02 l 0.01,0.02 0.01,0.02 0.01,0.02 0.01,0.02 0.01,0.02 0.01,0.01 0.02,0.02 0.02,0.01 0.02,0.02 0.02,0.01 h 0.02 l 0.01,0.01 h 0.01 l 0.02,0.01 h 0.01 l 0.02,0.01 h 0.02 l 0.02,0.01 h 0.01 0.02 l 0.02,0.01 h 0.02 0.03 0.02 l 0.02,0.01 h 0.03 0.02 0.03 l 0.02,0.01 h 0.03 0.03 0.03 0.03 0.03 0.04 0.03 0.04 0.03 0.26 v 0.31 c -0.35,-0.03 -1.13,-0.03 -1.51,-0.03 -0.39,0 -1.18,0 -1.53,0.03 v -0.31 h 0.26 c 0.79,0 0.82,-0.11 0.82,-0.47 v -5.23 c 0,-0.36 -0.03,-0.47 -0.82,-0.47 h -0.26 v -0.31 c 0.35,0.04 1.14,0.04 1.52,0.04 0.39,0 1.17,0 1.52,-0.04 v 0.31 h -0.26 c -0.78,0 -0.81,0.11 -0.81,0.47 z"
   inkscape:connector-curvature="0" />
<path
   id="path1212"
   style="fill:#000000;stroke-width:0"
   d="m 245.39,483.89 v 0.01 l -0.01,0.01 -0.01,0.01 -0.01,0.01 v 0.01 l -0.01,0.01 h -0.01 v 0.01 l -0.01,0.01 v 0 l -0.01,0.01 h -0.01 v 0.01 h -0.01 l -0.01,0.01 v 0 h -0.01 l -0.01,0.01 h -0.01 v 0 h -0.01 -0.01 l -0.01,0.01 h -0.01 -0.01 -0.02 -0.01 -0.01 -0.02 v 0 h -0.01 -0.01 -0.01 -0.01 -0.01 -1.69 v -0.31 h 0.29 c 0.15,0 0.35,-0.01 0.5,-0.02 0.23,-0.03 0.24,-0.04 0.24,-0.23 v -5.18 c 0,-0.27 0,-0.74 -1.03,-0.74 v -0.31 c 0.35,0.01 0.84,0.04 1.17,0.04 0.32,0 0.81,-0.03 1.16,-0.04 v 0.31 c -1.02,0 -1.02,0.47 -1.02,0.74 v 5.16 c 0.04,-0.05 0.05,-0.06 0.1,-0.12 l 4.06,-5.96 c 0.09,-0.12 0.1,-0.13 0.17,-0.13 0.14,0 0.14,0.07 0.14,0.26 v 5.49 c 0,0.26 0,0.73 1.03,0.73 v 0.31 c -0.35,-0.01 -0.84,-0.03 -1.17,-0.03 -0.33,0 -0.81,0.02 -1.16,0.03 v -0.31 c 1.02,0 1.02,-0.47 1.02,-0.73 v -4.25 z"
   inkscape:connector-curvature="0" />
</g>  </g>
  <path
     style="fill:none;stroke:#000000;stroke-width:1;stroke-linecap:butt;stroke-linejoin:miter;stroke-miterlimit:4;stroke-dasharray:none;stroke-opacity:1;marker-start:url(#DotS)"
     d="M 52.012937,58.740752 H 75.745168"
     id="path1228"
     inkscape:connector-curvature="0"
     inkscape:export-xdpi="600"
     inkscape:export-ydpi="600" />
  <path
     style="fill:none;stroke:#000000;stroke-width:1;stroke-linecap:butt;stroke-linejoin:miter;stroke-miterlimit:4;stroke-dasharray:3, 3;stroke-dashoffset:0;stroke-opacity:1"
     d="M 0,49.157471 H 62.177083 V 128.53247"
     id="path1918"
     inkscape:connector-curvature="0"
     inkscape:export-xdpi="600"
     inkscape:export-ydpi="600" />
  <g
     id="g2031"
     inkscape:label="GND">
    <g
       transform="matrix(0.739645,0,0,-0.739645,-165.46481,410.37371)"
       ns0:preamble="C:\\Users\\Marcelo\\AppData\\Roaming\\inkscape\\extensions/textextLib/CircuitSymbolsLatexPreamble.tex"
       ns0:text=" $\\textrm{Calibre}$"
       word-spacing="normal"
       letter-spacing="normal"
       font-size-adjust="none"
       font-stretch="normal"
       font-weight="normal"
       font-variant="normal"
       font-style="normal"
       stroke-miterlimit="10.433"
       xml:space="preserve"
       id="g2029"
       style="font-style:normal;font-variant:normal;font-weight:normal;font-stretch:normal;letter-spacing:normal;word-spacing:normal;text-anchor:start;fill:none;fill-opacity:1;fill-rule:evenodd;stroke:#000000;stroke-linecap:butt;stroke-linejoin:miter;stroke-miterlimit:10.43299961;stroke-dasharray:none;stroke-dashoffset:0;stroke-opacity:1"
       inkscape:export-xdpi="600"
       inkscape:export-ydpi="600">
<path
   id="path2013"
   style="fill:#000000;stroke-width:0"
   d="m 223.99,480.63 v -0.19 l 0.02,-0.19 0.02,-0.18 0.03,-0.18 0.04,-0.18 0.05,-0.18 0.06,-0.16 0.06,-0.17 0.07,-0.16 0.08,-0.16 0.09,-0.15 0.09,-0.15 0.1,-0.14 0.1,-0.13 0.11,-0.13 0.12,-0.13 0.12,-0.12 0.13,-0.11 0.13,-0.1 0.14,-0.1 0.14,-0.09 0.14,-0.09 0.15,-0.08 0.16,-0.07 0.15,-0.06 0.16,-0.06 0.16,-0.04 0.17,-0.04 0.17,-0.03 0.17,-0.03 0.17,-0.01 h 0.17 c 1.63,0 2.6,1.38 2.6,2.53 0,0.1 0,0.17 -0.13,0.17 -0.11,0 -0.11,-0.06 -0.12,-0.16 -0.08,-1.42 -1.14,-2.24 -2.23,-2.24 -0.61,0 -2.56,0.34 -2.56,3.3 0,2.97 1.94,3.31 2.55,3.31 1.09,0 1.97,-0.9 2.17,-2.35 0.02,-0.14 0.02,-0.17 0.16,-0.17 0.16,0 0.16,0.03 0.16,0.24 V 484 c 0,0.17 0,0.24 -0.11,0.24 -0.04,0 -0.08,0 -0.16,-0.12 l -0.49,-0.74 c -0.37,0.36 -0.88,0.86 -1.84,0.86 -1.86,0 -3.47,-1.58 -3.47,-3.61 z"
   inkscape:connector-curvature="0" />
<path
   id="path2015"
   style="fill:#000000;stroke-width:0"
   d="m 233.95,477.99 v -0.04 l 0.01,-0.03 0.01,-0.04 v -0.04 l 0.01,-0.04 0.01,-0.03 0.02,-0.04 0.01,-0.03 0.02,-0.04 0.01,-0.03 0.02,-0.04 0.02,-0.03 0.02,-0.03 0.02,-0.04 0.02,-0.03 0.03,-0.03 0.02,-0.02 0.03,-0.03 0.03,-0.03 0.02,-0.02 0.03,-0.02 0.04,-0.03 0.03,-0.02 0.03,-0.01 0.04,-0.02 0.03,-0.01 0.04,-0.02 0.04,-0.01 h 0.04 l 0.04,-0.01 h 0.04 l 0.05,-0.01 c 0.2,0 0.81,0.14 0.81,0.95 v 0.55 h -0.25 v -0.55 c 0,-0.58 -0.25,-0.64 -0.36,-0.64 -0.32,0 -0.36,0.45 -0.36,0.5 v 1.99 c 0,0.41 0,0.8 -0.36,1.17 -0.39,0.39 -0.89,0.54 -1.37,0.54 -0.82,0 -1.5,-0.46 -1.5,-1.12 0,-0.29 0.19,-0.46 0.45,-0.46 0.28,0 0.46,0.2 0.46,0.45 0,0.12 -0.05,0.45 -0.51,0.46 0.27,0.35 0.76,0.46 1.08,0.46 0.49,0 1.06,-0.39 1.06,-1.27 v -0.37 -0.21 -0.99 c 0,-0.95 -0.72,-1.29 -1.17,-1.29 -0.49,0 -0.9,0.35 -0.9,0.85 0,0.54 0.42,1.37 2.07,1.43 v 0 0.21 c -0.51,-0.03 -1.21,-0.06 -1.84,-0.36 -0.75,-0.34 -0.99,-0.85 -0.99,-1.29 0,-0.81 0.96,-1.05 1.59,-1.05 0.66,0 1.12,0.39 1.31,0.86 z"
   inkscape:connector-curvature="0" />
<path
   id="path2017"
   style="fill:#000000;stroke-width:0"
   d="m 237.37,484.13 -1.43,-0.11 v -0.31 c 0.69,0 0.77,-0.07 0.77,-0.55 v -5.17 c 0,-0.45 -0.1,-0.45 -0.77,-0.45 v -0.31 c 0.33,0.01 0.85,0.04 1.1,0.04 0.25,0 0.74,-0.03 1.11,-0.04 v 0.31 c -0.67,0 -0.78,0 -0.78,0.45 z"
   inkscape:connector-curvature="0" />
<path
   id="path2019"
   style="fill:#000000;stroke-width:0"
   d="m 240.14,481.63 -1.4,-0.11 v -0.31 c 0.65,0 0.74,-0.06 0.74,-0.55 v -2.67 c 0,-0.45 -0.11,-0.45 -0.77,-0.45 v -0.31 c 0.31,0.01 0.85,0.04 1.09,0.04 0.35,0 0.7,-0.03 1.04,-0.04 v 0.31 c -0.66,0 -0.7,0.05 -0.7,0.44 z"
   inkscape:connector-curvature="0" />
<path
   id="path2021"
   style="fill:#000000;stroke-width:0"
   d="m 240.18,483.35 v 0.03 0.03 l -0.01,0.03 v 0.03 l -0.01,0.02 v 0.03 l -0.01,0.03 -0.01,0.02 -0.01,0.02 -0.02,0.03 -0.01,0.02 -0.01,0.02 -0.02,0.02 -0.01,0.02 -0.02,0.02 -0.02,0.02 -0.02,0.01 -0.02,0.02 -0.02,0.01 -0.02,0.02 -0.02,0.01 -0.02,0.01 -0.02,0.01 -0.03,0.01 -0.02,0.01 -0.03,0.01 -0.02,0.01 h -0.02 l -0.03,0.01 h -0.03 -0.02 -0.03 c -0.31,0 -0.53,-0.27 -0.53,-0.53 0,-0.26 0.22,-0.52 0.53,-0.52 0.28,0 0.53,0.21 0.53,0.52 z"
   inkscape:connector-curvature="0" />
<path
   id="path2023"
   style="fill:#000000;stroke-width:0"
   d="m 242.86,480.98 v 3.15 l -1.44,-0.11 v -0.31 c 0.7,0 0.78,-0.07 0.78,-0.55 v -5.93 h 0.25 c 0.01,0.01 0.09,0.15 0.36,0.62 0.15,-0.23 0.57,-0.72 1.31,-0.72 l -0.05,0.21 c -0.44,0 -0.8,0.24 -1.04,0.61 -0.14,0.21 -0.14,0.24 -0.14,0.42 v 0 2.04 c 0,0.19 0,0.2 0.11,0.36 0.39,0.56 0.94,0.64 1.18,0.64 0.44,0 0.8,-0.26 1.04,-0.64 0.26,-0.41 0.29,-0.97 0.29,-1.38 0,-0.37 -0.02,-0.96 -0.31,-1.41 -0.21,-0.31 -0.59,-0.64 -1.13,-0.64 l 0.05,-0.21 c 1.18,0 2.22,0.97 2.22,2.25 0,1.26 -0.98,2.25 -2.11,2.25 -0.78,0 -1.21,-0.47 -1.37,-0.65 z"
   inkscape:connector-curvature="0" />
<path
   id="path2025"
   style="fill:#000000;stroke-width:0"
   d="m 248.34,480.53 v 1.1 l -1.38,-0.11 v -0.31 c 0.7,0 0.78,-0.07 0.78,-0.56 v -2.66 c 0,-0.45 -0.11,-0.45 -0.78,-0.45 v -0.31 c 0.39,0.01 0.86,0.04 1.14,0.04 0.39,0 0.86,0 1.26,-0.04 v 0.31 h -0.21 c -0.74,0 -0.76,0.11 -0.76,0.47 v 1.53 c 0,0.98 0.42,1.87 1.18,1.87 0.07,0 0.09,0 0.11,-0.01 -0.03,-0.01 -0.23,-0.13 -0.23,-0.39 0,-0.28 0.21,-0.43 0.43,-0.43 0.18,0 0.43,0.12 0.43,0.44 0,0.32 -0.31,0.61 -0.74,0.61 -0.73,0 -1.09,-0.67 -1.23,-1.1 z"
   inkscape:connector-curvature="0" />
<path
   id="path2027"
   style="fill:#000000;stroke-width:0"
   d="m 251.69,479.53 0.01,0.21 c 0.06,1.48 0.9,1.73 1.23,1.73 1.03,0 1.13,-1.34 1.13,-1.73 h -2.36 l -0.01,-0.21 h 2.78 c 0.22,0 0.25,0 0.25,0.21 0,0.98 -0.54,1.94 -1.79,1.94 -1.15,0 -2.07,-1.02 -2.07,-2.26 0,-1.33 1.05,-2.29 2.19,-2.29 1.22,0 1.67,1.1 1.67,1.29 0,0.1 -0.08,0.12 -0.13,0.12 -0.09,0 -0.11,-0.06 -0.13,-0.14 -0.35,-1.03 -1.25,-1.03 -1.35,-1.03 -0.49,0 -0.89,0.3 -1.12,0.67 -0.3,0.48 -0.3,1.13 -0.3,1.49 z"
   inkscape:connector-curvature="0" />
</g>  </g>
</svg>
