<?xml version="1.0" encoding="UTF-8" standalone="no"?>
<!-- Created with Inkscape (http://www.inkscape.org/) -->

<svg
   xmlns:ns0="http://www.iki.fi/pav/software/textext/"
   xmlns:dc="http://purl.org/dc/elements/1.1/"
   xmlns:cc="http://creativecommons.org/ns#"
   xmlns:rdf="http://www.w3.org/1999/02/22-rdf-syntax-ns#"
   xmlns:svg="http://www.w3.org/2000/svg"
   xmlns="http://www.w3.org/2000/svg"
   xmlns:sodipodi="http://sodipodi.sourceforge.net/DTD/sodipodi-0.dtd"
   xmlns:inkscape="http://www.inkscape.org/namespaces/inkscape"
   width="143.41519mm"
   height="87.966522mm"
   viewBox="0 0 143.4152 87.966523"
   version="1.1"
   id="svg8"
   inkscape:version="0.92.4 (5da689c313, 2019-01-14)"
   sodipodi:docname="TransistorIN.svg">
  <defs
     id="defs2">
    <marker
       inkscape:isstock="true"
       style="overflow:visible"
       id="marker1393"
       refX="0"
       refY="0"
       orient="auto"
       inkscape:stockid="DotS">
      <path
         transform="matrix(0.2,0,0,0.2,1.48,0.2)"
         style="fill:#000000;fill-opacity:1;fill-rule:evenodd;stroke:#000000;stroke-width:1.00000003pt;stroke-opacity:1"
         d="m -2.5,-1 c 0,2.76 -2.24,5 -5,5 -2.76,0 -5,-2.24 -5,-5 0,-2.76 2.24,-5 5,-5 2.76,0 5,2.24 5,5 z"
         id="path1391"
         inkscape:connector-curvature="0" />
    </marker>
    <marker
       inkscape:stockid="DotS"
       orient="auto"
       refY="0"
       refX="0"
       id="DotS"
       style="overflow:visible"
       inkscape:isstock="true"
       inkscape:collect="always">
      <path
         id="path965"
         d="m -2.5,-1 c 0,2.76 -2.24,5 -5,5 -2.76,0 -5,-2.24 -5,-5 0,-2.76 2.24,-5 5,-5 2.76,0 5,2.24 5,5 z"
         style="fill:#000000;fill-opacity:1;fill-rule:evenodd;stroke:#000000;stroke-width:1.00000003pt;stroke-opacity:1"
         transform="matrix(0.2,0,0,0.2,1.48,0.2)"
         inkscape:connector-curvature="0" />
    </marker>
  </defs>
  <sodipodi:namedview
     id="base"
     pagecolor="#ffffff"
     bordercolor="#666666"
     borderopacity="1.0"
     inkscape:pageopacity="0.0"
     inkscape:pageshadow="2"
     inkscape:zoom="1.4"
     inkscape:cx="311.18161"
     inkscape:cy="121.75518"
     inkscape:document-units="mm"
     inkscape:current-layer="g1191"
     showgrid="false"
     inkscape:window-width="1920"
     inkscape:window-height="1001"
     inkscape:window-x="-9"
     inkscape:window-y="-9"
     inkscape:window-maximized="1"
     fit-margin-top="0"
     fit-margin-left="0"
     fit-margin-right="0"
     fit-margin-bottom="0">
    <inkscape:grid
       originy="-216.95834"
       originx="-31.020406"
       id="grid1180"
       type="xygrid" />
  </sodipodi:namedview>
  <metadata
     id="metadata5">
    <rdf:RDF>
      <cc:Work
         rdf:about="">
        <dc:format>image/svg+xml</dc:format>
        <dc:type
           rdf:resource="http://purl.org/dc/dcmitype/StillImage" />
        <dc:title></dc:title>
      </cc:Work>
    </rdf:RDF>
  </metadata>
  <g
     inkscape:label="Layer 1"
     inkscape:groupmode="layer"
     id="layer1"
     transform="translate(-31.020403,7.9248605)" />
  <g
     id="g878"
     inkscape:label="Resistor"
     transform="rotate(90,107.39196,26.837641)"
     inkscape:export-xdpi="600"
     inkscape:export-ydpi="600">
    <g
       id="g853">
      <path
         id="path851"
         inkscape:label="none"
         style="fill:none;stroke:#000000;stroke-width:1;stroke-linecap:round;stroke-linejoin:round;stroke-dasharray:none"
         d="m 100,70 h 15.5 l 2,3 3,-6 3,6 3,-6 3,6 3,-6 2,3 H 150"
         inkscape:connector-curvature="0" />
    </g>
    <g
       transform="matrix(0,-0.739645,-0.739645,0,475.68951,296.04621)"
       ns0:preamble="C:\\Users\\Marcelo\\AppData\\Roaming\\inkscape\\extensions/textextLib/CircuitSymbolsLatexPreamble.tex"
       ns0:text=" $R=55K-222K$"
       word-spacing="normal"
       letter-spacing="normal"
       font-size-adjust="none"
       font-stretch="normal"
       font-weight="normal"
       font-variant="normal"
       font-style="normal"
       stroke-miterlimit="10.433"
       xml:space="preserve"
       id="content"
       style="font-style:normal;font-variant:normal;font-weight:normal;font-stretch:normal;letter-spacing:normal;word-spacing:normal;text-anchor:start;fill:none;fill-opacity:1;fill-rule:evenodd;stroke:#000000;stroke-linecap:butt;stroke-linejoin:miter;stroke-miterlimit:10.43299961;stroke-dasharray:none;stroke-dashoffset:0;stroke-opacity:1">
<path
   id="path855"
   style="fill:#000000;stroke-width:0"
   d="m 228.61,480.61 0.09,0.02 0.1,0.03 0.09,0.03 0.1,0.03 0.1,0.03 0.09,0.03 0.1,0.04 0.1,0.04 0.09,0.05 0.09,0.04 0.09,0.05 0.09,0.05 0.09,0.05 0.09,0.06 0.08,0.06 0.08,0.06 0.08,0.06 0.07,0.06 0.08,0.07 0.06,0.07 0.07,0.07 0.06,0.07 0.05,0.08 0.05,0.08 0.05,0.08 0.03,0.08 0.04,0.08 0.03,0.09 0.02,0.09 0.02,0.09 0.01,0.09 v 0.09 c 0,0.85 -0.9,1.49 -2.2,1.49 h -2.84 c -0.2,0 -0.29,0 -0.29,-0.2 0,-0.11 0.09,-0.11 0.28,-0.11 0.01,0 0.21,0 0.38,-0.02 0.17,-0.02 0.26,-0.03 0.26,-0.16 0,-0.04 -0.01,-0.07 -0.04,-0.19 l -1.33,-5.33 c -0.1,-0.39 -0.12,-0.47 -0.91,-0.47 -0.18,0 -0.27,0 -0.27,-0.2 0,-0.11 0.12,-0.11 0.14,-0.11 0.28,0 0.98,0.04 1.26,0.04 0.28,0 0.98,-0.04 1.26,-0.04 0.08,0 0.2,0 0.2,0.2 0,0.11 -0.09,0.11 -0.28,0.11 -0.37,0 -0.65,0 -0.65,0.18 0,0.06 0.02,0.11 0.03,0.17 l 0.66,2.63 h 1.19 l -0.01,0.22 h -1.12 l 0.65,2.59 c 0.06,0.24 0.09,0.34 0.28,0.37 0.09,0.01 0.41,0.01 0.61,0.01 0.71,0 1.81,0 1.81,-0.98 0,-0.34 -0.16,-1.03 -0.55,-1.41 -0.25,-0.26 -0.78,-0.58 -1.68,-0.58 l 0.01,-0.22 c 0.91,0 1.09,-0.55 1.09,-0.9 0,-0.15 -0.08,-0.46 -0.14,-0.69 -0.07,-0.27 -0.16,-0.64 -0.16,-0.84 0,-1.07 1.19,-1.07 1.32,-1.07 0.85,0 1.2,1 1.2,1.14 0,0.12 -0.11,0.12 -0.12,0.12 -0.09,0 -0.11,-0.07 -0.13,-0.14 -0.25,-0.74 -0.68,-0.91 -0.91,-0.91 -0.32,0 -0.4,0.22 -0.4,0.61 0,0.31 0.06,0.82 0.11,1.13 0.01,0.14 0.03,0.33 0.03,0.47 0,0.76 -0.66,1.07 -0.93,1.17 z"
   inkscape:connector-curvature="0" />
<path
   id="path857"
   style="fill:#000000;stroke-width:0"
   d="m 240.69,480.48 h 0.03 0.03 0.03 l 0.01,0.01 h 0.02 0.01 0.02 0.01 0.01 l 0.02,0.01 h 0.01 0.01 l 0.02,0.01 h 0.01 l 0.01,0.01 h 0.01 l 0.01,0.01 0.01,0.01 0.01,0.01 0.01,0.01 0.01,0.01 v 0 l 0.01,0.01 v 0 0.01 l 0.01,0.01 v 0 0.01 0.01 0 l 0.01,0.01 v 0.01 0.01 0.01 0 0.01 0.01 c 0,0.2 -0.19,0.2 -0.33,0.2 h -5.97 c -0.14,0 -0.33,0 -0.33,-0.2 0,-0.2 0.19,-0.2 0.34,-0.2 z"
   inkscape:connector-curvature="0" />
<path
   id="path859"
   style="fill:#000000;stroke-width:0"
   d="m 240.7,478.56 h 0.02 0.01 0.03 0.02 0.02 0.01 0.02 0.01 0.01 l 0.02,0.01 h 0.01 0.01 l 0.02,0.01 h 0.01 l 0.01,0.01 h 0.01 l 0.01,0.01 h 0.01 l 0.01,0.01 0.01,0.01 0.01,0.01 H 241 v 0.01 0.01 h 0.01 v 0.01 0 l 0.01,0.01 v 0.01 0 0.01 0.01 h 0.01 v 0.01 0.01 0.01 0.01 0.01 0.01 c 0,0.19 -0.19,0.19 -0.34,0.19 h -5.95 c -0.15,0 -0.34,0 -0.34,-0.19 0,-0.2 0.19,-0.2 0.33,-0.2 z"
   inkscape:connector-curvature="0" />
<path
   id="path861"
   style="fill:#000000;stroke-width:0"
   d="m 248.84,479.23 -0.01,0.11 v 0.11 l -0.01,0.11 -0.02,0.1 -0.02,0.11 -0.03,0.1 -0.02,0.1 -0.04,0.1 -0.03,0.1 -0.05,0.09 -0.04,0.09 -0.05,0.09 -0.05,0.09 -0.06,0.08 -0.05,0.08 -0.07,0.07 -0.06,0.08 -0.07,0.06 -0.07,0.07 -0.08,0.06 -0.07,0.06 -0.08,0.05 -0.08,0.05 -0.09,0.04 -0.08,0.04 -0.09,0.04 -0.09,0.03 -0.1,0.02 -0.09,0.02 -0.1,0.02 h -0.1 l -0.1,0.01 c -0.48,0 -0.9,-0.16 -1.26,-0.51 v 1.94 c 0.2,-0.06 0.52,-0.13 0.84,-0.13 1.23,0 1.93,0.9 1.93,1.03 0,0.06 -0.03,0.11 -0.1,0.11 -0.01,0 -0.03,0 -0.08,-0.03 -0.2,-0.09 -0.69,-0.29 -1.36,-0.29 -0.4,0 -0.86,0.07 -1.32,0.28 -0.08,0.03 -0.1,0.03 -0.12,0.03 -0.1,0 -0.1,-0.08 -0.1,-0.24 v -2.94 c 0,-0.18 0,-0.26 0.14,-0.26 0.07,0 0.09,0.03 0.13,0.09 0.11,0.16 0.48,0.7 1.28,0.7 0.52,0 0.77,-0.46 0.85,-0.64 0.16,-0.37 0.18,-0.75 0.18,-1.25 0,-0.35 0,-0.94 -0.24,-1.36 -0.24,-0.39 -0.61,-0.64 -1.07,-0.64 -0.73,0 -1.29,0.52 -1.46,1.11 0.03,-0.01 0.06,-0.02 0.17,-0.02 0.33,0 0.5,0.25 0.5,0.48 0,0.24 -0.17,0.49 -0.5,0.49 -0.14,0 -0.49,-0.07 -0.49,-0.53 0,-0.85 0.69,-1.81 1.8,-1.81 1.16,0 2.18,0.95 2.18,2.21 z"
   inkscape:connector-curvature="0" />
<path
   id="path863"
   style="fill:#000000;stroke-width:0"
   d="m 253.82,479.23 v 0.11 l -0.01,0.11 -0.01,0.11 -0.02,0.1 -0.02,0.11 -0.02,0.1 -0.03,0.1 -0.04,0.1 -0.03,0.1 -0.04,0.09 -0.05,0.09 -0.05,0.09 -0.05,0.09 -0.05,0.08 -0.06,0.08 -0.07,0.07 -0.06,0.08 -0.07,0.06 -0.07,0.07 -0.07,0.06 -0.08,0.06 -0.08,0.05 -0.08,0.05 -0.09,0.04 -0.08,0.04 -0.09,0.04 -0.09,0.03 -0.1,0.02 -0.09,0.02 -0.1,0.02 h -0.1 l -0.1,0.01 c -0.47,0 -0.9,-0.16 -1.26,-0.51 v 1.94 c 0.2,-0.06 0.53,-0.13 0.85,-0.13 1.22,0 1.92,0.9 1.92,1.03 0,0.06 -0.03,0.11 -0.1,0.11 -0.01,0 -0.03,0 -0.08,-0.03 -0.2,-0.09 -0.69,-0.29 -1.36,-0.29 -0.4,0 -0.85,0.07 -1.32,0.28 -0.08,0.03 -0.1,0.03 -0.12,0.03 -0.1,0 -0.1,-0.08 -0.1,-0.24 v -2.94 c 0,-0.18 0,-0.26 0.14,-0.26 0.07,0 0.09,0.03 0.13,0.09 0.11,0.16 0.48,0.7 1.28,0.7 0.52,0 0.77,-0.46 0.85,-0.64 0.16,-0.37 0.18,-0.75 0.18,-1.25 0,-0.35 0,-0.94 -0.24,-1.36 -0.24,-0.39 -0.61,-0.64 -1.07,-0.64 -0.72,0 -1.29,0.52 -1.46,1.11 0.03,-0.01 0.06,-0.02 0.17,-0.02 0.33,0 0.5,0.25 0.5,0.48 0,0.24 -0.17,0.49 -0.5,0.49 -0.14,0 -0.49,-0.07 -0.49,-0.53 0,-0.85 0.69,-1.81 1.8,-1.81 1.16,0 2.18,0.95 2.18,2.21 z"
   inkscape:connector-curvature="0" />
<path
   id="path865"
   style="fill:#000000;stroke-width:0"
   d="m 259.4,481.25 h -0.01 v 0 0.01 0 0.01 0 0 l -0.01,0.01 v 0 0.01 0 0.01 l -0.01,0.01 v 0.01 l -0.01,0.01 v 0 0.01 0 0.01 h -0.01 v 0.01 0 0.01 0 0 0.01 0 0 0.01 c 0,0.01 0.17,0.15 0.29,0.23 l 1.74,1.34 c 0.94,0.68 1.33,0.72 1.63,0.75 0.08,0.01 0.17,0.02 0.17,0.2 0,0.04 -0.03,0.11 -0.1,0.11 -0.22,0 -0.47,-0.03 -0.71,-0.03 -0.36,0 -0.75,0.03 -1.11,0.03 -0.07,0 -0.19,0 -0.19,-0.2 0,-0.07 0.05,-0.1 0.12,-0.11 0.22,-0.02 0.31,-0.07 0.31,-0.21 0,-0.18 -0.3,-0.4 -0.36,-0.45 l -3.89,-2.98 0.8,3.19 c 0.09,0.35 0.11,0.45 0.84,0.45 0.25,0 0.34,0 0.34,0.2 0,0.09 -0.08,0.11 -0.14,0.11 -0.28,0 -1,-0.03 -1.28,-0.03 -0.29,0 -1,0.03 -1.29,0.03 -0.07,0 -0.2,0 -0.2,-0.19 0,-0.12 0.09,-0.12 0.29,-0.12 0.13,0 0.31,-0.01 0.43,-0.02 0.16,-0.02 0.22,-0.05 0.22,-0.16 0,-0.04 -0.01,-0.07 -0.04,-0.19 l -1.33,-5.33 c -0.1,-0.39 -0.12,-0.47 -0.91,-0.47 -0.17,0 -0.28,0 -0.28,-0.19 0,-0.12 0.12,-0.12 0.15,-0.12 0.28,0 0.99,0.04 1.26,0.04 0.21,0 0.43,-0.01 0.64,-0.01 0.22,0 0.44,-0.03 0.65,-0.03 0.07,0 0.2,0 0.2,0.2 0,0.11 -0.09,0.11 -0.28,0.11 -0.37,0 -0.65,0 -0.65,0.18 0,0.07 0.06,0.29 0.09,0.44 0.14,0.51 0.27,1.04 0.4,1.56 l 1.49,1.15 1.15,-2.67 c 0.12,-0.27 0.12,-0.29 0.12,-0.35 0,-0.3 -0.43,-0.31 -0.51,-0.31 -0.11,0 -0.22,0 -0.22,-0.2 0,-0.11 0.12,-0.11 0.14,-0.11 0.4,0 0.81,0.04 1.21,0.04 0.22,0 0.76,-0.04 0.98,-0.04 0.05,0 0.18,0 0.18,0.2 0,0.11 -0.11,0.11 -0.2,0.11 -0.41,0.01 -0.54,0.1 -0.69,0.45 z"
   inkscape:connector-curvature="0" />
<path
   id="path867"
   style="fill:#000000;stroke-width:0"
   d="m 272.28,479.52 h 0.03 0.03 0.03 0.02 0.01 0.02 l 0.01,0.01 h 0.02 0.01 0.02 l 0.01,0.01 h 0.01 0.02 l 0.01,0.01 0.01,0.01 h 0.01 l 0.01,0.01 0.01,0.01 h 0.01 l 0.01,0.01 0.01,0.01 v 0.01 0 l 0.01,0.01 v 0.01 0 l 0.01,0.01 v 0.01 0 0.01 0.01 0.01 h 0.01 v 0.01 0.01 0.01 0.01 c 0,0.2 -0.18,0.2 -0.35,0.2 h -5.4 c -0.17,0 -0.34,0 -0.34,-0.2 0,-0.2 0.17,-0.2 0.34,-0.2 z"
   inkscape:connector-curvature="0" />
<path
   id="path869"
   style="fill:#000000;stroke-width:0"
   d="m 276.94,478 1.05,1.02 c 1.56,1.37 2.16,1.91 2.16,2.9 0,1.14 -0.9,1.93 -2.12,1.93 -1.12,0 -1.86,-0.91 -1.86,-1.8 0,-0.55 0.5,-0.55 0.53,-0.55 0.17,0 0.52,0.12 0.52,0.52 0,0.26 -0.18,0.52 -0.53,0.52 -0.08,0 -0.1,0 -0.13,-0.01 0.23,0.64 0.77,1.01 1.34,1.01 0.91,0 1.34,-0.8 1.34,-1.62 0,-0.79 -0.5,-1.58 -1.05,-2.19 l -1.91,-2.13 c -0.11,-0.11 -0.11,-0.13 -0.11,-0.37 h 3.7 l 0.28,1.73 h -0.25 c -0.05,-0.29 -0.12,-0.73 -0.22,-0.88 C 279.61,478 278.95,478 278.73,478 Z"
   inkscape:connector-curvature="0" />
<path
   id="path871"
   style="fill:#000000;stroke-width:0"
   d="m 281.92,478 1.06,1.02 c 1.55,1.37 2.15,1.91 2.15,2.9 0,1.14 -0.9,1.93 -2.11,1.93 -1.13,0 -1.87,-0.91 -1.87,-1.8 0,-0.55 0.5,-0.55 0.53,-0.55 0.17,0 0.52,0.12 0.52,0.52 0,0.26 -0.18,0.52 -0.53,0.52 -0.08,0 -0.1,0 -0.13,-0.01 0.23,0.64 0.77,1.01 1.35,1.01 0.9,0 1.33,-0.8 1.33,-1.62 0,-0.79 -0.5,-1.58 -1.05,-2.19 l -1.91,-2.13 c -0.11,-0.11 -0.11,-0.13 -0.11,-0.37 h 3.7 l 0.28,1.73 h -0.25 c -0.05,-0.29 -0.12,-0.73 -0.22,-0.88 C 284.59,478 283.93,478 283.71,478 Z"
   inkscape:connector-curvature="0" />
<path
   id="path873"
   style="fill:#000000;stroke-width:0"
   d="m 286.9,478 1.06,1.02 c 1.55,1.37 2.15,1.91 2.15,2.9 0,1.14 -0.9,1.93 -2.11,1.93 -1.13,0 -1.87,-0.91 -1.87,-1.8 0,-0.55 0.5,-0.55 0.53,-0.55 0.17,0 0.52,0.12 0.52,0.52 0,0.26 -0.18,0.52 -0.53,0.52 -0.08,0 -0.1,0 -0.13,-0.01 0.23,0.64 0.77,1.01 1.35,1.01 0.9,0 1.33,-0.8 1.33,-1.62 0,-0.79 -0.5,-1.58 -1.04,-2.19 l -1.92,-2.13 c -0.11,-0.11 -0.11,-0.13 -0.11,-0.37 h 3.7 l 0.28,1.73 h -0.25 c -0.05,-0.29 -0.12,-0.73 -0.22,-0.88 C 289.57,478 288.91,478 288.69,478 Z"
   inkscape:connector-curvature="0" />
<path
   id="path875"
   style="fill:#000000;stroke-width:0"
   d="m 295.69,481.25 v 0 0 0.01 h -0.01 v 0.01 0 0 0.01 0 l -0.01,0.01 v 0 0.01 0.01 l -0.01,0.01 v 0.01 0 l -0.01,0.01 v 0 0.01 0 0.01 0 l -0.01,0.01 v 0 0 0.01 0 0 0.01 c 0,0.01 0.18,0.15 0.29,0.23 l 1.74,1.34 c 0.94,0.68 1.33,0.72 1.63,0.75 0.08,0.01 0.18,0.02 0.18,0.2 0,0.04 -0.03,0.11 -0.11,0.11 -0.22,0 -0.47,-0.03 -0.71,-0.03 -0.36,0 -0.75,0.03 -1.11,0.03 -0.07,0 -0.19,0 -0.19,-0.2 0,-0.07 0.06,-0.1 0.12,-0.11 0.22,-0.02 0.31,-0.07 0.31,-0.21 0,-0.18 -0.3,-0.4 -0.36,-0.45 l -3.88,-2.98 0.79,3.19 c 0.09,0.35 0.11,0.45 0.84,0.45 0.25,0 0.34,0 0.34,0.2 0,0.09 -0.08,0.11 -0.14,0.11 -0.28,0 -1,-0.03 -1.28,-0.03 -0.28,0 -0.99,0.03 -1.28,0.03 -0.07,0 -0.2,0 -0.2,-0.19 0,-0.12 0.09,-0.12 0.29,-0.12 0.13,0 0.31,-0.01 0.43,-0.02 0.16,-0.02 0.22,-0.05 0.22,-0.16 0,-0.04 -0.01,-0.07 -0.04,-0.19 l -1.34,-5.33 c -0.1,-0.39 -0.12,-0.47 -0.91,-0.47 -0.17,0 -0.28,0 -0.28,-0.19 0,-0.12 0.12,-0.12 0.15,-0.12 0.28,0 0.99,0.04 1.27,0.04 0.21,0 0.43,-0.01 0.64,-0.01 0.22,0 0.44,-0.03 0.65,-0.03 0.07,0 0.19,0 0.19,0.2 0,0.11 -0.09,0.11 -0.27,0.11 -0.37,0 -0.65,0 -0.65,0.18 0,0.07 0.06,0.29 0.09,0.44 0.14,0.51 0.27,1.04 0.4,1.56 l 1.48,1.15 1.16,-2.67 c 0.12,-0.27 0.12,-0.29 0.12,-0.35 0,-0.3 -0.43,-0.31 -0.52,-0.31 -0.11,0 -0.22,0 -0.22,-0.2 0,-0.11 0.12,-0.11 0.14,-0.11 0.4,0 0.82,0.04 1.22,0.04 0.22,0 0.76,-0.04 0.97,-0.04 0.05,0 0.18,0 0.18,0.2 0,0.11 -0.11,0.11 -0.2,0.11 -0.4,0.01 -0.53,0.1 -0.68,0.45 z"
   inkscape:connector-curvature="0" />
</g>    <path
       style="fill:none;stroke:#000000;stroke-width:1;stroke-linecap:butt;stroke-linejoin:miter;stroke-miterlimit:4;stroke-dasharray:none;stroke-opacity:1"
       d="M 150,70.000001 V 34.281252"
       id="path1383"
       inkscape:connector-curvature="0" />
    <path
       style="fill:none;stroke:#000000;stroke-width:1;stroke-linecap:butt;stroke-linejoin:miter;stroke-miterlimit:4;stroke-dasharray:3, 3;stroke-dashoffset:0;stroke-opacity:1"
       d="M 81.208342,54.124999 H 168.52084"
       id="path987"
       inkscape:connector-curvature="0" />
  </g>
  <path
     style="fill:none;stroke:#000000;stroke-width:1;stroke-linecap:butt;stroke-linejoin:miter;stroke-miterlimit:4;stroke-dasharray:none;stroke-opacity:1;marker-start:url(#DotS)"
     d="M 64.229596,69.445683 H 45.708763 V 54.893602 L 23.21918,68.122768 45.708764,81.351935 v -11.90625"
     id="path1242"
     inkscape:connector-curvature="0"
     inkscape:export-xdpi="600"
     inkscape:export-ydpi="600" />
  <path
     style="fill:none;stroke:#000000;stroke-width:1;stroke-linecap:butt;stroke-linejoin:miter;stroke-miterlimit:4;stroke-dasharray:none;stroke-opacity:1"
     d="M 23.21918,68.122767 H 12.635846"
     id="path1256"
     inkscape:connector-curvature="0"
     inkscape:export-xdpi="600"
     inkscape:export-ydpi="600" />
  <g
     id="g1305"
     inkscape:label="GND"
     transform="translate(-0.05503118,29.524341)"
     inkscape:export-xdpi="600"
     inkscape:export-ydpi="600">
    <g
       id="g1289"
       inkscape:label="GND">
      <circle
         id="path1287"
         inkscape:label="circle"
         style="fill:#000000;stroke:#000000;stroke-width:0.69999999;stroke-linecap:round;stroke-linejoin:round;stroke-dasharray:none"
         cx="100"
         cy="40"
         r="1" />
    </g>
    <g
       transform="matrix(0.739645,0,0,-0.739645,-79.467463,389.49213)"
       ns0:preamble="C:\\Users\\Marcelo\\AppData\\Roaming\\inkscape\\extensions/textextLib/CircuitSymbolsLatexPreamble.tex"
       ns0:text=" $\\textrm{uC-OUT}$"
       word-spacing="normal"
       letter-spacing="normal"
       font-size-adjust="none"
       font-stretch="normal"
       font-weight="normal"
       font-variant="normal"
       font-style="normal"
       stroke-miterlimit="10.433"
       xml:space="preserve"
       id="g1303"
       style="font-style:normal;font-variant:normal;font-weight:normal;font-stretch:normal;letter-spacing:normal;word-spacing:normal;text-anchor:start;fill:none;fill-opacity:1;fill-rule:evenodd;stroke:#000000;stroke-linecap:butt;stroke-linejoin:miter;stroke-miterlimit:10.43299961;stroke-dasharray:none;stroke-dashoffset:0;stroke-opacity:1">
<path
   id="path1291"
   style="fill:#000000;stroke-width:0"
   d="m 227.33,478.02 v -0.89 l 1.44,0.1 v 0.31 c -0.7,0 -0.78,0.07 -0.78,0.56 v 3.53 l -1.47,-0.11 v -0.31 c 0.7,0 0.78,-0.07 0.78,-0.56 v -1.77 c 0,-0.86 -0.48,-1.54 -1.2,-1.54 -0.84,0 -0.88,0.47 -0.88,0.99 v 3.3 l -1.47,-0.11 v -0.31 c 0.78,0 0.78,-0.03 0.78,-0.91 v -1.5 c 0,-0.77 0,-1.67 1.51,-1.67 0.56,0 1,0.27 1.29,0.89 z"
   inkscape:connector-curvature="0" />
<path
   id="path1293"
   style="fill:#000000;stroke-width:0"
   d="m 229.53,480.63 v -0.19 l 0.01,-0.19 0.03,-0.18 0.03,-0.18 0.04,-0.18 0.05,-0.18 0.05,-0.16 0.07,-0.17 0.07,-0.16 0.08,-0.16 0.08,-0.15 0.09,-0.15 0.1,-0.14 0.11,-0.13 0.11,-0.13 0.12,-0.13 0.12,-0.12 0.12,-0.11 0.14,-0.1 0.13,-0.1 0.14,-0.09 0.15,-0.09 0.15,-0.08 0.15,-0.07 0.16,-0.06 0.16,-0.06 0.16,-0.04 0.16,-0.04 0.17,-0.03 0.17,-0.03 0.17,-0.01 H 233 c 1.62,0 2.6,1.38 2.6,2.53 0,0.1 0,0.17 -0.13,0.17 -0.11,0 -0.11,-0.06 -0.12,-0.16 -0.08,-1.42 -1.15,-2.24 -2.23,-2.24 -0.61,0 -2.57,0.34 -2.57,3.3 0,2.97 1.95,3.31 2.56,3.31 1.08,0 1.97,-0.9 2.17,-2.35 0.02,-0.14 0.02,-0.17 0.16,-0.17 0.16,0 0.16,0.03 0.16,0.24 V 484 c 0,0.17 0,0.24 -0.11,0.24 -0.04,0 -0.08,0 -0.16,-0.12 l -0.5,-0.74 c -0.37,0.36 -0.88,0.86 -1.83,0.86 -1.87,0 -3.47,-1.58 -3.47,-3.61 z"
   inkscape:connector-curvature="0" />
<polygon
   id="polygon1295"
   style="fill:#000000;stroke-width:0"
   points="236.27,479.67 236.27,479.09 238.91,479.09 238.91,479.67 " />
<path
   id="path1297"
   style="fill:#000000;stroke-width:0"
   d="m 246.67,480.6 v 0.19 l -0.01,0.19 -0.03,0.18 -0.03,0.18 -0.03,0.18 -0.05,0.17 -0.05,0.17 -0.06,0.17 -0.07,0.16 -0.07,0.15 -0.08,0.16 -0.09,0.14 -0.09,0.15 -0.1,0.13 -0.11,0.13 -0.11,0.13 -0.11,0.12 -0.12,0.11 -0.13,0.11 -0.13,0.1 -0.13,0.1 -0.14,0.08 -0.15,0.08 -0.14,0.07 -0.15,0.07 -0.16,0.06 -0.15,0.04 -0.16,0.04 -0.17,0.04 -0.16,0.02 -0.17,0.01 -0.17,0.01 v -0.25 c 0.87,0 2.3,-0.7 2.3,-3.25 0,-2.63 -1.37,-3.47 -2.29,-3.47 v 0 c -0.96,0 -2.29,0.88 -2.29,3.47 0,2.58 1.45,3.25 2.28,3.25 v 0.25 c -1.78,0 -3.31,-1.59 -3.31,-3.64 0,-2.03 1.54,-3.58 3.31,-3.58 1.82,0 3.32,1.58 3.32,3.58 z"
   inkscape:connector-curvature="0" />
<path
   id="path1299"
   style="fill:#000000;stroke-width:0"
   d="m 253.04,479.53 -0.01,-0.13 -0.01,-0.13 -0.01,-0.12 -0.02,-0.12 -0.02,-0.12 -0.03,-0.11 -0.03,-0.11 -0.04,-0.1 -0.04,-0.1 -0.05,-0.1 -0.05,-0.09 -0.05,-0.09 -0.06,-0.08 -0.06,-0.08 -0.06,-0.08 -0.07,-0.07 -0.07,-0.07 -0.07,-0.06 -0.07,-0.06 -0.08,-0.06 -0.08,-0.05 -0.08,-0.05 -0.08,-0.04 -0.08,-0.04 -0.08,-0.03 -0.09,-0.03 -0.09,-0.03 -0.08,-0.02 -0.09,-0.02 -0.09,-0.01 h -0.09 l -0.09,-0.01 c -0.47,0 -1.64,0.25 -1.64,2.14 v 3.78 c 0,0.36 0.01,0.47 0.78,0.47 h 0.24 v 0.31 c -0.35,-0.03 -1.09,-0.03 -1.46,-0.03 -0.38,0 -1.13,0 -1.48,0.03 v -0.31 h 0.24 c 0.77,0 0.79,-0.11 0.79,-0.47 v -3.74 c 0,-1.4 1.15,-2.48 2.51,-2.48 1.15,0 2.05,0.92 2.22,2.05 0.02,0.2 0.02,0.29 0.02,0.69 v 3.18 c 0,0.33 0,0.77 1.03,0.77 v 0.31 c -0.36,-0.01 -0.84,-0.03 -1.17,-0.03 -0.35,0 -0.83,0.02 -1.19,0.03 v -0.31 c 1.03,0 1.03,-0.47 1.03,-0.73 z"
   inkscape:connector-curvature="0" />
<path
   id="path1301"
   style="fill:#000000;stroke-width:0"
   d="m 261.35,483.96 h -6.1 l -0.19,-2.23 h 0.25 c 0.14,1.59 0.29,1.92 1.8,1.92 0.18,0 0.44,0 0.53,-0.02 0.22,-0.04 0.22,-0.15 0.22,-0.37 v -5.24 c 0,-0.34 0,-0.48 -1.05,-0.48 h -0.4 v -0.31 c 0.41,0.04 1.42,0.04 1.88,0.04 0.46,0 1.49,0 1.9,-0.04 v 0.31 h -0.4 c -1.05,0 -1.05,0.14 -1.05,0.48 v 5.24 c 0,0.19 0,0.33 0.18,0.37 0.11,0.02 0.38,0.02 0.57,0.02 1.51,0 1.65,-0.33 1.8,-1.92 h 0.24 z"
   inkscape:connector-curvature="0" />
</g>  </g>
  <g
     id="g1370"
     inkscape:label="GND"
     transform="translate(-35.905695,-20.776078)"
     inkscape:export-xdpi="600"
     inkscape:export-ydpi="600">
    <g
       id="g1356"
       inkscape:label="GND">
      <circle
         id="path1354"
         inkscape:label="circle"
         style="fill:#000000;stroke:#000000;stroke-width:0.69999999;stroke-linecap:round;stroke-linejoin:round;stroke-dasharray:none"
         cx="100"
         cy="40"
         r="1" />
    </g>
    <g
       transform="matrix(0.739645,0,0,-0.739645,-74.829889,389.49213)"
       ns0:preamble="C:\\Users\\Marcelo\\AppData\\Roaming\\inkscape\\extensions/textextLib/CircuitSymbolsLatexPreamble.tex"
       ns0:text=" $\\textrm{1.55V}$"
       word-spacing="normal"
       letter-spacing="normal"
       font-size-adjust="none"
       font-stretch="normal"
       font-weight="normal"
       font-variant="normal"
       font-style="normal"
       stroke-miterlimit="10.433"
       xml:space="preserve"
       id="g1368"
       style="font-style:normal;font-variant:normal;font-weight:normal;font-stretch:normal;letter-spacing:normal;word-spacing:normal;text-anchor:start;fill:none;fill-opacity:1;fill-rule:evenodd;stroke:#000000;stroke-linecap:butt;stroke-linejoin:miter;stroke-miterlimit:10.43299961;stroke-dasharray:none;stroke-dashoffset:0;stroke-opacity:1">
<path
   id="path1358"
   style="fill:#000000;stroke-width:0"
   d="m 226.36,483.59 v 0.01 0.01 0.02 0.01 0 0.01 0.01 0.01 0.01 0.01 0.01 0.01 0 0.01 0.01 0 0.01 0.01 0.01 l -0.01,0.01 v 0.01 0.01 l -0.01,0.01 v 0 0.01 l -0.01,0.01 h -0.01 v 0.01 h -0.01 l -0.01,0.01 h -0.01 v 0 h -0.01 v 0 h -0.01 v 0 l -0.01,0.01 h -0.01 v 0 h -0.01 -0.01 v 0 h -0.01 -0.01 -0.01 -0.01 -0.01 -0.01 -0.01 -0.01 -0.01 -0.01 c -0.61,-0.64 -1.49,-0.64 -1.81,-0.64 v -0.3 c 0.2,0 0.79,0 1.31,0.26 v -5.15 c 0,-0.36 -0.03,-0.48 -0.93,-0.48 h -0.32 v -0.31 c 0.35,0.04 1.22,0.04 1.61,0.04 0.4,0 1.27,0 1.62,-0.04 v 0.31 h -0.32 c -0.9,0 -0.93,0.11 -0.93,0.48 z"
   inkscape:connector-curvature="0" />
<path
   id="path1360"
   style="fill:#000000;stroke-width:0"
   d="m 230.33,477.76 v 0.03 0.03 l -0.01,0.02 v 0.03 l -0.01,0.02 -0.01,0.03 v 0.02 l -0.01,0.03 -0.01,0.02 -0.02,0.02 -0.01,0.02 -0.01,0.02 -0.02,0.03 -0.01,0.02 -0.02,0.01 -0.02,0.02 -0.02,0.02 -0.02,0.02 -0.02,0.01 -0.02,0.02 -0.02,0.01 -0.02,0.01 -0.02,0.02 -0.03,0.01 -0.02,0.01 h -0.02 l -0.03,0.01 -0.03,0.01 h -0.02 l -0.03,0.01 h -0.02 -0.03 c -0.29,0 -0.53,-0.24 -0.53,-0.53 0,-0.29 0.24,-0.53 0.53,-0.53 0.29,0 0.53,0.24 0.53,0.53 z"
   inkscape:connector-curvature="0" />
<path
   id="path1362"
   style="fill:#000000;stroke-width:0"
   d="m 235.66,479.23 v 0.11 l -0.01,0.11 -0.01,0.11 -0.02,0.1 -0.02,0.11 -0.02,0.1 -0.03,0.1 -0.04,0.1 -0.03,0.1 -0.04,0.09 -0.05,0.09 -0.05,0.09 -0.05,0.09 -0.05,0.08 -0.06,0.08 -0.07,0.07 -0.06,0.08 -0.07,0.06 -0.07,0.07 -0.07,0.06 -0.08,0.06 -0.08,0.05 -0.08,0.05 -0.09,0.04 -0.08,0.04 -0.09,0.04 -0.09,0.03 -0.1,0.02 -0.09,0.02 -0.1,0.02 h -0.1 l -0.1,0.01 c -0.47,0 -0.9,-0.16 -1.26,-0.51 v 1.94 c 0.2,-0.06 0.53,-0.13 0.85,-0.13 1.22,0 1.92,0.9 1.92,1.03 0,0.06 -0.03,0.11 -0.1,0.11 -0.01,0 -0.03,0 -0.08,-0.03 -0.2,-0.09 -0.69,-0.29 -1.36,-0.29 -0.39,0 -0.85,0.07 -1.32,0.28 -0.08,0.03 -0.1,0.03 -0.12,0.03 -0.1,0 -0.1,-0.08 -0.1,-0.24 v -2.94 c 0,-0.18 0,-0.26 0.14,-0.26 0.07,0 0.09,0.03 0.13,0.09 0.11,0.16 0.48,0.7 1.28,0.7 0.52,0 0.77,-0.46 0.85,-0.64 0.16,-0.37 0.18,-0.75 0.18,-1.25 0,-0.35 0,-0.94 -0.24,-1.36 -0.24,-0.39 -0.61,-0.64 -1.07,-0.64 -0.72,0 -1.29,0.52 -1.46,1.11 0.03,-0.01 0.06,-0.02 0.17,-0.02 0.33,0 0.5,0.25 0.5,0.48 0,0.24 -0.17,0.49 -0.5,0.49 -0.14,0 -0.49,-0.07 -0.49,-0.53 0,-0.85 0.69,-1.81 1.8,-1.81 1.16,0 2.18,0.95 2.18,2.21 z"
   inkscape:connector-curvature="0" />
<path
   id="path1364"
   style="fill:#000000;stroke-width:0"
   d="m 240.64,479.23 v 0.11 l -0.01,0.11 -0.01,0.11 -0.02,0.1 -0.02,0.11 -0.02,0.1 -0.03,0.1 -0.03,0.1 -0.04,0.1 -0.04,0.09 -0.05,0.09 -0.05,0.09 -0.05,0.09 -0.05,0.08 -0.06,0.08 -0.06,0.07 -0.07,0.08 -0.07,0.06 -0.07,0.07 -0.07,0.06 -0.08,0.06 -0.08,0.05 -0.08,0.05 -0.08,0.04 -0.09,0.04 -0.09,0.04 -0.09,0.03 -0.09,0.02 -0.1,0.02 -0.1,0.02 h -0.09 l -0.11,0.01 c -0.47,0 -0.9,-0.16 -1.26,-0.51 v 1.94 c 0.2,-0.06 0.53,-0.13 0.85,-0.13 1.22,0 1.92,0.9 1.92,1.03 0,0.06 -0.03,0.11 -0.1,0.11 -0.01,0 -0.03,0 -0.08,-0.03 -0.2,-0.09 -0.69,-0.29 -1.36,-0.29 -0.39,0 -0.85,0.07 -1.32,0.28 -0.08,0.03 -0.1,0.03 -0.12,0.03 -0.1,0 -0.1,-0.08 -0.1,-0.24 v -2.94 c 0,-0.18 0,-0.26 0.14,-0.26 0.07,0 0.09,0.03 0.13,0.09 0.11,0.16 0.48,0.7 1.29,0.7 0.51,0 0.76,-0.46 0.84,-0.64 0.16,-0.37 0.18,-0.75 0.18,-1.25 0,-0.35 0,-0.94 -0.24,-1.36 -0.24,-0.39 -0.61,-0.64 -1.06,-0.64 -0.73,0 -1.3,0.52 -1.47,1.11 0.03,-0.01 0.06,-0.02 0.17,-0.02 0.33,0 0.5,0.25 0.5,0.48 0,0.24 -0.17,0.49 -0.5,0.49 -0.14,0 -0.49,-0.07 -0.49,-0.53 0,-0.85 0.69,-1.81 1.81,-1.81 1.15,0 2.17,0.95 2.17,2.21 z"
   inkscape:connector-curvature="0" />
<path
   id="path1366"
   style="fill:#000000;stroke-width:0"
   d="m 247.34,483.05 0.01,0.03 0.01,0.03 0.02,0.04 0.02,0.03 0.01,0.03 0.02,0.03 0.02,0.03 0.02,0.03 0.02,0.03 0.02,0.03 0.03,0.03 0.02,0.03 0.03,0.02 0.03,0.03 0.03,0.02 0.03,0.02 0.03,0.03 0.03,0.02 0.04,0.02 0.04,0.01 0.04,0.02 0.04,0.02 0.04,0.01 0.05,0.02 0.04,0.01 0.05,0.01 0.05,0.01 0.06,0.01 h 0.05 l 0.06,0.01 h 0.06 0.06 v 0.31 c -0.31,-0.02 -0.71,-0.03 -0.96,-0.03 -0.3,0 -0.88,0.02 -1.14,0.03 v -0.31 c 0.52,-0.01 0.73,-0.27 0.73,-0.5 0,-0.07 -0.03,-0.13 -0.05,-0.19 l -1.83,-4.79 -1.9,5.01 c -0.06,0.14 -0.06,0.16 -0.06,0.18 0,0.29 0.57,0.29 0.81,0.29 v 0.31 c -0.35,-0.03 -1.04,-0.03 -1.42,-0.03 -0.48,0 -0.91,0.02 -1.27,0.03 v -0.31 c 0.65,0 0.84,0 0.98,-0.38 l 2.31,-6.1 c 0.07,-0.18 0.12,-0.21 0.25,-0.21 0.17,0 0.19,0.05 0.24,0.18 z"
   inkscape:connector-curvature="0" />
</g>  </g>
  <g
     id="g973"
     inkscape:label="GND"
     transform="translate(-7.2818032,18.107238)"
     inkscape:export-xdpi="600"
     inkscape:export-ydpi="600">
    <g
       id="g957"
       inkscape:label="GND">
      <circle
         id="path955"
         inkscape:label="circle"
         style="fill:#000000;stroke:#000000;stroke-width:0.69999999;stroke-linecap:round;stroke-linejoin:round;stroke-dasharray:none"
         cx="20"
         cy="50"
         r="1" />
    </g>
    <g
       transform="matrix(0.739645,0,0,-0.739645,-158.39128,399.49213)"
       ns0:preamble="C:\\Users\\Marcelo\\AppData\\Roaming\\inkscape\\extensions/textextLib/CircuitSymbolsLatexPreamble.tex"
       ns0:text=" $\\textrm{CAL-IN}$"
       word-spacing="normal"
       letter-spacing="normal"
       font-size-adjust="none"
       font-stretch="normal"
       font-weight="normal"
       font-variant="normal"
       font-style="normal"
       stroke-miterlimit="10.433"
       xml:space="preserve"
       id="g971"
       style="font-style:normal;font-variant:normal;font-weight:normal;font-stretch:normal;letter-spacing:normal;word-spacing:normal;text-anchor:start;fill:none;fill-opacity:1;fill-rule:evenodd;stroke:#000000;stroke-linecap:butt;stroke-linejoin:miter;stroke-miterlimit:10.43299961;stroke-dasharray:none;stroke-dashoffset:0;stroke-opacity:1">
<path
   id="path959"
   style="fill:#000000;stroke-width:0"
   d="m 223.99,480.63 v -0.19 l 0.02,-0.19 0.02,-0.18 0.03,-0.18 0.04,-0.18 0.05,-0.18 0.06,-0.16 0.06,-0.17 0.07,-0.16 0.08,-0.16 0.09,-0.15 0.09,-0.15 0.1,-0.14 0.1,-0.13 0.11,-0.13 0.12,-0.13 0.12,-0.12 0.13,-0.11 0.13,-0.1 0.14,-0.1 0.14,-0.09 0.14,-0.09 0.15,-0.08 0.16,-0.07 0.15,-0.06 0.16,-0.06 0.16,-0.04 0.17,-0.04 0.17,-0.03 0.17,-0.03 0.17,-0.01 h 0.17 c 1.63,0 2.6,1.38 2.6,2.53 0,0.1 0,0.17 -0.13,0.17 -0.11,0 -0.11,-0.06 -0.12,-0.16 -0.08,-1.42 -1.14,-2.24 -2.23,-2.24 -0.61,0 -2.56,0.34 -2.56,3.3 0,2.97 1.94,3.31 2.55,3.31 1.09,0 1.97,-0.9 2.17,-2.35 0.02,-0.14 0.02,-0.17 0.16,-0.17 0.16,0 0.16,0.03 0.16,0.24 V 484 c 0,0.17 0,0.24 -0.11,0.24 -0.04,0 -0.08,0 -0.16,-0.12 l -0.49,-0.74 c -0.37,0.36 -0.88,0.86 -1.84,0.86 -1.86,0 -3.47,-1.58 -3.47,-3.61 z"
   inkscape:connector-curvature="0" />
<path
   id="path961"
   style="fill:#000000;stroke-width:0"
   d="m 234.6,484.15 -0.01,0.01 v 0.01 l -0.01,0.01 v 0.01 l -0.01,0.02 v 0.01 0.01 h -0.01 v 0.01 l -0.01,0.01 v 0.01 l -0.01,0.01 v 0.01 h -0.01 v 0.01 l -0.01,0.01 v 0 l -0.01,0.01 h -0.01 v 0.01 h -0.01 l -0.01,0.01 h -0.01 l -0.01,0.01 h -0.01 -0.01 -0.01 -0.01 l -0.01,0.01 h -0.01 -0.02 -0.01 v 0 c -0.16,0 -0.19,-0.06 -0.24,-0.2 l -2.07,-5.94 c -0.18,-0.51 -0.57,-0.66 -1.11,-0.67 v -0.31 c 0.23,0.01 0.65,0.04 1.01,0.04 0.31,0 0.83,-0.03 1.15,-0.04 v 0.31 c -0.5,0 -0.75,0.25 -0.75,0.51 0,0.03 0.01,0.13 0.02,0.15 l 0.46,1.3 0.11,0.31 1.12,3.23 1.12,-3.23 h -2.24 l -0.11,-0.31 h 2.46 l 0.53,-1.52 c 0.01,-0.04 0.03,-0.1 0.03,-0.14 0,-0.3 -0.56,-0.3 -0.82,-0.3 v -0.31 c 0.35,0.04 1.05,0.04 1.43,0.04 0.43,0 0.89,-0.01 1.31,-0.04 v 0.31 h -0.18 c -0.6,0 -0.74,0.07 -0.85,0.4 z"
   inkscape:connector-curvature="0" />
<path
   id="path963"
   style="fill:#000000;stroke-width:0"
   d="m 243.9,479.8 h -0.25 c -0.11,-1.01 -0.25,-2.26 -2,-2.26 h -0.82 c -0.47,0 -0.49,0.07 -0.49,0.4 v 5.29 c 0,0.34 0,0.48 0.95,0.48 h 0.33 v 0.31 c -0.36,-0.03 -1.27,-0.03 -1.68,-0.03 -0.39,0 -1.16,0 -1.51,0.03 v -0.31 h 0.24 c 0.76,0 0.79,-0.11 0.79,-0.47 v -5.23 c 0,-0.36 -0.03,-0.47 -0.79,-0.47 h -0.24 v -0.31 h 5.19 z"
   inkscape:connector-curvature="0" />
<polygon
   id="polygon965"
   style="fill:#000000;stroke-width:0"
   points="244.43,479.09 247.08,479.09 247.08,479.67 244.43,479.67 " />
<path
   id="path967"
   style="fill:#000000;stroke-width:0"
   d="m 249.89,483.24 v 0.04 0.03 0.03 0.03 0.03 l 0.01,0.02 v 0.03 l 0.01,0.02 v 0.02 l 0.01,0.02 0.01,0.02 0.01,0.02 0.01,0.02 0.02,0.01 0.01,0.02 0.02,0.01 0.02,0.02 0.03,0.01 h 0.01 l 0.01,0.01 h 0.02 l 0.01,0.01 h 0.02 l 0.01,0.01 h 0.02 l 0.02,0.01 h 0.02 0.02 l 0.02,0.01 h 0.02 0.02 0.02 l 0.03,0.01 h 0.02 0.02 0.03 l 0.03,0.01 h 0.03 0.02 0.04 0.03 0.03 0.03 0.04 0.03 0.04 0.26 v 0.31 c -0.35,-0.03 -1.14,-0.03 -1.52,-0.03 -0.39,0 -1.18,0 -1.52,0.03 v -0.31 h 0.25 c 0.79,0 0.82,-0.11 0.82,-0.47 v -5.23 c 0,-0.36 -0.03,-0.47 -0.82,-0.47 h -0.25 v -0.31 c 0.34,0.04 1.13,0.04 1.51,0.04 0.39,0 1.18,0 1.53,-0.04 v 0.31 h -0.26 c -0.79,0 -0.82,0.11 -0.82,0.47 z"
   inkscape:connector-curvature="0" />
<path
   id="path969"
   style="fill:#000000;stroke-width:0"
   d="m 253.56,483.89 -0.01,0.01 -0.01,0.01 -0.01,0.01 v 0.01 l -0.01,0.01 -0.01,0.01 v 0 l -0.01,0.01 -0.01,0.01 v 0 l -0.01,0.01 v 0 l -0.01,0.01 h -0.01 V 484 h -0.01 -0.01 l -0.01,0.01 v 0 h -0.01 -0.01 -0.01 l -0.01,0.01 h -0.01 -0.01 -0.01 -0.02 -0.01 -0.01 -0.01 -0.01 -0.01 v 0 h -0.01 -0.01 -1.7 v -0.31 h 0.29 c 0.15,0 0.35,-0.01 0.5,-0.02 0.23,-0.03 0.24,-0.04 0.24,-0.23 v -5.18 c 0,-0.27 0,-0.74 -1.03,-0.74 v -0.31 c 0.35,0.01 0.84,0.04 1.17,0.04 0.33,0 0.82,-0.03 1.17,-0.04 v 0.31 c -1.03,0 -1.03,0.47 -1.03,0.74 v 5.16 c 0.05,-0.05 0.06,-0.06 0.1,-0.12 l 4.07,-5.96 c 0.09,-0.12 0.1,-0.13 0.17,-0.13 0.14,0 0.14,0.07 0.14,0.26 v 5.49 c 0,0.26 0,0.73 1.02,0.73 v 0.31 c -0.34,-0.01 -0.83,-0.03 -1.16,-0.03 -0.33,0 -0.82,0.02 -1.17,0.03 v -0.31 c 1.03,0 1.03,-0.47 1.03,-0.73 v -4.25 z"
   inkscape:connector-curvature="0" />
</g>  </g>
  <g
     id="g1068"
     inkscape:label="GND"
     transform="translate(24.258626,-1.3264348)"
     inkscape:export-xdpi="600"
     inkscape:export-ydpi="600">
    <g
       transform="matrix(0.739645,0,0,-0.739645,-137.03773,359.49213)"
       ns0:preamble="C:\\Users\\Marcelo\\AppData\\Roaming\\inkscape\\extensions/textextLib/CircuitSymbolsLatexPreamble.tex"
       ns0:text=" $\\textrm{Calibre}$"
       word-spacing="normal"
       letter-spacing="normal"
       font-size-adjust="none"
       font-stretch="normal"
       font-weight="normal"
       font-variant="normal"
       font-style="normal"
       stroke-miterlimit="10.433"
       xml:space="preserve"
       id="g1066"
       style="font-style:normal;font-variant:normal;font-weight:normal;font-stretch:normal;letter-spacing:normal;word-spacing:normal;text-anchor:start;fill:none;fill-opacity:1;fill-rule:evenodd;stroke:#000000;stroke-linecap:butt;stroke-linejoin:miter;stroke-miterlimit:10.43299961;stroke-dasharray:none;stroke-dashoffset:0;stroke-opacity:1">
<path
   id="path1050"
   style="fill:#000000;stroke-width:0"
   d="m 223.99,480.63 v -0.19 l 0.02,-0.19 0.02,-0.18 0.03,-0.18 0.04,-0.18 0.05,-0.18 0.06,-0.16 0.06,-0.17 0.07,-0.16 0.08,-0.16 0.09,-0.15 0.09,-0.15 0.1,-0.14 0.1,-0.13 0.11,-0.13 0.12,-0.13 0.12,-0.12 0.13,-0.11 0.13,-0.1 0.14,-0.1 0.14,-0.09 0.14,-0.09 0.15,-0.08 0.16,-0.07 0.15,-0.06 0.16,-0.06 0.16,-0.04 0.17,-0.04 0.17,-0.03 0.17,-0.03 0.17,-0.01 h 0.17 c 1.63,0 2.6,1.38 2.6,2.53 0,0.1 0,0.17 -0.13,0.17 -0.11,0 -0.11,-0.06 -0.12,-0.16 -0.08,-1.42 -1.14,-2.24 -2.23,-2.24 -0.61,0 -2.56,0.34 -2.56,3.3 0,2.97 1.94,3.31 2.55,3.31 1.09,0 1.97,-0.9 2.17,-2.35 0.02,-0.14 0.02,-0.17 0.16,-0.17 0.16,0 0.16,0.03 0.16,0.24 V 484 c 0,0.17 0,0.24 -0.11,0.24 -0.04,0 -0.08,0 -0.16,-0.12 l -0.49,-0.74 c -0.37,0.36 -0.88,0.86 -1.84,0.86 -1.86,0 -3.47,-1.58 -3.47,-3.61 z"
   inkscape:connector-curvature="0" />
<path
   id="path1052"
   style="fill:#000000;stroke-width:0"
   d="m 233.95,477.99 v -0.04 l 0.01,-0.03 0.01,-0.04 v -0.04 l 0.01,-0.04 0.01,-0.03 0.02,-0.04 0.01,-0.03 0.02,-0.04 0.01,-0.03 0.02,-0.04 0.02,-0.03 0.02,-0.03 0.02,-0.04 0.02,-0.03 0.03,-0.03 0.02,-0.02 0.03,-0.03 0.03,-0.03 0.02,-0.02 0.03,-0.02 0.04,-0.03 0.03,-0.02 0.03,-0.01 0.04,-0.02 0.03,-0.01 0.04,-0.02 0.04,-0.01 h 0.04 l 0.04,-0.01 h 0.04 l 0.05,-0.01 c 0.2,0 0.81,0.14 0.81,0.95 v 0.55 h -0.25 v -0.55 c 0,-0.58 -0.25,-0.64 -0.36,-0.64 -0.32,0 -0.36,0.45 -0.36,0.5 v 1.99 c 0,0.41 0,0.8 -0.36,1.17 -0.39,0.39 -0.89,0.54 -1.37,0.54 -0.82,0 -1.5,-0.46 -1.5,-1.12 0,-0.29 0.19,-0.46 0.45,-0.46 0.28,0 0.46,0.2 0.46,0.45 0,0.12 -0.05,0.45 -0.51,0.46 0.27,0.35 0.76,0.46 1.08,0.46 0.49,0 1.06,-0.39 1.06,-1.27 v -0.37 -0.21 -0.99 c 0,-0.95 -0.72,-1.29 -1.17,-1.29 -0.49,0 -0.9,0.35 -0.9,0.85 0,0.54 0.42,1.37 2.07,1.43 v 0 0.21 c -0.51,-0.03 -1.21,-0.06 -1.84,-0.36 -0.75,-0.34 -0.99,-0.85 -0.99,-1.29 0,-0.81 0.96,-1.05 1.59,-1.05 0.66,0 1.12,0.39 1.31,0.86 z"
   inkscape:connector-curvature="0" />
<path
   id="path1054"
   style="fill:#000000;stroke-width:0"
   d="m 237.37,484.13 -1.43,-0.11 v -0.31 c 0.69,0 0.77,-0.07 0.77,-0.55 v -5.17 c 0,-0.45 -0.1,-0.45 -0.77,-0.45 v -0.31 c 0.33,0.01 0.85,0.04 1.1,0.04 0.25,0 0.74,-0.03 1.11,-0.04 v 0.31 c -0.67,0 -0.78,0 -0.78,0.45 z"
   inkscape:connector-curvature="0" />
<path
   id="path1056"
   style="fill:#000000;stroke-width:0"
   d="m 240.14,481.63 -1.4,-0.11 v -0.31 c 0.65,0 0.74,-0.06 0.74,-0.55 v -2.67 c 0,-0.45 -0.11,-0.45 -0.77,-0.45 v -0.31 c 0.31,0.01 0.85,0.04 1.09,0.04 0.35,0 0.7,-0.03 1.04,-0.04 v 0.31 c -0.66,0 -0.7,0.05 -0.7,0.44 z"
   inkscape:connector-curvature="0" />
<path
   id="path1058"
   style="fill:#000000;stroke-width:0"
   d="m 240.18,483.35 v 0.03 0.03 l -0.01,0.03 v 0.03 l -0.01,0.02 v 0.03 l -0.01,0.03 -0.01,0.02 -0.01,0.02 -0.02,0.03 -0.01,0.02 -0.01,0.02 -0.02,0.02 -0.01,0.02 -0.02,0.02 -0.02,0.02 -0.02,0.01 -0.02,0.02 -0.02,0.01 -0.02,0.02 -0.02,0.01 -0.02,0.01 -0.02,0.01 -0.03,0.01 -0.02,0.01 -0.03,0.01 -0.02,0.01 h -0.02 l -0.03,0.01 h -0.03 -0.02 -0.03 c -0.31,0 -0.53,-0.27 -0.53,-0.53 0,-0.26 0.22,-0.52 0.53,-0.52 0.28,0 0.53,0.21 0.53,0.52 z"
   inkscape:connector-curvature="0" />
<path
   id="path1060"
   style="fill:#000000;stroke-width:0"
   d="m 242.86,480.98 v 3.15 l -1.44,-0.11 v -0.31 c 0.7,0 0.78,-0.07 0.78,-0.55 v -5.93 h 0.25 c 0.01,0.01 0.09,0.15 0.36,0.62 0.15,-0.23 0.57,-0.72 1.31,-0.72 l -0.05,0.21 c -0.44,0 -0.8,0.24 -1.04,0.61 -0.14,0.21 -0.14,0.24 -0.14,0.42 v 0 2.04 c 0,0.19 0,0.2 0.11,0.36 0.39,0.56 0.94,0.64 1.18,0.64 0.44,0 0.8,-0.26 1.04,-0.64 0.26,-0.41 0.29,-0.97 0.29,-1.38 0,-0.37 -0.02,-0.96 -0.31,-1.41 -0.21,-0.31 -0.59,-0.64 -1.13,-0.64 l 0.05,-0.21 c 1.18,0 2.22,0.97 2.22,2.25 0,1.26 -0.98,2.25 -2.11,2.25 -0.78,0 -1.21,-0.47 -1.37,-0.65 z"
   inkscape:connector-curvature="0" />
<path
   id="path1062"
   style="fill:#000000;stroke-width:0"
   d="m 248.34,480.53 v 1.1 l -1.38,-0.11 v -0.31 c 0.7,0 0.78,-0.07 0.78,-0.56 v -2.66 c 0,-0.45 -0.11,-0.45 -0.78,-0.45 v -0.31 c 0.39,0.01 0.86,0.04 1.14,0.04 0.39,0 0.86,0 1.26,-0.04 v 0.31 h -0.21 c -0.74,0 -0.76,0.11 -0.76,0.47 v 1.53 c 0,0.98 0.42,1.87 1.18,1.87 0.07,0 0.09,0 0.11,-0.01 -0.03,-0.01 -0.23,-0.13 -0.23,-0.39 0,-0.28 0.21,-0.43 0.43,-0.43 0.18,0 0.43,0.12 0.43,0.44 0,0.32 -0.31,0.61 -0.74,0.61 -0.73,0 -1.09,-0.67 -1.23,-1.1 z"
   inkscape:connector-curvature="0" />
<path
   id="path1064"
   style="fill:#000000;stroke-width:0"
   d="m 251.69,479.53 0.01,0.21 c 0.06,1.48 0.9,1.73 1.23,1.73 1.03,0 1.13,-1.34 1.13,-1.73 h -2.36 l -0.01,-0.21 h 2.78 c 0.22,0 0.25,0 0.25,0.21 0,0.98 -0.54,1.94 -1.79,1.94 -1.15,0 -2.07,-1.02 -2.07,-2.26 0,-1.33 1.05,-2.29 2.19,-2.29 1.22,0 1.67,1.1 1.67,1.29 0,0.1 -0.08,0.12 -0.13,0.12 -0.09,0 -0.11,-0.06 -0.13,-0.14 -0.35,-1.03 -1.25,-1.03 -1.35,-1.03 -0.49,0 -0.89,0.3 -1.12,0.67 -0.3,0.48 -0.3,1.13 -0.3,1.49 z"
   inkscape:connector-curvature="0" />
</g>  </g>
  <g
     id="g1191"
     inkscape:label="GND"
     transform="translate(73.518739,-0.82348183)">
    <g
       transform="matrix(0.739645,0,0,-0.739645,-155.39942,359.49213)"
       ns0:preamble="C:\\Users\\Marcelo\\AppData\\Roaming\\inkscape\\extensions/textextLib/CircuitSymbolsLatexPreamble.tex"
       ns0:text=" $\\textrm{Unidad de Control}$"
       word-spacing="normal"
       letter-spacing="normal"
       font-size-adjust="none"
       font-stretch="normal"
       font-weight="normal"
       font-variant="normal"
       font-style="normal"
       stroke-miterlimit="10.433"
       xml:space="preserve"
       id="g1189"
       style="font-style:normal;font-variant:normal;font-weight:normal;font-stretch:normal;letter-spacing:normal;word-spacing:normal;text-anchor:start;fill:none;fill-opacity:1;fill-rule:evenodd;stroke:#000000;stroke-linecap:butt;stroke-linejoin:miter;stroke-miterlimit:10.43299961;stroke-dasharray:none;stroke-dashoffset:0;stroke-opacity:1"
       inkscape:export-xdpi="600"
       inkscape:export-ydpi="600">
<path
   id="path1157"
   style="fill:#000000;stroke-width:0"
   d="m 229.24,479.53 -0.01,-0.13 -0.01,-0.13 -0.01,-0.12 -0.02,-0.12 -0.02,-0.12 -0.03,-0.11 -0.03,-0.11 -0.04,-0.1 -0.04,-0.1 -0.05,-0.1 -0.05,-0.09 -0.05,-0.09 -0.06,-0.08 -0.06,-0.08 -0.06,-0.08 -0.07,-0.07 -0.07,-0.07 -0.07,-0.06 -0.07,-0.06 -0.08,-0.06 -0.08,-0.05 -0.08,-0.05 -0.08,-0.04 -0.08,-0.04 -0.08,-0.03 -0.09,-0.03 -0.09,-0.03 -0.08,-0.02 -0.09,-0.02 -0.09,-0.01 h -0.09 l -0.09,-0.01 c -0.47,0 -1.64,0.25 -1.64,2.14 v 3.78 c 0,0.36 0.02,0.47 0.78,0.47 h 0.24 v 0.31 c -0.35,-0.03 -1.08,-0.03 -1.46,-0.03 -0.38,0 -1.13,0 -1.48,0.03 v -0.31 H 224 c 0.77,0 0.79,-0.11 0.79,-0.47 v -3.74 c 0,-1.4 1.16,-2.48 2.51,-2.48 1.15,0 2.05,0.92 2.21,2.05 0.03,0.2 0.03,0.29 0.03,0.69 v 3.18 c 0,0.33 0,0.77 1.03,0.77 v 0.31 c -0.36,-0.01 -0.84,-0.03 -1.17,-0.03 -0.35,0 -0.83,0.02 -1.19,0.03 v -0.31 c 1.03,0 1.03,-0.47 1.03,-0.73 z"
   inkscape:connector-curvature="0" />
<path
   id="path1159"
   style="fill:#000000;stroke-width:0"
   d="m 232,480.65 v -2.66 c 0,-0.45 -0.11,-0.45 -0.78,-0.45 v -0.31 c 0.35,0.01 0.86,0.04 1.13,0.04 0.26,0 0.78,-0.03 1.12,-0.04 v 0.31 c -0.67,0 -0.78,0 -0.78,0.45 v 1.83 c 0,1.03 0.71,1.59 1.35,1.59 0.62,0 0.73,-0.54 0.73,-1.11 v -2.31 c 0,-0.45 -0.11,-0.45 -0.78,-0.45 v -0.31 c 0.35,0.01 0.86,0.04 1.13,0.04 0.26,0 0.78,-0.03 1.12,-0.04 v 0.31 c -0.52,0 -0.77,0 -0.78,0.3 v 1.9 c 0,0.85 0,1.16 -0.31,1.52 -0.14,0.17 -0.47,0.37 -1.05,0.37 -0.72,0 -1.19,-0.43 -1.47,-1.05 v 1.05 l -1.41,-0.11 v -0.31 c 0.7,0 0.78,-0.07 0.78,-0.56 z"
   inkscape:connector-curvature="0" />
<path
   id="path1161"
   style="fill:#000000;stroke-width:0"
   d="m 238.2,481.63 -1.39,-0.11 v -0.31 c 0.65,0 0.74,-0.06 0.74,-0.55 v -2.67 c 0,-0.45 -0.11,-0.45 -0.78,-0.45 v -0.31 c 0.32,0.01 0.86,0.04 1.1,0.04 0.34,0 0.69,-0.03 1.03,-0.04 v 0.31 c -0.66,0 -0.7,0.05 -0.7,0.44 z"
   inkscape:connector-curvature="0" />
<path
   id="path1163"
   style="fill:#000000;stroke-width:0"
   d="m 238.24,483.35 v 0.03 0.03 0.03 l -0.01,0.03 v 0.02 l -0.01,0.03 -0.01,0.03 -0.01,0.02 -0.01,0.02 -0.01,0.03 -0.02,0.02 -0.01,0.02 -0.01,0.02 -0.02,0.02 -0.02,0.02 -0.02,0.02 -0.01,0.01 -0.02,0.02 -0.02,0.01 -0.02,0.02 -0.03,0.01 -0.02,0.01 -0.02,0.01 -0.02,0.01 -0.03,0.01 -0.02,0.01 -0.03,0.01 h -0.02 l -0.03,0.01 h -0.02 -0.03 -0.02 c -0.31,0 -0.53,-0.27 -0.53,-0.53 0,-0.26 0.22,-0.52 0.53,-0.52 0.27,0 0.52,0.21 0.52,0.52 z"
   inkscape:connector-curvature="0" />
<path
   id="path1165"
   style="fill:#000000;stroke-width:0"
   d="m 243,477.78 v -0.65 l 1.46,0.1 v 0.31 c -0.7,0 -0.78,0.07 -0.78,0.56 v 6.03 l -1.43,-0.11 v -0.31 c 0.7,0 0.78,-0.07 0.78,-0.55 v -2.15 c -0.29,0.36 -0.72,0.62 -1.26,0.62 l 0.04,-0.22 c 0.35,0 0.77,-0.15 1.08,-0.6 0.11,-0.17 0.11,-0.19 0.11,-0.37 v 0 -2.03 c 0,-0.18 0,-0.2 -0.11,-0.37 -0.3,-0.48 -0.75,-0.7 -1.18,-0.7 -0.45,0 -0.81,0.26 -1.05,0.64 -0.26,0.41 -0.29,0.97 -0.29,1.38 0,0.37 0.02,0.96 0.31,1.41 0.21,0.31 0.59,0.64 1.13,0.64 l -0.04,0.22 c -1.18,0 -2.22,-0.98 -2.22,-2.26 0,-1.26 0.97,-2.24 2.11,-2.24 0.64,0 1.09,0.33 1.34,0.65 z"
   inkscape:connector-curvature="0" />
<path
   id="path1167"
   style="fill:#000000;stroke-width:0"
   d="m 248.06,477.99 0.01,-0.04 v -0.03 l 0.01,-0.04 0.01,-0.04 0.01,-0.04 0.01,-0.03 0.01,-0.04 0.02,-0.03 0.01,-0.04 0.02,-0.03 0.01,-0.04 0.02,-0.03 0.02,-0.03 0.02,-0.04 0.03,-0.03 0.02,-0.03 0.03,-0.02 0.02,-0.03 0.03,-0.03 0.03,-0.02 0.03,-0.02 0.03,-0.03 0.03,-0.02 0.04,-0.01 0.03,-0.02 0.04,-0.01 0.04,-0.02 0.03,-0.01 h 0.04 l 0.04,-0.01 h 0.05 l 0.04,-0.01 c 0.21,0 0.82,0.14 0.82,0.95 v 0.55 h -0.25 v -0.55 c 0,-0.58 -0.25,-0.64 -0.36,-0.64 -0.33,0 -0.37,0.45 -0.37,0.5 v 1.99 c 0,0.41 0,0.8 -0.36,1.17 -0.39,0.39 -0.89,0.54 -1.36,0.54 -0.82,0 -1.51,-0.46 -1.51,-1.12 0,-0.29 0.2,-0.46 0.46,-0.46 0.28,0 0.46,0.2 0.46,0.45 0,0.12 -0.05,0.45 -0.51,0.46 0.27,0.35 0.76,0.46 1.08,0.46 0.48,0 1.05,-0.39 1.05,-1.27 v -0.37 -0.21 -0.99 c 0,-0.95 -0.72,-1.29 -1.16,-1.29 -0.49,0 -0.9,0.35 -0.9,0.85 0,0.54 0.42,1.37 2.06,1.43 v 0 0.21 c -0.51,-0.03 -1.2,-0.06 -1.83,-0.36 -0.75,-0.34 -1,-0.85 -1,-1.29 0,-0.81 0.97,-1.05 1.6,-1.05 0.65,0 1.11,0.39 1.3,0.86 z"
   inkscape:connector-curvature="0" />
<path
   id="path1169"
   style="fill:#000000;stroke-width:0"
   d="m 253.51,477.78 v -0.65 l 1.47,0.1 v 0.31 c -0.7,0 -0.78,0.07 -0.78,0.56 v 6.03 l -1.44,-0.11 v -0.31 c 0.7,0 0.78,-0.07 0.78,-0.55 v -2.15 c -0.29,0.36 -0.72,0.62 -1.25,0.62 l 0.04,-0.22 c 0.35,0 0.76,-0.15 1.07,-0.6 0.11,-0.17 0.11,-0.19 0.11,-0.37 v 0 -2.03 c 0,-0.18 0,-0.2 -0.11,-0.37 -0.3,-0.48 -0.75,-0.7 -1.17,-0.7 -0.45,0 -0.81,0.26 -1.05,0.64 -0.26,0.41 -0.29,0.97 -0.29,1.38 0,0.37 0.02,0.96 0.31,1.41 0.21,0.31 0.59,0.64 1.13,0.64 l -0.04,0.22 c -1.18,0 -2.23,-0.98 -2.23,-2.26 0,-1.26 0.98,-2.24 2.12,-2.24 0.64,0 1.08,0.33 1.33,0.65 z"
   inkscape:connector-curvature="0" />
<path
   id="path1171"
   style="fill:#000000;stroke-width:0"
   d="m 262.36,477.78 v -0.65 l 1.47,0.1 v 0.31 c -0.7,0 -0.78,0.07 -0.78,0.56 v 6.03 l -1.43,-0.11 v -0.31 c 0.7,0 0.77,-0.07 0.77,-0.55 v -2.15 c -0.28,0.36 -0.71,0.62 -1.25,0.62 l 0.04,-0.22 c 0.35,0 0.77,-0.15 1.08,-0.6 0.1,-0.17 0.1,-0.19 0.1,-0.37 v 0 -2.03 c 0,-0.18 0,-0.2 -0.1,-0.37 -0.3,-0.48 -0.75,-0.7 -1.18,-0.7 -0.45,0 -0.81,0.26 -1.05,0.64 -0.26,0.41 -0.29,0.97 -0.29,1.38 0,0.37 0.02,0.96 0.31,1.41 0.21,0.31 0.59,0.64 1.13,0.64 l -0.04,0.22 c -1.18,0 -2.22,-0.98 -2.22,-2.26 0,-1.26 0.97,-2.24 2.11,-2.24 0.64,0 1.09,0.33 1.33,0.65 z"
   inkscape:connector-curvature="0" />
<path
   id="path1173"
   style="fill:#000000;stroke-width:0"
   d="m 265.22,479.53 0.01,0.21 c 0.06,1.48 0.9,1.73 1.23,1.73 1.03,0 1.13,-1.34 1.13,-1.73 h -2.36 l -0.01,-0.21 H 268 c 0.22,0 0.25,0 0.25,0.21 0,0.98 -0.54,1.94 -1.79,1.94 -1.15,0 -2.07,-1.02 -2.07,-2.26 0,-1.33 1.05,-2.29 2.19,-2.29 1.22,0 1.67,1.1 1.67,1.29 0,0.1 -0.08,0.12 -0.13,0.12 -0.09,0 -0.11,-0.06 -0.13,-0.14 -0.35,-1.03 -1.25,-1.03 -1.35,-1.03 -0.5,0 -0.89,0.3 -1.12,0.67 -0.3,0.48 -0.3,1.13 -0.3,1.49 z"
   inkscape:connector-curvature="0" />
<path
   id="path1175"
   style="fill:#000000;stroke-width:0"
   d="m 272.42,480.63 0.01,-0.19 0.01,-0.19 0.03,-0.18 0.03,-0.18 0.04,-0.18 0.05,-0.18 0.05,-0.16 0.07,-0.17 0.07,-0.16 0.08,-0.16 0.08,-0.15 0.09,-0.15 0.1,-0.14 0.11,-0.13 0.11,-0.13 0.11,-0.13 0.13,-0.12 0.12,-0.11 0.13,-0.1 0.14,-0.1 0.14,-0.09 0.15,-0.09 0.15,-0.08 0.15,-0.07 0.16,-0.06 0.16,-0.06 0.16,-0.04 0.16,-0.04 0.17,-0.03 0.17,-0.03 0.17,-0.01 h 0.17 c 1.63,0 2.61,1.38 2.61,2.53 0,0.1 0,0.17 -0.13,0.17 -0.11,0 -0.11,-0.06 -0.12,-0.16 -0.08,-1.42 -1.15,-2.24 -2.23,-2.24 -0.61,0 -2.57,0.34 -2.57,3.3 0,2.97 1.95,3.31 2.55,3.31 1.09,0 1.98,-0.9 2.18,-2.35 0.02,-0.14 0.02,-0.17 0.16,-0.17 0.16,0 0.16,0.03 0.16,0.24 V 484 c 0,0.17 0,0.24 -0.11,0.24 -0.04,0 -0.08,0 -0.16,-0.12 l -0.5,-0.74 c -0.37,0.36 -0.88,0.86 -1.84,0.86 -1.86,0 -3.47,-1.58 -3.47,-3.61 z"
   inkscape:connector-curvature="0" />
<path
   id="path1177"
   style="fill:#000000;stroke-width:0"
   d="m 283.76,479.36 v 0.12 l -0.01,0.12 -0.02,0.11 -0.02,0.12 -0.02,0.11 -0.03,0.11 -0.04,0.11 -0.04,0.1 -0.04,0.1 -0.05,0.1 -0.05,0.1 -0.06,0.09 -0.06,0.1 -0.07,0.08 -0.07,0.09 -0.07,0.08 -0.08,0.08 -0.08,0.07 -0.08,0.07 -0.09,0.06 -0.09,0.07 -0.09,0.05 -0.09,0.05 -0.1,0.05 -0.1,0.04 -0.1,0.04 -0.11,0.03 -0.1,0.03 -0.11,0.02 -0.11,0.01 -0.11,0.01 h -0.12 l -0.01,-0.21 c 0.44,0 0.87,-0.22 1.13,-0.65 0.26,-0.43 0.26,-1 0.26,-1.38 0,-0.36 0,-0.89 -0.22,-1.33 -0.22,-0.45 -0.66,-0.74 -1.16,-0.74 v 0 c -0.42,0 -0.86,0.21 -1.13,0.67 -0.25,0.44 -0.25,1.04 -0.25,1.4 0,0.39 0,0.92 0.24,1.36 0.27,0.46 0.73,0.67 1.13,0.67 l 0.01,0.21 c -1.24,0 -2.21,-1.08 -2.21,-2.32 0,-1.28 1.04,-2.23 2.2,-2.23 1.21,0 2.22,0.97 2.22,2.23 z"
   inkscape:connector-curvature="0" />
<path
   id="path1179"
   style="fill:#000000;stroke-width:0"
   d="m 285.14,480.65 v -2.66 c 0,-0.45 -0.11,-0.45 -0.78,-0.45 v -0.31 c 0.35,0.01 0.86,0.04 1.13,0.04 0.26,0 0.78,-0.03 1.12,-0.04 v 0.31 c -0.67,0 -0.78,0 -0.78,0.45 v 1.83 c 0,1.03 0.71,1.59 1.34,1.59 0.63,0 0.74,-0.54 0.74,-1.11 v -2.31 c 0,-0.45 -0.11,-0.45 -0.78,-0.45 v -0.31 c 0.35,0.01 0.86,0.04 1.13,0.04 0.26,0 0.78,-0.03 1.12,-0.04 v 0.31 c -0.52,0 -0.77,0 -0.78,0.3 v 1.9 c 0,0.85 0,1.16 -0.31,1.52 -0.14,0.17 -0.47,0.37 -1.05,0.37 -0.72,0 -1.19,-0.43 -1.47,-1.05 v 1.05 l -1.41,-0.11 v -0.31 c 0.7,0 0.78,-0.07 0.78,-0.56 z"
   inkscape:connector-curvature="0" />
<path
   id="path1181"
   style="fill:#000000;stroke-width:0"
   d="m 291.02,481.21 h 1.43 v 0.31 h -1.43 v 1.82 h -0.25 c -0.01,-0.81 -0.31,-1.87 -1.28,-1.91 v -0.22 h 0.85 v -2.74 c 0,-1.23 0.92,-1.34 1.28,-1.34 0.71,0 0.99,0.7 0.99,1.34 v 0.56 h -0.25 v -0.54 c 0,-0.74 -0.3,-1.12 -0.67,-1.12 -0.67,0 -0.67,0.91 -0.67,1.08 z"
   inkscape:connector-curvature="0" />
<path
   id="path1183"
   style="fill:#000000;stroke-width:0"
   d="m 294.84,480.53 v 1.1 l -1.39,-0.11 v -0.31 c 0.7,0 0.78,-0.07 0.78,-0.56 v -2.66 c 0,-0.45 -0.11,-0.45 -0.78,-0.45 v -0.31 c 0.39,0.01 0.86,0.04 1.14,0.04 0.4,0 0.87,0 1.27,-0.04 v 0.31 h -0.21 c -0.74,0 -0.76,0.11 -0.76,0.47 v 1.53 c 0,0.98 0.42,1.87 1.18,1.87 0.07,0 0.08,0 0.1,-0.01 -0.03,-0.01 -0.22,-0.13 -0.22,-0.39 0,-0.28 0.2,-0.43 0.42,-0.43 0.18,0 0.43,0.12 0.43,0.44 0,0.32 -0.31,0.61 -0.73,0.61 -0.73,0 -1.09,-0.67 -1.23,-1.1 z"
   inkscape:connector-curvature="0" />
<path
   id="path1185"
   style="fill:#000000;stroke-width:0"
   d="m 301.77,479.36 v 0.12 l -0.01,0.12 -0.01,0.11 -0.02,0.12 -0.03,0.11 -0.03,0.11 -0.03,0.11 -0.04,0.1 -0.05,0.1 -0.05,0.1 -0.05,0.1 -0.06,0.09 -0.06,0.1 -0.06,0.08 -0.07,0.09 -0.08,0.08 -0.07,0.08 -0.08,0.07 -0.09,0.07 -0.08,0.06 -0.09,0.07 -0.1,0.05 -0.09,0.05 -0.1,0.05 -0.1,0.04 -0.1,0.04 -0.1,0.03 -0.11,0.03 -0.11,0.02 -0.11,0.01 -0.11,0.01 h -0.11 l -0.01,-0.21 c 0.44,0 0.87,-0.22 1.12,-0.65 0.27,-0.43 0.27,-1 0.27,-1.38 0,-0.36 0,-0.89 -0.22,-1.33 -0.22,-0.45 -0.66,-0.74 -1.16,-0.74 v 0 c -0.43,0 -0.87,0.21 -1.14,0.67 -0.25,0.44 -0.25,1.04 -0.25,1.4 0,0.39 0,0.92 0.24,1.36 0.27,0.46 0.74,0.67 1.14,0.67 l 0.01,0.21 c -1.25,0 -2.21,-1.08 -2.21,-2.32 0,-1.28 1.03,-2.23 2.2,-2.23 1.21,0 2.21,0.97 2.21,2.23 z"
   inkscape:connector-curvature="0" />
<path
   id="path1187"
   style="fill:#000000;stroke-width:0"
   d="m 303.82,484.13 -1.43,-0.11 v -0.31 c 0.69,0 0.77,-0.07 0.77,-0.55 v -5.17 c 0,-0.45 -0.11,-0.45 -0.77,-0.45 v -0.31 c 0.32,0.01 0.85,0.04 1.1,0.04 0.25,0 0.74,-0.03 1.11,-0.04 v 0.31 c -0.67,0 -0.78,0 -0.78,0.45 z"
   inkscape:connector-curvature="0" />
</g>  </g>
</svg>
